<svg xmlns="http://www.w3.org/2000/svg" viewBox="0 0 1282.86 857.19"><defs><style>.cls-1{fill:#5d449b;}.cls-13,.cls-14,.cls-2{fill:#402c80;}.cls-3{fill:#b39ecc;}.cls-4{fill:#947cb9;}.cls-10,.cls-5,.cls-9{fill:#6851a2;}.cls-5{opacity:0.31;}.cls-15,.cls-6{fill:#c76cab;}.cls-6{opacity:0.6;}.cls-7{fill:#745ca7;}.cls-8{fill:#b5a0cd;opacity:0.36;}.cls-9{opacity:0.2;}.cls-10{opacity:0.1;}.cls-11{fill:#e69fc6;}.cls-12{fill:#ce81b7;}.cls-13{stroke:#fff;stroke-miterlimit:10;stroke-width:3px;}.cls-14{opacity:0.5;}</style></defs><title>Asset 22</title><g id="Layer_2" data-name="Layer 2"><g id="Layer_1-2" data-name="Layer 1"><rect class="cls-1" width="1282.86" height="857.19"/><path class="cls-2" d="M468.38,580.59c-.37,6.77-2.63,10.22-.76,11.44s6.51.86,7.55-4.45,1.8-13.42-3-13.33C472.17,574.25,468.82,572.74,468.38,580.59Zm5.94,3.24c-.74,4.3-2.85,7.5-4.71,7.14s-.89-3.78-.16-8.07,1-7.84,2.82-7.49S475.06,579.53,474.32,583.83Z"/><path class="cls-3" d="M474.32,583.83c-.74,4.3-2.85,7.5-4.71,7.14s-.89-3.78-.16-8.07,1-7.84,2.82-7.49S475.06,579.53,474.32,583.83Z"/><path class="cls-2" d="M463.16,598.09c-2.91,6.13-6.31,8.46-5,10.29s5.7,3.26,8.68-1.26,6.75-11.74,2.28-13.47C469.08,593.66,466.54,591,463.16,598.09Zm4.27,5.25c-2.31,3.7-5.47,5.86-7.07,4.83s.61-3.83,2.92-7.53,3.86-6.89,5.45-5.86S469.75,599.64,467.43,603.34Z"/><path class="cls-3" d="M467.43,603.34c-2.31,3.7-5.47,5.86-7.07,4.83s.61-3.83,2.92-7.53,3.86-6.89,5.45-5.86S469.75,599.64,467.43,603.34Z"/><path class="cls-2" d="M451.11,612.33c-4.84,4.76-8.82,5.78-8.26,7.94s4.24,5,8.58,1.8,10.37-8.71,6.76-11.87C458.19,610.2,456.73,606.82,451.11,612.33Zm2.21,6.39c-3.44,2.68-7.15,3.62-8.29,2.11s1.88-3.39,5.32-6.07,6-5.15,7.13-3.63S456.77,616,453.33,618.73Z"/><path class="cls-3" d="M453.33,618.73c-3.44,2.68-7.15,3.62-8.29,2.11s1.88-3.39,5.32-6.07,6-5.15,7.13-3.63S456.77,616,453.33,618.73Z"/><path class="cls-2" d="M567.45,581.78c6.68-6.32,12.25-7.41,11.4-10.54s-6.09-7.54-12.1-3.35-14.34,11.43-9.19,16.27C557.56,584.17,559.7,589.11,567.45,581.78Zm-3.28-9.31c4.76-3.5,10-4.5,11.6-2.23s-2.56,4.65-7.32,8.15-8.28,6.77-9.92,4.51S559.41,576,564.17,572.48Z"/><path class="cls-3" d="M564.38,572.78c4.31-3.16,9-4.07,10.49-2s-2.31,4.21-6.62,7.37-7.49,6.12-9,4.08S560.07,575.94,564.38,572.78Z"/><path class="cls-2" d="M556.88,596c6.68-6.32,12.25-7.41,11.4-10.54s-6.09-7.54-12.1-3.35S541.84,593.5,547,598.33C547,598.33,549.14,603.28,556.88,596Zm-3.28-9.31c4.76-3.5,10-4.5,11.6-2.23s-2.56,4.65-7.32,8.15-8.28,6.77-9.92,4.51S548.85,590.14,553.61,586.64Z"/><path class="cls-3" d="M553.82,586.95c4.31-3.16,9-4.07,10.49-2s-2.31,4.21-6.62,7.37-7.49,6.12-9,4.08S549.51,590.11,553.82,586.95Z"/><path class="cls-2" d="M553.28,611.41c6.68-6.32,12.25-7.41,11.4-10.54s-6.09-7.54-12.1-3.35-14.34,11.43-9.19,16.27C543.39,613.79,545.54,618.73,553.28,611.41ZM550,602.1c4.76-3.5,10-4.5,11.6-2.23s-2.56,4.65-7.32,8.15-8.28,6.77-9.92,4.51S545.24,605.6,550,602.1Z"/><path class="cls-3" d="M550.21,602.4c4.31-3.16,9-4.07,10.49-2s-2.31,4.21-6.62,7.37-7.49,6.12-9,4.08S545.91,605.56,550.21,602.4Z"/><path class="cls-2" d="M553,625.83c6.68-6.32,12.25-7.41,11.4-10.54s-6.09-7.54-12.1-3.35-14.34,11.43-9.19,16.27C543.13,628.21,545.28,633.16,553,625.83Zm-3.28-9.31c4.76-3.5,10-4.5,11.6-2.23s-2.56,4.65-7.32,8.15-8.28,6.77-9.92,4.51S545,620,549.75,616.52Z"/><path class="cls-3" d="M550,616.83c4.31-3.16,9-4.07,10.49-2s-2.31,4.21-6.62,7.37-7.49,6.12-9,4.08S545.65,620,550,616.83Z"/><path class="cls-2" d="M555.34,640c6.68-6.32,12.25-7.41,11.4-10.54s-6.09-7.54-12.1-3.35-14.34,11.43-9.19,16.27C545.45,642.38,547.6,647.33,555.34,640Zm-3.28-9.31c4.76-3.5,10-4.5,11.6-2.23s-2.56,4.65-7.32,8.15-8.28,6.77-9.92,4.51S547.3,634.19,552.06,630.69Z"/><path class="cls-3" d="M552.27,631c4.31-3.16,9-4.07,10.49-2s-2.31,4.21-6.62,7.37-7.49,6.12-9,4.08S548,634.16,552.27,631Z"/><path class="cls-2" d="M583.69,570.43c8.17-4.21,13.83-3.7,13.89-6.94s-3.74-8.93-10.69-6.59-17,7-13.36,13.07C573.53,570,574.21,575.31,583.69,570.43Zm-.55-9.85c5.55-2,10.81-1.54,11.76,1.09s-3.75,3.76-9.3,5.79-9.84,4.19-10.79,1.56S577.59,562.61,583.14,560.58Z"/><path class="cls-3" d="M583.26,560.93c5-1.84,9.78-1.4,10.63,1s-3.4,3.4-8.41,5.23-8.9,3.79-9.75,1.41S578.24,562.76,583.26,560.93Z"/><path class="cls-2" d="M747.89,395.38c-.55,4.39-2.69,6.39-1.05,7.4s5.81,1.29,6.92-2.07,2-8.58-2.26-9.06C751.5,391.65,748.53,390.29,747.89,395.38Zm5.22,2.78c-.8,2.73-2.79,4.59-4.45,4.15s-.68-2.57.12-5.3,1.11-5,2.77-4.58S753.91,395.43,753.11,398.16Z"/><path class="cls-3" d="M753.11,398.16c-.8,2.73-2.79,4.59-4.45,4.15s-.68-2.57.12-5.3,1.11-5,2.77-4.58S753.91,395.43,753.11,398.16Z"/><path class="cls-2" d="M742.74,407.23c-.55,4.39-2.69,6.39-1.05,7.4s5.81,1.29,6.92-2.07,2-8.58-2.26-9.06C746.34,403.5,743.38,402.14,742.74,407.23ZM748,410c-.8,2.73-2.79,4.59-4.45,4.15s-.68-2.57.12-5.3,1.11-5,2.77-4.58S748.76,407.28,748,410Z"/><path class="cls-3" d="M748,410c-.8,2.73-2.79,4.59-4.45,4.15s-.68-2.57.12-5.3,1.11-5,2.77-4.58S748.76,407.28,748,410Z"/><path class="cls-3" d="M411.09,572.66c-4.59-2.58-7.41-6.17-6.31-8s4.61.63,9.2,3.21,8.51,4.31,7.41,6.15S415.68,575.24,411.09,572.66Z"/><path class="cls-2" d="M417,567.67c-7.53-3.23-10.57-7.08-12.66-5.6s-3.43,6.6,2.19,9.93,14.51,7.54,16.22,2.37C422.75,574.37,425.73,571.42,417,567.67Zm-5.9,5c-4.59-2.58-7.41-6.17-6.31-8s4.61.63,9.2,3.21,8.51,4.31,7.41,6.15S415.68,575.24,411.09,572.66Z"/><path class="cls-3" d="M382.89,535.24c-1.41-3.91-.92-7.68,1.1-8.42s2.76,2.59,4.16,6.5,2.95,6.92.93,7.66S384.3,539.15,382.89,535.24Z"/><path class="cls-2" d="M390.36,534.61c-3-5.73-2.48-9.78-4.93-9.75s-6.85,2.88-5.24,7.79,4.89,11.94,9.58,9.22C389.77,541.87,393.83,541.25,390.36,534.61Zm-7.47.63c-1.41-3.91-.92-7.68,1.1-8.42s2.76,2.59,4.16,6.5,2.95,6.92.93,7.66S384.3,539.15,382.89,535.24Z"/><path class="cls-3" d="M378.1,517c-.75-4.09.36-7.73,2.46-8.12s2.29,3,3,7.1,1.77,7.31-.34,7.71S378.85,521.08,378.1,517Z"/><path class="cls-2" d="M385.57,517.6c-2-6.15-.84-10.06-3.26-10.42s-7.23,1.72-6.45,6.82,2.86,12.58,7.93,10.67C383.8,524.67,387.9,524.73,385.57,517.6ZM378.1,517c-.75-4.09.36-7.73,2.46-8.12s2.29,3,3,7.1,1.77,7.31-.34,7.71S378.85,521.08,378.1,517Z"/><path class="cls-3" d="M377.25,498.24c.09-4.16,1.89-7.5,4-7.47s1.65,3.4,1.56,7.56.27,7.52-1.87,7.49S377.16,502.4,377.25,498.24Z"/><path class="cls-2" d="M384.44,500.33c-.75-6.42,1.18-10-1.12-10.87s-7.43.24-7.68,5.4.3,12.9,5.65,12C381.3,506.9,385.31,507.78,384.44,500.33Zm-7.2-2.09c.09-4.16,1.89-7.5,4-7.47s1.65,3.4,1.56,7.56.27,7.52-1.87,7.49S377.16,502.4,377.25,498.24Z"/><path class="cls-4" d="M470.54,525.66l.42,49.7s-4,35.09-31.5,48.21c0,0-12.32,6-15.54,0s9.48-12.06,9.48-12.06,15.85-15.05,12.81-36.33,3.58-66.57,16.65-77.9l12.49,16.28Z"/><path class="cls-5" d="M458.62,606.09s7.73-21.64-2.58-22.67-10.3,4.64-10.3,4.64l2.58-59.76,6.18-17,8.71-17.39,1.59,15.33s-2.64,9.57,2.58,13.39l5.22,3.83L471,582.39Z"/><path class="cls-2" d="M470.17,569.82s-.47,29.73-22.64,46.35-23.61,7.37-23.61,7.37-2.82-4,7.54-9.8,18.59-25,14.75-38.6l-2.37.17S447.65,597,435.38,608c-4.69,4.2-9.45,6.4-11.84,8.27-4,3.12-3.75,4.55-3,7.37,1.67,5.55,9,5.85,13.51,4s40.88-17,37.87-58.33Z"/><path class="cls-2" d="M507.51,553.62c-8.23,4.67-13.82,5-14,7.75s3.43,7.21,10.39,4.3,17-8.18,13.65-12.95C517.56,552.72,517.05,548.21,507.51,553.62Zm.24,8.4c-5.56,2.46-10.76,2.71-11.62.57s3.84-3.71,9.4-6.17,9.88-4.87,10.74-2.73S513.31,559.57,507.75,562Z"/><path class="cls-3" d="M507.75,562c-5.56,2.46-10.76,2.71-11.62.57s3.84-3.71,9.4-6.17,9.88-4.87,10.74-2.73S513.31,559.57,507.75,562Z"/><path class="cls-2" d="M483.82,564.56c-7.63,3.12-12.59,2.44-12.95,5.13s2.46,7.59,8.82,6,15.67-5,13.06-10.24C492.76,565.42,492.67,560.94,483.82,564.56Zm-.45,8.21c-5.1,1.43-9.71.79-10.3-1.44s3.68-2.95,8.78-4.38,9.1-3,9.69-.8S488.47,571.34,483.37,572.77Z"/><path class="cls-3" d="M483.37,572.77c-5.1,1.43-9.71.79-10.3-1.44s3.68-2.95,8.78-4.38,9.1-3,9.69-.8S488.47,571.34,483.37,572.77Z"/><path class="cls-2" d="M459.74,570.53c-7.34,3-12.14,2.29-12.46,5s2.46,7.59,8.6,6,15.09-4.82,12.51-10.05C468.4,571.49,468.26,567,459.74,570.53Zm-.34,8.17c-4.91,1.37-9.38.67-10-1.56s3.52-2.89,8.44-4.26,8.77-2.92,9.36-.69S464.31,577.34,459.4,578.7Z"/><path class="cls-3" d="M459.4,578.7c-4.91,1.37-9.38.67-10-1.56s3.52-2.89,8.44-4.26,8.77-2.92,9.36-.69S464.31,577.34,459.4,578.7Z"/><path class="cls-3" d="M930.17,431.67c-2,4.35-5.32,7.1-7.39,6.13s0-4.31,2-8.67,3.21-8.06,5.29-7.1S932.18,427.31,930.17,431.67Z"/><path class="cls-2" d="M924.13,426.33c-2.25,7.11-5.79,10.07-3.95,12s7.35,3,10-2.36,5.69-13.76.08-15.18C930.24,420.76,926.74,418.08,924.13,426.33Zm6,5.34c-2,4.35-5.32,7.1-7.39,6.13s0-4.31,2-8.67,3.21-8.06,5.29-7.1S932.18,427.31,930.17,431.67Z"/><path class="cls-3" d="M919.05,452.07c-2.94,3.79-7.22,5.48-9.55,3.77s.53-4.45,3.47-8.24,4.86-7.2,7.19-5.49S922,448.27,919.05,452.07Z"/><path class="cls-2" d="M912.58,444.48c-3.59,6.55-8.17,8.38-6.23,11s8.32,5.6,12.12,1,8.52-12.21,2.07-15.61C920.54,440.85,916.75,436.88,912.58,444.48Zm6.47,7.59c-2.94,3.79-7.22,5.48-9.55,3.77s.53-4.45,3.47-8.24,4.86-7.2,7.19-5.49S922,448.27,919.05,452.07Z"/><path class="cls-3" d="M882.93,486.56c-4.94,2.33-10.28,2.31-11.92,0s2.71-3.78,7.65-6.11,8.61-4.68,10.25-2.33S887.88,484.23,882.93,486.56Z"/><path class="cls-2" d="M883.23,486.38c-4.72,2.64-10.05,3-11.91.73s2.35-3.94,7.07-6.58,8.16-5.22,10-3S887.95,483.74,883.23,486.38Zm-4-8.81c-6.52,5-12.24,5.36-11.16,8.29a7.64,7.64,0,0,0,5.68,4.32c2.23.43,5.14-.25,7.54-.91,6.68-1.84,13.75-7.78,8.07-12.75C889.32,476.51,886.76,471.78,879.2,477.57Z"/><path class="cls-3" d="M902.91,471.24c-4.06,3.15-8.9,3.81-10.81,1.47s1.78-4.44,5.84-7.59,7-6.17,8.87-3.83S907,468.09,902.91,471.24Z"/><path class="cls-2" d="M898.4,461.83c-5.49,5.83-10.68,6.55-9.41,9.69s6.95,7.85,12.12,4.09,12.11-10.39,6.44-15.51C907.55,460.1,904.77,455.07,898.4,461.83Zm4.51,9.42c-4.06,3.15-8.9,3.81-10.81,1.47s1.78-4.44,5.84-7.59,7-6.17,8.87-3.83S907,468.09,902.91,471.24Z"/><path class="cls-2" d="M796.06,486c-10.45-.27-15.86-3.55-17.65-.66s-1,9.92,7.22,11.26,20.76,2.15,20.39-5.13C806,491.51,808.18,486.35,796.06,486Zm-4.7,9.15c-6.65-.93-11.68-4-11.23-6.83s5.77-1.52,12.43-.59,12.12,1.12,11.67,4S798,496.12,791.36,495.19Z"/><path class="cls-2" d="M826.9,488.7c-10.43.78-16.14-1.87-17.63,1.13s0,9.79,8.33,10.28,20.87,0,19.76-7.06C837.36,493,839,487.79,826.9,488.7Zm-3.74,9.42c-6.71-.24-12-2.72-11.87-5.54s5.59-2.06,12.3-1.82,12.17-.13,12,2.69S829.87,498.35,823.16,498.11Z"/><path class="cls-2" d="M530.91,297.27c-3.8-.84-5.09-3.54-6.38-1.56s-2.52,7.12.23,8.6,7.2,2.83,8.64-2.47C533.4,301.84,535.31,298.24,530.91,297.27Zm-3.72,6.34c-2.26-1.08-3.45-3.61-2.67-5.64s2.46-.74,4.72.34,4.23,1.55,3.45,3.58S529.44,304.69,527.19,303.61Z"/><path class="cls-3" d="M527.19,303.61c-2.26-1.08-3.45-3.61-2.67-5.64s2.46-.74,4.72.34,4.23,1.55,3.45,3.58S529.44,304.69,527.19,303.61Z"/><path class="cls-2" d="M540.23,311.93c-1.11-5.51.65-8.79-1.73-9.34s-7.52.81-7.49,5.3,1,11.17,6.4,10C537.4,317.88,541.52,318.32,540.23,311.93Zm-7.42-1.23c-.14-3.61,1.5-6.66,3.68-6.81s1.86,2.82,2,6.43.69,6.5-1.48,6.65S533,314.31,532.81,310.7Z"/><path class="cls-3" d="M532.81,310.7c-.14-3.61,1.5-6.66,3.68-6.81s1.86,2.82,2,6.43.69,6.5-1.48,6.65S533,314.31,532.81,310.7Z"/><path class="cls-2" d="M541,385c-1.86-6.94-.54-11.17-3-11.75s-7.44,1.38-6.8,7.07,2.53,14.11,7.77,12.36C538.94,392.65,543.14,393,541,385Zm-7.61-1.21c-.63-4.57.61-8.51,2.77-8.8s2.25,3.49,2.88,8.06,1.58,8.21-.59,8.5S534,388.33,533.36,383.76Z"/><path class="cls-3" d="M533.36,383.76c-.63-4.57.61-8.51,2.77-8.8s2.25,3.49,2.88,8.06,1.58,8.21-.59,8.5S534,388.33,533.36,383.76Z"/><path class="cls-2" d="M540.93,365c-1.69-7-.27-11.18-2.72-11.82s-7.47,1.2-7,6.91,2.18,14.16,7.47,12.55C538.71,372.62,542.89,373.08,540.93,365Zm-7.58-1.39c-.52-4.59.82-8.49,3-8.73s2.16,3.54,2.68,8.13,1.38,8.24-.8,8.48S533.87,368.18,533.35,363.6Z"/><path class="cls-3" d="M533.35,363.6c-.52-4.59.82-8.49,3-8.73s2.16,3.54,2.68,8.13,1.38,8.24-.8,8.48S533.87,368.18,533.35,363.6Z"/><path class="cls-2" d="M541.31,346c-1.2-6.21.52-9.86-1.88-10.51s-7.53.8-7.43,5.84,1.18,12.55,6.56,11.31C538.56,352.65,542.7,353.21,541.31,346Zm-7.45-1.49c-.2-4.06,1.41-7.45,3.59-7.59s1.9,3.2,2.1,7.25.79,7.31-1.39,7.44S534.05,348.58,533.86,344.52Z"/><path class="cls-3" d="M533.86,344.52c-.2-4.06,1.41-7.45,3.59-7.59s1.9,3.2,2.1,7.25.79,7.31-1.39,7.44S534.05,348.58,533.86,344.52Z"/><path class="cls-2" d="M542.55,327.38c-1.11-5.51.65-8.79-1.73-9.34s-7.52.81-7.49,5.3,1,11.17,6.4,10C539.72,333.34,543.84,333.78,542.55,327.38Zm-7.42-1.23c-.14-3.61,1.5-6.66,3.68-6.81s1.86,2.82,2,6.43.69,6.5-1.48,6.65S535.27,329.77,535.13,326.15Z"/><path class="cls-3" d="M535.13,326.15c-.14-3.61,1.5-6.66,3.68-6.81s1.86,2.82,2,6.43.69,6.5-1.48,6.65S535.27,329.77,535.13,326.15Z"/><path class="cls-2" d="M856.3,486.57c-9.08,2.45-14.63.72-15.39,3.94s1.82,9.75,9.27,8.9,18.48-3.32,16.19-10.19C866.36,489.23,866.84,483.74,856.3,486.57Zm-1.57,10c-6,.83-11.15-.79-11.53-3.63s4.57-2.95,10.55-3.78,10.75-2.07,11.13.76S860.71,495.71,854.73,496.55Z"/><path class="cls-3" d="M936.12,408.77c-1,4.36-3.46,7.52-5.57,7.05s-.91-3.93.05-8.29,1.32-8,3.43-7.51S937.08,404.41,936.12,408.77Z"/><path class="cls-3" d="M935.11,387c.48,3.58-.39,6.63-1.93,6.8s-1.62-2.77-2.1-6.35-1.17-6.44.37-6.61S934.63,383.44,935.11,387Z"/><path class="cls-3" d="M932.05,370c.8,3.08.23,5.89-1.27,6.28s-1.86-2.19-2.66-5.26-1.75-5.48-.24-5.87S931.25,367,932.05,370Z"/><path class="cls-3" d="M927,355.62c.7,2.68.2,5.13-1.11,5.47s-1.62-1.91-2.32-4.59-1.52-4.78-.21-5.12S926.32,352.94,927,355.62Z"/><path class="cls-3" d="M921.94,343.6c.88,2,.8,4-.17,4.39s-1.5-1.28-2.37-3.27-1.78-3.52-.81-3.95S921.07,341.61,921.94,343.6Z"/><path class="cls-3" d="M791.36,495.19c-6.65-.93-11.68-4-11.23-6.83s5.77-1.52,12.43-.59,12.12,1.12,11.67,4S798,496.12,791.36,495.19Z"/><path class="cls-3" d="M823.16,498.11c-6.71-.24-12-2.72-11.87-5.54s5.59-2.06,12.3-1.82,12.17-.13,12,2.69S829.87,498.35,823.16,498.11Z"/><path class="cls-3" d="M854.73,496.55c-6,.83-11.15-.79-11.53-3.63s4.57-2.95,10.55-3.78,10.75-2.07,11.13.76S860.71,495.71,854.73,496.55Z"/><path class="cls-2" d="M839.05,572c-1.86-3.49-1.27-6.08-3.05-5.94s-5.13,2.14-4.23,5.17,2.9,7.33,6.45,5.4C838.23,576.61,841.21,576,839.05,572Zm-5.46.74c-.81-2.41-.25-4.82,1.25-5.38s1.86,1.51,2.67,3.92,1.76,4.25.26,4.81S834.4,575.14,833.59,572.73Z"/><path class="cls-3" d="M833.59,572.73c-.81-2.41-.25-4.82,1.25-5.38s1.86,1.51,2.67,3.92,1.76,4.25.26,4.81S834.4,575.14,833.59,572.73Z"/><path class="cls-2" d="M831.56,559.7c-3.18-3.38-3.55-6.32-5.29-5.78s-4.36,3.45-2.31,6.54,5.67,7.32,8.51,4.44C832.47,564.9,835.25,563.62,831.56,559.7Zm-5.21,2c-1.72-2.44-2.06-5.18-.76-6.12s2.44,1.23,4.15,3.67,3.36,4.22,2.06,5.16S828.07,564.14,826.35,561.7Z"/><path class="cls-3" d="M826.35,561.7c-1.72-2.44-2.06-5.18-.76-6.12s2.44,1.23,4.15,3.67,3.36,4.22,2.06,5.16S828.07,564.14,826.35,561.7Z"/><path class="cls-4" d="M508.47,478.41c-7.45,4.72-14.4,4.95-21.59,5a72.84,72.84,0,0,1-15-1.69s-23-7.12-15.88-23.29,24.37-10.9,24.37-10.9-12.95,12.28,2,21,25.83,3.46,27.72,2.89S515.92,473.69,508.47,478.41Z"/><path class="cls-6" d="M730.5,570.35s8.16,33.86-52.3,44.78c0,0-30.3,9.92-57.56-21,0,0,63.33,16.06,94.62-24.82l7.11,3.51Z"/><path class="cls-4" d="M771.08,515.24s14.73.68,22.16.33,29.9.15,45.83,23.61a78.23,78.23,0,0,1,13,48.55s-2,11.1-11,.9c0,0-5.28-31-23.88-41,0,0-10.19-5.27-33.28,1.13,0,0-23.58,6.55-31.63.37C752.23,549.15,747.82,519.28,771.08,515.24Z"/><path class="cls-7" d="M740.06,415s8.62-8.24,11.46-25.64c0,0-.91-8.4-7.35-1.62s-4.47,8.61-14,13.28Z"/><path class="cls-5" d="M777.26,548.77s-12.71-2.9-7.67-9.6,13.26-17.86,8.14-22.54l-6.65-1.39s-4.16,22.05-16.32,25.35l-2.54,8.56A38.83,38.83,0,0,0,777.26,548.77Z"/><path class="cls-8" d="M789.36,517s38.14,2.7,59.25,47.46c0,0-8.25-53.64-61.31-49"/><path class="cls-4" d="M583.54,375.48s-18.92-13.27-24-39.58-3.45-44.35-30-55.53c0,0-19.8-8.17-31,14.18,0,0-10.8,13.74-2.49,36.66,0,0,7.91,17.59,12.92,9.43,0,0,1.68-7.16.29-11.79s-2.57-22.63,4.78-27.06,13.88-2.16,17.69,3.15c0,0,8.31,4.16,6.54,35.15s.45,40.41,5.4,48.81C543.6,388.9,564.8,389,583.54,375.48Z"/><path class="cls-8" d="M495.71,483s-45.13-2-33.12-34.73c0,0-8.09,9-8.09,15.15S463.25,487.08,495.71,483Z"/><path class="cls-8" d="M508.07,338.19s-6.18-1.55-8.24-10.82-8.24-24.73,11.33-45.85c0,0-20.09,9.27-17.52,39.15S511.17,345.41,508.07,338.19Z"/><path class="cls-4" d="M781.18,318.27c14.25-17.46,42.53-41,82.88-24.92s54.26,58.33,54.26,58.33c23.2,54.35,0,105.45-41.27,127.53-33.66,22.23-107.62,1.7-107.62,1.7S734.95,467.74,729,493.72s4.25,42.3-11.58,68.84S677.26,603.3,640,596s-46.26,1.81-57.47,12.84-13.16,27.36-8.93,37.38,14.07,15.94,14.07,15.94,11.7,9.39-2,9.48-38.57-18.26-36.45-52.79c0,0,.56-47.78,45.86-54.14,0,0,18.4,14.24,38.53,11.41s49.77-12.95,55.23-44.45-12.75-81.3-38.29-89.76-43.08,4.35-49.14,15-34.16,56.81-34.16,56.81-14.93,25.47-5.09,31.39c0,0,2.37,2.52,9,.51,0,0-12.42,27.14-35.93,16s-9.65-41.48-9.65-41.48,24.07-40.73,27.5-57.49S546.8,419,514.2,426c0,0-10.62-.44-26.75,15.71,0,0-4.17-32.64,21.25-44.72S541.47,395,563,386.69c12.53-4.84,44.41-12.41,32.75-54.77,0,0-8.51-.13-11.6-11.3s3.17-21.66,9.16-27.23a133.15,133.15,0,0,1,10.29-31.07c8-17.2,9.24-20.26,12.76-23.74s3.94-6.57,6.88-9.33,6.76-5.26,7.89-7.75,4.61-7,8.31-8.15,4.78-4.67,6.51-5.19,6-3.41,6-3.41,16.8-8.55,23.28-10.23a34.59,34.59,0,0,1,10.63-1.31,52,52,0,0,1,31.43.77c17.35,5.81,35.53,24.69,44.28,47.07s15.25,66.83-27.17,100.16c0,0,6.44,5.33,1.45,16.91s-13.69,12.18-19.68,12.37c0,0-4.91,6.29-4.31,12.06.57,5.48,1,6.53,10.2,13.34s18.46,23.37,23.2,28.4,53.76,29.83,90.2,20.89,63-39,53.73-79.37-43.72-52.35-64-49.9-35.19,11.79-50.16,30.42-20.53,12.23-17.2,7.19,10.75-15.6,16.58-25.83"/><path class="cls-8" d="M706.51,191.29s-9.12.53-19.49,7.09c-19.54,12.36-48.36,39.29-63,76.36,0,0,6.91-46.07,61.79-83Z"/><path class="cls-5" d="M553.41,449.22s-.77-16.61-7-21.64-10.82-10-25.5-7.73-20.09,7.73-25.5,4.25-2.32-12.75-2.32-12.75-10.67,14.84-5.72,31.57l64.45,5.91"/><path class="cls-9" d="M685.55,309.73S695.21,312,696,327.89s-10.43,22.41-20.09,22.8-15.2-4.25-18.16-8.11-3.13-9.15-7.17-9l4.46-4.76,2.17-1.08,1.69,7.26L663.4,341l5.8,2.83,10.43-.64,8.37-4.89,4.38-7.86v-7.73l-2.58-6.83Z"/><path class="cls-8" d="M927.39,385.24s-7.89-30.2-25.55-54.7c-13.56-18.81-33.69-33.18-55.4-34.43-50-2.87-79.05,41.14-79.05,41.14s22.4-48.78,72.76-49.84S922.95,339.86,927.39,385.24Z"/><path class="cls-8" d="M542.08,563.66s-24.64-18-9.36-59.25-1.12-1.75-1.12-1.75S502.67,552.84,542.08,563.66Z"/><path class="cls-9" d="M575.23,369.31S555,381.05,547.72,357s4.92-54.74-21.58-63.71-18.33,32.95-18.33,32.95-1.35-24.61,10.71-27.43,20.66,16.38,19.78,25.52-3.46,54.7,5.86,64c0,0,26.82.41,39.38-12.85Z"/><path class="cls-8" d="M678,320.38s.24-5.46-6.45-2.47-5.2,2.45-13.58,4-7.4,11.6-7.4,11.6,3.94-7.37,12.47-7.43S678,320.38,678,320.38Z"/><path class="cls-4" d="M470.54,525.66s-37.47,22.09-58.76-10.24,15.45-64.9,15.45-64.9,10.92-16.46,7.53-28.62a26.78,26.78,0,0,0-21.08-19.35s-7.48-4.07-8.44.79,7.68,5,7.68,5,13.8,10.11,6,19.17-15.85,17.95-15.85,17.95-24.7,33.25-23.4,58.14,11,56.15,40.75,68.44,73.43-9.68,73.43-9.68l15.45-8.76S472.93,546.13,470.54,525.66Z"/><path class="cls-5" d="M489.32,563.27s-11.91-12-20.41-15.47c-10.55-4.31-18,6-41.09-7.23S382.5,498,415,456.81s10.82-48,10.82-48,15.71,5.84,7.13,29.2c0,0-5.14,14.87-10.61,18.51s-23,27.1-15.09,48.07S425.19,534,448.6,533c0,0,16.24-1.2,21.94-7.34l11.35,8.06,27.23,20.37-7.31,4.6Z"/><path class="cls-8" d="M669.74,305.92s18.63,6.58,16,21.86-11.33,15.09-11.33,15.09,16-.49,16.89-12.76S687.6,304.42,669.74,305.92Z"/><path class="cls-3" d="M434.3,580.72c-5.1-.27-9.1-2.23-8.94-4.37s4.27-1.49,9.37-1.22,9.24.07,9.08,2.21S439.39,581,434.3,580.72Z"/><path class="cls-2" d="M437.27,573.62c-7.93.45-12.23-1.64-13.4.62s-.13,7.43,6.18,7.92,15.85.29,15.1-5.09C445.16,577.07,446.47,573.1,437.27,573.62Zm-3,7.1c-5.1-.27-9.1-2.23-8.94-4.37s4.27-1.49,9.37-1.22,9.24.07,9.08,2.21S439.39,581,434.3,580.72Z"/><path class="cls-3" d="M392.62,555.86c-2.83-4.44-3.63-8.94-1.79-10s3.77,2.73,6.6,7.17,5.48,7.81,3.64,8.91S395.45,560.3,392.62,555.86Z"/><path class="cls-2" d="M400.18,554.24c-5.12-6.4-6-11.23-8.53-10.9s-6.13,4.2-2.75,9.79,9.25,13.49,13.19,9.73C402.09,562.86,406.11,561.66,400.18,554.24Zm-7.56,1.62c-2.83-4.44-3.63-8.94-1.79-10s3.77,2.73,6.6,7.17,5.48,7.81,3.64,8.91S395.45,560.3,392.62,555.86Z"/><path class="cls-10" d="M683.7,192.65S633,229.13,624.05,274.74s-11.43,57.23-9,71c0,0-.06,4.66-8.16,6.49s-8.23,16.34-8.23,16.34,0,5.18-9.86,10.28-18.33,13.7-40.32,16.38-33.47-3.45-47.53,6.21c0,0,16.48-11.45,48.42-13s45.11-25.64,45.11-25.64,4.76-14.73,1.38-30.82c0,0-13.67.45-13.43-18.21.09-7,2.46-10.34,4.38-13.37a21.44,21.44,0,0,1,6.6-7s3.61-26.14,16.93-48.67l7.35-9.52,3.55-6,7.65-6.44,5-6.71,3.8-3.48,4-1.43,4.32-2.94S667.55,193.36,683.7,192.65Z"/><path class="cls-5" d="M753,477.63s-17.33-9.31-28.42,2.09-8.7,46.19-8.7,46.19-1.15,47.15-38.38,57.54-51.52-10.33-80.9,7.38-25.58,46.43-25.58,46.43,6.63-42.34,49.56-43.15S669.85,617,713.31,571c0,0,16-16.8,15.12-38.34S723.74,476.76,753,477.63Z"/><path class="cls-8" d="M408.13,562s-26.27-37.87-21.64-65.68,18-43.27,25.5-53.32,27.35-20,.92-34.74c0,0,17.67,14.34-2.47,28.56-13.14,9.27-35.55,51-30.14,69.55C380.31,506.4,382.63,546.58,408.13,562Z"/><path class="cls-5" d="M657.55,445.82s-13.85-19.24-38.72-9.34S590.9,459,590.9,459L553.71,517.8S544.06,534,551,544.85s-2.58,16.91-8.87,18.81c0,0,13.88,5.91,25.23-10l3.84-8s-13,3.1-9.7-12.82l1.25-9.25,34.16-55.46S610.31,426.94,657.55,445.82Z"/><path class="cls-9" d="M685.88,193.2s31-8.64,45.93,19.68,34.19,72.56-2.2,101.8-36.59,41.13-36,59.24-1,23.44,10.33,30.78,20,18.2,24.74,23.23,35.75,36.59,90.27,33.64,88.54-45.45,70.95-89.66c0,0,4.2,46.62-36.19,64.14s-87.43-1.15-87.43-1.15l-21-10.63s-17.65-32.08-31.42-34.93c0,0-3.71-13.68,2.33-18.86,0,0,18.53,2.36,21.23-17.28,0,0,3.82-3.84-3-12,0,0,67.27-39.06,16.14-123.21C750.56,218,723.69,180.08,685.88,193.2Z"/><path class="cls-2" d="M758.28,513.58a106.82,106.82,0,0,0,34,3c18.95-1.39,47.55,9.64,56.36,47.88s-5.53,27.22-6.94,22.53-11-46.75-38.91-42.63c-28.07,4.14-39.62,8.69-50.21,3l-3.7,3.8a48.85,48.85,0,0,0,10.61,2.19c4.64.22,21.34-2.38,36.09-5.2s21.71-1.15,31.69,11.45a63.9,63.9,0,0,1,12.16,27s2.13,8,9.16,7.2,4.23-16.34,4.23-16.34-2-31.68-20.81-48.62-36.65-14.53-36.65-14.53-21,2.55-36.59-2.71Z"/><path class="cls-11" d="M547.54,474.47s11.05-22.29.4-36.23-25.6-14.69-36.55-10.19-15.84,6.38-22,13.28l-7.21,6.2s-8.86,4.08-5.23,13.47c0,0,4.06,7.45,12.24,9.84s13.75,2.12,19.58.37,5.07,3.11,3.13,4.71-6,8.07-23,8.12c0,0-16.39.49-21.6-3.39,0,0-6.69,7.26-2.93,20.45l-.28,3.11.54,10.53s2.08,8.25,5.91,10.93l2.05.79s-1.95,12.76,9.42,17.47c0,0,4.58,9,18.53,8.41l3.33-1s12.46,6.54,17.78-3.93c0,0-4.28-12.23,2.57-27S547.39,479.35,547.54,474.47Z"/><path class="cls-12" d="M516.27,446.75s6.68-12.95,13.33-12.43,9.84,1.37,8.87,7.28-7,3.41-1.79,9.49,2.44,9.08,2.44,9.08a83.55,83.55,0,0,0,1,10.38c.84,4.58-2.94,29.41-22.29,34,0,0,10.75,6.71,19-8.07a273.56,273.56,0,0,0,14.44-30.92s6.7-26.67-14.19-37.82C537.12,427.76,518.34,426.22,516.27,446.75Z"/><path class="cls-12" d="M517.28,472.4s-.58-6-10.63-3.48-8.11-5.41-8.11-5.41a12.9,12.9,0,0,0-8.89,4.83c-3.67,4.64,14.88,4.06,14.88,4.06s8.5-2.9,8.5.19-6.18,8.93-13.33,10.24-22.22,1-22.22,1l-10.2-3.15s-8.13,15.72-2.93,20.45l-.2,7.63s.84,16.35,8.44,17.74c0,0-1.87,5.64.84,8.34s1.73,6.89,7.08,7.7l3.16,4.08,8.31,3.67,7.34,1.93s-5.6-5.22.19-7.34,4-9.53,4-9.53-5.54,4.5-10,3.35c0,0,.19-4.83-2.9-4.83s-4.64,4.64-7.73,2.9-3.28-7.73,1.55-9.85c0,0-18.75-6.44-10.82-18.48,0,0-7.14-14.17-1.54-18.8s8.89,1.93,6,4.44c0,0,5.41,5,14.68-2.32s13.33,3.48,13.33,3.48,5.8-9.27,8.31-10S510.72,482.25,517.28,472.4Z"/><path class="cls-12" d="M494.47,530.77s4.06-.24,5.25-4,3-6.5,10.16-7.21,9.85-5.11,9.85-5.11-10.16,7.21-6.8,15.16-9.25,22.84-9.25,22.84,11.46,2.82,18.24-3.53c0,0-6.06-21.14,7.62-40.08l3.19-4.45-16.51,2.07s-8,12.23-23.65,10.67C492.56,517.15,498.12,525.91,494.47,530.77Z"/><path class="cls-11" d="M715.25,569.28s13.94,8.11,24.42-7.34l.77-5.48s16.62-1.77,12.83-18.38l-4-9.9s10.54-9.22,10.13-20c0,0,17.5-6.88,8.07-24.82l-10.35-3.55s-17.29-4.49-23.48,8.47-5.58,35.77-5.58,35.77S729.47,553.51,715.25,569.28Z"/><path class="cls-11" d="M559.63,539.28s1.15-14.06,8.52-23.54,23-39.74,23-39.74S606,445.72,623.3,442.4s32.44-3,44.54,14.85,24.31,47.29,19.48,70.8-16.76,38.4-40.57,44.21-37.45-1.11-45.33-4.93-20.07-13.06-22.12-20.78c0,0-13.42,1.88-16.33-1.54S559.63,539.28,559.63,539.28Z"/><path class="cls-12" d="M740.12,559.65s-8.78,4-9.21-8.41,6.52-11.15,4.35-30.14l-5.94,2s-.61,36.56-14.07,46.22C715.25,569.28,733.94,577.33,740.12,559.65Z"/><path class="cls-12" d="M613.56,533.69s-29.24,8.25-38.52,6.71-4.64-5.41-1.16-5.8,20.48-3.86,23.18-8.11c0,0-20.86,8.11-34-.77,0,0-7.34,15.84,1.93,18.93S599.92,544.37,613.56,533.69Z"/><path class="cls-12" d="M608.63,452.87s-8.85,11-5.76,15.15a25.56,25.56,0,0,1,4,7.17S595.65,474.72,591,485,598.23,500,598.23,500l-21.7.49S602,454.2,608.63,452.87Z"/><path class="cls-12" d="M682.73,544.1S648.49,564.21,625,565.77c0,0,2.82-1.57-5.09-6.82h0c-5.09-2.36-24.62-6.25-27-9.27,0,0,22.16-3.37,20.74-16l-32,12.25s5.1,13.78,19.78,18.41c0,0,.77,3.09,6.18,7.73S670.63,578.7,682.73,544.1Z"/><path class="cls-12" d="M598.53,525.3s-24.26,2-25.8-3.45,17,.77,17.77-7-10-10-10-10,6.81-5.77,19.24-2.5-10.86-8.64-23.17-1.91l-8.38,15.3-6.43,11.48S585.7,534.16,598.53,525.3Z"/><path class="cls-6" d="M667.55,534.55s-14.31,4.51-16.45-1.49-3-15.23-13-21.63-8.63-12.74-8.63-12.74-7.84-.78-5.83,11.83c0,0,24,4.76,19.89,27.62,0,0,1.07,4.11,12.54,2.21S667.55,534.55,667.55,534.55Z"/><path class="cls-12" d="M751.94,510.84s20.18-14.49,10.12-22.05-6.25,7.84-6.25,7.84-4.82,10.69-11.43,2.23c0,0,3.56,20-15.06,24.2,0,0-3.83-27.19,4-38.05s32.58-2.78,32.58-2.78S781.64,499.48,751.94,510.84Z"/><path class="cls-6" d="M684,492.56s.9,13.11-7.81,23.28-1.43,1.3-1.43,1.3l-12.25,6.26s2.24,2.48,9,.65c0,0,1.83,6.81,8.52,7.71,0,0-.66,16.37-33.09,20.52,0,0,6.19,6.23,15.47,1.8s21.75-11.86,21.75-11.86l4.16-21S686.65,495.79,684,492.56Z"/><path class="cls-6" d="M640,455.72a4.74,4.74,0,0,0,1.41,6.46c3.76,2.74,8.14,7.74-.63,9.38s-10.25,10.32-10.25,10.32-3,9.22-11.44,10.05c0,0,1.52,11.5-8.14,12.06s4.21-12.93-9.82-15.2l6.12-2.69,6.11,2.9,11.16-5L630,473.61S635.25,458.51,640,455.72Z"/><path class="cls-12" d="M614,466.6s-1.35-12.81,8.34-13.2,9.92,1.92,13.73-2.72,16.11,1.92,16.11,1.92S663,460,654.86,468.42l6.86-1.24s-6.15,20.4-29.56,19.2c0,0,4.34,4.62,9.49,5.67a52.36,52.36,0,0,0,13.08-5.16l10.57.91s-2.91-5.93-.52-9.27,8.51-4.33,10,14.55-12.22,30.33-12.22,30.33,22.7-5.57,21.49-30.85c-1.11-23.19-25.55-46.8-32.31-48.47s-22.48-3.62-22.48-3.62l-19.08,7.31s-3.79,8.91,2.43,16.84"/><path class="cls-11" d="M768.16,501.06s10.06,26.29-13.4,39.53l-4.6-9.92-.88-2.49s11.15-9.88,10.13-20Z"/><path class="cls-2" d="M920.44,346.19c-9.64-21.31-17.58-33.85-40.86-48.23-19.33-11.94-37.49-14.65-55-11.17-5.45,1.08-10.67,3.65-16.23,6-26.2,10.89-44.84,48.58-48.53,53.73a44.73,44.73,0,0,0-5.43,10.11s2.39,16,21.76-8.16c20.21-25.21,36.43-27.68,49.1-29,19.29-2,48.56,7.19,58.5,38.9s1,60-30,77.75-85-2.28-85-2.28S747.39,427.28,742,416s-12.56-20.2-22.7-27.06c-7.31-4.94-2.16-16.71-2.16-16.71,3.55-.26,10.25.55,18.35-8.75s2.72-21.8,2.72-21.8C787.54,305.86,768,248.81,768,248.81c-26.7-76.7-82.12-57.08-82.12-57.08-9.27-2.19-31.94,9.61-34.2,11.49a22.2,22.2,0,0,1-5.39,3.1,8.45,8.45,0,0,0-3.83,2.9c-1.74,2.27-3.95,2.53-6.68,4.16a16,16,0,0,0-4.57,4.47s-3.22,5.41-6.62,7.5a17.17,17.17,0,0,0-6.44,6.78c-.7,1.69-2.34,4.74-3.88,5.87a13,13,0,0,0-2.88,3.83c-17.57,31.91-19.42,50.36-19.42,50.36-5.45,5.37-6.42,7.38-9,14s-2.38,15.34,1.81,21.24,9.11,6.14,9.11,6.14,4.7,23.47-3.36,33.56c-9.1,11.39-18.88,14.35-33.57,19-10.33,3.25-39.81-1.34-59,15.32S485,445.66,485,445.66c15.13-15.44,44.36-28.27,60.17-9.22s-2,47-13.58,66.22-14,31.24-11.7,44.27,17.67,26.56,34.28,18.74,18.23-21.22,18.23-21.22c-19.57,4.68-7.42-22-7.42-22L587.63,485s17.3-31,28.88-38.14,27.9-5.16,38.16-.58,38.11,46.24,31.51,83.32-41.94,41.66-55.34,44.08-37.31-11.37-37.31-11.37c-33.3,6-49.76,33.12-47.29,65.46s24.16,42.77,32.63,45.46,16.65-1,15.24-7-9.59-6.4-15.92-15.39-7.49-23.57,3.57-37.79,26.78-21,53.39-15.65,40.49,7.19,69.09-13.11,25.83-63,25.83-63-.32-30.57,8.82-37.75,25.68-.46,25.68-.46,66.71,17.46,99.67,5.4c27.73-10.15,45.53-23.91,59.62-54C940.79,398.35,930.08,367.5,920.44,346.19ZM781.18,318.27c14.25-17.46,42.53-41,82.88-24.92s54.26,58.33,54.26,58.33c23.2,54.35,0,105.45-41.27,127.53-33.66,22.23-107.62,1.7-107.62,1.7S734.95,467.74,729,493.72s4.25,42.3-11.58,68.84S677.26,603.3,640,596s-46.26,1.81-57.47,12.84-13.16,27.36-8.93,37.38,14.07,15.94,14.07,15.94,11.7,9.39-2,9.48-38.57-18.26-36.45-52.79c0,0,.56-47.78,45.86-54.14,0,0,18.4,14.24,38.53,11.41s49.77-12.95,55.23-44.45-12.75-81.3-38.29-89.76-43.08,4.35-49.14,15-34.16,56.81-34.16,56.81-14.93,25.47-5.09,31.39c0,0,2.37,2.52,9,.51,0,0-12.42,27.14-35.93,16s-9.65-41.48-9.65-41.48,24.07-40.73,27.5-57.49S546.8,419,514.2,426c0,0-10.62-.44-26.75,15.71,0,0-4.17-32.64,21.25-44.72S541.47,395,563,386.69c12.53-4.84,44.41-12.41,32.75-54.77,0,0-8.51-.13-11.6-11.3s3.17-21.66,9.16-27.23a133.15,133.15,0,0,1,10.29-31.07c8-17.2,9.24-20.26,12.76-23.74s3.94-6.57,6.88-9.33,6.76-5.26,7.89-7.75,4.61-7,8.31-8.15,4.78-4.67,6.51-5.19,6-3.41,6-3.41,16.8-8.55,23.28-10.23a34.59,34.59,0,0,1,10.63-1.31,52,52,0,0,1,31.43.77c17.35,5.81,35.53,24.69,44.28,47.07s15.25,66.83-27.17,100.16c0,0,6.44,5.33,1.45,16.91s-13.69,12.18-19.68,12.37c0,0-4.91,6.29-4.31,12.06.57,5.48,1,6.53,10.2,13.34s18.46,23.37,23.2,28.4,53.76,29.83,90.2,20.89,63-39,53.73-79.37-43.72-52.35-64-49.9-35.19,11.79-50.16,30.42-20.53,12.23-17.2,7.19,10.75-15.6,16.58-25.83"/><path class="cls-2" d="M581.39,375.25s-14.39-9.39-20.57-31.74-1.68-47.64-28.51-60.82-37.54,21.64-37.54,21.64-4.8,20.94,6.46,34.24,6.31-14.81,6.31-14.81-2-22,9.7-25,22,8.72,22,27.54-3.25,49.12,4.93,62l-2.29.42s-8-15.07-5.06-43.67-5.21-44.16-13.75-44.82-11.15,5-11.15,5-3.74,10.81-2,22.11,1,16.08-3.59,16.68c-3.56.46-10.76-7.59-12.71-18.57s-4.48-26.29,12.61-41.92,40,6.26,40,6.26,10.69,10.5,12.7,33.3,7.57,35.25,25,51.25Z"/><path class="cls-2" d="M730.38,402a42.64,42.64,0,0,0,12.3-11c4.93-6.86,9.69-5.34,7.8.88s-5.69,16-10.67,21.77l1.16,2.07s7.5-7.7,11-22.76-7.14-7.2-9-4.48-8.38,10.59-13.56,12.15Z"/><path class="cls-2" d="M508.73,471.21c-4.69,1.51-16.78,1.21-25.17-4.54s-7.65-12,.42-20.4l-1.09-.28s-11.48-3.95-20.31,2.24-10.79,13.33-9.42,19.65c1.28,6,7.68,13.36,20.53,16.15s27.93.07,34.59-3.95,5.68-7.93,5.68-7.93S513.42,469.69,508.73,471.21Zm-.85,6.91c-7.29,4.61-14.08,4.84-21.11,4.94a71.21,71.21,0,0,1-14.62-1.66s-22.47-7-15.52-22.77,22.61-10.7,22.61-10.7-11.44,12,3.22,20.55,25.4,4.2,27.25,3.64S515.17,473.51,507.89,478.12Z"/><path class="cls-2" d="M470.16,525.3s-33.1,19.64-54.56-7c-23.86-29.62,9.49-63.91,9.49-63.91s16.6-19.92,9.52-36.76-27-17.3-27-17.3-7.29,2.6-.81,6.7,19.44,12.31,7.34,24.42S375.34,479.44,379,509s22.14,73.63,68.92,66.83S515.22,553,515.22,553s-22.74.53-33.21-9c-2-1.86-6.72-3.54-8.2-6.68-1.2-2.55.08-7.2-1.23-10.79C472.29,525.63,470.55,526,470.16,525.3Zm7.33,41.46c-41.45,12.86-57.71,3-57.71,3s-18.8-6.18-31.93-36.4-1.71-56.91-1.71-56.91S400.41,446.08,415.3,433s-.83-24.23-4.7-25.48-5.9-4.41-4.07-5.5,7.16.54,7.16.54,16.48,4.73,19.85,17.7-6.82,29.22-13.05,36.2a80.6,80.6,0,0,0-15.21,26.36c-3.47,9.92-.51,19.79-.51,19.79S409,525.79,432,533.16s39.1-5,39.1-5a22.51,22.51,0,0,0,2.24,8.81c1.49,3.5,4.48,6.26,6.7,8.41,8.52,8.24,28,8.08,28,8.08A120.27,120.27,0,0,1,477.49,566.76Z"/><path class="cls-2" d="M462.86,497.24S449.53,515.5,448.6,533l-.22,1.95-2-.47s1.2-18.38,16.85-40.57Z"/><path class="cls-2" d="M669.74,305.92s12.85-4.67,21,9.83-2.28,24.62-7.66,27.32-19.61,4.55-25-8.08c0,0-1.83-4.29-.84-7.28s11.18-.4,19.46-7.74c0,0,5-.42-.42,3.08,0,0,.36,15.49-15.46,13a10.52,10.52,0,0,0,6.42,6.14c5.16,1.95,21.56,1,24.07-12.08C694.41,313.69,678.82,304.8,669.74,305.92Z"/><path class="cls-2" d="M661.47,326S655,326,652,331.49s2.24-3.3,7.64-4.11Z"/><path class="cls-2" d="M718.87,350.32s-8.44,1.46-6.31,9.43,11.57,0,12.58-3.78-3.81-11.77-12.44-6.48-6.16,9.92-6.16,9.92S708.38,349.44,718.87,350.32Z"/><path class="cls-2" d="M590.55,313.59s2.94,8,9.28,11.2a4.26,4.26,0,0,1-3.95,3.88c-3.68.3-8.22-5.87-8.22-5.87s1.9,1.85,3.63,1.33S590.55,313.59,590.55,313.59Z"/><path class="cls-2" d="M633.21,359.53s-.61-2-2.61-.63,0,2.63,1.5,3,3.22,4.68,2.41,7.34,2.5,2.27,2.24-1.28S635.73,361.2,633.21,359.53Z"/><path class="cls-2" d="M608.64,359.66s.92-4.31-2.24-2.76-3.92,8.44-3.92,8.44,1.31,1,2-2.2S606.66,358.44,608.64,359.66Z"/><path class="cls-2" d="M615.86,315.93s-1.88,17.91-1.2,28.2S610.84,328.74,615.86,315.93Z"/><path class="cls-2" d="M624.05,274.74s4-40.34,63.71-83.31l-4.07,1.22S632.09,226.32,624.05,274.74Z"/><path class="cls-13" d="M601.75,540.47"/><path class="cls-13" d="M611.29,570.42"/><path class="cls-13" d="M578.26,546.46"/><path class="cls-2" d="M640.56,454.12s-12.3,20.18-12.67,26.5-13.61,9.55-13.61,9.55l-1.19,7.94c-.25,1.7,1.65-14.82-11.93-9.33,0,0,6.21-6.6,13-1.53,0,0,9-2.13,10.34-7.15S634,458.94,640.56,454.12Z"/><path class="cls-2" d="M594.9,515.9s41.7-12.94,47,12.89-30.74,22.56-30.74,22.56,22.92,8.8,32.82-10.27C652.71,524.34,632.64,496.49,594.9,515.9Z"/><path class="cls-2" d="M572.42,544.45s21.13.5,41.15-10.76c0,0-3.62,10.77-43,14.13Z"/><path class="cls-2" d="M575.55,547.27s-12.48,3.22-15.74-4.95c0,0,4.52,4.29,16.16,1.86"/><path class="cls-2" d="M627.63,503.1s-.49,5.53,5.09,9.77l-6.81-1.18Z"/><path class="cls-2" d="M643.54,538.13s9,4.83,25.21-3.82c0,0-8.63,10.66-27.13,8.16Z"/><path class="cls-2" d="M682.73,544.1s-36,24.28-57.77,21.68c0,0,31.43-4.61,58.61-25.15Z"/><path class="cls-2" d="M592.87,543.14s-.09,8.64,10.86,12.87c0,0-10.86-2.11-14.32-11.83Z"/><path class="cls-2" d="M531.61,502.66s-5.4,4.85-16.28.86c0,0-4.28,12.59-18,12.67s-10.82-14.5-10.82-14.5-6.14,9.11,2.23,15.47c0,0,9.33,6.88,5.71,13.62,0,0,5-2.91.12-12.34,0,0,19.82,1.5,21.62-11.95l13.69-.08Z"/><path class="cls-2" d="M469,482.34a20.29,20.29,0,0,0-4.62,15.51c1.19,9.33,9.22,10.54,9.22,10.54s-20-.84-7.86-27.49Z"/><path class="cls-2" d="M465.84,504.68s-2.05,14.34,8.53,23.66l-3.29-.22s-11.14-5.53-7.87-27.49Z"/><path class="cls-2" d="M469.7,524.9s5.63,4,15.47,1.8c0,0-5.59,2.89-14.1,1.42Z"/><path class="cls-2" d="M485.18,526.71s-14.36,1.9-17.47-8.46C467.7,518.24,467.67,531.57,485.18,526.71Z"/><path class="cls-2" d="M521.66,547.41s-5.71,7.16-17.78,3.93l-2.11,1s13.7,6,20.15-3.44Z"/><path class="cls-2" d="M598.53,525.3s-28.56,9.67-34.84-4l-2,6S583.37,537.93,598.53,525.3Z"/><path class="cls-2" d="M523.92,518.69s-4.1,6.48-10.47,6.78c0,0,6,1,9.66-.08"/><path class="cls-2" d="M575.5,502.37s9-5.11,24.2,0c0,0-8.2-9.37-23.17-1.91Z"/><path class="cls-2" d="M663.05,451.83s2,24.67-14.63,37.22c0,0-5.18,4.25-12.48.53,0,0,7.72,3.33,7.38,9.35s6.94,13.24,16.32,10.43c0,0-12.48.53-14.76-10.62S667,487.24,667,487.24s-13-.39-9.45-5.5,8.92-17.75,7.11-28.23Z"/><path class="cls-2" d="M482.86,447.21s14.55-7.3,21.14,5.24c0,0-1.49-11.66-16.59-9.54C487.42,442.92,483,442.85,482.86,447.21Z"/><path class="cls-2" d="M488.8,470.27s11.55-13.11,24.85-4.37c0,0-2.25-5.18-9.54-5.39,0,0,7.33-.83,6.91-7.93a11.22,11.22,0,0,1-8.87,7.14c-6.92,1-14.68,9.58-14.68,9.58Z"/><path class="cls-2" d="M489.74,484.18a16.13,16.13,0,0,1-12.17,10.52s12.07,1.21,15-10.56Z"/><path class="cls-2" d="M604.54,513.54s10.67-2.54,13.9,8.19c0,0-4.37-9.18,5-8.77l-8.25-2Z"/><path class="cls-2" d="M613.06,447.5s-3.18,8.22.9,19.1c0,0-5.52-7.62-5.34-13.73S613.06,447.5,613.06,447.5Z"/><path class="cls-2" d="M533,428s-15.34,3.54-16.69,18.74c0,0-.77-9.72,2-11.35,0,0-6,3.41-10.34,2.3,0,0,14.18-5.61,22.07-10.67Z"/><path class="cls-2" d="M663.51,461s.93,5.77-8.66,7.44c0,0,3.15,1.07,8.1-1.23Z"/><path class="cls-2" d="M515.32,503.52a22.64,22.64,0,0,0,2.93-8.14s2,2.34-2,11.1Z"/><path class="cls-2" d="M494,550.56s11.43,4.9,17.31-9.51c0,0,1.09,7.2-7.59,11.43C503.68,552.48,497,553.67,494,550.56Z"/><path class="cls-2" d="M490.82,535.63s-2.36,8.24-10.31,6.87l1.56,2.49S493.12,543.28,490.82,535.63Z"/><path class="cls-2" d="M489.51,541.14s6.52,6.92,14-5.82c0,0-4.77,8.29-13,3.89Z"/><path class="cls-2" d="M486.53,548.22s-3.41-3.28-.67-4.91l-3.85.62Z"/><path class="cls-2" d="M487.81,540.84S474,545.38,473,527.94c0,0-4.45,10,7.34,16.35A7.68,7.68,0,0,0,487.81,540.84Z"/><path class="cls-2" d="M662.46,554.09s-8.44,4.15-15.47-1.8c0,0,.41,6.74,10.25,4.58Z"/><path class="cls-2" d="M682.89,487.83s5,24.72-20.37,35.58a14.75,14.75,0,0,0,11.88-4.78s0,10.88,12.92,9.43c0,0-12.84-3.8-9.89-12.76S687,508.37,682.89,487.83Z"/><path class="cls-2" d="M544.63,434.59s6.15,11.06-5.65,13.4c0,0,9.85,1.88,9.43-8.89Z"/><path class="cls-2" d="M543.46,457.54s-1.59,8.14,4.49,13.58l2.26-1.89S544.13,463.79,543.46,457.54Z"/><path class="cls-2" d="M490.9,445.1s-6.35-.31-11.76,7.17c0,0,.35-7.57,6.29-10,0,0,9.85-2.36,15.05,3.54Z"/><path class="cls-12" d="M769,512.32s-4.12-3.61-6.44.26-3.35,11.33-5.41,14.17-2.06,12.88-2.06,12.88l-5.81-11.45s10.84-10.47,10.13-20l8.75-7.14Z"/><path class="cls-2" d="M714,571.26s10.74,8.88,23.09-3.72-.17-27.39-.17-27.39,8.08,24.2-8.94,29.32-8.29-6.79-8.29-6.79Z"/><path class="cls-2" d="M741.16,555s22.13-4.23,4.27-31.41c0,0,10.07,6.66,9.73,18.05-.48,16.16-15,18-15,18Z"/><path class="cls-2" d="M730.06,521.26a17.63,17.63,0,0,0,9.9-6c2.76-3.42,4.2-9,4.42-16.39,0,0,3.11,6.33,11.43-2.23,0,0-.08,8-9.12,8.12,0,0-.67,16.54-17.16,20.09Z"/><path class="cls-2" d="M749,527.26s10.69-10.07,9.31-19.34c0,0,18.41-8.56,7.61-25.69l3.15,1.07s9.8,17.83-8.75,25.23a29.39,29.39,0,0,1-9.89,20.12Z"/><path class="cls-2" d="M760.88,506.34a69.06,69.06,0,0,1-8.93,4.5s5.37.4,12.86-4.87Z"/><path class="cls-2" d="M749.65,479.05a17.2,17.2,0,0,0,.17,10.64s-3.44-3.4-1.58-10.62Z"/><path class="cls-2" d="M738.11,519.84s-2.33,6.35,2.69,10.29c0,0-5.13-.27-5.54-9Z"/><path class="cls-2" d="M572.39,508.15s3,6,12.47,3.91c0,0-3.07,4.55-15.28.16Z"/><path class="cls-2" d="M591.28,477s8.25-6.11,15.58-1.86c0,0-3.37-5.85-13.25-2.47Z"/><path class="cls-2" d="M729.76,572.59s4.83,26.79-43.46,39.29-62.7-16.65-62.7-16.65L619,594.6s14.37,22.31,39.65,23.18,79.52-14.63,73.54-47.94Z"/><path class="cls-2" d="M690.11,607.62c-1.5.45-3,.85-4.36,1.2-11.78,3-28.89,5-43.49-2.22-8.8-4.34-12.45-9.91-12.61-10.14l1.3-.84c.14.22,14.61,21.71,54.42,11.7s40-34.59,40-34.83l1.55,0c0,.27,0,6.66-5.06,14.38C714.37,598.11,701.2,604.28,690.11,607.62Z"/><path class="cls-2" d="M686.79,602.85c-9.3,2.8-20.28,4.44-31,2.11-9.32-2-13.94-6.1-14.14-6.27l1-1.15c.18.16,18.34,15.76,54.8-.31.24-.09,19.28-7.2,21.44-24.53l1.53.19c-2.28,18.28-22.2,25.7-22.4,25.77A98.34,98.34,0,0,1,686.79,602.85Z"/><path class="cls-2" d="M688.58,596.75a58.57,58.57,0,0,1-16.82,2.52l.05-1.55c.21,0,21.44.58,34.9-13.26.09-.09,1.95-2.07,6.6-13.49l1.43.58c-4.8,11.77-6.74,13.81-6.95,14A44.4,44.4,0,0,1,688.58,596.75Z"/><path class="cls-2" d="M614.64,561.88s-15.53,4.4-25.06-4.63c-7.76-7.35-7.49-10.15-8-11.3l-4.79.84s9.26,15.57,23.49,20a21.25,21.25,0,0,0,8.91-.8C613.64,564.47,614.64,561.88,614.64,561.88Z"/><path class="cls-2" d="M630,473.61s4.2-8.39,11.43-6.26c0,0-4-5.25-9.62,1.55Z"/><path class="cls-2" d="M628.57,442s2.78,9.25-6.27,11.37c0,0,11.58-1.06,9.28-12.07Z"/><path class="cls-2" d="M754.15,539.43S773,534,768,502.44l.49-2.84s6.57,9.32,1.57,24-15.63,18.69-15.63,18.69Z"/><path class="cls-14" d="M748,403.08s-5,2-8.3-.22a5.41,5.41,0,0,1-2.6-5.44l-7.62,3.25L741,415.76Z"/><path class="cls-15" d="M799.15,484.18"/><path class="cls-2" d="M765.17,480.12c-10.45-.33-15.85-3.58-17.65-.75s-2.56,3.95,4.74,8c10.3,5.67,23.19,5.42,22.84-1.76C775.11,485.58,777.29,480.5,765.17,480.12Zm-5.43,4.64c-6.65-1-11,.36-10.5-2.44s5.78-1.46,12.43-.51,12.11,1.17,11.65,4S766.39,485.72,759.74,484.76Z"/><path class="cls-3" d="M760.25,487.34c-8.42-3.58-11.48-2.22-11-5s5.78-1.46,12.43-.51,11.49,1.13,11.65,4S768.56,490.88,760.25,487.34Z"/><path class="cls-2" d="M761.68,550.41c-7.13.88-11.14-1-12.06,1.34s.33,7.56,6.06,7.72,14.32-.54,13.32-6C769,553.5,769.95,549.39,761.68,550.41Zm-2.26,7.37c-4.62,0-8.34-1.79-8.33-4s3.77-1.74,8.38-1.73,8.35-.42,8.33,1.77S764,557.79,759.42,557.78Z"/><path class="cls-3" d="M759.42,557.78c-4.62,0-8.34-1.79-8.33-4s3.77-1.74,8.38-1.73,8.35-.42,8.33,1.77S764,557.79,759.42,557.78Z"/><path class="cls-2" d="M782,549.25c-6.82,2.24-11.13,1.16-11.57,3.65s1.79,7.35,7.44,6.4,13.95-3.31,11.91-8.44C789.83,550.86,790,546.65,782,549.25Zm-.78,7.67c-4.53.89-8.53-.14-8.94-2.28s3.36-2.44,7.89-3.32,8.11-2,8.52.12S785.79,556,781.26,556.92Z"/><path class="cls-3" d="M781.26,556.92c-4.53.89-8.53-.14-8.94-2.28s3.36-2.44,7.89-3.32,8.11-2,8.52.12S785.79,556,781.26,556.92Z"/><path class="cls-2" d="M801.6,545.33c-6.19,2-10.09,1.05-10.49,3.31s1.62,6.67,6.74,5.8,12.64-3,10.8-7.65C808.66,546.78,808.78,543,801.6,545.33Zm-.71,7c-4.11.8-7.74-.12-8.11-2.07s3-2.21,7.15-3,7.35-1.84,7.72.11S805,551.48,800.89,552.28Z"/><path class="cls-3" d="M800.89,552.28c-4.11.8-7.74-.12-8.11-2.07s3-2.21,7.15-3,7.35-1.84,7.72.11S805,551.48,800.89,552.28Z"/><path class="cls-2" d="M819.17,549.51c-4.46-1.28-6.29-3.61-7.51-2.26s-2,5.19,1.36,6.8,8.61,3.39,9.59-.54C822.61,553.52,824.34,551,819.17,549.51Zm-3.45,4.39c-2.72-1.22-4.41-3.4-3.78-4.87s2.73-.19,5.45,1,5.05,1.91,4.41,3.38S818.44,555.12,815.72,553.9Z"/><path class="cls-3" d="M815.72,553.9c-2.72-1.22-4.41-3.4-3.78-4.87s2.73-.19,5.45,1,5.05,1.91,4.41,3.38S818.44,555.12,815.72,553.9Z"/><path class="cls-2" d="M929.44,405.1c-.62,6.93-3.29,10.33-1.19,11.69a6,6,0,0,0,8.74-4.12c1.34-5.38,2.43-13.66-3-13.85C933.94,398.82,930.15,397.07,929.44,405.1Zm6.68,3.67c-1,4.36-3.46,7.52-5.57,7.05s-.91-3.93.05-8.29,1.32-8,3.43-7.51S937.08,404.41,936.12,408.77Z"/><path class="cls-2" d="M929.67,385.91c1.37,5.45.45,8.73,2.21,9.23s5.31-.92,4.82-5.37-1.88-11.06-5.62-9.81C931.08,380,928.08,379.59,929.67,385.91Zm5.45,1.11c.48,3.58-.39,6.63-1.93,6.8s-1.62-2.77-2.1-6.35-1.17-6.44.37-6.61S934.63,383.44,935.11,387Z"/><path class="cls-2" d="M926.59,369.89c1.85,4.59,1.25,7.61,3,7.78a4.28,4.28,0,0,0,4.25-5.45c-.89-3.84-2.88-9.44-6.44-7.78C927.43,364.45,924.44,364.57,926.59,369.89Zm5.46.15c.8,3.08.23,5.89-1.27,6.28s-1.86-2.19-2.66-5.26-1.75-5.48-.24-5.87S931.25,367,932.05,370Z"/><path class="cls-2" d="M922.26,355.49c1.61,4,1.09,6.64,2.64,6.79a3.73,3.73,0,0,0,3.71-4.76c-.78-3.35-2.51-8.24-5.62-6.79C923,350.74,920.38,350.85,922.26,355.49Zm4.77.13c.7,2.68.2,5.13-1.11,5.47s-1.62-1.91-2.32-4.59-1.52-4.78-.21-5.12S926.32,352.94,927,355.62Z"/><path class="cls-2" d="M918.23,344.1c1.76,2.9,1.68,5,2.9,4.94a2.93,2.93,0,0,0,2.28-4.15c-1-2.5-3-6.07-5.21-4.56C918.2,340.32,916.2,340.74,918.23,344.1Zm3.71-.5c.88,2,.8,4-.17,4.39s-1.5-1.28-2.37-3.27-1.78-3.52-.81-3.95S921.07,341.61,921.94,343.6Z"/><path class="cls-2" d="M745.35,480.13s1.27,3.22-1.55,7.34-4.5,3.74-5.2,5.15-2.53,6.57-7.31,6.57,1.55-12.62,1.55-12.62S739.73,479.35,745.35,480.13Z"/><path class="cls-3" d="M743,480.9s-.77,6.18-4.12,8.24-3.61,7.47-7.21,7.47C731.66,496.61,732.18,483.22,743,480.9Z"/><path class="cls-2" d="M509.07,486.21s-4,.62-7.79-3.89c0,0,19,6.8,29.9-6.57S522.51,455,522.51,455,548.75,460.38,531,479l-3.63,2.7s5.37.4,7,7.18l-3.7-2.92a18.41,18.41,0,0,0-20.28,3.68s-4.37,3.19-4.66,7.64c0,0-.58-5.41,1.06-8A12.87,12.87,0,0,1,509.07,486.21Z"/><ellipse class="cls-9" cx="712.99" cy="262.59" rx="11.21" ry="11.98"/><ellipse class="cls-9" cx="688.03" cy="249.49" rx="8.12" ry="7.2"/><ellipse class="cls-9" cx="689.67" cy="270.41" rx="4.83" ry="6.3" transform="translate(-12.9 505.29) rotate(-39.89)"/><ellipse class="cls-9" cx="696.06" cy="235.95" rx="3.06" ry="4" transform="translate(10.69 501.36) rotate(-39.89)"/></g></g></svg>