<svg xmlns="http://www.w3.org/2000/svg" viewBox="0 0 1280.77 866.2"><defs><style>.cls-1{fill:#459fd8;}.cls-2{fill:#3b95d1;}.cls-3{fill:#4b1212;}.cls-4{fill:#02679a;}.cls-5{fill:#3084c1;}.cls-6{fill:#8ec7ec;}.cls-7{fill:#4b5324;}.cls-8{fill:#231f20;}.cls-9{fill:#fff;}.cls-10{fill:#efedea;}.cls-11{fill:#f6eb16;}.cls-12{fill:#cbcc2c;}.cls-13{fill:#cb3928;}.cls-14{fill:#640e0e;}.cls-15{fill:#989937;}.cls-16{fill:#fcf9ce;}.cls-17{fill:#f15624;}</style></defs><title>Asset 3</title><g id="Layer_2" data-name="Layer 2"><g id="Layer_1-2" data-name="Layer 1"><rect class="cls-1" width="1280.77" height="866.2"/><polygon class="cls-2" points="641.41 429.23 862.79 496.11 631.88 676.08 368.5 571.13 641.41 429.23"/><path class="cls-3" d="M712.31,377.57l-3.49,8.87s6.65.32,9.82-2.53,3.8-7.6-2.22-6.34Z"/><path class="cls-4" d="M788.47,497.79a34.4,34.4,0,0,0-5.26,6.32c-2.11,3.43-5.26,7.37-7.9,6.32,0,0-1.84,2.9-4.48,1.84s-4.21-3.42-3.42-4.48l1.05-2.37s-4.74-1.32-2.9-5c0,0,5.53-4.47-2.11-4.21S710,496,667.89,474.1l-7.64,1.05,2.89-19.48,69.77-6.06,16.58,9.48L793,460.14Z"/><path class="cls-5" d="M816.91,439.87s23.69,25,2.37,44.24c0,0,3.16,8.69-6.58,13.16s-28.7,5-40-13.69,7.6-21.24-9-14.75c0,0-11.84,8.69-14.74,8.69s-12.9-5.26-12.9-5.26-15.53.53-27.12-10.53c0,0-21.86,3.95-32.65-2.63l-6.05,1.58S665.61,465,664,466s-.88,4.93-.62,7l4.48,1.05s-4.48,6.84-12.91,2.63S631,457,631,457s14.22-17.9,25.8-20.54,20.27-.53,28.43-4.48,13.69-1.58,15.8-1.58S803.75,418.54,816.91,439.87Z"/><path class="cls-6" d="M777.68,316.12a36.79,36.79,0,0,0,11.58-14.74c4.47-10,8.16-17.12,2.89-19.48,0,0,2.63-8.42-7.63-13.16,0,0,.52-1.58-1.58-5s-7.11-3.69-11.58-8.16-16.33-5.27-23.7-1.05a41.82,41.82,0,0,1-6.32,1.32c-1.58,0-8.69,1.32-11.06,6.05s-4.74,9.75-8.43,12.9-4.48,38.17,14,41.33S777.68,316.12,777.68,316.12Z"/><path class="cls-4" d="M777.68,316.12l-.79-4.21s5-6.32-.79-12.64-10.53-6.84-11.06-9.48c0,0-4.74-.52-7.37-2.37s-24.22.26-24.48,12.37a9.13,9.13,0,0,1,1.58,5.26c-.26,2.63.26,17.11,7.63,22.64a104.62,104.62,0,0,1,9.48,7.64l10.26,14.21,7.9-3.16S785.58,331.13,777.68,316.12Z"/><path class="cls-2" d="M721.08,435.66s7.63-1.06,11.06,1.31,6.32,5,10,5,2.63,14,7.9,13.17,15-2.63,19.75-9.48,27.12-22.64,47.13-5.8c0,0,.53-9.47-1.32-11.05,0,0,13.43.52,16.32-2.64s3.16-21.85.53-29.22-2.89-29.49-3.95-36.33-3.16-24-8.69-26.86c0,0-12.38-5-16.06-5.79s-14.74-6.58-21.86-6.84a20.38,20.38,0,0,0-4.21-5s.79,10.79-2.9,14.22-13.69,5.79-10.79,16.85a4.67,4.67,0,0,1-3.42-2.37c-1.06-2.11-4.7-13.94-13.65-13.94s-24.79,9.2-28.48,12.1-10.53,8.16-11.32,17.64c0,0-14,30.54-16.85,32.39S682.9,397,684,399.59s-9.22,21.85-1.84,23.7,6.06,5.79,9.22,5.53,9.48,7.11,16.32,4.74S721.08,435.66,721.08,435.66Z"/><path class="cls-6" d="M754,321.13,713.44,440.66s-5.79,2.63-11.06-3.16l46.34-116.37S753.46,319,754,321.13Z"/><path class="cls-4" d="M716.07,381.95s3.69-3.16,5-1.32,5.26,9,5.53,10.53,0,3.42-1.85,3.42c0,0,1.58,4.48-2.37,4.74,0,0,1.32,2.63-.79,3.68s-7.37-3.68-7.37-3.68.27,3.95-3.16,3.95l-6.58,15.53-2.64,4.74s-8.95-7.9-2.89-15.27L700.8,407s-1.32-5.27.79-8.43,1.05-3.42,2.37-5,2.1-3.69,3.42-5S712.91,381.16,716.07,381.95Z"/><path class="cls-4" d="M775.31,398.27s8.69,7.9-.53,19c0,0-10.53-6.32-14-7.11s-16.32-8.43-18.17-15.27c0,0-14.22-4.21-15-6.85,0,0,0-1.58,1.32-1.84,0,0-.53-2.37.79-2.89,0,0-1.32-3.16,1.32-5s9-7.64,12.9-6.06,4.74,2.64,6.85,2.9,5.53-.26,7.9,8.42S767.15,398.53,775.31,398.27Z"/><path class="cls-7" d="M729.32,400"/><path class="cls-4" d="M668.45,522.66s25.36,2.85,27.11,31.4c2.35,38.38-95.53,69-144.08,47,0,0-9.93-1.1-22.07-2.21-15.54-1.41-33.11-8.83-43-24.28Z"/><path class="cls-8" d="M663.8,569.1"/><path class="cls-1" d="M663.16,442.63s3.44,3.82.76,13.76c0,0,4.59,5.35,2.29,10.7,0,0,6.11,8.4,2.67,14.14,0,0,5.73,5,3.44,12.23,0,0,3.82,4.58,1.91,9.94,0,0,4.59,8,1.15,14.52,0,0,5.35,5.35,3.44,12.23,0,0,3.44,4.2,1.15,8.79,0,0,3.06,2.67.76,8s-14.52,36.3-71.06,42-94.38-14.9-103.54-27.89l23.69-122.65S576.82,474.35,663.16,442.63Z"/><path class="cls-6" d="M529.82,438.43c0-16,30.82-30.18,67.43-30.18s66.29,13,66.29,29c0,0,7.67,30.46-66.86,31.33C531,469.38,529.82,438.43,529.82,438.43Z"/><path class="cls-5" d="M660.11,438.43c0,14.56-28.14,26.37-62.85,26.37s-62.85-11.8-62.85-26.37,28.14-26.36,62.85-26.36S660.11,423.87,660.11,438.43Z"/><path class="cls-4" d="M660.11,438.62c.22-14.66-28.14-26.55-62.85-26.55S534.41,424,534.41,438.62c0,6.31,2.67,7.45,2.67,7.45s19.25-31,67.36-29.35c64.74,2.21,52.22,30.12,52.22,30.12A12.09,12.09,0,0,0,660.11,438.62Z"/><path class="cls-4" d="M560,460.89s-18.59-10.38-10.19-23.75a36.86,36.86,0,0,1,22.25-16s-19.07-.64-35.5,21.52Z"/><path class="cls-9" d="M663.63,251.69s25.63-16.83,32.76-13.69-15.28,17.29-25.8,20.61S663.63,251.69,663.63,251.69Z"/><path class="cls-10" d="M691.53,247.42s-12.25,2.18-14.86-2.43l1.59,11.31Z"/><path class="cls-9" d="M670.52,268.81s9.12-3,13.33-7.1c1.82-1.78.21-17.38-15.09-23.24,0,0-6.2.48-14.06,6.6S670.52,268.81,670.52,268.81Z"/><path class="cls-11" d="M625.14,290.51s-3-13.06-11.31-19.58c-.57-.45,34.23-31.19,34.23-31.19s8-.73,15.37,7.54c6.1,6.87,13.39,19,13.73,29.69,0,1.08.2,1.66-.26,2.4a2.2,2.2,0,0,1-1.81,1.18Z"/><path class="cls-12" d="M623.36,279c3.15,5.45,3.15,10.86,1.77,11.66s-5-3-8.18-8.42-4.58-10.5-3.21-11.3S620.21,273.52,623.36,279Z"/><path class="cls-10" d="M447.26,285.91S427,271.16,425.51,264.55s18,10.62,22.25,13.67C448.63,278.85,447.26,285.91,447.26,285.91Z"/><path class="cls-9" d="M425.53,263.33s5.24-.55,7.8,5.66c2.89,7,7.13,1.53,7.42,4.27s8.67,4.15,4.93,9.35l2.71-5.18S426.86,256.26,425.53,263.33Z"/><path class="cls-10" d="M465.4,276.09s-11-8.6-16-9S433,280.63,434.28,289.73c0,0,6.85,8.89,14.24,10.46Z"/><path class="cls-9" d="M460.16,272.43a29,29,0,0,0-5-3.31s-.55,5-3.59,5.24-8.35-3.87-8.35-3.87l-1.86,1.66s8.3,5.18,5.39,10.45-5.12,13.55-2.63,17.14Z"/><path class="cls-13" d="M498.81,305.18s1,9-11,15.55c-.29.16-30.83-4.88-43-16.48-5.48-5.22,5-34.25,21.66-34.61C476.11,269.43,498.81,305.18,498.81,305.18Z"/><path class="cls-14" d="M496.18,313.64c-2.9,4.65-7.12,8.19-8.49,7.33s-.14-5.32,2.76-10,6.37-7.72,7.74-6.87S499.07,309,496.18,313.64Z"/><path class="cls-15" d="M669.45,281.72l-4,1a15.18,15.18,0,0,0-2-13.93l4.93-2S672.93,275.63,669.45,281.72Z"/><path class="cls-15" d="M662.06,283.22s2-6.86-2.31-12.14L656,272.77s2.81,7.14,1.89,11.2Z"/><path class="cls-15" d="M654.48,284.72l-3.74.65s-.64-6.17-2.67-8.78l4.35-2.32S655.41,280.23,654.48,284.72Z"/><path class="cls-15" d="M643.86,243.51l-3.23,2.74s5.27,2,7.44,5.09l3.77-2.9S647.48,244.09,643.86,243.51Z"/><path class="cls-15" d="M637.82,248.78l-3.25,2.86s4.35,1.31,6.53,4.35l3.19-2.9A22.84,22.84,0,0,0,637.82,248.78Z"/><path class="cls-15" d="M631.82,254.1l-2.89,2.63a13.53,13.53,0,0,1,5.94,4.33l2.61-1.74A16.08,16.08,0,0,0,631.82,254.1Z"/><path class="cls-16" d="M670.85,255.89s-26.07,8-46.09,25.88c0,0-.48-1.06-1.45-2.92,0,0,26.45-25.08,43.42-28.85A37,37,0,0,1,670.85,255.89Z"/><path class="cls-4" d="M552.64,342.55c-42.36-10.27-61.09-26.67-61.09-26.67.31-4.93,3.37-5.05,3.37-5.05C517,326,548,331.63,557.45,333.89c-7.85-7.18-12.51-18-12.51-18s-5.35-10.7-10.05-51.34l9.41-2.14a107.64,107.64,0,0,0,8,48c7.85,17.52,12.52,18.93,12.52,18.93,0-9.63,14.44-22.78,14.44-22.78s17.65-17.52,38-28.16a4.94,4.94,0,0,1,3.44,5.85s-21.2,11.08-37.79,29.05c0,0-11,10.59-9.08,20.54,2.51,13,63.53,16.68,69.95,55.19s-31,74.81-31,74.81-18.21,2.21-27.31-.55c0,0,48.09-51.48,36.54-78.43-9.67-22.57-30.16-28.56-51.34-37.54Z"/><path class="cls-9" d="M551,266s-13.75,6.46-23.14-3.63.4-59.85.4-59.85-.55-2.93,11.48-3.91c12.8-.81,43.93,6.59,42,14.6Z"/><path class="cls-9" d="M581.91,212.9c-1.23,3.87-14.6,6.08-29.61,3.25s-25.5-9.1-24.28-13S542,197.91,557,200.75,583.13,209,581.91,212.9Z"/><path class="cls-4" d="M573.73,192c-1,2.89-8.34,3.7-16.34,1.81s-13.64-5.76-12.61-8.64,8.35-3.7,16.34-1.81S574.76,189.11,573.73,192Z"/><path class="cls-4" d="M543.47,199.6l23.86,6s10.8,4.08,6.71,7-19.55,1.46-26.55-.58-19.84-9.34-9.92-11.38Z"/><path class="cls-9" d="M551.41,197s8.64-30.74,16.38-32.49-4.41,27.72-6.19,34.12C561.25,199.92,551.41,197,551.41,197Z"/><path class="cls-10" d="M567.8,164.49s3.44,5.07-2.53,11,1.2,6.87-1.49,8.36-.13,11.8-7.08,10.23l6.49.52S576.33,162.87,567.8,164.49Z"/><path class="cls-10" d="M567.35,209.53s-3.13,1.69-9.13,1.3-14.86-2.87-19-7.56l5.22-17.73a38.58,38.58,0,0,0,12.86,6.61c5.54,1.49,12.26.56,16.34-.35Z"/><path class="cls-4" d="M573.08,228.05s-5.74,5.48-13.82,4.17l-2.08,4.17s8.72.69,12.37-2.17Z"/><path class="cls-4" d="M567.08,238.48s-4.69,4.17-12.78,2.87L552.22,245s8.08,1,11.74-1.83Z"/><path class="cls-4" d="M561.09,248.91s-2.61,2.61-10.69,1.31l-.79,3.39s5.48,1.31,9.13-1.56Z"/><path class="cls-5" d="M526.25,215.07s1.25,7.84,8.47,11.7l-.87,4.58s-7.42-4.63-8.59-9.13Z"/><path class="cls-5" d="M524.71,227s1.2,6.16,8.43,10l-.55,4.17s-7.07-4.06-8.23-8.56Z"/><path class="cls-5" d="M523.84,238.72s.49,3.65,7.72,7.52l.23,4s-6.81-3.16-8-7.65Z"/><path class="cls-6" d="M535.61,443.89l16.37-.11,19.49,6.11L585.6,462.5s16.43,22.92,16,37.82-13.37,69.54-13.37,69.54L555,586.67l10.32-39.35Z"/><path class="cls-17" d="M484.16,315.38c2.34.35-.09,2.25-.09,2.25-28.36-4.4-35.55-13.47-37.24-14.5-.73-.45-.74-3.56,1.1-4.67C447.93,298.46,456.48,311.2,484.16,315.38Z"/><path class="cls-14" d="M473.44,273.21s1.54,1.26,2.95,2.67c0,0-7.86,1.68-11.23,8.84l-3.09-2.25S465.72,274.61,473.44,273.21Z"/><path class="cls-14" d="M478.91,278.54a26.43,26.43,0,0,0,2.25,2.53,16.7,16.7,0,0,0-10.39,8.14l-2.67-2S471.05,279.8,478.91,278.54Z"/><path class="cls-14" d="M483.26,283.6l2,2.53a17,17,0,0,0-8.84,7.3L474,291.32A14,14,0,0,1,483.26,283.6Z"/><path class="cls-10" d="M678.52,265.53a47.73,47.73,0,0,0-19.08-23.77l-1.44.78s10.73,5.89,17.25,24.49Z"/><path class="cls-4" d="M663.48,443.07s-2.07,19.73-48,25.89c0,0,31.53-.42,44.51-14.35C660,454.61,667.76,447.28,663.48,443.07Z"/><path class="cls-4" d="M668.63,461.83s-2.07,19.73-48,25.89c0,0,31.53-.42,44.51-14.35C665.14,473.37,672.91,466,668.63,461.83Z"/><path class="cls-4" d="M590,585.27c31.9-.21,43.18-8.91,43.18-8.91-20.11,7.66-35.22,7.22-43.33,6,.48-4.41,4.15-8.28,6.37-11.4,22.12-23.67,21-63.37,14.9-79.55-7.78-20.77-36.54-57.93-84.68-46.47l.2.25c7-1.09,19.72-2,26.93-.38,35.07,7.81,50.82,47.63,41.92,87.62a83.92,83.92,0,0,1-6.94,19.51,104.2,104.2,0,0,1-13.07,14.88c-10.73,10.05-31.9,19.1-48.26,19.1-32.1,0-55.66-19.61-59.73-56.8,0,0,5.33,69.39,65.3,64.17a69.36,69.36,0,0,0,8.87-1.35,110.12,110.12,0,0,0,19.87-3.34l3.81,3.31L595.89,590C592.27,589.24,590.53,587.49,590,585.27Z"/><path class="cls-5" d="M544.58,211a3,3,0,0,0-1.93,1.66c-.41,1.24-7.17,18.07-6.21,54.76l-1.28,0s.18-35.9,6.66-55.49C541.82,212,541.68,211.19,544.58,211Z"/><path class="cls-6" d="M597.45,531.66c-8.9,40-46.19,66.65-81.26,58.85S459.9,543.95,468.8,504s44.55-66.08,79.63-58.27S606.35,491.66,597.45,531.66Z"/><path class="cls-5" d="M548.18,453.43c-31.05-7.68-63.62,13.22-72.74,46.67s10.34,68.57,41.4,76.25,63.62-13.21,72.74-46.67S579.23,461.11,548.18,453.43Zm37.06,73.38c-9,32.89-40.62,53.52-70.71,46.07s-47.21-40.14-38.24-73,40.62-53.52,70.71-46.08S594.2,493.93,585.24,526.82Z"/><path class="cls-5" d="M543.11,462.94c-25.46-6.3-52.16,10.83-59.64,38.26s8.66,55.87,34.12,62.16,52.16-10.83,59.64-38.26S568.57,469.24,543.11,462.94ZM573.5,523.1c-7.35,27-33.31,43.88-58,37.78S476.82,528,484.17,501s33.31-43.88,58-37.78S580.85,496.14,573.5,523.1Z"/><path class="cls-2" d="M538.93,472c-19.78-4.89-40.52,8.42-46.33,29.72s6.74,44.49,26.52,49.38,40.52-8.42,46.33-29.72S558.71,476.93,538.93,472Zm23.6,46.74c-5.71,20.95-25.87,34.08-45,29.34s-30.06-25.56-24.35-46.51,25.87-34.08,45-29.34S568.24,497.82,562.53,518.77Z"/><path class="cls-2" d="M535.29,481.54c-14.5-3.59-29.71,6.17-34,21.79s4.94,32.62,19.44,36.21,29.71-6.17,34-21.79S549.79,485.13,535.29,481.54Zm17.3,34.27c-4.19,15.35-19,25-33,21.51s-22-18.74-17.85-34.1,19-25,33-21.51S556.78,500.45,552.59,515.81Z"/><path class="cls-5" d="M534.91,501.85s-6.62-2-9.68,5.6,3.06,13.25,3.06,13.25,0,8.15-7.13,5.6-13.76-31.07,11.72-31.58C532.88,494.72,541.54,496.25,534.91,501.85Z"/><path class="cls-9" d="M560.58,211.19s-7.72-.28-11-1.66c0,0,12.69-.83,9.93-3.86s-12.69-3.59-7.72-6.62,15.45-.28,12.14-6.07l5-.55s1.1,5.79-4.14,5.79-4.41,3.86-.55,5.24S560.58,211.19,560.58,211.19Z"/></g></g></svg>