<svg xmlns="http://www.w3.org/2000/svg" viewBox="0 0 1314.21 849.1"><defs><style>.cls-1{fill:#febd10;}.cls-2{fill:#83c674;}.cls-3,.cls-6{fill:#6c0f0f;}.cls-4{fill:#f04f53;}.cls-5{fill:#faf8d0;}.cls-6{opacity:0.42;}.cls-7{fill:#791214;}.cls-8{fill:#fff;}.cls-9{fill:#ee4450;}.cls-10{fill:#59adc5;}.cls-11{fill:#128bcc;}.cls-12{fill:#f1606c;}.cls-13{fill:#edb1c6;}.cls-14{fill:#e07795;}.cls-15{fill:#d2607c;}.cls-16{fill:#e1839e;}.cls-17{fill:#67c9d0;}.cls-18{fill:none;stroke:#6c0f0f;stroke-miterlimit:10;}</style></defs><title>Asset 21</title><g id="Layer_2" data-name="Layer 2"><g id="Layer_1-2" data-name="Layer 1"><rect class="cls-1" width="646.25" height="849.1"/><rect class="cls-2" x="667.97" width="646.25" height="849.1"/><path class="cls-3" d="M460.84,451.7c-2-5.63-7.18-13.3-20.23-17.88-24.2-8.49-41.67-50.22-43.85-56.58-1.49-11.12-4.41-21.34-10.52-30.85a73.17,73.17,0,0,0-29.89-26.54c-23.23-11.44-50.09-10.45-73.41,4.54A73,73,0,0,0,253.3,361c-5.53,14.74-7.67,30.35-3.67,45.5-.21,3.35,1,13.21-4.58,18a22.8,22.8,0,0,1-15.42,4.66c-10.68-1.2-18.27-.48-23.8,3.23l-.69.43-.59.51a22.44,22.44,0,0,0-5.76,7.3c-2.19,4.2-4.82,15.41,1.63,24.11,4,5.45,12.21,11.31,28.17,8.3,18.31-3.45,27.07-7.84,33.36-10.18,1.18-.51,4.81-1.85,8.17-.61,2.53.93,4.56,3.25,6,6.88,2.63,6.48.3,13.06-2.41,20.69s-5.85,16.5-3.17,25.94a29.79,29.79,0,0,0,22.85,20.87,25.9,25.9,0,0,0,2.61.33c6.69.51,17.15-1.26,26.52-13.85,2.53-2.53,6.88-11.32,5.9-41.78-.22-6.91,1.06-11.57,3.7-13.49a6.75,6.75,0,0,1,4.62-1.06c.53,6.12,2.78,19.83,12.37,28.46,6.45,5.8,14.88,8.19,25.08,7.12s17.72-5.15,22.5-12.12c5.47-8,6-18,5.39-25.07,2.68,2,6.43,4.85,11.65,9a36.09,36.09,0,0,0,28.56,7.27c7.61-1.35,13.77-5.1,16.91-10.29A23.28,23.28,0,0,0,460.84,451.7Z"/><path class="cls-4" d="M439.36,437.42c-26.14-9.17-41.82-52.91-44.11-59.69a72.46,72.46,0,1,0-141.78,28.35c-.23,5.58-2.55,26.73-24.31,24.28-19.56-2.2-26.12,5.91-29,11.36S198,474.9,227.88,469.26s31.89-9.62,31.89-9.62,13.68-7.32,19.91,8-10.23,30.15-5.44,47,28.72,28.69,45.46,5.84c0,0,6.06-4.25,4.94-39.1-.77-24.08,15.78-17.78,15.78-17.78s0,38.41,33.4,34.89S397,457.31,397,457.31s2,.11,19.13,13.89c13.78,11.09,33.88,7.81,39.81-2C460.79,461.16,460.17,444.72,439.36,437.42Z"/><path class="cls-1" d="M228.73,434.15a15.75,15.75,0,0,0-9.1,13c-.74,9.63,11.24,19.73,11.24,19.73l-13.1,4.6-13.65-8.19-6-14.74L205,433.22Z"/><path class="cls-5" d="M223.61,468.4s-15.25-7.29-13.77-19.92,9.9-16.07,9.9-16.07l-10.26.74L198.61,442l.28,9.71L205,465.44Z"/><path class="cls-6" d="M262.72,421.75s-9,16.14-32.64,12.55l18.29-7.89,6.46-16.86Z"/><path class="cls-1" d="M414.89,467.76s18.22-4.89,20.82-16.59c2.09-9.42-3.67-14.22-3.67-14.22L447,441.66l11.31,12.09-3.5,19.11L435.44,479Z"/><path class="cls-6" d="M256.89,456.85s-40.29,11.39-54.33-4.57L205,465.44l15.83,4.78,35.51-8.07Z"/><path class="cls-5" d="M442.84,442.37s7.3,8.13,4.16,16.64c-4.51,12.23-22.83,14.06-22.83,14.06s12.68,7.6,19.54,4.56,15.13-11.08,15.13-11.08l-4.26-17.66Z"/><path class="cls-1" d="M394.19,456.15s-.88,20.33-17.91,25.14-30.76-6.78-30.76-6.78l.18,10.89,12,12.14,21.84-1,18.69-13.19-1-21.84Z"/><path class="cls-5" d="M395.31,468.13s-6.88,18.85-22.92,19.66-24.62-7-24.62-7L352,491.67l22.8,8.55,17.68-8.84Z"/><path class="cls-6" d="M354.78,465.75s6,27.74,24.39,28.93c0,0-12.19,8.13-23.91-2.15S342.83,466,342.83,466Z"/><path class="cls-6" d="M387.35,434.54s45.74,45.67,66.55,33.83l-10.19,9.24-20.3-2.07-24.75-19Z"/><path class="cls-6" d="M280.58,493.33s15.3-15.78,12.67-26.78S281.77,448.37,266,454.35C266,454.35,295.88,460.33,280.58,493.33Z"/><path class="cls-7" d="M306.58,369.67c-.64-3.34-1.09-10.45-5.07-14.27-5-4.83-9.92-5.57-15.12-5.21-7.67.53-17.93,6.52-15.18,15.69a13.89,13.89,0,0,0,.92,2.66,9.53,9.53,0,0,0-3.49,3.1c-1.75,2.92.55,4.39,4.43,2.28a30.31,30.31,0,0,1,6.93-2.47c2.16-.2,4.56-.7,7-1.17C294.61,368.83,308,377.23,306.58,369.67Z"/><path class="cls-7" d="M368.56,379.42a41.57,41.57,0,0,0-9.91-6,11.17,11.17,0,0,0,.93-2.52,2.42,2.42,0,0,0,2.18-2.43,18.3,18.3,0,0,0-9.37-18.07,30.54,30.54,0,0,0-12.46-3.14,23.85,23.85,0,0,0-11.81,2.9c-7,4.08-10.31,14.67-11.45,19.26-2.11,8.44,17.45,2.55,25.89,4.67.93.23,1.84.48,2.72.72l-.15,0s14.94,3.68,19,8.13S372.09,382.25,368.56,379.42Z"/><path class="cls-1" d="M322,497.53s-5.72,12.48-20.33,12.38-22.15-17-22.15-17l-5,11.52,1.88,15.44,14.61,13.36,20-3.9,11.33-14.77Z"/><path class="cls-8" d="M322,370.07s-.46-.65,1.49-6.34,7.71-11,19.37-9.59c4.17.51,14.54,6.43,14,14.17s-9.38,1.36-17,1A131.81,131.81,0,0,0,322,370.07Z"/><path class="cls-8" d="M297.49,368.05s2.4.34,2.5-3.17c.05-2-2.88-5.61-6.3-7.57a15.2,15.2,0,0,0-7.1-1.68c-3.51-.09-9.68,1.07-10,7.54-.09,1.84-.36,4.54.36,4.42,2.22-.37,6.67-1.7,11.14-1.23A48.82,48.82,0,0,1,297.49,368.05Z"/><path class="cls-7" d="M276.63,383.93c-.17,3.84,13.31,19.68,33.56,18.52,26.75-1.54,38.36-8.94,38.53-12.78s-19.74,1.33-38,1.54C294.31,391.4,276.81,380.09,276.63,383.93Z"/><path class="cls-5" d="M320.79,509s-8.16,13.31-22.61,11.18-21.69-14.24-21.69-14.24l1.82,16.12,16.41,12.14,19.6-7.34,8.08-12.3Z"/><path class="cls-7" d="M460.84,451.7c-2-5.63-7.18-13.3-20.23-17.88-24.2-8.49-41.67-50.22-43.85-56.58-1.49-11.12-4.41-21.34-10.52-30.85a73.17,73.17,0,0,0-29.89-26.54c-23.23-11.44-50.09-10.45-73.41,4.54A73,73,0,0,0,253.3,361c-5.53,14.74-7.67,30.35-3.67,45.5-.21,3.35,1,13.21-4.58,18a22.8,22.8,0,0,1-15.42,4.66c-16.17-1.82-25.27.77-30.85,11.48-2.19,4.2-4.82,15.41,1.63,24.11,4,5.45,12.21,11.31,28.17,8.3,18.31-3.45,27.07-7.84,33.36-10.18,1.18-.51,4.81-1.85,8.17-.61,2.53.93,4.56,3.25,6,6.88,2.63,6.48.3,13.06-2.41,20.69s-5.85,16.5-3.17,25.94a29.79,29.79,0,0,0,22.85,20.87,25.91,25.91,0,0,0,2.61.33c6.69.51,17.15-1.26,26.52-13.85,2.53-2.53,6.88-11.32,5.9-41.78-.22-6.91,1.06-11.57,3.7-13.49a6.75,6.75,0,0,1,4.62-1.06c.53,6.12,2.78,19.83,12.37,28.46,6.45,5.8,14.88,8.19,25.08,7.12s17.72-5.15,22.5-12.12c5.47-8,6-18,5.39-25.07,2.68,2,6.43,4.85,11.65,9a36.09,36.09,0,0,0,28.56,7.27c7.61-1.35,13.77-5.1,16.91-10.29A23.28,23.28,0,0,0,460.84,451.7Zm-8.16,15.52c-2,3.26-6.34,5.77-11.7,6.72a28.37,28.37,0,0,1-22.44-5.7c-7.37-5.93-12.09-9.47-15.16-11.57a78.29,78.29,0,0,1-16-22.12s2.7,8.87,4.88,18.68h0l.92,4.39c.6,3.07,1.11,6.12,1.42,8.91.39,5.77-.1,13.47-4.14,19.36-3.46,5-9.18,8-17,8.85s-14.39-.91-19.16-5.18c-7.1-6.37-9.18-16.94-9.78-22.41,18.22.7,19.45-10.93,19.45-10.93-4.2,3.76-7.54,7.41-21.18,4.23l-1-.37c-.32-.12-7.84-2.91-14,1.5-4.91,3.5-7.24,10.22-6.93,20,.9,28.06-3,35.14-3.64,36.09l-.19.13-.37.51c-6.16,8.4-13.92,12.25-21.85,10.82a22.32,22.32,0,0,1-16.86-15.45c-2-7.09.43-14,3-21.3,3-8.33,6-16.94,2.28-26.11-2.33-5.74-5.88-9.5-10.56-11.19a15.85,15.85,0,0,0-4.19-.89,21,21,0,0,0-10.5,2.14l-1.08.58h0c-1.2.79-7.33,4.44-29.72,8.66-9.7,1.83-16.64,0-20.63-5.35-1.82-2.45-3.51-5.26-4-7.88a15.62,15.62,0,0,1,1-8.8c1.48-2.84,6-11.48,25.15-9.34,7.72.87,14.11-.82,19-5s7.2-9.85,8.39-14.78C260.39,424.8,273.84,432,273.84,432c-11.12-9.5-16.77-27.55-17.45-30a69.34,69.34,0,0,1,2.74-39.16,68.65,68.65,0,0,1,132.33,15.37l0,.38.12.36c2.93,8.67,18.93,52.41,46.46,62.06,8.09,2.84,13.48,7.43,15.58,13.27A15.44,15.44,0,0,1,452.68,467.22Z"/><circle class="cls-9" cx="264.37" cy="385.32" r="4.5" transform="translate(-140.03 619.47) rotate(-85.62)"/><circle class="cls-9" cx="262.25" cy="375.06" r="2.75" transform="translate(-180.98 261.08) rotate(-40.62)"/><circle class="cls-9" cx="375.88" cy="366.77" r="6.71" transform="matrix(0.08, -1, 1, 0.08, -18.54, 713.52)"/><circle class="cls-9" cx="382.78" cy="381.7" r="4.5" transform="translate(-27.06 734.19) rotate(-85.62)"/><path class="cls-9" d="M377.14,414.35s-12.38,22.54-37.5,26.13c0,0-1,4.19,10.73,1.37s22.5-11.37,26.93-18.63S382.42,410.6,377.14,414.35Z"/><path class="cls-10" d="M286.64,355.7a6.51,6.51,0,0,0-6.23,6.78,6.69,6.69,0,0,0,1.44,3.8,18.6,18.6,0,0,1,4.6-.25c2.16.13,3.91.34,5.42.53a7,7,0,0,0,1.55-4.63A6.51,6.51,0,0,0,286.64,355.7Z"/><path class="cls-11" d="M292.1,367.13l-.29,0c-1.45-.19-3.22-.4-5.38-.53a18.13,18.13,0,0,0-4.47.25l-.32.06-.2-.26a7.21,7.21,0,0,1-1.56-4.11,7,7,0,0,1,6.74-7.34h0a7,7,0,0,1,7.34,6.74,7.62,7.62,0,0,1-1.67,5Zm-6.95-1.68q.66,0,1.34,0c2,.12,3.74.32,5.15.5a6.54,6.54,0,0,0,1.24-4,6,6,0,0,0-6.22-5.71h0a6,6,0,0,0-5.71,6.22,6.09,6.09,0,0,0,1.13,3.24A18.47,18.47,0,0,1,285.15,365.45Z"/><circle class="cls-3" cx="287.21" cy="360.9" r="3.36" transform="translate(-36.01 31.86) rotate(-5.98)"/><path class="cls-11" d="M287.21,357.54a3.36,3.36,0,0,1,.35,6.69l-.35,0a3.36,3.36,0,0,1-.35-6.69l.35,0m0-1.43-.5,0a4.79,4.79,0,0,0,.49,9.56l.5,0a4.79,4.79,0,0,0-.49-9.56Z"/><path class="cls-7" d="M369.06,353.75s-5.86-11.81-14.92-12.5c0,0-3.07-.55-2.24-3s7.23-.63,9.24,1.13,6.6,3.5,9.72,11.78C370.86,351.21,373.42,355.58,369.06,353.75Z"/><path class="cls-7" d="M284.14,341.92s-13.18-.37-18,7.31c0,0-1.93,2.45-3.66.59s2.84-6.68,5.34-7.63,6.19-4.18,15-3.06C282.74,339.14,287.8,338.93,284.14,341.92Z"/><path class="cls-12" d="M300.62,365.37a21.67,21.67,0,0,0-6.5-4.23,20.9,20.9,0,0,0-9.53-1.12c-7.12.74-11.69,7-11.69,7s-.67.12.89-3.43,3.69-8.49,10.74-9.62,13.57,1.51,15.7,6.3S301.6,365.3,300.62,365.37Z"/><path class="cls-7" d="M391.13,375.84s1.91,7.89-3.59,23.19c0,0-2.39,4.3-1.2,5.5s11-12.91,9.8-31.08Z"/><path class="cls-13" d="M356.34,419.24s-3.11,4.54-7.89,5.62c0,0,3.83,1.79,3.95,5.74s-1,8.49.36,11.24,6.34,2,4.66-7.05.72-18.89.72-18.89Z"/><path class="cls-13" d="M322.8,413.86s5.38,9.33,4.84,18.47,5.56,3.77,3.59-.54,3.77-5.92,3.77-5.92-5.2-2.15-7.89-5.92S322.8,413.86,322.8,413.86Z"/><path class="cls-13" d="M319.75,409.91s-3.23-5.2-7.71-4.48-.36,6.46-3.41,7.53-5.2-1.26-4.84-5.38-4.84-6.1-4.84-6.1,8.79,2.33,16.14.54A27.27,27.27,0,0,0,319.75,409.91Z"/><path class="cls-12" d="M351.31,330.65s-11.12-7.89-30.85-7.17-32.28,10-32.28,10a3,3,0,0,0-1,2.75c.24,1.85,3,.84,3.35.18s9.09-8,26.75-9.47,30,5.38,30,5.38a3.47,3.47,0,0,0,3.68,1.43C353.65,333.34,351.31,330.65,351.31,330.65Z"/><path class="cls-3" d="M358.67,360.69"/><path class="cls-3" d="M359,364.86s.63,2.73-1.17,2.24.63,2.2.63,2.2H360l-.31-4.21Z"/><path class="cls-13" d="M327.28,425.93s-4.18-10.28-8.13-14.23-3.35-6.34-7.11-6.28,2.57-2,2.57-2L320,407l8,12.43Z"/><path class="cls-10" d="M337.12,357.31a8,8,0,0,0-7.76,8.14,8.34,8.34,0,0,0,.92,3.51c2.75-.19,5.78-.41,8.6-.32a30.47,30.47,0,0,1,5.19.8,8.33,8.33,0,0,0,1.18-4.36A8,8,0,0,0,337.12,357.31Z"/><path class="cls-11" d="M344.34,370,344,370l-.79-.16a24.62,24.62,0,0,0-4.31-.63c-2.79-.08-5.84.13-8.53.32l-.35,0-.18-.32a8.88,8.88,0,0,1-1-3.74,8.49,8.49,0,0,1,8.29-8.69v0a8.5,8.5,0,0,1,8.69,8.29,8.81,8.81,0,0,1-1.26,4.65Zm-6.76-2,1.32,0a25.47,25.47,0,0,1,4.5.65l.4.08a7.79,7.79,0,0,0,.92-3.74,7.41,7.41,0,1,0-14.82.35,7.7,7.7,0,0,0,.71,3C332.82,368.24,335.25,368.07,337.58,368.07Z"/><circle class="cls-3" cx="337.06" cy="362.48" r="4.41" transform="translate(-110.28 574.35) rotate(-72.42)"/><path class="cls-11" d="M337.06,358.07a4.42,4.42,0,1,1-4.21,3.08,4.41,4.41,0,0,1,4.21-3.08m0-1.43a5.85,5.85,0,1,0,1.77.27,5.83,5.83,0,0,0-1.77-.27Z"/><path class="cls-7" d="M348.77,388.7c12.8,3.4,16.91,34.09-3.43,36.79-16,2.12-17.93-3.39-21.9-10.49-2.2-3.94-5.88-7.68-7-10-2.51-5-.85-5.95-.85-5.95.5-7,13.1-12,20.08-6.76C335.63,392.31,337.72,385.77,348.77,388.7Z"/><path class="cls-14" d="M318.33,401.85a51.85,51.85,0,0,1,7.77,10.33c3.16,6.05,6,12.53,19.26,10.73,17.44-2.36,13-29.57,1.86-31.87-10.31-2.13-11.85,6.23-9.44,10.58A9.31,9.31,0,0,0,334,394.5C328.68,391,318.37,391.78,318.33,401.85Z"/><path class="cls-7" d="M344.13,390.69a15.29,15.29,0,0,1,3.09.34c11.12,2.3,15.58,29.51-1.86,31.87a31.53,31.53,0,0,1-4.22.31c-9.74,0-12.25-5.69-15-11a51.85,51.85,0,0,0-7.77-10.33c0-6.64,4.52-9.24,9.09-9.24A12.1,12.1,0,0,1,334,394.5a8.17,8.17,0,0,1,2.83,3.28,8.34,8.34,0,0,0,1,3.84,10,10,0,0,0-1-3.84c-.06-3.47,2-7.08,7.35-7.08m0-1.79h0a9.21,9.21,0,0,0-6.77,2.53,8,8,0,0,0-1.54,2.23A9.77,9.77,0,0,0,335,393a13.94,13.94,0,0,0-7.54-2.19c-5,0-10.85,2.89-10.88,11v.74l.52.53a50.35,50.35,0,0,1,7.46,9.9l.36.7c2.75,5.3,5.86,11.3,16.27,11.3a33.51,33.51,0,0,0,4.46-.32,14.35,14.35,0,0,0,10-5.69,18.27,18.27,0,0,0,3.25-10.22,25.08,25.08,0,0,0-2.75-12.25c-2.11-4-5.11-6.55-8.47-7.24a17.16,17.16,0,0,0-3.45-.38Z"/><path class="cls-15" d="M338,393.48s-.68,1.59,3.5,4.53,3.46,11.67.09,12.29-3-4.94-3-4.94,1.27-2.19.07-3.77A10.77,10.77,0,0,1,337,397.9a2.57,2.57,0,0,1-.09-2.23A8.45,8.45,0,0,1,338,393.48Z"/><path class="cls-7" d="M328.72,392.6s7.3-.3,9.59,13.76c0,0,.3.89,1.09.19,1.58-1.4-2.71-11.48-5.55-13.1A6.76,6.76,0,0,0,328.72,392.6Z"/><path class="cls-15" d="M324.81,398.1c-.67-6,4-5.28,4-5.28a8.42,8.42,0,0,0-10.69,7.78c-.23,3.43,6.17,9.52,8.23,13.72,5.39,11,15.8,8.74,15.8,8.74s-9.13-1.83-12-7.91a14.44,14.44,0,0,0-1.52-9.94C325.81,399.83,325.26,402.15,324.81,398.1Z"/><path class="cls-13" d="M332.43,396.29s-2.93-2.4-5.9-2.21-5,5.28-5,5.28l1.1,1.72s1.88-4.89,5.08-4.49S335.24,399.89,332.43,396.29Z"/><path class="cls-15" d="M331.54,410.55"/><path class="cls-16" d="M343.23,392.64c-6,2.56,4.1,5.11,6.89,8.51s1.5,11.23-3.82,12-9.94,3-5.4,5.7,10.2-2,10.2-2,4.59-6,2.42-15.25-8.92-9.17-8.92-9.17Z"/><path class="cls-13" d="M338.47,395.91a7.64,7.64,0,0,1,6.13-3.56c4.35-.27,9.08,2.21,9.74,12.7,0,0,.14,2.18-1.52,1.09s1-5.63-3-9.55-6.49-2.17-8-.89S337.29,399.37,338.47,395.91Z"/><path class="cls-7" d="M360.73,375.21s5.11-2.87,4.57-7.62c0,0,0-1.26.9-1.34s2.69,4.48-2.06,10.49Z"/><path class="cls-7" d="M302.15,366.91A29.7,29.7,0,0,0,295,362a17.41,17.41,0,0,0-10.82-1.54c-7.67,1.71-10.6,7.13-10.6,7.13s-2.15-.76-1.81-1.4c1-1.9,4.7-6.14,12.32-7.51A19.84,19.84,0,0,1,302,364.33C302.38,364.71,301.85,366.54,302.15,366.91Z"/><path class="cls-12" d="M355.33,367.55a26.48,26.48,0,0,0-7.67-5.56A25.54,25.54,0,0,0,336.1,360c-8.74.47-14.7,7.83-14.7,7.83s-1.91.1.22-4.13,6.09-11.21,14.77-12.16,17.19,2.31,19.49,8.29S356.53,367.53,355.33,367.55Z"/><path class="cls-9" d="M350.72,362.09s.24-4.9-6.93-8-11.24-1.55-11.24-1.55,5.26-3.47,16,.36,11,16.05,11,16.05L353.59,364Z"/><path class="cls-7" d="M357.11,369.53a36.29,36.29,0,0,0-8.41-6.46,21.72,21.72,0,0,0-13.11-2.54c-13.53,2.1-13.56,9.54-13.56,9.54s-2.39-2.55-1.93-3.3c1.37-2.26,6.11-7.21,15.5-8.41,9.81-1.26,20.37,6.21,24.2,10.85C360.19,369.7,356.77,369.06,357.11,369.53Z"/><path class="cls-12" d="M266.69,410s9.16,25.56,29.92,29.34,21.63-11.53,4.34-16.49S278.54,412,278.54,412,267.23,397.61,266.69,410Z"/><polygon class="cls-4" points="1094.34 465.21 1106.24 466.29 1113.82 475.49 1113.82 489.02 1104.08 497.14 1090.55 492.81 1076.48 486.31 1076.48 505.8 1065.11 517.7 1053.75 524.2 1036.97 522.57 1022.9 508.5 980.15 523.65 956.33 527.44 933.61 524.74 916.29 516.08 910.88 506.88 897.89 506.88 886.52 496.6 885.98 479.28 894.64 469 910.88 460.88 918.99 445.18 923.86 412.17 923.86 384.57 926.03 361.84 939.56 342.9 973.11 321.79 1006.66 320.71 1038.05 330.99 1054.83 343.98 1068.36 354.81 1071.61 376.99 1074.85 407.3 1078.64 442.48 1085.68 460.34 1094.34 465.21"/><path class="cls-1" d="M910.33,465.75s-4.69,6.49-4.69,13,9.38,10.46,10.82,11.18-6.13,18.4-6.13,18.4l-19.84-4-4-22.37,12.63-13Z"/><path class="cls-5" d="M902.63,470.84s-6.37,3.92-5.65,12.94,8.3,16.6,14.43,17.68l-2.53,8.3-15.15-2.89-8.3-17,4-15.87Z"/><path class="cls-1" d="M940.28,485.41a13.53,13.53,0,0,0-2.35,12.09c2,7.22,26.52,26,59.53,22.37l-42.75,9-36.26-12.45-7.4-12.63,9.38-15.87Z"/><path class="cls-5" d="M933.24,489.2s-5,3.39-2.6,13.94,28.41,22.73,28.41,22.73l-30.85-2.44-18.52-11.1L914.41,495Z"/><path class="cls-1" d="M1092.53,467.91a6.51,6.51,0,0,1,5.41,6.85c0,6.13-4.33,14.43-11.91,14.79l7.58,4.69,10.46,2.89,10.82-6.85.72-16.6-15.15-8.3Z"/><path class="cls-5" d="M1102.27,468.27s8.3,16.6-4.33,24.89l7.94,4.33,8.3-11.91,3.25-11.55-11.18-7.76Z"/><path class="cls-1" d="M1072.7,478.79s-4.06,12.18-26,17c0,0-4.06,1.62-11.36-.81L1022.9,508.5,1037,522.57l21.12.86,16.23-14.61,3.42-16Z"/><path class="cls-5" d="M1075.21,489.56s-1.8,13-20.56,18.4-25.26-2.89-25.26-2.89l-6.85,1.8,7.22,10.82,24,6.49,19.3-11.55,4.69-19.84Z"/><path class="cls-8" d="M1056.76,380.64c-1,6.5-15.52,16.35-25.39,17a17.92,17.92,0,0,1-19.14-16.62c-.7-9.87,2-22.28,11.87-23,3.7-.26,13-2.54,17.12-.94C1048,359.83,1057.7,374.53,1056.76,380.64Z"/><circle class="cls-17" cx="1027.4" cy="374.53" r="16.38" transform="translate(-7.65 727.36) rotate(-38.85)"/><path class="cls-11" d="M1027.44,391.84a17.58,17.58,0,0,1-1.89-.1,17.26,17.26,0,1,1,1.89.1Zm-.06-32.76a15.48,15.48,0,1,0,1.68.09A15.78,15.78,0,0,0,1027.38,359.08Z"/><path class="cls-12" d="M1037.42,398.13l4.9-2.69-16.5-2.73-13.23-8.08.91,6.56,8.84,9.26S1031.17,403.36,1037.42,398.13Z"/><path class="cls-7" d="M1013,371s-.16,10.54,6.86,16.17c10.33,8.29,20.69,6.47,29,1.41a32.21,32.21,0,0,0,8.47-7.61l-7.79,11s-9.91,6.93-22.07,3.08-17-10.57-16.89-16.72C1010.58,376.08,1013,371,1013,371Z"/><circle class="cls-3" cx="1027.83" cy="374.46" r="10.2" transform="translate(237.94 1131.25) rotate(-63.79)"/><path class="cls-7" d="M1009.44,380c.65,12.94,8.09,25.8,19.38,25.23s32.39-12.88,31.74-25.82-14.8-27-26.08-26.42a31.75,31.75,0,0,0-18.82,8.57C1010.68,366.65,1009.12,373.52,1009.44,380Zm15.38-20.49c4.16-2.06,11.89-2.68,16-1.07,6.8,2.67,17,15.68,16.08,21.8-1,6.5-17.41,20-27.28,20.74s-16.56-10.44-17.25-20.32S1016,363.92,1024.82,359.54Z"/><ellipse class="cls-7" cx="993.28" cy="437.45" rx="12.52" ry="16.27" transform="translate(-16.72 40.12) rotate(-2.29)"/><path class="cls-7" d="M987,445.58a1.5,1.5,0,0,0,0-3,1.5,1.5,0,0,0,0,3Z"/><path class="cls-18" d="M1072.26,358.12"/><path class="cls-8" d="M939.45,377.31c.5,5.89,12.92,15.6,21.72,16.82a16.1,16.1,0,0,0,18.16-13.73c1.22-8.81-.43-20.09-9.24-21.32-3.3-.46-11.53-3.07-15.28-1.88C948.56,359.18,939,371.77,939.45,377.31Z"/><circle class="cls-17" cx="965.54" cy="373.58" r="14.78" transform="translate(35.89 829.2) rotate(-47.26)"/><path class="cls-11" d="M965.53,389.3A15.72,15.72,0,1,1,976.21,362h0a15.72,15.72,0,0,1-10,27.25Zm0-29.56a13.84,13.84,0,1,0,9.39,3.67A13.81,13.81,0,0,0,965.55,359.74Z"/><path class="cls-12" d="M955.18,394.7,950.95,392l15-1.45,12.35-6.44L977,389.93l-8.48,7.76S960.46,399.77,955.18,394.7Z"/><circle class="cls-3" cx="965.62" cy="373.96" r="9.73" transform="translate(-69.67 394.78) rotate(-22.32)"/><path class="cls-7" d="M977.46,362.73a28.52,28.52,0,0,0-16.35-8.83c-10.08-1.19-23.62,10.53-25,22.1s16.79,23.88,26.87,25.08,17.53-9.87,18.9-21.44C982.59,373.82,981.6,367.58,977.46,362.73Zm1.8,17.33c-1.22,8.81-7.89,18.38-16.7,17.16S939.88,382.85,939.37,377c-.47-5.54,9.49-16.58,15.74-18.56,3.75-1.19,10.64-.16,14.24,1.94C977,364.81,980.48,371.25,979.26,380.05Z"/><path class="cls-7" d="M939.36,375.25s3.71,9.86,12.3,12.54c12.64,3.94,21.62-1.55,27.48-9.28,2.35-3.1-.53,3.87.92-.43l.93,3.3s-6.69,10.07-19.41,10.94-19.66-3.63-21.83-9.38C939,380.82,939.36,375.25,939.36,375.25Z"/><path class="cls-7" d="M1050.19,402.46s11.17-4.4,12.5-12.57c0,0,.74-2.74,2.86-1.8s0,6.61-1.74,8.3-3.69,5.71-11.44,7.9C1052.35,404.3,1048.19,406.28,1050.19,402.46Z"/><path class="cls-7" d="M934.17,386.31s4.44,11.15,12.61,12.45c0,0,2.74.73,1.81,2.85s-6.61,0-8.3-1.71-5.73-3.67-7.94-11.42C932.34,388.48,930.34,384.32,934.17,386.31Z"/><path class="cls-7" d="M1111.94,465.42a24,24,0,0,0-13.05-3.71c-3.38-.09-7.87-.29-13.2-7.06-9.74-26.52-8.66-48.71-8.66-48.71-.63-11.11-.81-20.29-2.87-34.25.61-2.69-1.1-12.34-1.1-12.34-3.53-11.74-8.37-15.48-11.46-17.52a23,23,0,0,0-9.22-3.79,75.26,75.26,0,0,0-46.57-20.38c-26-1.79-48.54,5.26-63.45,19.85q-1.54,1.51-3,3.12a28.58,28.58,0,0,0-12,8.68C922,356,922,366.4,923,374.21a122.34,122.34,0,0,0-2.28,31.51c0,1.59,1.88,30.37-5.85,46.94-3,6.49-10.18,10.5-15.47,13-1.4.67-2.84,1.36-4.19,2.12-6,3.13-15.95,11.81-11.14,28.66,1.83,6.42,5.28,11,10.24,13.72a21.71,21.71,0,0,0,8.86,2.46,28.55,28.55,0,0,0,6.53-.33,18.84,18.84,0,0,0,1,1.93c4.58,7.48,14.49,12.48,29.44,14.89,2,.33,12.36,2.11,14.55,2.26,13.67.94,21.45-.18,40.41-6.13,11.71-3.68,21.61-10.62,26.12-12.65a46.07,46.07,0,0,0,9.52,9.22c9.91,7,20.8,7.92,31.51,2.59,13.24-6.59,17.73-16.79,19.16-24.18a37,37,0,0,0,.66-6.58c3.73,1.89,7.75,3.6,9.52,4.33,13.87,6,22.73.51,26.4-6.67C1122.16,483.23,1120.68,470.58,1111.94,465.42Zm-.61,22.51c-2.83,5.53-8.77,6.67-16.74,3.19l-.06,0a102.6,102.6,0,0,1-13.34-6.5c-6.51-6-10.27-18-11.47-22.37-1.35-4.87-2.44-1.08-2.44-1.08l3.44,13.43h0l3.33,13a29.18,29.18,0,0,1,0,11.3c-1.62,8.33-6.71,14.69-15.13,18.88-15.77,7.85-27.34-4-31.53-9.38,19.67-13.39,22.54-40.76,18.84-44.09s-3.34,2.09-3.34,2.09c3.4,18.23-22.07,37.75-31.75,44.43-13.43,7.54-39.47,18.38-69.78,11-15.38-3.76-21.75-7.49-24.12-11.23a9.42,9.42,0,0,1-1.47-7.14l.09-.22.05-.4c.05-.35,1.19-7.49,8-10.72,2-.52,5.62-1.51,9.33-2.84,6.73-2.41,14-6.25,15.51-14.79.85-4.92.79-7.28.32-8.22-.36-2.75-1.15-7.45-2.48-8-3,.54-1.62,8.39-1.62,12.18a11.51,11.51,0,0,1-1.32,4.76c-1.94,2.8-6.22,5.89-15.46,7.74a9,9,0,0,0-1.92.6,22.18,22.18,0,0,0-17.77,18,14.68,14.68,0,0,0-.43,3.53c-2.49.37-6.65.54-10.24-1.42-3.1-1.69-5.3-4.77-6.55-9.14-4.31-15.12,7-21.34,7.43-21.59l.12-.06c1.15-.65,2.44-1.27,3.81-1.92,5.66-2.71,12.71-6.08,16.87-15,8.6-18.45,8.72-48.9,8.72-50.19v-.18a124,124,0,0,1,.83-22.28l0-6.48s-4.09-21.55,14.15-29a36.22,36.22,0,0,1,6.12-1.91l-.23-.21c5.5-1.34,13.9-2.71,20-.62,0,0,3.11-1.2.79-3.52-1.61-1.62-13.43-1-20.49-.53a38.92,38.92,0,0,0,4.23-3.15c5.78-4.24,11.94-8.56,19.47-10.73a94.32,94.32,0,0,1,32.19-3.51c13.9,1,29,6.6,39.83,15.21-6.93,1.61-20.16,5.54-21.21,7.52-1.54,2.9,1.79,3.13,1.79,3.13,6.18-4.46,16.77-5.29,22-5.4l.6.58a24.34,24.34,0,0,1,14.23,8.7c6.77,8.5,5.51,22,5.51,22,2.69,6.89,2.56,16.57,2.56,16.57,0,.53,0,13.19,1.28,27.78,1.82,20.09,5.29,33.51,10.32,39.88,7,8.85,11.23,9.62,16.46,9.76a16.51,16.51,0,0,1,9.43,2.67C1112.62,474.54,1114.18,482.34,1111.32,487.93Z"/><path class="cls-6" d="M1046.58,466.78s6.09,17.8.47,32.79,11.88,18.15,11.88,18.15L1048,523.93l-18.23-6.23-7.22-10.82S1048.92,486.45,1046.58,466.78Z"/><circle class="cls-9" cx="939.31" cy="412.06" r="6.16"/><circle class="cls-9" cx="945.79" cy="424.74" r="4.64"/><path class="cls-6" d="M946.59,458.17s-.23,13.08-17.79,18-37.94,11.52-30.91,30.7l12.45,1.44,6.13-18.4,24.28-7.42S950.33,473.89,946.59,458.17Z"/><path class="cls-6" d="M1069.71,462.23s28.42,36.43,46.69,24.48l-6.32,9.84-13.35-.7-20.25-9.53Z"/><path class="cls-6" d="M1012.62,455.32s-3.51,18.26-16.32,21.7-19.36-10.93-20.61-18.43,4.68,9.37,15.93,8.12S1012.62,455.32,1012.62,455.32Z"/><path class="cls-6" d="M1042.88,466.33s-7.08,33.33-49.71,47.38-67.92-.94-67.92-.94-11.24-5.62-8.9-14.05l-5.48,8.15,9.69,13.4,51.53,8.43,38.41-13.58,23.89-18.27S1049,476.1,1042.88,466.33Z"/><circle class="cls-8" cx="966.62" cy="370.51" r="2.46"/><circle class="cls-8" cx="1024.94" cy="370.86" r="2.46"/><path class="cls-12" d="M1012.38,333.37s-16.4-7.49-31.85,0,15.93,25.3,24.36,19.21S1026.43,337.58,1012.38,333.37Z"/><path class="cls-7" d="M1008.29,451.68s-4.33,10.82-16.78,9.74a16.85,16.85,0,0,1-15.15-11.91s-4.33-1.08-3.25,2.16,5.41,16.78,15.69,17.86,21.11-4.33,23.81-15.15S1008.29,451.68,1008.29,451.68Z"/></g></g></svg>