<svg xmlns="http://www.w3.org/2000/svg" viewBox="0 0 1287.59 849.43"><defs><style>.cls-1{fill:#b8dddf;}.cls-2{fill:#9dd7d9;}.cls-3{fill:#f1f0f0;}.cls-14,.cls-4{fill:#fffef5;}.cls-5{fill:#ababab;}.cls-6{fill:#fcec53;}.cls-7{fill:#fded91;}.cls-24,.cls-8{fill:#fdd53d;}.cls-9{fill:#f9bf13;}.cls-10{fill:#dcdcdc;}.cls-11{fill:#c8c8c8;}.cls-12{fill:#f5f5f5;}.cls-13{fill:#b4b4b5;}.cls-14,.cls-22{opacity:0.7;}.cls-15{fill:#fdda53;}.cls-16{fill:#f4f3f4;}.cls-17,.cls-18{fill:none;stroke:#443029;stroke-miterlimit:10;}.cls-17{stroke-width:0.5px;}.cls-19{fill:#443029;}.cls-20{fill:#e3e0e0;opacity:0.64;}.cls-21,.cls-22,.cls-23{fill:#010101;}.cls-23,.cls-24{opacity:0.4;}.cls-25{fill:#fcd333;}</style></defs><title>Asset 17</title><g id="Layer_2" data-name="Layer 2"><g id="Layer_1-2" data-name="Layer 1"><rect class="cls-1" width="1287.59" height="849.43"/><path class="cls-2" d="M620.8,517.25s12-2,36.2,6.75,205.17,71.94,205.17,71.94,57.46,17.87,42.78-29.84L613.67,490.83Z"/><path class="cls-2" d="M743.69,348.76s80.72,35.89,98.95,43c68.36,26.85,39.7,36.85-10.28,52.69-51.52,16.32-267.46,96-267.46,96s-26.3,10.2-58.94-7.37c-33.41-18-72-34.05-93.17-46.26s-23.13-25.7,50.12-42.41S743.69,348.76,743.69,348.76Z"/><path class="cls-3" d="M874.67,383.67a136.78,136.78,0,0,1,.49,14.51c-.1,4.95,3.18,15.16-9.49,19.82-7.57,2.79-17.91,6.31-35.73,12.72-46,16.55-233.69,86.12-254.82,91.87s-32.31,16.2-69-3.12-93.82-49.85-93.82-49.85-11.41-2.7-6.42-27.21C410.24,421.09,874.67,383.67,874.67,383.67Z"/><path class="cls-4" d="M739.51,323.17s90.4,32.75,108.16,39.49c31.16,11.84,45.76,30.92-22.16,53.36-49.78,16.44-256.75,88.49-256.75,88.49s-28.17,14.55-59.82-2.49c-32.4-17.45-69.79-33-90.36-44.87S396.14,432.23,467.18,416,739.51,323.17,739.51,323.17Z"/><path class="cls-5" d="M921,600.5s10.67,16.83-158.67-47.5C645,508.41,658.33,511.67,631,508.33c-25.76-3.14-61-11-79.47-23.63-1.13-.77-10.2-6.56-11.2-7.37-17.33-14,13.33-17.67,13.33-17.67Z"/><polygon class="cls-6" points="825.5 321.93 825 385 554.43 478.34 472.17 441.57 472.17 371.78 825.5 321.93"/><polygon class="cls-7" points="825.5 321.93 551.31 401.69 471.54 371.78 748.23 297 825.5 321.93"/><polygon class="cls-8" points="551.31 401.69 551.31 478.34 472.17 441.57 471.54 371.78 551.31 401.69"/><path class="cls-9" d="M548,440.75l-.5-12.5s-1.5-18.5-8-20.5-68-25.5-68-25.5l1,15.25,68,44Z"/><path class="cls-10" d="M482.76,417.27s112.61,35.91,159.53,58C664.62,485.72,671,487.69,671,487.69L921.13,560.9s19.94,5,19.94,23.68-22.43,24.93-57.33,8.72c-39.55-18.36-240.2-89.41-240.2-89.41s-53.59,1.25-99.71-26.17S482.76,417.27,482.76,417.27Z"/><path class="cls-11" d="M543.5,466s37,22,70,23.5S646,482,646,482s6-2.5,2,7,8,14,8,14l246.5,85.5S927,597,935,586c0,0,5.5,0,0,4.5s-15.5,12-41.5,2.5S648,503,648,503s-6-2-24.5-4-51-6.5-86.5-30Z"/><path class="cls-7" d="M437.27,381.13l11-2.7,85.58,34.07s9.39,19.58,8.14,73.17l-6.89,4.52Z"/><path class="cls-12" d="M637.63,476.61s-.5,3.69-8.69.85c-4.5-1.56-30.29-11-52.63-19.29l-34.37-12.69s-18.1-7.94-9.26-6.17S637.63,476.61,637.63,476.61Z"/><path class="cls-12" d="M914.67,564.33s-.5,3.69-8.69.85-229.71-68.38-229.71-68.38-18.1-7.94-9.26-6.17S914.67,564.33,914.67,564.33Z"/><path class="cls-13" d="M655,492s-6.5,5,3.5,8.5S829,559,829,559l71.5,24.5s21,7.5,29.5.5-5.5-19.5-12-15.5-5.5,4-15.5,1.5S684.5,509,655,492Z"/><path class="cls-4" d="M582.67,560.33"/><path class="cls-14" d="M825.5,321.93,551.31,401.69l-79.77-29.91a127.38,127.38,0,0,1,31,7.72c17,6.5,38,17.5,58.5,13S824,321,824,321Z"/><path class="cls-14" d="M533.86,412.49l-14.86-1L483,400s21.08,11.09,36.25,14.75C526.62,416.53,529.89,414,533.86,412.49Z"/><path class="cls-6" d="M533.86,412.49,521,416.23s14.57,10.8,14.13,73.95l6.89-4.52S544.39,436,533.86,412.49Z"/><path class="cls-15" d="M535.11,490.18s1.66-50.68-14.13-73.95l-83.71-35.11s14.33,40.51,13.09,65.43Z"/><path class="cls-16" d="M558.67,583"/><path class="cls-17" d="M563.11,343.74s1.85-5.22,3-6.75,4.38-6.28,5.8-7.54,6.28-4.06,8-.16-2.22,9.34-2.22,9.34Z"/><path class="cls-18" d="M608.25,372.67"/><path class="cls-19" d="M571.76,350.94s11.92-1.58,11.87-6.38-2.8-5.59-6.43-6.49-13.66,5-13.66,5Z"/><path class="cls-20" d="M562.9,343.74s1.85-5.22,3-6.75,4.38-6.28,5.8-7.54,6.28-4.06,8-.16-2.22,9.34-2.22,9.34Z"/><path class="cls-21" d="M561.26,356.74a2.21,2.21,0,0,0-.63,1.53c0,.95.16.42-.05,1.11a1.84,1.84,0,0,0-.05,1.11l-.11,2.06s.84-.16.74.84-.95.84-1.21,1.32-.74.47-1.42.21a.86.86,0,0,1-.16-1.58c.74-.37.74-2.11.74-2.85a8.64,8.64,0,0,0-.53-3.8C557.94,355.53,561.26,356.74,561.26,356.74Z"/><path class="cls-21" d="M560.36,347.7s-3.48.11-3.8,2.37a3.39,3.39,0,0,0,.69,2.16,12.56,12.56,0,0,0-1.64,2.69c-.42,1.16,3.9,3.11,5.59,2.16s2.74-.47,3.53-3.27S560.36,347.7,560.36,347.7Z"/><path class="cls-21" d="M559.63,348s1.48-5.06,5.27-5.43,2.22-.63,3.85.42,4.13,2.89,3.59,4.43,1.05,7.12-3.16,6.91a42.67,42.67,0,0,1-4.54-.32Z"/><ellipse class="cls-19" cx="562.74" cy="353.1" rx="2" ry="3.14"/><path class="cls-19" d="M556.84,348.76c-.5.91-.45,2.22.2,2.57s1.65-.37,2.15-1.28a1.68,1.68,0,0,0-.27-2.29C558.27,347.41,557.34,347.86,556.84,348.76Z"/><path class="cls-21" d="M572,352s3.22-.95,3.74-1.05,1.37.74.16,2.06-3.53,6.12-3.53,6.12-1.11,0-1-.37,3.43-6.28,3.43-6.28a18.23,18.23,0,0,1-3.16,1.05C571,353.5,572,352,572,352Z"/><path class="cls-19" d="M562,344.5a6.78,6.78,0,0,1-4.27-4l-.08-.63a1.3,1.3,0,0,1-1.11.4l.87.79s1.5,3.16,4.27,3.88Z"/><path class="cls-21" d="M556.71,349.93l-2.89,4.23s-.16.55.36.67,2.89-4.19,2.89-4.19Z"/><polygon class="cls-21" points="554.14 354.16 550.98 355.03 546.43 355.43 546.67 355.74 546.55 356.1 547.18 355.86 550.82 355.39 550.94 355.58 554.22 354.52 554.14 354.16"/><path class="cls-19" d="M566.88,353.84s1.78,2.06-.08,2.93-1.58-.47-1.23-.63.71-1.15-.2-2.41S566.88,353.84,566.88,353.84Z"/><path class="cls-21" d="M565.81,356.89l-1.31,4.35-.16.79a.45.45,0,0,1-.47.28.55.55,0,0,1-.47-.75c.12-.32,2-4.9,2-4.9Z"/><path class="cls-21" d="M576.3,351.27s1.9-.36,2.25-.36,1.86-.2,2-.12a15.05,15.05,0,0,1,3.28,5.58s-.12.59-.59.59-3-5.22-3-5.22-3.32.75-4,.75-4.55-.47-4.55-.47l.59-.83Z"/><path class="cls-21" d="M572.26,358.91a31.73,31.73,0,0,0-.28,4.15c.08,1.38,0,2.49.75,3.56l-.63.32s-.79-.87-.71-3.2a41.82,41.82,0,0,1,.51-4.87Z"/><polygon class="cls-21" points="564.11 362.19 561.18 368.68 560.39 368.72 563.72 362.11 564.11 362.19"/><path class="cls-19" d="M559.2,357.59a19.2,19.2,0,0,0-3.16-.05c-.69.16.11,1.11,3,.37S559.2,357.59,559.2,357.59Z"/><path class="cls-19" d="M559,358.48a2.91,2.91,0,0,1-1.42.63c-.74.05-1.27-.05-1,.47s2.48-.84,2.48-.84Z"/><path class="cls-21" d="M595.86,340c-1.16-.05-5.7-.69-7.23-.69a2.13,2.13,0,0,0-2,1s-2.11-.37-3.32-.63a14.19,14.19,0,0,0-7.12.42c-2.37,1-1.37,4.17-1.37,4.17-.9.32-2.85,4.27-2.85,4.27.05,3.11,1.42,2.58,2.64,2.06a12.58,12.58,0,0,1,3.22-.69l10-2.27s7.17-1.21,10-3.22S597,340.1,595.86,340Zm0,4.88s-5.2,1.83-6.65,2.11-2.48-.26-4.11-.21-4.8.53-4.8.53a15.4,15.4,0,0,0-5.06.9c-1.69.84-2.58.53-2.06-.32s2-2.8,2-3.69c0,0-.84-2.48.16-3.11s2.37-2.48,11.13-.58a5.25,5.25,0,0,1-2.27,2.11c-1.74.95-5.49,3.27-5.49,3.27s-.21.63.42.11,6.59-3.27,7.65-5.49a2.32,2.32,0,0,1,2.43-1c1.79.21,6.65.74,6.65.74a3.61,3.61,0,0,1,2.64,2.27C599,344.4,595.86,344.93,595.86,344.93Z"/><path class="cls-21" d="M583.69,356.49a13.54,13.54,0,0,1,3.12,1.9l1.42.83,1.38.87,1.7,1.11-.55.59-.28-.63-5.3-3.24-2-1.15Z"/><path class="cls-20" d="M595.86,344.93s-5.2,1.83-6.65,2.11-2.48-.26-4.11-.21-4.8.53-4.8.53a15.4,15.4,0,0,0-5.06.9c-1.69.84-2.58.53-2.06-.32s2-2.8,2-3.69c0,0-.84-2.48.16-3.11s2.37-2.48,11.13-.58a5.25,5.25,0,0,1-2.27,2.11c-1.74.95-5.49,3.27-5.49,3.27s-.21.63.42.11,6.59-3.27,7.65-5.49a2.32,2.32,0,0,1,2.43-1c1.79.21,6.65.74,6.65.74a3.61,3.61,0,0,1,2.64,2.27C599,344.4,595.86,344.93,595.86,344.93Z"/><path class="cls-21" d="M577.42,347.83l2.41-.84a33.31,33.31,0,0,1,4.8-1.46s.19,0,.56-.56l.3-.14a2.61,2.61,0,0,0-.35.56c0,.11,0,.18,1,.07s6.94-.91,6.94-.91a24,24,0,0,0,2.64-.63,6.66,6.66,0,0,1,3-.37l-.05.12a1.53,1.53,0,0,0-1-.07c-.72.12-1.83.4-1.83.4s-1,.33-1.76.47-2.69.4-2.69.4l-5.73.76a12.42,12.42,0,0,0-3.29.7c-1.64.62-4.54,1.51-4.54,1.51Z"/><path class="cls-22" d="M566.84,355.95l-.06-2.55a33.31,33.31,0,0,1,.1-5s.09-.17-.36-.71l0-.33s.33.48.43.51.18,0,.37-.9,1.28-6.89,1.28-6.89a24,24,0,0,0,.21-2.7,6.66,6.66,0,0,1,.57-2.94l.1.09a1.53,1.53,0,0,0-.38.95c-.11.72-.18,1.86-.18,1.86s0,1.09-.09,1.82-.45,2.68-.45,2.68l-1.05,5.68a12.42,12.42,0,0,0-.35,3.34c.08,1.75,0,4.78,0,4.78Z"/><path class="cls-23" d="M565.21,342.46s1.07-3,1.5-4.07a14.68,14.68,0,0,1,2.14-3.56c.75-.83,2.53-3.52,2.53-3.52l1.78-2.22-2,3a14.47,14.47,0,0,1-2,3c-.71.55-1.9,2.45-3.76,7.4Z"/><path class="cls-24" d="M825.5,321.93s.43,62.27-.5,63.07c-2.62,2.25-218.67,75.33-218.67,75.33l-12-4.5L801,387s21-1.5,20.5-16.5.5-47,.5-47Z"/><polygon class="cls-8" points="542 485.67 535.75 489.5 535.83 484.58 542 482.25 542 485.67"/><path class="cls-25" d="M535.75,489.5s-.08-30.17-4.75-40.83-87.5-46.17-87.5-46.17,6.88,16,6.86,44.06Z"/><path class="cls-8" d="M834.88,355.5"/><path class="cls-6" d="M825.67,384.79"/><path class="cls-4" d="M825.46,375.29s1.21,10-9.75,13.25l8-.12,2.42-3.5Z"/></g></g></svg>