<svg xmlns="http://www.w3.org/2000/svg" viewBox="0 0 1284.1 858.19"><defs><style>.cls-1{fill:#242264;}.cls-2{fill:#6b71b5;}.cls-3{fill:#1e194e;}.cls-4{fill:#1a1348;}.cls-5{fill:#404291;}.cls-6{fill:#f15624;}.cls-7{fill:#faad72;}.cls-8{fill:#fdcca7;}</style></defs><title>Asset 5</title><g id="Layer_2" data-name="Layer 2"><g id="Layer_1-2" data-name="Layer 1"><rect class="cls-1" width="1284.1" height="858.19"/><path class="cls-2" d="M679.92,451.63l-11.15,33s3,7.9,15.57,6.74,20.22-15.11,17.9-27.66S685.5,447,679.69,447.44"/><path class="cls-3" d="M706.37,637.88,518.5,616.41s-14-3.76-33.65.88c-8.59,2-27.27,1.93-33.93,6.83-13.17.09-22.83,6.71-22.83,8.35,0,1.19-3.92,8.59,4.31,9.41,9.85,1,28,.67,44.2.67h13.33c59.6,8.19,164.84,9.09,187,10.38C708.72,654.79,706.37,637.88,706.37,637.88Z"/><path class="cls-1" d="M689.86,497.94l13.24.93s5.58.7,5.35,6.28,5.47,5.46,3.55,8.89-4.71,6.68-13.31,5.76-132-10.7-132-10.7-7.44-3.49-4.65-7.9,6.74-8.36,12.09-4.65,39-3.48,39-3.48Z"/><path class="cls-1" d="M650.81,504.68l48.12,3s10.92-6.27-.24-8.83-13.48-1.39-13.48-1.39l-15.33-.7s-.71,4.88-18.6,7"/><path class="cls-4" d="M686.11,492.42s3.72,2.32,3.26,8.42c0,0-.92,4.07-8.83,4.07s-10.84.1-9.9-8.62l2.7-2.71.22-2.33Z"/><path class="cls-5" d="M670.57,497.71V441.46l-66-5.58-1.16,48.81L599,493.07s11.62,2.79,11.16,7.9S672.2,507.7,670.57,497.71Z"/><path class="cls-4" d="M680.1,448.43l-7.43-7.67s-1.63-5.35-8.6-6.27-57.18-6-59.51,1.39c0,0,1.39,2.33,6.74,3s46.26,4.18,55.32,1.86a4.55,4.55,0,0,1,4,2.56c1.17,2.55,9.77,9.3,9.77,9.3l-11.16,33s3,7.91,15.57,6.75,20.23-15.11,17.9-27.66S685.91,448,680.1,448.43Z"/><path class="cls-5" d="M678.94,452.62l-11.16,33s3,7.91,15.58,6.75,20.22-15.11,17.9-27.66S684.52,448,678.7,448.43"/><path class="cls-1" d="M650.81,504.68s1.47-4.63-5.66-7.72c-4.95-2.14-18.3,4.28-36.71-2.1a15,15,0,0,1-5.75,3.32S559.12,500.59,595,505,650.81,504.68,650.81,504.68Z"/><path class="cls-2" d="M424.18,475.4s-2.1-11.39,17.66-12.56l122.27,33.71-4.65,15.8Z"/><path class="cls-4" d="M672.19,484.46s8.6,8.37,20.92-1.86,0-33.71-13.25-30.92.47.93.47.93Z"/><path class="cls-4" d="M535.23,478.13A45.27,45.27,0,0,1,553,474.82c10.11.17,11.16,1.74,16.57-1.39,0,0,6.62-4.71,8.89-6.11s6.45-.17,9.42,5.06c0,0,4.88,1.92,6.45,5s2.79,9.77,10.29,6.63l-.87,4.36-8.55,8.36-22.14-9.24Z"/><path class="cls-4" d="M564.81,496.78,442.77,464s-11.63.23-15.35,7c0,0-.46.93,1.86,1.63S553.42,507,553.42,507s2.79.93,4.18-1.17,4.65-5.81,4.65-5.81Z"/><path class="cls-5" d="M568.87,509.51,696,519.45s12.55,1.39,14.46-3L712,514s.7,1.4.7,5.23S708,632.42,708,632.42s1.4,16.38-17.08,16.38-121-12-121-12-9.6-.53-9.6-12.72,3.15-111.23,3.15-111.23S564,509,568.87,509.51Z"/><path class="cls-1" d="M690.91,649.27s-114-29.06-124.48-137.84L562.95,625.1S549,637.18,690.91,649.27Z"/><path class="cls-4" d="M708,632.88s1.4,16.39-17.08,16.39-121-12-121-12-9.6-.52-9.6-12.72,3.15-111.23,3.15-111.23-.88-5.23,4-4.71l-3.37,111.64s-.47,9.3,9.76,10.69S691,644.38,691,644.38,703.11,646,708,632.88Z"/><path class="cls-5" d="M562.71,516.4l-9.9,48.67s-2.76,14.13-12.67,16.68S449.86,566.91,422,551.15c0,0-13.13-5.56-9.91-19s12.67-60.71,12.67-60.71a3.25,3.25,0,0,0,2.54,3.24c2.76.93,128.52,35.22,128.52,35.22S563.17,512.23,562.71,516.4Z"/><path class="cls-1" d="M445.59,545.62c-9.06-13.15-4.65-44.12,13.23-61.85,0,0-30.17-8.29-31-8.58a3.25,3.25,0,0,1-2.53-3.24s-9.44,47.27-12.67,60.71,9.9,19,9.9,19c13.24,7.48,38.31,15.33,62.05,21.24C484.53,572.89,459.43,565.72,445.59,545.62Z"/><path class="cls-1" d="M574.8,504l.35-10.52s-3.14-10.29.7-14.65,14.12-5.92,16.74,10.12c0,0,1.74,5.75,11.16-.52,0,0-2.47,3.4.24,4.64l4.46,1.81s.12,3.88-3.48,8.19S581.07,504.68,574.8,504Z"/><path class="cls-4" d="M556.81,510.51l-12.55,55.78s-2.91,12.55-18.59,11.16c-13.5-1.2-115.3-20.92-111.11-45.1s12.59-57.87,12.59-57.87a2.92,2.92,0,0,1-2.49-3.07l-12.89,61.41s-4.65,13.48,13.48,21.38S511.37,583.9,541,582.57c0,0,9.76-.24,12.78-16.74,2.29-12.51,12.64-54.41,12.64-54.41S564.25,512.36,556.81,510.51Z"/><path class="cls-2" d="M584.74,475.17s-.7-7.32-8.89-5.4-7,10.81-30,7.67-5.23,14-5.23,14,12.73,13.42,19.18,2.26,13.42-5.57,13.42-5.57S570.44,474.47,584.74,475.17Z"/><path class="cls-5" d="M669.17,486.55a18.88,18.88,0,0,1,8.14-1.4c4.65.23,17.66-2.32,14.41-17.67s-21.15-24.17-21.15-24.17Z"/><circle class="cls-4" cx="680.07" cy="473.68" r="6.39"/><circle class="cls-2" cx="681.72" cy="473.19" r="6.39"/><circle class="cls-5" cx="680.68" cy="473.19" r="6.39"/><circle class="cls-2" cx="582.87" cy="485.22" r="5.52"/><circle class="cls-2" cx="630.24" cy="451.45" r="4.48"/><ellipse class="cls-2" cx="582.06" cy="485.1" rx="5.17" ry="5.17"/><circle class="cls-4" cx="631.28" cy="451.7" r="4.47"/><circle class="cls-2" cx="629.1" cy="486.08" r="4.47"/><circle class="cls-4" cx="630.04" cy="486.16" r="4.48"/><path class="cls-2" d="M648.3,470a4.47,4.47,0,1,1-4.47-4.47A4.47,4.47,0,0,1,648.3,470Z"/><circle class="cls-4" cx="645.03" cy="470.38" r="4.47"/><circle class="cls-2" cx="614.16" cy="468.16" r="4.47"/><circle class="cls-4" cx="614.95" cy="468.49" r="4.47"/><path class="cls-2" d="M609.39,448.74c-.14,2.47-1.23,4.41-2.45,4.35s-2.09-2.12-2-4.59,1.23-4.41,2.46-4.34S609.53,446.27,609.39,448.74Z"/><path class="cls-4" d="M610.13,449c-.13,2.47-1.23,4.41-2.45,4.35s-2.1-2.12-2-4.59,1.23-4.41,2.46-4.34S610.27,446.52,610.13,449Z"/><path class="cls-4" d="M603.44,480.63c.39-.7.54-.92,1.07-.89,1.08.06,1.85,1.87,1.73,4s-1.09,3.89-2.16,3.84a1.18,1.18,0,0,1-.74-.35"/><path class="cls-2" d="M574.1,496.55s-2.56-3.25-6.28-1.63-10.23,10.93-10.23,10.93-1.16,6.51,5.11,6.51,5.81-9.53-.23-8.83c0,0,3.14-5.81,7.44-8A9.58,9.58,0,0,1,574.1,496.55Z"/><path class="cls-2" d="M680.33,638.81s11.62,1.86,13-6S698,522.12,698,522.12L570.61,509.57l132.49,9.77s5.33-.37,7.32-2.85c0,0-.09,4.71-6.72,5.68L700.32,632.3S700.08,643.1,680.33,638.81Z"/><path class="cls-2" d="M551.75,507.38l-13,49.74s-5.11,15.34-22.31,12.09c0,0,22.31,6,26.5-11.63L555,508.77Z"/><path class="cls-1" d="M442.77,464l-2.91,11.51-11.5-3.22s-1.92-.26-.17-2.62S435.3,464.18,442.77,464Z"/><path class="cls-2" d="M691,476.56s.93-20-20.92-30.22l.47-3S695.67,454.71,691,476.56Z"/><path class="cls-2" d="M648.94,511l39.47,1.48s9.59-.25,10,2.54,1,3.31,6.51,3.26a25,25,0,0,1-3.87-4.56c-1.86-2.79-5.58-2.79-11.63-2.79l-40.5-.8Z"/><path class="cls-5" d="M671.26,508.06s23.48-.46,27.66-2.56,5.93-5.58,1-6.28l-9.76-1.86s15.1.47,17.54,3.6-4.18,6.86-6.74,7.32C696.32,509.15,671.26,508.06,671.26,508.06Z"/><path class="cls-1" d="M670.57,443.32l0,55.49s.19,3.14-9.95,4.75c0,0,6.6-1.9,6.83-11.2s.59-51.26.59-51.26A4.78,4.78,0,0,1,670.57,443.32Z"/><path class="cls-2" d="M662.33,503.31s-1.52-1-2-6.53.92-55.56.92-55.56a34.25,34.25,0,0,1-8.14.24s2.56,62.07-2.32,63.22C650.81,504.68,658.5,504.92,662.33,503.31Z"/><path class="cls-2" d="M583.69,475s-1.57-6.1-10.12-4.53c0,0,9.07-4,11.16,4.71Z"/><circle class="cls-4" cx="658.95" cy="490.04" r="4.94"/><path class="cls-4" d="M589.53,505.78a22,22,0,0,0-7.54-1.85c-3.49-1.5-5.87-4-6.72-6.92a5.77,5.77,0,0,0-5.82,2.09,19.69,19.69,0,0,0-3,5.11s2.33,3.49,1.16,5.35C567.59,509.57,578.6,504.85,589.53,505.78Z"/><path class="cls-4" d="M650.81,504.68s-6,3.3-16.66,3.18-46.7-.25-52.56-3.91C581.59,504,638.25,507.37,650.81,504.68Z"/><path class="cls-6" d="M640.53,440.36s-3.81-4.41,9.13-12,12.29-14.48,12.29-14.48-12.29,6.93-9.06-3.16,12.51-2.52,20.71-8.4,9.06-13,9.06-13-9.49,8.4-13.37,1.68S679.2,371.7,690.19,377a39,39,0,0,0,21.14,3.57s-17.68-5.66-17.68-12.8,23.93,1.05,27-7.35c0,0-13.37,2.83-14-3.57s21-9,24-6.72c0,0-6.58-7.45-.43-10.92s24.58-2.93,27.92-12.7c0,0-13.15,7.35-15.74-1.26s19.84-9.24,23.4-10.82c0,0-6.25-8.09-.43-12.07s19.3-5.15,21.35-17.12c0,0-14.34,8.19-16-2.52s17.78-14.8,18.75-20.37,7.23-6.71,7.23-6.71-7.33-5-12.72-.11-11.54,6.61-13.37,4.51-5.28-21.63,2.37-26.56,4.21-12.17,4.21-12.17-5.29,9.34-10.89,8.71-12.84-5.77-12-11.44a7.92,7.92,0,0,1,6.14-6.61s-8.3-5-20.38,1.78-5.93-10-8.62-15.43-14.67-7.66-14.67-7.66,11.32,10.81,3.67,14.17-5.39-7-25.12-8c0,0,8.31,2.41,7.11,6.72s-19.4,13.43-21.12-12.18c0,0-8.85,8.5-7,18.58s-9.37,6.72-16.17,2.52-11.54-.42-11.54-.42,13.48,9.86,8.1,14.69-10.89-2.73-15.42.84c0,0,4.63,3.25,2.69,5.46s-9.38,14.49-15.42,3.25.65-9.66.65-9.66-3.34-4.73-8.3-.74-4.09-12.07-13.69-16.69c0,0,3.23,6.09-3.88,5.46s-2.26-9-4.2-12.91-9.17-6-9.17-6,4.74,4.72.54,8.29c0,0-6.79,7-17.79-4.94S541,195.34,541,195.34s12.94-1.26,11.64,7.56-16.82,15.12-21.35,4.41c0,0-8.41,14.49-.65,20.78s-1.94,16.38-7.12,12c0,0-3.23,8.82,1.29,13.86,0,0-5.17,8.19-14.23,0,0,0,2.59,12.6,14.23,19.53s-3.23,15.12-9.7,6.93a30.25,30.25,0,0,0,16.82,15.74s1.29,5-4.53,5.67,5.82,11.34,12.94,8.19c0,0,1.94,3.78-5.82,9.45s-1.94,12-1.94,12,9.06-10.7,18.11-3.78,4.53,14.49-6.47,14.49-8.41,10.71-8.41,10.71,7.12-6.93,17.47,0,34.29,7.56,19.41,17c0,0,3.24,4.42,11.64,4.42s12.94,13.85-.64,13.85c0,0,3.88,9.44,18.76,5.67s1.29,18.26-7.12,15.75c0,0,13.59,9.45,18.11,9.45s12.79,11.05,5.13,20.26C618.56,439.2,635.75,440.37,640.53,440.36Z"/><path class="cls-7" d="M623.44,393.4s11.31-2.11,19.34-6.8,7.62-9,7.62-9-7.62,4.29-5.62-2,7.76-1.56,12.84-5.21,5.62-8.07,5.62-8.07-5.89,5.21-8.29,1,6.15-12,13-8.73A24.18,24.18,0,0,0,681,356.9s-11-3.51-11-7.94,14.85.65,16.72-4.55c0,0-8.29,1.75-8.7-2.22s13-5.6,14.92-4.17c0,0-4.08-4.62-.26-6.78s15.25-1.82,17.32-7.88c0,0-8.16,4.55-9.77-.78s12.31-5.74,14.52-6.71c0,0-3.88-5-.27-7.49s12-3.2,13.24-10.62c0,0-8.9,5.08-9.9-1.56s11-9.18,11.63-12.63,4.49-4.17,4.49-4.17-4.55-3.12-7.9-.07-7.15,4.1-8.29,2.8-3.28-13.41,1.46-16.48a5.93,5.93,0,0,0,2.61-7.55s-3.28,5.8-6.75,5.41-8-3.59-7.43-7.1a4.91,4.91,0,0,1,3.81-4.1s-5.15-3.12-12.64,1.11-3.69-6.19-5.35-9.58-9.11-4.75-9.11-4.75,7,6.71,2.29,8.79-3.35-4.36-15.59-4.95c0,0,5.15,1.5,4.42,4.17s-12,8.34-13.12-7.55c0,0-5.48,5.27-4.35,11.53s-5.81,4.17-10,1.56-7.16-.26-7.16-.26,8.36,6.12,5,9.11-6.76-1.69-9.56.52c0,0,2.87,2,1.67,3.39s-5.82,9-9.57,2,.4-6,.4-6a3.39,3.39,0,0,0-5.15-.46c-3.07,2.48-2.54-7.49-8.5-10.35,0,0,2,3.78-2.4,3.39s-1.4-5.6-2.61-8-5.69-3.71-5.69-3.71,2.94,2.93.34,5.15c0,0-4.22,4.36-11-3.06S575.36,242,575.36,242s8-.78,7.22,4.69-10.44,9.38-13.24,2.74c0,0-5.22,9-.39,12.89s-1.21,10.16-4.42,7.42c0,0-2,5.47.8,8.6,0,0-3.21,5.08-8.83,0a20.06,20.06,0,0,0,8.83,12.11c7.22,4.3-2,9.38-6,4.3a18.79,18.79,0,0,0,10.44,9.77s.8,3.12-2.81,3.51,3.61,7,8,5.08c0,0,1.2,2.35-3.61,5.87s-1.2,7.42-1.2,7.42,5.61-6.64,11.24-2.34,2.81,9-4,9-5.22,6.64-5.22,6.64,4.42-4.29,10.83,0,21.27,4.69,12,10.55c0,0,2,2.74,7.23,2.74s8,8.59-.39,8.59c0,0,2.4,5.85,11.63,3.52s.8,11.33-4.41,9.77c0,0,8.42,5.86,11.24,5.86s7.89,7,3.14,12.66"/><path class="cls-8" d="M636.53,361.76s.28-2.87,4.56-5.37,2.54-3.39,2.54-3.39-4.07,2.29-3-1,4.14-.84,6.85-2.78a6.87,6.87,0,0,0,3-4.31s-3.14,2.78-4.42.55,3.28-6.4,6.93-4.66a12.86,12.86,0,0,0,7,1.18s-5.86-1.88-5.86-4.24,7.92.35,8.93-2.43c0,0-4.43.94-4.65-1.18s7-3,8-2.22c0,0-2.18-2.47-.14-3.61s8.14-1,9.24-4.21c0,0-4.35,2.43-5.22-.42s6.57-3.06,7.75-3.58c0,0-2.07-2.68-.14-4s6.39-1.71,7.06-5.67c0,0-4.75,2.71-5.28-.83s5.89-4.9,6.21-6.75a3.05,3.05,0,0,1,2.4-2.22s-2.43-1.67-4.21,0-3.82,2.19-4.43,1.5-1.75-7.16.79-8.8a3.16,3.16,0,0,0,1.4-4s-1.75,3.09-3.61,2.88-4.25-1.91-4-3.79a2.6,2.6,0,0,1,2-2.19s-2.75-1.67-6.75.59-2-3.3-2.85-5.11-4.85-2.54-4.85-2.54,3.75,3.58,1.21,4.69-1.78-2.32-8.32-2.64c0,0,2.75.8,2.36,2.23s-6.42,4.45-7-4c0,0-2.93,2.82-2.32,6.16s-3.11,2.22-5.36.83a3.32,3.32,0,0,0-3.82-.13s4.47,3.26,2.69,4.86-3.61-.9-5.11.28c0,0,1.54,1.07.89,1.81s-3.1,4.8-5.1,1.07.21-3.2.21-3.2a1.8,1.8,0,0,0-2.74-.24c-1.65,1.32-1.36-4-4.54-5.52,0,0,1.07,2-1.28,1.81s-.75-3-1.39-4.27-3-2-3-2,1.56,1.57.18,2.75c0,0-2.25,2.33-5.89-1.64s-9.85-1.25-9.85-1.25,4.28-.42,3.86,2.51-5.57,5-7.07,1.46c0,0-2.78,4.79-.21,6.88s-.64,5.42-2.36,4c0,0-1.07,2.92.43,4.59,0,0-1.71,2.71-4.71,0a10.73,10.73,0,0,0,4.71,6.47c3.86,2.29-1.07,5-3.22,2.29a10,10,0,0,0,5.57,5.22,1.49,1.49,0,0,1-1.49,1.88c-1.93.21,1.92,3.76,4.28,2.71,0,0,.64,1.25-1.93,3.13a2.54,2.54,0,0,0-.64,4s3-3.54,6-1.25,1.5,4.79-2.15,4.79-2.78,3.55-2.78,3.55,2.36-2.3,5.78,0,11.35,2.5,6.43,5.63a4.74,4.74,0,0,0,3.85,1.47c2.78,0,4.29,4.58-.21,4.58,0,0,1.28,3.12,6.21,1.88s.43,6-2.36,5.21c0,0,4.53,2.85,6,3.13,4.47.82,8.26,3.64,8.71,6.73"/><path class="cls-4" d="M637.08,497c10.87-.16,11.59,8.11,11.59,8.11l2.42-.43S652.36,494.12,637.08,497Z"/><path class="cls-1" d="M689.7,641.5s12.24-.25,12.48-8.16S705.32,523,705.32,523l4.61-2s-.33,3-.33,7.42-3.3,103.36-3.3,103.36S704.49,643.52,689.7,641.5Z"/><path class="cls-4" d="M670.57,497.71c-.71,3.8-5.83,4.48-9.42,5.59s-10.26.87-10.26.87l-6.43,2.72c4,2.84,20-1.24,23.36-2.59a11,11,0,0,1,6.79-.25"/><path class="cls-2" d="M665.05,452.42a4.47,4.47,0,1,1-4.47-4.47A4.47,4.47,0,0,1,665.05,452.42Z"/><circle class="cls-4" cx="662.2" cy="452.38" r="4.94"/></g></g></svg>