<svg xmlns="http://www.w3.org/2000/svg" viewBox="0 0 1285.91 863.39"><defs><style>.cls-1{fill:#afd0ee;}.cls-2{fill:none;stroke:#33669a;stroke-miterlimit:10;stroke-width:1.8px;}.cls-3{fill:#d2edf3;}.cls-4{fill:#69c;}.cls-5{fill:#33669a;}.cls-6{fill:#ef4423;}.cls-7{fill:#cb2026;}.cls-8{fill:#f16667;opacity:0.51;}.cls-9{fill:#991b1e;}</style></defs><title>Asset 8</title><g id="Layer_2" data-name="Layer 2"><g id="Layer_1-2" data-name="Layer 1"><rect class="cls-1" width="1285.91" height="863.39"/><path class="cls-2" d="M643.57,309a44.59,44.59,0,0,0,22.32,17.34C681,331.48,681.16,354,681.16,354"/><path class="cls-3" d="M726.75,593.5s1.25-7.5.25-12.75c-1.87-9.79-20.75-53.5-20.75-53.5s1.25-2.25-17.25,2l-83.75,14L558,550s-9.5.5-9.5,4.75,2,69.25,2,69.25-.5,3,3.25,10.5S569,667.75,569,667.75s1.5,6,10.5,4.25,145.14-25.72,145.14-25.72l1.19-29.65-1.7-3.13,2-4.12Z"/><path class="cls-1" d="M572.33,613.33s-2.33,3-7.67-11.67S549.33,558,549.33,558L551,626l18,41.75Z"/><path class="cls-4" d="M728,586,572.33,613.33l-3,53.33s.17,7.83,10.17,5.33,144-24.75,144-24.75,2.5,1,2.25-6c-.1-2.89.26-12.84.73-23.51.06-1.41-2.42-2.83-2.35-4.24.08-1.76,2.7-3.52,2.78-5.25C727.46,596.4,728,586,728,586Z"/><polygon class="cls-5" points="575.55 671.55 726 661 721 648.5 575.55 671.55"/><path class="cls-6" d="M681.38,220.92c9.56,40.57-17.48,73.15-42.82,79.12s-65.33-12.81-74.89-53.37,12.15-75.51,42.81-82.74S671.82,180.35,681.38,220.92Z"/><path class="cls-7" d="M659,179s14.82,27.77,15.13,53.95c.24,19.79-8.14,38.64-24.57,49.71-38.17,25.73-66-1.3-66-1.3S614.8,310.69,644,297.65c3.67-1.64,12.22-6,15.65-9.17,17.25-15.82,26.19-36.28,24.64-58.2C683.07,213.18,675.82,194.92,659,179Z"/><path class="cls-5" d="M654.33,551.33s-9.67,0-10.33,3.67,4.33,19,4.33,19,2,10,8.33,8.67,22.67-3.67,28-4,17-1.33,18.67-3,4-3.67,0-14-5.67-13.33-5.67-13.33-1-5-8.67-3.67S654.33,551.33,654.33,551.33Z"/><path class="cls-5" d="M630,561.8l3.5,15s3,8.44-6.75,10.55-39.25,7.12-39.25,7.12-4.5,1.05-9-8.7-4.75-13.19-4.75-13.19-3.25-8.7,5-10.29,42-5.8,42-5.8S629.25,553.88,630,561.8Z"/><path class="cls-4" d="M691,546v30.34s13,.62,13-5.58c0-4.52-4.49-17.55-8.5-23A4,4,0,0,0,691,546Z"/><path class="cls-4" d="M623,558l-.33,29s9.67-.9,9.67-7c0-4.45-3.33-13.75-4.83-20.28C626.94,557.3,624.49,557.74,623,558Z"/><polygon class="cls-5" points="701 555 716.25 552.5 715.5 550.25 698.5 553.25 701 555"/><path class="cls-8" d="M617.44,219.39c.16,5.86-2.25,10.59-4.45,15.17-3.68,7.65-8.94,13.54-16.42,13.75-12,.33-22-12.08-22.44-27.72S583,193,595,192.67,617,203.75,617.44,219.39Z"/><path class="cls-9" d="M560.33,549.67"/><path class="cls-5" d="M725.63,646.31a9.94,9.94,0,0,0,.42-.92l.13-5c-1.67-2.05-1.75,3.43-1.55,5.73l-.31,0s-59,9.46-81,13.07-57.41,9.89-67.8,12.34c0,0-6.1,3.22,15.29-.62s130-22,130-22S728.39,647,725.63,646.31Z"/><path class="cls-5" d="M629.38,540.13c1.75-.5,66-11.75,66-11.75s9.25-3,10.75.63l1.25,2,14.75,37.75s.88,3,1.75,3.63.88-.87-1.5-7.37S710,533,710,533l-2.75-5.5s-.12-2.75-7.5-1.25S627.5,539,627.5,539A1.32,1.32,0,0,0,629.38,540.13Z"/><path class="cls-5" d="M726.67,585.33l-57,10.17s0,1.83,8.17.5,48.5-9.17,48.5-9.17S728.17,586,726.67,585.33Z"/><path class="cls-5" d="M666.5,596.5,656,597.67s-1.17,1.33,3,1.33l5.17-.67S668.83,597.33,666.5,596.5Z"/><path class="cls-5" d="M650.17,599s-19.83,4.17-23,4.5-5.33.67-4,1.83,9.5-1.17,9.5-1.17l15.5-3S651.83,601.17,650.17,599Z"/><path class="cls-5" d="M619.83,604.83S601,607.83,594,609s-18.33,3.33-21.67,4.33c0,0-2,1.67,4.83.33s41.5-7.33,41.5-7.33S621.67,605.33,619.83,604.83Z"/><path class="cls-5" d="M570.67,656.5l-.17-6.67s-.5-1.83-.67.83-1,11.33-.5,16l-17-37a22.92,22.92,0,0,1-1.17-8.17c.17-4.67-2-62-2-62l17.17,49s2.17,4.33,1.92.5l-7-18.5S550,561.5,549.5,555c0,0-.25-2.5,1.75-2.75a1,1,0,0,0,.76-.37c5.13-.62,28.51-3.46,32.74-4.13,4.75-.75,8.5-1.75,8.5-1.75l31.25-5.5s2.5-2-4-1-33.5,6.25-33.5,6.25l-33.75,4.5s-2.45.12-3,.71a4.51,4.51,0,0,0-1.61,1s-1,.33-.5,7.67S550,625.33,550,625.33s-.17,2.33,2,7,16.17,34.5,16.17,34.5,1.17,3.67,3.67,5.17c0,0,.17-.33-1-2.67S570.67,656.5,570.67,656.5Z"/><path class="cls-5" d="M570.83,616.83s-1.17,17.67-1.17,23.67,1.17,4.17,1.17,4.17.67-13,.67-17.33c0-.88,0-1.87.13-2.88,1.79,1.83,5.87,2,5.87,2a14.86,14.86,0,0,1-5.67-4.28c.34-3.19.83-6.06.83-6.06C571.83,614.83,570.83,616.83,570.83,616.83Z"/><path class="cls-5" d="M728.92,596.92c-.17-2.08-.67-9.67-.67-9.67-1.08-.83-1.25,1.25-1.25,1.25V599l-.42,8.17a12.1,12.1,0,0,0-1.5,3.17c-.83,2.33-5.25,5.17-5.25,5.17a13.31,13.31,0,0,0,3.83-.92l1.67,2.67s-.42,11.92-.58,13.42,1.5,1.42,1.5,1.42.83-13.67.66-15.17-.59-1.42-.59-1.42l-1.59-2.42,3.48-5S729.08,599,728.92,596.92Z"/><path class="cls-5" d="M727.67,581,726,576.33c-2.33-1.33-.33,4,.67,6S727.67,581,727.67,581Z"/><path class="cls-5" d="M706.59,620.09l-.15-2.61s-3.37,1.07-2.3,2.3A1.88,1.88,0,0,0,706.59,620.09Z"/><path class="cls-5" d="M702.28,627.53s1.84.37,2.76-.37-1.84-1.29-1.84-1.29Z"/><path class="cls-5" d="M715.9,629.74c.55,1.1,2.58-1.47,1.47-1.47C717.37,628.27,715.34,628.63,715.9,629.74Z"/><path class="cls-5" d="M710.9,644.74c.55,1.1,2.58-1.47,1.47-1.47C712.37,643.27,710.34,643.63,710.9,644.74Z"/><path class="cls-5" d="M720.9,607.74c.55,1.1,2.58-1.47,1.47-1.47C722.37,606.27,720.34,606.63,720.9,607.74Z"/><path class="cls-5" d="M707.25,636.36c.18-1.29-1.29-.55-1.29.55a3.86,3.86,0,0,0,1.1,2.21Z"/><path class="cls-5" d="M690.74,642.6a3.86,3.86,0,0,0-1.46,2l2.54-1.1C693.05,643.07,691.73,642.1,690.74,642.6Z"/><path class="cls-5" d="M708.17,629c.55.55,2.21-1.1,1.1-1.66C709.27,627.34,707.61,628.45,708.17,629Z"/><path class="cls-5" d="M713.14,616.67c-1.1-.55-1.47.74-1.47.74C712,618.33,714.24,617.22,713.14,616.67Z"/><path class="cls-5" d="M617.42,648.67a1.88,1.88,0,0,0-1,2.25l2.53.64S618.91,648,617.42,648.67Z"/><path class="cls-5" d="M564.13,647.87l1.67,2s2.08-2.87.49-3.22A1.88,1.88,0,0,0,564.13,647.87Z"/><path class="cls-5" d="M590.59,644.57s-.9,1.64-.48,2.74,1.78-1.37,1.78-1.37Z"/><path class="cls-5" d="M585.35,658.74s.26-2-1-1.85S585,659.79,585.35,658.74Z"/><path class="cls-5" d="M580.53,645.26a3.86,3.86,0,0,0-2.44.39l2.58,1C581.84,647.21,581.58,645.59,580.53,645.26Z"/><path class="cls-5" d="M590.41,662.74c-.69.36.39,2.44,1.25,1.55C591.66,664.29,591.11,662.38,590.41,662.74Z"/><path class="cls-5" d="M597.68,658.19c.86-.89-.26-1.63-.26-1.63C596.43,656.64,596.82,659.08,597.68,658.19Z"/><path class="cls-5" d="M660.41,649.74c-.69.36.39,2.44,1.25,1.55C661.66,651.29,661.11,649.38,660.41,649.74Z"/><path class="cls-5" d="M717.66,597.29s-.56-1.91-1.25-1.55S716.8,598.18,717.66,597.29Z"/><path class="cls-5" d="M716.41,565.74c-.69.36.39,2.44,1.25,1.55C717.66,567.29,717.11,565.38,716.41,565.74Z"/><path class="cls-5" d="M647.66,596.29s-.56-1.91-1.25-1.55S646.8,597.18,647.66,596.29Z"/><path class="cls-5" d="M569.35,598.74s.26-2-1-1.85S569,599.79,569.35,598.74Z"/><path class="cls-5" d="M705.39,576.89c-1.22.19.63,2.9,1,1.85C706.35,578.74,706.61,576.7,705.39,576.89Z"/><path class="cls-5" d="M628,638.27a1.88,1.88,0,0,0,.84,2.33l2.25-1.32S628.57,636.75,628,638.27Z"/><path class="cls-5" d="M680.87,626.47s1.45-1.36.82-1.82S679.69,626.11,680.87,626.47Z"/><path class="cls-5" d="M665.53,621.59s1.94-.7,1.21-1.7S664.44,621.78,665.53,621.59Z"/><path class="cls-5" d="M643.62,597.39c-.42-1.16-2.73,1.16-1.64,1.29C642,598.68,644,598.55,643.62,597.39Z"/><path class="cls-5" d="M560.67,637.84a3.86,3.86,0,0,0-2-1.41l1.16,2.51C560.27,640.17,561.2,638.81,560.67,637.84Z"/><path class="cls-5" d="M579.62,607.41a3.86,3.86,0,0,0-2.46-.16l2.29,1.55C580.46,609.61,580.57,608,579.62,607.41Z"/><path class="cls-5" d="M581.06,636.27s-2.49-2.52-3.09-1a1.88,1.88,0,0,0,.84,2.33Z"/><path class="cls-5" d="M638,655.27a1.88,1.88,0,0,0,.84,2.33l2.25-1.32S638.57,653.75,638,655.27Z"/><path class="cls-5" d="M718.81,637.59l2.25-1.32s-2.49-2.52-3.09-1A1.88,1.88,0,0,0,718.81,637.59Z"/><path class="cls-5" d="M717.14,579.78a1.88,1.88,0,0,0,2.45.31l-.15-2.61S716.06,578.55,717.14,579.78Z"/><path class="cls-5" d="M639.59,580.09l-.15-2.61s-3.37,1.07-2.3,2.3A1.88,1.88,0,0,0,639.59,580.09Z"/><path class="cls-5" d="M557.14,629.78a1.88,1.88,0,0,0,2.45.31l-.15-2.61S556.06,628.55,557.14,629.78Z"/><path class="cls-5" d="M565.59,634.57s-.9,1.64-.48,2.74,1.78-1.37,1.78-1.37Z"/><path class="cls-5" d="M565.59,614.57s-.9,1.64-.48,2.74,1.78-1.37,1.78-1.37Z"/><path class="cls-5" d="M627.66,596.29s-.56-1.91-1.25-1.55S626.8,597.18,627.66,596.29Z"/><path class="cls-5" d="M707.66,559.29s-.56-1.91-1.25-1.55S706.8,560.18,707.66,559.29Z"/><path class="cls-5" d="M627.66,589.29s-.56-1.91-1.25-1.55S626.8,590.18,627.66,589.29Z"/><line class="cls-2" x1="707.75" y1="552.5" x2="639.15" y2="311.63"/><path class="cls-6" d="M644.19,298.88s5.4,2.92,6.25,5.8-1,4.35-4.51,3l-1.73-.45a7,7,0,0,1-6.81,5.63s-4.28.75-4-3.85l.23-1.94s-1.93,2-3.5,1.51c0,0-1.59-2,2.22-7.29Z"/><path class="cls-7" d="M649.5,303.38a18.62,18.62,0,0,0-10.25-.12c-5.87,1.5-8.5,1.88-8.5,1.88l2.25-5.25,9.63-2Z"/><path class="cls-9" d="M643.17,298.52l-1.55.41,1.62.6s4.17,1.33,5.5,4.1,1.52,4.27-1.29,4-3.44-1.5-3.44-1.5-.77,4.72-4.87,5.51-5.44.51-5.11-3.16l.19-2.1s-2.8,1.94-3.71,1c-.76-.82,1.87-4.88,2.77-6.2l-1.83-.7s-3.54,7.51-2.13,8.38,3.68-.35,3.68-.35-1.58,6.37,4.74,4.87,7-5.08,7-5.08,7.72,3,6.27-3.19S643.17,298.52,643.17,298.52Z"/><path class="cls-9" d="M638,298.37c-25,5.89-64.15-12.09-73.48-51.69S576.42,171.1,606.66,164s68.47,18.86,75.2,59C688.64,263.32,663,292.48,638,298.37Zm-31.71-136c-31.69,7.47-53.14,44.09-43.36,85.61s49.64,58.39,75.84,52.22,54.33-39.08,44.54-80.59S638,154.92,606.29,162.39Z"/><polygon class="cls-5" points="698.5 553.25 699.5 576 701.5 575.5 701 555 698.5 553.25"/></g></g></svg>