<svg xmlns="http://www.w3.org/2000/svg" viewBox="0 0 1287.05 849.01"><defs><style>.cls-1{fill:#f4f4f5;}.cls-2{fill:#fff;}.cls-3{fill:#f4f4f4;}.cls-4{fill:#e6e7e7;}.cls-5{fill:#f15624;}.cls-6{fill:#858894;}.cls-7{fill:#f89b5c;}.cls-8{fill:#f58028;}.cls-9{fill:#fee576;}.cls-10{fill:#ec9344;}</style></defs><title>Asset 7</title><g id="Layer_2" data-name="Layer 2"><g id="Layer_1-2" data-name="Layer 1"><rect class="cls-1" width="1287.05" height="849.01"/><path class="cls-2" d="M802.48,330.3l-93.91-68.69s-43.85,15.93-84.7,22.77c-17.66,3-34.76,6.1-47.52,2.42,0,0,13.57,158.47-4.13,277.54l127.54,71.23s9.3-14.62,76.22-16.16C776,619.41,761.68,399.75,802.48,330.3Z"/><path class="cls-3" d="M799.48,329.39l-90.9-67.78s-57,168.69-9.86,372l81.47-18.53S760.88,393.32,799.48,329.39Z"/><path class="cls-4" d="M773.41,505s-36-14.77-57.86-7c0,0-7.1-39.26-21.85-51.55l-15-7.22s31,54.73,19,86.56C697.72,525.8,716.77,505,773.41,505Z"/><path class="cls-2" d="M688.69,443.39s34.14-4.38,82.74,9.75c0,0,27.79,31.85,35.06,63.43,0,0-59.4-27-92.24-15.41C714.26,501.16,713.3,448.78,688.69,443.39Z"/><path class="cls-4" d="M774.84,507.29a210.11,210.11,0,0,1,34.45,13.82c-4.42-32.82-23.18-54.42-32.82-63.57,2.26-36.91,7.26-75.29,17.38-104.79l2.47-6.75A123.66,123.66,0,0,1,805,327.85l-95.74-69.32s-93.74,37-136.85,24.65A1247.92,1247.92,0,0,1,580,432.34h0L579.9,439h0c-.56,34.25,6.22,101.45,1,136.12l117.3,63.16s16.9-6.9,85.32-20C783.54,618.27,774.55,549.86,774.84,507.29Zm29.43,6.89S755.85,485.77,715.55,498c0,0,1-25.86-19-51.61,0,0,34.59-4.62,74.69,13.09C771.19,459.49,791.74,473.36,804.28,514.18ZM709.75,267.77c3-6.16,86.22,63.93,86.22,63.93a110.67,110.67,0,0,0-4.86,10.13L779.93,334l9.2,12.76C783,363,778.78,382.59,775.92,403.35h0l-15-4.63,14.44,9.14c-1.9,14.89-3.13,30.26-3.89,45.28l-.74-.57c-27.85-9.24-56.29-11.37-73.47-11.69h0l-12.69-1.13C687.48,332,707.66,272,709.75,267.77Zm69.77,345c-60.17,12-83.31,16.24-83.31,16.24-63-39.11-115.29-53.92-115.29-53.92,3.16-26.51.68-94.56,1.23-123.71L594.45,458l-12.21-12.3h0q0-2.86.07-5.71l18.82,8.23-18.78-14.14c.19-31.2-.63-61.15-1.65-85.52h0L591.45,344c-3.51,0-11-.78-11-.78q-.16-3.6-.32-7h0c3.05.56,18.31-2.23,18.31-2.23-6.52.77-18.58-3.26-18.58-3.26h0q-.18-3.58-.36-6.9c8.63,2.17,32-2.17,32-2.17-9,1.54-32.46-6.39-32.46-6.39h0c-.9-15.28-1.63-24.43-1.63-24.43C600,294,703.23,268.54,703.23,268.54q-2.74,11.07-5.12,21.88c-5.19,2.28-16.24,6.77-25.12,7.9a180,180,0,0,0,23.94-2.48q-.92,4.27-1.78,8.5c-5.42,1.83-18.27,5.92-27.13,6.7,6.1-.2,18.31-.69,26.11-1.64a831.72,831.72,0,0,0-15.39,129.83c-11.16-1-23.53-2-25.14-2-1.86,0,13.18,4.72,24.92,8.32q-.16,5.51-.25,10.87l-19.66-6.09,19.58,13.86c-.51,90.88,15.51,145.58,15.51,145.58q-2.93-22.75-4.86-44.08c.19,0,14.68-2.14,33.93-3.16,0,0-25.93-.3-34.51-3.28q-.54-6.27-1-12.42c4.72.85,15,2.61,23.48,3.37,10.24.93-15.81-2.9-23.81-7.84q-.39-5.42-.71-10.74c4.15.36,14.26,1.23,20.52,1.63,0,0-15-1.27-20.9-8.11-1.58-28.12-1.95-54.07-1.49-77.81l7.4,2.23c23.53,22.87,18.79,54.61,18.79,54.61,18.87-6.36,41.22-3.31,59.88,1.85.27,30.5,6.92,90.66,7.1,94.27C778,610.29,779.52,612.78,779.52,612.78Z"/><path class="cls-4" d="M659.29,543.26s-30.75-26.19-64.83-32.35C594.45,510.91,634.6,527.75,659.29,543.26Z"/><path class="cls-4" d="M605.48,497c9.69,1,42.78,19,42.78,19C625.53,496,605.48,497,605.48,497Z"/><path class="cls-4" d="M668,311.05l-3.73.11A27.85,27.85,0,0,0,668,311.05Z"/><path class="cls-5" d="M754.85,409.78s-8.33,1.83-12.83,15.83l.5-9-7.5,17s1.5-19.5-3.5-21-11.5,3-13.5,15.5c0,0,.83-17.33-5-16s7.5-24.5,7.5-24.5Z"/><path class="cls-5" d="M684.52,339.61s1.5,15.5-11.5,17.5l-10,1.5s-2.5,1,3,1.5a138.77,138.77,0,0,0,15,0,17.62,17.62,0,0,1-8,2.5c-4,0,.5,1.5,5,2.5s9,6.5,9,6.5l11.5-5.83-2-21.67Z"/><path class="cls-5" d="M759.52,335.86l3-5.75,7.5-2.5a56.21,56.21,0,0,1-1.5-15s2-7.5-2-1c0,0-1.5-11,1.5-20.5s-3.5,2.5-3.5,2.5-5.5,12.5-10.5,17c0,0,1-8,4.5-11.5s-2-2.5-2-2.5-11.67,17.5-20,21S747,343.11,759.52,335.86Z"/><path class="cls-2" d="M638,310.78s-90.17,7.2-139.35,0l-69.09,36s4.51,14.18,3.83,25.28c-.43,7-5.09,11.44-7.42,14.48-.63.82,8.64-2.23,8.82-.92,6.47,45.22,15.22,122.69,4.13,193.28l64.4,48.58,145.2-27S615.78,523.1,638,310.78Z"/><path class="cls-3" d="M497.59,310.42s103.77,12.3,139.57-.62c0,0-21.66,168.24,9.22,290.87L501.6,627.79S516.44,523.64,497.59,310.42Z"/><polygon class="cls-4" points="499.6 334.45 515.64 336.3 501.85 341.77 499.6 334.45"/><path class="cls-4" d="M502.19,349.09s5.43,1.38,18.27,3.23l-19.65,4.93Z"/><path class="cls-4" d="M632.75,507.62s-21.66,4.93-37.7,6.16c0,0,24.05,2.76,36.09.76Z"/><path class="cls-4" d="M634.35,524.87s-20.05,1.23-25.67,0c0,0,19.57,6.48,24,7.41Z"/><path class="cls-4" d="M496.19,534.14s-38.8-15.14-45.12-15.25S478.15,514.73,496.19,534.14Z"/><path class="cls-4" d="M490.38,514.7s-23.25-11.09-34.29-11.09C456.09,503.61,472.9,498.09,490.38,514.7Z"/><polygon class="cls-4" points="507.25 595.24 487.37 581.26 506.95 601.86 507.25 595.24"/><polyline class="cls-4" points="501.2 616.38 486.77 596.97 501.34 609.38"/><path class="cls-4" d="M631.59,355.47a277.36,277.36,0,0,1-34.74,2.09s21.94,6.22,34.13,6.35Z"/><path class="cls-4" d="M630.16,377s-15.86,2.74-20.67,0c0,0,14.09,7.2,20.28,7.3Z"/><polygon class="cls-4" points="629.34 393.43 616.71 389.91 629.08 400.11 629.34 393.43"/><path class="cls-4" d="M504.93,415.79s36,4.63,56.44.93c0,0-38.4,7.54-56.2,5.62Z"/><path class="cls-4" d="M503.83,450.09s-26.1,5.4-42.94,4.58c0,0,37.79,2,43.26.07Z"/><path class="cls-4" d="M506.37,515.46s26-6.33,42.86-6.11c0,0-37.81-.64-43.25,1.47Z"/><path class="cls-4" d="M640.77,310.42s-92.64,7.4-143.18,0l-70.74,35s2.3,10.85,5.3,31.42l-11.53,13.77s4.94-2,12.84-4.51c6.46,47.46,13.66,126.76,2.77,196l66.17,49.92L651.6,604.37S617.91,528.57,640.77,310.42ZM431.42,349.24,495.19,316s1.22,13.78,2.79,35.94l-62.44,20.93Q433.7,361.2,431.42,349.24ZM426,386.52l9-10.17c7-3.08,59.16-20.34,59.16-20.34a76.07,76.07,0,0,0-16.44,19.1c-8.54-.46-21.52,2.4-32.34,5.38-6.46,1.72-11.17,3.3-11.17,3.3h0C429.25,385.37,426,386.52,426,386.52ZM500,621l-59.56-43.45S453,499,438.26,391.69c32.26-5.69,43.29.69,43.29.69-1-13.16,11.65-27.48,17-32.88C503,425.11,509.42,549.28,500,621Zm.6-305c34.89,5.55,134.75-.92,134.75-.92-19.25,174.71,7.22,282.86,7.22,282.86-24.06,7.4-137.76,26.81-137.76,26.81C513.84,571.09,500.6,316,500.6,316Z"/><path class="cls-6" d="M811.7,131.05"/><path class="cls-7" d="M681.52,315.45s4.75-14.58,23.5-10.58c0,0,16.75,2,24.5,13.25,0,0,1-4.5,7-.5s7.75,8.75,8.25,14.75l10,2.25,4.75,1.25s-1-9.25,13-8.5,27.75,8.25,29.75,16,6.58,40.75,6.58,40.75l-4.58,3.75-1.5,1.75s4.25,9.5-11.5,11c0,0-13.75,17.5-41.5,7.75l-3.75.25s-14.5,4.75-24-6.5c0,0-4.75,18-25.75,8,0,0-7.75-2.75-9.25-24.5,0,0-2.25-12.25,3-19.75l2.25-3.25s-3.75-2.25-3-9.5l1.75-6.5s-6.25-2.25-7.25-12a13.27,13.27,0,0,1-5-10.5C678.77,317.11,681.52,315.45,681.52,315.45Z"/><path class="cls-8" d="M744.77,332.36a19,19,0,0,0-11.25,8.42s5-10.33-.67-14.67c0,0-.33,9-10.67,7,0,0,11.67-3,6-12,0,0-6-12.33-20.67-7.33a6.75,6.75,0,0,0-2,9.33s-5.5-3.08-3-10.67c0,0-12-3-14.33,9.67,0,0-2.33,4.33,2.67,6.33,0,0-7.17,5-12.08-4.33l1.75-7.33,5-9.33,9.33-3,14,1.33,8.67,3.33,10,5.33,5.67,2,6.67,2.33Z"/><path class="cls-8" d="M797.85,381.11s-7.33,7.33-21.33,4c0,0,5,2.67,14,3.33s-.67,12-13,6.67-10.67-7.33-10.67-7.33a16.66,16.66,0,0,0,4.33,11c4.67,5.33-14.33,9.67-24.67-.67,0,0,1.33-9-7.67-9.33s-6,13.67-6,13.67l-5.33-2.67a25.94,25.94,0,0,0,0-23s-4-10.67-8-11.67c0,0,4,28-10,31.67s-14.33-11.67-14.33-11.67a23,23,0,0,1,3.33-19.33c6.67-9.33,11.67-10.67,11.67-10.67s-15.67,3-14-2.33,4.33-14.67,10.33-15c0,0-7-3-12,2.33s-5.67,17-5.67,17l3.42,5.5-6.08,12.5,2,13.33,1,12.67,4.51,8.42,13.49,3.91,10.58-3.58,4.25-7.75,12.83,6.67,13.5.58,6.5.42,8.67,2.33,22-6,8-6.67,7.67-2,1.58-7.83,7.08-5.5Z"/><path class="cls-5" d="M810.82,355.66c-1.83-1.46-2.92-4-7.31-13.88s-21.19-16.07-32.15-15.71-13.88,8-13.88,8c-3.29-3.65-11.33-2.92-11.33-2.92-.37-5.85-2.92-9.86-6.94-13.88s-9.86-1.83-9.86-1.83-7.31-9.86-27.77-12.06S680,318,680,318c-5.48,11.33,3.29,18.27,3.29,18.27a17.21,17.21,0,0,0,6.94,12.06c-4.38,6.94.37,15.71.37,15.71-10.23,13.52-2.56,33.25-2.56,33.25-2.56,6.21,5.48,16.44,17.9,17.17a16.35,16.35,0,0,0,16.44-9.5c2.56,2.56,12.42,5.11,12.42,5.11,12.42,3.65,13.52-.73,13.52-.73,26.3,10.59,45.3-8,45.3-8,13.52-1.46,11-12.06,11-12.06s11.33-1.1,12.42-15.34S812.65,357.12,810.82,355.66Zm-2,28.46s-7,4.67-13.33,4.67l5,.67s5.33,5.33-5.67,8.67c-4.36,1.32-6.57,1.91-7.65,2.14l2.65.53s-16.67,15-38,6.33l-5.67-3,1.33,3s-10.33,4-24-5c0,0,2.67-6.67.33-13,0,0-3,23.33-16,23s-18.33-8-18.33-18.33-3-10-1-20.33,7.33-12.33,7.33-12.33l-4.33.33s-2.67-6,1-14.33l3.67-8.33a14.4,14.4,0,0,0-6,6s-5.33-2.67-5.33-11.67c0,0-5.67.67-4.33-13,0,0,.33-2,4-3.67l-3-1s6.33-11.67,17.33-10,19.67,1.33,33,16.33l-2-4.67s12.67-.33,14,14.67a15.84,15.84,0,0,0-10.33,9s4.67-5,11-5.67a19.57,19.57,0,0,1,12.33,2s8.67,1.67,11.67,5.33c0,0-.67-4.67-6.67-8.67,0,0,3.67-7,18.67-3.33s19,13,19,13,3.33,4.67,6.33,13.67l3,9-1-8.33s6,1,6.33,13S808.85,384.11,808.85,384.11Z"/><path class="cls-9" d="M787.52,348.11s-3-12.5-12.5-13.5-.5,7-.5,7,9,12-.5,16.5c0,0-1.5-13.5-15-14.5,0,0-7-3.5-17,2.5s-5.86,19.44,1.07,22.22,43.43-7.72,43.43-7.72Z"/><path class="cls-4" d="M729.09,364.34S822.45,323.33,840,314s74.52-33.88,74.52-33.88l22,43L934.38,337l6.49,1,22.72,50-2.49,2.26-27.26-2.5-1.07,25.67L726.67,367.05S724.91,365,729.09,364.34Z"/><polygon class="cls-3" points="930.08 325.53 926.89 406.03 738.62 364.45 930.08 325.53"/><polygon class="cls-2" points="935.59 342.15 738.62 364.45 956.57 384.29 935.59 342.15"/><polygon class="cls-2" points="911.35 288.63 738.62 364.45 930.08 325.53 911.35 288.63"/><path class="cls-9" d="M694.19,379.11s-3.67,3.33-1,7.33c0,0-1.67,13.67,7.33,16.33,0,0-4.33-4.67-3-10,0,0,2.33,11.33,15,4.67,0,0,8-4,1.33-11.33,0,0,5.33-7-.67-12.67s-11,2.33-11,2.33S696.19,372.45,694.19,379.11Z"/><path class="cls-10" d="M704.52,378.11s-8,4.33-4,8c2.1,1.93.74,0,1.33-2.67C702.38,381.08,705,378.11,704.52,378.11Z"/><path class="cls-9" d="M724,316.11s-5.5-7.67-16.5-2.33,3.5,14.33,3.5,14.33,2.33,4,11.17,5S732.52,319.11,724,316.11Z"/><path class="cls-5" d="M735.52,322.86s4.75,1.5,3.5,4.75C739,327.61,738,328.36,735.52,322.86Z"/><path class="cls-9" d="M695.52,316.45s-7.33,0-7,9.33c0,0-1.33,1.33,1,3h4.33s-2.33,4-6.33,4a5.36,5.36,0,0,0,1,6c2.67,2.67,9.67-3,10-7,0,0,.67,3.67,7,2.33s5.67-13-5.67-10.67C699.85,323.45,702.52,317.11,695.52,316.45Z"/><path class="cls-7" d="M732.52,378.78s1.83,7.17,10.33,6.67c0,0,6.67-1.5,7.83-2.67a11.92,11.92,0,0,0,11.33-2.5l5.17-3.33,2.33-6.5s1-9.5-3-13.33l-4.17-2.33s-5.5-12-18.83-13.33c0,0-9.67-2.17-14.33.83a44.41,44.41,0,0,0-15.83,15.33s-3.83,6.17-2.17,10.67c0,0,1,12,11,13.33A16,16,0,0,0,732.52,378.78Z"/><path class="cls-9" d="M743.19,352.11s-1.5-5.17-8.67-4-12,2-14.33,7.83c0,0-4.67,3.5,0,8.83a6.54,6.54,0,0,0-2.17,4.83c.17,2.83,7,5.17,10.17,1.5,0,0,9.67,2.33,12.33-6.17C740.52,364.95,749.85,359.45,743.19,352.11Z"/><path class="cls-9" d="M758.77,358.86s7.25,3,6.25,9.25-9.25,11.75-14.5,8c0,0-3-4.5-1.75-9s-4.75-5-4.75-5l-.83-10s2.58-1.75,7.58,1C750.77,353.11,757.27,351.36,758.77,358.86Z"/><path class="cls-9" d="M763.52,387.11a12.13,12.13,0,0,0,1,9c2.5,4.5-1,4.5-4,3.5a14,14,0,0,0-6-.5s-3.5-10-1-10S760,387.61,763.52,387.11Z"/><path class="cls-8" d="M763,356.61s7.17,10.83-1.17,17.83-13.08-7.33-13.08-7.33-8.58,8-17.92,7.33-9.67-7-10.67-9.67-5.67-4.33-7.67,1,2,17,14.33,14.67,5.67-1.67,5.67-1.67,3,9,13.33,6,4.67-2.67,4.67-2.67l3.67,2s16.33-3.67,15-15.67S767.85,357.11,763,356.61Z"/><path class="cls-5" d="M769.77,362.61s-.25-7.25-6.25-8.25c0,0-7.5-12.75-19.5-13.5,0,0-11.5-5.25-22,5s-11.75,16.25-11.75,16.25-1.75,14.25,6.75,19a12.73,12.73,0,0,0,14.75-1s2,4,4.75,5.5,9.5,1.25,13.5-1.5c0,0,3.75,2.25,10.5-2S772.77,377.61,769.77,362.61Zm-6.25,16.5c-9,6-13,3-13,3-12,6.5-16.5-2-16.5-2,8-2,9.75-6.5,9.75-6.5a47.76,47.76,0,0,1-11.75,4c-18.5,10.5-19.5-9.5-19.5-9.5s-2.33-13,15.5-23.5,35,12,35,12C769.52,357.61,772.52,373.11,763.52,379.11Z"/><path class="cls-9" d="M751.85,378.11s-2.83,5-10.17,4.5-1-3.5-1-3.5,6-.5,5.67-6.33,2.17,2.5,2.17,2.5.5,3-2,3.67C746.52,378.95,747.52,380.45,751.85,378.11Z"/><path class="cls-7" d="M727.19,355.95s-4,1.67-2.67,4.83a5.18,5.18,0,0,0,4.17,3.33s-2.67-4.33,2.83-5.33c0,0-3.83-1.17-5,2.17A5.15,5.15,0,0,1,727.19,355.95Z"/><path class="cls-7" d="M757.77,355.61s2,9.5-1.5,12c0,0,4.75-2,3.75-9.75S757.77,355.61,757.77,355.61Z"/><path class="cls-7" d="M722.19,333.11s-5.67-.75-4.92-9.25c0,0-3.75,4,.25,10S722.19,333.11,722.19,333.11Z"/><path class="cls-7" d="M765.52,326.45s0-4.33.67-10.67l-3,11a54,54,0,0,1-1.33-10.33c0-4.67,3-19,3-19s-7,12-7,24.67-6.67-1.33-2.67-8-6.67,5.33-6.67,5.33l4.67-13s-3.67,10.33-11.33,13c0,0,4.33,3.67,5.33,8.67s6.33,3.33,6.33,3.33h4.33Z"/><path class="cls-9" d="M753.52,331.45s-4.33-8-1.33-12.33l-3.67,11.67-3.33-7.33,1.67-4s-.67,4.67.67,4.67,3-6.67,5.33-8.33c0,0-.33,12.33,3,15.67Z"/><path class="cls-7" d="M728.52,348.78s8-1.33,9.33,8c0,0,1.83-9.17-4-10.67S728.52,348.78,728.52,348.78Z"/><path class="cls-8" d="M687,345.61s1,9.5-5.5,12l3.5,1s-1,3.5-4,4l6.83,2.33,1-2.83s-1.5-10.5.17-13.5Z"/><path class="cls-9" d="M745.85,410.78l-1.33,4.67s-3.67-5.33-4.33-.67-2.67,6.67-2.67,6.67,1.67-8.67-2.67-12.67A17.78,17.78,0,0,0,745.85,410.78Z"/><path class="cls-9" d="M707.36,339.72s-4,1-4,8l-.5,4s2.5-9,9-12C711.86,339.72,714.86,336.22,707.36,339.72Z"/><path class="cls-8" d="M710.36,310.72s-2.5,4,1,6.5l-7-4.5Z"/><ellipse class="cls-8" cx="723.86" cy="324.72" rx="1.5" ry="2"/><ellipse class="cls-8" cx="709.86" cy="391.72" rx="1.5" ry="2" transform="translate(-60.64 644.05) rotate(-47.02)"/><path class="cls-7" d="M687,345.61s.32,10.89-5.5,12l6.84-2.56s-1.35-3.54.66-6.44Z"/><path class="cls-9" d="M688.36,355.05s-6,3.42-12.25,3.42c0,0,9.75-1.5,12-6.25Z"/><path class="cls-7" d="M745.7,391.05s2,8.67-6,9c0,0,6.33,3,9.67-2.33S745.7,391.05,745.7,391.05Z"/><path class="cls-5" d="M727.36,342.39s-8.67,1.33-13.67-8c0,0-.67,10,11.33,10.33C728,345,727.36,342.39,727.36,342.39Z"/><path class="cls-9" d="M696.36,309.22s-6.83,0-9.17,6.33C687.2,315.55,687.2,306.55,696.36,309.22Z"/><path class="cls-7" d="M721.53,306.72"/><path class="cls-5" d="M774.11,396.22s1.5,4,7.75,5c0,0,1.25,3.5-3,2.75S774.11,396.22,774.11,396.22Z"/><path class="cls-7" d="M730.61,408.72s-8.5-2.25-10.75,4L718.61,409l3.5-4.75Z"/><path class="cls-5" d="M672.7,338.39s-.67-4-5.33-2.33-.33,3.67-.33,3.67-1,0,0,2.33S672.7,338.39,672.7,338.39Z"/></g></g></svg>