<svg xmlns="http://www.w3.org/2000/svg" viewBox="0 0 1278.03 860.99"><defs><style>.cls-1{fill:#bd1f44;}.cls-2{fill:#a51d3e;}.cls-3{fill:#f6a7c1;}.cls-4{fill:#fdebf1;}.cls-5{fill:#f8c3da;}.cls-6{fill:#ed174c;}.cls-7{fill:#a30b35;}.cls-8{fill:#601229;}.cls-9{fill:#fff;}.cls-10{fill:#bde3f5;}.cls-11{fill:#231f20;}.cls-12{fill:#afdfe4;}</style></defs><title>Asset 2</title><g id="Layer_2" data-name="Layer 2"><g id="Layer_1-2" data-name="Layer 1"><polyline class="cls-1" points="1278.03 860.99 0 860.99 0 0 1278.03 0"/><path class="cls-2" d="M460,583.18c-37.7,1.3-64-17.74-64-29.75s29.27-13.75,67-13.75c5.14,0,10.17,0,15,.12,0-.12,0-.25,0-.37,0-12,29.27-13.75,67-13.75s69.61,1.74,69.61,13.75S579.69,569.18,542,569.18c0,0-12.6-3.5-35.6,2.5S474.57,582.67,460,583.18Z"/><path class="cls-2" d="M938.14,534.35s20.54,7.31,14.22,20.33-31.35,21.38-72,16-103.92-22-172.91.5-102.4-14.5-43.5-19.5c18.71-1.59,75-16.88,119.41-18S938.14,534.35,938.14,534.35Z"/><path class="cls-3" d="M386.89,397.83s-18.44-13-3-31.58,28.67-24.55,28.67-24.55,52-23.69,100.83-10.62c0,0,80.52,8.68,90.79,7.75L602,354s-12.51-1.18-15.42,7.17.86,28.69-9.19,36.18c0,0,40.49-1.86,68.7,25.61l2.37,1.51s23.93-13.82,43,4.93c0,0,18.85,14.77-21.08,24.25s-95.93,18.78-143.23,67.18c0,0-32.1,48.24-47.3,39.9s-15.78-22.19-10.18-30.83l5.6-8.64s-22.35-17-34.08-38.22c0,0,4.81-16.1,2.14-27.31,0,0,16-7,3.1-21.65s-30.75-17.92-30.75-17.92S405.63,387.29,386.89,397.83Z"/><path class="cls-4" d="M583.18,377.63c1,3.79-.13,8.32-1.68,12.08a29.51,29.51,0,0,0,2.1-16.76l1.31-5.55s1-7.91,6.16-10.65a23.06,23.06,0,0,1,5.81-2.08C587.4,354.07,581.09,370.06,583.18,377.63Zm.4-4.78-.3-1.82Z"/><path class="cls-4" d="M466,512.69,443.62,486C448.76,493.09,458.49,504.28,466,512.69Z"/><path class="cls-4" d="M577.4,397.38a45.51,45.51,0,0,0,4.09-7.66,21.66,21.66,0,0,1-2,3.63Z"/><path class="cls-4" d="M487.52,562.12a27.21,27.21,0,0,1,2.5-2,23.2,23.2,0,0,1-5.46,1.41C486.15,562,487.42,562.31,487.52,562.12Z"/><path class="cls-4" d="M577.4,397.38c1.88-.23,3.74-.34,5.61-.39A25.68,25.68,0,0,0,577.4,397.38Z"/><path class="cls-4" d="M384.22,395.72l.05,0-.14-.12Z"/><path class="cls-4" d="M647.32,425.3l.71-.41.44-.39S617.1,396.14,583,397c9.41.21,21.88,3.59,21.88,3.59C632.65,408.29,647.32,425.3,647.32,425.3Z"/><path class="cls-4" d="M391,415.73a52.4,52.4,0,0,1,5.54-2l-.79-1.23A9.37,9.37,0,0,0,391,415.73Z"/><path class="cls-4" d="M599.14,355.12l-.08-.84c-.66.09-1.4.22-2.19.4A8.81,8.81,0,0,1,599.14,355.12Z"/><path class="cls-5" d="M579.53,363c2.72-19.82,19-13.76,19-13.76l.48,5.07a23.64,23.64,0,0,1,3-.25l-.61-15-70.82-6.31s-48.72-7.41-63.5-4.58c0,0-33,3.83-40.08,7.38,0,0-21,7.12-34.92,20.39,11.42-10.36,27.69-17.25,36.16-20.38-25.71,9.87-41.85,31.13-43.54,39.75a13.43,13.43,0,0,0,1.4,8.76c4,4.4,9.06-3.73,9.06-3.73l.61,3.51c-.37-14.87,18.66-27.48,18.66-27.48,14-12.61,50.8-17.22,50.8-17.22l56.42,3.05L579.51,345c-14.47,1-49.22,19.22-49.22,19.22-7.76,3.87-25.95,7.09-25.95,7.09-8.83,1.86-43.06-7.58-43.06-7.58-7.94-3.27-29-5-29-5l-12.16,3.37c-24.78,8.8-23.3,27.13-23.3,27.13-.07-.19-.11-.37-.18-.56l.31,1.78-5.7,1.48-7,3.71c.38.31.77.62,1.19.91l10.23,15.88a11.25,11.25,0,0,1,1.82-.45c13.44-4.25,6.12-12.17,4.6-14.66a10.8,10.8,0,0,0-5.39-4.3,8.54,8.54,0,0,1,4.3,1.54c1.78-4.16,9.38-26.61,28-24.95s48.87,15.08,48.87,15.08c-60.24-17.89-76.16,8.59-76.88,9.87,4.94,3.36,7.49,11.23,8.11,14.13.52,2.44,3.55,1.21,3.55,1.21a2.82,2.82,0,0,1,2,3.78c-4.84-3.21-12.86-1.66-18.22,0l44.69,69.35,2.44,2.9c-1-1.42-1.88-2.68-2.48-3.72l2.36-17.48-38.35-72s13,5,14.59,19.63c0,0,24,6.33,32.57,20.4,8.37,13.82,9.66,28.41-6.59,34.17,20.63,22.79,66,41.58,66,41.58l-15.21.08S478.44,520.3,476.29,524c0,0-4.48-4.84-10.28-11.33l10.23,12.2-.56.84a43.43,43.43,0,0,1,6.61-5.54C469.12,547.89,504,549.83,504,549.83l13.11-17.25L546,504.05l27.3-19L603,471.75l27.42-8.59,37.9-8.93,20.42-6.8-63.18,16.13c-70.35,15-112.36,73-112.36,73,43.63-78.28,142.4-83.55,163.06-89.9S688.06,428,688.06,428c15.25,9.72.7,19.46.7,19.46s10.4-6.31,7.67-11.45c0,0-4.81-11.59-14.19-13.19l-14.49-3.92-14.92,3.29L648,424.89l-15.53,13.94c-9.48-6.8-17.06-16.25-25.85-21a162.07,162.07,0,0,0-34.32-13.71l-14.46,33.08s-21.5-19-5.83-46.5C560.23,376.3,578,373.93,579.53,363ZM432.4,334.09l1.47-.47Zm91,96.26c13.75-9.52,7.16-9,24-10,0,0-3.29-1.28-15.44,9.06S518.17,444,518.28,447.79C518.28,447.79,509.62,439.87,523.37,430.35Zm54.12,12.29c-15.31,8.15-51.78,24.94-49.87,23.23,7.33-6.55,48-29,48-29S592.79,434.49,577.49,442.64Z"/><path class="cls-4" d="M445.47,467c-1.25-1.63-1.94-2.59-1.94-2.59l0,.35,1.32,2.48Z"/><path class="cls-4" d="M445.5,467l.21-.07c-.75-.83-1.48-1.67-2.17-2.51C443.54,464.43,444.23,465.39,445.5,467Z"/><path class="cls-4" d="M395.79,383.84a16.9,16.9,0,0,0,.85,4.87Z"/><path class="cls-4" d="M379.64,377c-1.43,6.1-1.41,13.51,4.5,18.57C380.17,388.87,378.94,382.68,379.64,377Z"/><path class="cls-4" d="M445.47,467c6.54,8.52,28.71,35.56,51,41.58-24.17-9.06-44.76-33.58-51-41.59Z"/><path class="cls-4" d="M401,394.63h0l0,.06Z"/><path class="cls-4" d="M383.85,366.26a44.72,44.72,0,0,1,8.24-10.33c-6.52,5.92-11.46,13-12.45,21.08A42.69,42.69,0,0,1,383.85,366.26Z"/><path class="cls-4" d="M504,549.83s-9.41,6.81-14,10.29C494.28,558.48,499,555.35,504,549.83Z"/><path class="cls-4" d="M477.65,559.23l-9.14-7.35-.45-14.69,7.63-11.47c-6.52,6.6-14.27,18.52-4.94,32.53a19.51,19.51,0,0,0,13.83,3.27C481.65,560.66,477.65,559.23,477.65,559.23Z"/><path class="cls-6" d="M615.39,327s10.85-20.86,20.35-28.72,15.87-12.53,15.87-12.53l18.32-1.93,16.16,15.87s14.91,20.15,14.1,32.23l-4.31,17.42S685,362.87,678.43,363.65l-9.82-1.87s-2.45,7.6-8.44,10.11c0,0-7.4,1.93-13.46-1.87l-33.23-18.22S608.31,331.33,615.39,327Z"/><path class="cls-7" d="M663.36,348.64l-16.55-10.08s3.48-4.86,8.34-1.38,6.28,4.06,15.33,6.6,14.17,16.71,9,20.73l-10-3.09Z"/><path class="cls-7" d="M658.32,293.17s-8.68,17.14-5.94,30.66C652.38,323.84,641.91,306.63,658.32,293.17Z"/><path class="cls-7" d="M663.26,368.45s-3.48,1.22-24.69-11.59-26-21.38-18.29-38.57c0,0-23.73,24.86.42,37.38s40,25.47,43.47,13.81"/><path class="cls-8" d="M613.33,325.11s11.4-18.16,18.64-25,27.27-34.32,51.19-7.51,25.37,52.38,5.9,68.06c0,0-10.17,7.08-16.68,2.77l0-3.16s8.69,4.22,15.49-3.09,19.06-20.31,1.83-49.36-33.81-24.08-40.92-19.22-36.6,32.49-35.35,53.67C613.39,342.34,610.11,329.75,613.33,325.11Z"/><path class="cls-7" d="M649.63,339.74s0,3.64,5.38,6.66,15,7.79,13.91,16.93c0,0,10.3-9,1.09-16.42A34.69,34.69,0,0,0,649.63,339.74Z"/><path class="cls-8" d="M656.5,343.27s-5-8.34-8.85-5.44.45,7.79,9.92,7.69S656.5,343.27,656.5,343.27Z"/><path class="cls-8" d="M656.5,343.27s10.66.23,14.72,8.5,2.7,17.64-11.46,22.76c0,0-3.22,1-9.82-1.87s-31.59-17.38-31.59-17.38l-2.16-4s34.45,21.7,40.34,20.64,13.84-11.21,10.37-17.26-7.37-9.46-11.72-9.75S656.5,343.27,656.5,343.27Z"/><path class="cls-8" d="M613.89,345.77c-1.8-6,.87-17,4.33-24.94l-17.82,11.9-7.09,5.36s-3.65,11.07,3.61,18.67c0,0,10.13,5.69,22.54-.92C622.72,355.33,615.87,352.31,613.89,345.77Z"/><path class="cls-8" d="M630.35,441.5s16.68-18.18,33.78-20.31,42.65,15.29,23.15,25.28-86.78,13.24-136.92,52.33-52.7,70.7-74,56.09,15.88-49.55,35.41-46.38c0,0-7.2-6.25-21.83,2.7s-35.11,28-19.16,47,37-9.21,51.78-28.73S577,476.08,644.17,460.9c0,0,37.45-8.3,42-10s28.61-16.68-7.22-31C649.87,408.24,630.35,441.5,630.35,441.5Z"/><path class="cls-8" d="M595.4,343.79s-23.91-1.23-47.12,9.57-37,21.77-70.1,13S429.1,354.77,417.42,361s-22.48,15.07-20.48,29.51c0,0,.69-21,27.24-28.46s58.28,14.17,84.57,10.3C535.6,368.38,554.68,347.89,595.4,343.79Z"/><path class="cls-8" d="M539.44,342.57c47.25,1.45,56,1.23,56,1.23s-54.82,3.85-71.62,1.42-64.2-11.84-99.24,6.82-28.67,36.46-27.6,38.47a21.85,21.85,0,0,1,1.14-19.22c5.67-9.74,23.23-35.13,99-33.56C510.89,338,529.48,342.26,539.44,342.57Z"/><path class="cls-8" d="M601.41,339a158.2,158.2,0,0,1-24.52-.91c-11.68-1.54-59.85-5.36-79.05-7.94S424,326.88,396,354.54s-10,40.22-10,40.22l-3.32,1.77s-13.2-13.14,2.95-34.52,59.73-41.48,117.2-33.31,97.92,9.14,97.92,9.14Z"/><path class="cls-8" d="M600,356.84s-7-3-12.9,6.35,3.77,19.71-8.35,32.87c0,0,30.74-3.44,72.54,26.53l-6.61,5.07S640,413.08,611,404.23s-37.47-4.35-37.47-4.35,10.17-9.55,9.61-22.24c-.5-11.46,4.8-31,19.65-22.8Z"/><path class="cls-8" d="M439.56,476.38s18.74,30.35,39.72,44.51l-6,5.26S446.36,495,436.55,478.5,439.56,476.38,439.56,476.38Z"/><path class="cls-6" d="M381.05,421.83l-7.77,19.64s-5.46,26.17-2.71,43.71c0,0,3.89,20.41,31.37,17.42,0,0,17.9-.61,34.52-15.27,0,0,14.06-7.09,5-32.13,0,0,9.16-1,8.8-9S449.22,429,411.46,413.4C411.46,413.4,392.4,410.36,381.05,421.83Z"/><path class="cls-8" d="M496.52,508.61S463.67,493.52,441.15,459l.91,3.65s10,22.61,51.66,48.49Z"/><path class="cls-7" d="M383.58,418.81c-9,14.62-12.77,27.35-14.1,37.19a95.72,95.72,0,0,0-1.67,9.85c-3.53,29.79,13,42.45,34.14,36.75l2-.92A44.47,44.47,0,0,1,381,479c-5.93-13.55-5.51-36.81,3.83-51,11.81-11.73,28.77-12.47,28.77-12.47C407,409.43,383.58,418.81,383.58,418.81Z"/><path class="cls-3" d="M424.52,420.16s31.57,19.25,21.66,32.67C446.17,452.83,464.93,437.8,424.52,420.16Z"/><path class="cls-8" d="M415.67,416.2s-20.55-7.29-37.68,11.52c0,0-7.95-5.46,4.72-31.2,0,0,13.46-12.59,24.28-2.46C407,394.07,420.36,414.09,415.67,416.2Z"/><path class="cls-3" d="M442.46,471.35s-10,26.79-44,30.92C398.44,502.27,442.58,499.72,442.46,471.35Z"/><path class="cls-8" d="M382.3,422.72s-11.41,15-11.76,49.3,25.91,31.19,38.85,28.56,29.62-14.71,32.09-23.28c1.5-5.19,3.49-16.21-7.11-23.75s-11.33-6-13.78-12.05,5.12-3.5,7.25,2,14.14,14.19,19.48,7.46,4.78-20.64-33.72-35.43c0,0,4-1.74,16.26,5.3s28.06,19.44,19.21,32.68a10.89,10.89,0,0,1-5.76,2.29s7.44,24.5-10.38,37.32c-11.1,8-21.31,11-25.58,11.68s-44,9.85-40.82-33.72S382.3,422.72,382.3,422.72Z"/><path class="cls-7" d="M423.45,468.67s-16.44,16-36.17,9.34C387.27,478,402.88,480.74,423.45,468.67Z"/><path class="cls-9" d="M358.9,413.79"/><path class="cls-5" d="M508.53,355.29s-29.08-10.11-58.56-5C450,350.25,481.37,338.67,508.53,355.29Z"/><path class="cls-8" d="M525.26,436a127.22,127.22,0,0,1,26.46-16.67S531.41,423.39,525.26,436Z"/><path class="cls-8" d="M432.56,374.44S420,372,411.85,366.85c0,0,1-7.33-1-9.92s-7.67-6.39-7.67-6.39l-1.55-.73s.09-5.33-3.86-7.25S384,329.75,384,329.75l-2.08,2.66s-2.41-4.42-2.47-6.83-18.07-6.28-18.07-6.28-1.8,16.17,5.07,23.12l-3.05-.69s7.89,10.91,12.59,10.12l-3.13,1.91s18.51,17.57,32.14,17.5c0,0,16.3,8.62,22.34,7.6S432.56,374.44,432.56,374.44Z"/><path class="cls-5" d="M429.06,375.24s-11.52-2.3-19.22-7.21c0,0,1.12-7.88-.77-10.34s-6.54-5.76-6.54-5.76l-.86,3.58s-1.33-8.77-5.07-10.59-12.26-11.5-12.26-11.5l-1.1,5.1s-4.32-8.1-4.38-10.38-15.45-6.22-15.45-6.22,1,13.89,7.57,20.48l-2.57,1.08s7.16,8.61,11.61,7.86l-3,1.81s17.55,16.66,30.47,16.59c0,0,15.46,8.18,21.19,7.21S429.06,375.24,429.06,375.24Z"/><path class="cls-8" d="M473.54,469.83s-.74,12.26-4.66,20.63c0,0-7.09,0-9.31,2.19s-5.13,8.07-5.13,8.07l-.5,1.57s-5.08.57-6.42,4.56S437,521.56,437,521.56l2.78,1.65s-3.91,2.83-6.19,3.19-3.74,18-3.74,18,15.6-.28,21.36-7.67l-.28,3s9.4-8.85,8.07-13.22l2.2,2.74s14.42-19.77,12.68-32.72c0,0,6.19-16.57,4.47-22.18S473.54,469.83,473.54,469.83Z"/><path class="cls-5" d="M474.73,473.07s-.77,11.24-4.49,19.17c0,0-7.63-.09-9.74,2s-4.67,6.93-4.67,6.93l3.51.38s-8.18,2.35-9.45,6.13-9.43,13.07-9.43,13.07l5,.42s-7.17,5.11-9.33,5.45-4,15.46-4,15.46,13.08-2.71,18.54-9.72l1.34,2.31s7.31-7.87,6-12l2.09,2.59s13.67-18.74,12-31c0,0,5.87-15.72,4.24-21S474.73,473.07,474.73,473.07Z"/><path class="cls-8" d="M339.05,402.2s15.09-3.08,18.16-10.07l3.12,5.38s-13.33,10-20.78,11.37c0,0-13.17,8.48-18.92,8.78l-1.18-1,.49-1.08s-14.86,5.22-18.4,2.36l2-2.87S292,410.88,290,401.86l2.83-.38s-.29-10.12,6.83-14.12c0,0,3,10.26,7.86,12.58l-.18-1.9s9.58.56,11.66,2.28l1.7-1.1S332.72,396.57,339.05,402.2Z"/><path class="cls-3" d="M338.5,403.38s11.37-1.21,18.79-8.67l1.91,2.81s-13.58,8.81-18.52,9.9-8.63,7.07-19.8,9.21l.84-2.77s-12.31,4.33-18.43,2.93l4.54-2.13s-11.81-2.25-16-12.33l2.36.45s-.27-9.32,4.89-13c0,0,3.2,11.58,10.07,12.66l-.37-3.15s9.88,1.54,11.4,3.31l.55-1.9S331,397.42,338.5,403.38Z"/><path class="cls-8" d="M337.22,406s-37.06,10.11-38.8-12.07C298.43,393.93,294.35,418.36,337.22,406Z"/><path class="cls-8" d="M498.08,306.68a72.18,72.18,0,0,0-14.82-18.17s-4.2-12.34-12.05-18.7l-2.23-.42s-1.73-4.88-11.42-11.45l1,4.53s-8.24-10-18.39-10.58l-8.53-.27s9,19.84,14.37,21.32l-.27,2.5s9.25,8.23,13.86,8.18l-1.08,1.9s14.92,9.55,21.6,7.31a46.5,46.5,0,0,1,11.9,12.9Z"/><path class="cls-5" d="M495.77,305.15s-6.39-9.6-14.42-16.35c0,0-3.88-12.22-10.82-17.83l.34,3.21s-3-6.93-11.56-12.73v3s-7.28-8.82-16.24-9.35l-7.54-.24s8.85,17.48,13.6,18.79l-1.43.72s10,9.13,14.07,9.1l-1.36,1.36s13.18,7.85,19.09,5.88c0,0,9,6.6,12.92,13.39Z"/><path class="cls-8" d="M451.24,264.17s21.47,14.13,26.58,21.68c0,0-19.71-15.7-27.32-19.61l-4.34,1.52,3.26-2.66-8.7-6.07,9,4.21"/><path class="cls-3" d="M706.17,487.37l11.75-16.25a37.56,37.56,0,0,1-20.43-12.28s-16.88-20.12-26-26.76-13.11-4.6-13.11-4.6l-9.27-5.65-3.62-13.22,17.46-8.77,13.62-2.45,23.9-14.91c49-30.4,72.93-40.2,93.08-43.15s45.71-4.26,66.95,20.77a56.65,56.65,0,0,1,11.43,52.79l4.52,19.55s10.43,9.77,21.87,35S892,504.42,892,504.42l18.76,19,20.69-5c27.51,5.11,30.82,35.71,1.58,42.5s-62.67-9.39-62.67-9.39l-41-8.22s-54.46-11.65-91.07.48C707.74,561,701,561.14,701,561.14l-18.51,2.63c-22.37,3.73-25.34-9.61-21.2-16.2s22.19-9.81,22.19-9.81L690.15,517l16-29.67"/><path class="cls-6" d="M643.39,394.11s-38.83-25.48-67.91-4.75c-32.93,23.47-11.45,62.26-.16,60.5,0,0,1.12,17.46,20.64,12.67s32.78-8.32,44.39-34.33"/><path class="cls-7" d="M636.17,403.91s-1-15.84-26.46-20.95C609.71,383,663.45,391.9,636.17,403.91Z"/><path class="cls-5" d="M585.9,462.14c11,2,36.39,1,50.9-29.63,0,0-20,30.91-54.66,27.06C582.14,459.56,582,461.41,585.9,462.14Z"/><path class="cls-7" d="M610.63,448.36s4.77-8.85-2.38-14.41-12.37,5.69-24.19,9.42-30.55-22.81-5.12-56.66c0,0-34.42,21.21-14.74,57.33C564.19,444,586.69,466.11,610.63,448.36Z"/><path class="cls-10" d="M748.74,354.62s56.7-30.37,88.76-11.57c30,17.58,31.21,50.36,31.21,50.36s-8.34-33.47-37.23-47.31S748.74,354.62,748.74,354.62Z"/><path class="cls-5" d="M690.63,450a69,69,0,0,0-7-7.72C686.22,445,688.63,447.67,690.63,450ZM925.26,562.25c-2.85.27-6,.43-9.36.46A56.08,56.08,0,0,0,925.26,562.25Zm-43.54-5.59s-3.38-1.86-9.16-4.56c-2.55-.85-5.63-1.81-9.19-2.8A163,163,0,0,1,881.72,556.65ZM696.4,457.14s-2.27-3-5.77-7.13a38.25,38.25,0,0,1,2.46,3.6c4,6.76,11.75,12,19.19,14.58C707.23,466,700.79,462.42,696.4,457.14Zm-24.94-25.05a134.93,134.93,0,0,1,12.14,10.2,84.85,84.85,0,0,0-11.05-9.73Zm46.33,121.51c11.44-11,8.6-8.71,15.91-14.31,37.55-28.77,115.65,2,138.86,12.8,5.2,1.74,8.15,3,8.15,3l29,7.53q3.22.1,6.14.07A57.61,57.61,0,0,1,894.54,558c36.47,7,55.92-19.62,55.92-19.62a3.85,3.85,0,0,1,1.57,1.27c-2.08-9.07-10.06-17.67-14.3-19.12-9.73-3.32-27,2.88-27,2.88l-8.54,4.47c-10-.29-19.76-5.06-25.35-8.36a3,3,0,0,1,.29.86c-70.54,22.63-67.31-38.13-67.31-38.13s-7-3.51-6.79-20.29,22.08-22.49,22.77-29.61,3.39-11.13,4.21-17.57-6-7.53-6-7.53c24.83.34,17.59,6.22-1.92,62.82-2.83,8.22,3.5,28.5,14.58,37.25,9.38,7.41,25.28,7.07,33.76,8.46a14.78,14.78,0,0,1,1.91.44l19.53-10.72c1.67,4.91,18.88,17.91,18.88,17.91l-17.06-19.31,6.68-10.39c6.13-32.6-23.93-61.21-23.93-61.21l-4.25-16.26c8.94-29-9-53-9-53-43.95-54.82-122.27-8-146.42,9.33-6.47,4.64-12.64,8.66-18.23,12.08-14.37,8.28-23.86,14.17-30.72,14.79-1.83.39-4.55-1.56-5.79-1a4.18,4.18,0,0,0-3.33,3.39,15.25,15.25,0,0,0,1.4.88,7.28,7.28,0,0,0-2.42,2.81c-8.36,11.79-8.88,18.18-5.55,20.67l2.11-20.45,6.54-2.9c3.52,3.83,27.55.49,27.55.49-6.06,2.32-13.67,6.9-13.28,12.85.5,7.84,7.3,17.17,11.72,22.47,6.94,6.7,13,14.75,17.52,20.13,9.1,10.76,25,8.32,25,8.32-3.2,3.5-10,3.52-17,1.13a57.34,57.34,0,0,0,7.78,2.78c-25.56,19-21.44,67.74-21.44,67.74-9-1.36-34.36,5.22-34.36,5.22-12,17,5.11,20.62,6.65,21.36s41.5-7.13,41.5-7.13M707,394.35s1.28-.26,3.39-.65c55.14-34.18,68.46-34.8,68.46-34.8,42-10,64.39,18.12,64.39,18.12-12.73-6.79-43-14-64.66,8.79-7.37,7.74-22,8.53-29.28,5.42-7-3-30.16.85-38.9,2.46l-3.24,2Zm88.35-14.86c-16.62,40.06-21.42,28.16-46.68,20.37-6.44-2-24.86-5.79-24.86-5.79s13.51.13,22.28,2.12,21.55,5.52,33.48-2.41S795.39,379.49,795.39,379.49ZM756.23,483.84s12.14-5.07,21-1.82C777.26,482,766.72,501.66,756.23,483.84ZM952,539.61c1,4.37.63,8.85-2.18,12.69.37-.27.74-.52,1.12-.8C951,551.5,954.67,543.3,952,539.61Zm-26.77,22.63c13.56-1.28,21-5.1,24.58-9.95A53.75,53.75,0,0,1,925.26,562.25Zm-52.93-46.06-.3.17s1.81,1.36,4.82,3.14C876.39,518.55,875.22,517.06,872.33,516.19Z"/><path class="cls-6" d="M828.08,470.95s-7.16,11-3.64,20.48c3.47,9.31,17.85,15.46,32.62,15.66,13.06.18,29.24-5.18,35.35-16.61,10.58-19.78-14.33-63.11-43.76-66.15,0,0-11.5.64-15.51,8.64,0,0-10.37,13.44-14.77,17.1s-14.91,21.08,2.39,27.44Z"/><path class="cls-11" d="M669.69,397.76"/><path class="cls-7" d="M824.42,484.23c-1.37-5.59,5.18-13.81,5.18-13.81-.21.1-.44.25-.67.39,2.52-2.51,4.56-5.43,4.67-8.39,0,0-2.36-6-7.43-1.09s-12.94,2.78-12.11-6c0,0-7.37,11,5,22.75a52,52,0,0,0,5.8-3.77,22,22,0,0,0-4.05,6.49c-3.5,8.73-3,21.5,12.57,29.81,30.41,16.26,53.39-4,53.39-4C846.85,520.2,827.32,502.49,824.42,484.23ZM883,483.14c-22-17.06-45.5-3.12-45.5-3.12C862.12,473.77,883,483.14,883,483.14Z"/><path class="cls-8" d="M685.45,538S691.69,510,702,500c0,0,2.62-8.68-.91-3.28-14.16,14.1-19.16,40.58-19.16,40.58Z"/><path class="cls-12" d="M766.7,457.36"/><path class="cls-5" d="M794.2,369.78s-25.74-1-47.83,10.21C746.37,380,768.3,363.12,794.2,369.78Z"/><path class="cls-7" d="M584.26,386.59s-10.37,11.11-2.77,31.94S562.32,409.75,584.26,386.59Z"/><path class="cls-8" d="M676.23,395.66s-2.39,3.79-9.54,2.06l-3.76,2.14s8.46.43,13.36-1.24Z"/><path class="cls-8" d="M780.7,385.76s.15-.25.45-.69l.69-.58c14.7-12.92,28.63-15,43.33-12,6.34,1.27,11.77,3.63,19.14,6.22a94.12,94.12,0,0,1,19,28.12c-3.72-13.57-7.64-21-15.09-28.77-22.67-23.7-48.66-26.47-72.3-19.93-29,8-54.62,29.41-68.9,36.26-23.6,11.32-36.48,10.8-40.75,10.11,12.6,2.55,24.63-.68,36.86-6.48,7.94-3.07,21.29-7.74,28.27-7.39,10.33.52,18.07,3.18,25.09,3.43,6.59.23,12.78.71,23.19-7.72Zm-28.2,5c-17.72-2-22.5-5.89-34.62-.7,18.89-11.1,38.93-25.17,62.76-31.12,22.64-5.65,44.62,3.15,59.52,15.93-6.1-3.89-20.52-11.14-37.13-6.16C781,375.3,776.21,393.44,752.5,390.74ZM943.57,520c-7-4.1-20.07-2.07-31.2,2.36-2.61-1.91-13.32-10.14-16.88-19A26.74,26.74,0,0,0,902,491c5.71-27.64-21.05-57.24-21.05-57.24-.52-.61-1.05-1.18-1.59-1.73a35.71,35.71,0,0,0-1.24-10.27c-2-7.75-3.73-9.5-3.73-9.5s4.79-15.83.53-30.34S836.61,296,723.74,367.57l-53,31.4c-3.5-3.82-13.63-4.35-23.48-5.39a9.42,9.42,0,0,0-1.74,0c-2.12-1.61-32.24-23.94-63.33-13.32,0,0-25.58,10-26.11,42.71-.28,17.18,6.7,24.9,15.16,27.77.33,3,3.19,15.91,27.73,12.16,27.55-4.21,39.83-28.46,42.47-34.47.29.12.58.24.89.33C650,431,661,427.85,661,427.85s17.83,7.88,30.4,24.47,22.05,18.68,25.36,19c0,0-12.21,14.73-15.78,26.13l1,3.76a38.58,38.58,0,0,1,4.51-12.52c3.78-6.79,11.37-16.66,17.37-19.24,0,0-13.61,2.92-27.31-13.45s-24.4-28.79-39.16-30.54l-.58-.18c-5.81-6.17-.33-18.59,4.63-23.52s8.43-3.29,9.28-2.72l-1.09.64s4.2,2.43,27.42-11.92,94.6-67.49,141.43-42.3c31.77,17.08,35.88,42.74,33.52,65.42-17.05-9.32-31.59-1.39-31.59-1.39a22.41,22.41,0,0,1-8.31-17.08s-2.5,5,1.64,13.63c0,0-5.5-.48-9.7,1.21,0,0,12.22-.84,14,6.31l.53-.9c-5.67,10.35-5.59,17.68-5.43,19.74a25,25,0,0,0-2.23,2.63c-5.68,5.56-17,16.79-18.35,19.48-1.67,3.28-7,14.4,2.67,22.71,1,.85,2.62,1,3.95,1.75-3.91,5.75-5.56,14.63,3.13,27.34,9.54,14,30.39,16.44,48.45,11.41,4.19,2.42,17.46,9.47,31,10.12a36.86,36.86,0,0,0-4.11,3s18.82-10.69,31.11-10.32,24.73,14,21.48,25.76S918.41,565.81,894.54,558s-125.86-40.68-176.74-4.36c0,0-12.28,6.72-20.33,6s-27.59,8.7-34.81.35,1.23-23.26,41.35-19.66c0,0-18.91-7.44-35.64-.3s-9.15,31.45,10.73,26.14,25.1-.07,39.49-10.23,60.32-30.6,170.64,3.47c0,0,10.47,1.77,15.76,3.87s33.82,1.7,45.73-8.67S954.22,526.31,943.57,520ZM634.29,416.37s.28,7.2,4.94,10.79c-1.25,3.86-8.91,24.16-33.79,32.22-24.17,7.83-27.56-4.29-28-7.38a40.56,40.56,0,0,0,16.06-2c4.58-1.54,9-1.32,12.1-7,1.95-3.64-1.64-4.71-5.08-2.49-2,1.27-2.62,5.06-5.31,6.4,0,0-19.26,8.45-30.5-6.08s-1.57-48.06,20.47-56.59c21.06-8.15,53.87,9,56.75,10.5C634.22,399.36,634.29,416.37,634.29,416.37Zm187.09,80.79c-6.57-16.84,8.22-26.74,8.22-26.74a20.57,20.57,0,0,0-2.08,1l.56-.5s-.62.47-1.58,1.11l-.94.61c-2.69,1.7-6.82,3.87-8.72,2.59-2.95-2-8.77-16.18,1.37-23.76a51.07,51.07,0,0,0,9.95-10.17c2.36-2.49,9.58-9.27,19.89-11.3,6.89-1.36,18.49.38,24.09,3.93,21.48,16.55,36.8,51.8,22.46,66.43C873.67,521.73,828,514,821.38,497.15Zm80.37,30.61c-2.87-.53-18.76-3.78-26.85-11.39a54.19,54.19,0,0,0,16.6-9.15c3.41,4,11.83,13.57,16.18,17.1l.74-.21A57.76,57.76,0,0,0,901.75,527.77ZM833.6,462.42c-2.72-4.35-4.4,4.82-4,8C829.6,470.42,836.32,466.76,833.6,462.42Zm-167.31-58c-.54-.11-1.09-.23-1.63-.36A11,11,0,0,0,666.3,404.46Zm90.16,51.67A88,88,0,0,1,794,459.19s-23.32-20.29-67.49,9c0,0,7.78-4,15.52-7.49A74.72,74.72,0,0,1,756.45,456.13ZM777.26,482c-9.08-6.58-21,1.82-21,1.82A58.72,58.72,0,0,1,777.26,482Z"/><path class="cls-8" d="M319.1,298.87l-10.59,9.77,1.19,2.06L307.92,320l1.6.79-2.26,3.35-.56,13.49,2.27-.3-3.28,5.93s5.69,17.18,12.38,17.71c0,0,5.95-14.53,4.61-18.2l2.64,1.25-2.36-18,3.82.27s-1.25-23.15-2.86-27c0,0-.58-6.43,9.23-15.54l-3.61-3.37s-1.95.69-2.23,1.47S318,296.09,319.1,298.87Z"/><path class="cls-3" d="M329.34,281.68s-7.62,7.43-9.42,17.7l-9.09,9.18s-.69,4.51-1.38,9.87c-.13,1,2.14-.3,2,.77-.11.86-2.61,4.11-2.7,5-.54,5-.88,9.65-.5,11.26l4.68-2-5.53,8.34s4.24,14,10.07,16.85c0,0,5.58-12.1,3.15-20.44l3,2.59-3-18.52,3.84,2.37s.69-18.92-1.56-24.48,8.17-15.06,8.74-16.6Z"/><path class="cls-8" d="M723.59,331.08a45.11,45.11,0,0,1,12.81-13.81s2.88-10,10-14.53l2.17-.13s1.21-3.94,10.14-8.49l-.48,3.71s7.14-7.58,17.14-7.07l8.44.63s-6.85,15.79-12,16.5l.53,2.13s-8.32,6-12.9,5.5l1.27,1.71s-13.22,7-20.08,4.49c0,0-6.83,3.64-10.46,9.66Z"/><path class="cls-3" d="M726.89,329.24A54.61,54.61,0,0,1,739,317.43s2.47-9.48,8.5-13.34v2.55s2.16-5.3,9.72-9.16l.3,2.45s6-6.41,14.51-6l7.14.53s-6.67,13.25-11.06,13.85l1.43.72s-8.59,6.41-12.47,6l1.42,1.23s-11.75,5.07-17.56,2.91c0,0-7.87,4.47-10.95,9.56Z"/><path class="cls-5" d="M681.37,361s12.67-4,16-20-5-31.33-17.67-46c0,0,10.33,12.67,13,24.67S699.37,342.68,681.37,361Z"/><path class="cls-5" d="M765.74,469.55c.38,0,2.17-.74,1.27-.74-.38,0-2.17.74-1.27.74Z"/></g></g></svg>