<?xml version="1.0" encoding="utf-8"?>
<!-- Generator: Adobe Illustrator 22.1.0, SVG Export Plug-In . SVG Version: 6.00 Build 0)  -->
<svg version="1.1" id="Layer_1" xmlns="http://www.w3.org/2000/svg" xmlns:xlink="http://www.w3.org/1999/xlink" x="0px" y="0px"
	 viewBox="0 0 1280.8 652.2" style="enable-background:new 0 0 1280.8 652.2;" xml:space="preserve">
<style type="text/css">
	.st0{fill:#FFCCCC;}
	.st1{fill:#870815;}
	.st2{fill:#EDD8C5;}
	.st3{fill:#E0B8A4;}
	.st4{fill:#FFD0C3;}
	.st5{fill:#E8B2A6;}
	.st6{fill:#CE958D;}
	.st7{fill:url(#SVGID_1_);}
	.st8{fill:#EDD1B2;}
	.st9{fill:#FF4E58;}
	.st10{fill:#FFEAE6;}
	.st11{fill:#CE2939;}
	.st12{fill:#FFF9EE;}
	.st13{opacity:0.67;fill:#FFFFFF;}
	.st14{opacity:0.49;fill:#FFFFFF;}
	.st15{opacity:0.25;fill:#FFFFFF;}
	.st16{fill:#FFFFFF;}
</style>
<title>Asset 4</title>
<g id="Layer_2_1_">
	<g id="Layer_1-2">
		<rect x="0" y="0" class="st0" width="1280.8" height="652.2"/>
	</g>
</g>
<path class="st1" d="M927.6,392.3c0,0,43.8-3.5,59.9,15c16.1,18.4-46.1,27.6-67.9,33.4c-21.9,5.8-76,31.1-100.2,33.4
	S619,493.7,619,493.7s-256.8-9.2-284.4-16.1c-27.6-6.9-66.8-35.7,1.2-31.1C403.6,451.1,927.6,392.3,927.6,392.3z"/>
<path class="st2" d="M871.6,183.3c0,0-13.4-19.2-47-11.5c-25.2,5.8-77.2,27.3-145.8,38.9c-22.9,3.9-47.7,9.1-73.8,9
	c-110-0.6-177.2-14.8-177.2-14.8s-58.7-8.3-63.5,26.3c-4.8,34.5,403.8,32.6,403.8,32.6L871.6,183.3z"/>
<path class="st3" d="M670.3,213.9c0,0-8.2,5.1-5.6,11.8c2.6,6.7,7.2,10.2,11.8,6.7s13.8-15.9,32.2-13.8c18.4,2,20,2,25.1-2
	s12.3-10.7,20.5-7.7c0,0,15.9-14.3,33.3-7.7c17.4,6.7,6.1-5.1,25.6-16.4c19.4-11.3,42.5-4.6,31.7-13.8l14.3-1l5.6,11.3l-76.8,34.3
	L754,231l-87.1,11.5c0,0-5-18.1-22.5-26.2L670.3,213.9z"/>
<path class="st4" d="M384.4,230.8c0,0-9.4-2.6-33.3-0.9c-20.9,1.5-38.8,28.1-37.9,50.3c0.9,22.2,3.4,44.3,24.3,58.8
	c0,0,9.4-39.2,32.8-46c23.4-6.8,62.7,13.2,62.7,13.2s99.3,43.9,191.8,42.6s165.8-26,165.8-26s83.1-34.1,131.3-67.4
	s18.2-115.1-50.5-79.7c0,0-18.6,7.2-27.1,17.5c0,0-37.9,38.4-209.7,47.7C567.5,244.7,508.5,240.1,384.4,230.8z"/>
<path class="st3" d="M594.7,220.7c0,0,2.3,1.5,0,5s-2.7,6.7-2.7,6.7s0.4,1.9-6.5,1.5c-6.9-0.4-72.6,1.2-84.1-7.7l18.4,16l83.3,2.3
	c0,0-9.6-11.5,0-24.2L594.7,220.7z"/>
<path class="st5" d="M940,231.8c0,0,10.2-26.9-6.8-50.3c0,0,4.7,22.2-2.1,33.3s-12.8,8.5-19.2,17.5c-6.4,9-32.6,7.9-32.6,7.9
	s12.6,15.1,10.4,35.6c0,0,20.5-11.1,30.3-23.9C929.7,239,940,231.8,940,231.8z"/>
<path class="st5" d="M583.6,272.7c0,0-11.5-6.8-13.6,5.1c-2.1,11.9-2.6,26.9,1.7,28.1c4.3,1.3,13.2-12.4,13.2-12.4l-13.6,31.5
	l-17.1-29.8l9.8-35.8l23.9,5.1L583.6,272.7z"/>
<path class="st6" d="M938.9,224.3c0,0-16.8,22.5-28.7,27.1c-11.9,4.6-28.8-9.6-28.8-9.6s9.2,15,8.8,32.6
	C890.3,274.4,939.6,242,938.9,224.3z"/>
<path class="st5" d="M847.5,251c0,0,11.1,24.7-3.4,35.8c-14.5,11.1-27.3,12.8-25.2,0c2.1-12.8-4.3-38.4-4.3-38.4s6.4,34.1-9,49.4
	s-36.4-9.2-36.4-9.2s-9.6,31.3-25.4,31.8c-15.8,0.4-29-10.7-29-10.7l-11.5,28.6c0,0,114.7-16.9,170.5-57.1
	C873.9,281.2,860.7,257.8,847.5,251z"/>
<path class="st5" d="M573.9,250c0,0,26.6-2.1,35,15.6s-1.5,37.6-6.9,45.3s-16.2,23.3,6.1,23.5c0,0-27.6,7.9-28.4-8.9
	c-0.8-16.9,28.6-38.6,20-51.2C591.3,261.7,573.9,250,573.9,250z"/>
<linearGradient id="SVGID_1_" gradientUnits="userSpaceOnUse" x1="638.3244" y1="494.5246" x2="638.3244" y2="231.4525">
	<stop  offset="0" style="stop-color:#FFFFFF"/>
	<stop  offset="0.224" style="stop-color:#FFF4D6"/>
	<stop  offset="1" style="stop-color:#FFF4D6"/>
</linearGradient>
<path class="st7" d="M334.6,342.6c0,0,8.5-49,42.2-49.9c33.7-0.9,88.2,27.7,88.2,27.7s103.6,36.2,166.7,29s153-10,261.3-76.1
	c0,0,27.3-16,38.4-35.6c11.1-19.6,60.1,7.7,59.3,65.6c-0.9,58-23,92.9-55.4,109.6c-32.4,16.6-188.4,97.2-357.2,78.9
	c0,0-13.6,0.4-24.7-4.7s-26.9-5.5-33.7-3.8c-6.8,1.7-48.6,4.7-65.6-0.4s-67.8-11.9-81-12.8c-13.2-0.9-56.7-23.4-72.9-66.9
	c0,0-38.8-83.1,11.9-135.1C312.1,268,304.4,314.1,334.6,342.6z"/>
<path class="st2" d="M724.1,337.8c0,0-14.6,3.8-26.9,22.3c-12.3,18.4-30.7-0.8-38.4-1.5c-7.7-0.8-18.4-5.4-29.9-1.5
	c-11.5,3.8-24.6,19.2-49.9,16.1c-25.3-3.1-27.6-18.4-27.6-18.4s-20,10.7-40.7,0c-20.7-10.7-20.7-13.1-32.2-3.8
	c-11.5,9.2-30.5,36.3-49.1,26.9c-25.7-13.1,0-48,0-48s7.7-15-8.4-22.6l21.5,2.3l23,39.2l13.8-24.6l26.9,10l115.2,6.1L724.1,337.8z"
	/>
<polygon class="st6" points="466.6,290.2 488.4,307.8 490.7,326 471.9,319.4 453.9,296.3 "/>
<path class="st8" d="M970.5,245.6c0,0,14.6,45.3-14.6,74.5C926.8,349.3,771.7,390,771.7,390s-216.5,39.2-281.8,26.1
	s-118.2-19.3-149.7-78.4l-12.3,10.8l-23-47.6l4.6-27.6c0,0-35.3,38.4-18.4,103.6c16.9,65.3,59.7,85.5,59.7,85.5l63.1,12.8l138.2,6.1
	l225.7-11.5l190.4-83.7C968.2,386.1,1018.9,295.5,970.5,245.6z"/>
<path class="st9" d="M879.2,240.1c-9-12.8-24.9-24.9-48-22.4c0,0-9.6,1.3-2.6-8.3c7-9.6,11.5-18.5,24.9-24.9c0,0-5.1-1.8-12.1-1.5
	c-11.7,0.4-28.6,4.8-35.8,22c0,0-2,4.3-1.6,12.4c0.6,11.3,5.5,11.9,5.5,11.9s-9.4-4-17.1-13.8c-7.7-9.8-15.6-7.7-15.6-7.7
	c-12.2,2.5-14.3,14.6-7.7,23.8c5.1,7.2,16.3,12.1,27,12.4c0,0,3.3,14.2,2.6,21.4c-1.3,12.5-7.7,20.8-12.1,18.2
	c-9-5.2-24-23.6-28.1-39.7c-4.9-18.9-6.1-28-16.4-24.8c-10.2,3.2-9.5,10.2-9.5,10.2s-16.8-7.5-34.7-1.7
	c-17.9,5.8-11.3,35.8-2.6,47.7c9,12.3,3,52.4-15.6,49.9c-18.5-2.6-18.5-20.5-18.5-20.5s7.7-20.5,7-32c-0.2-3.9,1.5-10.3,0.6-17.3
	c-1.7-13.8-8.4-30.3-24.9-37.4c-10.5-4.5-21-4.4-27.7-2.7c-5.3,1.4-7.9,4.1-7.9,4.1s-17.1,14.1-3,23.9c6.1,4.3,19.2,24.3,21.3,43.9
	c2.3,21-5.3,36.4-7.2,39.6c-1,1.6-4.3,5.5-10.1,8.2s-14.3,4.2-25.5-4.1c0,0-7-1.9,7-17.3s19.2-42.2,2.6-55
	c-16.6-12.8-42.4-11.2-49.5,2.8c-7,14.1-3.6,31,8.5,57.9c0,0-29.4,16.6-58.2-26.2c0,0-5.1-6.4,2.6-10.2c7.7-3.8,26.9-15.3,23-36.4
	c-3.8-21.1-44.8-26.9-67.1-28.1c-22.4-1.3-56.9-7-65.2,14.1c0,0,26.2,9.6,39.6,38.4s-1.9,30.1,9,42.8s-1.9,22.8-3.8,34.3
	c-0.8,4.8-0.9,10.6,0.6,14c2.1,4.7,8,4.7,14.7,1c11.5-6.4,23.7-22.4,23.7-22.4s7.7-15.3,0.6-21.1s-10.9-15.3-9.6-21.7
	c1.3-6.4,3.2-14.1,12.1,0.6s25.6,42.8,48,47.3c22.4,4.5,41.6-6.4,41.6-6.4s6,27.5,39.9,20.5s43.3-40.9,43.3-40.9s14.7,32.6,32,32.6
	c13.6,0,27.9-13.9,34.3-29.1c1.7-4.1,0.7-8.3,1.5-12.4c0,0,22.4,21.7,39.6,5.8c17.3-16,14.7-26.9,14.7-26.9s7.7,14.7,24.9,14.7
	c17.3,0,23-28.8,21.7-41.6c-1.3-12.8-6-16.7-0.3-17.4c5.8-0.6,38,4.6,49.5,24.4s19.2,16.6,22.4,10.9
	C890.7,274,891.6,257.8,879.2,240.1z M457,274c-8.5-3-6.4-14.1-10.7-25.2c-4.3-11.1-20-14.1-20-14.1s23,1.7,43.1,3
	c20,1.3,26.4,12.8,26,22.6C494.9,270.2,465.5,277,457,274z M570.4,315.3c-13.6-20-10.7-36.2-7.2-40.9c3.4-4.7,18.7-7.5,23.8,7
	c2.1,6.1-0.2,9.3-3.8,16.2C578.3,307.3,570.4,315.3,570.4,315.3z M645.4,294c0,0-9.5-36.3-16.6-44.8c-6.8-8.1-4.8-7.5-0.7-7.2
	c4.1,0.3,9.6-0.6,11.8-0.8c9.3-0.6,9.8,7.6,9.8,7.6C658.6,283.4,645.4,294,645.4,294z M746,284.9c-1.9,11.5-5,17.5-14.6,11.8
	c-9.6-5.8-32.4-37.7-20-47.2c12.5-9.6,24.9,3.8,24.9,3.8S747.9,273.4,746,284.9z"/>
<path class="st1" d="M308.6,276.3c0,0-15.4,12.6,16.3,71.4c5.4,10,5.8,26.4,15.4-10.1C340.3,337.7,307.6,339.6,308.6,276.3z"/>
<path class="st5" d="M421.2,259.9c0,0,12.4,31.1-14.1,27.3c-26.4-3.8-25.6-14.9-46.5-10.2c-20.9,4.7-49.4,37.5-46.5-8.1
	c0,0-11.1,45.6,21.3,71.2c0,0-1.7-24.3,20-40.5c21.7-16.2,75.9,5.1,75.9,5.1S439.5,287.6,421.2,259.9z"/>
<path class="st10" d="M376.7,242.7c0,0-15.3-9.6-31.7-1.9s-24,21.1-23,30.7c1,9.6,20.1,9.6,29.7-2.9c9.6-12.5,38.4,8.6,42.2,1
	C397.8,261.9,386.3,248.5,376.7,242.7z"/>
<path class="st3" d="M990.5,294.5c0,0,8.6,52.8-84.4,95s-219.6,66.2-274.3,66.2c-54.7,0-65.2,0-65.2,0s-17.3-10.6-33.6-7.7
	c-16.3,2.9-32.6,2.9-43.2,2.9c-10.6,0-142.9,0-193.7-58.5l22.7,38.9l31.9,31.1l81.5,16.3l45.1,6.7l52.8-2.9l23.2,4.6l33.4,5.9
	l87.3-1.9l82.5-11.5l99.7-29.7l70-31.7l35.5-22.1l23-42.2l7.7-36.4L990.5,294.5z"/>
<path class="st6" d="M373.2,294c0,0-19.7-3.4-27.6,9.2c-19.2,30.7-29.2,5.4-33.8-0.8c0,0,6.7,31.5,23.7,37.6c0,0,5.5-39.9,37.7-42.2
	V294z"/>
<path class="st2" d="M835,304.4c0,0,23.8-12.7,31.5-10.4c7.7,2.3,18.4,4.2,25-3.1c6.5-7.3,10.7-11.5,5.8-19.2l-4.6-0.4l-8.8,13.1
	l-12.3-1.2L835,304.4z"/>
<path class="st11" d="M645.8,312.7c0,0-11.8,33.3-40.9,38.4c-29.2,5.1-39.4-17.4-39.4-17.4s0-5.1-6.1,1.5
	c-6.1,6.7-39.4,13.8-62.4-12.3c-23-26.1-20-35.3-33.3-36.3c0,0,19.4,23.5,27.1,39.4c0,0,21,27.1,43,23s29.8-6.8,29.8-6.8
	s15.3,24.7,36.3,18.5c21-6.1,25.1-10.2,25.1-10.2S652.9,332.1,645.8,312.7z"/>
<path class="st5" d="M670.3,254.5c0,0,5.4,11.9,5,21.9c-0.4,10-0.8,18.8,6.9,16.9c7.7-1.9,12.7-6.5,9.2-20.3c0,0,13.4,16.5,4.6,36.5
	s-17.7,15.7-17.7,15.7s-14.2-3.8-15.7-14.2s7.3-29.9,7.3-29.9L670.3,254.5z"/>
<path class="st11" d="M649.2,318.6c0,0,19.2,31.5,33.8,25.7c14.6-5.8,28.4-25.7,27.3-42.2l7.7,10c0,0-13.1,28-25,35.7
	c-11.9,7.7-19.9,9.1-32.2-8.1C648.4,322.5,649.2,318.6,649.2,318.6z"/>
<path class="st11" d="M459.2,288.6c0,0-13.8,6.5,1.9,29.6c15.7,23-15.4,39.9-15.4,39.9s-13.1,1.5-8.4-20c4.6-21.5-7.3,10.4-7.3,10.4
	v16.1l9.2,3.5l17.7-10.7l18-21.5v-16.9l-10.7-11.3l-1.2-11.8l3.6-5.8L459.2,288.6z"/>
<path class="st10" d="M928.5,192.1c0,0-10.2-21.7-37.1-14.1s-42.2,21.7-42.2,21.7s-1.3,10.2,12.8,6.4s29.4-9,44.8-6.4
	S933.6,208.8,928.5,192.1z"/>
<g>
	<path class="st1" d="M573.4,319.8c0,0-3.6,0,7-14.9s7.7-22.6,7.7-22.6s-0.3-12.5-12.9-14.4c-12.6-1.9-13.9,6.1-13.9,6.1
		c-3,14.3-1.5,26,5.8,39.4C574.2,326.9,573.4,319.8,573.4,319.8z M562.1,279.4c1.1-5.8,5-8.6,12.3-8.2c7.2,0.4,13.9,5.5,11.8,17.5
		c-2.1,11.9-15.8,26.6-15.8,26.6C557.8,294.2,561,285.2,562.1,279.4z"/>
	<path class="st1" d="M978.3,251.8c-16.5-24.4-31.7-24.9-35.5-24.6c2.4-10.3,4.6-38.6-16.1-55.3c-14.5-11.6-40.6-6.1-57.6,0.8
		c-4.3-3.1-17.2-11-48.1-2.3c-36.4,10.2-60,28.1-180.3,44.7c-12-3.5-24-1-24-1s-4.6,0.8-8.9,3.7c-11.3,0.1-74.2,0.3-140.6-8.5
		c-72-9.6-84-11.3-118.3,10.9c-6.4,5.3-13.9,13.2-13.9,13.2s-7.7,3.2-12.4,8.7c-7.3,8.6-11.9,18.1-13.7,28.1
		c-5.1,5.2-20,22.7-23.8,52.9c-4.7,36.7,1.3,49.4,1.3,49.4s27.3,87,73.7,95.1c46.5,8.1,64.4,10.7,64.4,10.7s50.3,11.1,79.7,7.7
		c29.4-3.4,29-3,40.1,0.9c11.1,3.8,26,6.8,26,6.8s82.3,8.1,174.8-8.5c92.5-16.6,165.8-55.8,196.9-72.5
		c31.1-16.6,39.2-46.5,46.5-70.8C995.8,317.5,997.1,279.5,978.3,251.8z M392.2,205.8c28.1-3.8,58.4,6.8,92.9,9s96.9,9.1,119.8,5
		l0.7-0.3c-1.1,1-2.2,2.2-3,3.6c-4.5,7.4-2.6,12.8-2.6,12.8s-0.7,1.2,4.3,7.5c-6.5,0-48.1-1.8-84.3-3.3c0,0-0.5-0.8-0.5-0.8
		s-6.8-13.6-28.1-18.2c-27.1-5.8-64.7-6.9-64.7-6.9s-29-0.9-36.3,10.3c0,0-2.3,3.3-2.8,8l-0.1,0c-8.7-2.6-24.9-7.2-42.8-3.4
		C344.5,225.3,367.6,209.1,392.2,205.8z M958.7,393.4c-22.6,26-123.2,59.3-123.2,59.3s-42.2,16.6-108.3,29.8
		c-66.1,13.2-149.2,9.4-162.4,4.7c-13.2-4.7-32.4-9.4-45.6-7.2c-13.2,2.1-40.5,4.3-54.1,1.7c-13.6-2.6-37.9-6.4-52-9.4
		c-14.1-3-32.8-3.4-52.9-9.4c-20-6-41.4-31.5-41.4-31.5s-35.8-51.6-31.1-97.6c3.5-34.5,14.9-51.3,20.4-57.5
		c-0.8,8.4-0.1,16.7,1.3,23.9c3.4,17.5,10.7,31.1,18.8,37.5c8.1,6.4,6.4,1.3,6.4,1.3c-12.4-9-24.7-28.1-21.7-62.7
		c3-34.5,29-44.8,42.2-45.6c8.4-0.5,23,2,32.4,4c16.2,6.5,26.1,16.6,36.5,30.9c3.4,4.6,5.4,9.7,6.5,14.6c0.3,9.2-4.8,14.1-8.6,16.5
		c-6.9,0.3-17.9-0.3-35.7-2.6c-48.6-6.4-50.7,46.3-50.7,46.3c7.2,2.6,5.3-6.6,5.3-6.6s8.3-22.4,18.5-28.8c10.2-6.4,10.2-7,37.1-4.5
		c21.9,2.1,30.7,8.9,33.6,10.7c0.7,1,4.7,4.9,5.6,5.9c7.4,8-6,26.2-7.9,31.3c-1.9,5.1-3.1,17,4.6,21.5c7.7,4.5,26.5-12.7,26.5-12.7
		l-7.1,2.1c0,0-14.4,12.5-18.9,0.6c-4.5-11.8,9.3-25.9,9.6-35.5c0.3-9.6,1.4-9.4-1.2-17.4c-2.6-8-5.5-7.2-7.8-23.8
		c-2.2-16.6-14.1-27.8-25.3-38.7c-6.8-6.6-13.6-9.5-18-10.8c-0.3-0.9-0.9-4.2,3.6-9.3c5.4-6.1,16.9-8,41.2-7
		c24.3,1,71.3,3.7,82.8,24.7c4.9,11.2,2.1,20.3-3.8,27.1c-5.3,6.1-12.1,12.4-15.8,13.6c-7.7,2.6-5.1,9-5.1,9s9.8,20.9,30.7,28.1
		c20.9,7.2,28.6-0.2,28.6-0.2l-1.3-2.8l-3,1.7c-13.6,3.8-20.9,0.4-29.4-3.8c-8.5-4.3-23-18.8-21.7-25.6s9.4-2.1,22.2-17.5
		c12-14.4,2.9-26.2,2.1-27.6l81.4,2c0,0,5.6,2.8,10.1,8.6l-3.5-5.1c1.4,1.8,2.7,3.8,4,5.8c-0.2-0.3-0.4-0.5-0.6-0.7l1.1,1.7
		c5.6,9.1,9.7,19.1,9.7,19.1s2.6,6.7,1.9,19.2c-0.6,12.5-5.1,27-5.1,27s-3.4,10.2-12.5,12.9c-12,3.5-26.8-3.3-22-15.9
		c0,0-5.5,5.5-4.6,9.3c0.8,3.8,8.7,11.7,20.2,10.1c11.5-1.6,20.8-9.3,23-23.7c2.2-14.4,7-27.5-1.9-46.7c-9-19.2-13.4-21.1-17.9-26.2
		c-4.5-5.1-6.3-14.5,3.4-22c9.7-7.5,39.4-8.7,52.2,13.3s8,54,1,70c0,0-3.9,7.1,5.8,14.5c0,0-6.9-6.7,0.3-24.1
		c2.7-6.6,5.1-11.8,3.3-32.2c-0.6-7.3-2.4-13-3.9-18.4l0.6,2c0,0-0.5-3.2,12.9-4.4c4,1.2,5.2,4.7,5.5,7.3c0.1-2,0.3-4.8,1.2-7.7
		c0.1,0,0.1,0,0.1,0l1-2.2l-0.3,0c1.9-4.8,5.6-9.4,12.8-10.9c16.6-3.5,33.2,5.1,33.2,5.1c-0.3-9.3,5.2-12.4,11.3-11.8s8.7,11,8.7,11
		s3.7,13.2,10.1,27.3s19.2,23.3,19.2,23.3v-3.8c-12.1-9-20.3-23.6-23.4-37.1c-3.3-14.6-8.2-22-8.2-22s-5-5.8-13.3,0
		c-8.3,5.8-6.9,8.7-6.9,8.7s-16.9-6.5-31-3.7c-12.6,2.6-15.2,12.1-15.6,14l-18.9,1.6c-2.9-8.4-7.6-14.8-15.8-20.1
		c-1.9-1.2-3.8-2.2-5.7-3l2.7,0.7c0,0,74.8-8.3,118.9-24.9c43.7-16.5,73.3-29.2,102.6-15.7c-5.2,2.3-9.7,4.7-13.1,6.6
		c-2.9-0.8-15.6-3.9-29.1,1.5c-15.3,6.1-19.8,14.1-19.8,14.1s-8.6,14.4-0.6,28.1l0.2-1.4c0,0-5-6.3-0.5-20.3
		c4.5-14.1,27.2-20.5,27.2-20.5s10-3.2,19.4,0.5c-2.2,1.3-3.4,2.1-3.4,2.1l5-1.4c0,0,38.4-22.5,60.1-15.3
		c21.7,7.2,25.1,28.5,25.1,28.5s3,10.4-0.1,25.6c-4.5,7.4-20.2,30.8-49.1,47.5l-0.1,3.9c0,0,14.9-8,28.2-19.6
		c7.8-6.8,14.3-15.4,19.5-22.5c0.9-0.7,1.8-1.3,2.6-1.8c17.9,2.1,36.2,12.4,45.6,49.9C995,319.2,981.3,367.4,958.7,393.4z"/>
	<path class="st1" d="M706.5,336.2c9.1-12.4,10-24.5,10-24.5l-1.6-1.9c-7.4,27.5-24.3,41.2-35.8,41.6c-11.5,0.3-25.3-24.3-29.1-31.3
		s-6.4-14.1-2.9-1.3c-4.5,16.8-19.6,34.1-45.6,40.5s-37.5-20-37.5-20s-28.6,14.1-49,4.3c-20.5-9.8-40.5-45.2-40.5-45.2l1.3,6
		c0,0,15.8,34.1,39.6,42.6c23,8.2,41.6-1.7,43.3-2.6c5.4,14.1,23.4,18.8,23.4,18.8s15.5,6.7,39.5-6.9c2.1-1.2,4.4-5.1,6.2-6.4
		l27.9-2.8l7.7,5c0,0,13.2,14.3,31.1-0.4c2.1-1.7,6.7-9.1,8.3-10.9c100.9-11,173.8-57.8,173.8-57.8l-4.5-3.8
		C818.2,318.8,724.8,333.6,706.5,336.2z M632.1,346.5c11.4-9.6,15.2-19.8,16.3-23.9c4.5,11.2,14.1,20.5,14.1,20.5L632.1,346.5z"/>
	<path class="st1" d="M686.1,250.3c0,0,0.1-1.2-0.1-2.9C686,249.2,686.1,250.3,686.1,250.3z"/>
</g>
<path class="st1" d="M867.7,178.5c0,0-11.3,3.5-24.6,17.3c-12,12.5-16.4,19.8-11.3,20.2c5.1,0.3,21.6-3.6,41.7,16.6s17.9,40,17.9,40
	s1.3,10.2-7.4,14.1c-8.6,3.8-12.5-5.1-12.5-5.1l5.1,1.6c0,0,11.5,3.2,11.5-8.6s1.9-17.9-14.1-38c-16-20.1-42.8-16.3-42.8-16.3
	s-7.7,0.3-7.7-3.8c0-4.2,7.7-18.9,28.5-32.3L867.7,178.5z"/>
<path class="st1" d="M884,282.9c0,0-8,4.5-15-11.2s-39.2-28-39.2-28s-14-4-17.8,2.1c0,0,11-2.9,31.1,13.4s24,16,24,16
	s5.4,11.2,11.2,11.2S884,282.9,884,282.9z"/>
<path class="st1" d="M477.9,303.4c0,0-6-16.2-12.8-13.6c-6.8,2.6-4.7,20,0,24.3s11.9,13.2,6.8,23.4c-5.1,10.2-26,26-26,26l5.2-1.6
	c0,0,22.5-12,25.5-27.8s-10.2-19.6-12.4-26.4c-2.1-6.8-2.1-12.8,1.3-15.3s11.9,14.9,11.9,14.9L477.9,303.4z"/>
<path class="st12" d="M379.4,349c0,0,30.9,51.9,182,46.4c151.1-5.5,324.9-41.9,391.3-106.5c0,0,9.1-8.2,1.8,8.2
	c-7.3,16.4-45.5,55.5-224.8,87.4S458.6,399,458.6,399s-49.1-8.2-84.6-41.9c0,0-9.1-10.9-0.9-15.5S379.4,349,379.4,349z"/>
<path class="st1" d="M690.2,233.5c0,0-8.5,9.4,0.9,32.4c3,7.5,5.9,10.2,7.4,13.7c3.1,7.3,2.6,11.3,0.3,22.5
	c-3.4,16.6-10.2,20.9-10.2,20.9s-17.5,11.5-27.3-13.6l1.3-7.4c0,0-1.4,9.3,4.8,15.3c6.2,6.1,14.1,9.3,20.5,3.4
	c6.4-5.9,10.1-27.2,10.1-27.2s2.6-5.1-3.7-16.1c-6.2-11-10.2-17.6-9.9-34.8L690.2,233.5z"/>
<path class="st9" d="M437,236.5"/>
<path class="st1" d="M492.4,248.6c-1.8-3.2-4.8-6.4-9.6-8.3c-19.2-7.7-56.5-5.5-56.5-5.5s14.9,1.9,19.8,14.7
	c4.9,12.8,1.3,20,10.9,24.5c9.6,4.5,30.7-4.9,30.7-4.9S501.5,264.8,492.4,248.6z M468.9,271.6c-9.8,1.9-15.3-0.2-17.5-14.9
	c-2.1-14.7-10.7-19.4-10.7-19.4s32,2.3,39.2,4.9c7.2,2.6,11.7,8.7,12.1,16.6C492.6,266.7,478.7,269.7,468.9,271.6z"/>
<path class="st1" d="M606.5,218.4c0,0-7.4,0-9.3,9.6c-1.9,9.6,0.5,14.4,5.5,17.9l2.6-2.6C605.3,243.3,593.7,234,606.5,218.4z"/>
<path class="st1" d="M585.4,330.9c0,0-5.8-4.2,0.6-11.8c6.4-7.7,22.6-23.6,18.1-44.1s-23.2-24-30.2-25c-7-1-24.5,0.6-30,11.5
	c-4,8-6,18.8-1.3,35.3c1.7,5.9,5.4,12.4,8.5,19.8l-0.6,3.4c0,0,3.8-1,4.2-3.8c0.3-2.9-3.5-2.9-6.7-15c-3.2-12.1-7.6-32.2,2.3-42.7
	c9.9-10.6,35.1-2.7,35.1-2.7s11.8,7.4,14.4,18.5c2.6,11.2-0.3,24.3-12.1,38.4c-11.8,14.1-3.8,18.2-3.8,18.2H585.4z"/>
<path class="st1" d="M769.2,288.7c0,0-7.8,22.4-17.5,28.1s-28.7-1.5-37.9-12.8c-9.2-11.3,1,8.2,1,8.2s5.1,4.1,12.8,7.2
	c7.7,3.1,22.5,7.2,31.2-4.1c8.7-11.3,12.3-24.6,12.3-24.6L769.2,288.7z"/>
<path class="st1" d="M633.9,242.2c0,0-8.8,1.9-11.9-3.5c-3.1-5.4-5.8-2.7-1.9,1.2c3.8,3.8,12.3,12.3,14.2,20.3
	c1.9,8.1,11.9,35.3,11.9,35.3l1.5-3.1c0,0-10.7-35.3-14.2-40.3C630,247.2,627,243.7,633.9,242.2z"/>
<path class="st1" d="M630.9,242.8c0,0,3.3-3.1,12.8-1.3s10.5,6.7,12.8,9c2.3,2.3-0.3,3.6-3.1-0.3s-3.8-2.8-3.8-2.8s10.6,28.8-2.7,47
	c0,0-0.4,1.2-0.4-1.7s9.5-22,0.3-47.3c0,0-7.4-6.7-17.1,1.5l-5.1-4.9L630.9,242.8z"/>
<path class="st5" d="M737.5,262.9c0,0,4.2,21.9-2.3,23.4c-6.5,1.5-14.2-1.2-21.5-11.9c0,0,11.9,25,24.2,23.4S742.1,266,737.5,262.9z
	"/>
<path class="st13" d="M655,232.2c0,0-13.1-16.5-33.4-13.4c-20.3,3.1-15.4,16.9-15.4,16.9s4.2,4.2,4.2-1.5s-0.4-8.4,7.7-11.1
	c8.1-2.7,18-2.3,28.8,6.5C657.7,238.3,655,232.2,655,232.2z"/>
<path class="st1" d="M736.4,253.3c0,0-6.5-8.8-23-9.6c-16.5-0.8-6.1,3.1-0.4,3.1h3.8c0,0-10,2.3-9.2,12.7
	c0.8,10.4,5.8,22.5,13.4,30.7c7.7,8.2,20,18,24.2-1.2C749.4,269.8,736.4,253.3,736.4,253.3z M742.9,286.7
	c-1.5,13.8-11.1,10.4-17.3,4.2c-6.1-6.1-14.6-19.6-15.4-29.9c-0.8-10.4,11.1-13.4,11.1-13.4C736.8,250.2,744.4,272.9,742.9,286.7z"
	/>
<path class="st1" d="M860.4,274.4c0,0-45.7-37-45.2-23.2c0.5,13.8,4,30.3-9.5,46.6c-13.5,16.3-35.5-4.6-35.5-4.6l-0.9-4.5
	c0,0,23.9,23,35.7,4.5c11.8-18.4,6.7-37.9,6.7-42.5c0-4.6-0.4-7.8,10.4-7.8C832.7,242.9,860.4,274.4,860.4,274.4z"/>
<path class="st13" d="M428.7,220.7c0,0-15.5-2-24.8,4c-9.3,6,1,8.1,2,5.9c1-2.2,2-6.2,8.7-6.4S437.5,224.6,428.7,220.7z"/>
<path class="st1" d="M804.2,226.2c0,0-7.4-0.1-11.9-8.5c-6.5-12-15.5-9.2-15.5-9.2s-13.4,3.3-10,15.6s20.3,20,29.3,19.8
	c0,0,7.4-0.6,5.1,0.5c-2.3,1.2-6.1,2.3-13.4,0.8c-7.3-1.5-15.4-6.9-20.7-14.6s-3.8-15.4-0.8-19.2c3.1-3.8,12.7-8.8,20.3-3.8
	c7.7,5,10,15.4,19.6,17.7L804.2,226.2z"/>
<path class="st1" d="M796.5,245.4c0,0,6.9,17.7,0.8,28.7s-5.9,12.2-14,7.6v-3.8c0,0,8.3,7.2,12.2-5.3c3.8-12.5-1.3-27.1-1.3-27.1
	H796.5z"/>
<path class="st5" d="M541.9,265.8c0,0-9.5,17.4-4.4,35.4c5.2,18.3-33.8,1.2-33.8,1.2s18,16.9,27.3,16.9c9.2,0,16.9-3.1,16.9-3.1
	S531.1,284.3,541.9,265.8z"/>
<path class="st1" d="M559.8,343.5c0,0,10.7,14.6,25.7,17.3c0,0-17.3-7.7-22.6-20L559.8,343.5z"/>
<path class="st1" d="M681.5,354.3c0,0-13.4,2.3-27.6-16.5c0,0-5-4.6-8.1-10l2.6-5.2C648.4,322.5,664.6,351.6,681.5,354.3z"/>
<path class="st1" d="M471.1,292.1c0,0-1.5-6.1-10-6.1s-6.1,5.4-4.2,4.2s9.2-2.3,13.4,4.6S471.1,292.1,471.1,292.1z"/>
<polygon class="st1" points="765.2,223 755.6,227.5 756.3,231.3 765.5,226.8 "/>
<polygon class="st1" points="803.2,206.9 792,213 792.4,215.4 803.6,210.3 "/>
<path class="st1" d="M470.4,294.8c0,0-5-2.6-5.8,2c-0.8,4.6,2,12.3,6.1,15.4c4.1,3.1,15.4,15.1,2,31l3.6-15.9l-9.5-12.8l-5.4-12
	l1-8.2l4.1-4.1L470.4,294.8z"/>
<path class="st1" d="M652.4,335.7c0,0,3.6,9.2-2,10.2c-5.6,1,13,0.3,13,0.3L652.4,335.7z"/>
<path class="st1" d="M864.8,284.5c0,0,1-10.2-4.1-18.9l13.2,15.7L864.8,284.5z"/>
<path class="st1" d="M590.5,245.6c0,0,18.4,0.8,26.1,16.1c7.7,15.4,10.4,35.3,3.1,54.9c-7.3,19.6-19.6,20-19.6,20s17.3,0,22.3-16.1
	c5-16.1,6.5-37.2,0.8-50.3c-5.8-13.1-16.5-24.6-16.5-24.6H590.5z"/>
<path class="st1" d="M693.4,317c0,0,6.4-11.9,6.9-25c0.5-13.1-4.9-17.8-9-24.7s-7.1-24.9-7.1-24.9s-1.3,15.4,5.9,29.5
	c7.2,14.1,9.2,22,2.3,41.7L693.4,317z"/>
<path class="st1" d="M714.7,250.4c0,0,8.8-4.4,15.7,2.9s10.6,16.7,12.3,24.2c1.7,7.5-1.7-14.6-1.7-14.6l-10.4-13.2l-10.9-4.2
	L714.7,250.4z"/>
<path class="st1" d="M795.5,249.5c0,0-16.5-0.2-26.5-15.9s-2.5-20.2-2.5-20.2l-1.3,6.3l5.9,14.6l16.1,9.6l9.3,1.5L795.5,249.5z"/>
<path class="st1" d="M803,225.7c0,0-4.6-6.1-3.1-13.8c0,0-0.5-5.3,6.8-13.3c0,0-6.6,9.7-1.4,23.3C805.3,221.8,808.3,228.2,803,225.7
	z"/>
<polygon class="st1" points="493.8,328.5 473.8,322.4 471.5,316.3 489.2,322.4 "/>
<path class="st1" d="M768.2,297.4c0,0,18.4,11.5,31.1,5.4c0,0-17.3,0-29.9-11.9L768.2,297.4z"/>
<path class="st1" d="M764.4,306.7c0,0-5,15.4-14.2,18c-9.2,2.7-20.3,2.7-35.3-6.9l1.5-7.3l25.3,11.1l13.8-4.6L764.4,306.7z"/>
<path class="st1" d="M805.3,221.8c0,0,3.8,4.4,2.5,6.1c-1.3,1.8-7.2-1-10-3.8S806.6,227.5,805.3,221.8z"/>
<path class="st13" d="M883.1,258.8c0,0-5.7-16.4-19-26.3c0,0-2.1-0.7-2.1,1.1c0,1.8,3.4,3,7.6,8.7c4.1,5.7,10.2,14.4,11.2,18
	C881.8,263.9,884.6,261.9,883.1,258.8z"/>
<path class="st13" d="M739.1,223.5c0,0-2.1,3.6-2,9s2.5,1.6,1.9,0.7c-0.6-0.9,1.4-7,1.4-7S742.4,221.5,739.1,223.5z"/>
<path class="st1" d="M917.9,250.6c0,0,28-23,20-58.7l5.4,15.7l-2.7,20.7L917.9,250.6z"/>
<path class="st1" d="M717.9,318.6c0,0-5.4,8.8-2.3,12.3c3.1,3.5,89.8-14.2,134.7-41.8c0,0,18-6.1,4.6-28c0,0,13.1,3.8,13.8,19.6
	c0,0-24.2,24.2-64.5,34.9c-40.3,10.7-94,23-94,23l-6.9-0.2l11.5-20.6L717.9,318.6z"/>
<path class="st1" d="M851.5,170.8c0,0,7.3,1.5,5.4,5.8s-14.6,5-14.6,5l13.3,1.5l16.3-7.6L851.5,170.8z"/>
<path class="st1" d="M770.2,208c0,0-11.9,4.6-9.2,17.3l4.2-0.4C765.2,224.9,762.9,214.2,770.2,208z"/>
<path class="st1" d="M886.5,250.6c0,0,4.2,4.2,5.8,10.7c1.5,6.5,14.2-0.8,14.2-0.8l-15,11.8L886.5,250.6z"/>
<path class="st1" d="M410.5,216.1c0,0-15,0.4-24.6,8.4c-9.6,8.1-23.4,3.8-23.4,3.8l27.8,5.1C390.3,233.4,391.7,219.5,410.5,216.1z"
	/>
<path class="st1" d="M544.1,309.3c0,0,2.3,9.6-7.7,8.4c-10-1.2-23.4-5.8-33.8-17.3c0,0,10,17.7,29.9,21.1c0,0,22.3-1.9,20.3-5
	C551,313.6,544.1,309.3,544.1,309.3z"/>
<path class="st1" d="M565.2,269.4c0,0-5.4,1.3-9.4,14.8c0,0,0.4,2.7,1.2,1c0.8-1.7,5-9.6,5-9.6L565.2,269.4z"/>
<path class="st1" d="M572.3,271.2c0,0-8.7,1.3-9,15.6s4.6,22.3,7.2,22.5s9-4.9,9-4.9l-9,12.8c0,0-10.5-15.1-10.2-30.7
	C560.6,271,568.8,270.7,572.3,271.2z"/>
<path class="st1" d="M669.6,285.5c0,0-6.1,18.9-0.5,27.6c5.6,8.7,14.3,9.7,22.3,2.3c0,0-1,6.1-3.8,7.2c-2.8,1-6.1,6.2-16.9,0.3
	c-6.9-3.8-10-10.7-10-16.9S669.6,285.5,669.6,285.5z"/>
<path class="st1" d="M741,269.4c0,0,2.7,20-4.6,22.3c-7.3,2.3-13.1-3.1-13.1-3.1l9.6,8.8l7.7-0.8l4.2-15.4L741,269.4z"/>
<path class="st14" d="M844.9,188.8c0,0-5.4-3.3-13.8-0.8c-8.4,2.6-18.7,8.2-22,17.1c-3.3,9-3.6,13.6-1.8,19.4c0,0-6.2-7.2-1.6-19.7
	c4.6-12.5,20.8-18.2,20.8-18.2s10.5-5.9,24.3-2.3L844.9,188.8z"/>
<path class="st1" d="M765.5,226.8c0,0-5.6,1.4-4.6,9.9c1,8.4,15.4,37.9,25.1,38.6c9.7,0.8,10.7-8.7,10.7-8.7l-1,7.4l-5.9,9l-13.3-9
	L764,256.6l-9.2-26.6L765.5,226.8z"/>
<path class="st13" d="M580.5,258.7c0,0-12.3-6.5-20.3,0.4s-9.6,17.7-9.6,17.7S556.3,256.8,580.5,258.7z"/>
<path class="st13" d="M785.9,212.6c0,0-11.1-1.9-13.1,4.6s0,10.4,3.8,13.4c3.8,3.1-3.8,3.8-7.3-6.1s6.9-13.8,6.9-13.8
	S786.3,209.5,785.9,212.6z"/>
<path class="st15" d="M635.3,278.1c0,0,12.8,20.5-3.3,47.3c-16.1,26.9-34.3,25.1-49.1,19.2c-16.6-6.6-9.2-10.7-9.2-10.7l6.7,5.6
	c0,0,29.4,17.1,46.6-11c14.1-23.1,8.4-41.5,8.4-41.5S629.1,270.5,635.3,278.1z"/>
<path class="st13" d="M718.2,229.8c0,0-15.9-4.6-22,2c-6.1,6.7-7.4,9-5.9,21.2c1.5,12.3,6.9,16.1,6.9,16.1s4.1,1.3,0.8-5.1
	c-3.3-6.4-6.4-14.1-4.9-21.5c1.5-7.4,6.4-11.3,11.3-11.3c4.9,0,15.6,3.6,15.9,1.8S723.1,230.5,718.2,229.8z"/>
<path class="st15" d="M445.4,333.5c0,0-7.3,10.4-2.7,15.7s-0.4-5.4,5.8-13.1C453,330.5,453.5,323.2,445.4,333.5z"/>
<g>
	<g>
		<path class="st16" d="M309.5,192.2c1.9,0,1.9-3,0-3C307.6,189.2,307.6,192.2,309.5,192.2L309.5,192.2z"/>
	</g>
</g>
<path class="st1" d="M490.3,251c0,0-9.2-6.9-26.5-8.4c-17.3-1.5-18.8-0.4-18.8-0.4l-6.5-4.6C438.5,237.6,484.9,233,490.3,251z"/>
<path class="st1" d="M648.3,248.2c0,0-3.1-2.8-8.7-2.8s-8.7,3.8-8.7,3.8l-4.6-4.9l10-2.6c0,0,13.6,0,13.3,5.6"/>
<path class="st1" d="M652.7,343.9c0,0-3.1-12.3-10.7-9.2l5-8.4l13.4,15.4L652.7,343.9z"/>
<path class="st1" d="M542.4,317c0,0,3.8-3.3,0.5-14.8c-3.3-11.5-6.9-22-0.5-38.1c0,0-4.9,27.1,7.2,47.3l1.6,5.2L542.4,317z"/>
<path class="st1" d="M847.3,264.2c0,0,19.1,6.5,6,23c-13.1,16.5,8.2-2.6,8.2-2.6l2.8-11.1l-7.9-9.3H847.3z"/>
</svg>
