<svg xmlns="http://www.w3.org/2000/svg" viewBox="0 0 1286 862.75"><defs><style>.cls-1{fill:#e1f4fd;}.cls-2{fill:#96c8ec;}.cls-3{fill:#a7c339;}.cls-4{fill:#fbb788;}.cls-5{fill:#f4a976;opacity:0.61;}.cls-6,.cls-7{fill:#f3995b;}.cls-6,.cls-9{opacity:0.71;}.cls-8{fill:#f6989a;}.cls-10{fill:#f9a265;}.cls-11{fill:#fecf0a;}.cls-12{fill:#fcc6a0;}.cls-13{fill:#f6d5d5;}.cls-14{fill:#ba6128;}.cls-15{fill:#b8682f;}.cls-16{fill:#ffd72e;}.cls-17,.cls-19{fill:#fcb432;}.cls-17{opacity:0.43;}.cls-18{fill:#d2ab2a;}.cls-19{opacity:0.18;}.cls-20{fill:#c67138;}</style></defs><title>Asset 9</title><g id="Layer_2" data-name="Layer 2"><g id="Layer_1-2" data-name="Layer 1"><rect class="cls-1" width="1286" height="862.75"/><path class="cls-2" d="M964.64,537.13c-18.84,1.25-29.76,1.67-41.06.84,0,0-23-5-27.88.42s9.42,10.86,24.11,11.7,38.8,1.25,51.61-3.34S983.47,535.87,964.64,537.13Z"/><path class="cls-2" d="M829.61,551c8.62-5.72,46.38-2.48,66,.75-11.58-2.25-34.84-7.13-40.76-11.19-8-5.47,2.21-11.44,7.53-11.44s21.7-3.48,18.15-8S852,512.53,854.26,509s9.89-7.29,25.39-8.29,27.45-2,48.26,1,29.22-6.47,29.22-6.47,3.1-9.95-21.25-8.46-48.71,9.95-75.72,2.49-12-14.42-12-14.42a78.3,78.3,0,0,1,14-4.25c-14,1.27-34.21-5.94-43.22-5.2,0,0,12.84-5.47,34.1-5.47s34.54-4.48,31.44-7.46-11.51-11.44-43-9.95S811.46,451,811.46,451L470.95,463.45s-8,8-27.9,6-36.75-8.4-82.36-7.91-22.63,15.84,0,15.92c16.69.06,15.31-.06,36.64-1.39s22.88,4.82,22.88,4.82c3.1,10.45-6.83,12.42-23.21,13.41s-40.74,4-40.74,4,43.39,2.49,52.69,8,12,7.46.89,8.46-64.65-1-87.23,1.49-23.91,3-27.9,8,34.1,4,60.22.5,60.22-5.47,62.88,1S374,539.05,374,539.05s40.29-2.49,72.62,2c0,0,10.63,2.49,14.61,4.48s7.08,5.47,11.51,8,9.3,7.46-6.2,9.45-19.93,0-19,7.46,25.24,6.47,31.44,4,6.64-3,11.07-8.46,21.25-3,21.25-3,13.28,0,23,2,24.35,7,5.76,11.44-23,3.48-34.1,9,8.41,12.93,26.12,11.94,26.12,0,32.77-7,2.38-13.41,21.7-15.92c43.06-5.58,83.69-1.49,92.54,12.93,0,0,.46-6,11.07-10.45,9.87-4.15,15.94-5.47,26.12-2.49s17.71,3,20.37,10.94,21.25,7.46,21.25,7.46a128,128,0,0,0,18.6-2.49c8.86-2-2.66-8.46-12.84-9.95s-21.7-7-13.28-10.45,11.51-2.49,18.6-3,19.93-6.47,27-5.47,19-1,32.77,6,12,17.91,40.74,17.41S896,578.35,896,578.35s2.66-5.47-18.6-9.45S819.87,557.46,829.61,551Z"/><path class="cls-2" d="M895.61,551.74c4,.78,6.62,1.24,6.62,1.24C900.4,552.58,898.16,552.16,895.61,551.74Z"/><path class="cls-2" d="M447.48,595.48c-23.62-5.06-31.88-1.9-31.88-1.9s-19.48,1.9-19.48,8.86,13,9.49,35.42,11.39S471.1,600.54,447.48,595.48Z"/><path class="cls-2" d="M434.54,460.77a56.08,56.08,0,0,0,19.88-2.15c2.1,0,4.15-.1,6.08-.21,17.06-.93,9-16.8,3-16,0,0-16.39-3.91-29.6,3.54-11.07-.66-15.31.49-15.31.49s-19.48,1.35-19.48,6.28S412.11,459.42,434.54,460.77Z"/><path class="cls-2" d="M293.73,560.18c9.9,3.59,32.42-2.21,44.39-6.86s29.94-8.61,29.94-8.61l-42.7,6S283.84,556.6,293.73,560.18Z"/><path class="cls-2" d="M656.48,615.15c-16.53,3.32-7.68,13.26,17.71,12.6s27.75-9.28,9.45-28.52C683.64,599.24,673,611.84,656.48,615.15Z"/><path class="cls-2" d="M957.58,448c-11.81-6-25.39-7.29-30.11,3.32S905,463.29,905,463.29C949.32,464.61,971.21,454.92,957.58,448Z"/><path class="cls-2" d="M430.65,551.49C440,549,440.4,546,440.4,546s-8.41,2-12.84,2-16.83,0-12.84,3S421.36,554,430.65,551.49Z"/><ellipse class="cls-2" cx="593.58" cy="599.07" rx="10.41" ry="4.22"/><ellipse class="cls-2" cx="953.07" cy="514.62" rx="10.41" ry="3.22"/><path class="cls-3" d="M615,539.46s-11.43-7.78-28.35-18l3.51-1.29L577,515.69c-31.73-18.58-76.17-41.49-104.34-42.76,0,0-47.76,2.86-41.39,12.16s20.38,0,49,7.87-12.74,11.45-31.2,11.45-20.38,9.3-20.38,9.3c-7.64,9.66,12.42,16.09,43.94,2.15,0,0-7.64,7.51,29.61,6.44,32-.92,22.42,9.24,19.08,12.12-11,1.24-21.91,2.48-29.58,4-27.7,5.36,27.7,16.09,55.4,6.44S615,539.46,615,539.46Z"/><path class="cls-3" d="M836.62,493.86l1-.28A5.15,5.15,0,0,0,836.62,493.86Z"/><path class="cls-3" d="M902.77,515.58c-27.7-2.41-39.4,2.41-64-2.41S831.36,500,837.57,500s7.88-2.15,18.63-1.61,2.87-3.22-10.75-3.49c-9.18-.18-9.56-.73-8.84-1.06L664.36,543.75s16.56,5,12.74,10.73-15.28,10,4.46,12.88,39.48-3.58,25.47-9.3-14-12.88-.64-12.88,21.65-5.72,34.39-2.86,18.47,4.29,18.47,4.29-10.19-9.3,6.37-7.87,14.65,1.43,28,8.58,36.93,0,36.93,0,19.74-5-8.92-9.3-22.29-7.15-9.55-9.3,13.05-2.68,9.71-4-7.4-6.44,4.54-5.9,27.22,1.61,40.36,4.56,36.54,3.49,48,1.88S930.47,518,902.77,515.58Z"/><path class="cls-3" d="M399.46,553.93s-15.35-4.47-39,1.28,5.31,12.14,17.71,11.5S422.48,562.87,399.46,553.93Z"/><path class="cls-3" d="M727.88,616.2c-10.63-.75-21.25-7.5-21.25-7.5s-3,7.5,8.27,13.5S738.51,616.95,727.88,616.2Z"/><path class="cls-3" d="M960,566.19c-13,0-51.36-1.5-51.36-1.5,22.43,9.75,41.92,12.75,56.68,10.5S973,566.19,960,566.19Z"/><path class="cls-3" d="M891.49,484.42s45.46.75,30.11-8.25-23-5.25-23-5.25C855.48,476.17,891.49,484.42,891.49,484.42Z"/><ellipse class="cls-3" cx="424.09" cy="576.51" rx="10.41" ry="4.22"/><path class="cls-3" d="M620.95,549.8s-15.35-3.69-39,1.05,5.31,10,17.71,9.48S644,557.17,620.95,549.8Z"/><path class="cls-3" d="M310.87,482.33c-21.86-1-19.4,9.59-6.11,10.7s26.48-3.53,57.59-3.5C362.35,489.53,332.74,483.36,310.87,482.33Z"/><path class="cls-4" d="M838.73,411s4.93-4.93-2.46-18.89c0,0,7.37-9.85-3.3-29.56,0,0,7.37-42.7,7.37-65.69V239.17L641.79,179.43s-5.61-2.66-8.75,4a12.56,12.56,0,0,0-13.76-4.88c-9,2.46-122.24,40.26-183.82,69l-1.59,233.2s-4.08,11.5,11.52,17.25c0,0,4.94,4.11,14.79,8.21s50.09,18.89,57.48,20.53a90.89,90.89,0,0,0,20.53,9.85c10.67,3.28,78,20.53,78,20.53s5.75,3.28,18.89.82,46.8-11.5,49.27-14,29.56-5.75,41.88-12.32c0,0,18.06,2.46,36.13-4.93s15.6-12.32,28.74-13.14,23.81-4.93,30.38-9.85c0,0,13.14-1.64,17.24-9C838.73,494.73,846.12,426.58,838.73,411Z"/><polygon class="cls-5" points="623.07 548.17 629.97 259.17 479.61 371.6 435.2 446.84 438.23 485.4 584.45 541.96 623.07 548.17"/><path class="cls-6" d="M628.94,467.12s-2.07,60.7-53.8,54.49S517.2,475.4,517.2,475.4s-6.9,15.86-24.83,9.66,3.45-44.14,3.45-44.14-17.1-19.19-8.9-38.56c0,0-9,12.35-15.24,16.49,0,0-17.1,30.46-37.52,43.51l1,16.5s-2.76,10.35,2.41,12.76c0,0,4.48,5.86,11.38,6.55,0,0,8.28,7.36,39.66,17.82s29.31,10.46,29.31,10.46,13.79,8.28,20,10.35l75.29,18.74,22,2.64s-6.9-6.9-7.59-27.59S628.94,467.12,628.94,467.12Z"/><path class="cls-4" d="M547.89,441.95s-34.49,8.28-43.45-4.83-17.24-22.53-9-45.06c0,0-14.48,9.2-7.59,32.65s31.73,30.35,50.35,26.21S547.89,441.95,547.89,441.95Z"/><path class="cls-7" d="M537.09,415.51a18.71,18.71,0,0,1-5.34-2.11c-4.63-2.71-9.89-8.58-5-20.65,0,0-6,14.25-12.87,12s-5.52-11-5.52-16.09-7.36,19.77-.92,33.11,17.93,10.35,17.93,10.35-12.87-7.13.69-11.27S537.09,415.51,537.09,415.51Z"/><path class="cls-8" d="M734.81,393.32s-4.83-1-7.93-6.9l-6.9,7.93Z"/><g class="cls-9"><path class="cls-10" d="M702.39,410.68a31.83,31.83,0,0,0-1,3.94C704.6,409.58,702.39,410.68,702.39,410.68Z"/><path class="cls-10" d="M683.08,462.18c7.82-20.23,13.33-21.15,26.21-19.31s20.69-2.76,26.21,2.3,22.39,8,22.39,8c4.92-4.84,9.34-4.36,16.24-5.28a16.08,16.08,0,0,1,12,3.68s-1.84-8.28,2.76-9.66,19.89-9.66,6.49-35.87c0,0,5.92,27.13-12.93,33.11L779,441.26l.77,1.12c-16.15,5.72-34.61.9-41.47-7.33a16.89,16.89,0,0,0-5.84-4.74,22.32,22.32,0,0,1,10.43,6.58L753,441.95s-21.61-14.71-24.37-30.81l.69-7.59s1.15-4.83-3.45-3-6,6.44-6,13.79S717,432.64,706,426.26c0,0,4.2,9.25,16.15,4.66a17.53,17.53,0,0,1,3.15-.89c-.85.39-10.89,4.83-19.25.43-5.89-3.1-5.51-11-4.64-15.83-.37.59-.81,1.26-1.34,2C695,424,683.08,462.18,683.08,462.18Z"/><path class="cls-10" d="M627.89,454c0-.22,0-.35,0-.35Z"/><path class="cls-10" d="M633.83,271c0-9,5.62-8.55,8-8,18,32.86,76.53,40.18,96,42.39,20.23,2.3,63-7.82,77.71-8.28a41.65,41.65,0,0,1,24.83,7.36c.46-45.06-115.41-37.7-140.7-30.35-20.28,5.9-46.48-7.42-56.06-12.93l13-37.81-32.07-14.48L534.33,382.17l6,11.27s-1.66-4.54,12.83-9.71,30-24.83,30-24.83c12.41-2.07,17.59-13.45,37.24-37.24S633.83,282.35,633.83,271Z"/><path class="cls-10" d="M686.3,534.83c-12.87,0-14,.23-14,.23s3.91,9.43-5.75,10.35S627,558.74,623.3,548.17s-2.3,9.2-2.3,9.2,10.58.46,16.55-.46S681.24,544,681.24,544l-1-1,12.52-2.2,30.81-9.2s-20.23-1.84-35.18-16.09C688.37,515.52,699.17,534.83,686.3,534.83Z"/><path class="cls-10" d="M838.73,411s1.61-16.27-4.94-18.69l-6.55-2.41s10.23,4.83,6.67,12.76c0,0,3.68,25.17,2.64,34.83s0,37.93-2.07,52.42c0,0-.69,5.86-3.1,5.86s-3.1,1.72-6.21-.34L821,502.65l9.31-2.07,8.39-5.85.92-28S845.39,431.39,838.73,411Z"/><path class="cls-10" d="M802.4,322.63c31-1.38,30.35,18.39,30.35,18.39l.69,2.3s15.86-33.8-15.63-33.57S763.32,327,763.32,327L761,341.94S771.36,324,802.4,322.63Z"/><path class="cls-10" d="M811.6,386.31l-13.61-3,.5-.06s-10.58-9.54-4.37-15.06,4.83-6.21,4.83-6.21-21.15-2.3-12-8.74L776,354c0-.2,0-.32,0-.32-12.42.46-14.94-11.73-14.94-11.73,1.15,11.27-13.56,5.75-26.44,3.45s-25.75,4.14-25.75,4.14a13.53,13.53,0,0,1,14.25,9.66c1.38,4.83-5.52,8.28-5.52,8.28,11-.69,9.23,5.77,9.23,5.77-7.87,7.76-24.14,20.65-45.79,21.13-31,.69-53.8,22.76-7.59,13.1q2.31-.48,4.5-1c24.71-5.15,24.47,4.25,24.47,4.25,2.35-18.57,20-18,20-18l9.31.86C744.5,374.21,760,375.21,760,375.21c8.74,5.06,10,1,10,1C780.1,379.53,786.08,390,786.08,390c-12.51-23.51-18.85-26.26-20.69-26.51a9.5,9.5,0,0,0,5.68-2.08l-1.43,2.26c4.25,1.72,23.45,37.76,23.45,37.76,9.31,6.38,16,24,16,24l14.2,11.73C792.86,400.57,811.6,386.31,811.6,386.31Zm-81.45-15.21.26-.45.11-.06Z"/><path class="cls-10" d="M720.29,488.28a10.84,10.84,0,0,0-2,1.26Z"/><path class="cls-7" d="M791.6,463.67c-1.38,1.15-9.66,8-17.93,8s-19.77-4.6-19.77-4.6a6,6,0,0,0-5.06,2.3c-1.92,2.24-22,14.81-28.54,18.86,4.18-2.12,15.26-5.72,37.28-.85,29.43,6.52,43.91-8.24,43.91-8.24s4.83-7.47,17.24-4l-15.63-10.35S793,462.52,791.6,463.67Z"/><path class="cls-10" d="M835.85,372.29s-1,10.69-12.76,9.66-14.71-.34-31.5-2.07c0,0,1.8,2.19,6.9,3.33,11.88,2.67,34,6.09,37.77,8.88C836.26,392.09,842.06,374.36,835.85,372.29Z"/></g><path class="cls-11" d="M741.48,345.52c-.44-.71-1.11-1.79-1.84-3.06a3.68,3.68,0,0,1,2.41-.52l-5.31-5a24.41,24.41,0,0,1-1.24-3.25c-1.38-4.83-4.83-4.83-4.83-4.83s-3.45-7.59-8.28-6.9-17.24-11-22.42-11.38-.34,1-.34,1,2.07,3.45-3.1,1.38l-5.17-2.07s2.76,5.52-3.1,2.41a99.94,99.94,0,0,1-12.76-8.62s4.83,10.35-4.83,6.9a175.24,175.24,0,0,1-20-9s7.59,4.83,4.14,5.86a16,16,0,0,1-6.9.34s-6.9,4.14-9.31,3.45,4.48,3.45,4.48,3.45-.69,4.83-7.59,3.1-11-8.62-11-8.62-4.14,9.66,8.28,10.35c0,0-4.83,0-5.52,6.9s-4.83,4.14-4.83,4.14,5.86,4.14-.17,5.52c0,0,9.83,1.38,2.93,3.45,0,0,10.35,5.52-.69,7.59l4.48.34-.17,2.76-2.24,5.86s2.76-1.38,10.35-2.07c7.83-.71,9.66-2.07,9.66-2.07s5.52-.69-6.21,6.21a81.71,81.71,0,0,1,17.24-3.45c5.36-.41,7.51-1.32,8.38-2l-1.48,2s3.45,2.07,10-.69,5.86-3.79,5.86-3.79,1.38,2.41,5.52,1,4.48-2.76,4.48-2.76a16.08,16.08,0,0,0,11.38,2.07c6.21-1.38,27.59-1.38,27.59-1.38l-.69-2.07h8.28l3.79.34,4.14-.69A32.4,32.4,0,0,1,741.48,345.52Z"/><path class="cls-12" d="M718.72,396.66c-9.66.46-13.33,11.73-13.33,11.73-5.06,15.63,2,18.57,2,18.57C702.74,408.27,718.72,396.66,718.72,396.66Z"/><path class="cls-12" d="M765.85,415.05c1.94,7.59-17.93,11.27-13.79,14.48s18.85,9.66,32.19-.46-2.76-29.43-2.76-29.43C773.43,385.39,751.59,359.18,765.85,415.05Z"/><path class="cls-12" d="M830.22,362.86c6.44,18.51-33.34,14.94-33.34,14.94s20.69,3.1,30.69.34S830.22,362.86,830.22,362.86Z"/><path class="cls-12" d="M805.8,482.74c-11.39,10.75-15.82,19-15.82,19s4.43,6.33,14.55-.63,13.71-3,16-16C820.56,485.06,817.19,472,805.8,482.74Z"/><path class="cls-12" d="M761.63,501c-23-8.47-38.11-4.23-38.11-4.23s-35.08,9.07-15.12,20,48.39,3.63,48.39,3.63S784.61,509.51,761.63,501Z"/><path class="cls-12" d="M663.07,421.33s-10,12,10,5.91,18.06-14,18.06-14C660.92,414.4,663.07,421.33,663.07,421.33Z"/><path class="cls-12" d="M824.3,403.73c-8.65-5.49-17.4-6.71-8.19,6.07,0,0,1.37,5.88,5.28,9.42C830.15,427.13,832.95,409.22,824.3,403.73Z"/><path class="cls-12" d="M805.85,430.45c-.69,15.63-6.21,19.77-6.21,19.77l7.59,8.28s16.55,18.85,13.79,6.9S805.85,430.45,805.85,430.45Z"/><path class="cls-12" d="M724.52,474.08s10.58-10.19,11.73-13.24-.11-8.29-5.84-8.56-26.83-7.32-33.77,10.25,0,28.1,0,28.1S708.59,470,724.52,474.08Z"/><path class="cls-12" d="M688.6,387.46c22.76-2.07,31-16.55,31-16.55-14.48,9.66-19.31,6.9-29,10.35S665.84,389.53,688.6,387.46Z"/><path class="cls-13" d="M717.74,394.36"/><path class="cls-14" d="M813.09,330.56s7.59,0,11.73-5.52c0,0,3.45,3.45-3.45,6.9l.69-2.07S816.54,331.94,813.09,330.56Z"/><path class="cls-14" d="M821.07,332.28l.71-2.13c-1.26.43-5.74,1.78-8.76.57l-.83-.33h.89c.07,0,7.55-.07,11.59-5.45l.12-.16.14.14a3.38,3.38,0,0,1,.87,2.78c-.26,1.6-1.73,3.08-4.37,4.4Zm1.26-2.7-.67,2c2.3-1.21,3.58-2.54,3.81-4a3,3,0,0,0-.65-2.33c-3.28,4.21-8.61,5.15-10.77,5.36,3.34.74,7.89-.95,7.94-1Z"/><path class="cls-11" d="M781.71,353s17.24-3.45,28.28.69l4.83,2.07s1.38-2.07,5.52.69c0,0,2.07-2.76,8.28,1.38s7.59,1.38,7.59,1.38a19.08,19.08,0,0,0,9.66,2.76s-6.21-2.76-2.07-3.45c0,0-2.07-4.14,5.52-3.45,0,0-5.52-3.45.69-5.52,0,0-4.14,0-.69-6.9L841,340.56s-4.14-.69-3.45-2.76,1-4.14-1.55-3.79-6,.52-6,.52,2.76-.86,2.07-4.31a10.88,10.88,0,0,1-5.52,2.07c-2.76,0-1-4.66-1-4.66s-7.59,2.93-10.17,3.1-4.66-1.9-4-5.35A13.5,13.5,0,0,1,801,328.84l-2.59-.86s3.28,3.62-1.55,3.62l-3.45-1.38s2.76,3.45-6.9,3.45l-4.31.52s3.62,4.66-4.66,5.17c0,0,2.41,2.59-4,6.38,0,0,2.93,2.07-1.38,5.35,0,0,3.28-1.55,4.66,2.59A6.76,6.76,0,0,0,781.71,353Z"/><path class="cls-15" d="M694.12,313c4.14,2.76,9,6.9,9,6.9s4.83,2.07,2.07-.69c0,0-7.59-6.9-14.48-9C690.67,310.21,690,310.21,694.12,313Z"/><path class="cls-15" d="M673.42,310.9c-4.83-1.38-6.9-1.38-12.42-4.83a21.47,21.47,0,0,0-10.35-3.45,39.26,39.26,0,0,1,9,4.83c3.45,2.76,11.73,6.9,15.86,5.52s2.07-4.83,2.07-4.83,8.28,7.59,13.79,6.21A45.51,45.51,0,0,1,676.87,304s-3.45-2.07-1.38,2.07C675.49,306.07,678.25,312.28,673.42,310.9Z"/><path class="cls-15" d="M691.36,321.94s6.9,0,2.07-1.38-6.21-4.14-6.21-4.14C686.53,320.56,691.36,321.94,691.36,321.94Z"/><path class="cls-15" d="M681,319.18l-3.45-2.07a3.64,3.64,0,0,0,2.76,3.45C683.08,321.25,681,319.18,681,319.18Z"/><path class="cls-15" d="M681.7,326.77s-6.9,0-11.73-8.28,0,6.21,6.9,9S681.7,326.77,681.7,326.77Z"/><path class="cls-15" d="M631.35,317.8c8.28,3.45,10.35,1.38,10.35,1.38l.15-1.78.54.4s2.07-.69.69-2.07a42.53,42.53,0,0,1-2.92-3.45c.55.44,1.62.79,3.61,0a16.58,16.58,0,0,1,5.52-1.38,5.28,5.28,0,0,1,2-1c2.59,2.84,9.88,9.26,13.21,4.5,0,0-8,0-12.87-4.61a7.42,7.42,0,0,1,1.83-.22c2.76,0,4.83,0,2.76-1.38,0,0-5.52-2.76-7.59-2.07,0,0,2.07,2.76-.69,2.76s-3.45,1.38-3.45,1.38-3.45,2.07-6.21-2.07c0,0-2.52,4.43,3.32,9-1.38.34-7.28,1.57-10.91-1.46-4.14-3.45-6.21-5.52-6.21-5.52S623.07,314.35,631.35,317.8Z"/><path class="cls-15" d="M621,331.59s1.38,2.07,6.21,0,3.45-3.45,3.45-3.45l-2.07-1.38s1.38-5.52,4.14-6.21c0,0-6.55-2.07-8.45-4.48a10.09,10.09,0,0,0,4.31,5.86s-2.07,3.45-1.38,5.52S621,331.59,621,331.59Z"/><path class="cls-15" d="M644.46,360.56c9-5.52,14.2-2.16,18.28-4a16.15,16.15,0,0,0,4.48.32c8.28-.23,12.19-3.45,12.19-3.45s6.21,1.61,8-.23,2.53-.92,2.53-.92,16.09,4.6,39.08.23l5.75-.23s4-.81,1-3.35a2.3,2.3,0,0,0,1.26-.44s2.93,1.72,5,0c0,0-6.72-1.55-8.62-4.83,0,0-1.55-.52,0,1.72l1,.86a5.77,5.77,0,0,1-3.26.07l-.53-.24a24.48,24.48,0,0,0-2.55-1,18.34,18.34,0,0,1-3.49-2.63,13.75,13.75,0,0,0,3.37,4l.82,1.65a3.77,3.77,0,0,1-3-1.15c-1.38-1.38-2.07,1.15-2.07,1.15s-.92-4.6-3-4.83c0,0,.92,3.22,0,3.68a7.38,7.38,0,0,0-4.14.92c-1.84,1.15-2.53-.23-2.53-.23s-.46-1.38-1.38,1.15c0,0-4.37,1.15-3.45-3l.92-1.61s-6.9,6-12.87,6-4.14-.92-4.14-.92-2.53-1.38-4.14,0-3,2.76-7.13,2.53c0,0,2.53-1.84,2.53-3.45s-.69-.23-2.53,1.38a21.45,21.45,0,0,1-15.63,5.52,4.75,4.75,0,0,0,2.07-3c.23-1.84-3,.69-3,.69l-2.83,1.41c-6.91,2.51-20.28.89-22.23,4.79C638.25,363.32,644.46,360.56,644.46,360.56Z"/><path class="cls-15" d="M774.33,359.76c15.83,10.11,38.16,1.5,24.62,2.18a86.85,86.85,0,0,1-24.47-2.48c.08-.43.46-3-2.08-.45,0,0-1,3.79-9.48,2.93a8,8,0,0,0,3.79-6.21s.52-2.76-3.28,2.59-10.52,7.07-19.83,3.28c0,0-3.1-1-.34,1.38s10.17,3.28,16.55.52c0,0,2.41-.17,3.28,1.72s4.31,8.79,6.9,11c0,0-5.69-10.69-5.17-12.76,0,0,3.1-.69,6.55,5s14,18.11,22.24,39-9,30.69-9,30.69-20.17,10-37.59,1.38c0,0-5.35-3.79-7.93-7.07s-7.41-7.59-15.17-3.79-11.55,4.66-17.93-2.41-.17-19.66-.17-19.66,4.66-12.42,25.86-13.1l3.1-.17s.86-2.07-5.52-1-6.9.34-6.9.34,4.48-4.31,4.48-6.21-1.55-.17-1.55-.17a19.14,19.14,0,0,1-7.59,8.1s-7.93.34-14.48,12.24-4.66,15.17-10.35,23.11-10.69,9.83-10.69,9.83,2.41.17,10-6.38c0,0-10.86,25.35-10.17,35.69,0,0,2.41-15,13.1-38.62a53.26,53.26,0,0,0,4.48-9.14c1.38-4.14,1.21-6.21,1.55-2.24s-.17,9.14,6.38,13.1,17.24,1.21,17.24,1.21,6.9-.69,10.52,2.07,12.42,7.07,12.42,7.07a54.52,54.52,0,0,0,11.08,2.62c0,7.26-1.36,4.64-2.23,6.64s1.29,1.65,1.29,1.65c2.07-1.13,2.24-6.16,2.23-8.14,5.84.63,12.89.4,19.24-2.49a18.36,18.36,0,0,0,5.11,7.88c4.14,3.45.69-1.61.69-1.61-2.27-1.57-3.75-5.14-4.32-6.76a27.19,27.19,0,0,0,11-5.83c5-4.66,8.62-17.42,3.45-30.18,0,0-1.38-3.62,1.55.17s6.9,8.45,16,29.49c0,0,1-.86-1.21-5l-.69-3.28s12.07,11.9,14,12.59c0,0,2.24,1-1.72-2.93s-12.59-10.52-14.66-14.31-3.79-11.38-10.35-17.93c0,0-2.59-2.76-5.17-3.45,0,0-10.52-23.8-23.45-37.76C769.64,363.67,772.28,363.33,774.33,359.76Z"/><path class="cls-15" d="M677.91,395.74c6.21-1,23.45-4.48,23.45-4.48,25.24-7.81,31.37-24.78,32.53-29,.78-.52,1.55-1.08,2.31-1.67,0,0-.75.33-2.1.83l0-.15-.1.17c-6.84,2.54-29,9.46-53,2.59,0,0,29.68,13.31,52.33-1.44-14.73,25-33.92,27.34-45.78,29.37C675.49,394,677.91,395.74,677.91,395.74Z"/><path class="cls-15" d="M627.44,523.34l1.38-56.1s-2.3-3.68-2.3,3.22v19.77S624.22,533,627.44,523.34Z"/><path class="cls-15" d="M627.9,449.54c-.69,0-2.18,3-1.72,7.13,0,0,2.41,5.52,1.72-3C627.9,453.68,628.59,449.54,627.9,449.54Z"/><path class="cls-15" d="M718.26,489.54s18.16-4.83,31-2.3S761,493.68,775,492.53s26.44-15.4,26.44-15.4,9-7.82,18.62-1.15c0,0,3.22,2.07,3.22,8.51,0,0,2.3,2.07,1.38-3.45s-4.6-10.58-11-10.35-11.27,1.61-16.55,7.13-26.36,7.8-36.56,6.67C737.8,482,715.27,487.47,718.26,489.54Z"/><path class="cls-15" d="M743.09,469.42c5.52-1.15,7.59-4.31,7.59-4.31s2.07-1.72,5.17,0S769.64,470.85,779,468s10.69-6,14.14-6a18.37,18.37,0,0,1,7.24,2s7.24,2.87,4.48.58c0,0-7.59-4.89-11.73-4.31s-10,5.75-14.14,6-11,2.3-21.38-2.3c0,0-5.52-2.87-9,.29,0,0-1.38,2.87-9,4.31C739.64,468.55,737.57,470.57,743.09,469.42Z"/><path class="cls-15" d="M761,341.94s.23-12.42,3.91-14.25,0-3-1.61-.69a31.12,31.12,0,0,0-3,6.67s-3-8.28-5.29-9,.46,3.22.46,3.22S758.49,330.21,761,341.94Z"/><path class="cls-15" d="M729.29,403.56s-2.3,8,.23,14.71a13.87,13.87,0,0,0,2.53,3.68s2.3.92-.46-3.22-1.84-11.27-1.84-11.27S732.51,400.11,729.29,403.56Z"/><path class="cls-15" d="M817.81,309.75c4.14,0,.46-1.61.46-1.61-19.54.92-31.73,6-31.73,6-2.07,2.07,1.15,1.15,1.15,1.15C806.77,308.83,813.67,309.75,817.81,309.75Z"/><path class="cls-15" d="M737.8,314.58s3.68,2.3,1.38-.92c0,0-10.35-6.9-33.34-11.73,0,0-.92.69,1.61,1.38S725.15,307,737.8,314.58Z"/><path class="cls-15" d="M605.37,380.79c-2.76,4.14.69,2.3.69,2.3a35.59,35.59,0,0,1,12.64-7.82s1.38-1.61-3.22-1.84a44.54,44.54,0,0,1-9.2-1.61c2.76,2.53,9.2,3,9.2,3S608.13,376.66,605.37,380.79Z"/><path class="cls-15" d="M634.57,399.19c2.53-2.3-1.38-1.61-1.38-1.61a17.89,17.89,0,0,0-4.6,18.16c1.84.69.92-5.06.92-5.06C629.74,400.57,634.57,399.19,634.57,399.19Z"/><path class="cls-15" d="M515.94,490.92c.23,3.45,1.84,4.14,1.84,4.14s1.15-1.61-.23-7.82a35.71,35.71,0,0,1-.46-12C514.56,471.61,515.71,487.47,515.94,490.92Z"/><path class="cls-15" d="M510,387.23s-8.51,13.1-6.67,26.67c2.17,16,16.09,19.08,20.92,20s1.15-1.84,1.15-1.84c-12-.69-14.48-5.52-18.62-13.79s3.45-29.43,3.45-29.43Z"/><path class="cls-15" d="M554.1,434.13c3-.46,2.07-3-2.76-2.53s-3.68,10.58-3.68,10.58,2.53,7.59-21.61,7.36-33.57-13.56-37.7-27.82,6.44-30.58,6.44-30.58l-.92-.46c-13.1,14-8.32,31.43-5,39.57-2.83,2.13-7.72,8.35-8.38,10.78s.92,1.84.92,1.84A49.57,49.57,0,0,1,489.7,432c.81,1.76,1.41,2.78,1.41,2.78a41.4,41.4,0,0,0,3.77,4.74c-4.3,6.41-7.5,20-8.6,23.76-1.15,3.91,1.38,1.84,1.38,1.84,3.66-15.53,7.06-22,8.49-24.29,14.46,14.3,35,12.11,44.85,10.27,11-2.07,9-10.12,9-14S551.11,434.59,554.1,434.13Z"/><path class="cls-15" d="M534.1,392.29s-8.28-3.22-10.12,5.29,1.61,14.71,7.82,17.47,5.29.46,5.29.46c-4.6-1.84-12.64-6.44-11.27-14.71s6-6.9,6-6.9,6.67,3.68,8.51-.46-2.3-8.74-2.3-8.74C541.23,396.66,534.1,392.29,534.1,392.29Z"/><path class="cls-15" d="M522.6,424.25c16.78-8,18.16-.92,18.16-.92,0-8-9.66-4.14-14.71-2.53S522.6,424.25,522.6,424.25Z"/><path class="cls-15" d="M822.58,360.22c2.24,4.31,1.72-3.1-3.28-5.86,0,0-1.38-1-1.38.86S820.33,355.91,822.58,360.22Z"/><path class="cls-15" d="M699.63,311.76c2.07,1,8.28,1.72,20.86,11a13.09,13.09,0,0,1,2.24,4.66s2.07.52-.34-3.62c0,0,7.41-1.72,6.9,8.1,0,0,1.38-2.41,13.1-1.38,0,0-1.55-2.59-10-1.38l-1.9-.17s1-6.21-8.1-6.9l-1.21-.34A71.71,71.71,0,0,0,697.91,310S697.56,310.73,699.63,311.76Z"/><path class="cls-15" d="M743.09,335c-3.45-2.76-10.35-3.45-10.35-3.45-2.76,1.38,0,3.45,0,3.45s3.45,2.76,5.52,4.14,5.52,4.14,5.52,4.14c-.69-4.83-8.28-9.66-8.28-9.66l3.45,1.38S746.53,337.8,743.09,335Z"/><path class="cls-15" d="M736.19,341.25c-2.07-1.38-.69,1.38-.69,1.38,6.21,6.9,13.1,6.9,15.69,6s.17-1.21.17-1.21A15.64,15.64,0,0,1,736.19,341.25Z"/><path class="cls-15" d="M720.32,333a17.11,17.11,0,0,1-6.21-5.52,8.26,8.26,0,0,0,0,7.59l2.07,1.38a8.74,8.74,0,0,1-1.38-4.14A5.12,5.12,0,0,0,720.32,333Z"/><path class="cls-15" d="M624.45,337.11s7.59,0,4.14-2.76c0,0-8.28,2.07-12.42.69C616.18,335,616.87,337.8,624.45,337.11Z"/><path class="cls-15" d="M632.73,335.73s0,4.83-9,4.83c0,0-2.07,1.38,2.76.69s6.9-.69,8.28-4.83C634.8,336.42,634.8,334.35,632.73,335.73Z"/><path class="cls-15" d="M627.21,349.53c6.9-.69,7.59-5.52,7.59-5.52s0-1.38-.69-1.38c0,0-2.07,6.21-11.73,5.52C622.38,348.15,620.31,350.22,627.21,349.53Z"/><path class="cls-15" d="M638.25,351.6c4.83-1.38,13.1-6.21,13.1-6.21s4.83-2.76.69-3.45c0,0-8.28,6.9-17.93,9.66C634.11,351.6,633.42,353,638.25,351.6Z"/><path class="cls-15" d="M634.8,340.56c4.14,2.07,13.1-2.76,13.1-2.76a1.51,1.51,0,0,0-.69-2.07,33,33,0,0,1-9,3.45C634.11,339.87,634.8,340.56,634.8,340.56Z"/><path class="cls-15" d="M640.32,333.66s2.76,0,.69-1.38c0,0-10.35.69-13.79-.69C627.21,331.59,628.59,335,640.32,333.66Z"/><path class="cls-15" d="M648.59,353s1.38-2.07,0-2.07a50.1,50.1,0,0,1-10.74,3.48l-.29,0-.16.13a63.58,63.58,0,0,1-8.41,1.18c1.68-2,3.05-3.38,3.05-3.38-.69-1.38-1.38-.69-1.38-.69s-6.21,5.52-8.28,10.35.69,4.14.69,4.14c.39-3.14,3.25-7.18,5.63-10.07a16.45,16.45,0,0,0,6.85,0c-9.4,8-7,10.09-7,10.09,1.9-4.11,10.74-10.24,12.2-11.24C645.22,353.82,648.59,353,648.59,353Z"/><path class="cls-15" d="M705.84,328.84c2.07.69,1.38-1.38,1.38-1.38a11.64,11.64,0,0,1-4.83-2.76c-2.07-2.07-1.38-.69-1.38-.69A9.49,9.49,0,0,0,705.84,328.84Z"/><path class="cls-15" d="M698.25,331.59s-2.76-2.07-.69-2.76c0,0-4.83-1.38-6.21-3.45,0,0,0,4.14,3.45,5.52s-4.83.69-6.9-2.07c0,0,.69,4.83,6.9,4.83S698.25,331.59,698.25,331.59Z"/><path class="cls-15" d="M693.43,339.18s-2.07,2.76-7.59,2.07C685.84,341.25,693.43,345.39,693.43,339.18Z"/><path class="cls-15" d="M685.84,337.11c3.45-1.38,2.76-1.38,2.07-2.76,0,0-1.38,2.07-6.21,2.07S682.39,338.49,685.84,337.11Z"/><path class="cls-15" d="M665.84,344s7.59-4.14,10.35-4.14-1.38-2.07-1.38-2.07-6.9,2.76-9.66,5.52S665.84,344,665.84,344Z"/><path class="cls-15" d="M665.15,323.32c-5.52,1.38-12.42-4.83-14.48-6.9s-2.07,0-2.07,0A78.1,78.1,0,0,0,658.94,324C663.77,326.77,665.15,323.32,665.15,323.32Z"/><path class="cls-15" d="M635.49,324.7s1.38,4.14,10.35,2.76,4.83-3.45,4.83-3.45S643.08,328.15,635.49,324.7Z"/><path class="cls-15" d="M651.35,330.9s-1.38,3.45,5.52,2.76,6.21-2.07,6.21-2.07l-.69-1.38S658.25,333.66,651.35,330.9Z"/><path class="cls-15" d="M663.08,335.73s-4.83.69-5.52,3.45,2.07-.69,2.07-.69a13.9,13.9,0,0,1,4.14-1.38C665.15,337.11,663.08,335.73,663.08,335.73Z"/><path class="cls-15" d="M667.91,333s3.45,2.07,4.83.69-1.38-1.38-1.38-1.38v-2.07Z"/><path class="cls-15" d="M661.7,344s-4.83,4.14-11,3.45C650.66,347.46,659.63,350.91,661.7,344Z"/><path class="cls-15" d="M705.84,337.11c4.83-2.76.69-3.45.69-3.45s-3.45,3.45-6.9,3.45C699.63,337.11,701,339.87,705.84,337.11Z"/><path class="cls-15" d="M809,349.7s.07.16.18.41C809.28,349.75,809,349.7,809,349.7Z"/><path class="cls-15" d="M775.89,351l0-.11Z"/><path class="cls-15" d="M816.2,358c0-3.79-1.72-4.48-3.79-4.66-1.63-.14-2.83-2.3-3.26-3.21-.11.28-.51.73-1.56,1.49-2.41,1.72-3.62-1.38-3.62-1.38s-.52-4.14-1.38-1.55-3.1.34-3.1.34-1.21-3.62-1.21-.52-2.07,1-2.07,1-3.28-2.93-2.07-1.21.52,1.72-1.72,1.55-4.31-4.48-4.31-4.48l.52,4.48a21.11,21.11,0,0,0-7.41,1.9c-4,1.67-5.09-.27-5.3-.76.36,1.16-1.24,4.69,4.27,3.69,5.69-1,16-.52,16-.52s15.35,1.55,17.42,1.9S816.2,361.77,816.2,358Z"/><path class="cls-15" d="M785.5,334.7c3.45.69,9,2.07,8.28,0,0,0-3.44-4.82-14.45.67A10.54,10.54,0,0,1,785.5,334.7Z"/><path class="cls-15" d="M779.3,340.22c2.07.69,6.21,0,4.83-1.38,0,0-4.83-2.76-10.35,2.76C773.78,341.6,777.23,339.53,779.3,340.22Z"/><path class="cls-15" d="M770.67,348.15s.69.69,2.76-1.38A12.37,12.37,0,0,1,779,344s1.38-.69.69-1.38A14.18,14.18,0,0,0,770.67,348.15Z"/><path class="cls-15" d="M771.36,351.6s-.69,1.38.69.69,2.76-2.76,4.14-2.76,0-1.38,0-1.38A9.59,9.59,0,0,0,771.36,351.6Z"/><path class="cls-15" d="M785.16,347.46c2.76-2.76,0-1.38,0-1.38s-3.45,2.76-4.83,2.76S782.4,350.22,785.16,347.46Z"/><path class="cls-15" d="M783.09,344.7a7,7,0,0,1,2.07-.69c.69,0,0-1.38,0-1.38A3.7,3.7,0,0,0,781,344.7C779.64,347.46,783.09,344.7,783.09,344.7Z"/><path class="cls-15" d="M786.54,338.49s2.76,2.07,4.14,2.07a13.9,13.9,0,0,1,4.14,1.38s1.38.69,1.38-.69a9.06,9.06,0,0,0-6.21-2.07A29.87,29.87,0,0,0,786.54,338.49Z"/><path class="cls-15" d="M798.26,335.73a4.78,4.78,0,0,0,2.76-2.07s-2.07-3.45-7.59-3.45-3.45.69-3.45.69,4.14,0,4.83.69,2.76.69,4.14,2.76c0,0-2.76,1.38-3.45,3.45S796.19,336.42,798.26,335.73Z"/><path class="cls-15" d="M812.06,324a20.89,20.89,0,0,1-4.83,3.45s-6.21,1.38-9.66,0a7.45,7.45,0,0,0,5.52,2.76c3.45,0,6.21-2.76,6.21-2.76s-.69,3.45-3.45,4.83a7.47,7.47,0,0,0,5.52-4.83A29.87,29.87,0,0,0,812.06,324Z"/><path class="cls-15" d="M807.92,334.35s-4.83,1.38-6.9,4.83c0,0-.69,1.38,1.38-.69s5.52-2.07,5.52-2.07H810S807.23,335.73,807.92,334.35Z"/><path class="cls-15" d="M804.47,343.32s-4.83,1.38-7.59.69C796.88,344,802.4,346.77,804.47,343.32Z"/><path class="cls-15" d="M818.27,333.66c-1.38,3.45-7.59,6.21-7.59,6.21s-.69,2.07,2.07.69,4.14-3.45,5.52-5.52S818.27,333.66,818.27,333.66Z"/><path class="cls-15" d="M827.92,337.11s2.07-.69-3.45.69-5.52,3.45-5.52,3.45c0,2.07,1.38.69,1.38.69s-.69-1.38,3.45-2.76S827.92,337.11,827.92,337.11Z"/><path class="cls-15" d="M818.27,345.39s0,1.38,2.76.69,3.45-4.14,3.45-4.14A10.24,10.24,0,0,1,818.27,345.39Z"/><path class="cls-15" d="M830.68,333c3.45-2.07,1.38-4.83,1.38-4.83-1.38,3.45-8.28,4.14-8.28,4.14S827.23,335,830.68,333Z"/><path class="cls-15" d="M844.48,348.84s-2.07,2.07,4.14,2.07,6.21-3.45,6.21-3.45C851.37,350.22,844.48,348.84,844.48,348.84Z"/><path class="cls-15" d="M845.16,353s-4.14.69.69,2.07,7.59-1.38,7.59-1.38A17.53,17.53,0,0,1,845.16,353Z"/><path class="cls-15" d="M841,355c-3.45.69,1.38,4.14,1.38,4.14,6.21,2.76,9.66,0,9.66,0C843.79,359.87,841,355,841,355Z"/><path class="cls-15" d="M845.85,361.25s-6.9,1.38-9.66-4.83a3.46,3.46,0,0,0-3.45-.69c-2.07.69,0,2.07,0,2.07a5.6,5.6,0,0,1,2.34,1c-.77.45-2.56,1-5.1-1-3.45-2.76-2.76-4.14-7.59-4.83s0,.69,0,.69,3.45,1.38,4.83,4.14a6.68,6.68,0,0,0,4.48,3.2c0,1.15.12,2.37.12,2.37l-.21,1s9.4,9.06,3,26.77a55,55,0,0,0-16.32-5.75c-9.2-1.61-19.08-2.3-26.67-5.52,0,0-3.45-.46.46,2.07s13.79,3,19.54,4.37,16.09,2.53,23,8c0,0,4.37,6.21,3.22,12.19,0,0-2.07-3.68-3.91-3.91,0,0-2.53-2.53.23,2.76s2.07,1.84,4.83,14.25c0,0,3.68,7.13-1.38,73.34,0,0-2.76,7.59-14,8.51a11.29,11.29,0,0,0,1.61-4.83c.23-2.76-.69-1.15-2.07,1.38s-10.81,11.27-27.82,12.87c0,0-11.73-.69-16.55,3.68s-24.6,17.7-51.5,15.17c0,0-19.08.46-39.31-17.47,0,0-2.07.46.46,3.22s9.2,12,31.5,15.86c0,0,3,.92-9.43,3.68s-24.83,6.67-29,6.67a40.49,40.49,0,0,1-9.2-6.67,14.51,14.51,0,0,0,7.36,8s2.53,1.15-2.3,2.3-33.57,10.12-46.21,11.27c0,0-6.64.66-16.45-2.14a34.16,34.16,0,0,0,1.22-9.47c-.24-5.17-.71-1.38-1.9,2.07a20.75,20.75,0,0,0-1.52,6.81c-9.31-2.47-56-14.81-67.11-17.5,0,0-19.31-3.91-25.29-12a47.64,47.64,0,0,1-2.53-9.2s-1.84-1.61-1.15,2.53a15.94,15.94,0,0,0,.92,6.21s-49-13.56-68.51-25.75c0,0-1.15-4.83.46-7.36,0,0-2.53-2.53-2.53,6,0,0-12.64-5.29-12.19-13.1a6.36,6.36,0,0,0,.92-4.6c-.46-2.76,1.61-230.83,1.61-230.83s119.55-49.2,177.49-65.75c0,0,11.5-6.44,18.39,3.68,0,0,0,.92,2.76-1.84s4.14-3.45,9.2-2.07,100,29.89,100,29.89l94,28.28s1,39.89.59,59.19l-2.81,33.13c-3.49.11-8.13,2.17-8.13,2.17,7.59-1.38,8.51,1,8.51,1a3.82,3.82,0,0,0,.46,3.79c1.38,2.07,7.59,2.76,7.59,2.76a18.9,18.9,0,0,1-4.83,2.76,14.43,14.43,0,0,0,8.28-2.76c.69,2.07-3.45,4.14-3.45,4.14,7.59-1.38,5.52-6.9,5.52-6.9-3.45,2.07-6.21,0-9.66-.69s-.69-2.76-.69-2.76,1.38-2.76-2.07-3.45h-.06c1.09-9.65,2.82-28.94,2.82-36.12V239.17L642.14,179.43s-5.78-2.66-8.92,4a12.72,12.72,0,0,0-13.84-4.88c-9,2.46-122.29,40.26-183.87,69l-1.61,233.2s-4.09,11.5,11.51,17.25c0,0,4.93,4.11,14.79,8.21s50.09,18.89,57.48,20.53a90.86,90.86,0,0,0,20.53,9.85c10.67,3.28,78,20.53,78,20.53s5.75,3.28,18.89.82,46.8-11.5,49.27-14,29.56-5.75,41.88-12.32c0,0,18.06,2.46,36.13-4.93s15.6-12.32,28.74-13.14,23.81-4.93,30.38-9.85c0,0,13.14-1.64,17.24-9,0,0,7.39-68.15,0-83.75,0,0,4.93-4.93-2.46-18.89,0,0,7.72-9.85-3-29.56,0,0,0-.51,0-1.37a5.87,5.87,0,0,0,3.51-1.22l.8.61a10.44,10.44,0,0,0,7.59,2.07S848.61,361.94,845.85,361.25Z"/><path class="cls-15" d="M827.92,346.08c2.07-.69,6.9-1.38,9.66-.69,0,0,.69-1.38-.69-1.38a17.47,17.47,0,0,0-11,1.38S825.85,346.77,827.92,346.08Z"/><path class="cls-15" d="M842.41,350.91a14.92,14.92,0,0,1-11.73-1.38s-2.07-.69,0,1.38S839.65,353.67,842.41,350.91Z"/><path class="cls-15" d="M823.09,349.53a7.13,7.13,0,0,0-2.76-.69c-1.38,0,2.07,2.07,2.07,2.07S825.16,352.29,823.09,349.53Z"/><path class="cls-15" d="M813.44,346.77c1.38,0,.69-1.38-.69-1.38,0,0-2.76.69-3.45,2.07A24.39,24.39,0,0,1,813.44,346.77Z"/><path class="cls-15" d="M815.51,348.84c-2.76,4.14,1.38,4.14,1.38,4.14C815.51,351.6,815.51,348.84,815.51,348.84Z"/><path class="cls-15" d="M835.51,340.56a5.12,5.12,0,0,0-5.52-.69s-2.07,1.38,0,1.38S832.06,339.87,835.51,340.56Z"/><path class="cls-15" d="M634.8,304.69s-4.14-9.66-1.38-14.48C633.42,290.21,625.14,299.18,634.8,304.69Z"/><path class="cls-15" d="M582.38,444c-31,16.55-11.73,62.76-11.73,62.76C558.93,457.12,582.38,444,582.38,444Z"/><path class="cls-16" d="M864.94,350.91l8.51-10.58,8.28-20.23L883.1,298l-1.84-35.41-.69-3.68-15.4-9.89-43.68-15.63L644.92,181s-6.9-4.37-10.35,2.76l-2.3.23s-4.6-5.75-9.2-5.52-88.51,30.58-88.51,30.58l-97.25,38.39-1.38,1.61-4.6,66.9-.46,28.74,1.38,28.74,1.61,49.2L432,453l-3.91,12,9.66-5.06,16.55-16.09,16.55-25.29,11.5-10.58,12.42-16.78,15.4-2.3,24.14-6.67,27.36-12.64,16.78-14.25,1.38-2.07,12.42-8.51,14.48-18.39,6-9.2,13.33-21.61,3-22.3L630,238l.46-12.64,2.76-1.15,1.84,2.3.92,11.5,2.07,15.4,3.68,8,14.94,12,25.52,14.71,23.45,7.13L744.93,298l22.53-2.53,31-4.37,12.64-.46,25.06,4.14L850,301l8.51,8.28,6.44,12.64,1.61,9.89Z"/><path class="cls-17" d="M776.54,294s-87.59-6.21-112.43-37.25-5.29-36.79-30.92-32.53L635.95,238l2.3,17,3.45,6.44,6.55,4.6,9.66,8.28S710.32,310.56,776.54,294Z"/><path class="cls-18" d="M864.94,350.91s-3.91-33.8-26.67-33.8L841,296.85S872.29,306.76,864.94,350.91Z"/><path class="cls-19" d="M633.19,224.23s-1.52.31-3.91-12.64c-4.79-26,3.45-25.52,3.45-25.52s-2.63-14.34-25.8-3-137.59,49.66-137.59,49.66L445.81,264,450,365.39l68.28,6.21,74.49-43.45,29.66-55.87S628.13,223.08,633.19,224.23Z"/><path class="cls-17" d="M633.19,224.23s-8.39-8.85-16,4.25-8.28,82.77-46.9,97.94a175.09,175.09,0,0,0-39.43,21.22c-6.49,1.45-71.3,14.85-72-27.08-.69-44.14-8.14-65.38,49.73-101.32l-59,22.76-12.37,5.45-3.15,13.17S430,344,432,395c0,0,6.32,53.91-3.91,69.89,0,0,30.46-17.82,42.19-47.48,0,0,21.38-14.48,23.45-26.9,0,0,65.52-6.21,83.46-35.87,0,0,17.7-9.89,29.54-28.39s14.94-25.06,14.94-25.06,8.62.34,8.28-42.07C630,259.17,625.72,237.91,633.19,224.23ZM515.82,360.91h-.87l.53-.35,2.83-2.32C516.63,359.93,515.82,360.91,515.82,360.91Z"/><path class="cls-20" d="M836.74,332.87s2.93-31.83,2.93-36.33l1.67,1.17L838.21,333Z"/><path class="cls-15" d="M870,278.05c-8.89-7.12-20.57-11.59-31.52-14.15-19.28-4.51-40.16-2.67-59,3.14-6.07,1.87-12,4.05-18.48,4.11,0,0,0,.86,0,.86,5.51,0,10.68-1.64,15.88-3.29a129.14,129.14,0,0,1,22.53-5.23c20.45-2.64,41.06-.64,59.63,8.73A62.15,62.15,0,0,1,870,278.92c-.14-.11.14-.75,0-.86Z"/><path class="cls-15" d="M629.28,233.68c-3.33,9.27-8.64,18.07-14.06,26.22A191.22,191.22,0,0,1,564.77,311a209.64,209.64,0,0,1-49.29,25c-.1,0,.08.83,0,.86,46.18-16.37,87.59-49,109.76-93.25a83.65,83.65,0,0,0,4-9.05c.09-.26-.09-.61,0-.86Z"/><path class="cls-15" d="M628.82,246.56c-4,11.18-10.09,21.88-16.47,31.86-14,21.84-32.24,41.32-54.59,54.71a135,135,0,0,1-50.33,17.8s0,.86,0,.86c30.38-4.35,57.77-19.08,79.42-40.64a193,193,0,0,0,36.95-52.25,119.37,119.37,0,0,0,5-11.48c.09-.26-.09-.61,0-.86Z"/><path class="cls-15" d="M432,368.81c2.82-6.74,9.17-12.42,14.95-16.52,11-7.78,24-11,36.5-15.3,27.28-9.43,54.41-20.94,78.3-37.33,13.71-9.41,26.55-20.69,35.44-34.88.13-.21-.13-.66,0-.86-16.07,25.67-44.22,42.3-70.94,54.95a413.85,413.85,0,0,1-38.51,15.76c-12,4.27-24.93,7.23-36,13.71-7.6,4.45-16.22,11.17-19.75,19.61-.1.25.1.62,0,.86Z"/><path class="cls-15" d="M624.11,189.42c-.56-.85-2.4-.54-3.17-.43-5.62.8-11.12,4.25-15.9,7.06-12.23,7.19-23.45,16-35.28,23.77a357.29,357.29,0,0,1-38.37,22.35,218.59,218.59,0,0,1-43.15,16.22c-.07,0,.06.85,0,.86,27.49-7,52.87-20.11,76.61-35.37,12.46-8,24.2-17.09,36.78-24.91,5.57-3.46,11.71-7.41,18.2-8.91.92-.21,3.55-.9,4.28.21-.13-.2.13-.66,0-.86Z"/><path class="cls-15" d="M434.16,261.05c3.17-4,8.15-7,12.47-9.6,15.07-9,32.24-14.3,49.19-18.4.07,0-.06-.85,0-.86-16.95,4.1-34.12,9.42-49.19,18.4-4.32,2.57-9.3,5.57-12.47,9.6-.14.18.14.69,0,.86Z"/><path class="cls-15" d="M431.56,297.08a39.1,39.1,0,0,1,8.51-9.51c8.66-7.47,19.26-12.25,30.23-15.2.08,0-.07-.84,0-.86-11,2.95-21.57,7.73-30.23,15.2a39.1,39.1,0,0,0-8.51,9.51c-.13.22.12.65,0,.86Z"/><path class="cls-15" d="M431.56,309.49c1.68-3.23,5.12-5.82,8-7.87,10.25-7.32,22.76-11.23,34.89-14.08.07,0-.06-.85,0-.86-12.13,2.85-24.64,6.75-34.89,14.08-2.87,2.05-6.3,4.65-8,7.87-.12.23.12.64,0,.86Z"/><path class="cls-15" d="M430.64,332c.82-8.09,9.63-14.14,16.25-17.14,7.39-3.35,15.3-5.56,23-8.21,5.3-1.83,10.51-3.88,14.93-7.41.14-.11-.14-.75,0-.86-4.3,3.43-9.36,5.47-14.52,7.27-7.79,2.72-15.85,4.94-23.37,8.35-6.62,3-15.43,9-16.25,17.14,0,.28,0,.58,0,.86Z"/><path class="cls-15" d="M430.18,349.5a47.89,47.89,0,0,1,9.63-9.25c9.43-7.28,20.46-12.21,31.87-15.46.08,0-.07-.84,0-.86-11.42,3.25-22.44,8.18-31.87,15.46a47.89,47.89,0,0,0-9.63,9.25c-.14.19.13.68,0,.86Z"/><path class="cls-15" d="M600,233.57c-4.29,7.1-9.78,13.61-15.3,19.75a209.57,209.57,0,0,1-88.16,58.19c-.09,0,.08.83,0,.86,38.65-13.25,74.15-38,98.61-70.92,1.69-2.28,3.38-4.59,4.85-7,.13-.21-.13-.65,0-.86Z"/><path class="cls-15" d="M442,269.61a49.4,49.4,0,0,1,23.63-11.84c4.1-.81,8.27-1.25,12.37-2.06a92.3,92.3,0,0,0,17.11-5.41c.11,0-.1-.82,0-.86a92.49,92.49,0,0,1-16.73,5.33c-4.23.86-8.52,1.3-12.76,2.14A49.4,49.4,0,0,0,442,268.74c-.15.13.14.73,0,.86Z"/><path class="cls-15" d="M495.13,238.57a216.61,216.61,0,0,1,38.54-19.85c8.3-3.16,17.07-4.63,25.48-7.5,8.95-3,17.7-6.67,26.35-10.48,5.09-2.25,10.16-4.55,15.16-7,.12-.06-.11-.81,0-.86a378.09,378.09,0,0,1-38.12,16.29c-8.38,3-17.1,4.59-25.49,7.46a176,176,0,0,0-26.5,12.11c-5.22,2.83-10.41,5.78-15.42,9-.13.09.13.78,0,.86Z"/><path class="cls-15" d="M553.76,219.08c-14.93,9.26-31.34,17.35-48.28,22.07-.08,0,.07.84,0,.86,16.94-4.72,33.35-12.81,48.28-22.07.13-.08-.12-.79,0-.86Z"/><path class="cls-15" d="M607.55,203.91c-17.7,16.47-37.88,30.86-58.6,43.21a283.81,283.81,0,0,1-31.07,16.11c-.11,0,.1.82,0,.86,30.53-13.42,58.74-32.59,84-54.29,1.91-1.65,3.82-3.3,5.67-5,.15-.14-.14-.73,0-.86Z"/><path class="cls-15" d="M620,198.39c-4.56,7.7-10.67,14.68-16.72,21.21a238.53,238.53,0,0,1-55.11,43.54A285.5,285.5,0,0,1,497.89,286c-.09,0,.08.83,0,.86,44.7-15.47,88.29-42,117-80.28a81.92,81.92,0,0,0,5-7.31c.13-.22-.12-.65,0-.86Z"/><path class="cls-15" d="M499.27,273.57l-13.1,6.21c-.12.06.11.81,0,.86l13.1-6.21c.12-.06-.11-.81,0-.86Z"/><path class="cls-15" d="M469.61,352.2a12,12,0,0,0-5.17,1.81c-5.43,3-9.7,7.84-13.45,12.67-.14.17.14.71,0,.86,4.65-5,12-7.14,18.62-6.9,0,0,0-.86,0-.86-6.63-.25-14,1.89-18.62,6.9v.86c3.75-4.84,8-9.68,13.45-12.67a12,12,0,0,1,5.17-1.81s0-.86,0-.86Z"/><path class="cls-15" d="M557.21,359.1c-5.55,4.79-12.61,8.23-19.31,11-17.83,7.47-37.34,10-56.56,9,0,0,0,.86,0,.86,19.22,1,38.72-1.5,56.56-9,6.7-2.81,13.76-6.24,19.31-11,.15-.13-.14-.74,0-.86Z"/><path class="cls-15" d="M630.32,256.33c-1.21,7.89-4,15.72-7,23.05a127.31,127.31,0,0,1-31.61,45.37,123.39,123.39,0,0,1-34.46,21.93c-.11,0,.1.82,0,.86,35-15,61.14-45.62,71.25-82.25a71.47,71.47,0,0,0,1.86-8.11c0-.28,0-.58,0-.86Z"/><path class="cls-15" d="M468.92,381.86c-12,3-25.72.05-36-6.55.13.08-.14.78,0,.86,10.26,6.61,24,9.56,36,6.55.07,0-.06-.85,0-.86Z"/><path class="cls-15" d="M462.37,382.66c-1,9.61-11.41,17.1-19,21.27-.13.07.12.8,0,.86,7.57-4.17,18-11.66,19-21.27,0-.29,0-.58,0-.86Z"/><path class="cls-15" d="M450,383.06c1.15,9.23-9.48,16.23-16.55,19.14-.11,0,.1.82,0,.86,8.29-3.41,17.82-10.7,16.55-20.86,0,.28,0,.58,0,.86Z"/><path class="cls-15" d="M441.68,381.23a3.09,3.09,0,0,1-.18,2.12,14.1,14.1,0,0,1-4.42,5.75c-.15.13.14.74,0,.86,2.34-2,6-6,4.6-9.6.1.25-.1.61,0,.86Z"/><path class="cls-15" d="M468.81,392.78c-5.23,16.72-19.42,31-34.49,39.08-.12.07.11.8,0,.86,15.06-8.1,29.26-22.36,34.49-39.08.08-.26-.08-.6,0-.86Z"/><path class="cls-15" d="M483.52,391.4a39.28,39.28,0,0,1-16,18c-.13.08.12.79,0,.86a39.28,39.28,0,0,0,16-18c.1-.25-.1-.62,0-.86Z"/><path class="cls-15" d="M459.26,419.1c-5.55,11-15.84,20.05-26.32,26.09-.13.07.12.79,0,.86,10.48-6,20.77-15.11,26.32-26.09.12-.23-.11-.64,0-.86Z"/><path class="cls-15" d="M444.09,443.24c-2.42,5.6-7,11.25-13,13-.08,0,.07.84,0,.86,6-1.74,10.57-7.39,13-13,.11-.24-.1-.62,0-.86Z"/><path class="cls-15" d="M628.82,207a201,201,0,0,1-36.43,54.82,142,142,0,0,1-22.77,20c-.14.1.13.77,0,.86,24.32-17,42.75-42.2,56.1-68.41,1.08-2.12,2.15-4.25,3.1-6.42.11-.24-.1-.62,0-.86Z"/><path class="cls-15" d="M629.63,198.56C642,210.25,657.9,219,673.34,225.75c24.86,10.8,51.55,15,78.25,18.27a313.26,313.26,0,0,1,43.57,9c-.07,0,.08-.84,0-.86a314.87,314.87,0,0,0-40.1-8.59c-9.9-1.33-19.83-2.25-29.67-4-29-5.17-56.83-14.17-81.4-30.8a112.35,112.35,0,0,1-14.38-11.1c.14.13-.15.72,0,.86Z"/><path class="cls-15" d="M632.39,189.42c.23,1.15-.19.26.61-.16a9.08,9.08,0,0,1,4.16-.82c10.64-.17,21.78,3.66,31.83,6.6,24.14,7.07,48,15.26,71.7,23.6q8.62,3,17.22,6.13c-.09,0,.1-.83,0-.86q-26.41-9.57-53.08-18.41c-13.42-4.46-26.9-8.85-40.52-12.67a170.34,170.34,0,0,0-20-4.62c-3-.45-6.22-1-9.22-.49-1.51.24-3.06.78-2.71,2.56-.05-.27.06-.58,0-.86Z"/><path class="cls-15" d="M634.45,193a377.11,377.11,0,0,0,82.77,31c-.06,0,.07-.84,0-.86a377.11,377.11,0,0,1-82.77-31c.11.06-.12.8,0,.86Z"/><path class="cls-15" d="M632.5,212c7.89,5.39,16.23,10.19,24.59,14.79a345.88,345.88,0,0,0,58.91,26A216.23,216.23,0,0,0,755.85,262s0-.86,0-.86C715,256,675.62,237.92,640.8,216.47c-2.79-1.72-5.59-3.46-8.3-5.31.13.09-.14.77,0,.86Z"/><path class="cls-15" d="M633.07,224.77a254.19,254.19,0,0,0,23.07,15.58c17.38,10.64,35.77,19.9,55.09,26.47a162,162,0,0,0,37.71,8.3s0-.86,0-.86c-38.89-3.45-76.15-22.63-107.85-44.55-2.71-1.88-5.42-3.78-8-5.8.14.1-.14.75,0,.86Z"/><path class="cls-15" d="M644.8,244.09a157.89,157.89,0,0,0,19.54,14.76c15,9.92,31.44,18.07,48.83,22.9a117,117,0,0,0,35.09,4.41s0-.86,0-.86C713,286.43,678.69,270,651.41,248.71c-2.25-1.76-4.5-3.55-6.61-5.48.14.13-.15.73,0,.86Z"/><path class="cls-15" d="M740,231a186.46,186.46,0,0,1,50.35,9c15.11,4.8,30.55,9.1,46.21,11.73,0,0,.05-.85,0-.86-15.66-2.63-31.1-6.93-46.21-11.73a186.46,186.46,0,0,0-50.35-9s0,.86,0,.86Z"/><path class="cls-15" d="M881.72,272.77c-13.24-14.22-32-24.75-50.69-29.54.06,0-.08.84,0,.86,18.67,4.79,37.45,15.32,50.69,29.54-.14-.15.15-.71,0-.86Z"/><path class="cls-15" d="M881.26,317.34a39.38,39.38,0,0,0-3.38-15.09c-5.4-12.71-16.54-20.88-29.62-24.54.07,0-.08.84,0,.86,12,3.35,22.45,10.42,28.25,21.63a43.66,43.66,0,0,1,4,11.17c.27,1.3.49,2.62.63,3.94.06.56.16,2.22.16,2,0,.48,0,.5,0,0Z"/><path class="cls-15" d="M873.9,338c5.79-14.29-.61-30.92-11.15-41,.14.13-.15.72,0,.86,10.23,9.77,16.79,25.33,11.15,39.26-.1.25.1.62,0,.86Z"/><path class="cls-15" d="M813.09,282c10.36-2.28,21.94.54,31,5.52-.11-.06.08-.74,0-.86-3.57-5.47-9.38-9.92-15.86-11,0,0-.05.85,0,.86,6.48,1.12,12.29,5.57,15.86,11v-.86c-9.1-5-20.68-7.8-31-5.52-.07,0,.05.85,0,.86Z"/><path class="cls-15" d="M818.61,268.74c-13.62,7.8-29.82,13.17-45.52,13.79,0,0,0,.86,0,.86,15.7-.62,31.9-6,45.52-13.79.13-.07-.12-.79,0-.86Z"/><path class="cls-15" d="M497.89,343.23c-5.91,2.29-12.58,4.36-19,4,0,0,0,.86,0,.86,6.39.34,13.06-1.73,19-4,.1,0-.09-.83,0-.86Z"/><path class="cls-15" d="M535.13,357c-4.32,3-9.52,5-14.47,6.54-12.88,4.1-26.55,4.78-39.9,3v.86c10.52-.43,21.29-4.14,30.23-9.54.13-.08-.12-.79,0-.86-8.94,5.4-19.71,9.11-30.23,9.54,0,0,0,.86,0,.86,13.35,1.77,27,1.09,39.9-3,5-1.57,10.16-3.56,14.47-6.54.14-.1-.13-.77,0-.86Z"/><path class="cls-15" d="M780.68,228.22a197.64,197.64,0,0,1,22.52,8c4.85,2.08,9.49,4.93,14.74,5.9,1.4.26,3.47.64,4.81-.11.13-.07-.12-.8,0-.86-1.26.7-3.18.39-4.49.17-5.37-.88-10.13-3.84-15.06-6a197.64,197.64,0,0,0-22.52-8c.07,0-.08.84,0,.86Z"/><path class="cls-15" d="M840,302.37c6.8,1.94,12.35,7.71,15.52,13.79-.12-.22.12-.63,0-.86-3.17-6.08-8.72-11.86-15.52-13.79.07,0-.08.84,0,.86Z"/><path class="cls-15" d="M839.3,311c15.66-3,24.16,15,26.55,27.24-.05-.28.05-.58,0-.86-2.4-12.29-10.89-30.28-26.55-27.24-.06,0,0,.85,0,.86Z"/><path class="cls-15" d="M881.89,259.15v-.07l-.05,0s-2.88-2.38-12.89-8.75a38.74,38.74,0,0,0-3.55-1.95c2.24-.17,3.85-.9,4.79-2.18,1.94-2.62.39-6.55.32-6.71l-.4-1,.07,1.07c.16,2.46-.48,4.27-1.91,5.4-2.12,1.67-5.57,1.5-8,1.11-17.68-7.47-52.89-18.16-82.36-26.61,3.1-.7,5.34-2,6.69-3.87a8.77,8.77,0,0,0,1-7.31l-.24-.69-.09.73a8.71,8.71,0,0,1-4,6.53c-3.15,2-7.69,2.32-11.52,2.09l-61-19.35a7.54,7.54,0,0,0,4.49-6.31v-.53l-.31.43A10.89,10.89,0,0,1,704.3,196h-.48L684,189.69,644.22,178.2c-.07,0-7.09-2.33-11.05,4.11-.86-1.08-5.16-6-12-4.92-2.84.43-17.82,5.65-37,12.56-6.68,1.17-16.09,1.88-21.84-1.82,0,0,.54,4.28,14.8,4.36-12.35,4.47-25.93,9.44-38.9,14.19-19.74,7.22-38.38,14-48.61,17.62-7,2.46-13.91,5-20.33,7.51-7.78,2.13-18.23,3.5-24.9-1.6,0,0,2.4,6.69,17.54,4.55-3.7,1.52-7.18,3-10.37,4.43-7.49,3.36-16.47,7.79-16.77,9.85-.46,3.19-4.56,69.24-4.6,69.91,0,.24-.48,17.86-.3,32.44-2,4.86-6,10.91-13.73,12.07,0,0,5.66,4.11,13.81-7.53.09,3.66.23,7,.45,9.48.53,6,1.84,24.72,2.15,44.46-.94,7.73-3.31,19.48-9.14,23.91a8.62,8.62,0,0,1-7.63,1.46l-.69-.17.53.47a8.76,8.76,0,0,0,5.24,1.94,6.88,6.88,0,0,0,2.14-.34c4-1.29,7.19-6,9.59-14.14-.27,23.05-2.45,37.26-6.37,41.27a3.52,3.52,0,0,1-2.76,1.2l-.38,0,.23.3a3.53,3.53,0,0,0,2.44,1.09,6.24,6.24,0,0,0,.66,0c2.51,0,6.81-1.39,13.71-7.3,13.2-11.31,27.24-29,32-40.26.85-.7,17.14-14.38,23.42-27.07l.52-.07a203.93,203.93,0,0,0,32.67-7.09c16.56-5.06,38.92-14.52,51.42-30.81a72.45,72.45,0,0,0,24.4-23.49l8.26-12.39C613,318.23,627.62,303,629,287c1.41-16.47,1.61-20.69,1.38-30.14s.86-27.93.92-28.91c.29-.52,1.14-1.74,1.78-1.61.3.06.83.49,1.1,2.73.12,1,.21,2.51.31,4.4.48,8.61,1.39,24.63,8.29,30,0,0,2.8,1.44,8,6.86,5.4,5.63,25.4,16.92,37.54,21.2,11.58,4.07,37.3,9.05,58.24,7.37,4.8-.39,9.57-.9,14-1.44a25.66,25.66,0,0,1,16.3,6.56s-3.82-5.07-8.45-7.6c10-1.42,17.11-2.78,17.22-2.8a122.59,122.59,0,0,1,18.53-1.82,47.39,47.39,0,0,1,19.26,6s-.75-3.29-5.29-5.54a75.31,75.31,0,0,1,15.7,3.17c11.23,3.67,17.8,8.88,21.32,12.61a24,24,0,0,1,5,7.32c2.17,3.43,5.47,13.31,4.34,28.06a41.65,41.65,0,0,0-2.45-9.74c-2.82-7.2-9.12-16.31-23.09-18.82l-.2,0v2.45H839a19.58,19.58,0,0,1,10.66,3.92c9,6.44,12.75,18.47,14.29,27.81,0,.16,0,.32-.06.48-.11.47-2.73,11.44,3.09,13.77l.52.21-.31-.46c-.05-.08-5.35-8.22,2-14.26s13-25.67,14.32-34.36C884.63,306.68,883.73,275.71,881.89,259.15Zm-447.7,95.54c-1.29-23,1-65.63,2.83-88.53.58-7.41,1-12.76,1-14.23,0-4.81,7.44-8,35.42-18.55,5.27-2,11.23-4.24,18-6.81,41.33-15.79,122.87-45.14,130.32-46.2a9.76,9.76,0,0,1,1.38-.1c6.18,0,9.67,6,9.71,6.11l.12.21.16-.18c0-.05,4.94-5.36,9-5.69h.1c5,0,78.75,23.21,79.5,23.45l46.12,14.21,4,1.49h0V220c.45,0,.86,0,1.29,0l67.25,20.72c.21.07,20.74,6.93,26.86,10.67a153.46,153.46,0,0,1,12.69,8.91c.23,2,5,44.24,0,61.94-4.45,15.74-11,23.6-12.68,25.39a66,66,0,0,0-.15-20c-1.71-10.16-7-23.73-22.23-30.65-24.6-11.15-51.81-6.73-71.69-3.51-3.92.64-7.63,1.24-10.94,1.66-16.35,2.07-48.29,3.77-78.54-8-20.71-8.08-29.95-17.16-35.46-22.59a28.29,28.29,0,0,0-5-4.3c-5.13-2.9-6.81-23.62-6.81-30.43,0-3.64-1.69-7-3.61-7.22-.87-.09-2.46.42-3.4,4.88-.85,4-1.07,15.08-1.29,26.77-.26,13.53-.56,28.86-1.92,35.54-2.49,12.23-14.56,27.14-14.7,27.31a131.73,131.73,0,0,1-19.74,26.63c-12.2,12.65-28.48,12.82-29.27,12.82h0l0,.34c8,1.1,12.81-.58,14.43-1.32-2.83,3.72-10.05,8.08-10.15,8.14-16.83,15.24-51.46,23-66.06,25.72a89,89,0,0,1-23.35-.36l-.35-.05.17.31c.1.19,2.06,3.45,11.55,3.45,1.25,0,2.63-.06,4.15-.19-4.18,7.78-11.78,15.5-16.91,20.21-5.34,4.65-16.54,13.89-22.12,14.9l0,.34c.2,0,4.37-.09,14-5.93-10,16.37-19.18,26.28-25.36,31.82-2.12,1.9-3.89,3.41-5.36,4.61a48.28,48.28,0,0,1-5,3.3C438.14,448.67,435.09,370.6,434.19,354.69Z"/></g></g></svg>