<svg xmlns="http://www.w3.org/2000/svg" viewBox="0 0 1274.57 863.46"><defs><style>.cls-1{fill:#18305a;}.cls-2{fill:#091a28;}.cls-3{fill:#052139;}.cls-4{fill:#fff;}.cls-5{fill:#0c4c9e;}.cls-6{fill:#ef4323;}.cls-7,.cls-9{fill:#9f9f9f;}.cls-7{opacity:0.2;}.cls-8{fill:#fbb788;}.cls-10{fill:#a72022;}.cls-11,.cls-23{fill:#f3995b;}.cls-11{opacity:0.71;}.cls-12{fill:#b8682f;}.cls-13,.cls-14{fill:#2c6db6;}.cls-13,.cls-18{opacity:0.5;}.cls-15{fill:#f4a976;}.cls-16{fill:#0b1723;}.cls-17{fill:#010101;}.cls-18,.cls-19{fill:#fcc6a0;}.cls-20,.cls-21,.cls-29{fill:none;stroke-miterlimit:10;}.cls-20{stroke:#cc9368;}.cls-21{stroke:#829acf;}.cls-22{fill:#071e34;}.cls-24{fill:#fec872;}.cls-25{fill:#e8b25c;}.cls-26{fill:#ffd28e;}.cls-27{fill:#ededee;}.cls-28{fill:#d3d3d3;}.cls-29{stroke:#f9f9f9;}</style></defs><title>Asset 20</title><g id="Layer_2" data-name="Layer 2"><g id="Layer_1-2" data-name="Layer 1"><rect class="cls-1" width="1274.57" height="863.46"/><path class="cls-2" d="M723.57,677.34l-25-8.5a43.9,43.9,0,0,1-11,.5c-6-.5-9-2.5-36,1.5s-42,2.5-42,2.5l-28-20.5,129-7.5Z"/><path class="cls-3" d="M860.07,625.34s46.5,8.5,36.5,13.17-48.67,0-82.67,1.33-82,2.67-82,2.67l-272.67,5.33s-114,1.33-143.33,3.33-26-10.67-10.67-13.67S491.9,607.84,491.9,607.84Z"/><path class="cls-4" d="M739.4,591.67,880.07,631l-46.35,1.2-19-7.2-17,7.91L480,639.19a38.72,38.72,0,0,1-16-.85c-5.7-1.52-11-7.07-18.67-7.33-9.1-.31-16.48,5.7-22,8-6.21,2.58-10,1.49-10,1.49l-108.16-3,133.3-40.32,40.86-4.25,8,4Z"/><path class="cls-5" d="M753.73,595l121,30,12,7.26-54.49,1a21.66,21.66,0,0,1-8-1.27c-3.56-1.25-7.65-4.45-11-4-3.75.5-9.37,4-14.06,5.29a19.3,19.3,0,0,1-8.44.55l-150,3.16,49.67-39.83Z"/><path class="cls-6" d="M724.23,628.18l25.33,5.67L480,639.19a38.72,38.72,0,0,1-16-.85c-5.7-1.52-11-7.07-18.67-7.33-9.1-.31-16.48,5.7-22,8-6.21,2.58-10,1.49-10,1.49s-84.7-.47-102.18,2c-11.23,1.6-15.11-5.81-16.45-11.31-.74-3.06,1-2.53,3,.3s3,4.17,9.83,4,10.5-1.83,10.5-1.83l90.66,0s6.88,1.21,12.67-1c7.37-2.86,14.75-9.33,23.33-9.33,6.93,0,14.49,6,20,8,6.69,2.48,10.66,1.14,10.66,1.14Z"/><path class="cls-6" d="M736.52,611.34l23,4.58L478,624.19s-1,1.47-6.89-.85c-3.88-1.52-12.49-7.07-17.72-7.33-6.2-.31-20.23,5.7-24,8-4.23,2.58-16.82,1.49-16.82,1.49L336.05,628l25.51-7.83,59.85-.46s7.69,1.21,11.63-1c2.73-1.56,9-1.93,14.34-4A36.51,36.51,0,0,1,459.07,612c4.72,0,8.76,3.29,12.52,5.33,4.56,2.48,7.27,1.14,7.27,1.14Z"/><polygon class="cls-4" points="843.73 622.51 851.23 623.51 842.23 625.01 845.73 629.01 838.73 625.51 829.73 627.51 834.73 624.01 828.23 621.51 836.23 621.51 838.23 619.01 843.73 622.51"/><polygon class="cls-4" points="813.73 616.01 821.23 617.01 812.23 618.51 815.73 622.51 808.73 619.01 799.73 621.01 804.73 617.51 798.23 615.01 806.23 615.01 808.23 612.51 813.73 616.01"/><polygon class="cls-4" points="786.93 609.13 793.23 609.97 785.67 611.23 788.61 614.6 782.72 611.65 775.16 613.34 779.36 610.39 773.9 608.29 780.62 608.29 782.3 606.19 786.93 609.13"/><polygon class="cls-4" points="792.67 625.32 798.23 625.2 791.36 627.51 796.42 630.01 788.29 627.95 780.42 629.7 784.79 626.63 779.11 624.45 786.11 624.45 787.86 622.26 792.67 625.32"/><polygon class="cls-4" points="766.4 619.67 773.9 620.67 764.9 622.17 768.4 626.17 761.4 622.67 752.4 624.67 757.4 621.17 750.9 618.67 758.9 618.67 760.9 616.17 766.4 619.67"/><polygon class="cls-4" points="760.61 602.32 766.6 603.12 759.41 604.32 762.2 607.51 756.62 604.71 749.43 606.31 753.42 603.52 748.23 601.52 754.62 601.52 756.22 599.52 760.61 602.32"/><path class="cls-6" d="M713.48,598.76l15.08,5.92-239.75,4.42s-.58.87-4.06-.5c-2.29-.9-7.36-4.17-10.44-4.32-3.65-.18-11.92,3.36-14.14,4.71-2.49,1.52-9.91.88-9.91.88L389.73,612l21.13-6.29,44.6-1.62s4.53.71,6.86-.61c3-1.69,11.22-5.5,14.67-5.5,2.78,0,5.82,3.51,8,4.71,2.69,1.46,4.28.67,4.28.67Z"/><path class="cls-6" d="M724,590.41l10.77,2.88-235,3.66s-10.44.66-13.08-.38c-1.74-.68-5.59-3.16-7.92-3.28-2.77-.14-9,2.55-10.73,3.58-1.89,1.15-7.52.67-7.52.67l-28.75,1.12,15-3.77,17.67-.73s3.44.54,5.2-.47c2.24-1.28,8.52-4.17,11.13-4.17,2.11,0,4.41,2.66,6.09,3.58,2,1.11,3.25.51,3.25.51Z"/><polygon class="cls-4" points="768.34 302.58 666.35 294.49 613.58 448.6 618.48 487.01 643.57 520.6 691.57 514.6 719.48 495.01 772.57 412.6 768.34 302.58"/><path class="cls-7" d="M698,328l-4.08,19.83-16-24.33.67,24.67-29,100,3.33,28.67,5.33,5.33,5.33,10.67.42,3.42,4.42,6.42,1.33,2.08,18.83-23.08s-2.33-2.5-5-20.5c0,0-14.33,5.33-19-2.67s1.5-27.17,3.92-37.25,28.75-68.08,28.75-68.08l5-19.67Z"/><path class="cls-8" d="M749.44,472.59S782.73,487,777.23,511s-20,71.5-20,71.5-21.83,12.67-44.17,10.83a99.6,99.6,0,0,1,4.67-51.08s-11.5-1-20.25-3.87l-.75-13.87s7.33-10,4.67-16l14-9.5,1,3.33S722.15,489.67,749.44,472.59Z"/><path class="cls-7" d="M737.07,343.84l-1,1-16.5,16s-5,63,.5,79-7.5,20.5-7.5,20.5-7.5-62.5,1-113.5l1.83-13.67,3.67-7.33,3-.5-3,25,12.5-12.5,8-8.5"/><path class="cls-9" d="M755.73,292.34S742.36,315.76,721.11,317c0,0-2.37,27.75-3.62,35.5,0,0,13.75-13.5,19.75-20.75s6.5-11.5,6.5-11.5,1.59-5.79,3.39-10.48c-1.51,3.35-3.53,12.15-8.39,18C730,338.26,720,348,720,348l2.25-30.62c14-2.25,26.5-11.87,26.5-11.87s-.17.68-.61,1.86a13.4,13.4,0,0,1,1.61-2.86l6.75-6.5,1.25-.67Z"/><path class="cls-9" d="M748.12,307.37c-.33.74-.67,1.55-1,2.41C747.55,308.82,747.87,308,748.12,307.37Z"/><path class="cls-7" d="M708.73,502.51s2.25-5.25-4-7.75-11.5-9.5-21.25-6L694,478.51s22.5,8.5,22.5,14.5S708.73,502.51,708.73,502.51Z"/><path class="cls-7" d="M662.07,489.67a16.53,16.53,0,0,0-16.33-.33c-9,4.67-14.75,14.17-14.75,14.17l-3.25-6.17S637.4,478.67,655.4,481Z"/><path class="cls-8" d="M752.57,470s32.33,13.67,24.67,41c-6.65,23.71-20,71.5-20,71.5s-27.46,13.79-49.79,12c0,0-6-23.12,4-49.87a67.05,67.05,0,0,0-14-6.21l-.75-13.87s7.33-10,4.67-16l14-9.5,1,3.33S725.27,487.09,752.57,470Z"/><path class="cls-6" d="M715.07,335s-6.33,65.5-5.83,88c0,0-.75,25.25,4.25,32.25l-20,21L688.73,480a85.84,85.84,0,0,1-5.75-41.5c2.75-22.75,4.75-38.75,8.5-54.25s10.75-50.75,10.75-50.75Z"/><path class="cls-6" d="M714.23,335s8-11,6.25-19c0,0-9.5-6.25-18.25-3.5,0,0-6.54,12.29-1.87,19.63A28.89,28.89,0,0,0,714.23,335Z"/><path class="cls-10" d="M703.07,333.67s-11.33,47.33-15,71.67-7,56,1.33,73.67l-1.67,2s-6.33-10.67-6-30.33,4.33-44.33,4.33-44.33L701.4,332Z"/><path class="cls-10" d="M701.4,319.67s-2.67,11.08,1.08,12.83,9.88,3.5,13.75-2l1,1s-1,5.33-9.75,4.25c-6.2-.77-6,0-9.5-7.75l1.25-8.17Z"/><path class="cls-9" d="M658,266s3.08,21.83,5.08,28.33S681,336,694.73,350c0,0,3.5-24.25,6-31.25s1-10.25,1-10.25-31.25-29.75-35.25-42.75l-2.25-1s1.75,4,3.5,7.25S683,296.26,701,310.26c0,0-6.5,23.75-7,36a145.63,145.63,0,0,1-23.25-43.75,83.65,83.65,0,0,1-7.67-13.17c-3.42-7.13-3.33-23.58-3.33-23.58Z"/><path class="cls-10" d="M715.4,333.17s-9.33,99.17-1.67,120.17L711.07,457s-4-13.33-2.67-41,5-81,5-81Z"/><path class="cls-11" d="M753.57,471.17,746.73,474l-45.33,34.5-6.17,28,17.66,6.29c-6.23,10.45-9.3,27.5-5.2,51.17,0,0,14.75,1,19.5-2,0,0-16.17-2.78-10.62-35.62,1.19-7.06,9-16.5,11.88-26.5l-.67.27.46-.6c-9.5-14.5.5-28.5,14.5-37s32.5,0,32.5,0C769.23,480.51,753.57,471.17,753.57,471.17Z"/><polygon class="cls-6" points="727.4 490.34 724.4 509.01 709.07 503.68 727.4 490.34"/><path class="cls-12" d="M751.85,469.66a1.05,1.05,0,0,0,.37,1.61c2.49,1.17,9.5,6,14.85,10.07,7,5.33,13,18.67,9,35s-21.83,69.17-21.83,69.17l5.17-7.5s14-42.33,16.67-53.67,10.67-32.5-9.67-46.17c0,0-6-4.46-13.33-8.83a1,1,0,0,0-1.22.32Z"/><path class="cls-5" d="M759.07,296.67l9,36.33L734.4,437.34l-11.67,9.33s0-26.33,10.33-45l5-36s-5.33-26.83,5.67-45.42l6-15.75Z"/><path class="cls-5" d="M759.07,296.67l9,36.33L734.4,437.34l-11.67,9.33s0-26.33,10.33-45l5-36s-5.33-26.83,5.67-45.42l6-15.75Z"/><path class="cls-5" d="M688.57,481.67s12.19-19.86,25.56-32.46a72.53,72.53,0,0,1,23.94-14.71l.67-27.5,2-12.5s8-34.5,8-50.5-2.33-17.67-2.33-17.67l6-3-1.67-5,7.67-6s-8.5-20.83.5-22.83,13.83,5.5,13.83,5.5,10.5,38,12.5,57.5-8.83,76.17-3.33,89.67a8.28,8.28,0,0,1,1.67,6c-.54,3.31-3.83,7.25-8.83,10-10,5.5-34.5,21.83-34.5,21.83s-16.5,9-23,20.5C717.23,500.51,712.23,483.51,688.57,481.67Z"/><path class="cls-13" d="M747.73,420.51s13,9.5,8,10-8,1-6,4.5-3.5,3.5-10,6-38.5,30.5-45,40.5l-6.17.17s12-20.55,26.56-33.71c8.86-8,13.84-11.9,23.94-16.12C739.07,431.84,731.73,414,747.73,420.51Z"/><path class="cls-5" d="M655.23,471.51s1.5-24.5,5.5-33.5,18.5-23,17.5-76c0,0,2.5-41.5-1.5-58,0,0-4.79-24.6-10.17-35.67-1.56-3.2-5.94-1.74-6.83-2.58L625.23,274l-30,7s-6.5-4.5-10.5,7-15,35-15,35-9,38-9.5,45-2.5,36-4,40.5S553.9,427,553.9,427s-4.17,5.5,6.33,9.5c7.74,2.95,32.23,26.29,50.17,44.5,6.39,6.49,12.84,12,16.17,16.17,0,0,11.67-17.17,24.17-17.17l8.5,1.25Z"/><path class="cls-13" d="M772.73,295s7.17,36.83,3.83,64.83-4,46.67-4,46.67-4,33.33,1.33,36.67-1.33,1.5-8.67,9.5-36.67,33.17-36.67,33.17l46-30.67s14,0,7.33-17.33c-2.67-6.95.08-24,.92-40.75,1.25-25,1.75-50.58,1.75-50.58s-2.94-15.48-6-30.17C776.79,307.81,776.47,299.11,772.73,295Z"/><path class="cls-13" d="M659.23,270.51,602.9,284.17,595.23,281l64.5-15.25a10.73,10.73,0,0,1,.67,3.58C660.45,270.73,660.5,268.73,659.23,270.51Z"/><path class="cls-13" d="M666.73,402.34s-1-63.83-9-83.33l-2-7.5,15,1.5s-4.5-19-14.5-23.5l-5-3L649.4,289a26.5,26.5,0,0,1,14.83,19.5l-15.5-2S661.73,331.17,666.73,402.34Z"/><path class="cls-13" d="M640.23,358.51s-4-6.5-7.5-.5-18.5,28-23.5,29.5-19,.5-11,5,5.5,7-1.5,7.5-1.5,5.5,1.5,6.5-12.5,1-10,4,9.5,3,6,6-2,9,11.5,11,32.46,24.9,32.46,24.9L618.73,406Z"/><path class="cls-13" d="M638.73,343a56.72,56.72,0,0,0-8-21.33c-3.4-5.22-10.22-8.48-14.67-13.33-22-24-36,13.33-40,34s-22,90-12.33,97.67l-11.25-9.25s6.25-44.42,6.92-51.42,7.33-61.67,28-98.33c0,0,18-3.67,33.67,24.17S634.73,309.67,638.73,343Z"/><path class="cls-14" d="M676.73,327s.67,74.67-16.67,98-6.58,45.5-6.58,45.5,2.58-26.83,17.25-49.5C670.73,421,683.4,365,676.73,327Z"/><path class="cls-15" d="M701.73,507s-1.75,14.25-4.25,18c0,0-.62,11,.5,14.5,0,0,6,11.25-3.62,8.25,0,0-2.37,5.25-7.25,1.63s-6.37-11-6.37-11-1.12,7.75.25,10.5.38,7.75-4.12,5S672,536,672,536l-2.25-31.25,10.25-11s2.59-1.28,6.33.42A45.69,45.69,0,0,1,701.73,507Z"/><path class="cls-12" d="M700.73,506.51s-.5,10-4,18c0,0-.5,16,1.5,19s-1.5,6-4.5,3c0,0,.5,3.5-4,3.5s-9.25-14-9.25-14-1.25,10,.25,14.5-3.5,3.5-6-.5a82.71,82.71,0,0,1-2.5-16.75c-.5-9.75-3-3-1.75,3.5s2,11,2,11-2,3-4-1.75-3.75-7-4.25-13.75,2-8.25,2.25-13-.75-6,2.75-11.25,12.83-15,12.83-15l-3.58.75s-12,11.75-13.75,18.75,1.5,4.5-1.5,14S667,546.76,667,546.76s1.5,4.25,5.5,3.25c0,0,4.5,8,9.25,4.75,0,0,2-1,.38-5.5s-.87-7.12-.87-7.12,3.38,7.88,7.38,8.88a5.54,5.54,0,0,0,6-2.12s3.63,1,5-.75,1.5-4.37-.37-7.25-.87-16.12-.87-16.12,4.5-8.87,3.88-16Z"/><path class="cls-8" d="M664,496.26s8.42,12.08,8.92,17.92A54,54,0,0,0,675.57,526l2,6.5s1.5,3-.83,4-5.33-1-5.33-1,1.83,9.67,1.83,11.17.67,10.17-2.5,11-5.5-5-5.83-10-3.67-13.92-3.67-13.92,2.33,13.58,2.33,19.08,2.5,11.5-4.83,10.17l-2-.5s-5,2.33-8.33-3.33l-2.5,1.33s-2.83,2.5-6.17-5-3-24.83-3-24.83l-1.67-20.83S648.9,497.51,664,496.26Z"/><path class="cls-1" d="M559.73,373.76S556.23,386,549,392.26s-11.75,13-15,13.5-6.5,2.75-7.5,5.75-3-.5-9.5,5.25-12.25,13-14.25,20-4,14.75-3,18l1.5-3s.75-12.25,6.5-20.5,7.75-14,19-17.25c0,0,1-.25,1.75-2.25A7.29,7.29,0,0,1,535,407c3.75-.25,8-6.75,8-6.75L553,390l6.5-8.5Z"/><path class="cls-1" d="M553.23,433.51s-8-3.75-15.75-2.25S525,429.51,514.23,435s-16,24-16,24,1-7.25,1.75-8.5,4-14,16.5-18.25,14.08-4.08,16.58-4.58,6.17,1.08,9.17,1.08,8.75,1,10.25,2A2.27,2.27,0,0,1,553.23,433.51Z"/><path class="cls-1" d="M627.48,310.76s10.25,8.75,11.25,16.25,2,18.5,1.5,20.25-1-2.5-3.25-18S626,318.26,627.48,310.76Z"/><path class="cls-1" d="M676.4,301.34s4.83,18.17,2.83,48.67,1.5,50.5-8.5,71-14.5,29-15,52.5l-2.25-3a116.89,116.89,0,0,1,3.75-23c3.25-11.75,9.25-21.75,11.25-26.25s9.25-20,8.25-44.25,2.25-33.5,1.25-44-3.08-31.67-3.08-31.67S675.65,297.84,676.4,301.34Z"/><path class="cls-1" d="M747.07,328.67s6.33,20.67-1,50.67-11.83,33-11.83,57l-5.83,2.5s4.33-19.5,13-50.83A177.09,177.09,0,0,0,747.07,328.67Z"/><path class="cls-1" d="M718.38,445.53S720.73,435,726.07,417c4.7-15.87,12.33-39,10.33-63,0,0-2.33-19,3.67-29s5.33-18.33,12.33-24.67S758.23,289,758.23,289l2,.33-3.33,8.83s-5.5,4.83-7.83,9.83-4.67,13.33-7.67,19.33-4,9.67-3,21.33-.67,26.33-.67,26.33-2,16-4.67,26.67c-1.91,7.65-4.9,15.92-7.12,26.23-.87,4.06-2.47,8.58-2.56,13.29Z"/><path class="cls-9" d="M690.4,481.84s-7.58,5.75-10.58,11.42l-2,1.08.33-2s6.92-8.5,10.42-10.67Z"/><path class="cls-9" d="M715.4,499a82.81,82.81,0,0,0-12.67,11.33l-1.33-1.83s8.67-8.83,13-11Z"/><path class="cls-9" d="M703.73,508s-7-9.56-16.33-13.83a22.62,22.62,0,0,0-7.75-2.08l-1.83,2.25a8,8,0,0,1,6.5-.25c6.35,2.33,13.5,8.4,18.42,16.25Z"/><path class="cls-12" d="M699.26,536.54a1.35,1.35,0,0,0-1.77,1.85h0c15.75,7.25,13.38,6.29,13.38,6.29-9,18.75-4.42,50.92-4.42,50.92l2.5-.5c-7.83-43.83,10.42-61.42,12.42-62.92s1-4.54-3.29-.29a36.36,36.36,0,0,0-6.75,10.25Z"/><path class="cls-10" d="M712.57,334.67A23.28,23.28,0,0,0,719.73,317l1.17.83s.67,7.67-5.83,17.17Z"/><path class="cls-16" d="M750.73,642.34s19.33,18,24,32-38,17.33-66.67-6c0,0-9.33-6-9.33-9.33s-2.33-4.67-3,0l-.5,4.25-18.5-5.58S704.73,622.34,750.73,642.34Z"/><path class="cls-16" d="M585.23,654.51s29,3.5,46,30.5-30,21.5-48,10.5-22-12.25-22-12.25-3.46-9.49-4.5-5a9.77,9.77,0,0,1-2,4.5L536.23,677S553.23,647.51,585.23,654.51Z"/><path class="cls-1" d="M738.07,403.51l-4,14.33-1,19s7.33-1.33,8.67-2.67,0-4.67-3.33-4.67,2.33-2.33,5.33-2.33.33-5.67-4-6.33S741.73,407.51,738.07,403.51Z"/><path class="cls-1" d="M661.4,305.67,646.73,305s5.76,11.57,10.67,34.33c4.47,20.77,8.06,52.34,9.33,63,0,0-1-63-16.33-95l15.67,1s-7-15.67-16.67-19.33c0,0,12.91-9.83,12.5-21.33-.06-1.64-1.54-.07-2.17-1.92,0,0,1.33,15.25-14.33,23.58C645.4,289.34,657.07,293.34,661.4,305.67Z"/><path class="cls-1" d="M754.23,293.34s5.5,13.67,7.17,19.33l-10.67,5.67,8.33,6.75a29.88,29.88,0,0,0-9.75,24.5l-2.92-23.25,6.92-2.25-6.25-6,11.33-5.75a52.78,52.78,0,0,0-6-15.17Z"/><path class="cls-1" d="M640.23,358.51s-14,41-7,47,1,11-5,9,0,13.5,7,16,.08,12.58,6.08,21.58c0,0-22.58-28.58-30.08-30.08,0,0-8.5-1.33-10.5-4.5l4.5-2-4.83-3.67S615.73,407,618.23,393C618.23,393,633.23,376.51,640.23,358.51Z"/><path class="cls-12" d="M679.36,530.63c-1.12-3.37-2.5-5.37-3.75-11,0,0-1.87-14.88-11.62-23.38,0,0-.43,0-1.2.07,2.75,3.61,11.06,13.8,11.33,24.05,0,0,2,6.21,3.38,9.75.94,2.5,1.92,3.88-1.08,5.54s-4.33-12.5-7.67-18.83c0,0,4.17,25.5,3.75,33.17s-2.75,8-4.42,5.67-4.4-17.07-6.33-23.83c-1.67-5.83-3.5-5.83-1.5.5s3.17,21.33,3.17,27-6.33,2.33-6.33,2.33-4.33,2-7-2-5.67-7.83-6-20.54c0,0-.21-7.22-.87-5.87-.25.52-1.15-.23-1.42,2.83a59.34,59.34,0,0,0,.42,9.67,61,61,0,0,0,4.5,13.25s-3,4.33-6-3.67-3.33-24.67-3.33-24.67l-2-19.67a36.74,36.74,0,0,1,8.41-8,59.23,59.23,0,0,0-10.14,7.29s2.06,15.44,2.06,20.69c0,3.09-.07,16.33,2.33,24.33,1.68,5.59,5.41,7.35,7.67,6.67,5.5-1.67,2.25-2,2.25-2s3.08,4.5,6.08,4.33c2.1-.12,2.67-.83,2.67-.83s7.5,3,7.75-2.5a110.2,110.2,0,0,0-.5-13s1,10,4.25,10.25,5-.5,5.25-5,.75-10.5-1.25-16.75a4.69,4.69,0,0,0,4.5,1.5C679.73,537.51,680.48,534,679.36,530.63Z"/><path class="cls-17" d="M694.07,596"/><path class="cls-17" d="M668.4,502.67"/><path class="cls-12" d="M659.73,562.76a11,11,0,0,1-2.37-3.25c-3.87-8.5-6.12-21.25-5.79-26.67.15-2.47-2.57-3.85-2.33,1.17.37,7.89,6.5,28.5,6.5,28.5Z"/><path class="cls-12" d="M775.73,522.76s-4.33,2.92-11.67,2.25C764.07,525,768.4,530.76,775.73,522.76Z"/><path class="cls-12" d="M696.73,547.76s-3,1.13-4.87-6.87a55.94,55.94,0,0,1-1.62-13.75s-1.5-1.25-1.5.75A61,61,0,0,0,691,541.63c1.63,5.63,3,7.13.5,8,0,0,2.63-1.75,3.88-1.37S696.73,547.76,696.73,547.76Z"/><path class="cls-12" d="M689.57,527.67s-2.17-1.5-1.83,5.17,5,13.67,5,13.67S688.57,532.51,689.57,527.67Z"/><path class="cls-9" d="M664.73,495c-1-7.67-7-14.67-7-14.67-19.67-2.67-30,17-30,17C633.4,513.67,635.4,511,635.4,511c6.67-7.33,18.33-11.33,25-13S664.73,495,664.73,495Zm-2,0s-8.83,2.17-13.17,4.33-11.33,5.83-13.5,8.67c0,0-1.67,3.17-4.33-3.5s-3.17-7.83-3.17-7.83,3.83-6.17,8.17-8.33,5.33-8.83,18.67-7.33C655.4,481,663.73,489,662.73,495Z"/><path class="cls-18" d="M772.4,517s6.67-15.67-3.33-20.67a24.35,24.35,0,0,0-26,2.67c-5.67,4.67-10.33,23.67-2.67,25.33s12.33-4,18.67-4S771.07,523.67,772.4,517Z"/><path class="cls-1" d="M664.23,264.76S641,267.76,627,272s-32,7-32,7-8.25-.25-10,5-13.75,27.75-19.25,50.25-6.5,38.5-7.5,50.75-3.75,36.25-5.25,39.75-3,8.5,3,11.25,22.5,16,30,22.25,40.08,41.25,40.08,41.25,1.59,1.92,1.58.58c0-1.85.89-4.68,4.08-7.58,5.5-5,16.75-15,27.5-11.25,0,0,3.5,1.25,0-3.5s-25.75-38.75-36-47.25-10.75-10.25-15-10.25-8.5-3.5-5-3.5,8.25-1.75,6-2.5-7.5-.5-5.75-2,8.25-1.25,12-8.5,1.5-9.5,5.5-12.5,18.25-23,19.25-32.75c0,0-.33-3.33-2.17.5s-.5,8.67-17.67,29.5c0,0-3.83,3.33-4.33,6.33s-1.83,10.5-7.67,13-8,2.83-8,4,1.83,3,1.83,3-3.17.33-3.17,1.67,1.5,4.83,7.33,5,10.83,6.5,10.83,6.5,8.33,6.67,12,12,28.5,38.67,28.5,38.67,1.83.5-4.17.17-12.83,2.83-18,7.33-8.17,6.5-9,11L617.73,488s-22.17-25.17-33.33-33.83-27-20-27-20-4.83-.5-3.5-7.17,3.5-6.83,5.67-27.83,2-36.17,3.67-43.5,3.17-20.5,10.17-39.33A268.47,268.47,0,0,1,586.57,286s.83-4.5,5.33-4.83,15.5,7.83,18.5,12.17,10.67,11.83,10.67,11.83,2.5.17-6.17-9.83-9-11.33-17-14.5c0,0,13.83-2.5,19.17-4s14.83-4.67,18.83-5.17,11.33-2.83,26.83-5C662.73,266.67,667.23,265.84,664.23,264.76Z"/><path class="cls-1" d="M765.23,288.51s7.5.5,9.5,7.5,11.5,53,12.5,74-4.5,72-4.5,72,6.5,8-6,17-50.83,27.83-60.33,43.33c0,0-4.67-12.67-16.33-16.67S689.4,481,686.73,483c0,0-2.25-2.83,1.08-5.17S704.9,454,715.57,445.67s12.17-10.17,15.17-11.83c4.81-2.67,9.5-3,5.5-2.67s-.33-5,4.67-5.33-.5-4.17-1.5-4.17,1.33-11.33,0-19.33c0,0,3,1.33,1.33,14.33,0,0-1,3,2.67,4.33s4.17,6.83.83,6.83-7.67,1-2,2c0,0,4,4.67-2.67,5.67s-16.67,5.67-24.33,13.5-21.67,26.33-21.67,26.33l-3.5,5s14,4.33,16.67,6,10.33,12.33,10.33,12.33A175,175,0,0,1,748.73,470c17.67-12.33,22.5-17,22.5-17s9.5,2.67,11.67-4.17a7.39,7.39,0,0,0-2-7l-1.17-8.5s3.5-39.67,2.5-49.83,2.5-26.67.5-40S774.9,303,774.9,303s-1-10.33-10.17-12.5L757.9,289l-1.33-2Z"/><path class="cls-12" d="M761.84,536.91A2,2,0,0,1,764.2,539c0,.48.7.48.75,0a2.71,2.71,0,0,0-3.31-2.8.38.38,0,0,0,.2.72Z"/><path class="cls-12" d="M756.42,546.33l2.46,2c.37.31.9-.22.53-.53l-2.46-2c-.37-.31-.9.22-.53.53Z"/><path class="cls-12" d="M749.32,560a8,8,0,0,0,1.11,3.68.38.38,0,0,0,.65-.38,7.17,7.17,0,0,1-1-3.3c0-.48-.78-.48-.75,0Z"/><path class="cls-12" d="M758,556.64l2,3c.26.4.91,0,.65-.38l-2-3c-.26-.4-.91,0-.65.38Z"/><path class="cls-12" d="M748.91,550.7l1.5,2c.29.38.94,0,.65-.38l-1.5-2c-.29-.38-.94,0-.65.38Z"/><path class="cls-12" d="M739.36,558v4a.38.38,0,0,0,.75,0v-4a.38.38,0,0,0-.75,0Z"/><path class="cls-12" d="M734.47,551.24l-.5.5a.38.38,0,0,0,.53.53l.5-.5a.38.38,0,0,0-.53-.53Z"/><path class="cls-12" d="M732.33,538.9a1.63,1.63,0,0,1-1.19,1.28.38.38,0,0,0,.2.72,2.37,2.37,0,0,0,1.71-1.81c.1-.47-.62-.67-.72-.2Z"/><path class="cls-12" d="M746.35,535.51a5.27,5.27,0,0,1-.45,2.81c-.2.44.44.82.65.38a6,6,0,0,0,.55-3.19c0-.48-.8-.48-.75,0Z"/><path class="cls-12" d="M739.36,541.51V544a.38.38,0,0,0,.75,0v-2.5a.38.38,0,0,0-.75,0Z"/><path class="cls-12" d="M727.39,567.92a11.47,11.47,0,0,1-2.45,4.3c-.32.36.21.89.53.53a12.38,12.38,0,0,0,2.65-4.64c.14-.46-.58-.66-.72-.2Z"/><path class="cls-12" d="M725.47,559.24l-1.5,1.5a.38.38,0,0,0,.53.53l1.5-1.5a.38.38,0,0,0-.53-.53Z"/><path class="cls-12" d="M725.73,549.13h-2a.38.38,0,0,0,0,.75h2a.38.38,0,0,0,0-.75Z"/><path class="cls-12" d="M736.36,572.51v3a.38.38,0,0,0,.75,0v-3a.38.38,0,0,0-.75,0Z"/><path class="cls-12" d="M748,575.14l1.46,2.53a.38.38,0,0,0,.65-.38l-1.46-2.53a.38.38,0,0,0-.65.38Z"/><path class="cls-12" d="M740.36,582v1.5a.38.38,0,0,0,.75,0V582a.38.38,0,0,0-.75,0Z"/><path class="cls-12" d="M728.36,583v2.5a.38.38,0,0,0,.75,0V583a.38.38,0,0,0-.75,0Z"/><path class="cls-12" d="M721,583.67l-1.51,1c-.4.26,0,.91.38.65l1.51-1c.4-.26,0-.91-.38-.65Z"/><path class="cls-12" d="M710.82,583.26l-1.48,2c-.29.39.36.76.65.38l1.48-2c.29-.39-.36-.76-.65-.38Z"/><path class="cls-12" d="M714.36,588.51V590a.38.38,0,0,0,.75,0v-1.5a.38.38,0,0,0-.75,0Z"/><path class="cls-12" d="M716.47,569.43l-.5,2.5c-.09.47.63.67.72.2l.5-2.5c.09-.47-.63-.67-.72-.2Z"/><path class="cls-12" d="M714.44,554.92l-.54,3c-.08.47.64.67.72.2l.54-3c.08-.47-.64-.67-.72-.2Z"/><path class="cls-8" d="M616.48,599.26S618.73,563,625.23,545s15.33-23.83,2.42-44.92c-8.39-13.69-23.47-32.53-39.58-45.75C579.36,447.2,563.73,440,563.73,440l-11.5-8-7.5-2.5s-16.5-2-30.5,5.5-14.75,24-14.75,24-9.75,38.5,3.75,58.5,30.5,25,48,27l.25,2s1.25,28,6.25,41.75C557.73,588.26,580.23,606.51,616.48,599.26Z"/><path class="cls-11" d="M629.73,532s14.5-21.17-18.5-53.17c-23.05-22.35-25.9-42.74-68.9-36.74s-41.6,64.41-41.6,64.41S482.4,433.34,528.07,430c18.33-1.34,31.66,2.83,45.67,13.67C640.07,495,640.37,516.4,629.73,532Z"/><path class="cls-1" d="M646.57,480.34s-11.25,3-16.75,5.25-5-4.75-17.5-16.25-33-25.5-40.25-28-.75,1.75-.75,1.75,25.08,11.75,56.42,54.25C627.73,497.34,627.57,490.34,646.57,480.34Z"/><path class="cls-11" d="M516.07,530.34s24,9.33,28.67,0,24.43-21.41,29.76-17.41,2,11.33-.67,14.67-13.1,52.08-7.1,63.41l-9-2.75-6.25-41.75S524.73,542.34,516.07,530.34Z"/><path class="cls-12" d="M632.48,503.26c-5.09-10-19.22-29.33-34.42-43.25-13.92-12.75-30.26-20.12-39.58-25.5,0,0-8.2-3.4-10.75-4.5l20,13.5c6.78,3.13,18.32,9.42,27.33,18.17,16.9,16.4,33.17,39.08,33.17,39.08,9.92,21.08,1.5,28.75-3,44.25s-9.83,56-9.83,56l-6,1c-8.39.35-17.19,1.3-23.33.33-20.21-3.16-27.33-15.83-27.33-15.83-10.5-44-1-55.5,1-57s3-6.5-1.5-3.5-7,18.5-7,18.5-41-.5-50.5-38,6.5-66.5,6.5-66.5a28.71,28.71,0,0,1,15-9c7.25-1.81,19.87-1.13,26.28-.62-7.17-1.91-17.79-2.89-30.53,1.62,0,0-13.58,2.67-19.25,20a95.33,95.33,0,0,0-5.17,33.83c.75,18.25,3.17,34.92,19.67,46.92s38.25,13.75,38.25,13.75,0,26.75,6.25,41.75a46,46,0,0,0,27.68,16.34c8.47,1.45,20.06.21,31.23-2.34,0,0,4.08-32.5,8.33-48.75S642.23,522.51,632.48,503.26Z"/><path class="cls-19" d="M567.13,491.22c8.44,6.18-12.17,14.59-18.4,20.79-4.88,4.86-3,13-9.8,13-15.58,0-28.2-15.13-28.2-33.79s12.63-33.79,28.2-33.79S547.73,477,567.13,491.22Z"/><path class="cls-12" d="M567.73,443.51s-12.17-6.33-32.42,1.08c0,0-1.55.8-2.21.5-1.08-.5-.69-1,.21-1.92A14.89,14.89,0,0,1,538.9,440c5.85-2.12,12.17-2.33,24.83,0Z"/><path class="cls-19" d="M615.83,508.1s-10.33-6.13-20,10.33c-3.18,5.41-.06,18.25,9.82,21.33A14.1,14.1,0,0,0,620.32,536S631.57,509.34,615.83,508.1Z"/><path class="cls-12" d="M619.44,557a2,2,0,0,1,2.36,2.08c0,.48.7.48.75,0a2.71,2.71,0,0,0-3.31-2.8.38.38,0,0,0,.2.72Z"/><path class="cls-12" d="M614,566.41l2.46,2c.37.31.9-.22.53-.53l-2.46-2c-.37-.31-.9.22-.53.53Z"/><path class="cls-12" d="M606.92,580.09a8,8,0,0,0,1.11,3.68.38.38,0,0,0,.65-.38,7.17,7.17,0,0,1-1-3.3c0-.48-.78-.48-.75,0Z"/><path class="cls-12" d="M615.59,576.73l2,3c.26.4.91,0,.65-.38l-2-3c-.26-.4-.91,0-.65.38Z"/><path class="cls-12" d="M606.5,570.78l1.5,2c.29.38.94,0,.65-.38l-1.5-2c-.29-.38-.94,0-.65.38Z"/><path class="cls-12" d="M597,578.09v4a.38.38,0,0,0,.75,0v-4a.38.38,0,0,0-.75,0Z"/><path class="cls-12" d="M592.06,571.33l-.5.5a.38.38,0,0,0,.53.53l.5-.5a.38.38,0,0,0-.53-.53Z"/><path class="cls-12" d="M589.92,559a1.63,1.63,0,0,1-1.19,1.28.38.38,0,0,0,.2.72,2.37,2.37,0,0,0,1.71-1.81c.1-.47-.62-.67-.72-.2Z"/><path class="cls-12" d="M603.95,555.59a5.27,5.27,0,0,1-.45,2.81c-.2.44.44.82.65.38a6,6,0,0,0,.55-3.19c0-.48-.8-.48-.75,0Z"/><path class="cls-12" d="M597,561.59v2.5a.38.38,0,0,0,.75,0v-2.5a.38.38,0,0,0-.75,0Z"/><path class="cls-12" d="M585,588a11.47,11.47,0,0,1-2.45,4.3c-.32.36.21.89.53.53a12.38,12.38,0,0,0,2.65-4.64c.14-.46-.58-.66-.72-.2Z"/><path class="cls-12" d="M583.06,579.33l-1.5,1.5a.38.38,0,0,0,.53.53l1.5-1.5a.38.38,0,0,0-.53-.53Z"/><path class="cls-12" d="M583.33,569.22h-2a.38.38,0,0,0,0,.75h2a.38.38,0,0,0,0-.75Z"/><path class="cls-12" d="M594,592.59v3a.38.38,0,0,0,.75,0v-3a.38.38,0,0,0-.75,0Z"/><path class="cls-12" d="M605.6,595.23l1.46,2.53a.38.38,0,0,0,.65-.38l-1.46-2.53a.38.38,0,0,0-.65.38Z"/><path class="cls-12" d="M574.06,589.51l-.5,2.5c-.09.47.63.67.72.2l.5-2.5c.09-.47-.63-.67-.72-.2Z"/><path class="cls-12" d="M572,575l-.54,3c-.08.47.64.67.72.2l.54-3c.08-.47-.64-.67-.72-.2Z"/><path class="cls-12" d="M580.1,532.66a2,2,0,0,1,2.36,2.08c0,.48.7.48.75,0a2.71,2.71,0,0,0-3.31-2.8.38.38,0,0,0,.2.72Z"/><path class="cls-12" d="M574.68,542.08l2.46,2c.37.31.9-.22.53-.53l-2.46-2c-.37-.31-.9.22-.53.53Z"/><path class="cls-12" d="M567.58,555.76a8,8,0,0,0,1.11,3.68.38.38,0,0,0,.65-.38,7.17,7.17,0,0,1-1-3.3c0-.48-.78-.48-.75,0Z"/><path class="cls-12" d="M576.25,552.39l2,3c.26.4.91,0,.65-.38l-2-3c-.26-.4-.91,0-.65.38Z"/><path class="cls-12" d="M567.17,546.45l1.5,2c.29.38.94,0,.65-.38l-1.5-2c-.29-.38-.94,0-.65.38Z"/><path class="cls-12" d="M557.62,553.76v4a.38.38,0,0,0,.75,0v-4a.38.38,0,0,0-.75,0Z"/><path class="cls-12" d="M552.73,547l-.5.5a.38.38,0,0,0,.53.53l.5-.5a.38.38,0,0,0-.53-.53Z"/><path class="cls-12" d="M564.61,531.26a5.27,5.27,0,0,1-.45,2.81c-.2.44.44.82.65.38a6,6,0,0,0,.55-3.19c0-.48-.8-.48-.75,0Z"/><path class="cls-12" d="M557.62,537.26v2.5a.38.38,0,0,0,.75,0v-2.5a.38.38,0,0,0-.75,0Z"/><path class="cls-12" d="M554.62,568.26v3a.38.38,0,0,0,.75,0v-3a.38.38,0,0,0-.75,0Z"/><path class="cls-12" d="M566.26,570.9l1.46,2.53a.38.38,0,0,0,.65-.38l-1.46-2.53a.38.38,0,0,0-.65.38Z"/><path class="cls-12" d="M558.62,577.76v1.5a.38.38,0,0,0,.75,0v-1.5a.38.38,0,0,0-.75,0Z"/><path class="cls-5" d="M759.73,580.34s-10.67,8.33-23,11c0,0-42.33,4.33-48,7S669.4,604,652.73,614c0,0-20.58-14.42-35.33-13.33-8.72.64-20.65,2.32-33-.33-8.54-1.84-17.29-6.62-25.33-11.67L557.4,593a13.73,13.73,0,0,1-6,10.67c-6,4-5.33,7.67-1.67,8s8.67,5,8,9.33-9.67,7.33-9.67,7.33-3,5,5.67,10.67c0,0-10.33-4-18,10.67,0,0-15,23,.5,27.33,0,0,17.67-17.83,40.5-20s31.17,5.5,31.17,5.5l14.83.83,17-3.67,6.67.33,8,2.67s15.67-1.33,22.33-5,17.67-13,17.67-13,16-14,58.33-3c0,0-5.33-5.67-1.33-9s13.33-12,7-17-5.33-10-.67-12.67S770.73,591,759.73,580.34Z"/><path class="cls-1" d="M651.07,660.67s-5-5.33-16.67-1.33-27.67,2.33-27.67,2.33q-1.79-.37-3.56-.67c1.87,1.28,9.94,5.71,27.23,1.67,20-4.67,14.33,2.67,33.33.33a37,37,0,0,0,16.63-6.41l-4.29-1.25C667.07,662.67,651.07,660.67,651.07,660.67Z"/><path class="cls-1" d="M757.4,614.34c-7.67-4-.67-9-.67-9s13.67-9,8-19S759.4,578,759.4,578s-1.67,11.67-46.33,15.33S652.73,614,652.73,614s-21.83-17.5-36.25-14.75-30.75,5.25-58.75-11c0,0-2.67.42-1.67,4.75s-9.33,13.33-9.33,13.33-3,5,1.67,6.67,10.33,6,6.33,9-11,5-9,9.33a15.3,15.3,0,0,0,5.33,6.33s-8-2-14.67,8.67-10.33,18-7,25.67,4,8,8.33,5.33c2.51-1.55,5.7-7.12,11.31-12.12-6.42,2.37-10.19,4.85-10.31,6.12-.33,3.67-4.33,4.33-4.33,4.33s-6.67-6-2.33-16.67,8.33-15.33,13.67-18,18.33.33,18.33.33L555.4,638s-11.67-6.33-4.33-10,8-7.67,8-7.67-1-7.33-7-9.33-1.33-4.67,3.33-10,4.33-10.33,4.33-10.33c7.33,5.67,18.67,9.67,28.67,11.67s23.67-.67,34.33-.67S652.4,617,652.4,617s9-7.33,25.33-13.67,23.67-6.33,48-9.33,34-12.33,34-12.33C771.07,594.34,754.4,605,754.4,605s-6,5.33,2,10.67-.67,11-5,15.33-.67,9-.67,9-27.67-5.67-43.33-.67c-1.75.56-3.63.55-5,1.33,12.38-3.44,34.14-5.15,49.71,3,0,0,7,0,1.29-4.29S760.07,625,760.07,625,765.07,618.34,757.4,614.34Z"/><path class="cls-12" d="M556.57,439.84s-5.66-9.43-25.75-7.75c-24.92,2.08-29.75,24-29.75,24l1.17-9.33s3.75-15.75,26-18,36,9.25,36,9.25l-.17,3.08Z"/><path class="cls-20" d="M787.07,280"/><polygon class="cls-10" points="729.07 490.01 725.73 512.34 708.73 504.01 711.07 502.68 724.4 509.01 726.82 491.34 729.07 490.01"/><path class="cls-6" d="M304.23,624.51"/><path class="cls-5" d="M559.4,379.34s-5.58,10.42-8,11.67-11.67,11.67-11.67,11.67.17,1.17-5.75,3.08c0,0-6.92,3.58-6.58,6.92,0,0-10.33,3.33-12.33,6.33s-11,15.67-11,15.67L500,448.51a28.54,28.54,0,0,1,16.5-16.25,65.18,65.18,0,0,1,24.75-3.58l11.25,2.08S560.4,388.34,559.4,379.34Z"/><path class="cls-1" d="M559.48,381.51l.25,6.33-2.83,22-4.33,21.33a43.74,43.74,0,0,0-10.17-2c-6-.5-12.67-.67-12.67-.67s20.5-.5,16.5-3-13-6-18-6,7-6.5,12.5-3,7-3.5,5-4.5S557.23,404,559.48,381.51Z"/><path class="cls-1" d="M741.57,419.17s4.67-.33,9.67,4.33,10.67-19,2-27.67-.33-22-.33-22,5-8,2-13.33,1.67-15,1.67-15-8.33,0-7.33,6.67-2.67,14.67-2.33,19.33c.49,6.82-6,25.67-6,25.67s-9.08,22.92-6.58,27.42C736.1,427.8,741.57,419.17,741.57,419.17Z"/><path class="cls-13" d="M759.73,581.67s10.58,10.42-3.67,21.92-45,14.25-45,14.25-3-2.25,5.5-3,29.25-7.5,22-8.75-8.5,3-14.25,2.75,6-6,13-6S763.4,599,759.73,581.67Z"/><path class="cls-1" d="M622.23,662.17s-14.67,0-24-6.33-24-6-38,1-21.5,14.5-21.5,14.5l1.17,3.17s16.33-14,35-16.33a63.74,63.74,0,0,1,33.67,5.33S622.23,665.51,622.23,662.17Z"/><path class="cls-1" d="M562.23,631.51s11,7.67,37,7,13.33,8.67,30.33,9,14-10.33,31.33-6.33,22-4.33,30.67-8.33,29-12,47-8.67c0,0,8,2.67-3.67,3.33s-29.67-2-46.67,13.33-23.33,15.33-31.67,14-4.17-8.83-27-1-23.33-5.67-30-7-24.22-.69-39-11.33C552.23,629.51,560.57,628.17,562.23,631.51Z"/><path class="cls-13" d="M623.23,605.17s27.33,11.67,31,24.67a64.15,64.15,0,0,1-16.67,13c-9.67,5-11.67-10-24.33-10s-37.33,2.33-44.33-3.33,11,0,23.67-1.33,43.67-.33,30.33-9-21.33-1-35.67-8.67S600.57,613.84,623.23,605.17Z"/><path class="cls-1" d="M610.57,617.84s12,1.5,8.5,5-34.25,4-40.5,1.5-11.75-12.75-18.5-13.75-3.75-7,1.75-5,17.75,16,30.5,15S600.82,617.09,610.57,617.84Z"/><path class="cls-21" d="M780.32,567.34"/><path class="cls-1" d="M691.07,599.34s-14,5.75-15,29.75l-.25,6.75S664.23,620.17,652.4,617C652.4,617,674.57,601.59,691.07,599.34Z"/><path class="cls-13" d="M564.07,641.34s-17.25-5.25-24,5-11.25,14.25-8.25,23.25,4.5-8.5,8.25-10.5S544.82,641.84,564.07,641.34Z"/><path class="cls-1" d="M694.57,612.51c-7.67,10-11,19-8.33,20s6.33-10.33,13-10.67-.33-7,14-8.33,4-4.67-2-3.67"/><path class="cls-1" d="M756.07,604.09s-18,10-27.75,11-7,5.25-.75,4.25,22-8,30.5-2.5c0,0-4.06-2.31-5-5.77C752.46,609,753.33,606.07,756.07,604.09Z"/><path class="cls-22" d="M746.57,615.34"/><path class="cls-13" d="M752.52,629.92s8.12-7,7-10.47a4.25,4.25,0,0,0-.51-1.16c-1.2-2.3-4.61-3.6-9.44-3.5a45.32,45.32,0,0,0-11.62,1.92s12.75-.5,14.88,2.13S757.15,622.67,752.52,629.92Z"/><path class="cls-1" d="M751.4,640.17s-11.17-7.83-32-4.83-22,2.67-43.33,20l4.29,1.25s28.71-29.09,67.71-14.92Z"/><path class="cls-1" d="M542.9,431"/><polygon class="cls-10" points="709.07 335.97 707.32 345.97 707.32 335.22 709.07 335.97"/><path class="cls-1" d="M660.27,479.32a9.46,9.46,0,0,1,1,6.1s-2.66-4.13-2-3.17-1.1-1.44-1.1-1.44Z"/><path class="cls-1" d="M654.57,367.84s6,29,0,43-1-9-3-17S648.57,365.84,654.57,367.84Z"/><path class="cls-1" d="M735.23,481.84s1.5,12.17,4.67,14.67-12.67,4-12.67,4l1.33-14.67Z"/><path class="cls-1" d="M716.4,502.34s0,2.33-5.33.33L715.4,499Z"/><path class="cls-12" d="M621.57,534.84s-11,6-20,1S609.57,550.84,621.57,534.84Z"/><path class="cls-8" d="M764.27,272.53s7.08,1,9.62-8.32,4.84-15.9,2.07-21.42-8.08,4.86-8.08,4.86Z"/><path class="cls-12" d="M777.59,248.16s-.33,15-5,20-6.66,8-9.66,6,.34-1.64.34-1.64l1.33-1.37s13.33-2.67,10.33-23Z"/><path class="cls-8" d="M766.89,231.43s4.24,65.67-22.65,80.86c-7,3.95-13.91,9.8-21,12-20.08,6.18-39.92-1.6-55.53-44.47-1.5-4.13-.73-8.65-1-12.67-.82-11.12.42-21.28,1.33-30.38,3.38-33.81,19.1-53.6,19.1-53.6l76.16,13Z"/><path class="cls-11" d="M667.74,244.17S672.18,283,683.91,293c0,0,6.21,9.69,9.45,12.79s13.94,11.46,31.11,5.56a57.84,57.84,0,0,0,13-12.4c5.83-7.75,15.23-6.82,18.79-21.07s7.12-24.78,6.46-44.92l5.84,9.6s-1.28,36.55-10.35,51.43-19.76,30.36-48.6,31.92c0,0-17.5-1.23-28.2-19.51s-13.62-20.13-14.6-43.05Z"/><path class="cls-23" d="M735.88,269.08s-4.13-2.55-4.86-.23-3.89,4.65-6.56,4-5.83,3.49-10.45,1.63a22,22,0,0,1-6.56-3.71s-5.83.7-8.51-3.25S697,264,697,264l3.16-3s6.74,9,15.89,9,7-3.21,7-3.21l2.51,1.63s3.73,1.39,3.65-.93S732,264.2,735.88,269.08Z"/><path class="cls-12" d="M682.17,271.19c1.78-2.25,7.19-4.74,10.43-5.74s9.93-7.07,9.93-7.07c-2.54,5.63,2.54,6.84,2.54,6.84s3.23-.33,4.5,1.54,3,2.87,6.47,3.2,3.81-1.22,5.89-2.76,3,.44,3,.44a2.43,2.43,0,0,0,2.69,0,7.05,7.05,0,0,0,1.89-1.4c.23,5-3.79,3.45-5.17,2.57a1.73,1.73,0,0,0-2.34.34s-.55.91-4.59,2.45-8.67-3.05-9.48-3.71-2.72,1.22-5-1.39c-2.73-3.16-2.35-4-2.35-4s-4.39,3.87-7.74,5.08c0,0-7.78,2.44-9,4.77S680.39,273.44,682.17,271.19Z"/><path class="cls-12" d="M731.16,264.78c3.13-1.16,12.59,7.5,14.55,10.15s1.66,3.74-.2,3.44-3.82-5.81-6.48-7.9C735,267.3,729.27,265.47,731.16,264.78Z"/><path class="cls-12" d="M694.25,273.21s-4.07-1.3-5.43-.76-1.66,2.78.49,2.78,6.64-.95,10,.68,19.46,4.86,27.15,4,11.39-.13,11.39-.13,2.86,0,2.19-1.71c-.42-1.08-3.28-.65-3.28-.65a102.22,102.22,0,0,1-11.65,1.29,76.63,76.63,0,0,1-22.85-3.13Z"/><path class="cls-12" d="M727.24,257.49a6.54,6.54,0,0,1-2.89,1.1c-1.27,0,.12.88,1.5,1.77S726.54,257.49,727.24,257.49Z"/><path class="cls-12" d="M735.49,302a13.11,13.11,0,0,0-3.23,2.5,37.8,37.8,0,0,1-7.46,5.49c-2.51,1.4-5.23,1.81-4.54,2.48,1.62,1.55,4.14-.25,10.61-4.88C740.51,300.68,735.49,302,735.49,302Z"/><path class="cls-12" d="M701.31,310.23s-5.54-1-11.86-11.48-7.86-9-7.86-9-.62-.15,2.31,3.24S693.77,311.56,701.31,310.23Z"/><path class="cls-12" d="M723.47,290.35s-7.08-5.59-20.17-3.23c0,0-2.16.88,0,.88S711.46,285.5,723.47,290.35Z"/><path class="cls-8" d="M666.73,267.12s-9.93-2.87-9.47-15.45,8.31-10.38,8.31-10.38S666.72,239.74,666.73,267.12Z"/><path class="cls-19" d="M719.26,239.5s4.22,18.89.66,22.92-8.1,2.48-8.75-.62S716,246,715.7,241.36,719.26,239.5,719.26,239.5Z"/><ellipse class="cls-19" cx="712.32" cy="301.62" rx="12.15" ry="7.9"/><path class="cls-19" d="M758.45,259.6c0,4.36-1.7,17.2-6,12.07-8-9.5-18.28-7.7-18.28-12.06s5.44-7.9,12.15-7.9S758.45,255.24,758.45,259.6Z"/><path class="cls-19" d="M674.15,256.13c0,4.36,1.71,17.2,6,12.06,8-9.5,18.27-7.71,18.27-12.07s-5.44-7.9-12.15-7.89S674.15,251.77,674.15,256.13Z"/><path class="cls-11" d="M759.08,212.33s-14.66,12.67-40,11.35-30-3-41.67-17-1-12.33-1-12.33Z"/><path class="cls-12" d="M768.68,246.07s0,46-19.42,63.2-41.79,26.73-62.7,5.83-22.62-42.74-20.68-71.78l1.94-.93s-1,17.66.25,27.18,3.07,25.09,16,40c7.56,8.72,16.79,14.28,26.51,15.49,6.85.85,15.62-2.7,22.25-6.26,16-8.6,22.83-19.33,26-29.09a119.6,119.6,0,0,0,5-17.67,194,194,0,0,0,3-32.43Z"/><path class="cls-11" d="M751.48,246s8.37-3.48-6.56-7.44-20.68,6-20.68,6,2.37,2.92,4,2.53C733.36,245.94,743.44,240.87,751.48,246Z"/><path class="cls-11" d="M709.21,245.38s2.91-4.12,1.12-6.3c-1.33-1.63-5.86-2.91-12.36-3.35-15.41-1.06-15.27,7.12-15.27,7.12S694,237,709.21,245.38Z"/><path class="cls-24" d="M785.19,228.44s-1.15,3.75-3.69.88,1.62-4.64-.7-9.27,0-11.92-.7-17.66c-.56-4.59-4.94-8.46-6.68-9.83.47-1,.67-1.64.67-1.64-26.81-47-81.31-25.36-81.31-25.36-25.4.89-33.48,24.74-35.09,32.47s1.7,19.61,1.63,26.94c-.08,8-4.15,11-4.85,13.25s-3,.44-3,.44c.46,4.42,5.08,9.49,13.63,7.5s11.3-42.39,11.3-42.39c9.7-4.42-.2,13.6,44.14,14.69,18.88.46,31.37-4.46,39.52-10.27.67,10.95,2.62,35.25,6.89,38.82,5.54,4.63,18.24-4.2,15.93-3.76a6.45,6.45,0,0,1-4.16-.66C789.82,240.8,785.19,228.44,785.19,228.44Z"/><path class="cls-12" d="M750.59,245.84s-8.42-3.75-20.67,1c0,0-2.5-3.25,1-6.5s14-1.75,14-1.75,2.25,1.25,0,1.5-9.5-1.25-12.25,1.75-.25,2.25-.25,2.25,5.33-6.42,17.67.41C750.09,244.5,752.42,245.5,750.59,245.84Z"/><path class="cls-12" d="M684.92,241.94s5.55-2.84,22.08,1.91c0,0,3.37-3.25-1.35-6.5s-18.9-1.74-18.9-1.74-3,1.25,0,1.5,12.82-1.25,16.53,1.74.34,2.25.34,2.25-1.14-2.5-6.21-2.58C691.88,238.43,692.17,237.94,684.92,241.94Z"/><path class="cls-12" d="M786.58,226.49a11.76,11.76,0,0,1-3,.67c-2.33.33,2-4.33-.67-8.67s2-15-.34-18.33-6.34-10-6.34-10-9.68-26-39.68-30.65a124.08,124.08,0,0,0-14.5-1.49c-19.81-.75-29.16,4.84-29.16,4.84a30.71,30.71,0,0,0-25.66,10.68c-11,12.67-12.33,23.34-12.32,29.67s2.68,19.67,1.68,24.33a26.32,26.32,0,0,1-3.66,8.67s-1.29-2-2.1-2.17-.9.83-.9.83-4,17.67,16,12.66c0,0,10,.33,12-43a3.37,3.37,0,0,1,3.67,2.67c.67,3,11,12,34,13s42.33-7.68,42.33-7.68.68,33.33,9.68,37.33,19-6.67,19-6.67l-1.67-.67S791.58,236.82,786.58,226.49Zm-3.69,16.74c2.31-.44-10.39,8.39-15.93,3.76-4.27-3.57-6.22-27.87-6.89-38.82-8.14,5.81-20.64,10.73-39.52,10.27-44.34-1.09-34.44-19.11-44.14-14.69,0,0-2.76,40.4-11.3,42.39s-13.17-3.09-13.63-7.5c0,0,2.31,1.77,3-.44s4.77-5.29,4.85-13.25c.07-7.32-3.24-19.21-1.63-26.94s9.69-31.58,35.09-32.47c0,0,54.5-21.66,81.31,25.36,0,0-.2.62-.67,1.64,1.74,1.37,6.12,5.25,6.68,9.83.69,5.74-1.61,13,.7,17.66s-1.85,6.4.7,9.27,3.69-.88,3.69-.88,4.62,12.36-6.46,14.13A6.45,6.45,0,0,0,782.89,243.23Z"/><path class="cls-25" d="M754.59,239.17s-8-3-14.33-3a37.6,37.6,0,0,0-12.67,2.67s-3.33-.67-1.33-3.33,16.33-4.67,23-3.67S754.59,239.17,754.59,239.17Z"/><path class="cls-24" d="M754.33,237.67s-8-3-14.33-3a37.6,37.6,0,0,0-12.67,2.67S724,236.68,726,234s16.33-4.67,23-3.67S754.33,237.67,754.33,237.67Z"/><path class="cls-25" d="M680.92,235.86s8.61-1,14.94-1a37.6,37.6,0,0,1,12.67,2.66s3.33-.67,1.33-3.33-16.33-4.66-23-3.66S680.92,235.86,680.92,235.86Z"/><path class="cls-24" d="M680.79,234.49s8.61-1,14.94-1a37.6,37.6,0,0,1,12.67,2.66s3.33-.67,1.33-3.33-16.33-4.66-23-3.66S680.79,234.49,680.79,234.49Z"/><path class="cls-12" d="M747.09,249.13a67.8,67.8,0,0,1-15.67.44s-2.5.17-.17.86,13,.17,15.5-.61S747.09,249.13,747.09,249.13Z"/><path class="cls-12" d="M704,247.9a68.17,68.17,0,0,1-15.66-.49s-2.52,0-.36.85,12.88.93,15.53.31S704,247.9,704,247.9Z"/><path class="cls-25" d="M774.1,190.91s-.53,8.92-13.35,18.76c0,0-1.68-.93-1.25-2.17,1.33-3.78,11.55-17.11.24-22-7.94-3.44-21.56-15.85-37-16.49-10.08-.42-20.94,9.39-31.5,12-3.85,1,6.91-10.08,2.5-8-17,8-16.74,29.76-16.74,29.76s-.54.54-1.25,6c-.75,5.75-1.94,18.27-3,20.5-1.92,4.09-7.06,6.89-13-18.5-3.81-16.26,3.7-36.61,20.73-43,10-3.75,12.42-2.75,12.42-2.75s22.93-8.44,46.33-2.27C752.11,166.16,766.05,173.66,774.1,190.91Z"/><path class="cls-25" d="M774.74,193.24s-9,17.75-15,17.76l2.94,22s2.57,9.51,9.07,5.51,8-8.5,5.49-20S781.24,205.74,774.74,193.24Z"/><ellipse class="cls-26" cx="720.74" cy="198.51" rx="31" ry="13.5"/><path class="cls-24" d="M677,202.78s-12.28-10.25-8.37-26.91l-1.81,2.33s-3.68,12.42,9.27,26.08Z"/><path class="cls-24" d="M675.24,211.86s-15.82-10.58-13.34-25.58l-1.41,3s-2.65,11.83,14.75,24.83Z"/><path class="cls-24" d="M674.49,219.78s-14.2-7.49-16-20.49l-1.15,5.25s4.71,12.91,16.91,16.41Z"/><path class="cls-24" d="M673.31,226.78s-9.86-2.75-14.16-8.49l.23,2.25s8.51,6.25,13.71,7.75Z"/><path class="cls-24" d="M754.4,193.33s-17.25,4.34-31.16,6.68c-24.5,2-26.35-.77-35.5-.49-5.62.17,4.19,2.34,0,1.83C687.74,201.36,737.74,208.67,754.4,193.33Z"/><path class="cls-24" d="M751.9,187.34s-17.25,4.34-31.16,6.68c-24.5,2-26.35-.77-35.5-.49-5.62.17,4.19,2.34,0,1.83C685.24,195.36,735.24,202.68,751.9,187.34Z"/><path class="cls-24" d="M749.9,180.34s-17.25,4.34-31.16,6.68c-24.5,2-26.35-.77-35.5-.49-5.62.17,4.19,2.34,0,1.83C683.23,188.36,733.24,195.68,749.9,180.34Z"/><path class="cls-24" d="M757.9,199.83s-17.25,4.34-31.16,6.68c-24.5,2-26.35-.77-35.5-.49-5.62.17,4.19,2.34,0,1.83C691.24,207.86,741.24,215.17,757.9,199.83Z"/><path class="cls-24" d="M761,218.75s14.25-4.51,17.75-11l-.5,3.75a33.75,33.75,0,0,1-17,9.26Z"/><path class="cls-24" d="M760,214.75s15.75-7,19.25-13.51l-.5,2.75s-3.25,5.25-18.5,11.76Z"/><path class="cls-24" d="M761.5,226.75s14.25-4.51,17.75-11l-.5,3.75a33.75,33.75,0,0,1-17,9.26Z"/><path class="cls-24" d="M763,234s14.25-4.51,17.75-11l-.5,3.75a33.75,33.75,0,0,1-17,9.26Z"/><path class="cls-12" d="M753.74,212.25s1.59-.22,6.08-4c6.44-5.42,16.93-13.9,9.57-26.77l5.42,9.26s-5.5,17.88-19.58,23C754.33,214.08,753.74,212.25,753.74,212.25Z"/><path class="cls-12" d="M657.75,246.7s.17,9.17,2.67,13.83,6,5.5,6,5.5l-.17,1.67s-10.17-1.16-9.84-20.33Z"/><path class="cls-12" d="M683.07,206.36S676.74,200,678.4,191L676,208.78S677.74,199.7,683.07,206.36Z"/><path class="cls-12" d="M720.69,323.8s-9.25,2.1-10.5-2.21-1.1-.78-2.17,0-4.29,2.76-9.37-.09S708.85,331.85,720.69,323.8Z"/><path class="cls-3" d="M860.81,638.44s-11,1.38-7.73,8.83,20.14,11,20.14,11-5.86,2.41-3.93,6.55,14.28,8.28,23.38,6.62,21.66-9.59,43-9.31l-9.24-14.62s5-.28,3.59-3.59-11.31-5.52-11.31-5.52Z"/><path class="cls-4" d="M927.86,606.57,927,640.93s-20.69,19.31-48.29,13c0,0-13.24-3.59-18.21-8.83l-.83-38.63S899.71,619.13,927.86,606.57Z"/><path class="cls-27" d="M927.86,606.57l-.55,38.49s-21,15.18-48.56,8.83c0,0,22.63-.83,17.66-6.07l17.93-21-12.78-9.64-6.19-4.5S899.71,619.13,927.86,606.57Z"/><path class="cls-4" d="M881,614.44s22.63,2.76,28.7,9.38-11.86,11.86-11.86,11.86-14.9,6.07-18.21,14.9-3.86,12.69-3.86,12.69,4.41,4.69,15.45,4.69,23.32-11.86,44.56-5.79c0,0-11.09-28-24.42-38.35-9.93-7.73-22.07-8.83-22.07-8.83Z"/><ellipse class="cls-28" cx="893.64" cy="606.57" rx="34.21" ry="8.42"/><ellipse class="cls-3" cx="893.64" cy="605.57" rx="11.41" ry="2.81"/><path class="cls-27" d="M878.74,653.89s1.93-10.21,8.28-13,32.83-10.21,18.49-19l-9-6.9a21.93,21.93,0,0,1-2.86,0s11,5.24,11,11.59-13.38,7.86-20.83,12.28-7.31,14.21-7.31,14.21Z"/><path class="cls-29" d="M948.57,609.84"/><path class="cls-29" d="M863.19,613.34"/><path class="cls-29" d="M856.19,613.34"/></g></g></svg>