<svg xmlns="http://www.w3.org/2000/svg" viewBox="0 0 1287.59 858"><defs><style>.cls-1{fill:#5a270c;}.cls-2{fill:#010101;}.cls-3{fill:#232323;}.cls-4{fill:#eaa527;}.cls-5{fill:#3d190c;}.cls-6{fill:#feee53;}.cls-7{fill:#4d8f41;}.cls-8{fill:#f99d1c;}.cls-9{fill:#79b56b;}.cls-10{fill:#21451f;}.cls-11{fill:#6b6c6c;}.cls-12{fill:#fff;stroke:#232323;stroke-miterlimit:10;}</style></defs><title>Asset 20</title><g id="Layer_2" data-name="Layer 2"><g id="Layer_1-2" data-name="Layer 1"><rect class="cls-1" width="1287.59" height="858"/><path class="cls-2" d="M522.7,511.82c0-8,15.51-14.57,19.34-14.57s6.94,6.52,6.94,14.57-3.1,14.57-6.94,14.57S522.7,519.87,522.7,511.82Z"/><path class="cls-2" d="M596.46,508.26c0,27.88-13.77,44.54-30.76,44.54s-30.76-16.65-30.76-44.54,13.77-45,30.76-45S596.46,480.37,596.46,508.26Z"/><path class="cls-3" d="M559.66,551.87c-15.28,0-27.66-15.59-27.66-41.68s12.38-42.12,27.66-42.12c0,0-18.48,5-18.48,41.9S559.66,551.87,559.66,551.87Z"/><polygon class="cls-4" points="674.27 404.21 665.67 418 655.4 401.43 666.23 408.79 674.27 404.21"/><path class="cls-5" d="M714.32,623.85c-.09,9.48-18.1,22.11-41.67,21.9-3.68,0-11.43,2.16-16.68,2.13-10.78-.06-22.83-2.28-32.86-5.1-16.38-4.6-35-20.07-25.84-26.11,7.48-4.91,35.63-11.46,59.2-11.24S714.41,614.37,714.32,623.85Z"/><path class="cls-2" d="M783.2,467.62s.36-46.95-25.48-80.89c-23.15-30.41-68.65-36.25-68.65-36.25s-55.15-9.64-84.46,5-52.07,46.28-54.38,71.35-2.7,30.47-2.7,30.47l12-2.7s-.14-42.37,19.53-65.9,52.59-30.13,52.59-30.13l64,2.7s37,13.4,52.45,35.48c18.84,27,17.68,71.32,17.68,71.32Z"/><path class="cls-6" d="M754.45,449.79l-.39,2.7-.19,13.11-.77,12.73-11.57,93.14A24,24,0,0,1,729,582.08s-.77,1,1,1.93,3.47,5.21,1,8.87-7.52,5.79-7.52,5.79,0,3.09-1.35,4.44-12.73,11-12.73,11-2.89,5-14.27-.39c0,0-1.35,1.54,0,2.7s.39,6.56-4.44,8.87-12.53,6.36-12.53,6.36-3.66,2.89-14.85-1c0,0,.19,4.24-3.66,5.59s-6.36,1.93-13.88-4l-2.89,3.66s-10.41-1-17-3.09-9.64-9.06-13.31-16-4.44-10-4.44-10-4.24,2.51-10.22-.39a24.65,24.65,0,0,1-8.68-6.56,8.69,8.69,0,0,1-1.74-5s-7.91-9.06-7.52-16.2,2.89-8.48,2.89-8.48-5.59-.19-10.8-7.71-3.66-11-3.66-11l-1.16-10.61-6.17-12,1.54-18.9,1.16-63.25,2.89-13.11,6.94-4.82,3.28-.39s-3.09-.77-2.7-6.17,1.54-13.5,1.54-13.5l8.87-13.88,16.2-4.63,1.16-10.8s2.31-7.33,6.94-10.8,15.43-15,15.43-15l53.61,1.54,20.83,7.52,7.14,8.29,6.56,1.54s2.89,5.59,5.21,7.33,11,4.63,11.18,19.28l.77,1.16,9.26,3.86L746,418.36l-1.74,11.38a4.08,4.08,0,0,0,1.35,4.24C747.7,435.52,757,440.92,754.45,449.79Z"/><path class="cls-4" d="M724.84,524.16s-16.08,16.08-44.61,10.37-36.31-20.75-36.83-30.09-3.63-30.61-3.63-30.61-6.22-2.07-9.86-1.56,3.63,35-15.56,47.47-33.2,9.6-41.5,8-12.45-6.22-12.45-6.22L562,494.08l61.56-32.5a12.87,12.87,0,0,1,7-1.45L667.78,463Z"/><path class="cls-5" d="M751.56,436.49c-7.33-5-5.79-6.17-5.79-6.17L747.7,418l-7.33-15-9.64-4.24s-.39-12-6.56-16.2-10.41-11.57-10.41-11.57L707.2,369l-6.94-8.1-21.6-7.71-54.77-1.54L605,369.77s-5,5.79-5,11.18-1.93,7.71-1.93,7.71l-14.66,3.86-9.64,14.66-1.93,16.58.77,3.86-7.33,5-3.47,17.74-1.16,63.25s-1.16,11.57-.77,15S565.66,541,565.66,541l1.54,15.81s4.63,12,13.11,14.66a18.48,18.48,0,0,0-1.16,10.8c1.16,6.17,7.33,12.73,7.33,12.73s.39,5.79,3.47,7.71,9.64,8.1,17.36,6.17c0,0,7.71,18.51,13.5,22.75s22.37,5.79,22.37,5.79l3.09-3.47s5.79,5.79,11.57,4.63a8.79,8.79,0,0,0,6.94-6.17s8.87,3.09,13.5.77,15-7.71,15-7.71,5.79-5.4,3.47-9.64l6.94,1.93s4.63,0,7.33-2.7,11.57-9.64,11.57-9.64,3.09-3.86,2.7-5.79c0,0,7.71-3.86,8.1-9.64s-1.93-7.33-1.93-7.33,11.57-6.94,11.57-11.57,12-92.18,12-92.18l.77-25.07S758.88,441.5,751.56,436.49ZM753,450.72l-.39,2.7-.19,13.11-1.88,11.29L738.93,571a27.52,27.52,0,0,1-13.05,10s.34,2.67,2.07,3.63,2.77,4.9.26,8.56-7.52,6.74-7.52,6.74-3.87,3.38-5.22,4.73-8.79,9-8.79,9,.48,3.84-10.89-1.56c0,0-2.09,3.16-.74,4.31s.39,6.56-4.44,8.87-12.53,6.36-12.53,6.36-3.66,2.89-14.85-1c0,0,.19,4.24-3.66,5.59s-6.36,1.93-13.88-4l-2.89,3.66s-10.41-1-17-3.09-9.64-9.06-13.31-16-3.66-11.18-3.66-11.18a13.74,13.74,0,0,1-11.38-.19c-6-2.89-7.13-6.17-7.13-6.17a8.69,8.69,0,0,1-1.74-5s-7.91-8.48-7.52-15.62,2.89-8.48,2.89-8.48-6.75-.19-12-7.71-3.66-11-3.66-11l-1.16-10.61-6.17-12,1.54-18.9,1.16-63.25,2.89-13.11,6.94-4.82,3.28-.39s-3.09-.77-2.7-6.17,1.54-13.5,1.54-13.5l8.87-13.88,16.2-4.63,1.16-10.8s2.31-7.33,6.94-10.8,15.43-15,15.43-15l53.61,1.54,20.83,7.52,7.14,8.29,6.56,1.54s1.56,7,3.88,8.78,11.09,4.41,11.28,19.06l.77,1.16,9.73,3.51,6.22,13.23-1.56,12.45a4.08,4.08,0,0,0,1.35,4.24C746.21,436.45,755.47,441.84,753,450.72Z"/><path class="cls-4" d="M677.89,355.11l20.83,7.52,7.14,8.29,6.56,1.54s2.89,5.59,5.21,7.33,11,4.63,11.18,19.28l.77,1.16,9.26,3.86L746,418.36l-1.74,11.38a4.08,4.08,0,0,0,1.35,4.24c2.12,1.54,11.38,6.94,8.87,15.81l-.39,2.7-.19,13.11-.77,12.73-11.57,93.14A24,24,0,0,1,729,582.08s-.77,1,1,1.93,3.47,5.21,1,8.87-7.52,5.79-7.52,5.79,0,3.09-1.35,4.44-12.73,11-12.73,11-2.89,5-14.27-.39c0,0-1.35,1.54,0,2.7s.39,6.56-4.44,8.87-12.53,6.36-12.53,6.36-3.66,2.89-14.85-1c0,0,.19,4.24-3.66,5.59s-6.36,1.93-13.88-4l-2.89,3.66s-10.41-1-17-3.09-9.64-9.06-13.31-16-4.44-10-4.44-10,22.61,18.82,35.84,12.59,16.34.78,16.34.78,4.67-11.67,11.67-12.45,16.34-1.56,16.34-1.56,2.33-22.57,9.34-23.34,15.56-5.45,15.56-5.45L706.95,568s-1.56-21.79,7.78-24.12,4.67-9.34,4.67-9.34-7-17.9-2.33-20.23,10.12-54.47,10.12-54.47l3.89-17.9-12.45-7.78s-6.22-14-3.89-20.23-11.67-19.45-11.67-19.45l-12.45-14.78s-7,3.89-7,11.67S668,375,668,375s-1.56-4.67-4.67,3.11-7.78,4.67-7.78,4.67l-6.22-10.12S643.92,382,645.48,389s-14.78,1.56-15.56-14-21.79,14-21.79,14l-7.37,1.17s-.41-30.74,38.49-41.64S677.89,355.11,677.89,355.11Z"/><path class="cls-7" d="M629.55,363.54l3.57,13.75,12.37-14.85,6.32,10.45,11-8,11.82,14.57,4.4-14.3,8.52,2.75,7.15,10.72.21-6.74-4.33-9.07,13,9.28,6.8,9.48,3.92,7.83,1.86-14.64-1.44-12,20.69,11.68-11-20.89-14.57-10.17,4.95-2.75,8.52-1.37,6.51-3.81,2.57,3,5.5,4.12,6.32,6.32,5.22,6.87,11.27,11.55L772,376.73l12.65,7.42,6.32.55,16.77-2.47-22.4-7.14-10-35.47s-4.4-18.69-14.57-23.37-20.62-14.57-20.62-14.57l-3.57-.82-4.4,2.47-3,.82-5.22-1.65-5.77,3.3-2.75-4.4a7,7,0,0,0-5.22,1.37,42.72,42.72,0,0,1-7,3.94l7-11.36,12.65-14.3,11.55-8.52,5.22-1.1,9.9,2.75,6.87,4.12,9.62,7.15s9.07,3,14.85,3,2.2-1.37,2.2-1.37l-20.62-21.44s-9.35-9.35-11.55-9.35-13.47-2.47-13.47-2.47-4.67-.82-6.6-3.57-5.77-9.9-9.35-10.17l-4.81,2.47L708.45,250,691,274.19s-2.06-2.2-2.34-10.45A47,47,0,0,1,690,250a23.17,23.17,0,0,0-1.1-10.45l1.92-7.42s-7.42-24.74-20.34-34.09l1.92,8,6.32,28-5.5,7.7a34,34,0,0,0-1.1,10.45c.31,5.77-3.3,17.87-3.3,17.87s-9.9-26.94-17.59-34.64l-7.7-3s-9.62-10.72-8.25-19,3.3-11.27,3.3-11.27l-6.6,7.15a11,11,0,0,0-3.3,9.35l-.27,8.8-31.89-8.52-4.12-1.1-3.57-3.57-15.12-6.32s-5.22-1.37-14.57,0l-7.7,1.92-9.35,11.55-17,21.72-2.2,4.12-6.6,36.29L499,273.37s2.47,9.9,6.6,12.65,18.14,4.4,18.14,4.4l3-.82,9.62-19.52s5.22-12.1,12.37-12.37,12.65-1.65,14.3-6.32l12.92,7.42s7.09,1.47,21.41,24.93l-2.72.09-14.57-7.15a9.84,9.84,0,0,0-10.72,3.57c-4.67,5.77-9.62,11.82-12.1,16.77s-28.59,38.49-28.59,38.49l-21.44-9.07s1.37,12.1,11,17.59,10.72,8.25,18.14,4.4,9.49-8.28,9.49-8.28L568.23,322l1.84-1.23,7,1.48,7.42.55,12.65,11.55S575.67,347,567.42,349.24c0,0-.55.82,4.95,3s18.14,4.4,28.32-1.37l8-4.4-8.25,11.27,2.2,8.8,13.2-6-12.65,14.85Z"/><path class="cls-4" d="M607.73,395.95S589.84,489,612.12,600.69C625.72,668.9,582.84,524.81,607.73,395.95Z"/><path class="cls-4" d="M582.47,408.16S568,483.22,586,573.28C597,628.3,562.39,512.09,582.47,408.16Z"/><path class="cls-4" d="M646.72,380.54s-36,82.41-9.34,238.09C637.38,618.64,615.2,465.74,646.72,380.54Z"/><path class="cls-4" d="M668,396s-14.29,135.37-7.92,204.63S648.59,489.41,668,396Z"/><path class="cls-4" d="M702,395S691,530,688.7,599.13,696.93,488.4,702,395Z"/><path class="cls-4" d="M727.84,414.38s14.43,75.06-3.53,165.13C713.33,634.52,747.92,518.32,727.84,414.38Z"/><path class="cls-4" d="M694.1,539.38s.51,3.46-2.4,5.1c0,0,2-6.58,1.22-9.18s-5.52-4-5.52-4l8.2,3.25s3.36-1.77,4-4.75,1.39,4.81-2.42,6.71c0,0,4.73,4.65,7.18,4.75,0,0-6.68.32-8.86-3.86Z"/><path class="cls-4" d="M706.49,449.53s5.44-.32,7.59,4.42c0,0-9.95-4-14.07-3.16s-7,8-7,8l6.17-12.28s-2.29-5.46-6.83-6.79,7.66-1.5,10.09,4.67c0,0,7.87-6.7,8.35-10.49,0,0-.41,10.41-7.21,13.22Z"/><path class="cls-8" d="M645.48,389"/><path class="cls-9" d="M545.85,340.14l-17.19-4.64-21.44-9.07s-.58,7.5,5.21,12.55,12.71,10.12,12.71,10.12,4.55,2.81,11.22-.67A24.77,24.77,0,0,0,545.85,340.14Z"/><path class="cls-10" d="M688.1,361.2s7.83,6.19,8.25,13.61l.41,7.42s-9.48-15.67-15.26-15.67-5.77,17.73-5.77,17.73-7-14.85-13.61-16.91c0,0-6.6.82-10.31,9.9l-5.36-12.78s-10.31,4.12-12,19.79c0,0-7-12-5.36-19.38,0,0-28.45,8.38-31.75,19.52,0,0,2.47-11.27,16.91-22.41l5.36-4.12L609.2,368.76l-4.95,5.77s21.58-12.92,26.53-12.92c0,0,.41,10.31,2.47,14,0,0,7.83-13.61,13.61-14.43l4.95,9.9s7.42-6.19,10.31-6.19,10.31,7.83,11.55,10.31c0,0,1.65-8.66,5.77-11.55,0,0,8.66,0,14.85,11.13C694.29,374.81,693.88,369.86,688.1,361.2Z"/><path class="cls-10" d="M788.35,385.2a38.08,38.08,0,0,0,11-.61,61.78,61.78,0,0,1,10.42-1.23s3.07-2.76-5.21-3.68-20.23-7.05-20.23-7.05l.92,2.45s12.57,5.83,17.48,6.44-10.12,2.76-15.33,1.84S788.35,385.2,788.35,385.2Z"/><path class="cls-10" d="M665.21,355.36s-1.23-39.65,24.53-79.71,32.7-36.79,32.7-36.79,5.72,4.5,8.58,9.4,9.4,5.31,17.58,6.13,22.89,18.4,22.89,18.4,10.63,15.53,19.21,15.53c0,0,4.09,4.5-5.72,2.45s-15.53-.41-20.85-5.31-21.67-14.31-28.21-12.26c0,0-23.61,6.85-57.64,79.81-.77,1.66-.2-.16-1,1.53,0,0,13-36.33,33.75-61.73,8.74-10.68,13.79-19,25.52-22.06,0,0,16.84,4.41,22.57,9.73s15.91,7.78,24.9,7.78l-19.84-19.45s-6.8-12.39-19.06-13.62-13.72-1-16.1-5.71c-2.68-5.24-7.41-9.25-8.18-8.18,0,0-1.91-.25-6.31,4-14,13.54-44.48,51.06-48.25,108.45Z"/><path class="cls-10" d="M674.61,307.13s-3.27-35.16-8.18-46.19-13.9-25.75-13.9-25.75-39.86-15-60.7-18.29l1.38,1.84,26.52,6.9,30.35,10.58s8.89,10.42,16.86,31.58c7.89,20.93,4.91,47.52,4.91,47.52Z"/><path class="cls-10" d="M690.68,275a46.41,46.41,0,0,1-1-21.24c2.15-12,.29-14.2.29-14.2l2.45-7.66s-9.81-25.45-21.15-35c0,0-2.76.61,0,8.28s6.74,27.9,6.74,27.9l-5.21,7.36a23.62,23.62,0,0,0-.92,7.66c.31,3.68-3.37,20.54-3.37,20.54l.31,4s3.68-11.34,3.68-14.72.92-15,.92-15l6.74-9.5-8.58-33.72a84.61,84.61,0,0,1,18.4,32.19l-2.15,8.28a6.15,6.15,0,0,1,1.84,4.6c0,3.07-1.53,9.5-1.53,9.5s-1.53,14.41,2.15,22.38Z"/><path class="cls-10" d="M597.35,283.72s-8.58-3.37-11.34-5.52-8.58-4.29-13.8-1.23S559,291.39,559,291.39s-6.74,12.57-11,17.48-15.33,19.62-15.33,19.62l-4.91,6.13s-16.25-6.44-21.15-9.81c0,0,.61,7.05,2.76,11s13.8,14.41,18.7,15,10.12-2.45,15-6.74,26.37-21.46,26.37-21.46,12-10.73,22.69-10.12,29.74,18.09,29.74,18.09l-2.15-5.21s-19-15.94-27.29-15.64-23.91,10.12-23.91,10.12l-30,25.14s-7.05,7.36-15.33,1.84-14.1-11.34-15-19l20.23,8.64,21.4-28,12.45-19.06s8.15-12.76,16.13-12.45l19.93,9.81Z"/><path class="cls-10" d="M529.6,334.92s13.49,2.45,18.4,3.07l-2.15,2.15s-14.72-.61-20.85-5.21Z"/><path class="cls-10" d="M646.71,234.06S633.22,221.49,636.6,212s3.68-12,3.68-12S628,208.61,627.7,217.81s.46,10.58.46,10.58h1.53s-1.07-11.19-.15-13.64,7.36-10.12,7.36-10.12-3.68,9.2-1.84,14.41,8.89,15,8.89,15Z"/><path class="cls-9" d="M766.59,321.74s-25.66,13-36.79,13.8l2.57,3,9.3,7.15,14.67,17.67L773.67,378l10.93,6.15,2.84-.79-15.1-50S767.84,321.48,766.59,321.74Z"/><path class="cls-10" d="M680.44,354.55s9.81-10.73,22.07-12,12.57-3.07,12.57-3.07,6.44.31,8.89-1.53a40.85,40.85,0,0,1,6.74-3.68s17.78-3.37,33.72-14.1l2.15,1.53L754,328.49s-12.57,6.44-19.31,7.05a13.89,13.89,0,0,0-9.81,4.91l-9.2,1.23S708,344.43,704,344.43s-12.57,1.84-21.46,10.73S680.44,354.55,680.44,354.55Z"/><path class="cls-10" d="M728.57,336.76s13.18,8.28,15.64,14.1,26.37,26.06,26.37,26.06,9.5,8,15.94,8.58l-.31-2.15s-15.33-6.44-30.35-22.69-13.8-16.56-26.06-25.14Z"/><path class="cls-10" d="M622.35,331.56s-13.66,2.14-20.71-2.76c0,0-25.14,22.38-42.62,19.31,0,0-2.76.31,1.23,2.76s8.58.92,8.58.92,8,3.37,11,3.37,12.57.92,18.4-1.84a50.4,50.4,0,0,0,8.58-4.91s-6.74,5.21-8,9.2l4.6-1.53s2.15-5.52,9.81-10.73c0,0,7.05-1.23,11,6.74l2.45-.61s-5.52-10.42-14.72-8.58l-13.49,7.66s-9.81,4.29-19.93,2.15l-8.89-3.07s23.3-8.89,32.19-17.78c0,0,11.51,2.46,21.93,1.54Z"/><path class="cls-10" d="M598,333.08s-11-11.65-15-11.65-12.88-.61-12.88-.61L568.23,322l14.41,1.53a10.28,10.28,0,0,1,4,2.45c1.84,1.84,7.05,6.13,9.2,8.89Z"/><path class="cls-10" d="M710.79,342.59s14.41,5.21,16.56,13.49,9.81,16.86,9.81,16.86l-3.68-2.15s-7.66-9.2-10.12-15.94-17.17-11.34-17.17-11.34Z"/><polygon class="cls-10" points="516.41 282.19 528.06 287.4 525.61 289.86 515.19 284.24 516.41 282.19"/><path class="cls-10" d="M614.29,362s-11.41,4.54-13.88,7.83c0,0-1.92-10.72-.27-14s3.35.24,3.35.24-1.7.59-1.43,8.83l17.59-7Z"/><path class="cls-10" d="M688.1,361.2s20.07,7.56,26.12,26c0,0,1.65-19.52-.55-23.37s-9.07-6.87-9.07-6.87,7.42-.82,10.72,5.77-.27,27.77-.27,27.77l1.92,4.67a61.61,61.61,0,0,1-5.77-9.9c-1.65-4.12-8.52-16.49-20.62-20.62Z"/><path class="cls-11" d="M772.83,463.21s-27,2.85-25.66,50.42C747.17,513.63,742.22,467.1,772.83,463.21Z"/><path class="cls-10" d="M665.21,355.36s5.69-38.7,8.8-44.4-2.07-18.16-2.07-18.16l-3.07-22.74s2,30-6.26,25.85-24.37-32.53-24.37-32.53S666,324.93,661,355.57c0,0-6.52,13.87-9.22,17.31s6.68-8,10.26-6.42,8.82,7.26,8.82,7.26S664.19,363.45,665.21,355.36Z"/><path class="cls-9" d="M563,251.37A35.87,35.87,0,0,0,536,242l-4.54-.53-7.5,3-1,5.15-6.7,33.89,11,4.46s10.25-26.25,15.25-27,7-3.5,7-3.5l7.25-.75S563.54,254,563,251.37Z"/><path class="cls-10" d="M621.61,329.38s-18.67-41.5-24.12-44.61L585,279.84s14.27,10.37,14.78,19.19-6.48,9.86-10.63,11.41S604.76,309.14,621.61,329.38Z"/><path class="cls-10" d="M679,359s6-16,29-16c0,0-11.39,1.8-14-6-2.19-6.55,3.71-22,9.12-30.28,0,0-31.12,37.28-29.12,70.78Z"/><path class="cls-10" d="M646.87,361.2A143.52,143.52,0,0,0,634.75,300s13.5,54.25,6.25,65.75Z"/><path class="cls-10" d="M703.12,306.72s5.83-.31,6.13-1.53,5.83-4.29,6.44-2.45a15.11,15.11,0,0,0,2.45,4l7.36-3.07s5.83,2.45,8.28,0,7.66.61,7.66.61l23,15.94s4.29-5.52,21.77,63.16l.31,2.15,1.84-.31s-12-58.25-22.07-65.61l-25.14-18.4s-3.37-1.84-6.44-.31-2.45,1.84-6.74,1.53-2.76-2.15-6.44.61l-2.76,1.53s-.92-4.6-4.6-4A23,23,0,0,0,706.5,304l-3.37.61Z"/><path class="cls-10" d="M662.35,350.87s3.27-43.33-24.12-87.48c0,0-4.91-17.17-20.85-26.16S590,213.93,590,213.93s-13.08-7.77-18.8-7.77-19.21,2-19.21,2l-11.85,13.49L523,244.58l-4.5,23.71-3.27,14.31-16.76-11s1.23,10.63,4.5,13.9S516,290.37,516,290.37L526.22,292s2-.41,4.5-6.13,9-21.67,13.08-24.53,9.81-2.86,9.81-2.86,8.18-.41,9.81-5.31c0,0,16.35,6.95,22.48,15.94s37,53.58,45.18,85.88l-1.95,7.59,1.75,1.95,2-9.57A367,367,0,0,0,609,301.81c-5.36-9.75-11.55-20.59-19-30,0,0-7.36-13.69-27.8-22.28,0,0-.82,6.13-9,6.54s-12.67,2.86-15.12,8.18-11.85,24.12-11.85,24.12-2.86,3.27-19.21-2.86l-6.54-10,14.72,8.79s1.43,1.43,2.45-3.07,6.95-34.34,6.95-34.34l.41-2.45L545.23,219l8-8.38s10.42-3.07,17-2.45S588,215.36,588,215.36s17.37,18.8,28.21,22.89c0,0,14.1,6.95,20.64,26,0,0,22.69,26.57,24.53,88.09Z"/><path class="cls-10" d="M565.77,251.53s-15.94-11-24.83-11-10.73-.61-15,2.45l-2.45,2.76s6.74-4.6,12.57-3.68,10.73-.61,28.51,11Z"/><path class="cls-10" d="M623.88,333.4s-17.48-.18-21.93-2.54,13.69,5.93,10.12,12,1.23,2.45,1.23,2.45,12,5,6.36,12.55c0,0,8.62-4.75,9.49,4.67s3.78-7.62,3.78-7.62Z"/><path class="cls-2" d="M772.83,463.21S756,461,747.5,473s-13.5,24.5-12,42.5,3.8,46.91,34.65,48.2L773,561a43.79,43.79,0,0,1-14-2c-8.83-3-17.83-14-20-31.17-2.19-17.37-3.5-29.33,5.5-46.33,0,0,6-19,29.5-16Z"/><path class="cls-2" d="M545.67,474.67s-9.33,5.33-11.33,24.67,0,28,3.67,35.67,12,17.06,21.66,16.87l4-.87,2.33-.33s-4.67,6.67-14.67,2.67-20.33-19-19.67-41S532,485,545,472Z"/><path class="cls-10" d="M536.33,228.67s22.67-4.67,34,6S597,259.33,597,259.33l-30.67-32.67S555.67,222,541,225.33"/><path class="cls-10" d="M690.5,334s26.5-17.33,41.17-18c0,0-26.5,8-41.17,22Z"/><path class="cls-4" d="M674.27,404.21,666,416.75l-10.6-15.32S663.78,415.41,674.27,404.21Z"/><path class="cls-4" d="M672.27,435.71,664,448.25l-10.6-15.32S661.78,446.91,672.27,435.71Z"/><path class="cls-4" d="M702.77,389.21l-8.27,12.54-10.6-15.32S692.28,400.41,702.77,389.21Z"/><path class="cls-4" d="M710.52,418l-8.27,12.54-10.6-15.32S700,429.16,710.52,418Z"/><path class="cls-4" d="M615.52,407.21l-8.27,12.54-10.6-15.32S605,418.41,615.52,407.21Z"/><path class="cls-4" d="M665.63,382.37l-6.87,9.9-9.52-11.87S658.19,390.32,665.63,382.37Z"/><path class="cls-4" d="M592.13,428.62l-6.87,9.9-9.52-11.87S584.69,436.57,592.13,428.62Z"/><path class="cls-4" d="M612.63,441.62l-6.87,9.9-9.52-11.87S605.19,449.57,612.63,441.62Z"/><path class="cls-4" d="M639.38,434.87l-6.87,9.9L623,432.9S631.94,442.82,639.38,434.87Z"/><path class="cls-4" d="M644.88,404.87l-6.87,9.9-9.52-11.87S637.44,412.82,644.88,404.87Z"/><path class="cls-4" d="M628.07,385.22l-9.82,11.37L609.72,380S616.23,395,628.07,385.22Z"/><path class="cls-4" d="M582.32,519l-9.82,11.37L564,513.77S570.48,528.73,582.32,519Z"/><path class="cls-4" d="M615.84,555.31l-5.62,13.93-10.43-12.91S607.78,568.37,615.84,555.31Z"/><path class="cls-4" d="M609.84,525.06,604.22,539l-11.43-13.91S601.78,538.12,609.84,525.06Z"/><path class="cls-4" d="M638.79,574.45l-6.5,10.35-8.83-10.87S631.13,585.94,638.79,574.45Z"/><path class="cls-4" d="M668.29,592.7,661.79,603,653,592.17S660.63,604.19,668.29,592.7Z"/><path class="cls-4" d="M644.79,604.2l-6.5,10.35-8.83-10.87S637.13,615.69,644.79,604.2Z"/><path class="cls-4" d="M622,593.95l-6.5,10.35-8.83-10.87S614.38,605.44,622,593.95Z"/><path class="cls-4" d="M636.79,538.7,630.29,549l-8.83-10.87S629.13,550.19,636.79,538.7Z"/><path class="cls-4" d="M670,556.95l-6.5,10.35-8.83-10.87S662.38,568.44,670,556.95Z"/><path class="cls-4" d="M669.29,525.2l-6.5,10.35L654,524.67S661.63,536.69,669.29,525.2Z"/><path class="cls-4" d="M703.54,558.7,697,569l-8.83-10.87S695.88,570.19,703.54,558.7Z"/><path class="cls-4" d="M697.54,594.7,691,605l-8.83-10.87S689.88,606.19,697.54,594.7Z"/><path class="cls-4" d="M636.29,506.45l-6.5,10.35L621,505.92S628.63,517.94,636.29,506.45Z"/><path class="cls-4" d="M636.54,475.2,630,485.54l-8.83-10.87S628.88,486.69,636.54,475.2Z"/><path class="cls-4" d="M588.29,539.95l-6.5,10.35L573,539.42S580.63,551.44,588.29,539.95Z"/><path class="cls-4" d="M597.29,568.95l-6.5,10.35L582,568.42S589.63,580.44,597.29,568.95Z"/><path class="cls-10" d="M765.67,270.67s-11-9-17.33-9.33-15.67-.67-22.33-7S696.33,288,696.33,288s21.33-29.67,25.67-30,1.67-2.33,8.33,2,15,3.33,18.67,4.33S765.67,270.67,765.67,270.67Z"/><path class="cls-10" d="M688.33,270.33S683,283,682,277s.33-28,0-29.67-2.33,30-5.67,33.33-6-13.67-6-13.67l-1.47,3.07,5.75,37.06S683,284.7,690.68,275Z"/><path class="cls-10" d="M601,225.67,640.33,241s12,18.33,17.67,31.67L639.33,242l-35.67-14Z"/><path class="cls-10" d="M595.33,285.33s-5.33-5-20.67,7.67-16,19.33-20,23.67c0,0,7.33-9.67,13.33-14.67s18-18,27.67-14Z"/><polygon class="cls-10" points="754.02 328.49 765 348 750.5 330 754.02 328.49"/><path class="cls-10" d="M706.19,343.51s-16.69,7.49-7.69,14c0,0-9.5-8.5-19.5,1.5s13-21.5,13-21.5Z"/><path class="cls-5" d="M660.82,561.16s-7.69-3.7-7.25-5.63c0,0,5.34,4.41,9.23,4.51s8.64-3.29,8.64-3.29l-8.35,6.38Z"/><path class="cls-5" d="M659.75,530.26s-7.69-6.7-7.25-8.63c0,0,5.34,7.41,9.23,7.51s8.64-3.29,8.64-3.29L662,532.24Z"/><path class="cls-5" d="M695.64,535.66s-9.57-10.72-9.14-12.66c0,0,7.22,11.44,11.11,11.54s8.64-3.29,8.64-3.29l-8.35,6.38Z"/><path class="cls-5" d="M730.91,539.29s-7.69-3.7-7.25-5.63c0,0,5.34,4.41,9.23,4.51s8.64-3.29,8.64-3.29l-8.35,6.38Z"/><path class="cls-5" d="M727.8,512.83s-7.69-3.7-7.25-5.63c0,0,5.34,4.41,9.23,4.51s8.64-3.29,8.64-3.29l-8.35,6.38Z"/><path class="cls-5" d="M733.51,437.61s-7.69-3.7-7.25-5.63c0,0,5.34,4.41,9.23,4.51s8.64-3.29,8.64-3.29l-8.35,6.38Z"/><path class="cls-5" d="M719.5,404.93s-7.69-3.7-7.25-5.63c0,0,5.34,4.41,9.23,4.51s8.64-3.29,8.64-3.29l-8.35,6.38Z"/><path class="cls-5" d="M699.79,422.57s-7.69-3.7-7.25-5.63c0,0,5.34,4.41,9.23,4.51s8.64-3.29,8.64-3.29l-8.35,6.38Z"/><path class="cls-5" d="M661.92,440.21s-7.69-3.7-7.25-5.63c0,0,5.34,4.41,9.23,4.51s8.64-3.29,8.64-3.29l-8.35,6.38Z"/><path class="cls-5" d="M698.75,444.36s-7.69-3.7-7.25-5.63c0,0,5.34,4.41,9.23,4.51s8.64-3.29,8.64-3.29L701,446.33Z"/><path class="cls-5" d="M603.3,444.88s-7.69-3.7-7.25-5.63c0,0,5.34,4.41,9.23,4.51s8.64-3.29,8.64-3.29l-8.35,6.38Z"/><path class="cls-5" d="M572.45,522.29s-7.69-3.7-7.25-5.63c0,0,5.34,4.41,9.23,4.51s8.64-3.29,8.64-3.29l-8.35,6.38Z"/><path class="cls-5" d="M630,627.59s-7.69-3.7-7.25-5.63c0,0,5.34,4.41,9.23,4.51s8.64-3.29,8.64-3.29l-8.35,6.38Z"/><path class="cls-5" d="M668.42,624s-7.69-3.7-7.25-5.63c0,0,5.34,4.41,9.23,4.51s8.64-3.29,8.64-3.29l-8.35,6.38Z"/><path class="cls-5" d="M692.28,393.64s-7.69-3.7-7.25-5.63c0,0,5.34,4.41,9.23,4.51s8.64-3.29,8.64-3.29l-8.35,6.38Z"/><path class="cls-5" d="M656.28,385.89s-7.69-3.7-7.25-5.63c0,0,5.34,4.41,9.23,4.51s8.64-3.29,8.64-3.29l-8.35,6.38Z"/><path class="cls-5" d="M582.55,432.43s-7.69-3.7-7.25-5.63c0,0,5.34,4.41,9.23,4.51s8.64-3.29,8.64-3.29l-8.35,6.38Z"/><path class="cls-5" d="M604.86,411.68s-7.69-3.7-7.25-5.63c0,0,5.34,4.41,9.23,4.51s8.64-3.29,8.64-3.29l-8.35,6.38Z"/><path class="cls-5" d="M616.54,388.07s-7-4.85-6.29-6.69c0,0,4.59,5.19,8.41,5.89s9-1.9,9-1.9l-9.24,5Z"/><path class="cls-5" d="M694,562.71s-7.69-3.7-7.25-5.63c0,0,5.34,4.41,9.23,4.51s8.64-3.29,8.64-3.29l-8.35,6.38Z"/><path class="cls-5" d="M724.11,568.42s-7.69-3.7-7.25-5.63c0,0,5.34,4.41,9.23,4.51s8.64-3.29,8.64-3.29l-8.35,6.38Z"/><path class="cls-5" d="M713.21,602.66S705.52,599,706,597c0,0,5.34,4.41,9.23,4.51s8.64-3.29,8.64-3.29l-8.35,6.38Z"/><path class="cls-5" d="M688.7,599.13s-5.86-2.81-5.52-4.29c0,0,4.06,3.36,7,3.44s6.58-2.5,6.58-2.5l-6.36,4.86Z"/><path class="cls-5" d="M588.47,573.78s-5.86-2.81-5.52-4.29c0,0,4.06,3.36,7,3.44s6.58-2.5,6.58-2.5l-6.36,4.86Z"/><path class="cls-5" d="M579.45,544.64s-5.86-2.81-5.52-4.29c0,0,4.06,3.36,7,3.44s6.58-2.5,6.58-2.5l-6.36,4.86Z"/><path class="cls-5" d="M629.84,579.33s-5.86-2.81-5.52-4.29c0,0,4.06,3.36,7,3.44s6.58-2.5,6.58-2.5l-6.36,4.86Z"/><path class="cls-5" d="M636,609.29s-5.86-2.81-5.52-4.29c0,0,4.06,3.36,7,3.44s6.58-2.5,6.58-2.5l-6.36,4.86Z"/><path class="cls-5" d="M628.29,543.54s-5.86-2.81-5.52-4.29c0,0,4.06,3.36,7,3.44s6.58-2.5,6.58-2.5L630,545Z"/><path class="cls-5" d="M627.25,511.38s-5.86-2.81-5.52-4.29c0,0,4.06,3.36,7,3.44s6.58-2.5,6.58-2.5L629,512.88Z"/><path class="cls-5" d="M627.77,479.73s-5.86-2.81-5.52-4.29c0,0,4.06,3.36,7,3.44s6.58-2.5,6.58-2.5l-6.36,4.86Z"/><path class="cls-5" d="M630.36,438.75s-5.86-2.81-5.52-4.29c0,0,4.06,3.36,7,3.44s6.58-2.5,6.58-2.5l-6.36,4.86Z"/><path class="cls-5" d="M636.07,408.66s-5.86-2.81-5.52-4.29c0,0,4.06,3.36,7,3.44s6.58-2.5,6.58-2.5l-6.36,4.86Z"/><path class="cls-5" d="M600,530.4s-7.94-3.12-7.65-5.08c0,0,5.65,4,9.54,3.82s8.38-3.92,8.38-3.92l-7.86,7Z"/><path class="cls-5" d="M659.46,597.08s-6.65-2.84-6.35-4.49c0,0,4.68,3.54,8,3.47s7.19-3.1,7.19-3.1l-6.83,5.71Z"/><path class="cls-5" d="M613.32,598.5s-6.65-2.84-6.35-4.49c0,0,4.68,3.54,8,3.47s7.19-3.1,7.19-3.1l-6.83,5.71Z"/><path class="cls-5" d="M607,563.2s-9-7.15-9.22-9.12c0,0,7,8.62,10.7,7.4s7-6,7-6l-5.7,8.83Z"/><path class="cls-5" d="M664.45,410.2s-9.19-6.79-9.05-8.77c0,0,7,7.86,10.83,7.36s8-4.58,8-4.58L667,411.8Z"/><path class="cls-2" d="M741,458.12l72.68,43.16s12.73,7.33,12.34,25.07-8.1,8.1-10.41,1.16-1.54-17.74-23.14-28.15S737.5,472,737.5,472Z"/><path class="cls-2" d="M645.88,457.31s-12-7.71-27.77,0V473.9s4.63-12.73,28.54-3.47Z"/><path class="cls-2" d="M645.81,447.29s26.23-4.63,64.41-.39,32.4,12.34,32.4,12.34-4.24,55.15-35.87,60.55-47.44-1.93-54.77-9.64-12.73-45.51-7.33-61.32Z"/><path class="cls-2" d="M618.88,447.67s-41.65-10.41-76.36,7.33c0,0-.77,59,26.61,62.87s38.26-3.64,43.66-13.67S624.67,478.14,618.88,447.67Z"/><path class="cls-3" d="M648.66,451.54s51.36-7.78,87.15,7.26c0,0-2.59,52.39-36.83,57.06s-40.46-8.3-45.13-14.52S646.59,470.73,648.66,451.54Z"/><path class="cls-3" d="M614.35,452.45s-37.35-10.12-68.09,5.45c0,0,3,50.58,22.44,54.86s33.35-2,37.87-8.17C612,497.19,619,478.51,614.35,452.45Z"/><path class="cls-12" d="M698.43,490.06c-3.8,4.37-2-2.78,1.7-9.45s-.13-5-3,1-13.23,21-11.52,15a51.74,51.74,0,0,1,1.9-5.3c3.8-4.88,9.37-13.48,14.2-26.65,8.28-22.57-3.75,4-9,10s-2.78-3.81,2.33-12.95-.18-6.81-4.15,1.35-18.13,28.84-15.79,20.59,9-21,9-21,2.35-8.24-3.58.85-11.08,24-10.4,26.64,5.2,4.46,12.8-5.59c4.7-6.21,6.12-4.68,5,.14-3.58,6.54-6.38,15-5.95,16.67.49,1.93,3.79,3.26,9.34-4.08s4.09,1.36-.73,9.88c0,0,8.36-7.94,14.4-24.4S702.24,485.69,698.43,490.06Z"/><path class="cls-12" d="M587.41,460.36c-6.23,9.55-25.38,33-20.44,23s15-24.79,15-24.79,4.94-10-3.23.39-17.84,28.22-18.26,31.7,2.6,6.65,12.5-4.6,3.89,3.45-5.79,16.95c0,0,4.4-.16,8.93-9s9.47-11.3,3.73,1.44,2.25.08,2.25.08,9.53-23.08,2.5-20.15c-5.76,2.4-.87-5.36,6.65-15.94S593.65,450.81,587.41,460.36Z"/><path class="cls-2" d="M804.55,513.9c0,31.18-15.4,49.81-34.4,49.81s-34.4-18.62-34.4-49.81,15.4-50.33,34.4-50.33S804.55,482.72,804.55,513.9Z"/><path class="cls-3" d="M772.15,561.7c-19,0-34.4-16.62-34.4-47.81s15.4-49.33,34.4-49.33c0,0-23,5-23,49.07S772.15,561.7,772.15,561.7Z"/><ellipse class="cls-3" cx="777.4" cy="511.82" rx="18.37" ry="36.38"/><path class="cls-2" d="M799.61,511.82c0,8-15.51,14.57-19.34,14.57s-6.94-6.52-6.94-14.57,3.1-14.57,6.94-14.57S799.61,503.78,799.61,511.82Z"/></g></g></svg>