<svg xmlns="http://www.w3.org/2000/svg" viewBox="0 0 1287.05 855.01"><defs><style>.cls-1{fill:#f9f06c;}.cls-2{fill:#76bde9;}.cls-3{fill:#0088c7;}.cls-4{fill:#afdfe4;}.cls-5{fill:#d1ecee;}.cls-6{fill:none;stroke:#0088c7;stroke-miterlimit:8;stroke-width:2px;}.cls-7{fill:#f1cdc3;stroke:#be1e2d;stroke-width:3px;}</style></defs><title>Asset 6</title><g id="Layer_2" data-name="Layer 2"><g id="Layer_1-2" data-name="Layer 1"><rect class="cls-1" width="1287.05" height="855.01"/><path class="cls-2" d="M416.9,480.39S431.16,491,423.24,501s-13.73,11.09-17.43,16.91-35.4,22.72-47.55,13.21-11.62-24.83-11.62-24.83-19-.53-20.6-14.26c0,0,18.49-3.17,20.6-5.81s16.11-3.92,16.11-3.92,9.25,2.86,14-1.36l10.57-2.64h9.51Z"/><path class="cls-3" d="M347,486.58c2.11-2.64,16.11-3.92,16.11-3.92s9.25,2.86,14-1.36l10.57-2.64h9.51l20.08,2.11s14.26,10.57,6.34,20.6-13.73,11.1-17.43,16.91c0,0-39.9,18.87-48.18.82S369.29,495,369.29,495s-18.62,8.28-27.84,7.34c-5.8-.59-14.11-6.3-13.54-8.09,1.32-4.13,18.72-8.07,18.72-8.07"/><path class="cls-3" d="M399.38,488.63c-4.76-2.62-6.79,3.16-23.25.87-.82-.11-6.84,3.21-12.23,4s-12.91-2.66-22.45,4-13.3.11-25.66,6.18-32.13-3.23-35.09-6.45c-1.5-1.63-14.71-13.91-10-25.79l-8.22-.29s-11.68,2.52-16.61,2.55-23.3-4.55-30.14-16.66c0,0-7.46-4.3-6.74-18.71,0,0-4.25-8.6-.07-14.89,0,0,5.73-15.68,6.9-20.14s4.56-11.22,10.57-9.51c0,0,9.46-16.22,18.36-14.7a19.31,19.31,0,0,1,15.34-7.49s12.9-13.05,25.47-11.25c0,0,14.47-12.1,40.83-8.4,0,0,6.77-2.78,12-2s27.68,2.56,25.39,5.69c0,0,9.09-.95,12.7.16s16.88,9.58,22.05,11.64,7,4.68,7.64,7.21a22.78,22.78,0,0,1,17.82,13.38s15.66,9.49,10.94,22.76c0,0,10.21,5.75,5.75,15.74,0,0,8,2.69,4.84,11.54,0,0,6.36,2.56,5.12,13.21s.9,13.77-5.19,23.63S427,489.28,427,489.28,411.28,495.18,399.38,488.63Z"/><path class="cls-4" d="M420.87,390.92s15,9,10.49,21.63c0,0,9.78,5.47,5.51,15,0,0,7.66,2.56,4.65,11,0,0,6.09,2.44,4.91,12.56s0,14.53-5.78,23.9-21.6,10.1-21.6,10.1S402,487.62,396.12,477c0,0,1.14,5.59-4,6.36s-9.28-1.9-17.84,2.15-5.74,3.09-10.9,3.86-12.37-2.53-21.5,3.83-13,.56-24.84,6.32-30.9-1.62-33.39-5-13.11-13.19-7.37-26.49l-12.37-2.53S258.51,469,253.79,469,228,467.82,221.4,456.31c0,0-7.14-4.09-6.47-17.78,0,0-4.08-8.17-.08-14.14,0,0,5.48-14.89,6.59-19.12s4.36-10.66,10.13-9c0,0,9-15.4,17.58-14a18.51,18.51,0,0,1,14.69-7.1s12.35-12.39,24.39-10.67c0,0,13.85-11.49,39.1-8,0,0,6.49-2.64,11.53-1.85s26.51,2.45,24.32,5.43c0,0,8.71-.89,12.16.16s16.18,9.11,21.13,11.07,6.72,4.45,7.32,6.85A21.85,21.85,0,0,1,420.87,390.92Z"/><path class="cls-5" d="M390.35,409.33s-1.69,7.9,1.13,11.28-10.72,10.72-13,15.8-10.72,9-32.16,9.59-3.95,6.77-37.24,13.54c0,0-21,4.14-17.83,17,0,0,4.85-14.76,20.65-12.51l16.36-4L347.47,450s22.57.56,28.21-4.51,23.13-15.23,18.06-30.47Z"/><path class="cls-5" d="M289.92,427.32s-.38,18.05-5.64,19.93-13.72-8-24.91,2.2c0,0,11-5.58,20,1.94C279.39,451.39,296.69,455.91,289.92,427.32Z"/><path class="cls-5" d="M256.71,435.44c1.77-10.69,15.72-13,15.72-13s-2.82-4,2.26-8.46,15.24-7.32,15.24-7.32c-15.79,9-14.17,19-14.17,19S261,425,256.71,435.44Z"/><path class="cls-5" d="M338.87,354.7c-5-.78-11.53,1.85-11.53,1.85-25.25-3.53-39.1,8-39.1,8-12-1.72-24.39,10.67-24.39,10.67a18.51,18.51,0,0,0-14.69,7.1c-8.53-1.45-17.58,14-17.58,14-5.76-1.63-9,4.8-10.13,9s-6.59,19.12-6.59,19.12,11.05-24.63,18.58-20.87c0,0,9-16.55,16.55-13.54,0,0,9-11.28,15-8.28,0,0,12.79-13.54,23.32-11.28,0,0,19.25-14.93,36.56-9.67Z"/><path class="cls-2" d="M420.65,390.35s15.15,9.1,10.59,21.83c0,0,9.87,5.52,5.56,15.1,0,0,7.73,2.58,4.69,11.07,0,0,6.15,2.46,5,12.67s0,14.67-5.84,24.12-21.8,10.19-21.8,10.19-13,12.42-18.86,1.66a9.31,9.31,0,0,0-8.35-3.37c-5.21.78-9.36-1.92-18,2.17s-5.79,3.12-11,3.9-12.48-2.55-21.7,3.86-13.12.57-25.07,6.38-29.48-1.22-32-4.58c0,0,17.94,4.27,28.57-.29s19.74-2.28,27.33-6.83,17.46-12.15,25.06-11.39c0,0,9.11-15.18,23.54-9.87,0,0,8.35-13.67,15.94-13.67,0,0,4.56,3,9.11-3,0,0-1.52,6.07,3.8,3.8s19-13.67,11.39-20.5c0,0,0-15.94-3.8-15.94C424.77,417.61,431.72,402.58,420.65,390.35Z"/><path class="cls-2" d="M392.47,408.62S394,417,397.34,419.8c0,0-1,8.87-10.19,16.29-4.72,3.83-4.35,10.3-15.74,13.47s-22.85.76-27.62,3.43-17.05,10.83-20,9.09c0,0-9.45,4.33-14.45,3.44s-19.84,7.58-17.67,12.3l-.44-1.25c-2.17-4.73,11.81-14.59,16.8-13.69s14.45-3.44,14.45-3.44c2.9,1.74,15.19-6.42,20-9.09s16.23-.26,27.62-3.43,10.89-9.79,15.74-13.47,8.69-14,8.69-14c-3.33-2.79-2.2-10.81-2.2-10.81"/><path class="cls-5" d="M373.09,405.61s-7.57,15.13-12.65,17.39-32.07,3.74-43.4,14.28c0,0,19.14-4.69,24.21-5.82S370.51,432.23,373.09,405.61Z"/><path class="cls-2" d="M304.84,483.67s15.81-3.43,19.71-5.87,17.56-6.42,24.35-8,16.79-6.93,25.6-8.66a64,64,0,0,1,12.11-6.29c5.79-2,13.37-9.48,12.66-12.22s3.35-1.7,3.35-1.7-2,.44-.6,1.77,4.69,5.93-1.77,8.08-12.56,6.37-11,7.57a34.31,34.31,0,0,0-9.71,1.8C374,462,368.26,464.57,368,466.75c0,0-8.07,2.07-8.59,3,0,0-10.55,3.52-13.77,3.35s-13.31,2.06-21.29,6S304.84,483.67,304.84,483.67Z"/><path class="cls-2" d="M276.25,468s2.89-12.32,14.12-17.75,21-6.25,27.86-10.89,24.37-6.44,30.55-7.76,14.26-.92,19.46-10,8-12.89,10.48-13.14c0,0-.31-1.83-5.1,1.85,0,0,.91-3.08-.53-4.77,0,0,.29,5-2.23,8.38s-4.81,12.68-17.81,14.83-15.1.18-36,8.46c0,0,.11-4.27-.65-6.13s-1.29-.78-1.48,4.61-11.16,7.47-14.13,7.91-7.58,1.89-8.76,2.7c0,0,3.8-14.12-.76-19.2,0,0-2.37-1.31-1.52,2.14s2.72,20-5.27,21.43-11.22-9.2-25.12-1.28c0,0,8.11-3,13.95.18s5.54,4,7.8,4c0,0-2,5-5.93,3.82s-19.64.72-24.27-3.46S235,452.52,235,452.52s-4.71-3.07-1.94-6.91c0,0-4.78-5.1-.59-9.73,0,0-4.89,2.1-3.26,7.18a7.72,7.72,0,0,0,2.25,2.88s-1.6,3.25-.37,4.7-12.4,6-15.52-5.93c0,0-1.54,8.21,6.84,13.37,0,0,7.9,11.11,16.2,11.53s16.3,2,23.64-2.58Z"/><path class="cls-2" d="M364,361.34s-5.48,5.31-2.74,9.24a11.65,11.65,0,0,0-10,6.65s-9-2-12.27,1.41-7.68,7.51-7.63,11.23-3.24,11.23-3.24,11.23,2.55,6.28,1.28,9.56-6.15,9.65-5.85,14.41c0,0-.72-3.77-4.08-4s2.07-.51,4-4.08,5.59-11,0-16.89c0,0,6.15-.87,5.56-6.32a64.05,64.05,0,0,1-.2-10.48s1.47,2.82,3,.23,4.06-4.41,4.55-6.4a23.1,23.1,0,0,0,.39-5s1.29,5.16,4.77,3.75,7.77-.07,9.77-4,6.69-3.53,6.69-3.53A7.43,7.43,0,0,1,364,361.34Z"/><path class="cls-2" d="M233.86,425.61s5.87,1.83,9.53-8.43,5.13-4.77,3.67-10.27,2.2,2.57,5.13,1.1,8.43-4.77,11.73-3.67c0,0,3.3-6.6,2.57-9.53,0,0,10.26-3.67,13.56-9.9s14.3-4.77,16.87-5.87a6.2,6.2,0,0,0,3.3-3.67s1.83,3.67,4,2.93,19.55,2.11,20.65-.46c0,0-12.22.83-15.88-2.48s-5.87-6.23-11-2.57-7,5.5-11,4.77-11,9.53-11,9.53-7,5.14-11,5.14c0,0-.37,8.8-2.57,9.17s-10.27,8.43-15.4,1.83c0,0-2.2-.37-1.83,3.67S238.62,426,233.86,425.61Z"/><path class="cls-5" d="M233.9,425.77s5.15-.5,8.59-10.84c1.13-3.39,5.13-4.77,3.67-10.26s2.12,2.37,5.37,1.91c3.85-.55,8.36-4.52,11.5-4.47,0,0,3.3-6.6,2.57-9.53,0,0,10.26-3.67,13.56-9.9s14.3-4.77,16.87-5.87a6.2,6.2,0,0,0,3.3-3.67s1.83,3.67,4,2.93,19.59,4.15,20.7,1.59c0,0-12.26-1.22-15.93-4.52s-5.87-6.23-11-2.57-7,5.5-11,4.77-11,9.53-11,9.53-7,5.14-11,5.14c0,0-.37,8.8-2.57,9.17s-10.27,8.43-15.4,1.83c0,0-2.2-.37-1.83,3.67S238.66,426.13,233.9,425.77Z"/><path class="cls-6" d="M824.52,438s0-14.4-5-14.4-5,14.4-5,14.4,0,14.4-5,14.4-5-14.4-5-14.4,0-28.8-5-28.8-5,28.67-5,28.67,0,14.67-5.08,14.67-5-14.67-5-14.67"/><path class="cls-6" d="M784,438s0-14.4-5-14.4-5,14.4-5,14.4,0,14.4-5,14.4-5-14.4-5-14.4,0-28.8-5-28.8-5,28.67-5,28.67,0,14.67-5.08,14.67-5-14.67-5-14.67"/><polyline class="cls-6" points="578.47 438.29 566.55 438.46 562.01 432.35 553.58 446.75 543.89 405.27 535.47 463.33 529.15 428.74 523.41 446.76 515.94 415.59 510.17 451.08 503.88 431.63 498.14 445.32 492.4 432.35 490.1 440.27 478.82 440.27"/><path class="cls-2" d="M301.32,411.52l-.44-3.1s-8.42,1.33-11.52-1.77c0,0-8,4.87-10.63,6.64s-5.32,6.64-3.54,12.4c0,0-14.61-1.77-19,9.74,0,0,7.09-9.3,22.14-7.08,0,0-2.21-9.74,2.66-12.4s6.64-7.09,12-4.87C292.9,411.08,299.55,412.85,301.32,411.52Z"/><path class="cls-2" d="M328.39,368.95s-5.17,12.28-4.85,15.83-6.78,6.46-6.78,6.46v4.52c0,1-.32-8.4-7.43-4.2,0,0,2.91-4.2,7.11-1.94,0,0,4.85-1.94,5.17-4.85S325.16,372.18,328.39,368.95Z"/><path class="cls-2" d="M378,370.16s-5.75,1.77-6.19,5.75c0,0-6.63,1.77-5.75,7.52,0,0-3.54,8.84-8.84,5.75L355,394.48s4.86-4,8-3.1c0,0-2.21,8.85-1.77,11.06s-4,4-4,4l-1.33-4.86s-2.65,14.15-4.42,17.25c0,0,2.65-.88,2.65,1.77,0,0,0-10.17,2.21-11.05s4.86-6.19,8-3.1c0,0-1.32-11.05,0-13.26s3.54-7.08,3.54-7.08l3.1,3.1s5.31-.88,3.54,1.77l1.33,1.77s4.86-4,12.38,3.54a5,5,0,0,1,6.19-2.65c4.42,1.32,4-.44,4-.44s1.33,9.28,5.75,14.15,11.06,3.54,14.15,6.63c0,0,1.77-1.33-8-4.86s-11.94-14.59-8.4-19.46c0,0-5.3,2.21-8,1.33s-6.19.88-6.19.88-6.19-3.54-9.73-2.65c0,0-5.31-4-8-4s-3.1-4.42.44-6.63,9.29-4.42,11.5-.44c0,0-2.65-5.31-6.63-4Z"/><path class="cls-2" d="M395.44,518.63S366.52,529,361.1,511.4c0,0,6.33,9.49,16.72,8.59S395.44,518.63,395.44,518.63Z"/><path class="cls-2" d="M225.08,447.68s-8.13-12.2,1.81-22.14c0,0-4.07,3.16-4.07-1.81s8.59-11.3,8.59-11.3-14,6.33-9.49,16.27C221.92,428.7,217,440.45,225.08,447.68Z"/><path class="cls-3" d="M600.44,457.67s7.47-7.21,6.34-13.18c-1.51-8-6.72-22.32-2-28.79s2.44-31.23-13.66-28.79c0,0,14.73-20.67,18.82-32.69s32.21-45.76,75.92-26.59,38.94,69.7,36.56,80.27-25.22,79.42-40.22,93.73-29,20.79-39.54,28.29c-9.3,6.6-37.11,16.24-38.86-22.84,0,0-4.77-17.81-7.16-30.42C596.7,476.68,591,463.81,600.44,457.67Z"/><path class="cls-4" d="M604.84,458.16s8.46-8.3,5.53-15.45-6.18-21.47-1.63-27.65-.32-32.69-12.2-30.34c0,0,12.2-16.59,16.1-28.06s30.74-43.68,72.47-25.38S722.28,397.81,720,407.9s-24.07,75.8-38.39,89.47S654.05,515.75,644,522.91s-35.55,16.1-37.18-20.34c0,0-4.55-17-6.83-29C600,473.53,595.81,464,604.84,458.16Z"/><path class="cls-2" d="M693.65,446s-6.83,20.17-18.22,28.3-32.21-5.86-49.77,5.53-12,25.37-12,25.37-5.2-16.92-7.16-20.82c0,0-1.3-10.09,5.21-18.54s41.9-17.8,40.34-14C646.15,466.13,672.51,478.82,693.65,446Z"/><path class="cls-2" d="M701.76,419.17s1.33-52.91-34.4-70.27c0,0,16.1-5.86,32.94,24.89C700.29,373.79,709.08,398.67,701.76,419.17Z"/><path class="cls-2" d="M645.18,406.27s-7.81-1.63-7.16,3.26,22.12,15,18.54,32.53-15.62,10.08-21.8,12.69-8.46,10.08-15.29,12-13.34,8.46-11.71,20.5c0,0-7.48-19.52,7.81-26.68,0,0,6.51-7.16,6.18-15.94a177.37,177.37,0,0,1,1-20.82l4.55,2.6s6.83,11.71,10.74,0-3.9-10.74-4.88-13.34S630.54,396.84,645.18,406.27Z"/><path class="cls-2" d="M673.48,350s-16.92-2-21.8,5.86,4.55,18.22,1.63,25.37,17.24,29.28,13.34,58.56c0,0,4.88-28.63-28-37.09s-15.62-35.46-15.62-35.46S650.71,339.9,673.48,350Z"/><path class="cls-3" d="M621.75,420.58s-3.9,12-3.25,16.92,4.88,15.94-6.51,21.15-12,12-2,35.14c0,0-8.85-24.33,2.12-27.82,10.74-3.42,13.18-7,14.8-10.9s-5-7.65,2.28-12c4-2.41-7.16-14.31-3.9-14.31s7.48,9.76,19.19,11.71-3.58-2.6-6.83-5.86-9.43-16.27-23.1-18.54C614.6,416,620.13,418.31,621.75,420.58Z"/><path class="cls-3" d="M637.69,416.36s-27.33-17.57-20.17-46.85,53.35-34.48,69.29-17.24S722,389.68,688.12,459c0,0,28.31-56.61,6.51-91.42s-62.46-10.41-56,.33,7.73,17.86,4.23,12.69c-7.48-11.06-24.4.65-20.17,5.86,0,0,9.43,14,18.54,16.27s29,16.27,25.38,39.36c0,0,0-18.87-17.57-32.86S630.54,412.78,637.69,416.36Z"/><path class="cls-5" d="M655.26,332.1s37.06-2.8,55.28,30.71-13.31,94.54-13.31,94.54,24.4-63.11,6.51-91.74S655.26,332.1,655.26,332.1Z"/><path class="cls-5" d="M682.19,412.33s-.47-5-2.92-1.2.93,28.56-11.42,38c-9.51,7.3-4.91,13,2.32,2.52C677,441.83,679.93,439.7,682.19,412.33Z"/><path class="cls-5" d="M666,355.85s25,16.73,26.2,45.67C692.2,401.52,696.9,368.21,666,355.85Z"/><path class="cls-3" d="M616.55,476.49s13-16.3,15-19.52,8.09-6.14,14.71-5.67S657,438,657,438s.1,8-4.3,12.77-10.16,2.61-14.57,4.14S616.55,476.49,616.55,476.49Z"/><path class="cls-4" d="M609.07,460.93"/><path class="cls-5" d="M619,498.15s-2.69-8,10.25-13.15,24.1-2,27.37-4.43,5.73,7-5.32,8.18-8.18,9.81-14.72,15.54S620.22,510.42,619,498.15Z"/><path class="cls-5" d="M624.35,410.34s-14.15-19-10.73-35.14c0,0-7.32,20.5,6.34,35.62S624.35,410.34,624.35,410.34Z"/><path class="cls-2" d="M678.52,500.13s-14.15,8.78-22,11.22S638.51,522.57,633.14,524s-18.06,4.88-24.4-8.3c0,0,6.83,24.56,35.14,8.62S678.52,500.13,678.52,500.13Z"/><path class="cls-3" d="M423.61,501.37s-7.39,10.93-1.29,18.39,25.76,16.27,21,36.6c0,0-3.39-16.27-19.66-21.69s-18.3-13.56-16.27-21.69Z"/><path class="cls-7" d="M863.15,515.53"/><path class="cls-3" d="M995.77,388a76.65,76.65,0,0,0-129.6,9.44,15.67,15.67,0,0,0-3.93,3.17c-27.12,31.25-2.65,65.15,6.78,75.17a10.58,10.58,0,0,0,2.52,2q1.57,2.2,3.3,4.28A76.64,76.64,0,1,0,995.77,388Z"/><path class="cls-5" d="M865.1,401.5s3.67-4.23,6.77-3.67,11.56,6.49,14.1,37.23-5.36,47.95-14.38,38.36S839.15,431.4,865.1,401.5Z"/><circle class="cls-5" cx="933.69" cy="432.76" r="73.33"/><circle class="cls-4" cx="936.32" cy="436.15" r="73.33"/><path class="cls-2" d="M867.46,402.53s3.68-3.3,6.78-2.73,12.23,4.46,13.71,35.27c1.14,23.69-6.77,47.95-15.8,38.36S843.49,430.45,867.46,402.53Z"/><path class="cls-3" d="M870.09,474s6,4.51,11.66-2.26,7.07-24.07,5.94-34.22c0,0-1,46.86-18.47,33.89Z"/><path class="cls-3" d="M877.8,473.42S894.16,506.7,926.31,509c0,0-27.66,1.14-54.16-35.53Z"/><path class="cls-3" d="M858.77,416.54s1.07-2.11,2.13-1.81,6.45,3.13,7.33,19.53-4.61,25.77-7.71,20.65S850.53,431.44,858.77,416.54Z"/><path class="cls-2" d="M1002.95,469.4l0-.79q-.92,1.83-1.93,3.6l1.11-1.84Z"/><path class="cls-2" d="M1014.85,433s1.73-1.92,1.62-2.74c0,0-1.38,2.47-2,1.89l-2.16-1.45-1.25-.54-.1.18c0,.46,0,.93.06,1.39l.82-.38Z"/><path class="cls-2" d="M964.21,430.68a4.49,4.49,0,0,1-.91,0,2.09,2.09,0,0,0-.82.11l5.17.39a12.24,12.24,0,0,1-1.35-.27A7.25,7.25,0,0,0,964.21,430.68Z"/><path class="cls-2" d="M999.15,422,994,417.77l-5.42-2s-3.8-9.29-6-9.74c0,0,4.25,7.13,4.56,9.78a50.66,50.66,0,0,1-5.64,0,23.58,23.58,0,0,0-4,.05s3.17.55,3,1a7.93,7.93,0,0,1-2.38,2.36c-1.28.66-.79,1.63-.79,1.63s1.26-1.37,2.36-1.25,1.94-2.91,1.94-2.91l5.65-.07s1.33.75,1.4.06l4.94,1.76,4.09,4s-3.52,2.63-4.13,2.67-6.12,1.53-6.12,1.53l-2.51-2.8a13,13,0,0,1,1.07,3l-3.08,1.37s-3.74,1-4.61.69-3.66-2.42-4-2.46-2.35-.66-2.35-.66a12.85,12.85,0,0,1,2.81,1.93,10.92,10.92,0,0,0,3,1.75s3.88.43,4.69-.49l-1.45,2.16-4.44.92s-4.73,0-5.57-.62l-3.43-.26,1.71.27,2.9,1.13,2.5.18,2.83-.09,4.7-.59,1.53-2.85,5.65-1.79,2.25,2.37,3.54,3.52,7.39-6.64,2.19,2.06,4,2.57,1.86.51.24-.11c0-.46,0-.93-.06-1.39l-.39.67-.77-.29-1.26-.44-2.67-1.41-1.69-2-1.32-.85-1.06-.42-.34,1.27-1.08.69L997.65,430,996,431.4l-.45.45-1.49-2-2.32-1.77-.77-1.2,1.88-.6a4.12,4.12,0,0,0,1.15-.38,17.68,17.68,0,0,1,1.95-1.19c.31-.07,3.09-1.47,3.09-1.47l.9.1s2.16.54,2.44.68,4.13,1,4.13,1a2,2,0,0,0,.73.68c.39.21,2.7,1,3.5,1.33q-.09-1-.2-1.9C1007.44,424,1001.74,421.63,999.15,422Z"/><path class="cls-2" d="M970.5,483.46a7.19,7.19,0,0,0-2.07.38,4.5,4.5,0,0,1-.87.26,2.11,2.11,0,0,0-.75.34l5.06-1.12A13.09,13.09,0,0,1,970.5,483.46Z"/><path class="cls-2" d="M1010.82,440.1c0-.36,0-.72.07-1.08-2.63-1.3-5.41-2.57-8.35-3.79C1002.53,435.24,1006.18,437.21,1010.82,440.1Z"/><path class="cls-2" d="M1002.92,468.61l.25-.51-.27,0Z"/><path class="cls-2" d="M1008.92,452.19c.06-.24.12-.47.17-.71-3.15-2-7-4.14-7-4.14A52,52,0,0,1,1008.92,452.19Z"/><path class="cls-2" d="M999.35,465.38l-6.17-2.52-5.77-.36s-6.33-7.79-8.54-7.59c0,0,6.13,5.59,7.19,8a50.15,50.15,0,0,1-5.41,1.61,23.59,23.59,0,0,0-3.85,1.22s3.19-.39,3.18.12a7.94,7.94,0,0,1-1.6,2.95c-1,1-.28,1.78-.28,1.78s.81-1.68,1.89-1.88,1-3.35,1-3.35l5.39-1.71s1.49.34,1.36-.35l5.24.25,5.07,2.63s-2.6,3.54-3.18,3.75-5.41,3.24-5.41,3.24l-3.21-2a13,13,0,0,1,1.91,2.6l-2.55,2.2s-3.29,2-4.21,2-4.21-1.26-4.5-1.2-2.44,0-2.44,0a12.89,12.89,0,0,1,3.25,1,10.94,10.94,0,0,0,3.41.8s3.84-.71,4.35-1.82l-.76,2.48-4,2.16s-4.54,1.35-5.52,1l-3.35.74,1.72-.24,3.1.24,2.45-.55,2.69-.91,4.33-1.92.63-3.17,4.88-3.35,2.84,1.61,3.56,1.89q1.54-2.3,2.92-4.71l-.76,1.26-1.18,1.85-.3.57-2-1.46-2.74-1-1.09-.92,1.63-1.12a4.12,4.12,0,0,0,1-.7,17.66,17.66,0,0,1,1.52-1.71c.28-.15,2.53-2.3,2.53-2.3l.89-.16s2.22-.11,2.54-.06c.09,0,.48,0,1,0q.38-.81.73-1.63A14.32,14.32,0,0,0,999.35,465.38Z"/><path class="cls-2" d="M1002.93,412.29s-10.3-21.81-36.45-23.79c0,0,27,5.93,36.47,26.11Z"/><path class="cls-2" d="M1006.42,435.62s-5.64,8.46-15.23,10.16-24.26,5.64-24.26,5.64L957.34,448s5.26,4.51,9.21,4.51c0,0,.56,3.38-3.38,4.51,0,0,3.76,0,4.32-4.51,0,0,6-2.26,7.52-2.26s10.53-2.07,10.53-2.07,6.2-.56,7.71-.94,11.09-3,12.22-6.58Z"/><path class="cls-2" d="M868.71,421.4l-2.21-7s-9.31,6.56-11.57,17.48C854.93,431.88,859.73,421.2,868.71,421.4Z"/><path class="cls-4" d="M869.72,405.16s5.08-.94,6.77.75,2.82,4.89.56,4.89,0,2.26,2.26,4.51-1.13,3-1.69.75-1.69-2.26-3.38-4.51C874.23,411.55,880.62,406.29,869.72,405.16Z"/><path class="cls-4" d="M875.61,457.07s2.69.75,3.58-.6,1.49-3.92.3-3.92,0-1.81,1.19-3.62-.6-2.41-.89-.6-.89,1.81-1.79,3.62C878,451.94,881.39,456.16,875.61,457.07Z"/><path class="cls-5" d="M964,377s-11.92-14.51-36.78-8.29-13.47,10.36-4.66,15.8,17.41,20.93,15.83,30.15,15.51,10.52,11.37-8.65S938.12,371.84,964,377Z"/><path class="cls-3" d="M982.46,375.88s26.58,36.56,23,64.82a78.92,78.92,0,0,1-22.18,45.18l25.94-24.31s12.41,3.95,16.37,21.21c3,13.22,15.78,27.87,50.76,25.05,0,0-36.1,0-42.87-18.05-6.27-16.71-3.39-29.33-16.92-44.57C1016.57,445.21,1022.21,404,982.46,375.88Z"/><path class="cls-3" d="M1033.31,495.79s9.78,13.16,25.95,17.68-8.27-4.51-11.66-9.4Z"/><path class="cls-5" d="M872.61,399.79s9,.9,12.2,14.46,7.45,53.3-7.23,60.55c0,0,14.35,4.22,13.76-34.1-.55-35.94-7.72-44-18.28-44.31"/><path class="cls-3" d="M1007,453.72s-23.7,47.33-63.75,49c-35.6,1.5-57-16.92-53.59-32.15,4.34-19.52,1.69-29.9,1.69-29.9s2.26,42.87-19.19,32.73c0,0,26.93,41.65,65.45,38.35S1002.3,485.85,1007,453.72Z"/></g></g></svg>