<svg xmlns="http://www.w3.org/2000/svg" viewBox="0 0 1959.62 274.47"><title>Asset 1</title><g id="Layer_2" data-name="Layer 2"><g id="Layer_1-2" data-name="Layer 1"><g id="Layer_2-2" data-name="Layer 2"><g id="Layer_1-2-2" data-name="Layer 1-2"><path d="M336.13,28.43h20.58V195.25H336.13v28.41H420V195.25H399.46V28.43H420V0h-83.9ZM979.71,0H930.46l-80.31,193.6H832.71v30h80v-28.4h-23l18.17-48.66H990l16.35,48.64H986.8v28.4h85.86V195.2h-17.51ZM919.43,116.25l18.85-51a231.91,231.91,0,0,0,10-33l.42-1.93h4.77l.29,2.12a163.21,163.21,0,0,0,8.38,32.83l17.44,50.91ZM192.71,28.43l2,34h36L228.9.07H66.9V28.48H91.31V195.3H70.71v28.4h81V195.3H134.07V127h66.26V96.66H134.07V28.43Zm472.52,79L664,105.87l65-77.48h15.35V0h-74.1V28.43h21.55V33l-1.35.67a27.65,27.65,0,0,0-9.71,7.92L645.49,81.73,616.26,43.79c-3.11-4.06-7.19-8.07-11.23-10.07L603.68,33V28.43h21.87V0H533.8V28.43h17.69l65.61,85.79-70.27,81H529.22v28.41h80V195.22H589v-4.56l1.29-.7c3.73-2,8.23-6.39,11.7-10.52l34.29-40.53,30.55,40.27c3.59,4.58,6.29,7.85,10.86,10.91l1.09.72v4.41h-19v28.41h91.74V195.22H733.21Zm1278.58,87.79a17.41,17.41,0,0,1-10.46-3.21c-3.45-2.43-6.73-6.32-10.25-12.34l-20.56-34.28c-5.64-9.37-10.25-14.66-14.11-18.16-2.6-2.35-7.9-7.12-13.38-7.6l.12-.29c24.08-.86,51.6-26.61,51.52-59.11,0-22.51-9.73-42.35-29.34-52-12.83-6.36-20.12-8.18-46.9-8.23H1752V28.4h22.52V195.23H1754v28.41h83.91V195.23h-20.56v-65h13.54c9.29-.08,16.27,4.6,21.05,12.65l27.74,47.66c8.75,14.92,15.2,23.29,20.63,27.75s9.68,5.27,15.46,5.32h43.89V195.2Zm-99.57-95.33h-26.93V28.39h24c14.81,0,25.47,2.8,32.58,8.93s10.05,15.37,10,26.83S1880.8,84.8,1874,90.93s-16.73,9-29.78,9ZM1611.39,193l-.16,2.28h-61.52v-71.5h57.46V93.39h-57.46v-65h60.59l2,34h34.34L1644.71,0H1482.43V28.43h24.49V195.25h-20.57v28.41h159.41l2.43-66.93h-34.34ZM1355.55,27.15C1335.09,9.29,1305.11,0,1267.3,0H1163V28.4h24.49V195.23H1163v28.41h106.92c36.7,0,65.93-11.88,86.08-32.29s31.28-49.52,31.29-84.43c0-35.36-11.29-61.89-31.73-79.75Zm-40.16,148.67c-15.18,13.81-35.23,19.41-54.94,19.41h-30.2V28.42h29.55c21.57,0,41.76,4.8,56.67,17.35s24.16,32.78,24.14,62.48c0,31.83-10,53.77-25.23,67.59Z"/><path d="M351.1,110.12l-59.82,43.75v5.81l59.82-43.75Zm0,14.56-59.82,43.75v5.81l59.82-43.75Zm-20.58,73.25-59.66,43.63v5.8l59.66-43.63Zm20.58-58.7L291.28,183v5.81L351.1,145Zm-80.24,122.7,59.66-43.63v-5.82l-59.66,43.63ZM351.1,153.79l-59.82,43.77v5.8l59.82-43.8Zm0-58.21-59.82,43.76v5.81L351.1,101.4ZM61,7.87,0,52.5v5.81L61,13.67ZM282.06,79.12l62.4-45.64h-7.94l-62.4,45.64ZM61,22.42,0,67.06v5.81L61,28.24Zm290.09,15L291.27,81.17V87l59.82-43.75Zm0,29.09-59.82,43.75v5.81l59.82-43.75Zm0,14.56-59.82,43.75v5.74l59.82-43.75Zm0-29.1L291.27,95.72v5.81l59.82-43.75ZM543.41,152.32l61.56-45-2.86-3.76-61.57,45Zm-28.7-37.21L576.42,70l-2.85-3.73-61.72,45.14Zm-7.17-9.3,61.75-45.16-2.85-3.73-61.73,45.17Zm14.34,18.6,61.67-45.1-2.84-3.75L519,120.67Zm64.77,18.68-32,24.42,3.8,4.34Zm-57.6-9.38,61.66-45.07-2.85-3.73L526.21,130ZM73.71,33.48H65.78L3.37,79.12H11.3Zm426.66,63,61.78-45.19-2.85-3.73-61.8,45.2ZM536.23,143l61.6-45L595,94.27l-61.61,45.07ZM330.52,8.76l-61,44.63v5.83l61-44.63ZM351.1,168.32l-59.82,43.76v5.79l59.82-43.76Zm172.61,36.24-60.3,44.1v5.81l60.3-44.12ZM485.92,78l60.79-44.48h-7.94L478,78Zm-138,150.9-61.44,44.92h7.93l61.44-44.92ZM528.33,26.56l-61.45,45v5.81l61.44-44.94ZM351.1,188.67v-5.8l-10.62,7.76h7.94ZM165.26,33.48,138.11,53.33v5.8l35.08-25.65Zm-19.9,0-7.25,5.3v5.78L153.3,33.45Zm41.9,0h-2.12l-47,34.4v5.81l49.35-36.13ZM138.11,169.72v4.84l57.31-42.41h-6ZM75,274.07h8l61.81-45.21h-8ZM169.6,132.15l-31.49,23V161l39.42-28.83ZM85.51,164.56,25.57,208.4v5.81l59.94-43.84Zm241.75,64.31-56.4,41.8v3.13h3.65L336,228.88Zm3.26-205.54L269.52,68v5.8l61-44.63ZM188,46,138.11,82.43v5.81L188.3,51.56ZM116.91,228.86,55.1,274.07h8l61.81-45.21ZM184.71,92h8l33.5-24.5h-7.94Zm-31.85,0,36.2-26.48-.32-5.58L145,92Zm19.89,0,33.5-24.5h-7.93L164.82,92Zm-23,40.19-11.58,8.47v5.82l19.54-14.29Zm-64.2-25.81L25.57,150.18V156l59.94-43.84Zm0-14.54L25.57,135.64v5.8L85.51,97.56Zm0,29.09L25.57,164.73v5.83l59.94-43.84Zm0,29.1L25.57,193.83v5.8l59.94-43.84Zm0,34.91v-5.82l-15.8,11.56h8Zm0-107.66L25.57,121.08v5.81L85.51,83.05ZM97,228.85,35.22,274.06h7.94L105,228.85ZM85.51,135.44,25.57,179.28v5.81l59.94-43.84ZM64.93,228.86v-5.62L5.43,266.76v5.8l59.76-43.7Zm12.22,0L15.34,274.07h7.92l61.81-45.21ZM85.51,62.7,25.57,106.56v5.8L85.51,68.52ZM5.43,258l59.5-43.51v-5.81L5.43,252.21ZM85.51,48.14,25.57,92V97.8L85.51,54ZM64.93,200v-5.82L5,237.56l.38,6ZM85.51,33.56,25.57,77.45v5.74L85.51,39.35ZM493.19,87.15,555,41.93l-2.84-3.72L490.34,83.44Zm928.16,173,60.24-44v-5.81l-60.24,44.06Zm80.83-108.57L1441.5,196v5.82l60.68-44.39Zm-24.47-142-61.22,44.79v5.8l61.22-44.81Zm24.5,156.67-60.71,44.33v5.81L1502.18,172Zm-319.68-2.85-61.42,44.92v5.81l61.42-44.92Zm319.68,23.2v-5.81l-13.51,9.89h7.94Zm-20.58,9.25-60.28,44.73v5.16l60.24-44.06Zm20.58-58.71-60.68,44.38v5.82l60.68-44.39Zm0-101.85-60.68,44.39v5.8l60.68-44.38Zm0,14.56-60.68,44.39V100l60.68-44.37Zm0,58.19-60.68,44.38v5.81l60.68-44.38Zm-72.29-28.61,62.79-45.93h-8l-62.78,45.91Zm72.29,14.07-60.68,44.39v5.79l60.68-44.38Zm0-14.57-60.68,44.38v5.83l60.68-44.38Zm0-14.54-60.68,44.39v5.8l60.68-44.38Zm0,58.2L1441.53,167v5.8l60.68-44.39Zm247.22,75.52-59.86,43.78v5.81l59.86-43.78Zm-59.86,64.13,59.86-43.78v-5.81l-59.86,43.78ZM1770,153.93l-60.85,44.5v5.81l60.85-44.5Zm-69.57-74.26,63.15-46.18h-7.94l-63.15,46.18ZM1770,188.84V183l-10.41,7.61h7.94ZM1747.44,10.36,1686.27,55.1v5.81l61.17-44.74ZM1770,168.47,1709.13,213v5.81l60.85-44.5Zm0-29.1-60.85,44.5v5.8l60.85-44.5Zm0-87.3-60.85,44.49v5.8L1770,57.87Zm0,72.74-60.85,44.5v5.81l60.85-44.5Zm0-87.29L1709.13,82v5.8L1770,43.33Zm0,29.1-60.85,44.49v5.81L1770,72.42Zm0,43.65-60.85,44.5v5.79L1770,116.07Zm0-29.09-60.85,44.49v5.81L1770,87Zm0,14.54-60.85,44.49V146L1770,101.56ZM1182.5,148.81l-61.42,44.92v5.83l61.42-44.92ZM878.61,114.12,821.42,156l-3.34,8.26,57.12-41.77ZM870,134.94l-57,41.68-3.34,8.26,56.92-41.63ZM851.49,177,834.71,189l10.86-.54Zm10-21.28-56.8,41.54-3.34,8.26L858.07,164Zm25.67-62.41-57.39,42-3.33,8.24,57.27-42ZM904.28,51.7,846.49,94l-3.34,8.25L900.86,60Zm-8.55,20.8-57.59,42.12-3.34,8.26,57.51-42.06Zm286.76,111.22v-5.8l-17.39,12.72H1173Zm-550.07-128,33.41-24.44.43-6.55L629.56,52ZM912.85,30.86l-58,42.41-3.34,8.25,57.91-42.35ZM827.44,196,767.77,239.7v5.8l59.67-43.64ZM528.32,12,466.88,57V62.8l61.44-44.94ZM827.44,210.62l-59.67,43.64v5.82l59.67-43.64Zm-183-141.06,2.73,3.36,5.68-4.85,6.22-9.17Zm31.2-36.63-38.95,28.4L639.58,65,672,41.37Zm-11-15.29v-5.8L622.42,42.73l2.86,3.71Zm517.83,116.62-61.42,44.92V185l61.42-44.92Zm0-14.54-61.42,44.91v5.81l61.42-44.88Zm0-14.55-61.42,44.91v5.81L1182.49,111ZM921.41,10.07,863.23,52.63l-3.34,8.25L918,18.38ZM1158,195.83l-51.2,37.45-9.4,7.29V246l60.6-44.32Zm24.5-105.27-61.42,45v5.81l61.42-44.92Zm-631.92,71,50.93-37.25,8.78-10.12-1-1.34-61.54,45Zm546.81,98.89,60.6-44.32v-5.81l-60.6,44.32Zm10.23-182.08,61.47-45h-7.94l-61.47,45ZM1158,6.62l-61.42,44.94v5.82L1158,12.45Zm-36.91,71.75v4.71l61.42-44.92V33.41h-1.45l-61.47,45ZM1182.5,46.9l-61.42,44.91v5.82l61.42-44.92Zm0,29.11-61.42,44.91v5.81l61.42-44.92Zm0-14.56-61.42,44.91v5.82l61.42-44.92ZM1607,51.68l-.32-5.57L1554.79,84v4.61h1.63Zm-33.8,222.61h7.94l62.18-45.48h-7.93Zm42.3-45.48-62.19,45.48h7.93l62.19-45.48Zm-59.69,0-62.18,45.48h7.94l62.19-45.43Zm53.16-68-40.68,29.74h7.94l32.32-23.64Zm-13.37,68-62.18,45.48h7.94l62.18-45.48Zm-19.89,0-62.18,45.48h7.95l62.18-45.48Zm17.33-100-38.21,27.94v5.81l46.15-33.75Zm14.84-40.25,7.7.18,29.18-21.28h-7.48Zm-23.64-55.09L1554.78,55v5.8l37.34-27.31Zm-19.91,0-9.5,6.94v5.83l17.47-12.77Zm8.81,95.41-18.31,13.38v5.81l26.25-19.2Zm34.37,53.43.41-6.11-19.74,14.43h7.94Zm-71.59,46.55-62.16,45.48h7.93l62.19-45.48Zm70-195.39h-1.82l-49.29,36v5.81l51.35-37.56Zm-51.11,95.41v4.68l6.37-4.66ZM1271.49,176.8l62.22-45.46c.41-2.14.78-4.32,1.07-6.6l-62.44,45.67c-.26,2.33-.53,4.46-.83,6.4ZM1245,94.36,1309.77,47q-2-1.46-4.19-2.75l-64.51,47.18c1.2.86,2.51,1.84,3.9,3Zm27.2,52.86,63.32-46.31c-.11-1.87-.26-3.69-.45-5.47l-63.55,46.48c.24,1.81.51,3.57.7,5.31Zm-18.5-44.66L1318.71,55q-1.59-1.77-3.31-3.39l-65.07,47.6C1251.45,100.24,1252.55,101.36,1253.65,102.56Zm15.69,28.55c.26,1,.5,2.08.72,3.1l63.83-46.65q-.49-2.58-1.09-5l-64,46.79a15.87,15.87,0,0,1,.53,1.77Zm-.59,58c2.4-.48,5.2-1.07,8.21-1.79L1328,150a80.12,80.12,0,0,0,3-8l-61.64,45.09a18.16,18.16,0,0,1-.61,2.08Zm43.36-16.69a63.15,63.15,0,0,0,6.28-6.67l-20.46,15c5.57-2.29,10.63-5,14.18-8.27Zm184,56.38-62.18,45.48h7.94l62.19-45.48Zm-229.7-106.46,64.25-47q-.83-2.32-1.78-4.49L1264.41,118Q1265.47,120.1,1266.41,122.34Zm211.3-98.26-61.22,44.78v5.81l61.22-44.78ZM1516,228.86l-62.18,45.48h7.88l62.19-45.48Zm-34.38-4-60.24,44.06v5.38h.6l59.65-43.85Zm-220.78-113,64.79-47.39c-.8-1.37-1.63-2.7-2.52-4l-65,47.51Q1259.54,109.85,1260.85,111.86Zm11.95,49.46,62.74-45.89c.1-1.94.15-3.91.17-5.93l-63,46.06C1272.8,157.56,1272.83,159.46,1272.8,161.32Zm653.32,67.54-61.81,45.21h7.95l61.81-45.21Zm19.89,0-61.81,45.21h8.72l59.89-45.21Zm-38.35-1-62.13,45.44a21.64,21.64,0,0,0,3.7.82h3.13l61.88-45.25a29.23,29.23,0,0,1-6.58-1Zm-31.82-34.48-.18-.31-32.49,23.77v5.72L1878.08,197c-.74-1.16-1.48-2.39-2.24-3.69Zm-32.68,14.7,28.92-21.15-2.37-4.06-26.55,19.41ZM1822.57,33.52V34l.65-.48Zm66,179.22-61.86,45.18c.93,1.26,1.87,2.51,2.85,3.72l61.94-45.3c-1-1.11-1.95-2.33-3-3.64Zm9.06,9.72c-.37-.31-.75-.63-1.12-1l-62.15,45.45a29,29,0,0,0,3.87,3l62.13-45.44a32,32,0,0,1-2.77-2.05Zm-1529.84,6.4-61.44,44.92h7.93l61.43-44.92ZM1841.71,33.48h-6.5L1822.6,42.7v5.8l20.5-15Zm-265.4,55.21,31.43-23-.32-5.57-39.07,28.57Zm262,6.53,41.14-30.09v-.78c0-1.72-.1-3.32-.24-4.87l-48.86,35.74Zm15.63-60.89-31.33,22.91V63l37.5-27.43a50.14,50.14,0,0,0-6.21-1.28Zm17.18,6.88a23.24,23.24,0,0,0-3.41-2.4l-45.1,33v5.81l49-35.87a4.5,4.5,0,0,0-.53-.54Zm4.83,6.12-53.34,39v5.81l55.1-40.33a26,26,0,0,0-1.8-4.48Zm-36.77,143.3h4v2.86l23-16.8-2.37-4.08ZM1767,228.86l-62.37,45.61h7.94L1775,228.86Zm39.78,0-62.37,45.61h7.94l62.33-45.61Zm-19.89,0-62.37,45.61h7.93l62.37-45.61ZM1595.23,89.06l30-21.6h-8l-30.34,21.65Zm154.16,139.8v-1.69L1689.53,271v3.52h3.12L1755,228.86Zm-2-204L1686.22,69.6v5.81l61.17-44.74Zm79.22,204-62.37,45.61h7.95l62.37-45.61Zm25.24-76.66-29.32,21.45v5.8l31.69-23.18Zm8.32,14.28-2.38-4.07-35.26,25.79v2.43h4.62ZM1848,145.67a32.58,32.58,0,0,0-2.47-3.44l-23,16.85v5.81l25.75-18.83Zm33.72,57.4-61.67,45.1c.73,1.15,1.58,2.49,2.54,3.94L1884.37,207q-1.23-1.84-2.56-3.89Zm-59.23-67.66v.38l.53-.38Zm12.08.3-12,8.85v5.8l17.54-12.8a16.94,16.94,0,0,0-5.45-1.84ZM1850.54,95a48.34,48.34,0,0,0,10.62-2L1875,82.87a27,27,0,0,0,3.33-8.24ZM668.85,273h7.94l60.32-44.12h-7.94Zm.74-82.35a41,41,0,0,1-3.1-3.22l-4.41,3.22Zm19.8,38.23L629.07,273H637l60.32-44.12Zm-19.9,0L609.17,273h8l60.32-44.12Zm154.67,0-56.42,39.94v2H773l58.55-41.94Zm-114.89,0L649,273h8l60.32-44.12Zm201.18-75.72-3,8,12.83-9.39h-8Zm-256,75.72v-3.51l-60.13,44V273h2.94l60.32-44.12ZM907,190.62l53.16-38.88h-7.95L899,190.62ZM900,181.14l40.2-29.4h-7.95L903,173.14Zm-16.76,47.71-58.56,42h7.94l58.55-41.94Zm-19.89,0-58.55,41.94h7.94l58.55-41.94Zm-18.77,41.94h7.95L868,259.53l41.41-30.68h-6.22Zm-1.12-41.94-58.55,41.94h7.94l58.55-41.94ZM594.31,260.56l60.13-44v-5.81l-60.13,44Zm-64-31.71L470,273h7.93l60.32-44.12Zm39.78,0L509.71,273h8L578,228.86Zm-19.89,0L489.88,273h8l60.32-44.12Zm-26.49-9.76-60.33,44.12V269l60.33-44.12Zm-136,9.77-61.44,44.92h8l61.44-44.92ZM980,151.75h-7.94l-53.15,38.88h7.93Zm-633.86,122h8l61.44-44.92h-8Zm313.07-95.58L613.6,211.56v5.81L662,181.94Zm-4.77,18L613.63,226l-3.76,2.75-15.53,11.36V246l60.13-44Zm-40.84.76v5.82L655,172.51l-2.84-3.74Zm-3.22-6.37,37.47-27.41L645,159.41l-42.59,31.15ZM638,150.06l-13.13,9.6-12.88,15.22,28.84-21.09Zm-48,78.73-60.32,44.12h8l60.32-44.12Zm375.16-139-1.59-4.64-36,26.31h7.95Zm207.41,139-61.25,44.79h7.94l61.25-44.79Zm-14.52,0v-3.92l-60.6,44.32v4.4h1.92l61.25-44.79Zm34.42,0-61.25,44.79h7.94l61.25-44.79ZM999.17,190.07l-.68.5h.85ZM1293.4,38.56,1235.09,81.2V87l63.48-46.43C1296.9,39.88,1295.17,39.2,1293.4,38.56ZM1158,21.21l-61.42,44.92v5.81L1158,27Zm54.31,207.62L1151,273.62H1159l61.25-44.79Zm-276.48-1.14,45.85-33.54V190.6h4.86l10.28-7.52-1.56-4.67-61,44.62ZM1260.59,33.45l-25.5,18.65v5.81l33.08-24.19c-2.46-.16-5-.22-7.57-.24Zm18,1.41-43.47,31.8v5.81l49.73-36.37c-2.07-.45-4.14-.87-6.28-1.21Zm-46.37,194L1171,273.65h7.94l61.25-44.79Zm2.62,41.73c3.75-.7,7.62-1.56,11.52-2.62l59-43.15q-5.31,1.28-10.87,2.15Zm17.27-41.73-61.25,44.79h7.93L1260,228.86Zm19.95-.05-61,44.63c2.61-.15,5.61-.37,8.92-.7l60.48-44.24q-4.17.26-8.43.31ZM1240.71,33.47l-5.63,4.12v5.8l13.56-9.92Zm-259.06,184L922.14,261v5.81l59.51-43.52ZM986,228.86l-61.81,45.21h7.95l61.8-45.21Zm19.89,0-61.81,45.21H952l61.81-45.21Zm-50.49-117.3,13.7-10-1.59-4.65-20.06,14.65Zm-27.52,92.87L989,159.75l-1.57-4.66-61.12,44.7Zm-5.71,47.82,59.51-43.52v-5.8l-59.51,43.52Zm9.69-36.17,61-44.65-1.57-4.67-61.06,44.66Zm93.93,12.78L964,274.07h7.93l61.82-45.21ZM959.52,73.62,933.09,92.95l-3,8,31-22.64Zm13,37.94-1-3-4.15,3ZM955.52,62,940.45,73l-3,8,19.61-14.35q-.73-2.28-1.52-4.64Zm90.19,166.89L983.9,274.07h7.94l61.81-45.21ZM952,50l-4.56,3.33q-1.26,3.91-2.59,7.7l8.48-6.2C952.87,53.26,952.43,51.66,952,50Zm51.74,224h8l30-22,30.6-23.24h-6.76Z"/></g></g></g></g></svg>