<svg xmlns="http://www.w3.org/2000/svg" viewBox="0 0 776.46 163.56"><defs><style>.cls-1{fill:#231f20;}</style></defs><title>Asset 3</title><g id="Layer_2" data-name="Layer 2"><g id="Layer_1-2" data-name="Layer 1"><g id="Layer_2-2" data-name="Layer 2"><g id="Layer_1-2-2" data-name="Layer 1-2"><polygon class="cls-1" points="63.41 119.94 67.39 75.37 36.3 83.79 28.95 82.72 24.96 58.21 35.99 18.69 45.64 16.08 50.54 60.51 70.61 59.43 83.63 1.23 66.48 0.61 55.45 25.58 56.37 3.37 26.8 0.61 7.81 35.08 0 76.9 5.66 126.83 63.41 119.94"/><path class="cls-1" d="M755.37,79.65l2.91-15q.15-2,.15-3.68,0-13.17-9.65-13.17a17.32,17.32,0,0,0-6.59,1.38L723,66.64l3.06-17.31-19,.31-3.23,17.78-1.36-1.54L689,78.75a27.58,27.58,0,0,0,1.69-10.11q0-9-4.29-15-5.51-7.35-16.08-7.35a38.36,38.36,0,0,0-4.75.31Q641.55,50,636,80.76a37.32,37.32,0,0,0-.46,5.82,30.69,30.69,0,0,0,.31,4.26L621.34,103l7-38.29q.15-2,.15-3.68,0-13.17-9.65-13.17a17.32,17.32,0,0,0-6.59,1.38L593.1,66.67l.31-2q.15-2,.15-3.68,0-13.17-9.65-13.17a17.32,17.32,0,0,0-6.59,1.38L558.17,66.66l3.06-17.31-19,.3-7.31,40L519.41,103q1.38-10.57,2.6-17.62l6.74-36.61H508.68l-7.2,39.67v.77l-17.77,14.71q2.45-11.24,3.83-18.33l6.59-36.81H473.76l-3.7,21.77-22.5,3.35,9-38.3L463.37,0H430.28l3.53,17.51-13.93,57.7-13.79,1.07L417.22,1.09l-36.72,15,13.94,9.8-7.1,45.47L358.6,98.19Q348.18,89.31,348,84.86q25.42-24,27.88-27.42a4.59,4.59,0,0,0,.77-2.45,2.64,2.64,0,0,0-.92-2.15q-1.84-3.06-6.43-4.82A26,26,0,0,0,360,46.26a20.61,20.61,0,0,0-3.68.31q-24.21,4.75-29.56,34.16a37.33,37.33,0,0,0-.46,5.82,30.77,30.77,0,0,0,.25,3.72L311.9,102.94q1.22-10.57,2.6-17.62l6.13-35.08h-24q-15.32,0-27.5,12.71-1.57,1.64-2.93,3.32l-.36-.41L231.22,98.18Q220.8,89.3,220.65,84.85q25.42-24,27.88-27.42A4.59,4.59,0,0,0,249.3,55a2.64,2.64,0,0,0-.92-2.15Q246.54,49.77,242,48a26,26,0,0,0-9.34-1.76,20.61,20.61,0,0,0-3.68.31q-24.21,4.75-29.56,34.16a37.33,37.33,0,0,0-.46,5.82c0,.93,0,1.84.13,2.75l-16.37,13.64L200.37,5l-19,.15L166,90.2l-15.24,12.7L168.5,5l-19,.15L138.43,66.31l-13,12.38a27.58,27.58,0,0,0,1.69-10.11q0-9-4.29-15-5.51-7.35-16.08-7.35a38.36,38.36,0,0,0-4.75.31Q78,49.91,72.44,80.7A37.33,37.33,0,0,0,72,86.52a30.51,30.51,0,0,0,5.82,17.92A38.74,38.74,0,0,0,89.16,115q5.67,3.68,7.81,3.37l39.27-39.91L133.73,92.3a51.59,51.59,0,0,0-.77,8.44q0,16,12.41,16a9.64,9.64,0,0,0,3.06-.46L164.82,101q.07,15.78,12.4,15.78a9.64,9.64,0,0,0,3.06-.46l20.46-19.12a32.64,32.64,0,0,0,3.89,7.33A38.74,38.74,0,0,0,216,115q5.67,3.68,7.81,3.37l33.73-34.29a36.85,36.85,0,0,0-.65,6.87,34.17,34.17,0,0,0,5.21,18.46q5.21,8.35,11.49,8.35l18.84-18.53-2.6,16.7q-2.15-.3-10.72,6.28a102.54,102.54,0,0,0-15.93,15q-8.12,9.65-8.12,16.24,0,8,12.56,9.8a36,36,0,0,0,4.75.31q14.55,0,25-12.87,8.73-10.88,9-21.44l2.3-11.79,19.9-19.39a33.11,33.11,0,0,0,3.53,6.37A38.74,38.74,0,0,0,343.43,115q5.67,3.68,7.81,3.37l34.13-34.69L379.89,119l17.41,3.66,4.53-30,16.66-4.74-8.27,34.77,31.25-2.3L447,82.56l21.68-3.7L467,88.38a51.38,51.38,0,0,0-.77,8.42q0,18.38,14.86,20.68l19.3-17.77q.46,10.88,8.12,15.32a18.07,18.07,0,0,0,7.81,2.45l16.43-16.11L530,116.72h20.07L557,78.49l17.92-16.15-9.65,54.23,19,.15,6.89-37.88,18.69-16.5-5.51,30a45.55,45.55,0,0,0-.92,8.58q0,15.78,12.41,15.78a8.8,8.8,0,0,0,3.06-.46L638,98.45a33.21,33.21,0,0,0,3.36,6A38.74,38.74,0,0,0,652.7,115q5.67,3.68,7.81,3.37L702.29,75.9,694.82,117h20.07l6.89-38.45L739.7,62.31,738.32,69a41.91,41.91,0,0,0-1.07,8.88q0,15.47,12.56,15.47a8.8,8.8,0,0,0,3.06-.46L776.46,71l-4.6-5.21ZM104.17,99.41Q91,86.85,91,76.59q.3-22.06,9.65-23.44a19.32,19.32,0,0,1,3.06-.31q3.37,0,8.12,3.06Zm112.89-28a24.76,24.76,0,0,1,2.76-11.49q3.06-6.12,7.66-6.74a19.32,19.32,0,0,1,3.06-.31q3.37,0,8.12,3.06-1.23,3.37-7.89,9.8a111.65,111.65,0,0,1-12.94,10.88,15.5,15.5,0,0,1-.77-5.23Zm54.69,83.48a7.88,7.88,0,0,1-2.91-.61q-2.91-1.23-2.91-3.83,0-7.51,22.06-23.44-6.14,27.85-16.25,27.85ZM293.5,89.48,284.15,98q-6.59-4-6.59-12.87a29.64,29.64,0,0,1,2.14-10.42q6-16.08,17.46-16.08a7.37,7.37,0,0,1,1.69.15Zm51-18.07a24.76,24.76,0,0,1,2.76-11.49q3.06-6.12,7.66-6.74a19.32,19.32,0,0,1,3.06-.31q3.37,0,8.12,3.06-1.23,3.37-7.89,9.8a111.65,111.65,0,0,1-12.94,10.88,15.51,15.51,0,0,1-.77-5.23Zm323.2,28q-13.18-12.56-13.17-22.82.3-22.06,9.65-23.44a19.32,19.32,0,0,1,3.06-.31q3.37,0,8.12,3.06Z"/></g></g></g></g></svg>