<?xml version="1.0" encoding="utf-8"?>
<!-- Generator: Adobe Illustrator 22.1.0, SVG Export Plug-In . SVG Version: 6.00 Build 0)  -->
<svg version="1.1" id="Layer_1" xmlns="http://www.w3.org/2000/svg" xmlns:xlink="http://www.w3.org/1999/xlink" x="0px" y="0px"
	 viewBox="0 0 530.8 126.3" style="enable-background:new 0 0 530.8 126.3;" xml:space="preserve">
<style type="text/css">
	.st0{fill:#FFFFFF;stroke:#FFFFFF;stroke-miterlimit:10;}
	.st1{fill:#FFDC03;}
	.st2{fill:#D855FF;}
	.st3{fill:#00E2FF;}
	.st4{fill:#FF9F02;}
	.st5{fill:#32EE85;}
	.st6{fill:#FF351D;}
</style>
<title>Asset 1</title>
<path class="st0" d="M522.2,54.9"/>
<path class="st1" d="M257.6,45.6"/>
<g>
	<path class="st2" d="M527.1,88.6c2,2.7,0,7-3.3,7h-70.2c-3.7,0-6.7-3-6.7-6.7l0-57.8c0-3.4,2.8-6.2,6.2-6.2h45
		c12.4,0,22.7,10.2,22.7,22.5c0,8.3-2.8,14-7.2,18.1c-0.9,0.8-1.1,2.2-0.4,3.2L527.1,88.6z"/>
	<g>
		<path class="st3" d="M440,83.5c0-3.2-2.6-5.8-5.8-5.8l-9.5,0c-2.3,0-4.2-1.9-4.1-4.3c0.1-2.2,2-3.9,4.2-3.9l9.4,0
			c3.2,0,5.8-2.6,5.8-5.8l0-4.9c0-3.2-2.6-5.8-5.8-5.8l-9.4,0c-2.2,0-4.1-1.7-4.2-3.9c-0.1-2.3,1.8-4.3,4.1-4.3l9.5,0
			c3.2,0,5.8-2.6,5.8-5.8l0-8.7c0-3-2.4-5.5-5.5-5.5h-62.7c-3,0-5.5,2.4-5.5,5.5l0,59.7c0,3.1,2.5,5.6,5.6,5.6h62.4
			c3.1,0,5.6-2.5,5.6-5.6V83.5z"/>
	</g>
	<path class="st4" d="M145.2,27.3l36.1,60.3c2.1,3.6-0.4,8.1-4.6,8.1h-72.1c-4.1,0-6.7-4.5-4.6-8.1l36-60.3
		C138.1,23.8,143.1,23.8,145.2,27.3z"/>
	<path class="st1" d="M264.4,95.6H194c-3,0-5.4-2.4-5.4-5.4V29.6c0-4.3,5.3-6.5,8.3-3.4l27.2,27.4c2.7,2.7,7.1,2.7,9.9,0l27.6-27.5
		c3.1-3.1,8.3-0.9,8.3,3.4v60.7C269.8,93.2,267.4,95.6,264.4,95.6z"/>
	<path class="st5" d="M353.5,95.6h-70.5c-3,0-5.4-2.4-5.4-5.4V29.6c0-4.3,5.3-6.5,8.3-3.4l27.2,27.4c2.7,2.7,7.1,2.7,9.9,0
		l27.6-27.5c3.1-3.1,8.3-0.9,8.3,3.4v60.7C358.9,93.2,356.5,95.6,353.5,95.6z"/>
</g>
<path class="st6" d="M98.4,28.5V15.8c0-3-2.4-5.4-5.4-5.4h-1.4c0,0,0,0,0,0l-23.8,0c0,0,0,0,0,0H66c-2.8,0-5.1,2.3-5.1,5.1v32h0
	l0,21.5v0C60.6,81.8,50.1,92,37.4,91.8c-10.1-0.2-18.2-8.5-18-18.6c0-2.2,0.6-4.3,1.5-6.2c-0.8,8.1,4.6,15.6,12.8,17.2
	c6.1,1.2,12.1-1.4,15.6-6.1c2-2.5,3.3-5.6,3.3-9.1c0.2-11.6-9.1-21.2-20.8-21.4c-16.3-0.3-29.7,12.8-30,29
	c-0.1,8.6,2.4,16.8,7.2,23.8c7.5,10.8,19.8,17.3,32.8,17.5c5.9,0.1,11.7-0.7,17.3-2.4C73.7,111,85.9,100.6,92.7,87
	c3.7-7.5,5.6-15.5,5.8-23.9L98.4,28.5z"/>
</svg>
