<?xml version="1.0" encoding="utf-8"?>
<!-- Generator: Adobe Illustrator 22.1.0, SVG Export Plug-In . SVG Version: 6.00 Build 0)  -->
<svg version="1.1" id="Layer_1" xmlns="http://www.w3.org/2000/svg" xmlns:xlink="http://www.w3.org/1999/xlink" x="0px" y="0px"
	 viewBox="0 0 530.8 126.3" style="enable-background:new 0 0 530.8 126.3;" xml:space="preserve">
<style type="text/css">
	.st0{fill:#EF1757;}
</style>
<title>Asset 1</title>
<path class="st0" d="M129.3,92C129.3,92,129.3,92,129.3,92l-27.1-52.8c-1.6-3.1,0.7-6.8,4.2-6.8l14,0.1c2.7,0,5.1,1.5,6.2,3.9
	l15.1,28.2c0,0,0.1,0,0.1,0l13.6-27.7c1.1-2.7,3.6-4.4,6.5-4.4l14.4-0.1c3.3,0,5.6,3.3,4.4,6.4L142,120.2c-1.1,2.7-3.6,4.4-6.5,4.4
	h-14.5c-3.3,0-5.6-3.3-4.3-6.4L129.3,92z"/>
<path class="st0" d="M214.1,30.7c-20,0-34.4,13.9-34.4,32.9c0,19.3,14.3,33.6,34.4,33.6c19.9,0,34.1-14.3,34.1-33.6
	C248.2,44.6,234,30.7,214.1,30.7z M214.8,75.2c-7,0.5-12.8-4.4-13-11.1c-0.2-6.3,4.7-11.6,10.9-12.2c6.6-0.6,12.4,3.8,13.2,10.2
	C226.7,68.8,221.5,74.8,214.8,75.2z"/>
<path class="st0" d="M84.1,28.2c7.1-0.1,13-5.7,13-12.8c0-7.9-6.8-13.6-14.6-12.9C75.7,3.1,70.2,9.1,70.5,16
	C70.8,23.1,76.7,28.4,84.1,28.2z"/>
<g>
	<path class="st0" d="M95.7,37.1c0-2.6-2.1-4.7-4.7-4.7l-14.6,0.1c-2.6,0-4.6,2.1-4.7,4.6l-0.5,41.3c0,1.3,0.6,2.5,1.5,3.3
		c5.9,5,11.3,8.2,17.5,10.1c2.4,0.8,4.9-1.1,4.9-3.6L95.7,37.1z"/>
</g>
<path class="st0" d="M102.1,124.6c-18.7-1.4-33.8-7.8-49.8-22.8c-0.2-0.2-0.4-0.3-0.6-0.5c-0.4-0.3-0.8-0.6-1.2-1l-23.4-22L27.2,91
	c0,2.6-2.1,4.7-4.7,4.7H6.7c-2.6,0-4.7-2.2-4.7-4.8l0.1-80c0.1-2.5,2.1-4.7,4.6-4.7l15.6,0c2.6,0,4.7,2.1,4.7,4.7l-0.5,40.4
	c0,0.1,0.1,0.1,0.1,0l15.1-16.7c1.3-1.4,3.1-2.1,5-2.2H61c4.1,0,6.2,4.8,3.5,7.8L43.4,63.5c0,0,0,0.1,0,0.1l8.7,7.9l14.4,14
	C80,98.4,91,103.4,108.2,104c2.9,0.1,4.8,3.1,3.6,5.8l-5.7,12.5C105.4,123.8,103.8,124.7,102.1,124.6z"/>
<path class="st0" d="M117.6,90.9"/>
</svg>
