<svg xmlns="http://www.w3.org/2000/svg" xmlns:xlink="http://www.w3.org/1999/xlink" viewBox="0 0 2874.34 1969.01"><defs><style>.cls-1{fill:url(#linear-gradient);}.cls-2{fill:#fff;}</style><linearGradient id="linear-gradient" x1="1439.29" y1="1237.93" x2="1439.29" y2="642.51" gradientUnits="userSpaceOnUse"><stop offset="0" stop-color="#203d71"/><stop offset="1" stop-color="#2c79bb"/></linearGradient></defs><title>Asset 8</title><g id="Layer_2" data-name="Layer 2"><g id="Layer_1-2" data-name="Layer 1"><rect class="cls-1" x="654.95" y="642.51" width="1568.67" height="595.42"/><path class="cls-2" d="M1449.43,866.22a43.48,43.48,0,0,0-13.41-5.09c-5.09-1-10.11-2.14-15.06-2.14h-43.74l-8.66,65.9h46.62c5,0,9.9-1.65,14.85-2.76s9.55-4,13.82-6.47a32.95,32.95,0,0,0,16.3-24.76c.83-6,.21-11.24-1.86-15.23A22.73,22.73,0,0,0,1449.43,866.22Z"/><path class="cls-2" d="M1442.83,982.87a60.67,60.67,0,0,0-16.3-4.6,122.55,122.55,0,0,0-16.71-1.35h-48.69l-9.49,69.37h57.77c5,0,10.11-1.9,15.47-3s10.24-4.38,14.65-7.13a42.68,42.68,0,0,0,11.55-10.73,33.49,33.49,0,0,0,6.19-16.09c.83-6.87-.14-12.47-2.89-16.74A26,26,0,0,0,1442.83,982.87Z"/><path class="cls-2" d="M681.26,1185.65,988,1019.92l52.65-344.57L736,842.4ZM924.89,975.42l-75.75,43.67,13.4-87.58,77.94-42.12ZM788.11,879.09,963.22,785l-11.56,74.65-107,59.27-19.81,120.81-66.45,36.11Z"/><path class="cls-2" d="M0,0V1969H2874.34V0ZM659.73,1211.11l-.06-.49,60.07-379.68,337.14-184.32.49-.11,40,50.29-51,364.17-325.8,170.89Zm172.83-16.7,233.17-119.8,34.78-259.14,48.93,61.22-32.07,235L907.48,1220.26Zm346.67-37.83L1076,1205.89,1013,1183.69l122.23-60.16,15.41-135.28,44.72,54.87Zm347-276.39c-2.21,16.5-8.67,30.19-19.53,41.05s-22.34,18.64-39.69,23.31v.83a66.4,66.4,0,0,1,24.83,8,55.19,55.19,0,0,1,17.82,15.27,57,57,0,0,1,9.9,21.67,70.57,70.57,0,0,1,.83,26.41q-3.31,23.12-15.27,38.6a95,95,0,0,1-28.88,25,127.43,127.43,0,0,1-37.13,13.68,197.92,197.92,0,0,1-39.61,4.26H1279.85L1320.7,807h108.93c12.65,0,25.23.37,37.75,2.16s23.52,4.84,33,10.2a53.45,53.45,0,0,1,21.7,22.49Q1529.51,856.26,1526.24,880.19Zm67.6,218.13H1532L1560,897.15h61.89Zm33-232.39H1565l9-59h61.89ZM1733.1,1040.7a15.66,15.66,0,0,0,7.84,7.63q5.57,2.69,15.47,2.68a106.56,106.56,0,0,0,13-1q8-1,12.58-4.74l-7,51.58a100.59,100.59,0,0,1-22.08,5,203.47,203.47,0,0,1-22.07,1.27,114.09,114.09,0,0,1-28.47-3.23c-8.53-2.2-15.75-5.57-21.66-10.39a39.45,39.45,0,0,1-12.79-18.51c-2.62-7.7-3.24-16.52-1.85-27.52l13.61-94.24h-39.61l7-52h39.61l8.25-59h61.89l-8.25,59H1803l-7,52h-54.46l-9.49,65.77a89.23,89.23,0,0,0-1.24,14A28,28,0,0,0,1733.1,1040.7Zm203.41,48.48a105.65,105.65,0,0,1-31.15,10.73,183.41,183.41,0,0,1-33,3.09,149.07,149.07,0,0,1-41.67-6q-20.64-6-33.42-21.25l43.33-41.68a53.2,53.2,0,0,0,17.12,16.3q9.69,5.57,23.73,5.57a61,61,0,0,0,19.8-3.09q9.07-3.09,10.32-11.35,1.24-7.83-6-11.76a76.33,76.33,0,0,0-18.57-6.6q-11.35-2.68-24.35-5.78a91,91,0,0,1-23.93-9.28,43.74,43.74,0,0,1-17.12-17.54q-6.19-11.34-3.3-30.33,2.48-17.74,11.55-30.53a78.42,78.42,0,0,1,22.08-21,97,97,0,0,1,28.67-12.17,129,129,0,0,1,31.36-3.92,136.72,136.72,0,0,1,39.2,5.78q19.39,5.78,31.36,20.63l-42.91,37.55q-11.14-16.91-33.84-16.92a36.32,36.32,0,0,0-15.68,3.72q-7.84,3.71-9.08,12.79-1.24,7.43,6.19,10.93a96.92,96.92,0,0,0,18.57,6.19q11.14,2.69,24.14,5.78a80.63,80.63,0,0,1,23.73,9.7,45.74,45.74,0,0,1,16.71,17.95q6,11.35,3.51,30.32-2.48,19.4-12.79,32A80.83,80.83,0,0,1,1936.51,1089.18Zm159.83,41.28c-5.51,10.73-10.73,20.4-15.68,28.65a81.62,81.62,0,0,1-17.54,20.83,68.53,68.53,0,0,1-24.34,12.79q-14.23,4.33-36.52,4.33a134.14,134.14,0,0,1-45-7.43l15.26-50.75a62.6,62.6,0,0,0,27.65,6.19,57.16,57.16,0,0,0,17.33-2.28,33.71,33.71,0,0,0,12-6.61,44,44,0,0,0,8.67-10.54c2.47-4.13,5.22-9,8.25-14.49l6.19-11.64-59.42-202.36H2060l33,135.27h.82l62.72-135.27h63.54Z"/></g></g></svg>