<svg xmlns="http://www.w3.org/2000/svg" viewBox="0 0 2872 1968"><defs><style>.cls-1{fill:#fff;}.cls-2{fill:#231f20;}</style></defs><title>Asset 17</title><g id="Layer_2" data-name="Layer 2"><g id="Layer_1-2" data-name="Layer 1"><rect class="cls-1" width="2872" height="1968"/><polygon class="cls-2" points="709.04 863.94 713.02 819.37 681.93 827.79 674.58 826.72 670.59 802.21 681.62 762.69 691.27 760.08 696.17 804.51 716.24 803.43 729.26 745.23 712.11 744.61 701.08 769.58 702 747.37 672.43 744.61 653.44 779.08 645.63 820.9 651.29 870.83 709.04 863.94"/><path class="cls-2" d="M1401,823.65l2.91-15q.15-2,.15-3.68,0-13.17-9.65-13.17a17.32,17.32,0,0,0-6.59,1.38l-19.15,17.46,3.06-17.31-19,.31-3.23,17.78-1.36-1.54-13.48,12.87a27.58,27.58,0,0,0,1.69-10.11q0-9-4.29-15-5.51-7.35-16.08-7.35a38.36,38.36,0,0,0-4.75.31q-24.05,3.37-29.56,34.16a37.32,37.32,0,0,0-.46,5.82,30.7,30.7,0,0,0,.31,4.26l-14.55,12.13,7-38.29q.15-2,.15-3.68,0-13.17-9.65-13.17a17.32,17.32,0,0,0-6.59,1.38l-19.15,17.46.31-2q.15-2,.15-3.68,0-13.17-9.65-13.17a17.32,17.32,0,0,0-6.59,1.38l-19.15,17.46,3.06-17.31-19,.3-7.31,40-15.51,13.3q1.38-10.57,2.6-17.62l6.74-36.61h-20.07l-7.2,39.67v.77l-17.77,14.71q2.45-11.24,3.83-18.33l6.59-36.81h-20.37l-3.7,21.77-22.5,3.35,9-38.3L1109,744h-33.09l3.53,17.51-13.93,57.7-13.79,1.07,11.13-75.19-36.72,15,13.94,9.8-7.1,45.47-28.74,26.83q-10.42-8.88-10.57-13.33,25.42-24,27.88-27.42a4.59,4.59,0,0,0,.77-2.45,2.64,2.64,0,0,0-.92-2.15q-1.84-3.06-6.43-4.82a26,26,0,0,0-9.34-1.76,20.61,20.61,0,0,0-3.68.31q-24.21,4.75-29.56,34.16a37.32,37.32,0,0,0-.46,5.82,30.76,30.76,0,0,0,.25,3.72l-14.64,12.67q1.22-10.57,2.6-17.62l6.13-35.08h-24q-15.32,0-27.5,12.71-1.57,1.64-2.93,3.32l-.36-.41-34.62,32.32q-10.42-8.88-10.57-13.33,25.42-24,27.88-27.42a4.59,4.59,0,0,0,.77-2.45,2.64,2.64,0,0,0-.92-2.15q-1.84-3.06-6.43-4.82a26,26,0,0,0-9.34-1.76,20.61,20.61,0,0,0-3.68.31q-24.21,4.75-29.56,34.16a37.32,37.32,0,0,0-.46,5.82c0,.93.05,1.84.13,2.75l-16.37,13.64L846,749.05l-19,.15-15.4,85-15.24,12.7,17.77-97.88-19,.15-11.07,61.14-13,12.38a27.58,27.58,0,0,0,1.69-10.11q0-9-4.29-15-5.51-7.35-16.08-7.35a38.36,38.36,0,0,0-4.75.31q-24.05,3.37-29.56,34.16a37.32,37.32,0,0,0-.46,5.82,30.51,30.51,0,0,0,5.82,17.92A38.74,38.74,0,0,0,734.79,859q5.67,3.68,7.81,3.37l39.27-39.91-2.51,13.84a51.59,51.59,0,0,0-.77,8.44q0,16,12.41,16a9.64,9.64,0,0,0,3.06-.46l16.39-15.32q.07,15.78,12.4,15.78a9.64,9.64,0,0,0,3.06-.46l20.46-19.12a32.64,32.64,0,0,0,3.89,7.33A38.74,38.74,0,0,0,861.62,859q5.67,3.68,7.81,3.37l33.73-34.29a36.85,36.85,0,0,0-.65,6.87,34.17,34.17,0,0,0,5.21,18.46q5.21,8.35,11.49,8.35l18.84-18.53-2.6,16.7q-2.15-.3-10.72,6.28a102.54,102.54,0,0,0-15.93,15q-8.12,9.65-8.12,16.24,0,8,12.56,9.8a36,36,0,0,0,4.75.31q14.55,0,25-12.87,8.73-10.88,9-21.44l2.3-11.79,19.9-19.39a33.11,33.11,0,0,0,3.53,6.37A38.74,38.74,0,0,0,989.06,859q5.67,3.68,7.81,3.37L1031,827.68,1025.52,863l17.41,3.66,4.53-30,16.66-4.74-8.27,34.77,31.25-2.3,5.51-37.83,21.68-3.7-1.62,9.52a51.38,51.38,0,0,0-.77,8.42q0,18.38,14.86,20.68l19.3-17.77q.46,10.88,8.12,15.32a18.07,18.07,0,0,0,7.81,2.45l16.43-16.11-2.8,15.35h20.07l6.89-38.23,17.92-16.15-9.65,54.23,19,.15,6.89-37.88,18.69-16.5-5.51,30a45.54,45.54,0,0,0-.92,8.58q0,15.78,12.41,15.78a8.8,8.8,0,0,0,3.06-.46l19.15-17.79a33.21,33.21,0,0,0,3.36,6A38.74,38.74,0,0,0,1298.33,859q5.67,3.68,7.81,3.37l41.78-42.47L1340.45,861h20.07l6.89-38.45,17.92-16.24-1.38,6.74a41.91,41.91,0,0,0-1.07,8.88q0,15.47,12.56,15.47a8.8,8.8,0,0,0,3.06-.46l23.59-21.9-4.6-5.21ZM749.8,843.41q-13.18-12.56-13.17-22.82.3-22.06,9.65-23.44a19.32,19.32,0,0,1,3.06-.31q3.37,0,8.12,3.06Zm112.89-28a24.76,24.76,0,0,1,2.76-11.49q3.06-6.12,7.66-6.74a19.32,19.32,0,0,1,3.06-.31q3.37,0,8.12,3.06-1.23,3.37-7.89,9.8a111.66,111.66,0,0,1-12.94,10.88A15.5,15.5,0,0,1,862.69,815.38Zm54.69,83.48a7.88,7.88,0,0,1-2.91-.61q-2.91-1.23-2.91-3.83,0-7.51,22.06-23.44Q927.48,898.86,917.37,898.86Zm21.75-65.41L929.78,842q-6.59-4-6.59-12.87a29.64,29.64,0,0,1,2.14-10.42q6-16.08,17.46-16.08a7.37,7.37,0,0,1,1.69.15Zm51-18.07a24.76,24.76,0,0,1,2.76-11.49q3.06-6.12,7.66-6.74a19.32,19.32,0,0,1,3.06-.31q3.37,0,8.12,3.06-1.23,3.37-7.89,9.8a111.66,111.66,0,0,1-12.94,10.88A15.51,15.51,0,0,1,990.13,815.38Zm323.2,28q-13.18-12.56-13.17-22.82.3-22.06,9.65-23.44a19.32,19.32,0,0,1,3.06-.31q3.37,0,8.12,3.06Z"/><path class="cls-2" d="M792.55,951c-17-17-37.76-26.53-65.32-26.53S678.59,934,661.58,951c-24.49,24.49-23.81,54.77-23.81,96.61s-.68,72.12,23.81,96.61c17,17,38.1,26.53,65.66,26.53s48.31-9.53,65.32-26.53c24.49-24.49,24.15-54.77,24.15-96.61S817,975.51,792.55,951Zm-35,164.65c-6.8,7.82-17.35,12.93-30.28,12.93s-23.81-5.1-30.62-12.93c-9.18-10.21-11.57-21.43-11.57-68s2.38-57.83,11.57-68c6.8-7.82,17.69-12.93,30.62-12.93s23.47,5.1,30.28,12.93c9.18,10.21,11.91,21.43,11.91,68S766.7,1105.46,757.52,1115.67Z"/><path class="cls-2" d="M1024.73,1000.69c0-40.48-29.26-74.16-78.58-74.16H851.24v242.21h47.29v-96.61h34l47.29,96.61h54.77L980.51,1064.3C1004,1055.79,1024.73,1034.7,1024.73,1000.69Zm-81.64,32H898.52v-64h44.56c20.75,0,34.36,13.27,34.36,32S963.84,1032.66,943.09,1032.66Z"/><rect class="cls-2" x="1063.19" y="926.53" width="47.29" height="242.21"/><path class="cls-2" d="M1238,1073.48h42.86v8.5c0,11.91-2.72,24.49-10.55,33s-18,13.61-32.32,13.61c-12.93,0-23.47-4.76-30.28-12.59-9.18-10.21-11.57-21.77-11.57-68.38s2.38-57.83,11.57-68c6.8-7.82,17.35-12.93,30.28-12.93,18.71,0,28.58,7.14,42.18,20.75l32-32c-21.77-21.77-40.48-31-74.16-31-27.21,0-48.31,9.53-65.32,26.53-24.49,24.49-23.81,54.77-23.81,96.61s-.68,72.12,23.81,96.61c17,17,38.78,26.53,65.32,26.53,27.55,0,50.35-9.87,67.7-27.9,17-17.69,22.45-39.12,22.45-74.16V1034H1238Z"/><rect class="cls-2" x="1363.69" y="926.53" width="47.29" height="242.21"/><polygon class="cls-2" points="1595.59 1074.85 1499.66 926.52 1457.48 926.52 1457.48 1168.74 1504.76 1168.74 1504.76 1020.08 1600.69 1168.74 1642.88 1168.74 1642.88 926.52 1595.59 926.52 1595.59 1074.85"/><path class="cls-2" d="M1758.75,926.53l-88.11,242.21H1720l14.63-42.86h86.07l14.29,42.86h49.33l-88.45-242.21Zm-10.89,159.55L1778.48,998l29.6,88.11Z"/><polygon class="cls-2" points="1959.32 926.52 1912.03 926.52 1912.03 1168.74 2069.2 1168.74 2069.2 1126.55 1959.32 1126.55 1959.32 926.52"/><path class="cls-2" d="M2250.34,1045.93c-10.21-9.53-24.15-15.65-46.26-18.71l-28.58-4.08c-9.87-1.36-17.69-5.1-22.45-9.53a23.38,23.38,0,0,1-7.14-17.35c0-16.67,12.25-30.62,37.42-30.62,16,0,34.36,2,49.67,16.67l29.94-29.6c-20.75-20.07-44.9-28.24-78.24-28.24-52.39,0-84.37,30.28-84.37,73.48,0,20.41,5.78,36.06,17.35,47.63,10.89,10.55,26.19,17,46.95,20.07l29.26,4.08c11.23,1.7,16.67,4.08,21.43,8.5,5.1,4.76,7.48,11.91,7.48,20.41,0,19.39-15,29.94-42.86,29.94-22.45,0-43.2-5.1-58.51-20.41l-30.62,30.62c23.81,24.15,51.71,32,88.45,32,50.69,0,89.81-26.53,89.81-73.48C2269.05,1075.87,2263.27,1058.18,2250.34,1045.93Z"/></g></g></svg>