<svg xmlns="http://www.w3.org/2000/svg" viewBox="0 0 2869.1 1971.44"><defs><style>.cls-1{fill:#fff;}.cls-2{fill:#f47a25;}.cls-3{fill:#231f20;}</style></defs><title>Asset 2</title><g id="Layer_2" data-name="Layer 2"><g id="Layer_1-2" data-name="Layer 1"><rect class="cls-1" width="2869.1" height="1971.44"/><path class="cls-2" d="M989.33,995.74"/><rect class="cls-3" x="517.98" y="742.58" width="18.18" height="194.73"/><path class="cls-3" d="M766,858.84s-7.64-15.88-13.85-27.09l-51.51-89.16H682V937.31h17.1v-127c0-14.93-.43-30.08-1.3-44.37h0l15.37,29.22,51.29,89.38H783.1V667.21H766Z"/><path class="cls-3" d="M964.68,742.58l-2.31-.07H846.15v14.3h83V884.55h36.36c42.85,0,66.23-26.4,66.23-71.64C1031.77,767.9,1008.4,742.58,964.68,742.58Zm-1.3,127.26h-16V757.3h16c33.33,0,49.78,19.91,49.78,55.62C1013.16,848.84,996.71,869.84,963.38,869.84Z"/><polygon class="cls-3" points="1162.32 884.55 1246.29 884.55 1246.29 869.19 1180.5 869.19 1180.5 817.68 1234.17 817.68 1234.17 802.31 1180.5 802.31 1180.5 757.73 1319.5 757.73 1319.5 742.58 1162.32 742.58 1162.32 884.55"/><polygon class="cls-3" points="1409.22 742.58 1391.04 742.58 1391.04 884.55 1546.49 884.55 1546.49 869.19 1409.22 869.19 1409.22 742.58"/><path class="cls-3" d="M1866.52,843c0-19.48-12.12-30.73-32.89-34v-.87c16.88-4.33,24.89-16.88,24.89-30.95,0-24.89-20.12-34.62-48.91-34.62h-42.2V802h-74.57v13.16h74.57v69.43h45.45C1844.45,884.55,1866.52,870.92,1866.52,843Zm-80.94-86.14h21.86c21.86,0,33.33,6.49,33.33,21.86,0,12.49-6.49,20.43-21,23.24h-34.18Zm24.67,113.4h-24.67V816.6h24.67c24.89,0,38.52,8,38.52,25.54C1848.78,861.39,1834.5,870.27,1810.26,870.27Z"/><polygon class="cls-3" points="2019.97 667.21 2001.79 667.21 2001.79 884.55 2119.56 884.55 2119.56 869.19 2019.97 869.19 2019.97 667.21"/><polygon class="cls-3" points="2232.28 869.19 2232.28 817.68 2285.96 817.68 2285.96 802.31 2232.28 802.31 2232.28 757.73 2295.91 757.73 2295.91 742.58 2214.1 742.58 2214.1 884.55 2365.91 884.55 2365.91 869.19 2232.28 869.19"/><rect class="cls-3" x="1603.35" y="702.23" width="18.18" height="204.21"/><path class="cls-3" d="M912.62,1066.77H877.13v128.41H833.18v13.13l64.93.73-.31-.3h15.69c42.85,0,66.22-26.4,66.22-71.64C979.71,1092.09,956.34,1066.77,912.62,1066.77ZM911.32,1194h-16V1081.48h16c33.33,0,49.78,19.91,49.78,55.62C961.1,1173,944.65,1194,911.32,1194Z"/><path class="cls-3" d="M1144.85,1066.77l-78.19,217.34H1085l43.79-118.66h51.73l13.63,43.28h19l-48-142ZM1176,1151h-42.64l6.93-21.64c5-15.8,9.52-31.38,14.07-47.83h.86c4.55,16.45,9.09,32,14.07,47.83Z"/><path class="cls-3" d="M1424.25,1140.13c0,14.93.65,30.95,1.51,45.23h0l-15.36-29.44-51.51-89.16h-18.61v217.34h17.1V1134.5c0-14.93-.44-30.08-1.3-44.37h0l15.37,29.22,51.29,89.38h18.61V991.39h-17.1Z"/><path class="cls-3" d="M1642,1195.53c-27.05,0-44.15-22.51-44.15-58.22,0-35.28,18-57.35,45-57.35,11.69,0,20.78,5.19,28.35,13.2l10.17-11.47a52.44,52.44,0,0,0-38.74-17.53c-36.36,0-63.41,27.92-63.41,73.58,0,46.31,26.62,73.58,62.33,73.58,18,0,32-7.57,43.07-20.56l-10.17-11C1665.36,1189.91,1655.4,1195.53,1642,1195.53Z"/><polygon class="cls-3" points="1818.15 1208.74 1902.13 1208.74 1902.13 1193.37 1836.33 1193.37 1836.33 1141.86 1890.01 1141.86 1890.01 1126.5 1836.33 1126.5 1836.33 1081.91 2050.7 1081.91 2050.7 1066.77 1818.15 1066.77 1818.15 1208.74"/></g></g></svg>