<?xml version="1.0" encoding="utf-8"?>
<!-- Generator: Adobe Illustrator 22.1.0, SVG Export Plug-In . SVG Version: 6.00 Build 0)  -->
<svg version="1.1" id="Layer_1" xmlns="http://www.w3.org/2000/svg" xmlns:xlink="http://www.w3.org/1999/xlink" x="0px" y="0px"
	 viewBox="0 0 2872 1968" style="enable-background:new 0 0 2872 1968;" xml:space="preserve">
<style type="text/css">
	.st0{fill:#D855FF;}
	.st1{fill:#00E2FF;}
	.st2{fill:#FF9F02;}
	.st3{fill:#FFDC03;}
	.st4{fill:#32EE85;}
	.st5{fill:#FF351D;}
</style>
<g>
	<title>Asset 12</title>
	<g>
		<path class="st0" d="M2310,1067.4c6.7,9.3,0.1,24-11.4,24h-239.2c-12.7,0-22.9-10.3-22.9-22.9l0-197.1c0-11.7,9.5-21.2,21.2-21.2
			H2211c42.4,0,77.3,34.7,77.3,76.6c0,28.4-9.6,47.8-24.4,61.5c-3.1,2.9-3.8,7.5-1.5,11L2310,1067.4z"/>
		<g>
			<path class="st1" d="M2013.4,1050c0-10.9-8.8-19.7-19.7-19.7l-32.3,0c-7.9,0-14.2-6.6-13.9-14.5c0.3-7.5,6.8-13.3,14.3-13.3
				l31.9,0c10.9,0,19.7-8.8,19.7-19.7l0-16.9c0-10.9-8.8-19.7-19.7-19.7l-31.9,0c-7.5,0-14-5.8-14.3-13.3c-0.4-8,6-14.5,13.9-14.5
				l32.3,0c10.9,0,19.7-8.8,19.7-19.7l0-29.7c0-10.3-8.3-18.6-18.6-18.6H1781c-10.3,0-18.6,8.3-18.6,18.6l0,203.4
				c0,10.6,8.6,19.1,19.1,19.1h212.7c10.6,0,19.1-8.6,19.1-19.1V1050z"/>
		</g>
		<path class="st2" d="M1008.8,858.4l123.1,205.4c7.3,12.1-1.5,27.5-15.6,27.5H870.5c-14.1,0-22.8-15.4-15.6-27.5l122.7-205.4
			C984.6,846.6,1001.7,846.6,1008.8,858.4z"/>
		<path class="st3" d="M1415.2,1091.3h-240.1c-10.2,0-18.4-8.3-18.4-18.4V866.2c0-14.8,17.9-22.2,28.3-11.7l92.7,93.3
			c9.2,9.3,24.3,9.3,33.6,0.1l94.1-93.7c10.4-10.4,28.3-3,28.3,11.7v206.9C1433.6,1083,1425.4,1091.3,1415.2,1091.3z"/>
		<path class="st4" d="M1718.7,1091.3h-240.1c-10.2,0-18.4-8.3-18.4-18.4V866.2c0-14.8,17.9-22.2,28.3-11.7l92.7,93.3
			c9.2,9.3,24.3,9.3,33.6,0.1l94.1-93.7c10.4-10.4,28.3-3,28.3,11.7v206.9C1737.2,1083,1728.9,1091.3,1718.7,1091.3z"/>
	</g>
	<path class="st5" d="M849.4,862.6v-43.4c0-10.2-8.3-18.4-18.4-18.4h-4.8c0,0-0.1,0-0.1,0l-81.1,0c0,0-0.1,0-0.1,0h-5.8
		c-9.7,0-17.5,7.8-17.5,17.5v109.1h0l-0.1,73.4v0c-0.7,43.3-36.4,77.9-79.7,77.3c-34.4-0.5-61.9-29-61.4-63.4c0.1-7.5,1.9-14.6,5-21
		c-2.9,27.6,15.8,53.2,43.6,58.4c20.9,3.9,41.2-4.9,53.1-20.9c6.9-8.5,11.1-19.2,11.3-31c0.6-39.6-31.1-72.4-70.8-73
		c-55.4-0.9-101.2,43.5-102.1,99c-0.5,29.2,8.1,57.3,24.7,81.2c25.5,36.7,67.3,59,111.9,59.7c20.1,0.3,39.9-2.5,58.8-8.3
		c49.4-15.2,91-50.6,114.1-97c12.6-25.4,19.2-52.8,19.7-81.3L849.4,862.6z"/>
</g>
</svg>
