<?xml version="1.0" encoding="utf-8"?>
<!-- Generator: Adobe Illustrator 22.1.0, SVG Export Plug-In . SVG Version: 6.00 Build 0)  -->
<svg version="1.1" id="Layer_1" xmlns="http://www.w3.org/2000/svg" xmlns:xlink="http://www.w3.org/1999/xlink" x="0px" y="0px"
	 viewBox="0 0 2872 1968" style="enable-background:new 0 0 2872 1968;" xml:space="preserve">
<style type="text/css">
	.st0{fill:#FFFFFF;}
</style>
<title>Asset 12</title>
<path d="M1408.3,1086.5c0,0,25.1,36.7,13.5,85c0,0,5.8,17.4,25.1,1.9s-11.6-102.4-11.6-102.4L1408.3,1086.5z"/>
<g>
	<path d="M616.6,1428.9l14.5-85.2H653l17.1,45.4l17-45.4h21.9l14.5,85.2h-22l-7.3-49l-20.1,49h-8.8l-19.1-49l-7.3,49H616.6z"/>
	<path d="M859.7,1414.1H828l-5.1,14.8h-23.6l32.4-85.2h24.2l32.4,85.2h-23.6L859.7,1414.1z M853.8,1397.3l-9.9-28.4l-9.9,28.4H853.8
		z"/>
	<path d="M968.8,1428.9l14.5-85.2h21.9l17.1,45.4l17-45.4h21.9l14.5,85.2h-22l-7.3-49l-20.1,49h-8.8l-19.1-49l-7.3,49H968.8z"/>
	<path d="M1214.1,1414.1h-31.6l-5.1,14.8h-23.6l32.4-85.2h24.2l32.4,85.2h-23.6L1214.1,1414.1z M1208.3,1397.3l-9.9-28.4l-9.9,28.4
		H1208.3z"/>
	<path d="M1322.6,1428.9v-85.2h22.1l40.9,52.1v-52.1h22v85.2h-22l-40.9-52.1v52.1H1322.6z"/>
	<path d="M1617.2,1343.7v66.4h26.6v18.8h-48.7v-85.2H1617.2z"/>
	<path d="M1783.2,1414.1h-31.6l-5.1,14.8h-23.6l32.4-85.2h24.2l32.4,85.2h-23.6L1783.2,1414.1z M1777.3,1397.3l-9.9-28.4l-9.9,28.4
		H1777.3z"/>
	<path d="M1916.1,1428.9h-22.1v-85.2h35.3c9.6,0,16.9,2.5,22,7.5c5.1,5,7.6,12,7.6,21c0,9-2.5,16-7.6,21c-5.1,5-12.4,7.5-22,7.5
		h-13.1V1428.9z M1916.1,1382.8h7.3c8.1,0,12.2-3.5,12.2-10.6s-4.1-10.6-12.2-10.6h-7.3V1382.8z"/>
	<path d="M2067.3,1343.7v85.2h-22.1v-85.2H2067.3z"/>
	<path d="M2157.5,1428.9v-85.2h22.1l40.9,52.1v-52.1h22v85.2h-22l-40.9-52.1v52.1H2157.5z"/>
</g>
<path d="M1482.8,692.7c0,203.1-32.6,367.8-72.7,367.8c-40.2,0-72.7-164.7-72.7-367.8s72.7-367.8,72.7-367.8
	S1482.8,489.6,1482.8,692.7z"/>
<g>
	<path d="M1201.6,857c91.4,151.5,166.9,219.4,196.9,201.3c30-18.1,3-115.3-88.4-266.8C1218.6,640.1,1090.3,550,1090.3,550
		S1110.2,705.5,1201.6,857z"/>
	<path d="M1618.5,857c-91.4,151.5-165.7,224.2-195.7,206.2c-30-18.1-4.2-120.2,87.2-271.6S1729.8,550,1729.8,550
		S1710,705.5,1618.5,857z"/>
</g>
<g>
	<g>
		<path d="M1321.3,1108c82.6-23.7,137.8-60.1,133.1-76.4c-4.7-16.3-75.2-19.6-157.8,4.2c-82.6,23.7-141.3,81.8-141.3,81.8
			S1238.7,1131.8,1321.3,1108z"/>
	</g>
	<g>
		<path d="M1506.7,1104.1c-82.6-23.7-145.7-56.2-141-72.6c4.7-16.3,75.5-10.3,158.1,13.4c82.6,23.7,141,72.6,141,72.6
			S1589.3,1127.9,1506.7,1104.1z"/>
	</g>
</g>
<g>
	<g>
		<path d="M1392,996.9c-36.9-20-82.7-40.9-133.2-60.1c-134.4-51.1-261.6-44.4-261.6-44.4s90.6,89.6,225,140.7
			c35.8,13.6,70.5,25,102.1,33.9"/>
	</g>
	<g>
		<path d="M1428,996.1c37-19.9,82.8-40.6,133.4-59.6c134.6-50.6,261.8-43.4,261.8-43.4s-91,89.2-225.6,139.8
			c-35.9,13.5-70.5,24.8-102.3,33.6"/>
	</g>
</g>
<path class="st0" d="M1455.9,688c0.9,61.6-1.9,137.2-4.9,186c-5.6,91.2-27,155.5-38.5,155.5c-11.1,0-34.1-31.1-39-120.2
	c-1.9-34.9-9.1-137.9-9.1-203.1c0-176.7,46.4-306.8,46.4-306.8S1453.4,523.4,1455.9,688z"/>
<path class="st0" d="M1541.9,967.2c4.5,32,1.5,71.3-21.3,88.7c-16,12.2-63.3,18.6-86.7,14.6c-51.8-8.8-95.1-42.6-95.1-95.1
	s33.1-100.2,85.4-104.9C1504.6,863.1,1534.6,915.1,1541.9,967.2z"/>
<path class="st0" d="M1481.5,894.8c0,0,28.2-50.7,80.5-126.3s128.1-157.4,128.1-157.4s-33.1,107.9-78.7,197.6
	c-45.6,89.7-88.4,136-88.4,136L1481.5,894.8z"/>
<path d="M1451.9,869.3c0,0,42.2,2.7,63.8,31.6c18.6,24.9,14.6-22.9-25.6-36.6C1457.8,853.4,1451.9,869.3,1451.9,869.3z"/>
<path d="M1437.7,958.4c4.3,15.1-9.5,21.3-24.6,25.6c-15.1,4.3-25.7,5-30-10c-4.3-15.1,4.4-30.8,19.5-35.1
	C1417.7,934.6,1433.4,943.3,1437.7,958.4z"/>
<path class="st0" d="M1405.3,1045.4c0,0-36.6,7.3-128.1,38.4c0,0,43.9-26.5,102.5-44.8L1405.3,1045.4z"/>
<path class="st0" d="M1360.6,1020.2"/>
<path class="st0" d="M1351.2,1004.6c0,0-91.2-27.4-151.6-36.6c0,0,124.2,39.2,159.8,56.6L1351.2,1004.6z"/>
<path class="st0" d="M1375.5,984.7c0,0-38-71.6-112.5-148.5c0,0,86.7,119.2,100.4,174.1L1375.5,984.7z"/>
<path d="M1664.8,1117.5c0,0-122.4,18.8-250.5-32.4c0,0-75.1,52.6-259,32.4l194.3-33.6l57.3-14.6l56.1,4.9L1664.8,1117.5z"/>
<path class="st0" d="M1538.2,993.3c0,0,37.5-19,98-30.7c0,0-83.9,34.4-100.2,45.8L1538.2,993.3z"/>
<path class="st0" d="M1500.9,1063.2c0,0,34.2,8.5,57.3,23.2c0,0-59.8-19.5-76.9-18.3L1500.9,1063.2z"/>
<path d="M1427.5,1082.2c0,0,69.5-13.2,54.4-40.1c-12.5-22.3,1-20.6,10.2-20.8c28.7-0.8,15.3,18.2,7.1,30.9c-5.3,8.2-14,19.4-26,26
	C1445.8,1093.2,1427.5,1082.2,1427.5,1082.2z"/>
<path d="M1401.5,882.7c-2.9-227.2,5.6-363.1,11-313.7c4.8,44.2,13.2,256.5,12.3,302.8L1401.5,882.7z"/>
<circle class="st0" cx="1404.9" cy="961.2" r="7.4"/>
<path class="st0" d="M1497.5,1068.3c0,0,40.7-2.4,45.4-63.7C1547.7,943.2,1497.5,1068.3,1497.5,1068.3z"/>
</svg>
