<svg xmlns="http://www.w3.org/2000/svg" viewBox="0 0 2872 1968"><defs><style>.cls-1{fill:#fff;}.cls-2{fill:#231f20;}</style></defs><title>Asset 7</title><g id="Layer_2" data-name="Layer 2"><g id="Layer_1-2" data-name="Layer 1"><rect class="cls-1" width="2872" height="1968"/><polygon class="cls-2" points="2142.54 835.67 2110.69 803.25 2110.69 1002.49 586.28 1002.49 633.66 1034.34 2142.54 1034.34 2142.54 835.67"/><polygon class="cls-2" points="2180 873.82 2153.78 847.12 2153.78 1045.58 650.38 1045.58 689.4 1071.8 2180 1071.8 2180 873.82"/><polygon class="cls-2" points="2218.87 913.39 2196.86 890.98 2196.86 1088.66 714.49 1088.66 747.23 1110.67 2218.87 1110.67 2218.87 913.39"/><polygon class="cls-2" points="2105.07 797.53 2061.05 752.71 2061.05 953.14 512.85 953.14 577.91 996.87 2105.07 996.87 2105.07 797.53"/><polygon class="cls-2" points="2366.39 1063.57 2366.39 1258.18 966.72 1258.18 975.53 1264.09 2372 1264.09 2372 1069.28 2366.39 1063.57"/><polygon class="cls-2" points="2256.34 951.53 2238.54 933.41 2238.54 1130.33 776.5 1130.33 802.98 1148.13 2256.34 1148.13 2256.34 951.53"/><polygon class="cls-2" points="2293.8 989.67 2281.63 977.27 2281.63 1173.42 840.6 1173.42 858.72 1185.59 2293.8 1185.59 2293.8 989.67"/><polygon class="cls-2" points="2332.67 1029.24 2324.71 1021.13 2324.71 1216.5 904.71 1216.5 916.55 1224.46 2332.67 1224.46 2332.67 1029.24"/><path class="cls-2" d="M1808.26,794.2c-30.36,0-52,24.29-52,54.47v.38c0,30.18,22,54.85,52.38,54.85s52-24.29,52-54.47v-.38C1860.64,818.87,1838.63,794.2,1808.26,794.2Z"/><path class="cls-2" d="M2057.4,749.31H512V948.8H2057.4ZM648.58,825.14c0,28.66-23.91,43.46-52.19,43.46H564.12v46.88h-15V782.63h49.72c30,0,49.73,15.94,49.73,42.13Zm135.9,33.59c0,38.72-22.21,58.84-55.42,58.84-32.83,0-55.23-20.12-55.23-57.7V782.63h15v76.3c0,28.66,15.19,44.79,40.62,44.79,24.48,0,40-14.81,40-43.84V782.63h15Zm162.66,56.75h-15V807.87L883.74,879H883l-48.4-71V915.48H820V782.63h15.18l48.4,72.5,48.4-72.5h15.18Zm164.75,0h-15V807.87L1048.49,879h-.76l-48.4-71V915.48H984.72V782.63h15.18l48.4,72.5,48.4-72.5h15.18Zm134.57,0h-97V782.63h96v13.66h-81v45.36H1237v13.66h-72.5v46.5h82Zm120,0h-89.77V782.63h15v119h74.78Zm64.92.95H1418l-57.13-133.8h16.7l47.26,114.44,47.45-114.44h16.13Zm99.64-.95h-15V782.63h15Zm129.82-35.68c0,22.77-19,37.58-45.36,37.58-21.06,0-38.34-7-54.28-21.25l9.3-11c13.85,12.53,27.14,18.79,45.55,18.79,17.84,0,29.61-9.49,29.61-22.58v-.38c0-12.34-6.64-19.36-34.54-25.24-30.56-6.64-44.6-16.51-44.6-38.34V817c0-20.88,18.41-36.25,43.65-36.25,19.36,0,33.21,5.5,46.69,16.32l-8.73,11.57c-12.34-10.06-24.67-14.42-38.34-14.42-17.27,0-28.28,9.49-28.28,21.45V816c0,12.53,6.83,19.55,36.06,25.81,29.61,6.45,43.27,17.27,43.27,37.58Zm46.88,35.68h-15V782.63h15Zm168.53-66.43c0,36.63-27.52,68.71-67.95,68.71s-67.56-31.7-67.56-68.32v-.38c0-36.63,27.52-68.7,67.94-68.7s67.57,31.7,67.57,68.32C1876.4,848.86,1876.4,848.86,1876.2,849.05Zm144.06,66.43h-12l-85.79-108.94V915.48h-14.61V782.63h14l83.7,106.47V782.63h14.62Z"/><path class="cls-2" d="M597.72,796.48H564.12v58.46H597c22,0,36.44-11.77,36.44-29.23v-.38C633.4,806.35,619.16,796.48,597.72,796.48Z"/></g></g></svg>