<svg xmlns="http://www.w3.org/2000/svg" viewBox="0 0 2872 1968"><defs><style>.cls-1{fill:#fff;}.cls-2{fill:#27aae1;}.cls-3{fill:#ed1848;}</style></defs><title>Asset 15</title><g id="Layer_2" data-name="Layer 2"><g id="Layer_1-2" data-name="Layer 1"><rect class="cls-1" width="2872" height="1968"/><path class="cls-2" d="M874,733.22c-38.67-14.9-67.55-28.43-67.55-61,0-28,22.35-48,59.13-48,19.12,0,41.48,6.05,49.85,15.34a29,29,0,0,0-6.51,17.73c0,12.56,9.79,23.75,24.66,23.75,13.07,0,24.24-9.77,24.24-27,0-31.69-41-60.57-91.29-60.57-57.3,0-94.58,34.46-94.58,81.52,0,52.65,40.07,72.19,92.73,92.24,34.92,13.52,63.8,27.5,63.8,59.17,0,33.06-24.67,54-65.68,54-27.94,0-50.78-8.86-61-19.09,4.21-5.6,7.47-12.12,7.47-20.52,0-12.09-9.78-22.79-24.22-22.79-14,0-24.69,11.62-24.69,29.33,0,29.82,41.95,63.36,102,63.36,57.76,0,100.61-33.08,100.61-87.12C962.91,771.89,924.26,752.79,874,733.22Z"/><path class="cls-2" d="M1095.87,898.11l4.19-30.73c-11.19,6.51-25.62,12.11-37.26,12.11-12.11,0-19.58-3.28-23.28-10.25-2.35-4.19-3.26-8.87-3.26-15.38V735.56h61V707.12h-61V646.57l-31.7,12.58v48H967.76v28.44h36.81v123c0,10.7,1.39,20,5.15,27.48,7.9,15.38,22.8,23.3,43.78,23.3A86.66,86.66,0,0,0,1095.87,898.11Z"/><path class="cls-2" d="M1194.74,792.37c-44.26,0-76.41,23.76-76.41,60.09,0,34,27.5,56.85,65.7,56.85,27,0,52.64-13.07,68.94-28.9v25.17h62v-28h-32.13V769.55c0-16.76-4.66-31.67-14.91-42.86-13-14.43-34.48-23.3-63.81-23.3-47.51,0-73.61,23.3-73.61,46.14,0,12.09,8.39,21.41,20.48,21.41,12.59,0,21-8.83,21-20.48a30.44,30.44,0,0,0-2.79-11.66c6.53-4.19,14.9-8.39,30.76-8.39,20,0,34.46,6.06,43.31,15.86,5.6,7,8.84,16.75,8.84,27.92v27.52C1241.79,798,1216.16,792.37,1194.74,792.37Zm57.3,63.36c-15.37,15.38-35.87,27.49-59.63,27.49-27,0-41.48-14-41.48-33.07,0-20.5,15.85-35.4,47.54-35.4,19.11,0,38.67,3.73,53.57,7.92Z"/><path class="cls-2" d="M1440.73,877.63h-37.27V778.39c9.79-20,28-37.71,42.86-41.93a25.11,25.11,0,0,0,23.78,16.77c12.55,0,22.32-11.17,22.32-23.73,0-13.52-10.23-26.1-29.79-26.1-21.44,0-45.2,21.45-60.57,48.91V707.12h-62.44v28.44h31.67V877.63h-31.67v28h101.1Z"/><path class="cls-2" d="M1547.81,858.54c0,10.7,1.39,20,5.14,27.48,7.88,15.38,22.81,23.3,43.76,23.3a86.54,86.54,0,0,0,42.38-11.2l4.21-30.73c-11.19,6.51-25.62,12.11-37.28,12.11-12.09,0-19.55-3.28-23.29-10.25-2.32-4.19-3.26-8.87-3.26-15.38V735.56h61V707.12h-61V646.57l-31.67,12.58v48H1511v28.44h36.8Z"/><path class="cls-2" d="M1702.45,842.22c0,15.84,3.26,29.82,9.33,40.53,9.77,16.79,27,26.56,53.11,26.56,28.41,0,55.41-18.67,74.05-40.54v36.81h62.89v-28h-31.68V707.12h-64.76v28.44H1838v109c-18.64,19.1-40.51,34.93-65.21,34.93-16.3,0-26.54-5.14-32.61-16.76q-5.61-9.79-5.59-26.56V707.12h-63.81v28.44h31.67Z"/><path class="cls-2" d="M2030.14,703.4c-29.83,0-49.85,13.52-66.64,32.16V707.12h-62.88v28.44h31.67V968.94h-31.67v28h102v-28h-38.2V886.47a95.33,95.33,0,0,0,61.51,22.84c59.14,0,97.81-48,97.81-103.89C2123.74,744.42,2082.3,703.4,2030.14,703.4Zm-6.09,177.48c-25.61,0-44.69-9.32-59.63-21.9v-97.8c16.32-16.76,35.41-29.37,61.06-29.37,37.25,0,65.21,29.37,64.73,74.09C2089.73,849.2,2062.74,880.87,2024.05,880.87Z"/><path class="cls-3" d="M1414.66,1003.7s-110.54,22.86-196.56,22.86-165.53-28.31-165.53-28.31l.57,334.22c29.21,8.64,106.33,32,168.23,32,98,0,257.57-35.39,257.57-35.39s110.53-22.89,196.56-22.89,147,21.8,165.53,28.88V997.68s-70.78-29.38-168.8-29.38S1414.66,1003.7,1414.66,1003.7Zm-89.43,295.4s-29.82,3.68-42.91,4.89c0,0-98-124.56-110.25-144.14v144.56s-29-2.45-49.84-6.94l.43-227.08s29,5.73,46.55,6.54l106.58,140.5V1076.51a451.1,451.1,0,0,0,49.43-5.7Zm168.64-121.3v91.09l-49.95,8.75v-89.8l-87.26-121.53s21.22-4.07,58-10.21L1469,1137l55.52-101.73s30.63-4.88,56.36-8.15Zm210.75-160.09c36.77,2.46,69.44,23.68,87,48.21l-31.86,29.8s-25.33-33.07-64.13-32.26-57.59,44.5-59.22,58-4.08,46.54,25.73,71.45,78.42,12.25,98.83-6.12l31.86,38.79s-32.66,35.54-102.93,26.55-120.06-60.45-103.72-138.43S1667.87,1015.26,1704.62,1017.71Z"/></g></g></svg>