<svg xmlns="http://www.w3.org/2000/svg" viewBox="0 0 2872 1968"><defs><style>.cls-1{fill:#fff;}.cls-2{fill:#191919;}</style></defs><title>Asset 14</title><g id="Layer_2" data-name="Layer 2"><g id="Layer_1-2" data-name="Layer 1"><rect class="cls-1" width="2872" height="1968"/><path class="cls-2" d="M980.75,994.93q11.15-12,30.15-12t30.15,12q11.15,12,11.15,37.58h84.26a161.48,161.48,0,0,0-8.68-53.69A123,123,0,0,0,1103,936.27a110.71,110.71,0,0,0-39.65-27.67q-23.54-9.91-52.45-9.91-38.84,0-66.91,16.52T901,959q-9.1,16.54-12.39,38a310,310,0,0,0-3.3,47.08v46a309.94,309.94,0,0,0,3.3,47.09q3.29,21.48,12.39,38,14.87,27.26,43,43.78t66.91,16.52q28.9,0,52-9.91a118.66,118.66,0,0,0,39.65-27.26,109.69,109.69,0,0,0,25.19-39.65,140,140,0,0,0,8.68-49.57H1052.2a75.69,75.69,0,0,1-9.5,28.09q-7.86,14-31.8,14-19,0-30.15-10.74t-11.15-30.57v-79.05Q969.6,1006.91,980.75,994.93Z"/><path class="cls-2" d="M1390.35,959q-14.87-27.26-43-43.78t-66.91-16.52q-38.83,0-66.91,16.52t-43,43.78q-9.1,16.54-12.39,38a310.59,310.59,0,0,0-3.3,47.08v46a310.53,310.53,0,0,0,3.3,47.09q3.29,21.48,12.39,38,14.87,27.26,43,43.78t66.91,16.52q38.82,0,66.91-16.52t43-43.78q9.08-16.51,12.39-38a311.68,311.68,0,0,0,3.3-47.09v-46a311.71,311.71,0,0,0-3.3-47.08Q1399.43,975.51,1390.35,959Zm-68.56,144.32q0,24-11.15,35.94t-30.15,12q-19,0-30.15-12t-11.15-35.94v-72.45q0-23.95,11.15-35.93t30.15-12q19,0,30.15,12t11.15,35.93Z"/><path class="cls-2" d="M1596.07,1096.84q0,28.09-9.09,43t-33,14.87q-19.82,0-30.56-13.22t-10.74-36.35v-198h-84.26v229.4q0,28.09,7.43,47.5t19.82,31.8a72.56,72.56,0,0,0,28.08,17.76,96.58,96.58,0,0,0,31.39,5.37q28.91,0,47.5-12.8a119.76,119.76,0,0,0,31.8-32.63h1.65V1234h84.26V907.09h-84.26Z"/><path class="cls-2" d="M1946.63,938.34q-21.49-39.65-73.52-39.65-31.4,0-47.91,12.39A207.18,207.18,0,0,0,1793,941.64V905.88h-84.26v462H1793V1192.52h1.65q14,20.66,33.45,31.8t44.2,11.15q30.55,0,47.5-10.74a90,90,0,0,0,27.67-27.26q8.25-13.2,10.74-34.69t2.48-66.92v-67.49q0-34.69-3.3-55.34T1946.63,938.34Zm-70.22,163.32q0,19.82-8.67,34.7t-32.63,14.87q-18.17,0-30.15-12.8t-12-32.64V1035q0-23.11,11.56-37.58T1835.11,983q21.47,0,31.39,15.69t9.91,41.3Z"/><path class="cls-2" d="M2013.81,1148.81h-.49a41.49,41.49,0,0,0-41.49,41.49v4.12a41.49,41.49,0,0,0,41.49,41.49h.49a41.49,41.49,0,0,0,41.49-41.49v-4.12A41.49,41.49,0,0,0,2013.81,1148.81Z"/><path class="cls-2" d="M907.51,817.6a68.05,68.05,0,0,0,3.1,19.79,52.28,52.28,0,0,0,9.78,18.36,50.15,50.15,0,0,0,17.88,13.35q11.2,5.26,27.9,5.25h21.3V828.58q-8.12,0-13.83-.48a19.44,19.44,0,0,1-9.3-2.86,13.67,13.67,0,0,1-5.25-7.16q-1.68-4.76-1.67-13.35v-96.3h30V670.28h-30V611.92H907.51v58.36H883.19v38.15h24.32Z"/><path class="cls-2" d="M1058.45,749.44q0-16.2,5.25-24.8t19.07-8.58q11.45,0,17.65,7.63t6.2,21V874.36h48.64V726.56q0-16.21-4.29-27.42a51.71,51.71,0,0,0-11.44-18.36,42.07,42.07,0,0,0-16.21-10.25,55.82,55.82,0,0,0-18.12-3.1q-16.7,0-27.42,7.39a69.17,69.17,0,0,0-18.36,18.83h-1V597h-51.19v277.4h51.19Z"/><path class="cls-2" d="M1182.44,840.52a65.2,65.2,0,0,0,24.8,25.27q16.21,9.55,38.63,9.54a75.58,75.58,0,0,0,30-5.72,68.53,68.53,0,0,0,22.89-15.74A63.35,63.35,0,0,0,1313.34,831a80.81,80.81,0,0,0,5-28.62H1269.7a43.74,43.74,0,0,1-5.48,16.22q-4.54,8.11-18.36,8.11-11,0-17.4-6.2T1222,802.85V783.3h96.33V740.89a86.19,86.19,0,0,0-5-29.56,71.86,71.86,0,0,0-14.3-24.09,63.93,63.93,0,0,0-22.89-16,77.31,77.31,0,0,0-30.28-5.72q-22.42,0-38.63,9.54a64.13,64.13,0,0,0-32,47.21,179.29,179.29,0,0,0-1.91,27.18V791.4a179.29,179.29,0,0,0,1.91,27.19A65.68,65.68,0,0,0,1182.44,840.52ZM1222,741.84q0-13.82,6.44-20.74t17.4-6.91q11,0,17.41,6.91t6.44,20.74v5H1222Z"/></g></g></svg>