<svg xmlns="http://www.w3.org/2000/svg" viewBox="0 0 645.52 242.14"><defs><style>.cls-1{fill:#297abc;}</style></defs><title>Asset 1</title><g id="Layer_2" data-name="Layer 2"><g id="Layer_1-2" data-name="Layer 1"><path class="cls-1" d="M181.07,20.8,164.52,0l-.2,0L24.85,76.29,0,233.36l0,.2,25.16,8.58L160,171.45ZM135.82,154.47,8.93,223,31.58,81l126-69.1Z"/><polygon class="cls-1" points="202.61 95.22 182.37 69.89 167.98 177.09 71.52 226.65 102.51 237.35 189.34 192.43 202.61 95.22"/><polygon class="cls-1" points="203.09 141.37 196.71 197.33 146.15 222.22 172.24 231.4 214.93 211 221.59 164.06 203.09 141.37"/><polygon class="cls-1" points="76.52 112.68 120.79 88.16 125.57 57.28 53.13 96.21 40.84 177.6 68.33 162.66 76.52 112.68"/><polygon class="cls-1" points="78.38 154.13 109.72 136.06 116.17 100.48 83.93 117.9 78.38 154.13"/><path class="cls-1" d="M347.79,71.49a38.5,38.5,0,0,0-13.66-4.22,110.25,110.25,0,0,0-15.62-.89H273.45L256.55,186.9h49.5a81.88,81.88,0,0,0,16.39-1.76,52.71,52.71,0,0,0,15.36-5.66,39.29,39.29,0,0,0,11.95-10.34,33.3,33.3,0,0,0,6.32-16,29.19,29.19,0,0,0-.34-10.93,23.56,23.56,0,0,0-4.1-9,22.83,22.83,0,0,0-7.37-6.32A27.47,27.47,0,0,0,334,123.64v-.34a34.5,34.5,0,0,0,16.42-9.64,28.61,28.61,0,0,0,8.08-17q1.36-9.9-1.72-15.87A22.11,22.11,0,0,0,347.79,71.49Zm-17.84,78.6a13.85,13.85,0,0,1-2.56,6.66,17.66,17.66,0,0,1-4.78,4.44,19.31,19.31,0,0,1-6.06,3c-2.22.46-4.35,1.24-6.4,1.24h-23.9l3.93-28.7h20.14a50.7,50.7,0,0,1,6.91.56,25.1,25.1,0,0,1,6.74,1.9,10.75,10.75,0,0,1,4.78,4A10.28,10.28,0,0,1,329.95,150.09Zm1.19-49a13.63,13.63,0,0,1-6.74,10.24,21,21,0,0,1-5.72,2.68,29.14,29.14,0,0,1-6.14,1.14H293.25l3.58-27.26h18.09a34.38,34.38,0,0,1,6.23.88,18,18,0,0,1,5.55,2.11,9.4,9.4,0,0,1,3.67,3.91A10.59,10.59,0,0,1,331.14,101.1Z"/><polygon class="cls-1" points="360.84 186.9 386.44 186.9 398.05 103.69 372.45 103.69 360.84 186.9"/><path class="cls-1" d="M447.55,125.21h22.53l2.9-21.52H450.45l3.41-24.39h-25.6l-3.41,24.39H408.46l-2.9,21.52h16.39l-5.63,39a25.06,25.06,0,0,0,.77,11.38,16.32,16.32,0,0,0,5.29,7.66,23,23,0,0,0,9,4.3,47.2,47.2,0,0,0,11.78,1.34,84.18,84.18,0,0,0,9.13-.53,41.61,41.61,0,0,0,9.13-2.06l2.9-21.34a10.1,10.1,0,0,1-5.21,2,44.09,44.09,0,0,1-5.38.43,15,15,0,0,1-6.4-1.11,6.48,6.48,0,0,1-3.24-3.16,11.57,11.57,0,0,1-.94-4.86,36.91,36.91,0,0,1,.51-5.79Z"/><path class="cls-1" d="M543.65,161.53q1-7.85-1.45-12.54a18.92,18.92,0,0,0-6.91-7.43,33.35,33.35,0,0,0-9.82-4l-10-2.39a40.09,40.09,0,0,1-7.68-2.56q-3.07-1.45-2.56-4.52a6.43,6.43,0,0,1,3.76-5.29,15,15,0,0,1,6.49-1.54q9.38,0,14,7l17.75-15.53a25.61,25.61,0,0,0-13-8.53A56.56,56.56,0,0,0,518,101.79a53.36,53.36,0,0,0-13,1.62,40.15,40.15,0,0,0-11.86,5,32.44,32.44,0,0,0-9.13,8.7,28.18,28.18,0,0,0-4.78,12.63q-1.2,7.85,1.37,12.55a18.09,18.09,0,0,0,7.08,7.25,37.66,37.66,0,0,0,9.9,3.84l10.07,2.39a31.58,31.58,0,0,1,7.68,2.73,4.35,4.35,0,0,1,2.47,4.86q-.51,3.42-4.27,4.69a25.25,25.25,0,0,1-8.19,1.28,19.41,19.41,0,0,1-9.82-2.3,22,22,0,0,1-7.08-6.74l-17.92,17.24a27.52,27.52,0,0,0,13.83,8.79,61.67,61.67,0,0,0,17.24,2.47,75.87,75.87,0,0,0,13.66-1.28,43.71,43.71,0,0,0,12.89-4.44,33.44,33.44,0,0,0,10.16-8.36A25.47,25.47,0,0,0,543.65,161.53Z"/><path class="cls-1" d="M619.24,103.68l-25.94,56H593l-13.66-56H551.64l24.58,83.71-2.56,4.82c-1.25,2.28-2.39,4.29-3.41,6a18.18,18.18,0,0,1-3.59,4.36,14,14,0,0,1-4.95,2.74,23.65,23.65,0,0,1-7.17.94,25.89,25.89,0,0,1-11.44-2.56l-6.31,21a55.49,55.49,0,0,0,18.6,3.07A53,53,0,0,0,570.51,226a28.35,28.35,0,0,0,10.07-5.29,33.76,33.76,0,0,0,7.26-8.62c2-3.41,4.21-7.42,6.49-11.85l51.21-96.51Z"/><polygon class="cls-1" points="374.5 90.77 400.1 90.77 403.82 66.38 378.22 66.38 374.5 90.77"/></g></g></svg>