<svg xmlns="http://www.w3.org/2000/svg" viewBox="0 0 1280.77 866.2"><defs><style>.cls-1{fill:#5d5e5e;}.cls-2{fill:#00aeef;}.cls-3{fill:#00a550;}.cls-4{fill:#fff200;}.cls-5{fill:#ec008c;}.cls-6{fill:#f6eb16;}.cls-7{fill:#080808;}.cls-8{fill:#060606;}.cls-10,.cls-9{fill:#0d0d0d;}.cls-9{fill-rule:evenodd;}.cls-11{fill:#030303;}.cls-12{fill:gray;}.cls-13{fill:#0a0a0a;}.cls-14{fill:#333;}.cls-15,.cls-17{fill:#b3b3b3;}.cls-16{fill:#171717;}.cls-17{stroke:#e6e6e6;}.cls-18{fill:#666;}.cls-19{fill:#1a1a1a;}.cls-20{fill:#141414;}.cls-21{fill:#d7de27;}.cls-22{fill:#404040;}</style></defs><title>Asset 4</title><g id="Layer_2" data-name="Layer 2"><g id="Layer_1-2" data-name="Layer 1"><rect class="cls-1" width="1280.77" height="866.2"/><path class="cls-2" d="M554.31,487.75c11.17,1.15,23.58,2.38,38.09,1.84,19.5-.53,39.07-9.85-30.65-14.47-4.19-.71-22.67-1.21-26.37-3.83-6.41-4.53-3-21.23-2.08-25.53.82,0,1.54-.08,2.14-.14,3.26-.35,5.33-1.58.34-1.59s-16.83-2.63-16.83-2.63c4.37,2.3-.15,2.76-.15,2.76a38.94,38.94,0,0,0,4.93,1.05c1.16,1.78-.56,4.35-1.08,6-.61,1.93,4.92,1.35,4-.31-.64-1.17-.45-3.9-.28-5.4,1.18.11,2.31.19,3.39.22.74,4.19-2,17.58-6.32,25.19-2,1.58-8,1.1-20.65.54-23.91-1.06-46-1.61-48,.82-1.53,1.86-.09,5.37,10.06,7.67,14.79,3.36,72.11,8.31,55,8.12-15-.16-27.72.14-7.66,3.12,12,1.79,39.32,6.81,17.41-3.25C529.58,488,503.67,482.52,554.31,487.75Z"/><path class="cls-3" d="M673,527s20.94,8,9.47,13.46-13.46-1-19.94,7-20.94,5.49-25.42,3Z"/><path class="cls-4" d="M689.84,528.45s25.87,1.17,44.25.51c13.31-.48,22-2.33,17.5-4.3-10.17-4.48-20.88-1.51-20.4-8.22.45-6.17,37.19-6.31-28.28-13.29-31.79-3.39-13.52.61-13.52.61Z"/><path class="cls-5" d="M548.54,512.49s-25.8-2.4-44.3-2c-13.4.31,7.47,6.5,11.74,9.46,9.68,6.7-17.53,5.34-9,10,14.23,7.81-14.9,6.94.06,16.91,3,2,11.39-.26,24.93,2,31.56,5.26,14.19-1,14.19-1Z"/><path class="cls-6" d="M491.8,491.85s-23.38-4.12-29.16-1.77c-6,2.42-3.21,4.35,8,8.47,8.86,3.27-2.24,8.32-17.45,6-6.48-1-16,0-17.95,3-11.53,17.29,44.37,6.48,53.34,9.65Z"/><path class="cls-7" d="M492.48,535.92s6.05,2.05,21.46-7.66h0l-.58-2.72-20.87,10.38"/><path class="cls-8" d="M680.22,366.77l.81-.27Zm1.14-.38Zm-.33.11.33-.11ZM807.47,433c-.78-29.29-16.4-25-16.4-25-1.84-2.1-7.92-1.2-11.71-.39l-9.77.78c0-.69-.73-1.43-1.68-2.09l.11,0c-4.61-5.35-11.56-6.4-18.51-3.8a54,54,0,0,1-8.44-.89c-6.15-1.17-12-2.93-12-2.93s-2.73-1.5-5.76-3.11a21.1,21.1,0,0,0-3.11-2.18,15.46,15.46,0,0,0-5.77-2s-3.57-10.32-8.88-12.3-13-3.83-16.5-3.63c-1.25-3.94-2.46-5.43-6.56-4.42l-2.31-4.22-4.41-4.22a11,11,0,0,1-2-4.21c1-19-10.57-20.11-10.57-20.11l-2.2-.16s0-.08,0-.11l2,.08c.39-17.38-8.4-16-8.4-16l-8.6.16c-1.52-3.76-8.8-4.6-12-4.79l.17-12.89-4.25-5.71L624,296.35c-5.43-37.07-34.16-62.06-79.78-59.75-37.25,1.89-46.27,48.55-46.27,48.55l-4.25,1.33c-.72-1.63-3.68-7.77-10.66-5.84,0,0-9.37-5.56-20.21,2.34-10.64,7.76-9.42,38.94,9.18,39.54v3.71l-1.56-.28a3.78,3.78,0,0,0-3.12,3.12c0,.34,0,2.42,0,5.79-3,22.54-7.37,103.6,5.79,142.58,1.73,7.48,4.43,14.11,8.66,16.84,0,0,2.44,1.67,6.56,4.38l-.31,7.73-1.17,25.78c4.19,3.46,6.83,3.35,8.49,1.83a6.61,6.61,0,0,0,1.35.15,13,13,0,0,0,5.78-.81c.89-.32,2-.76,3.21-1.28a107.4,107.4,0,0,0,12.16-5.58l-.14,6.67,69.71,39.64s4.49,1.56,7.42-.39,49-24.41,49-24.41h0c17.82-5.09,27.79-15.49,29.36-17.22,4.09,1.14,5,.76,5,.76,3.12,2.5,8.72,1.25,8.72,1.25l5,3.11c4.36,10,21.81,6.23,24.3-11.22s-5.61-18.07-13.09-19.31c-5-.84-9.5-5.07-11.88-7.74l10.09-33.54,3-1.45,9.53.22s6.72,6.16,15.24,6.71a15.09,15.09,0,0,0,2.63,3.55,23,23,0,0,0,19,6.15,9.1,9.1,0,0,1-2.37-.54l11.06.74C786.77,508.73,808.25,462.25,807.47,433ZM498.38,518.74l.62-13.08,10,7.48ZM646.3,323.47h0l.05.26Zm75.08,71.11a5.22,5.22,0,0,1,1.9,1Z"/><path class="cls-9" d="M608.83,309.48l-2.68-6.73-44.43-3.37s29.65,3.89,33.28,9,7.48,35.14,7.48,35.14v.38l4.65-3.37Z"/><path class="cls-10" d="M742.93,405.17s-7.35-3.65-10.77,0c0,0-4.48-4.22-6.05-1.06,0,0-4.21-4.21-5.78-2.1,0,0-2.76-3.69-5.92-3.17,0,0-10.38,2.12-17.74,16.31s-4.73,31,5.26,36.8a4.19,4.19,0,0,0,4.73-1.58s4.73,5.78,8.41,6.84,9.46,2.63,9.46,2.63S715.06,422,742.93,405.17Z"/><path class="cls-11" d="M584.36,541.17,588.72,348,472,326.23l-1.56-.28a3.78,3.78,0,0,0-3.12,3.12c0,.34,0,2.42,0,5.79-3,22.54-7.37,103.6,5.79,142.58,1.73,7.48,4.43,14.11,8.66,16.84,0,0,2.44,1.67,6.56,4.38l-.31,7.73-1.17,25.78c4.19,3.46,6.83,3.35,8.49,1.83a6.61,6.61,0,0,0,1.35.15,13,13,0,0,0,5.78-.81c.89-.32,2-.76,3.21-1.28a107.4,107.4,0,0,0,12.16-5.58l-.14,6.67,69.71,39.64s4.49,1.56,7.42-.39l.77-1.31C596.2,551.76,584.36,541.17,584.36,541.17Z"/><ellipse class="cls-12" cx="625.39" cy="379.17" rx="20.14" ry="15.51" transform="translate(170.47 951.82) rotate(-82.76)"/><polygon class="cls-11" points="591.22 544.91 578.75 546.15 518.01 514.38 515.83 529.33 587.17 568.79 591.22 544.91"/><path class="cls-10" d="M553.87,426.7s-.62,0-2.81,2.43-4.67,15.05.47,19.35a4.9,4.9,0,0,1-5.8-2.52c-.82-1.37-1.87-6-1.68-9.63.22-4.1,2.51-8.57,4.77-10C553.06,423.65,553.87,426.7,553.87,426.7Z"/><path class="cls-10" d="M499.55,417.91s10.37-2,10.57-15.25-14.44-18.71-23.18-12.4a18.84,18.84,0,0,1,8.54-4.47c5.14-1,12.8.1,16.67,7.52,7.52,14.44-2.24,27.65-12.81,27.86Z"/><path class="cls-13" d="M671,456.85a77,77,0,0,0-15.79-11.21c-7.47-3.73-38.23,24.28-17,48.49l22.43,6S634.83,471,671,456.85Z"/><path class="cls-13" d="M525.48,243.35s30.53-9.35,41.12,48l16.23,1.42S576,222.16,525.48,243.35Z"/><path class="cls-10" d="M631.09,325s-16.2,13.71-23.06-7.48c0,0,3.12-16.82-19.94-17.45l-90.34-10,6.23-4.36,110.28,10s17.45-.63,18.07,13.71S631.09,325,631.09,325Z"/><path class="cls-14" d="M576.58,544.91l11.43,5-.83,18.9-69-37.59L518,514.38l-4.77-2.49-.42,19.32L587,573.36s4.78,1.66,7.9-.42S647,547,647,547s-23.12,4-24.81-7.55l1-9.47Z"/><path class="cls-10" d="M588.27,453.44l-1.42-105.29L501.5,331.82s34.89,13.71,37.38,27.41,1.25,28.66,18.69,43.61,18.69,38.63,16.2,52.34S542.62,493.82,542.62,510s-44.86-7.48-44.86-7.48,73.52,48.6,87.23,41.12Z"/><path class="cls-15" d="M589.67,573.27"/><path class="cls-16" d="M553.87,534.2s-9.72-25.42,11.22-45.61,16.45-74.78,9-87.49,24.68-12.71-6.73-56.83L588.72,348l-.45,59.8L586,534.95S588.27,560.37,553.87,534.2Z"/><path class="cls-10" d="M682.49,371.18S676,348,647.29,349.89c-36.06,2.35-44.24,6.23-43,25.55.76,11.83,0,152,0,152l3.74-.62-.62-154.52s.46-5.63,2-8c2.62-4,7.95-9.67,20.45-8.23,16.2,1.87,18.07,23.06,12.46,51.72C642.31,407.84,651.34,369.93,682.49,371.18Z"/><path class="cls-17" d="M589.67,573.27"/><path class="cls-12" d="M620.8,298.26c8,.72,9.33,7.32,9.33,7.32l-.43,38.29c1.87.86,4.31-.86,4.31-.86l.43-39.15-4.16-5.6-6.6-2.73-17.94-1.44-107.44-9.45s-9.9,2-10.48,4,1.87,2.44,1.87,2.44,96.1,10.45,104.14,11.46,8,3.92,8,3.92l.38,42.87c4.16,2.15,6.51-.86,6.51-.86s.77-36.31.48-42.05-6.31-6.46-6.31-6.46L500.46,289.66s0-2.91,10.38-2.08S620.8,298.26,620.8,298.26Z"/><path class="cls-18" d="M630,343.61"/><path class="cls-18" d="M590.42,292.4l-5.39-.5s-4.09-56.66-45.53-54.79C539.5,237.12,580.27,224.32,590.42,292.4Z"/><path class="cls-18" d="M661.23,338.48s1.74-13.59-9.76-15.37-17.58-2.54-17.58-2.54l-.21-1.87,23.81,3s9.22-.85,8.8,17.64Z"/><path class="cls-18" d="M627.3,296.86c-2.23-9.21-12.44-45-37.72-51.84,0,0,27.15,13.38,32,50.1"/><polygon class="cls-12" points="498.39 331.84 485.74 328.1 591.45 346.79 587.19 524.37 586.88 524.37 585.84 350.32 498.39 331.84"/><ellipse class="cls-14" cx="627.26" cy="379.17" rx="20.14" ry="15.51" transform="translate(172.1 953.67) rotate(-82.76)"/><path class="cls-10" d="M618.19,377.16c-.81,9.27,1.21,16.11,8.31,19.35a9.45,9.45,0,0,0,4.22-.41c2.51-.81,5.58-2.9,7.5-8,2.81-7.5,3-21-4.18-25a9.49,9.49,0,0,0-4.75-1.17S619.35,363.89,618.19,377.16Z"/><path class="cls-19" d="M770.74,428s8.91,24.62-9.16,39.26c0,0,1.61,17.51,5.35,20.31s27.37,14.64,38.94-46.11c0,0,4.67-36.45-16.51-33C789.35,408.46,771.36,417.42,770.74,428Z"/><path class="cls-11" d="M630.73,396.1a9.45,9.45,0,0,1-4.22.41c-7.1-3.24-9.12-10.09-8.31-19.35,1.15-13.27,8.78-14.91,11.11-15.31s6.07.6,8.82,5.58c0,0-6.48-2.24-11,1.75a18.94,18.94,0,0,0-5.23,8.22C617.93,392.86,630.73,396.1,630.73,396.1Z"/><path class="cls-12" d="M807.63,433.38c-.83-31.15-17.44-26.58-17.44-26.58-2.91-3.32-15.79.42-15.79.42h-5.61c-.62-5-7.48-6.23-7.48-6.23s-24.92-3.32-32.4,39.26c-6.74,38.4,15.16,41.74,15.16,41.74l12.46.83C785.61,514,808.46,464.53,807.63,433.38ZM801.81,456c-13.5,45.9-33.44,30.53-33.44,30.53s-3.52-3.29-4.36-6.44c-2.52-9.46-7.11-32.4,13.29-62.31,0,0,9.14-11.21,18.69-7.69C803.39,412.85,808.34,433.84,801.81,456Z"/><path class="cls-14" d="M713.9,462.6s-16.14-1.18-21.13-9.27c-3.47-5.64-9.24-22.25,1.25-41.12,12.46-22.43,25.74-18.84,29.1-16.72,0,0-5.41-6.37-10.41-7s-12.63-1.42-20,4.47-23,21.08-17.36,48.56C680.05,464.35,703.93,468.83,713.9,462.6Z"/><ellipse class="cls-11" cx="570.71" cy="507.26" rx="7.14" ry="10" transform="translate(-101.02 144.21) rotate(-13.24)"/><path class="cls-14" d="M583.44,532.45s1.56,14-8.41,10.9S488,497.5,488,497.5l-.42,4.15L571,545.53s19.63,7.79,18.69-9.35,1.55-172,1.55-172Z"/><path class="cls-14" d="M689,375.12c7,.24,16.51,1.56,17.44,4.36A23.82,23.82,0,0,0,689,378.24c-8.92,2.87-23.1,10.76-27.73,26.48-7.19,24.42-4.37,39.46-3.17,42.15a28,28,0,0,0-23.58,18.9c-6.27,17.91,1.49,26.26,3.58,28.35s1.79,6.86-1.19,15.22-15.22,44.17,5.07,37.9,28.65-16.42,28.65-16.42l2.09.3s-11.64,13.73-34,18.8-17.61-19.4-15.22-29.25,9.62-23.49,6.25-26.67c-5.44-5.14-15-42.76,17.32-51.81C647.1,442.19,642.31,373.57,689,375.12Z"/><ellipse class="cls-12" cx="663.91" cy="477.62" rx="22.78" ry="15.41" transform="translate(94.41 1064.62) rotate(-81.6)"/><ellipse cx="665.84" cy="478.36" rx="18.28" ry="12.37" transform="translate(95.25 1067.08) rotate(-81.59)"/><ellipse class="cls-18" cx="703.37" cy="523.72" rx="14.41" ry="9.75" transform="translate(37.53 1094.4) rotate(-77.27)"/><path class="cls-12" d="M700.44,537.78c-5.26-1.19-8.09-8.44-6.34-16.21s7.43-13.1,12.69-11.91a7.72,7.72,0,0,1,4.77,3.6s-7.14-1.25-8.13,5,9.47,5.73.5,9.22-8.23,6.48-3.74,9.47"/><polygon class="cls-12" points="661.62 338.68 600.56 353.63 599.94 361.1 594.75 506.53 594.75 507.15 595.58 349.27 652.9 337.43 661.62 338.68"/><path class="cls-15" d="M633.17,331.82"/><path class="cls-14" d="M513.13,356.12s7.47,2.08,7.89,5.4-2.91,125-2.91,125,.42,11.22-7.06,8.31c0,0,6.65,5.4,9.14-4.16s6.23-129.18,6.23-129.18S519.77,353.21,513.13,356.12Z"/><path class="cls-14" d="M553.62,364.64s5.4-5,10.8,0,4.15,13.29,2.49,16.2-8.31,4.57-11.63-2.08c0,0,7.48,2.91,9.14-1.25s-2.91-15-8.31-9.55l4.57,7.48-9.55-1.66S553.21,392,565.67,390s12.46-15,9.14-22.85S558.61,348.85,553.62,364.64Z"/><path class="cls-13" d="M554.46,382.91c3.11,4.78,6,7.35,12.46,5.81,7.89-1.87,12.88-14.74,4.36-24.92s-13.5-3.11-13.5-3.11,7.27-5.19,13.71,6.23-3.53,29.91-17,16"/><path class="cls-10" d="M568.78,499.11a5.38,5.38,0,0,0-4,4.67c-.62,4.05,1.25,10.9,7.17,11.53C571.9,515.31,560.69,506.59,568.78,499.11Z"/><path class="cls-14" d="M528.26,482l2.53-29.74,1-32.34.72-26.88s-.15-10.7-1.76-10.66a24.93,24.93,0,0,0,.09,3.76Z"/><path class="cls-20" d="M487.3,505.55l2.91-72.28s-.83-5-1.66-8.72-1.25-26.17,1.66-29.49,11.63,3.32,11.63,3.32l1.66,2.08-5.4,124.61s0,17.86-12,7.89Z"/><path class="cls-20" d="M651.9,383.53S660.31,371,656,361.73c-3.74-8.1-14.33-8.72-14.33-8.72s27-8.32,38.63,16C680.31,369,665.24,366.72,651.9,383.53Z"/><path class="cls-18" d="M629.66,426.78s2.18-1.25,2.18.31.93,3.12-3.43,2.8l-.31,1.56-2.49-.31s-2.18-6.85,3.74-8.41C629.35,422.73,625.92,426.15,629.66,426.78Z"/><path class="cls-20" d="M646.67,532.14s2.18-1.25,2.18.31.94,3.11-3.42,2.81l-.31,1.56-2.49-.31s-2.18-6.85,3.74-8.41C646.36,528.09,642.93,531.51,646.67,532.14Z"/><path class="cls-18" d="M630.78,418.74s-5-1.56-7.79,5.92.93,13.08,5.29,11.21c0,0-5.92,4.67-8.41-2.18S622.06,414.38,630.78,418.74Z"/><path class="cls-14" d="M546,429.79s2.12-4,5.61-3.77c2.06.11,5.84,1.12,6.25,11.25.25,6.09-2,11.87-7,11.59-3-.19-4-1.22-5.14-3.37,0,0,.65,4.58,7.76,5,10.24.54,11.78-4.49,11.78-4.49a15.56,15.56,0,0,0-1.49-18.51S550.22,420.16,546,429.79Z"/><path class="cls-14" d="M795.23,415.67s4.22,7.39,4.22,20.6c0,9.63-2.13,23.52-10,35.79-3.74,4.75-4.49,7.17-10.29,10.16A29.24,29.24,0,0,0,790,474.37c3.41-3.76,6.33-10,8.76-17.77C804,439.92,801.77,419.41,795.23,415.67Z"/><path class="cls-14" d="M672.91,465.38a15.38,15.38,0,0,1,2.8,9.18A25.16,25.16,0,0,1,666,494.23s6.67-2,9.42-10.82C677.68,476.15,676.85,466.59,672.91,465.38Z"/><path class="cls-18" d="M720.32,426.59s2.74-9.31,5.48-14.24a32.43,32.43,0,0,0-10.41,13.14s-2.74-7.12-.55-9.31l-6.57,8.21.55-8.21s-3.84,2.19-4.38,5.47c0,0,1.64-12.6,7.67-18.07,0,0-15.88,11-13.15,35,0,0,1.1-9.86,3.29-12,0,0,0,7.12,2.74,11.5,0,0,1.09-7.66,3.29-9.31,0,0-.55,9.31,2.74,15.34,0,0,1.1-8.76,3.29-12.6,0,0-.55,7.67,3.29,13.69C717.58,445.21,718.13,431,720.32,426.59Z"/><path class="cls-18" d="M646.81,471.27a49.85,49.85,0,0,1,3-7.71,17.54,17.54,0,0,0-5.63,7.11s-1.48-3.85-.3-5l-3.55,4.45.3-4.45s-2.08,1.18-2.37,3c0,0,.89-6.82,4.15-9.78,0,0-8.6,5.93-7.11,19,0,0,.59-5.33,1.78-6.52,0,0,0,3.85,1.48,6.22,0,0,.59-4.15,1.78-5,0,0-.3,5,1.48,8.3,0,0,.59-4.74,1.78-6.81a13.72,13.72,0,0,0,1.78,7.41S645.63,473.64,646.81,471.27Z"/><path class="cls-12" d="M684.67,377.51s-30.32,7.89-30.32,49.84c0,0-5.4-10.8,3.32-30.32S684.67,377.51,684.67,377.51Z"/><path class="cls-12" d="M678.76,422.53c2.43-11.41,9.45-26.82,24.3-31.51,3.54-1.12,7.16-.62,11.36.35,0,0-7-.77-12,2.14-8.34,4.85-18.54,17.65-19.32,42.06a75.37,75.37,0,0,0-1.5-9.17c-.62-2.49-2-2.4-2.49,1.25-.25,1.92.36,4.89.12,8.6A27.84,27.84,0,0,1,678.76,422.53Z"/><path class="cls-18" d="M645.21,447.71s-20.35,9.14-15.78,35.31c0,0-7.06-13.71,1.66-25.75S645.21,447.71,645.21,447.71Z"/><path class="cls-18" d="M628.6,512.51s-1.25,4.16,1.25,4.16,1.66,1.66,1.66,1.66-7.89,21.19-.41,29.08c0,0-7.89-1.66-7.48-14.54S628.6,512.51,628.6,512.51Z"/><path class="cls-14" d="M784.37,407.84s-15.26,3.73-22.43,19.11c-5.81,12.46-12,37.8-7.06,53.58,0,0-12.46,1.25-16.61-3.32-2.58-2.84-9.29-17.74-6.78-32.37,1.53-8.93,3-15,7.85-24.3,0,0-2.56,7.45-3,20.56-.22,6.63,1.4,15.37,4.86,19.82C752.89,476,746.15,409.5,784.37,407.84Z"/><path class="cls-11" d="M621.92,539.18s2.73,15.69,21,9.88l-48.18,23.77a11.63,11.63,0,0,0,4.15-9.65c-.42-6.23,0-15.79,0-15.79S608,544.42,621.92,539.18Z"/><path class="cls-13" d="M676.14,496.62l-1.85,2.18c-11.22,8.73-21.18,1.66-21.18,1.66s-9.56-4.57-5.82,12,22.43,15,22.43,15l10.8,2.08a5.75,5.75,0,0,1,1.25-5.81c.83,6.23,5.4,6.64,5.4,6.64C681.77,515,696.31,505,696.31,505l-7.06-6.65S680.25,491.2,676.14,496.62Z"/><path class="cls-15" d="M588.72,348"/><path class="cls-18" d="M555.37,447.07s11-6.23,2.29-17.66C557.66,429.41,563.47,441.25,555.37,447.07Z"/><path class="cls-14" d="M674.27,369.43s-1-10.72-13.71-16.7c0,0,13.52,3.06,19.75,16.31Z"/><path class="cls-21" d="M628,499.65"/><path class="cls-14" d="M498.28,396.35l3,5.49-5,122.39s-.25,12-6,11.22h0s5.24,2.74,7.23-4.24,6.21-130.5,6.21-130.5a9.36,9.36,0,0,0-5.46-4.36"/><path class="cls-18" d="M566.77,362.39a19.7,19.7,0,0,1,5.42,8.41c1.49,5-.94,17.76-10.1,15.52,0,0,6.73-.19,8.41-6.36S572.19,369.68,566.77,362.39Z"/><path class="cls-10" d="M683.62,513.88s-6.73-1.24-15-2-15-2.74-17.2-5-4.49-.5-3.49,1.5-.75,7.23,3.74,10.72c0,0,.25-6,3-4.49s1,5.48,3,5.48,2.74-4.73,5.48-4.49l3.74,5.73s-1-6.23,1.74-6.73S683.62,513.88,683.62,513.88Z"/><path class="cls-14" d="M606,296.77s-84.56-8.61-94.94-9.44-10.38,2.08-10.38,2.08l96.72,9.79-15.89,1.87c-8-1-92.23-10.16-92.23-10.16s-2.44-.43-1.86-2.44,10.48-4,10.48-4L606,293.84l13.69,1.24Z"/><path class="cls-22" d="M774,407.19s-10.72,2.12-16.45,11.09c-5.24,8.2-9,3.74-4.74-2.49s17.39-10.66,8.41-14.9c0,0,7.62,1.32,7.21,5.36Z"/><path class="cls-20" d="M796.16,410.44a4.66,4.66,0,0,1,2.62,1.87s-8-2.43-13.27,4.67,1.12,17.38-1.5,29S771.3,471,762.32,472.32c0,0-.19-2.43-.38-5.23,0,0,15.89-10.47,9.35-38.51C771.3,428.57,781.2,404.64,796.16,410.44Z"/><path class="cls-2" d="M627.66,436.21l.12-.1A.26.26,0,0,0,627.66,436.21Zm-5.93,15.73c.75,5.79-.56,13.65-1.12,23s3,17.95,4.11,23.75c1,5.32-7.1,15-6.36,23s-6.73,11.78-6.73,11.78c3.18,1.31,1.87,8.79,1.87,8.79l-1.31,21.87-12.71,6.36C617.06,569,627,586,610,586.17c-11.22.13-26.63,3.76-19.69,15.08,3.05,5,21.46,11.16,32.3,11.09s14.1-6.4,14.56-8.1c1.62-6-23.57-3.44-15-9.47,5-3.49,15.64,1.68,27.42,3,47.11,5.24,48.86-7.35,36.89-13-9.81-4.6-24-2.74-21.94-6.29,2.26-3.91,7.71-3.55,13.83-3.92,10.06-.63,2.17-8.17-10.84-11.72-10.34-2.82-30.19-2.2-34.27-2.37-9.22-.37-8.6-2.62-8.6-2.62l-.25-6.35s1.12-.13.63-2a2.44,2.44,0,0,1,.87-2.74c-8.85-9.1-1.5-30.66,1.12-37.26s3.49-11,3.62-13a3.41,3.41,0,0,0-1.5-3c-2.37-3.61-4-8.22-5-17.07a39.16,39.16,0,0,1,2.37-17.07s-3.74-13.09-3.12-17.82c.54-4.14,2.33-3,3-1.87.42,1.59-.06,4.82.47,6.11.62,1.49.5-3.37.37-6.48-.09-2.23.2-2.92.38-3.14a6.36,6.36,0,0,1-3.87,1.14l.14.05c-1.46-.12-3.26-1-4.37-4.29-2-5.91,2-13.83,6.07-15.17l.66-.16c1.62-.38,4.5.95,4.5.95a8.29,8.29,0,0,0-4-1.57c-1.51-.16-1.9-1.89-2-3.12a22,22,0,0,0,.25-3c1.25-2-.5-5.48-.38-6.73s.75-1.62,1.12,0,1.37,1.5,1,0a9.07,9.07,0,0,1,.37-3.86,3.24,3.24,0,0,0,2.37-3.49c-.12-1.12-.3-1.25-2.56-2.43a10.85,10.85,0,0,0-4.77-1,18.16,18.16,0,0,0,3.08,2.34c2.15,4.86-4.3,3-4.3,3,3.18,1.4.65,6.26.37,9s1.4,3.55,1.4,3.55a22.58,22.58,0,0,1-.56,5.61c-.66,2.24-1.34.69-4.52,5.92s-.93,11.58.75,12.84a11.5,11.5,0,0,1,3.06,3A81.76,81.76,0,0,0,621.73,451.94Z"/><path class="cls-6" d="M554.37,447.7a6,6,0,0,1-2.84,1s-1.4,1.53.47,1.78a33.8,33.8,0,0,0,5.61-.12s-2.49.37-2.87,1a7.75,7.75,0,0,0,.12,5.61c1,2.24-1.62,2.62-1.62,2.62s0,33.28-2.24,33.78L549.76,531s-2,.87-1.62,2.62l-3-1.62s.37-2.12,1.87-2.37c0,0,3.24-36.64,2.49-39.88a3.3,3.3,0,0,1-1.87-3.12c0-2.37,2.12-9.84,2.12-13.58s3.45-19.09,1.25-20.32c-3.21-1.77-.5-2.24-2.74-3.74C548.26,448.95,548.51,445.71,554.37,447.7Z"/><path class="cls-4" d="M546.77,532.89l3.74,2-.28,14.67s.28,2.9,1.5,3.74l14.86,8.6s-6,1.5-5.61,7.11,25.43,7.48,18.32,14.58-21.69-1.12-23.18,6c-.84,4,3,4.46,6.73,9.72,3,4.16-2.24,12-14.21,11.22-15.37-1-56.83-10.85-45.62-29.16,7.3-11.92,20.94-6.73,24.68-11.22,1.81-2.17-2.24-4.49-11.22-11.22-16.4-12.3,12.71-18.32,12.71-18.32l13.46,7.85a4.63,4.63,0,0,1,1.5-3.37Z"/><path class="cls-5" d="M802.89,606c11.22,1.5,23.68,3,38.14-.75,19.45-4.49,38.47-33.55-31.41-35.65-4.23-1.32-22.7.13-26.55-6.6-6.65-11.64-4.14-58.79-3.5-70.92a12.73,12.73,0,0,0,2.12-.74c3.24-1.5,5.23-5.23.25-4.48s-17-4.74-17-4.74c4.49,5.74,0,7.73,0,7.73a17.52,17.52,0,0,0,5,2.18c1.26,4.8-.31,12.24-.75,17-.5,5.49,5,3,4-1.49-.7-3.17-.66-10.81-.58-15a19.82,19.82,0,0,0,3.39.1c1,11.57-1,49.38-4.91,71.29-1.89,4.71-.21,7.7-12.57,5.12-48-10-62,0-55.88,9.31,3.08,4.69,14.31,9,18.69,9,6.36,0,13.38,6.84-3.74,9-15,1.87-30.66,16.45-10.47,21.69,12.12,3.14,93.48,17.2,71-7.48C778.21,610.48,752,599.26,802.89,606Z"/></g></g></svg>