<svg xmlns="http://www.w3.org/2000/svg" viewBox="0 0 1283.89 862.41"><defs><style>.cls-1{fill:#fdba4d;}.cls-2{fill:#fba930;}.cls-3{fill:#fff;}.cls-4{fill:#d2d5d8;}.cls-5{fill:#e46d25;}.cls-6{fill:#d2d3dc;}.cls-7{fill:#ce5427;}.cls-8{fill:#c1c1c0;}.cls-9{fill:#edeceb;}.cls-10{fill:#c2c3c4;}.cls-11{fill:#b2b3b3;}.cls-12{fill:#333;}.cls-13{fill:#616575;}.cls-14{fill:#858894;}.cls-15{fill:#bc4427;}.cls-16{fill:#f2963b;}</style></defs><title>Asset 1</title><g id="Layer_2" data-name="Layer 2"><g id="Layer_1-2" data-name="Layer 1"><rect class="cls-1" width="1283.89" height="862.41"/><polygon class="cls-2" points="796.51 341.66 862.32 350.38 748.54 452.68 650.09 436.11 796.51 341.66"/><path class="cls-3" d="M662.87,445.77c176.87,13.53,149.34,56.9,119.94,60.76s-69.68,22.73-2.06,53.87c44.23,20.37,36.66,56.15-117.44,30-48.23-8.17-91.1,32.08-151.73,37.85-175.26,16.67-155.11-94.29-80.36-100,39.17-3,127.75-25.73,98.64-50.48s82-37.55,82-37.55"/><polygon class="cls-4" points="836.21 251.39 828.12 362.54 731.26 444.01 730.63 325.78 836.21 251.39"/><polygon class="cls-5" points="600.36 291.41 608.85 398.39 664.34 436.3 731.26 444.01 730.63 325.78 600.36 291.41"/><polygon class="cls-4" points="730.63 325.78 638.73 319.75 600.36 291.41 620.47 282.33 725.15 310.53 730.63 325.78"/><path class="cls-6" d="M630.91,401.18l18.21,4.65-7.93-88.17s-15.36,4.33-14.08,18.21S630.91,401.18,630.91,401.18Z"/><path class="cls-7" d="M634,378.7l-24.57,21.59-1.1-9L623.89,377s-4.41-48,.32-53.71,9.52-7.06,9.52-7.06l3.52,2.95Z"/><polygon class="cls-7" points="646.77 378.4 731.26 444.01 674.84 441.03 646.77 378.4"/><polygon class="cls-8" points="623.53 455.8 731.26 444.01 685.54 436.41 623.53 455.8"/><polygon class="cls-3" points="646.77 378.4 685.54 436.41 623.53 455.8 597.37 411.35 597.37 411.35 629.57 381.73 646.77 378.4"/><path class="cls-3" d="M622.75,396.36"/><polygon class="cls-9" points="620.37 445.03 601.03 412.16 628.73 385.31 656.46 436.19 620.37 445.03"/><path class="cls-4" d="M684.34,434.61,646.77,378.4l-7.07-59.52s-13.58,1.69-12.59,17,2.51,46.44,2.51,46.44l40.78,56.95Z"/><polygon class="cls-10" points="641.96 405.89 601.03 412.16 628.73 385.31 641.96 405.89"/><polyline class="cls-11" points="668.27 440.03 628.73 385.31 659.39 442.62 668.27 440.03"/><path class="cls-11" d="M668.17,440.64"/><polygon class="cls-11" points="640.42 318.44 642.56 318.18 707.76 322.92 609.69 296.25 640.42 318.44"/><polygon class="cls-3" points="600.36 291.41 724.46 235.39 836.21 251.39 730.63 325.78 600.36 291.41"/><ellipse class="cls-3" cx="632.92" cy="612.19" rx="21.21" ry="6.68" transform="matrix(1, -0.09, 0.09, 1, -53.3, 60.4)"/><ellipse class="cls-3" cx="800.41" cy="529.42" rx="37.81" ry="11.91" transform="translate(-45.03 75.36) rotate(-5.24)"/><polygon class="cls-11" points="640.59 405.51 601.03 412.16 602.48 414.28 643.67 409 640.59 405.51"/><polygon class="cls-8" points="646.77 378.4 629.62 382.3 670.41 439.25 684.34 434.61 646.77 378.4"/><path class="cls-3" d="M730.63,325.78l-89.19-5.87s-14.34,3.64-14.32,15.95a15.44,15.44,0,0,1,10.14-16.68l-36.89-27.77,9.33,4.84,29.54,21.52L723.15,324Z"/><path class="cls-12" d="M417.59,621.5l-17-144.42a5.7,5.7,0,0,0-6.24-3.64c-4.72.7-4.44,4.43-4.44,4.43l16.8,139.43A62.27,62.27,0,0,0,417.59,621.5Z"/><path class="cls-13" d="M467.25,501.66l-65.18,4s-1.17,1.21-.9,4a7.23,7.23,0,0,0,1.68,4.22l64.38-3.39Z"/><path class="cls-13" d="M473.31,548.92l-65.18,4s-1.17,1.21-.9,4a7.23,7.23,0,0,0,1.68,4.22l64.38-3.39Z"/><path class="cls-13" d="M479.37,596.18l-65.18,4s-1.17,1.21-.9,4a7.23,7.23,0,0,0,1.68,4.22L479.34,605Z"/><path class="cls-12" d="M491.31,629.52,469.56,469.31a6.08,6.08,0,0,0-6.72-3.58c-5.06.75-4.73,4.48-4.73,4.48l22.42,159.86S485.25,630,491.31,629.52Z"/><polygon class="cls-14" points="681.98 320.63 639.23 317.77 617.32 301.63 637.98 313.63 681.98 320.63"/><polygon class="cls-15" points="731.26 444.01 646.77 378.4 651.32 384.96 727.65 442.96 731.26 444.01"/><polygon class="cls-16" points="730.63 325.78 723.65 325.63 725.65 439.3 731.26 444.01 730.63 325.78"/></g></g></svg>