<svg xmlns="http://www.w3.org/2000/svg" xmlns:xlink="http://www.w3.org/1999/xlink" viewBox="0 0 126.06 92.33"><defs><style>.cls-1{fill:url(#linear-gradient);}.cls-2{fill:#fff;}</style><linearGradient id="linear-gradient" x1="6.64" y1="93.48" x2="119.41" y2="-1.15" gradientUnits="userSpaceOnUse"><stop offset="0" stop-color="#4657d5"/><stop offset="0.37" stop-color="#a54aab"/><stop offset="0.64" stop-color="#dc4450"/><stop offset="1" stop-color="#f6bf60"/></linearGradient></defs><title>Asset 5</title><g id="Layer_2" data-name="Layer 2"><g id="Layer_1-2" data-name="Layer 1"><rect class="cls-1" width="126.06" height="92.33" rx="10.61" ry="10.61"/><path class="cls-2" d="M61.34,24.76c7.15,0,8,0,10.83.16a14.83,14.83,0,0,1,5,.92,8.87,8.87,0,0,1,5.08,5.08,14.82,14.82,0,0,1,.92,5c.13,2.83.16,3.67.16,10.83s0,8-.16,10.83a14.83,14.83,0,0,1-.92,5,8.87,8.87,0,0,1-5.08,5.08,14.83,14.83,0,0,1-5,.92c-2.82.13-3.67.16-10.83.16s-8,0-10.83-.16a14.83,14.83,0,0,1-5-.92,8.87,8.87,0,0,1-5.08-5.08,14.83,14.83,0,0,1-.92-5c-.13-2.83-.16-3.67-.16-10.83s0-8,.16-10.83a14.83,14.83,0,0,1,.92-5,8.87,8.87,0,0,1,5.08-5.08,14.82,14.82,0,0,1,5-.92c2.83-.13,3.67-.16,10.83-.16m0-4.83c-7.28,0-8.19,0-11,.16a19.67,19.67,0,0,0-6.5,1.25A13.7,13.7,0,0,0,36,29.18a19.67,19.67,0,0,0-1.25,6.5c-.13,2.86-.16,3.77-.16,11s0,8.19.16,11A19.67,19.67,0,0,0,36,64.28a13.7,13.7,0,0,0,7.84,7.84,19.67,19.67,0,0,0,6.5,1.25c2.86.13,3.77.16,11,.16s8.19,0,11-.16a19.67,19.67,0,0,0,6.5-1.25,13.7,13.7,0,0,0,7.84-7.84A19.67,19.67,0,0,0,88,57.77c.13-2.86.16-3.77.16-11s0-8.19-.16-11a19.67,19.67,0,0,0-1.25-6.5,13.7,13.7,0,0,0-7.84-7.84,19.67,19.67,0,0,0-6.5-1.25c-2.86-.13-3.77-.16-11-.16Z"/><path class="cls-2" d="M61.34,33A13.76,13.76,0,1,0,75.09,46.73,13.76,13.76,0,0,0,61.34,33Zm0,22.69a8.93,8.93,0,1,1,8.93-8.93A8.93,8.93,0,0,1,61.34,55.66Z"/><circle class="cls-2" cx="75.64" cy="32.43" r="3.22"/></g></g></svg>