<svg xmlns="http://www.w3.org/2000/svg" viewBox="0 0 863.24 605.88"><defs><style>.cls-1{fill:#fff;}</style></defs><title>Asset 2</title><g id="Layer_2" data-name="Layer 2"><g id="Layer_1-2" data-name="Layer 1"><path class="cls-1" d="M152.31,397c27.23-28.61,33.09-40.3,27-51.43-4.14-7.58-3-15.43-17.8-12.68-10.4,1.95-19.11,9.22-27.26,13.68-13,7.09-29.69,17.1-37.25,28.34-2.55,3.76-3.51-2.27-1.89,6.45,0,0,5.19,16.19,10.39,47.42C109.56,453.2,152.31,397,152.31,397Z"/><path class="cls-1" d="M459.73,401.76s-45.87,51.67-23,78.1,51.71,15,60.64-16.6S494.57,369,459.73,401.76Z"/><path class="cls-1" d="M290.25,296.95q-5.3,6.27-11.65,18.88-4.63,9.8-9.3,19.41l27.95-14.33c-1.54-4.3-.91-9-2.45-13.27C292.9,302.32,293,298.5,290.25,296.95Z"/><path class="cls-1" d="M0,0V605.88H863.24V0ZM700.26,177.72q28.41,3.06,34.93,29.88,5.2,21.42-23,51-20.1,21.31-55.25,44.41-1,.61-31.16,19-9.48,5.81-25.77,17.7-9,6.42-15.92,8.11t-9.69-.41q-2.08-1.71-3.56-7.8-3.18-13.06-1.44-43.09s7.74-40.65,7.72-72.24c0-7.15-.49-11.87.05-14.21q1.57-7.21,8.53-8.9a21.53,21.53,0,0,1,4.48-.54L629,191q6.23-3.17,28.53-8.59Q684.32,175.88,700.26,177.72ZM509.82,64.38c.86-1.21,4-5.69,7.82-7.33,6.42-2.79,8.09-.14,9.47.45q27,31,42.82,90c1.86,5.38,5.21,5.38,9.23,6.08q8-21.56,18.11-64.51c4.34-18.08,12-45.95,13.47-50.6Q621,8.74,634.45,6.5q5.85-1,8.22,3.64a31.58,31.58,0,0,1,1.49,6.56c.91,5.46-6.33,36.87-12.3,61.22q-9.62,39.66-21.43,68.66-14.66,35.89-26.74,37.9-10.72,1.78-26-16.32-11-13-24-35.87l-12.66-23.13s-11,79.83-19.65,90.8c-3.38,4.29-7.15,5.8-9.49,6.19q-8.77,1.46-14.78-5.75a24.87,24.87,0,0,1-5.65-12.28,50.17,50.17,0,0,1,.36-19.49q5.36-23.12,20-65.22Q500.66,77.92,509.82,64.38ZM550.18,240c-3.84,17.06-3.52,38.1-7.36,55.16-1.76,10.31-3.35,42.85-6.8,47.55-2.62,2.71-14.53,10.78-16.74,11.15q-12.86,2.14-15.94-16.38c-1.86-11.17,2.57-23.63,4.7-36.53,1-6.3-.21-20,5.09-41.91s9.51-42.34,12.64-61.29a15.51,15.51,0,0,1,8.94-5.29c2.34-.39,10-6.21,17-4.59C566.24,191.2,554.3,219.79,550.18,240ZM335.06,349.72q1.67,17.49.11,28.57-2.1,15.63-10.11,17.58-11.84,2.88-18.66-25.17-1.69-7-3-15.95c-.82-5.45-1.23-8.27-1.24-8.47q-.43-.27-.61-1.41c-.13-.77-.6-1.05-1.41-.86q-3.66.89-19.83,7.21c-13.45,5.36-14.27,5-21.16,9-.55.26-4.25,6.63-6.81,12.79-3,7.26-6.73,18-7.32,19.09-3.06,7.14-3.81,9.94-6.87,17.07-3.59,7.51-16.22,11.77-22.6,13.33q-14.11,3.43-17.33-9.81-2.71-11.14,39.92-74.81,25.58-36.65,51-73.26,2.63-3.59,8.78-7.12a46.85,46.85,0,0,1,10.94-4.32q8.71-2.11,12.54,3.78,1.72,2.53,4.13,12.46l7,44,24.21-5.88q3.61-1.06,6.64,2.26.5,9.65-.78,12.73t-5.81,4.18q-1,.26-4.4.88t-5.62,1.18q.35-.09-6.1,2.22-5.27,1.84-7.49,1.82Q334.12,341.28,335.06,349.72Zm20.2-55.05c-12.67,4.44-12.56-27.66,11.59-29,3.43-.2,6.79-1.73,10-.87,10.16,2.7,14,3.39,18.54,8.56,3.19,3.53,7.2,7,11,18q3.5,9.85,6.45,17.43,6.07,15.14,9.86,20.11c2.91,3.34,11.46,16.19,17.57-5.56a50.94,50.94,0,0,1,4.59-11.45q3.22-6.5,12.27-39.87,8.69-31.81,10.18-40.84,1.18-7.29,6.16-10.35,2.75-1.58,11.5-3.53c2.35-.45,9,3.26,10.48,9.18q1.31,5.4-9.46,43.06-11,38.28-23.11,69.62c-9.32,24.4-16.06,26-36.93,31.18-4.76,1.19-11.27-4.88-19.53-18.12q-6.37-10.27-19.88-37.78-10.3-20.37-12-19.95S367.93,290.23,355.26,294.67ZM430.49,136q7.95-32.87,12.64-61.29a15.51,15.51,0,0,1,8.94-5.29s22.75-9.1,21.8,6.21S463,117.7,463,117.7q-5.76,25.6-11.52,51.19c-1.76,10.31-17.77,48.65-17.78,72.69-1,10.49-10,10-12.2,10.4q-12.86,2.14-15.94-16.38c-1.86-11.17,13.4-44.38,15.53-57.29Q422.54,168.86,430.49,136Zm-153.21,6.51c2-18.61,25.73-17.24,25.73-17.24,9.09-1.51,15.95,4.1,20.56,10.14q4.84,6.21,9.74,24.82,3.05,11.11,5.68,19.69,5.45,17.12,9.22,22.9a69.77,69.77,0,0,0,7.18-12.21q5.19-10.88,6-12.21,4.06-6.88,16.71-42.84,12.13-34.26,14.51-44.08,1.88-7.92,7.61-10.88,3.15-1.52,12.92-3,3.93-.45,5.59,9.49,1,6-13.88,46.58-15.2,41.19-31,74.67-18.34,39.11-25.35,40.27-8,1.33-20-21.51-6.17-11.79-18.8-43.14c-6.45-15.48-10.81-21.87-11.62-22.9-4.21-5.36-7.63-3.74-7.63-3.74a3.34,3.34,0,0,0-.94.36q-11.67,3.34-13-4.65Q276,150.32,277.28,142.49ZM165.52,197.88q8.72-51.12,13.73-57.17,5.62-7.14,37.59-12.46,16.57-2.76,21.25-2.33c6.76.48,17,3.68,20.43,9.62s-1.66,9.29-1.66,9.29a91.69,91.69,0,0,1-13.12,3q-1.75.29-5.69.75l-5.65.94q-16.57,2.76-23.13,7.85-9.62,7.21-7.09,22.41l1.17,8.22q11.73-1.75,38.85-8.47c19-4.63,22.26-3.78,28.45-3.87,18.95-.27,9.76,16.22,9.76,16.22-14.54,5.76-14.77,3-41.8,10.68q-26.41,7.4-34.73,15.19-10.76,10-12,34.85c1.52,9,8.9,5.49,16.31,4.26,1.56-.26,10.89-6.51,27.63-15.91s44.41-22.56,46-22.82q7-1.17,10.4-.13c3.89,1,13.12,2.57,12.31,9-3.77,11-36.43,28.44-57.79,42.14q-30.6,19.51-52.63,23.18-15.2,2.53-23.1-1.57-9-4.91-11.49-19.72C151.76,224.71,164.95,201.24,165.52,197.88Zm-128.78,173a12.85,12.85,0,0,1-7.89,4.32c-7,1.17-19.22-2-20.71-11-.56-3.38,2.07-16.74,5.15-49.57C17,275.67,27.88,238.06,32.86,212.66q10.34-52.2,22.62-54.24,7.79-1.3,10,12.15,2.21,13.26-2.9,41.54Q57.18,242.07,57.77,248q14.55-7.63,41.59-33c14.93-13.83,30.23-55.69,39.33-57.2q4.09-.68,10,1.74t6.53,6.12c1.21,7.28-12.72,53.37-35.2,69.93L73.55,267l72.24,15.22a4,4,0,0,1,1.4,2.37q1.39,8.38-9.13,14.94-7.28,4.41-12.93,5.36-12.67,2.11-39.3-2.68-2.25-.23-39.4-8.07Q43.07,310.12,36.74,370.85ZM95.31,479.53q-2.24-1-5-6.05-5.9-10.79-11.49-37.75c-3.72-18-2.07-24.47-5.58-30.89L72,390.68c.39-2.71-5.32-31.91-5.4-34.11A9.89,9.89,0,0,1,72,346.69a19.7,19.7,0,0,1,3.83-1.54l32-13.1c3.17-2.85,10.9-3,23.18-9.76q22.16-12.12,36.69-14.27,25.84-4,38,18.13,9.68,17.7-8.27,50.51Q184.7,400.25,159.12,429q-.7.77-23,24.19c-4.67,4.92-9.57,12.51-18,15.66-4.26,5.2-10.22,6.64-14.06,8.74S97.25,480.33,95.31,479.53ZM380.2,513.62c-17.7-13.25-26.51-20.64-47.22-21s-34.16-14.15-30-20.83a21.23,21.23,0,0,1,11.22-8.6s28.46-17.59,48.86-25.69,11.72-17.79-3-15.52S302.62,451,302.62,451s-18.22,39-21.63,73.39S254.24,607,242.5,597.16c-5.79-4.85-2.59-24.42,2.15-43-124.66,62.93-155.38,9.14-143-28,12.85-38.45,79.24-73.21,102.87-84.21s35.89,3.5,30.59,16.26S188.59,481,188.59,481c-41.24,10-79.66,59.75-41.08,70.31s85.6-28,100.52-34c6.43-2.63,8.18-3.22,8.55-2.23L271,467s-21.4-15.76-7-25.72,92.31-53,122.33-54.41,25.72,42.54,11.88,57.13-53.87,26.79-53.87,26.79C352,471.94,372,474,372,474,420.87,492.81,399.37,528,380.2,513.62Zm133.47-22.7c-16.31,39.2-87.17,37.65-103.17,8.75s-7-60.9,22.59-99.43c22.29-29,46.93-29.06,46.93-29.06C537.75,377.67,529.63,452.56,513.67,490.92ZM683.73,335.64C678,356.05,689,398.45,666,441c-27.55,50.79-49.55-21.28-49.55-21.28s-29.32,68.72-48,73.46c-16.52,4.19-15.34-40.4-24.93-65.78C532.14,397.26,527.77,376,527.77,376s10.62-23.75,23.9-13.81,24.17,89.14,24.17,89.14l17.66-48S604.8,363,615.07,364.72,641.6,423.5,641.6,423.5s20-26.87,15.47-84.71C654.14,301,689.45,315.22,683.73,335.64Zm135.9,62.16c-53.19,26.84-98.39,47.52-113.23,35.08s-9.86-136.69-9.86-136.69,46.75-27.19,84.7-35.46c0,0,20.26-15.7,25.79,1.41s-37.79,29-37.79,29l-45,18.23s-12.38,13.55-3.78,21.78,48.27-7.71,48.27-7.71,16.11-10.76,16.76.92-12.87,22.57-36.5,29S720.8,349.23,719.88,366s.82,41.8,15,42.57,81.77-34.81,94.81-52.89c8.21-11.39,19.48-1.52,19.48-1.52S872.82,371,819.63,397.79Z"/><path class="cls-1" d="M606.61,234.79c-3.66,6-3.71,13.68-4.07,15.25-2.18,9.26,1.32,23.52,1,37.71-.19,9.36.91,13.64,12,10.05s43.74-26.7,43.74-26.7c29.65-21.3,52.19-38.18,48.92-51.66-2.23-9.17-5.1-15.9-21.53-17.2a102.13,102.13,0,0,0-32.09,2.26q-23.52,5.71-40.26,20.3C610.55,228.05,609.24,230.44,606.61,234.79Z"/></g></g></svg>