<svg xmlns="http://www.w3.org/2000/svg" viewBox="0 0 604.94 59.27"><defs><style>.cls-1{fill:#777;}</style></defs><title>Asset 1</title><g id="Layer_2" data-name="Layer 2"><g id="Layer_1-2" data-name="Layer 1"><path class="cls-1" d="M470.71,27.18s-5.1-2-7-2.84c0,0,11.35-.32,16-3.15s9-14,1-15.8-31.44,3.89-35.92,5.46,0,7.24,0,7.24l-7.23,11.54c0-.29-.52-.26-2.4,0-4.34.52-19.41,7.23-28.75,1.7s4.28-15.79,15.79-15.45c0,0,11.51.33,13.82-2.63s.13-7.63-6.84-6.45-26.84,5.51-33,14.66c-5.91,8.83-1.73,25.11,35.41,17.58-2.57,4.53-4.82,9.42-3.65,11.11,2.37,3.42,11.93-7.52,15.29-16.27s10.93-17.66,10.93-17.66,13.12-3.94,17.13-3.48,5.59,3.62-.33,4.28a108.16,108.16,0,0,0-14.63,3.22,5.76,5.76,0,0,0-3.55,1.45c-1.58,1.45,1,6,6.35,7.6s7.17,4.15,10.85,8.89C474,43.27,482.16,35.61,470.71,27.18Z"/><path class="cls-1" d="M506.36,8S499.91,6.26,492,12.26c-10.51,8-15.16,15.69-13,24.4s20.55,14.2,27.63,5.11C513.51,32.88,521,13.86,506.36,8Zm-2.05,25.35c-4.6,7.62-13,8.56-17.06,0s11.61-18.79,11.61-18.79C510.33,8.49,508.91,25.74,504.31,33.37Z"/><path class="cls-1" d="M555,12.24C552,27.7,544.89,33.3,544.89,33.3s-.16-16.1-2.73-17.28-8.41,8.54-8.41,8.54l-8.07,11.3s2.83-21.51.07-25.06-7.25,1.9-7.25,1.9a101.42,101.42,0,0,0,.43,14.58c.69,7.33-2.82,18.92,1.8,19,5.23.1,17.83-15.78,17.83-15.78s.59,20.44,11.44,9.12c9.08-9.47,9.24-21.36,12.2-26.29S557,2.13,555,12.24Z"/><path class="cls-1" d="M604.19,30S602,26.66,599,29c-4.71,3.8-25,8.26-28.61,7s-2.31-7.9-.87-12.22,1.88-1.22,8.53-1.22,11-1.88,11.64-5-4.32-1.44-4.32-1.44-11.52,1.32-13.18-1.45,2.55-5.43,2.55-5.43L587.8,7.81s12.19,0,12-4.87S593.12.72,593.12.72c-10.53-.56-24.71,3.2-24.71,3.2s-10.22,32.16-7.23,36.48,16.3,2.15,32.15-1.06S604.19,30,604.19,30Z"/><path class="cls-1" d="M52.73,13.49q.1-1-1.27-2.07A5.13,5.13,0,0,0,49,10.25c-2.49-.26-9.5,9.6-14.4,12.15Q25.68,27.09,21.32,28q.27-1.59,3.84-9,3.37-7,3.74-10.66t-1.75-3.9Q23.79,4.09,17.34,17C14.21,23.3,8.66,32.36,4.9,42.29Q.16,54.84,0,56.23c-.25,2.45,2.69,2.83,4.61,3A3.49,3.49,0,0,0,7,58.69q6-15.44,8-19.39Q24.2,44,24.77,44.24q6.63,3.16,10.09,3.52a10.26,10.26,0,0,0,3.77-.47q3.22-1,3.46-3.25a1.07,1.07,0,0,0-.2-.72L24.09,34.15,38.5,29.27C45.57,26.55,52.52,15.49,52.73,13.49Z"/><path class="cls-1" d="M84,25.29c-1.1-.65-.49-.77-1.81-.91-1.67-.17-2.42-.88-7.72-1q-7.58-.19-10.78-.57L64,20.55q.43-4.16,3.46-5.36,2.08-.86,6.62-.4l1.55.16q1.06.16,1.54.21a24.89,24.89,0,0,0,3.65.16L81.93,13a9.63,9.63,0,0,0-4.66-4,30.64,30.64,0,0,0-5.73-.91q-8.75-.9-10.73.56-1.74,1.22-7.69,14c-.39.84-5.53,6-6.83,18.7q-.42,4.05,1.59,6,1.77,1.64,5.93,2.07,6,.62,15.44-2.29,9.86-3.08,12.53-7a6.93,6.93,0,0,0-2.58-3.23,6.65,6.65,0,0,0-2.73-.71A71.32,71.32,0,0,0,68.25,38,71.58,71.58,0,0,1,60,39.81a9.68,9.68,0,0,1-3.95-.95q2.12-6.41,5.65-8.26,2.74-1.44,10.18-1.48c7.63-.08,7.49.67,11.7.2.25-.33,1.9-1.42,1.93-1.78Q85.68,26.27,84,25.29Z"/><path class="cls-1" d="M127.32,11.84q.28-2.72-.78-2.88a14.36,14.36,0,0,0-3.59-.15,4.17,4.17,0,0,0-2.77,2.3q-1.33,2.4-7,10.49-5.89,8.5-7.45,10-.3.29-2.44,2.77a18.94,18.94,0,0,1-2.76,2.68,29.41,29.41,0,0,1-.77-6.66q-.07-2.43-.07-5.56.05-5.22-.77-7.19-1.16-2.87-4.89-3.25a10,10,0,0,1-2.91-.76A10.55,10.55,0,0,0,89.47,13q-1.17-.12-3.13,3.18a10.7,10.7,0,0,0-1,2.7q-.23,2.19,3.07,2.15a.91.91,0,0,1,.27,0q.16,0,.54.73a1.44,1.44,0,0,0,1.18.8q.53.05,1.4,6.83Q92.88,38.47,93.65,42q1.5,6.84,3.69,7.06,1.92.2,9.52-8.72,6.55-7.62,13.48-17.31Q127.15,13.49,127.32,11.84Z"/><path class="cls-1" d="M142.59,12.78c1.35-3.94-5.26-3.19-5.26-3.19a4.21,4.21,0,0,0-2.72.74q-3.27,7.1-7.7,15.13t-5.49,10.4c-1.48,3.23-7.86,10.82-8.18,13.88q-.52,5.07,3,5.43c.6.06,2.92.83,3.94-1.85C121.9,47,128.84,38.16,130,35.59L136.73,23S141.24,16.72,142.59,12.78Z"/><path class="cls-1" d="M339.72,4.91c-1.72-.93-4.15,0-4.79,0a4.21,4.21,0,0,0-2.72.74q-3.27,7.1-7.7,15.13c-3,5.35-3.64,9-4.34,10.6-1.48,3.23-3.54,6.17-3.85,9.22q-.52,5.07,3,5.43a21.31,21.31,0,0,0,5.18-1.72c1.73-6.29,4-9.38,5.19-12,2.23-4.19,3.65-9.72,5.88-13.91C338.1,13.46,343.28,6.83,339.72,4.91Z"/><path class="cls-1" d="M189.57,6.22q-3.68-.38-8.5,6.67c-.73,1.11-4.72,7.86-7.15,12.28a156.53,156.53,0,0,1-9.37,15.58l-2-2.25q.1-16.59-4.75-26.63-.44.06-2.87.13a4,4,0,0,0-2.15.43,46.31,46.31,0,0,0-7.5,8.93q-6.85,10-9.91,15.63a13.61,13.61,0,0,0-1.49,5.07,6.75,6.75,0,0,0,.6,3.62A4.06,4.06,0,0,0,138,48.25a5.92,5.92,0,0,0,2.93-.94,4.55,4.55,0,0,0,2.35-2.13Q148.57,31.5,152.54,25l1.65,7A65.87,65.87,0,0,0,157.89,43q2.69,5.83,5.62,6.13,3.31.34,9.72-8a133.25,133.25,0,0,0,10.53-16.43c3.31-5.95,7.46-13.65,7.61-15.14a8.57,8.57,0,0,0,.08-1.82A1.9,1.9,0,0,0,189.57,6.22Z"/><path class="cls-1" d="M239.23,16.28q-1.58-6.67-8.63-7.47A31.88,31.88,0,0,0,220,9.91c-3.7.88-5.73.37-6.77.89l-9.32,1.13a5.35,5.35,0,0,0-1.11.13,2.68,2.68,0,0,0-2.13,2.2c-.14.58-.74,8.63-1,9.31l-.68,3.8c.46,1.93-.44,3.52-.76,8.49s-.22,8.54.3,10.7a3.76,3.76,0,0,0,.87,1.94,3,3,0,0,0,2.41.12c1.15-.27,2.82-.22,4.31-1.28,2.45-.22,4.27-1.85,5.85-2.8l7.76-4.68a77.32,77.32,0,0,0,13.78-11Q240.5,21.6,239.23,16.28ZM220.18,31S205,42.63,205.65,36a101.07,101.07,0,0,0,.68-13.16c.2-2.4,0-.75,1-1.55,2.79-2.4,7.88-3.82,11.78-4.75,2.45-.58,5.25-1.86,8.12-1.62,4.08.34,3.21,2.32,3.75,4.6C231.73,22.83,229.36,25.46,220.18,31Z"/><path class="cls-1" d="M280.1,22.25l-6.76-.2,1.32-12a13,13,0,0,0-.19-3.56q-.58-1.82-3-1.89a12.72,12.72,0,0,0-3.17.34,7.65,7.65,0,0,0-2.81,1.23q-9.28,7.76-18.6,15.51-15.73,13.6-15.82,16.71-.11,3.69,3.83,3.81c1.78.05,5.39-.16,6.87-1.87,1.31-1.65,1.71-2.33,3-4,.23-.25,2-2.79,3.28-4.47a17.19,17.19,0,0,1,2.7-2.86c2.09-.55,2.28-.39,6.18-.83q4.69-.49,5.71-.47c.23,0,.33.11.31.33a.55.55,0,0,0,.06.41q0-.15-.29,2.3t-.35,4.39q-.23,7.83,3.08,7.92,2.24.07,3.91-3.88a34.33,34.33,0,0,0,2-7.48l.72-4.55a7.14,7.14,0,0,0,2.09.06L276,27.1q.63,0,1.55.09l1.21.08a2.08,2.08,0,0,0,1.82-.68,9.56,9.56,0,0,0,1.12-3.27A1.68,1.68,0,0,0,280.1,22.25Zm-24.86,1q1.91-2.18,3.83-4.41a27,27,0,0,1,4.4-4.1c.6.6-.28,1.54-.17,3.07q.14,1.85.28,3.71Z"/><path class="cls-1" d="M320.14,7.83a13.13,13.13,0,0,0-3.26.1,3.79,3.79,0,0,0-2.35,2.27q-1,2.26-5.59,10a90.53,90.53,0,0,1-6.07,9.55,13.82,13.82,0,0,0-2,2.67c-3.16,5.25-4.47,1.28-5,.19a26.69,26.69,0,0,1-1.14-6q-.23-2.2-.44-5-.3-4.73-1.17-6.46-1.24-2.52-4.64-2.62a15.14,15.14,0,0,1-2.69-.49c-6.42-1.37-8.75,7-5.12,6.77s5.05,1.33,5.05,1.33q.49,0,1.72,6.08Q289,34.36,289.9,37.5c1.21,4.06,2.48,6.11,3.81,6.14,5.84.13,7.71.21,11.9-5.51q5.42-7.33,11-16.56T322.22,11A3.44,3.44,0,0,0,320.14,7.83Z"/><path class="cls-1" d="M379.32,12.92q-4-1.63-11.53-1.85a45.19,45.19,0,0,0-8.08.2L348.86,11a5.84,5.84,0,0,0-1.21-.18,2.93,2.93,0,0,0-2.87,1.72,16.13,16.13,0,0,0-1,3.72,9.07,9.07,0,0,1-1.32,3.47l-1.78,5.7c-.06,2.17-2.37,4-4.11,9.18S333.9,43.57,333.83,46a4.11,4.11,0,0,0,.37,2.3,3.22,3.22,0,0,0,2.51.8,13.06,13.06,0,0,0,4.75-1q5.12-1.94,8-2.78L359,42.6a84.52,84.52,0,0,0,17.64-7.66q9.51-5.71,9.68-11.69Q386.53,15.76,379.32,12.92Zm-17.43,21.5s-10.21,3.7-13.36,3.85-3.13-1.05-2.41-3.49c1.09-3.69,1.2-7.68,2.44-9.94a10.54,10.54,0,0,1,2.16-3.7,9.24,9.24,0,0,1,2.73-2.06,25.51,25.51,0,0,1,12-2.42A27.71,27.71,0,0,1,374,18.36c4.21,1.52,4.47,3.49,4.4,6C378.29,28.17,371.18,31,361.89,34.42Z"/></g></g></svg>