<svg xmlns="http://www.w3.org/2000/svg" viewBox="0 0 126.06 92.33"><defs><style>.cls-1{fill:#1da1f2;}.cls-2{fill:#fff;}</style></defs><title>Asset 4</title><g id="Layer_2" data-name="Layer 2"><g id="Layer_1-2" data-name="Layer 1"><rect class="cls-1" width="126.06" height="92.33" rx="10.61" ry="10.61"/><g id="Logo_FIXED" data-name="Logo FIXED"><path class="cls-2" d="M55,70c21.31,0,33-17.66,33-33,0-.5,0-1,0-1.5a23.58,23.58,0,0,0,5.78-6,23.13,23.13,0,0,1-6.66,1.82A11.63,11.63,0,0,0,92.18,25a23.22,23.22,0,0,1-7.36,2.81A11.6,11.6,0,0,0,65.07,38.36,32.9,32.9,0,0,1,41.19,26.25a11.6,11.6,0,0,0,3.59,15.47,11.5,11.5,0,0,1-5.26-1.45v.15a11.59,11.59,0,0,0,9.3,11.36,11.57,11.57,0,0,1-5.23.2,11.6,11.6,0,0,0,10.83,8A23.25,23.25,0,0,1,40,65a23.59,23.59,0,0,1-2.76-.17A32.81,32.81,0,0,0,55,70"/></g></g></g></svg>