<svg xmlns="http://www.w3.org/2000/svg" viewBox="0 0 371.38 17.63"><defs><style>.cls-1{fill:#231f20;}.cls-2{fill:gray;}</style></defs><title>Asset 1</title><g id="Layer_2" data-name="Layer 2"><g id="Layer_1-2" data-name="Layer 1"><path class="cls-1" d="M7.91,3.16V17.48H4.53V3.16H0v-3H12.44v3Z"/><path class="cls-1" d="M24.21,17.48V10.23H18.34v7.26H15V.15h3.38V7.23h5.87V.15H27.6V17.48Z"/><path class="cls-1" d="M31.25,17.48V.15H42.67v3h-8V7.23h6.84v3H34.63v4.21h8v3Z"/><path class="cls-1" d="M61.88,17.48,55,6.84V17.48H51.63V.15h3l6.87,10.62V.15H64.9V17.48Z"/><path class="cls-1" d="M79.13,15.73a6.73,6.73,0,0,1-9.37,0C68,14,68.05,11.81,68.05,8.81s0-5.16,1.71-6.91a6.73,6.73,0,0,1,9.37,0c1.75,1.75,1.73,3.92,1.73,6.91S80.88,14,79.13,15.73ZM76.62,3.95A2.82,2.82,0,0,0,74.46,3a2.86,2.86,0,0,0-2.19.93c-.66.73-.83,1.53-.83,4.87s.17,4.14.83,4.87a2.86,2.86,0,0,0,2.19.93,2.81,2.81,0,0,0,2.17-.93c.66-.73.85-1.53.85-4.87S77.28,4.67,76.62,3.95Z"/><path class="cls-1" d="M93.2,17.48l-3.38-6.92H87.38v6.92H84V.15h6.79a5.24,5.24,0,0,1,5.62,5.31A4.67,4.67,0,0,1,93.25,10l3.87,7.47ZM90.57,3.16H87.38V7.74h3.19A2.26,2.26,0,0,0,93,5.45,2.26,2.26,0,0,0,90.57,3.16Z"/><path class="cls-1" d="M112,17.48V7.38L108.68,14h-2.29l-3.34-6.57v10.1H99.67V.15H103l4.53,9.37L112,.15h3.34V17.48Z"/><path class="cls-1" d="M129.39,17.48l-1-3.07h-6.16l-1,3.07h-3.53L123.94.15h2.65l6.33,17.34Zm-4-12.22-2.19,6.31h4.31Z"/><path class="cls-1" d="M140.08,3.16V17.48h-3.38V3.16h-4.53v-3h12.44v3Z"/><path class="cls-1" d="M147.12,17.48V.15h3.38V17.48Z"/><path class="cls-1" d="M160.94,17.48H158.4L152.68.15h3.51l3.48,11.3L163.15.15h3.53Z"/><path class="cls-1" d="M168.9,17.48V.15h11.42v3h-8V7.23h6.84v3h-6.84v4.21h8v3Z"/><path class="cls-2" d="M204.33,17.33V7.4l-3.25,6.45h-2.25L195.56,7.4v9.92h-3.32V.3h3.27L200,9.51,204.38.3h3.27v17Z"/><path class="cls-2" d="M217.35,17.47a5.92,5.92,0,0,1-6.26-6V.3h3.32V11.37a3,3,0,1,0,5.91,0V.3h3.3V11.49A5.92,5.92,0,0,1,217.35,17.47Z"/><path class="cls-2" d="M231.72,17.47c-2.58,0-4.54-.55-6.22-2.25l2.15-2.15a5.57,5.57,0,0,0,4.11,1.43c2,0,3-.74,3-2.1a1.89,1.89,0,0,0-.53-1.43,2.53,2.53,0,0,0-1.51-.6l-2.06-.29a5.78,5.78,0,0,1-3.3-1.41,4.5,4.5,0,0,1-1.22-3.35c0-3,2.25-5.16,5.93-5.16a7.29,7.29,0,0,1,5.5,2l-2.1,2.08A4.74,4.74,0,0,0,232,3.05c-1.77,0-2.63,1-2.63,2.15a1.65,1.65,0,0,0,.5,1.22,3,3,0,0,0,1.58.67l2,.29a5.62,5.62,0,0,1,3.25,1.32A4.77,4.77,0,0,1,238,12.31C238,15.6,235.29,17.47,231.72,17.47Z"/><path class="cls-2" d="M240.72,17.33V.3H244v17Z"/><path class="cls-2" d="M253.35,17.47a6.27,6.27,0,0,1-4.59-1.86c-1.72-1.72-1.67-3.85-1.67-6.79s0-5.07,1.67-6.79a6.64,6.64,0,0,1,9.32.09l-2.2,2.2a3.19,3.19,0,0,0-2.54-1.2,2.69,2.69,0,0,0-2.1.88c-.64.72-.84,1.53-.84,4.81s.19,4.09.84,4.81a2.69,2.69,0,0,0,2.1.89,3.19,3.19,0,0,0,2.54-1.2l2.2,2.2A6.21,6.21,0,0,1,253.35,17.47Z"/><path class="cls-2" d="M272.34,17.47a6.27,6.27,0,0,1-4.59-1.86c-1.72-1.72-1.67-3.85-1.67-6.79s0-5.07,1.67-6.79A6.27,6.27,0,0,1,272.34.16a6.21,6.21,0,0,1,4.73,2l-2.2,2.2a3.2,3.2,0,0,0-2.54-1.2,2.69,2.69,0,0,0-2.1.88c-.65.72-.84,1.53-.84,4.81s.19,4.09.84,4.81a2.69,2.69,0,0,0,2.1.89,3.19,3.19,0,0,0,2.54-1.2l2.2,2.2A6.2,6.2,0,0,1,272.34,17.47Z"/><path class="cls-2" d="M289.69,15.6a6.61,6.61,0,0,1-9.2,0c-1.72-1.72-1.67-3.85-1.67-6.79s0-5.07,1.67-6.79a6.61,6.61,0,0,1,9.2,0c1.72,1.72,1.7,3.85,1.7,6.79S291.41,13.88,289.69,15.6ZM287.23,4a2.76,2.76,0,0,0-2.13-.91,2.81,2.81,0,0,0-2.15.91c-.65.72-.81,1.51-.81,4.78s.17,4.06.81,4.78a2.81,2.81,0,0,0,2.15.91,2.76,2.76,0,0,0,2.13-.91c.65-.72.84-1.51.84-4.78S287.87,4.75,287.23,4Z"/><path class="cls-2" d="M306.58,17.33V7.4l-3.25,6.45h-2.25L297.8,7.4v9.92h-3.32V.3h3.27l4.45,9.21L306.62.3h3.28v17Z"/><path class="cls-2" d="M320.1,10.92h-3.27v6.41H313.5V.3h6.6a5.25,5.25,0,0,1,5.62,5.31A5.25,5.25,0,0,1,320.1,10.92Zm-.17-7.65h-3.11V7.93h3.11a2.25,2.25,0,0,0,2.46-2.32A2.27,2.27,0,0,0,319.94,3.27Z"/><path class="cls-2" d="M337,17.33l-1-3h-6l-1,3h-3.46l6.19-17h2.61l6.21,17Zm-4-12-2.15,6.19h4.23Z"/><path class="cls-2" d="M352.7,17.33,346,6.88V17.33h-3.32V.3h3l6.74,10.42V.3h3.32v17Z"/><path class="cls-2" d="M366.26,10.34v7H363v-7L357.85.3h3.61l3.18,6.86L367.77.3h3.61Z"/></g></g></svg>