<svg xmlns="http://www.w3.org/2000/svg" viewBox="0 0 530.81 126.32"><defs><style>.cls-1{fill:#fc7a21;}.cls-2{fill:#ffa351;}</style></defs><title>Asset 1</title><g id="Layer_2" data-name="Layer 2"><g id="Layer_1-2" data-name="Layer 1"><path class="cls-1" d="M184.22,27.81a20.29,20.29,0,0,1,5.37.63l2.52-12.73a32.19,32.19,0,0,0-8.31-.95c-10.73,0-19.25,4.84-21.46,15.15l-1.47,6.63h-8.73l-2.95,14.31h8.73l-6.86,33.64-.62,2.5c-1.25,4.63-3.16,6-7.68,6-.72,0-1.42,0-2.09-.09l-2.56,12.88a39.11,39.11,0,0,0,5.72.4c10.73,0,19.25-4.84,21.46-15.15l.32-1.46h.08l.93-4.58.13-.59h0l6.84-33.55h10.1l2.95-14.31H176l.53-2.74C177.49,29.28,179.7,27.81,184.22,27.81Z"/><path class="cls-1" d="M243.26,36.54H227.48l-5.89,29c-1.68,8-6.21,11.36-11.89,11.36-5.37,0-8-3.16-8-7.15a17.65,17.65,0,0,1,.32-3.05l6.21-30.2H192.44l-6.52,30.83a33.56,33.56,0,0,0-.63,5.68c0,10.52,7.79,17.78,20.94,17.78,7.89,0,12.52-1.89,16.2-6.84l.11.21a9.17,9.17,0,0,0,3.26,3.89A12,12,0,0,0,232.52,90a22.06,22.06,0,0,0,6.21-.74l2.63-13a15.85,15.85,0,0,1-2.31.21c-1.89,0-3.05-1.37-3.05-3.58a10.05,10.05,0,0,1,.32-2.31Z"/><path class="cls-1" d="M298.75,73.26a10.22,10.22,0,0,1,.32-2.42l2.53-12.2a30,30,0,0,0,.53-5.37c0-11.47-7.36-17.89-17.78-17.89-6.1,0-11.15,2.42-15,8.21l1.47-7H255l-10.73,53h15.68l5.89-29.46c1.26-6.42,5.68-10.84,11.57-10.84,5.37,0,8.31,2.84,8.31,7.79a10.43,10.43,0,0,1-.32,2.95l-2.31,11.78a35.9,35.9,0,0,0-.95,6.52c0,6.94,4.63,11.68,11.78,11.68,4.84,0,6.21-.63,6.42-.74L303,76.52a13.89,13.89,0,0,1-1.79.11C299.59,76.63,298.75,75.36,298.75,73.26Z"/><path class="cls-1" d="M363.27,73.47a10.9,10.9,0,0,1,.32-2.32l11.15-54.92H359.27L353.8,42.85c-1.47-3.68-7.89-7.26-17.25-7.26-15.89,0-30.41,13.89-30.41,30.62,0,14.73,10.94,24.2,24.94,24.2,8.63,0,14-1.89,18.2-6.63l.1.32A9.05,9.05,0,0,0,353,88.41a13.46,13.46,0,0,0,7.15,1.89,22.06,22.06,0,0,0,6.21-.74l2.63-13a15.65,15.65,0,0,1-2.31.21A3.07,3.07,0,0,1,363.27,73.47ZM335,76.31c-7.89,0-13-4.84-13-11.68,0-7.68,6.84-14.94,15.68-14.94,7.79,0,13,4.73,13,11.36C350.65,69.79,343.6,76.31,335,76.31Z"/><path class="cls-1" d="M402.46,35.28a31,31,0,0,0-31,31C371.42,81,381.94,91,397.94,91a33,33,0,0,0,23.78-9.47l-8.1-9.26a19.21,19.21,0,0,1-13.15,5.47c-8.42,0-13.57-3.89-13.57-9.68a2,2,0,0,1,.11-.84h39.56a28.87,28.87,0,0,0,1.26-8C427.82,45.48,417.82,35.28,402.46,35.28Zm10.31,21.78H387.94c2-4.94,7.37-8.84,14.2-8.84,6.31,0,10.63,3.68,10.63,8.52Z"/><path class="cls-1" d="M473.79,35.91a31.37,31.37,0,0,0-5.58-.53c-6.31,0-11.47,2.42-15.47,8.21l1.58-7H438.54l-10.84,53h15.78l4.84-23.78c2-9.68,7.79-15.89,16.41-15.89a38.14,38.14,0,0,1,12.17-13.23Z"/><path class="cls-1" d="M523.45,73.47a10.9,10.9,0,0,1,.32-2.32l7-34.61H515.34L514,42.85c-1.47-3.68-7.89-7.26-17.25-7.26-15.89,0-30.41,13.89-30.41,30.62,0,14.73,10.94,24.2,24.94,24.2,8.63,0,14-1.89,18.2-6.52l.1.21a8.71,8.71,0,0,0,3.79,4.42,13.92,13.92,0,0,0,6.94,1.79,22.06,22.06,0,0,0,6.21-.74l2.63-13a15.65,15.65,0,0,1-2.31.21A3.07,3.07,0,0,1,523.45,73.47Zm-28.3,2.84c-7.89,0-13-4.84-13-11.68,0-7.68,6.84-14.94,15.68-14.94,7.79,0,13,4.73,13,11.36C510.82,69.79,503.77,76.31,495.14,76.31Z"/><path class="cls-1" d="M138.24,62.68"/><path class="cls-2" d="M68.33,55.35a6.39,6.39,0,0,0-9,0L12.89,101.38A63.15,63.15,0,1,1,120.83,37.43l-34,33.77h0a2.29,2.29,0,0,1-1.39.63,1.68,1.68,0,0,1-1.3-.57Z"/><path class="cls-1" d="M85.37,88a6.39,6.39,0,0,1-4.51-1.89L65.15,70.28h0a1.9,1.9,0,0,0-1.39-.66,2.06,2.06,0,0,0-1.4.66h0L21.62,110.71A63.15,63.15,0,0,0,125.16,51.13l-35.27,35A6.39,6.39,0,0,1,85.37,88Z"/></g></g></svg>