<svg xmlns="http://www.w3.org/2000/svg" viewBox="0 0 558.54 150.92"><defs><style>.cls-1{fill:#808184;}.cls-2{fill:#00adee;}.cls-3{fill:#6c757d;}</style></defs><title>Asset 1</title><g id="Layer_2" data-name="Layer 2"><g id="Layer_1-2" data-name="Layer 1"><path class="cls-1" d="M176.66,118.56c-9.34,0-15.28-2.18-21.72-8.13l7.89-7.89c3.88,3.64,7.28,5.46,13.35,5.46,10.43,0,14.44-7.4,14.44-15.65V84.47c-4.49,5.34-9.59,7-15.9,7S163.44,89.44,160,86c-5.95-5.95-6.92-14.56-6.92-25s1-19.05,6.92-25c3.4-3.4,8.62-5.34,14.8-5.34,6.55,0,11.53,1.7,16.14,7.28V31.44h12V92.6C203,107.65,193,118.56,176.66,118.56Zm1.46-76.81C167,41.76,165.5,51.34,165.5,61S167,80.34,178.12,80.34s12.5-9.59,12.5-19.29S189.29,41.76,178.12,41.76Z"/><path class="cls-1" d="M247.66,39.67a27.83,27.83,0,0,0-2.84,5.92C242,42.8,239,41.76,234.73,41.76c-6.68,0-12.25,5.34-12.25,13.83V93H210.1V31.44h12.14v6.68c3.16-4.37,9.46-7.4,16.38-7.4,5.17,0,9.25,1.19,13,4.3A30.35,30.35,0,0,0,247.66,39.67Z"/><path class="cls-1" d="M291.83,86.41c-4,4.12-10.07,7.28-18.44,7.28s-14.32-3.16-18.32-7.28c-5.82-6.07-7.28-13.83-7.28-24.27s1.46-18.08,7.28-24.15c4-4.12,10-7.28,18.32-7.28s14.44,3.16,18.44,7.28c5.83,6.07,7.28,13.83,7.28,24.15S297.66,80.34,291.83,86.41Zm-9.34-41.14a12.54,12.54,0,0,0-9.1-3.52,12.26,12.26,0,0,0-9,3.52c-3.76,3.76-4.24,10.19-4.24,16.87s.48,13.11,4.24,16.87a12.35,12.35,0,0,0,9,3.64,12.62,12.62,0,0,0,9.1-3.64c3.76-3.76,4.25-10.19,4.25-16.87S286.25,49,282.49,45.27Z"/><path class="cls-1" d="M341.52,93V86.77a22,22,0,0,1-16.38,6.92c-6.31,0-11.53-2.07-15.17-5.58-4.73-4.61-6.19-10.44-6.19-17.35V31.44h12.38V68.94c0,9.59,5.46,13.71,12.38,13.71s12.74-4.25,12.74-13.71V31.44h12.38V93Z"/><path class="cls-1" d="M402.83,88.23c-3.4,3.4-8.74,5.46-14.93,5.46-6.55,0-11.64-1.7-16.14-7v31.18H359.39V31.44h12.13V38c4.61-5.58,9.59-7.28,16.26-7.28,6.19,0,11.65,2.06,15,5.46,6.19,6.19,6.92,16.62,6.92,26S409,82,402.83,88.23Zm-18.2-46.47c-11.16,0-12.86,9.47-12.86,20.39s1.7,20.51,12.86,20.51,12.74-9.59,12.74-20.51S395.79,41.76,384.63,41.76Z"/><path class="cls-2" d="M416.57,60.31c0-23.28-8.85-28.87-8.85-28.87h19v6.19a22.27,22.27,0,0,1,16.38-6.92c7.65,0,13.59,3,17.47,9,5-6.07,11.16-9,19.29-9,6.31,0,11.89,2.06,15.53,5.58,4.73,4.61,6.55,10.44,6.55,17.35V93H489.55V55.47c0-9.59-5.46-13.71-12.38-13.71-6.67,0-12.74,4.25-12.74,13.11V93H452.06V55.47c0-9.59-5.46-13.71-12.38-13.71S426.94,46,426.94,55.47V93H408.81S416.57,89.17,416.57,60.31Z"/><path class="cls-2" d="M518.61,65.78c0,10.56,5.58,17.23,15.65,17.23,6.91,0,10.56-1.94,14.93-6.31l7.89,7.4c-6.31,6.31-12.26,9.59-23.06,9.59-15.41,0-27.67-8.13-27.67-31.55,0-19.9,10.32-31.43,26.09-31.43,16.5,0,26.09,12.13,26.09,29.61v5.46Zm26-17A12.67,12.67,0,0,0,532.45,41a12.85,12.85,0,0,0-12.26,7.77c-1.21,2.79-1.46,4.61-1.58,8.37h27.67A19.4,19.4,0,0,0,544.58,48.79Z"/><path class="cls-3" d="M266.83,25.45"/><rect class="cls-2" x="60.63" y="41.34" width="10.03" height="10.03"/><path class="cls-2" d="M102.65,0h-74A28.65,28.65,0,0,0,0,28.65v74A28.65,28.65,0,0,0,28.65,131.3H53.28l12.24,19.62L77.77,131.3h24.88a28.65,28.65,0,0,0,28.65-28.65v-74A28.65,28.65,0,0,0,102.65,0ZM39.2,51.37H49.82v-10H39.2V30.53H49.82V19.91H60.63V30.53h10V19.91H81.47V30.53H92.09V41.34H81.47v10H92.09V62.18H81.47V72.8H70.66V62.18h-10V72.8H49.82V62.18H39.2Zm76.06,33.1a55.68,55.68,0,0,1-48.17,26.89H64.3A55.68,55.68,0,0,1,16.13,84.46a8.87,8.87,0,0,1-.92-3.64,5.28,5.28,0,0,1,2.36-4.46,6.29,6.29,0,0,1,2.74-1.05c4.08-.43,6.45,2.22,8.39,5.26,2.15,3.35,14.54,18,37,18.58,22.46-.56,34.85-15.23,37-18.58,1.94-3,4.4-5.7,8.39-5.26a6.29,6.29,0,0,1,2.74,1.05,4.93,4.93,0,0,1,2.37,4.46A7.49,7.49,0,0,1,115.26,84.46Z"/></g></g></svg>