<svg xmlns="http://www.w3.org/2000/svg" viewBox="0 0 883.24 625.88"><defs><style>.cls-1{fill:#fff;}</style></defs><title>Asset 1</title><g id="Layer_2" data-name="Layer 2"><g id="Layer_1-2" data-name="Layer 1"><g id="Layer_2-2" data-name="Layer 2"><g id="Layer_1-2-2" data-name="Layer 1-2"><path class="cls-1" d="M162.31,407c27.23-28.61,33.09-40.3,27-51.43-4.14-7.58-3-15.43-17.8-12.68-10.4,2-19.11,9.22-27.26,13.68-13,7.09-29.69,17.1-37.25,28.34-2.55,3.76-3.51-2.27-1.89,6.45,0,0,5.19,16.19,10.39,47.42C119.56,463.2,162.31,407,162.31,407Z"/><path class="cls-1" d="M469.73,411.76s-45.87,51.67-23,78.1,51.71,15,60.64-16.6S504.57,379,469.73,411.76Z"/><path class="cls-1" d="M300.25,307q-5.3,6.27-11.65,18.88-4.63,9.8-9.3,19.41l28-14.33c-1.54-4.3-.91-9-2.45-13.27C302.9,312.32,303,308.5,300.25,307Z"/><path class="cls-1" d="M0,0V625.88H883.24V0ZM710.26,187.72q28.41,3.06,34.93,29.88,5.2,21.42-23,51-20.1,21.31-55.25,44.41l-31.16,19q-9.48,5.81-25.77,17.7-9,6.42-15.92,8.11t-9.69-.41q-2.08-1.71-3.56-7.8-3.18-13.06-1.44-43.09c1.74-30,7.74-40.65,7.72-72.24,0-7.15-.49-11.87,0-14.21q1.57-7.21,8.53-8.9a21.53,21.53,0,0,1,4.48-.54L639,201q6.23-3.17,28.53-8.59Q694.32,185.88,710.26,187.72ZM519.82,74.38c.86-1.21,4-5.69,7.82-7.33,6.42-2.79,8.09-.14,9.47.45q27,31,42.82,90c1.86,5.38,5.21,5.38,9.23,6.08q8-21.56,18.11-64.51c4.34-18.08,12-46,13.47-50.6q10.26-29.73,23.71-32,5.85-1,8.22,3.64a31.58,31.58,0,0,1,1.49,6.56c.91,5.46-6.33,36.87-12.3,61.22q-9.62,39.66-21.43,68.66-14.66,35.89-26.74,37.9-10.72,1.78-26-16.32-11-13-24-35.87L531,119.16S520,199,511.38,210c-3.38,4.29-7.15,5.8-9.49,6.19q-8.77,1.46-14.78-5.75a24.87,24.87,0,0,1-5.65-12.28,50.17,50.17,0,0,1,.36-19.49q5.36-23.12,20-65.22Q510.66,87.92,519.82,74.38ZM560.18,250c-3.84,17.06-3.52,38.1-7.36,55.16-1.76,10.31-3.35,42.85-6.8,47.55-2.62,2.71-14.53,10.78-16.74,11.15q-12.86,2.14-15.94-16.38c-1.86-11.17,2.57-23.63,4.7-36.53,1-6.3-.21-20,5.09-41.91s9.51-42.34,12.64-61.29a15.51,15.51,0,0,1,8.94-5.29c2.34-.39,10-6.21,17-4.59C576.24,201.2,564.3,229.79,560.18,250ZM345.06,359.72q1.67,17.49.11,28.57-2.1,15.63-10.11,17.58-11.84,2.88-18.66-25.17-1.69-7-3-16-1.23-8.18-1.24-8.47-.43-.27-.61-1.41c-.13-.77-.6-1-1.41-.86q-3.66.89-19.83,7.21c-13.45,5.36-14.27,5-21.16,9-.55.26-4.25,6.63-6.81,12.79-3,7.26-6.73,18-7.32,19.09-3.06,7.14-3.81,9.94-6.87,17.07-3.59,7.51-16.22,11.77-22.6,13.33q-14.11,3.43-17.33-9.81-2.71-11.14,39.92-74.81,25.58-36.65,51-73.26,2.63-3.59,8.78-7.12a46.85,46.85,0,0,1,10.94-4.32q8.71-2.11,12.54,3.78,1.72,2.53,4.13,12.46l7,44,24.21-5.88q3.61-1.06,6.64,2.26.5,9.65-.78,12.73t-5.81,4.18q-1,.26-4.4.88t-5.62,1.18q.35-.09-6.1,2.22-5.27,1.84-7.49,1.82Q344.12,351.28,345.06,359.72Zm20.2-55c-12.67,4.44-12.56-27.66,11.59-29,3.43-.2,6.79-1.73,10-.87,10.16,2.7,14,3.39,18.54,8.56,3.19,3.53,7.2,7,11,18q3.5,9.85,6.45,17.43,6.07,15.14,9.86,20.11c2.91,3.34,11.46,16.19,17.57-5.56a50.94,50.94,0,0,1,4.59-11.45q3.22-6.5,12.27-39.87,8.69-31.81,10.18-40.84,1.18-7.29,6.16-10.35,2.75-1.58,11.5-3.53c2.35-.45,9,3.26,10.48,9.18q1.31,5.4-9.46,43.06-11,38.28-23.11,69.62c-9.32,24.4-16.06,26-36.93,31.18-4.76,1.19-11.27-4.88-19.53-18.12q-6.37-10.27-19.88-37.78-10.3-20.37-12-20C382.84,304.91,377.93,300.23,365.26,304.67ZM440.49,146q8-32.87,12.64-61.29a15.51,15.51,0,0,1,8.94-5.29s22.75-9.1,21.8,6.21S473,127.7,473,127.7l-11.52,51.19c-1.76,10.31-17.77,48.65-17.78,72.69-1,10.49-10,10-12.2,10.4q-12.86,2.14-15.94-16.38c-1.86-11.17,13.4-44.38,15.53-57.29Q432.54,178.86,440.49,146Zm-153.21,6.51c2-18.61,25.73-17.24,25.73-17.24,9.09-1.51,16,4.1,20.56,10.14q4.84,6.21,9.74,24.82,3,11.11,5.68,19.69,5.45,17.12,9.22,22.9a69.77,69.77,0,0,0,7.18-12.21q5.19-10.88,6-12.21,4.06-6.88,16.71-42.84,12.13-34.26,14.51-44.08,1.88-7.92,7.61-10.88,3.15-1.52,12.92-3,3.93-.45,5.59,9.49,1,6-13.88,46.58-15.2,41.19-31,74.67-18.34,39.11-25.35,40.27-8,1.33-20-21.51-6.17-11.79-18.8-43.14c-6.45-15.48-10.81-21.87-11.62-22.9-4.21-5.36-7.63-3.74-7.63-3.74a3.34,3.34,0,0,0-.94.36q-11.67,3.34-13-4.65-.51-2.71.77-10.54ZM175.52,207.88q8.72-51.12,13.73-57.17,5.62-7.14,37.59-12.46,16.57-2.76,21.25-2.33c6.76.48,17,3.68,20.43,9.62s-1.66,9.29-1.66,9.29a91.69,91.69,0,0,1-13.12,3q-1.75.29-5.69.75l-5.65.94q-16.57,2.76-23.13,7.85-9.62,7.21-7.09,22.41l1.17,8.22q11.73-1.75,38.85-8.47c19-4.63,22.26-3.78,28.45-3.87,19-.27,9.76,16.22,9.76,16.22-14.54,5.76-14.77,3-41.8,10.68q-26.41,7.4-34.73,15.19-10.76,10-12,34.85c1.52,9,8.9,5.49,16.31,4.26,1.56-.26,10.89-6.51,27.63-15.91s44.41-22.56,46-22.82q7-1.17,10.4-.13c3.89,1,13.12,2.57,12.31,9-3.77,11-36.43,28.44-57.79,42.14q-30.6,19.51-52.63,23.18-15.2,2.53-23.1-1.57-9-4.91-11.49-19.72C161.76,234.71,174.95,211.24,175.52,207.88Zm-128.78,173a12.85,12.85,0,0,1-7.89,4.32c-7,1.17-19.22-2-20.71-11-.56-3.38,2.07-16.74,5.15-49.57,3.71-39,14.59-76.57,19.57-102q10.34-52.2,22.62-54.24,7.79-1.3,10,12.15,2.21,13.26-2.9,41.54-5.4,30-4.81,35.89,14.55-7.63,41.59-33c14.93-13.83,30.23-55.69,39.33-57.2q4.09-.68,10,1.74t6.53,6.12c1.21,7.28-12.72,53.37-35.2,69.93L83.55,277l72.24,15.22a4,4,0,0,1,1.4,2.37q1.39,8.38-9.13,14.94-7.28,4.41-12.93,5.36-12.67,2.11-39.3-2.68-2.25-.23-39.4-8.07-3.36,16-9.69,76.71Zm58.57,108.65q-2.24-1-5-6-5.9-10.79-11.49-37.75c-3.72-18-2.07-24.47-5.58-30.89L82,400.68c.39-2.71-5.32-31.91-5.4-34.11a9.89,9.89,0,0,1,5.4-9.88,19.7,19.7,0,0,1,3.83-1.54l32-13.1c3.17-2.85,10.9-3,23.18-9.76Q163.17,320.17,177.7,318q25.84-4,38,18.13,9.68,17.7-8.27,50.51Q194.7,410.25,169.12,439q-.7.77-23,24.19c-4.67,4.92-9.57,12.51-18,15.66-4.26,5.2-10.22,6.64-14.06,8.74S107.25,490.33,105.31,489.53ZM390.2,523.62c-17.7-13.25-26.51-20.64-47.22-21s-34.16-14.15-30-20.83a21.23,21.23,0,0,1,11.22-8.6s28.46-17.59,48.86-25.69,11.72-17.79-3-15.52-57.44,29-57.44,29S294.4,500,291,534.39,264.24,617,252.5,607.16c-5.79-4.85-2.59-24.42,2.15-43-124.66,62.93-155.38,9.14-143-28,12.85-38.45,79.24-73.21,102.87-84.21s35.89,3.5,30.59,16.26S198.59,491,198.59,491c-41.24,10-79.66,59.75-41.08,70.31s85.6-28,100.52-34c6.43-2.63,8.18-3.22,8.55-2.23L281,477s-21.4-15.76-7-25.72,92.31-53,122.33-54.41,25.72,42.54,11.88,57.13-53.87,26.79-53.87,26.79C362,481.94,382,484,382,484,430.87,502.81,409.37,538,390.2,523.62Zm133.47-22.7c-16.31,39.2-87.17,37.65-103.17,8.75s-7-60.9,22.59-99.43c22.29-29,46.93-29.06,46.93-29.06,57.73,6.49,49.61,81.38,33.65,119.74ZM693.73,345.64C688,366,699,408.45,676,451c-27.55,50.79-49.55-21.28-49.55-21.28s-29.32,68.72-48,73.46c-16.52,4.19-15.34-40.4-24.93-65.78-11.38-30.14-15.75-51.4-15.75-51.4s10.62-23.75,23.9-13.81,24.17,89.14,24.17,89.14l17.66-48s11.3-40.33,21.57-38.61S651.6,433.5,651.6,433.5s20-26.87,15.47-84.71C664.14,311,699.45,325.22,693.73,345.64Zm135.9,62.16c-53.19,26.84-98.39,47.52-113.23,35.08s-9.86-136.69-9.86-136.69,46.75-27.19,84.7-35.46c0,0,20.26-15.7,25.79,1.41s-37.79,29-37.79,29l-45,18.23s-12.38,13.55-3.78,21.78,48.27-7.71,48.27-7.71,16.11-10.76,16.76.92-12.87,22.57-36.5,29S730.8,359.23,729.88,376s.82,41.8,15,42.57,81.77-34.81,94.81-52.89c8.21-11.39,19.48-1.52,19.48-1.52s23.65,16.84-29.54,43.63Z"/><path class="cls-1" d="M616.61,244.79c-3.66,6-3.71,13.68-4.07,15.25-2.18,9.26,1.32,23.52,1,37.71-.19,9.36.91,13.64,12,10s43.74-26.7,43.74-26.7c29.65-21.3,52.19-38.18,48.92-51.66-2.23-9.17-5.1-15.9-21.53-17.2a102.13,102.13,0,0,0-32.09,2.26q-23.52,5.71-40.26,20.3C620.55,238.05,619.24,240.44,616.61,244.79Z"/></g></g></g></g></svg>