<svg xmlns="http://www.w3.org/2000/svg" viewBox="0 0 88 62.01"><defs><style>.cls-1{fill:#fff;}</style></defs><title>Asset 3</title><g id="Layer_2" data-name="Layer 2"><g id="Layer_1-2" data-name="Layer 1"><path class="cls-1" d="M16.17,40.25c2.71-2.83,3.3-4,2.69-5.09-.41-.75-.3-1.53-1.77-1.25a9.59,9.59,0,0,0-2.72,1.35,11.13,11.13,0,0,0-3.71,2.8c-.25.37-.35-.22-.19.64a36.68,36.68,0,0,1,1,4.69C11.91,45.81,16.17,40.25,16.17,40.25Z"/><path class="cls-1" d="M46.8,40.72s-4.57,5.11-2.29,7.72,5.15,1.48,6-1.64S50.27,37.48,46.8,40.72Z"/><path class="cls-1" d="M29.91,30.36a9.83,9.83,0,0,0-1.16,1.87l-.93,1.92,2.78-1.42c-.15-.43-.09-.89-.24-1.31S30.19,30.51,29.91,30.36Z"/><path class="cls-1" d="M88,0H0V62H88ZM70.77,18.56a3.65,3.65,0,0,1,3.48,3q.52,2.12-2.29,5A31,31,0,0,1,66.45,31l-3.1,1.88q-.94.57-2.57,1.75a4.85,4.85,0,0,1-1.59.8,1.19,1.19,0,0,1-1,0,1.49,1.49,0,0,1-.35-.77,16.07,16.07,0,0,1-.14-4.26c.17-3,.77-4,.77-7.14a11.1,11.1,0,0,1,0-1.41,1.07,1.07,0,0,1,.85-.88,2.17,2.17,0,0,1,.45-.05l3.87-1A16.68,16.68,0,0,1,66.51,19,12.85,12.85,0,0,1,70.77,18.56Zm-19-11.21a2.19,2.19,0,0,1,.78-.72c.64-.28.81,0,.94,0a22.18,22.18,0,0,1,4.27,8.9c.19.53.52.53.92.6A57.47,57.47,0,0,0,60.5,9.8c.43-1.79,1.2-4.54,1.34-5q1-2.94,2.36-3.16A.7.7,0,0,1,65,2a3.1,3.1,0,0,1,.15.65A39.88,39.88,0,0,1,64,8.69a48.17,48.17,0,0,1-2.14,6.79Q60.35,19,59.15,19.23t-2.59-1.61a23.83,23.83,0,0,1-2.39-3.55l-1.26-2.29s-1.1,7.89-2,9a1.57,1.57,0,0,1-.95.61,1.5,1.5,0,0,1-1.47-.57A2.45,2.45,0,0,1,48,19.59a4.93,4.93,0,0,1,0-1.93q.53-2.29,2-6.45A17,17,0,0,1,51.79,7.36Zm4,17.37c-.38,1.69-.35,3.77-.73,5.46-.18,1-.33,4.24-.68,4.7A7.81,7.81,0,0,1,52.73,36q-1.28.21-1.59-1.62a11.93,11.93,0,0,1,.47-3.61,22.51,22.51,0,0,1,.51-4.14q.79-3.25,1.26-6.06a1.55,1.55,0,0,1,.89-.52c.23,0,1-.61,1.69-.45C57.41,19.9,56.22,22.72,55.81,24.72ZM34.38,35.57a12.37,12.37,0,0,1,0,2.83q-.21,1.55-1,1.74-1.18.28-1.86-2.49-.17-.69-.3-1.58t-.12-.84s0-.06-.06-.14S31,35,30.9,35q-.36.09-2,.71a12.81,12.81,0,0,0-2.11.89,6.24,6.24,0,0,0-.68,1.26c-.3.72-.67,1.78-.73,1.89-.3.71-.38,1-.68,1.69s-1.62,1.16-2.25,1.32a1.24,1.24,0,0,1-1.73-1q-.27-1.1,4-7.4l5.08-7.24a2.8,2.8,0,0,1,.87-.7A4.69,4.69,0,0,1,31.77,26,1.05,1.05,0,0,1,33,26.4a4.7,4.7,0,0,1,.41,1.23l.7,4.35,2.41-.58a.62.62,0,0,1,.66.22,3.46,3.46,0,0,1-.08,1.26.76.76,0,0,1-.58.41l-.44.09-.56.12-.61.22a2.62,2.62,0,0,1-.75.18Zm2-5.44c-1.26.44-1.25-2.74,1.15-2.87a3.26,3.26,0,0,1,1-.09c1,.27,1.39.34,1.85.85a4.17,4.17,0,0,1,1.1,1.78q.35,1,.64,1.72a9.69,9.69,0,0,0,1,2c.29.33,1.14,1.6,1.75-.55a5,5,0,0,1,.46-1.13,32.79,32.79,0,0,0,1.22-3.94q.87-3.15,1-4a1.38,1.38,0,0,1,.61-1,4.87,4.87,0,0,1,1.15-.35,1.26,1.26,0,0,1,1,.91,16.74,16.74,0,0,1-.94,4.26q-1.1,3.79-2.3,6.88c-.93,2.41-1.6,2.57-3.68,3.08-.47.12-1.12-.48-1.95-1.79q-.63-1-2-3.74-1-2-1.2-2A2.7,2.7,0,0,0,36.39,30.13Zm7.5-15.69q.79-3.25,1.26-6.06A1.55,1.55,0,0,1,46,7.85s2.27-.9,2.17.61a19.88,19.88,0,0,1-1.08,4.16L46,17.69c-.18,1-1.77,4.81-1.77,7.19a1.12,1.12,0,0,1-1.22,1q-1.28.21-1.59-1.62c-.19-1.1,1.33-4.39,1.55-5.67Q43.1,17.69,43.89,14.44Zm-15.26.64h0c.2-1.84,2.56-1.7,2.56-1.7a2.16,2.16,0,0,1,2,1,7.52,7.52,0,0,1,1,2.45q.3,1.1.57,1.95A10.68,10.68,0,0,0,35.69,21a6.89,6.89,0,0,0,.72-1.21q.52-1.08.6-1.21a36.28,36.28,0,0,0,1.66-4.24Q39.88,11,40.11,10A1.52,1.52,0,0,1,40.87,9a5.42,5.42,0,0,1,1.29-.3q.39,0,.56.94.1.59-1.38,4.61t-3.09,7.38q-1.83,3.87-2.53,4t-2-2.13q-.61-1.17-1.87-4.27a11.48,11.48,0,0,0-1.16-2.26c-.42-.53-.76-.37-.76-.37l-.09,0q-1.16.33-1.3-.46A3.66,3.66,0,0,1,28.62,15.08ZM17.49,20.56q.87-5.06,1.37-5.65t3.75-1.23a11.28,11.28,0,0,1,2.12-.23,2.79,2.79,0,0,1,2,1,.66.66,0,0,1-.17.92,9.2,9.2,0,0,1-1.31.3l-.57.07-.56.09a5.4,5.4,0,0,0-2.3.78,2.1,2.1,0,0,0-.71,2.22l.12.81q1.17-.17,3.87-.84A8.81,8.81,0,0,1,28,18.36c1.89,0,1,1.6,1,1.6-1.45.57-1.47.3-4.16,1.06a9.1,9.1,0,0,0-3.46,1.5A4.9,4.9,0,0,0,20.11,26c.15.89.89.54,1.63.42.16,0,1.08-.64,2.75-1.57s4.42-2.23,4.58-2.26a2.46,2.46,0,0,1,1,0c.39.1,1.31.25,1.23.89-.38,1.09-3.63,2.81-5.76,4.17a14.89,14.89,0,0,1-5.24,2.29,3.79,3.79,0,0,1-2.3-.16,2.53,2.53,0,0,1-1.14-2A12.48,12.48,0,0,1,17.49,20.56ZM4.66,37.66h0a1.28,1.28,0,0,1-.79.43c-.7.12-1.92-.2-2.06-1.09-.06-.33.21-1.66.51-4.9A92.05,92.05,0,0,1,4.27,22q1-5.16,2.25-5.36.78-.13,1,1.2A13.22,13.22,0,0,1,7.23,22a20.78,20.78,0,0,0-.48,3.55,22.08,22.08,0,0,0,4.14-3.26c1.49-1.37,3-5.51,3.92-5.66a1.89,1.89,0,0,1,1,.17q.59.24.65.61c.12.72-1.27,5.28-3.51,6.92L8.32,27.39l7.2,1.51a.4.4,0,0,1,.14.23q.14.83-.91,1.48a3.8,3.8,0,0,1-1.29.53,12.76,12.76,0,0,1-3.92-.26q-.22,0-3.93-.8Q5.29,31.66,4.66,37.66Zm5.84,10.75a1.36,1.36,0,0,1-.5-.6,14.79,14.79,0,0,1-1.14-3.73c-.37-1.78-.21-2.42-.56-3.05l-.12-1.4c0-.27-.53-3.16-.54-3.37a1,1,0,0,1,.54-1,2,2,0,0,1,.38-.15l3.19-1.3c.32-.28,1.09-.3,2.31-1a11.75,11.75,0,0,1,3.66-1.41,3.37,3.37,0,0,1,3.79,1.79q1,1.75-.82,5a28.28,28.28,0,0,1-3.82,5.18l-2.29,2.39a5,5,0,0,1-1.79,1.55,3.79,3.79,0,0,1-1.4.86A1.11,1.11,0,0,1,10.49,48.41Zm28.38,3.37c-1.76-1.31-2.64-2-4.7-2.08s-3.4-1.4-3-2.06a2.11,2.11,0,0,1,1.12-.85,39.86,39.86,0,0,1,4.87-2.54c2-.8,1.17-1.76-.3-1.53s-5.72,2.87-5.72,2.87A26.6,26.6,0,0,0,29,52.85c-.34,3.4-2.67,8.17-3.83,7.2-.58-.48-.26-2.42.21-4.25C13,62,9.89,56.7,11.12,53s7.9-7.24,10.25-8.33,3.58.35,3,1.61-4.63,2.25-4.63,2.25c-4.11,1-7.94,5.91-4.09,7s8.53-2.77,10-3.36c.64-.26.82-.32.85-.22L28,47.17s-2.13-1.56-.7-2.54,9.2-5.24,12.19-5.38,2.56,4.21,1.18,5.65-5.37,2.65-5.37,2.65c.76.11,2.76.32,2.76.32C42.93,49.72,40.79,53.2,38.88,51.78Zm13.3-2.24c-1.62,3.88-8.69,3.72-10.28.87s-.7-6,2.25-9.83c2.22-2.87,4.68-2.87,4.68-2.87C54.57,38.34,53.77,45.74,52.17,49.54ZM69.12,34.18c-.57,2,.52,6.21-1.77,10.42-2.74,5-4.94-2.1-4.94-2.1s-2.92,6.8-4.78,7.26c-1.65.41-1.53-4-2.48-6.51a37,37,0,0,1-1.57-5.08s1.06-2.35,2.38-1.37,2.41,8.82,2.41,8.82l1.76-4.75s1.13-4,2.15-3.82,2.64,5.81,2.64,5.81,2-2.66,1.54-8.38C66.17,30.76,69.69,32.16,69.12,34.18Zm13.54,6.15h0C77.36,43,72.86,45,71.38,43.8s-1-13.52-1-13.52a36.27,36.27,0,0,1,8.44-3.51s2-1.55,2.57.14-3.77,2.87-3.77,2.87l-4.48,1.8s-1.23,1.34-.38,2.15S77.59,33,77.59,33s1.61-1.06,1.67.09S78,35.3,75.62,35.93s-2.81-.41-2.9,1.25.08,4.13,1.49,4.21,8.15-3.44,9.45-5.23A1.29,1.29,0,0,1,85.6,36S88,37.68,82.66,40.33Z"/><path class="cls-1" d="M61.43,24.21A3.8,3.8,0,0,0,61,25.72c-.22.92.13,2.33.1,3.73,0,.93.09,1.35,1.2,1a31.34,31.34,0,0,0,4.36-2.64c3-2.11,5.2-3.78,4.87-5.11-.22-.91-.51-1.57-2.15-1.7a10.25,10.25,0,0,0-3.2.22,9.38,9.38,0,0,0-4,2A3.37,3.37,0,0,0,61.43,24.21Z"/></g></g></svg>