<svg xmlns="http://www.w3.org/2000/svg" viewBox="0 0 111.13 111.13"><title>Asset 5</title><g id="Layer_2" data-name="Layer 2"><g id="Layer_1-2" data-name="Layer 1"><path d="M110.38,104.15l-.25-.19-.18-.14L99.38,93.25l-4.57-4.58-6.23-6.25L82.1,76l-5.25-5.23L63,56.84,61.7,55.55,110.49,6.78a2,2,0,0,0,0-2.79L107.33.62A2,2,0,0,0,105.88,0h-.17a2,2,0,0,0-1.47.64l-.41.45c-.26.29-.53.58-.8.86L92.22,12.77l-4.45,4.44-6.31,6.3-6,6-5.69,5.7L56.9,48.1l-1.33,1.32L18.92,12.78l-7.49-7.5c-1.06-1.06-2.1-2.14-3.15-3.21L6.85.6A2,2,0,0,0,5.42,0H5.25A2,2,0,0,0,3.84.59L.59,3.84A2,2,0,0,0,0,5.25v.17A2,2,0,0,0,.6,6.85L1.91,8.13q1.38,1.35,2.76,2.71,5.42,5.39,10.83,10.78l5.24,5.25,4.65,4.67,6,5.94,4.87,4.86L48.1,54.24l1.33,1.34L.65,104.35a2,2,0,0,0,0,2.79l3.19,3.37a2,2,0,0,0,1.45.63h.17A2,2,0,0,0,7,110.38l.19-.24a2.12,2.12,0,0,1,.15-.19l9.6-9.6,5.14-5.13,7.56-7.54,7-7L42.28,75l12-12,1.29-1.27,48.77,48.79a2,2,0,0,0,2.79,0l3.36-3.18a2,2,0,0,0,.62-1.45v-.17A2,2,0,0,0,110.38,104.15Z"/></g></g></svg>