<svg xmlns="http://www.w3.org/2000/svg" viewBox="0 0 361.45 361.45"><defs><style>.cls-1{fill:#fff;}</style></defs><title>Asset 9</title><g id="Layer_2" data-name="Layer 2"><g id="Layer_1-2" data-name="Layer 1"><path class="cls-1" d="M0,0V361.45H361.45V0ZM271,262.51a3.25,3.25,0,0,1-1,2.36L264.57,270A3.25,3.25,0,0,1,260,270l-79.27-79.31-2.09,2.06q-9.78,9.76-19.54,19.53l-9.26,9.29-11.33,11.36-12.28,12.26-8.36,8.34-15.6,15.61a3.45,3.45,0,0,0-.24.31l-.3.39A3.25,3.25,0,0,1,99.22,271h-.28a3.25,3.25,0,0,1-2.36-1l-5.18-5.48a3.25,3.25,0,0,1,.06-4.53l79.29-79.27-2.16-2.18-19.33-19.34-7.91-7.9-9.68-9.66-7.56-7.58-8.52-8.54Q106.8,116.77,98,108q-2.23-2.21-4.48-4.4l-2.13-2.08a3.25,3.25,0,0,1-1-2.32v-.28a3.25,3.25,0,0,1,1-2.3l5.29-5.29a3.25,3.25,0,0,1,2.3-1h.28a3.25,3.25,0,0,1,2.32,1l2.32,2.38c1.7,1.75,3.4,3.49,5.12,5.22q6.08,6.11,12.18,12.2l59.56,59.55,2.16-2.14q10.46-10.44,20.91-20.9l9.25-9.27,9.77-9.79,10.25-10.24,7.24-7.22q8.79-8.78,17.56-17.57c.45-.45.88-.93,1.31-1.4l.67-.73a3.25,3.25,0,0,1,2.39-1h.28a3.25,3.25,0,0,1,2.36,1l5.19,5.47a3.25,3.25,0,0,1-.06,4.54L190.7,180.7l2.06,2.08,22.57,22.58,8.53,8.51,10.54,10.52,10.13,10.15,7.42,7.44,17.18,17.17a3.09,3.09,0,0,0,.29.22l.4.31a3.25,3.25,0,0,1,1.23,2.54Z"/></g></g></svg>