<?xml version="1.0" encoding="utf-8"?>
<!-- Generator: Adobe Illustrator 22.1.0, SVG Export Plug-In . SVG Version: 6.00 Build 0)  -->
<svg version="1.1" id="Layer_1" xmlns="http://www.w3.org/2000/svg" xmlns:xlink="http://www.w3.org/1999/xlink" x="0px" y="0px"
	 viewBox="0 0 88 62" style="enable-background:new 0 0 88 62;" xml:space="preserve">
<style type="text/css">
	.st0{fill:#FFFFFF;}
</style>
<path class="st0" d="M0,0v62h88V0H0z M86.8,32.2c-1.3,4-2.6,6.7-7.7,11.1c0,0-9.1,6.5-16.4,3.5c-5-2.1-3.6-8.3-3.6-8.3
	s-2.2,3.2-5.9,6.9c-3.7,3.7-7.8,5.2-7.9,0.8c-0.1-4.4,4.1-12.6,4.1-12.6c-4.4,7.3-10.3,14.5-13,15.2c-4,1.1-1.1-6.9-1.1-6.9
	s-1,1.5-4.4,4.5c-3.5,3-9.5,4.8-9.4,1c0.1-3.8,5.4-10.4,5.4-10.4c-6.8,6-15.3,13.5-18.6,14.7c-2.3,0.8-6.2,1.5-7-4.1
	c-0.8-6.4,6.2-17.2,11.3-23.9c5.2-6.9,12.3-13.3,14.2-10.5c1.8,2.8,0.6,8.9-0.4,11.6c-2.2,6-3.7,5.8-3.7,5.8s-1,0.2-0.3-2.3
	c1.2-4.3,1.3-3.4,1.7-5.5c0.6-3.2-1.8-3.9-4.8-0.9C11.3,29.6,3.2,46.2,6.9,47c2.2,0.5,12.4-7.7,12.4-7.7s7.1-5.9,11-8.6
	c4.4-3,1,3.8,1,3.8s-7.6,11.4-4.2,9.4c3.4-2,8-5.6,12-13.4c3.1-6,5.6-6.6,5.5-4.3c0,2.6-4.6,11.6-6.1,15.5c-0.6,1.5,0.9,0,0.9,0
	s3.8-4.8,8-12c3.7-6.2,6.5-10.2,6.9-5.5c0.4,4.7-5.4,19.4-5.4,19.4s5.3-3.9,13.1-14.7S83.7,2.3,84.3,12.5s-5.5,17.5-5.5,17.5
	s-1.5,2.6-2.6,1.6S78.8,26,79.7,19c0.9-7.1-6.9,2.4-9.6,5.6c-2.7,3.2-7.7,8.6-5.8,15.1c2.1,7.1,15.8,2,19.8-6.7
	C86,28.8,87.3,30.5,86.8,32.2z"/>
</svg>
