<?xml version="1.0" encoding="utf-8"?>
<!-- Generator: Adobe Illustrator 22.1.0, SVG Export Plug-In . SVG Version: 6.00 Build 0)  -->
<svg version="1.1" id="Layer_1" xmlns="http://www.w3.org/2000/svg" xmlns:xlink="http://www.w3.org/1999/xlink" x="0px" y="0px"
	 viewBox="0 0 88 62" style="enable-background:new 0 0 88 62;" xml:space="preserve">
<style type="text/css">
	.st0{fill:#FFFFFF;}
</style>
<path class="st0" d="M0,0v62h88v-1V0H0z M86.8,31.7c-1.3,3.9-2.6,6.6-7.6,10.9c0,0-9,6.4-16.1,3.4c-4.9-2.1-3.5-8.2-3.5-8.2
	s-2.2,3.1-5.8,6.8c-3.6,3.6-7.7,5.1-7.8,0.8c-0.1-4.3,4-12.4,4-12.4c-4.3,7.2-10.1,14.3-12.8,15c-3.9,1.1-1.1-6.8-1.1-6.8
	s-1,1.5-4.3,4.4c-3.4,3-9.3,4.7-9.3,1c0.1-3.7,5.3-10.2,5.3-10.2c-6.7,5.9-15.1,13.3-18.3,14.5c-2.3,0.8-6.1,1.5-6.9-4
	c-0.8-6.3,6.1-16.9,11.1-23.5c5.1-6.8,12.1-13.1,14-10.3c1.8,2.8,0.6,8.8-0.4,11.4c-2.2,5.9-3.6,5.7-3.6,5.7s-1,0.2-0.3-2.3
	c1.2-4.2,1.3-3.3,1.7-5.4c0.6-3.1-1.8-3.8-4.7-0.9C12.5,29.1,4.5,45.5,8.2,46.3c2.2,0.5,12.2-7.6,12.2-7.6s7-5.8,10.8-8.5
	c4.3-3,1,3.7,1,3.7s-7.5,11.2-4.1,9.3c3.3-2,7.9-5.5,11.8-13.2c3.1-5.9,5.5-6.5,5.4-4.2c0,2.6-4.5,11.4-6,15.3c-0.6,1.5,0.9,0,0.9,0
	s3.7-4.7,7.9-11.8c3.6-6.1,6.4-10,6.8-5.4c0.4,4.6-5.3,19.1-5.3,19.1s5.2-3.8,12.9-14.5c7.7-10.6,21.4-26.2,21.9-16.1
	c0.6,10-5.4,17.2-5.4,17.2s-1.5,2.6-2.6,1.6s2.6-5.5,3.4-12.4c0.9-7-6.8,2.4-9.4,5.5c-2.7,3.1-7.6,8.5-5.7,14.9
	c2.1,7,15.5,2,19.5-6.6C86,28.3,87.3,30,86.8,31.7z"/>
</svg>
