<?xml version="1.0" encoding="utf-8"?>
<!-- Generator: Adobe Illustrator 22.1.0, SVG Export Plug-In . SVG Version: 6.00 Build 0)  -->
<svg version="1.1" id="Layer_1" xmlns="http://www.w3.org/2000/svg" xmlns:xlink="http://www.w3.org/1999/xlink" x="0px" y="0px"
	 viewBox="0 0 117.3 59.3" style="enable-background:new 0 0 117.3 59.3;" xml:space="preserve">
<style type="text/css">
	.st0{fill:#777777;}
</style>
<title>Asset 1</title>
<path class="st0" d="M115.1,31.5c-1.7,5.3-3.5,8.9-10.2,14.7c0,0-12.1,8.6-21.8,4.6c-6.6-2.8-4.8-11-4.8-11s-2.9,4.3-7.8,9.2
	c-4.9,4.9-10.4,6.9-10.5,1.1c-0.1-5.8,5.4-16.7,5.4-16.7C59.6,43,51.7,52.6,48.2,53.5c-5.3,1.5-1.5-9.2-1.5-9.2s-1.3,2-5.8,6
	c-4.6,4-12.6,6.4-12.5,1.3c0.1-5,7.2-13.8,7.2-13.8c-9,8-20.3,17.9-24.7,19.5c-3.1,1.1-8.2,2-9.3-5.4c-1.1-8.5,8.2-22.8,15-31.7
	C23.5,11,32.9,2.5,35.4,6.2c2.4,3.7,0.8,11.8-0.5,15.4c-2.9,8-4.9,7.7-4.9,7.7s-1.3,0.3-0.4-3.1c1.6-5.7,1.7-4.5,2.3-7.3
	c0.8-4.3-2.4-5.2-6.4-1.2C14.8,28,4.1,50.1,9,51.1c2.9,0.7,16.5-10.2,16.5-10.2s9.4-7.8,14.6-11.4c5.8-4,1.3,5,1.3,5
	S31.3,49.7,35.8,47c4.5-2.7,10.6-7.4,15.9-17.8c4.1-8,7.4-8.8,7.3-5.7c0,3.5-6.1,15.4-8.1,20.6c-0.8,2,1.2,0,1.2,0s5-6.4,10.6-15.9
	c4.9-8.2,8.6-13.5,9.2-7.3c0.5,6.2-7.2,25.8-7.2,25.8s7-5.2,17.4-19.5C92.5,12.7,111-8.2,111.8,5.3c0.8,13.5-7.3,23.2-7.3,23.2
	s-2,3.5-3.5,2.1c-1.5-1.3,3.5-7.4,4.6-16.7c1.2-9.4-9.2,3.2-12.8,7.4c-3.6,4.3-10.2,11.4-7.7,20.1c2.8,9.4,21,2.7,26.3-8.9
	C114,27,115.8,29.2,115.1,31.5z"/>
</svg>
