<svg xmlns="http://www.w3.org/2000/svg" xmlns:xlink="http://www.w3.org/1999/xlink" viewBox="0 0 2869.1 1971.44"><defs><style>.cls-1{fill:#fff;}.cls-2{fill:#f47a25;}.cls-3{fill:url(#linear-gradient);}.cls-4{fill:url(#linear-gradient-2);}.cls-5{fill:url(#linear-gradient-3);}.cls-6{fill:url(#linear-gradient-4);}.cls-7{fill:#bd1f42;}</style><linearGradient id="linear-gradient" x1="1439.05" y1="1208.38" x2="1439.05" y2="806.12" gradientUnits="userSpaceOnUse"><stop offset="0" stop-color="#d13e3d"/><stop offset="1" stop-color="#ea675a"/></linearGradient><linearGradient id="linear-gradient-2" x1="692.83" y1="1114.11" x2="692.83" y2="846.2" xlink:href="#linear-gradient"/><linearGradient id="linear-gradient-3" x1="1075.78" y1="1168.3" x2="1075.78" y2="922.37" xlink:href="#linear-gradient"/><linearGradient id="linear-gradient-4" x1="1881.7" y1="1085.96" x2="1881.7" y2="849.23" xlink:href="#linear-gradient"/></defs><title>Asset 3</title><g id="Layer_2" data-name="Layer 2"><g id="Layer_1-2" data-name="Layer 1"><rect class="cls-1" width="2869.1" height="1971.44"/><path class="cls-2" d="M989.33,993.74"/><path class="cls-3" d="M2351.74,982.19A54.42,54.42,0,0,0,2362.23,950c0-17.51-6.81-32.95-19.18-43.47-10.82-9.2-24.67-13.86-41.18-13.86a80.86,80.86,0,0,0-26.84,4.84,47.23,47.23,0,0,0,.31-5.93c0-12.51-4.41-25.32-13.48-39.16-10.13-15.59-24.86-25.59-41.57-28.24a52.25,52.25,0,0,0-8.77-.76A45.61,45.61,0,0,0,2175.16,841l-1.32,1.71-1.13,1.84c-1.8,2.93-3.51,5.77-5.06,8.44l-.23.41c-9.5,16.77-18.57,33-27.11,48.43q-1.24,0-2.49,0c-21.35,0-42.75,8.42-63.67,25-16.79-21.73-36.45-25-46.82-25-10.87,0-22,3.39-32.95,10.08-3.8,2.31-7.53,4.62-11.13,6.89l0,0c-9.23-9.47-19.64-15.55-31-18.09a43.82,43.82,0,0,0-9.61-1.07c-12.55,0-23.1,5-32.51,12.92A82.41,82.41,0,0,0,1904,905l-.2-.21c-9-9.66-23.36-22.49-43.25-22.49a44.27,44.27,0,0,0-10.78,1.33l-.43.11a52.44,52.44,0,0,0-12.28,5,68.34,68.34,0,0,0,4.54-24c0-32.69-24.32-55.51-59.15-55.51-22.16,0-44.41,7.84-67.45,23.85-7.94-11.73-22-20.21-41.83-20.21-16.2,0-32.37,7.1-51.52,22.79a44.07,44.07,0,0,0-16.66-17.48c-7.63-4.52-16.57-6.82-26.57-6.82-26.19,0-49.77,10.1-68.21,29.21a97.11,97.11,0,0,0-27.57,68.68,66,66,0,0,0,12.22,38.38,66.51,66.51,0,0,0-68.9,14.7l-.08.08a103.65,103.65,0,0,0-20.54,27.11,43.2,43.2,0,0,0-5-4.83l-1-.79a120.65,120.65,0,0,0,3.6-28.63c0-15.75-3.94-29.35-11.7-40.43-11.78-17.15-28.83-26.59-48-26.59a54.75,54.75,0,0,0-40.48,17.25,52.76,52.76,0,0,0-11.29-1.21c-9.65,0-23,2.68-36.68,14a65.86,65.86,0,0,0-19-11.28l-.3-.12a91,91,0,0,0-34-6.5c-24.26,0-47,9-67.72,26.79-16.83-22-36.6-25.27-47-25.27-10.87,0-22,3.39-33,10.08-3.78,2.3-7.51,4.61-11.13,6.89l0,0c-9.22-9.45-19.63-15.53-30.92-18.07a43.83,43.83,0,0,0-9.64-1.07c-12.55,0-23.1,5-32.51,12.92A82.37,82.37,0,0,0,963.4,905l-.2-.22c-9-9.66-23.36-22.49-43.25-22.49a44.24,44.24,0,0,0-10.78,1.33l-.42.11a53.19,53.19,0,0,0-27.45,17.62q-3.21-.17-6.52-.17a106.49,106.49,0,0,0-11.36.6A105.79,105.79,0,0,0,875,861l0-.19c1.61-20.34-5.87-33.08-12.43-40.18A45.14,45.14,0,0,0,829,806.12,48.19,48.19,0,0,0,792.82,822c-6.68-.49-21.15-2.61-49.21-10.76l-.13,0c-12-3.44-25.53-5.12-41.32-5.12-39.14,0-73.32,11.93-101.61,35.45-30.05,25-45.93,57.47-45.93,93.93a92.89,92.89,0,0,0,9.62,41.78,60.64,60.64,0,0,0-16.29,8.36l-.08.06c-24.5,17.76-37.44,42.9-37.44,72.71,0,34.94,19.29,57.7,35.47,70.65,20.84,16.67,45.82,25.13,74.23,25.13,25.44,0,49.71-7.27,72.14-21.6,19.53-12.49,36.15-29.44,49.53-50.47a59.73,59.73,0,0,0,13.58,19.75c12.36,11.85,28.33,18.11,46.21,18.11a83.14,83.14,0,0,0,35.94-8.33,63.52,63.52,0,0,0,33.09,9.23c14,0,27.78-4.15,41-12.34l.56-.35c8.93,8.19,21.06,13,35,13s28.1-5.08,42.23-15.09q2.17-1.54,4.26-3.16c10.65,10.45,25.85,16.43,43.71,16.43a79.24,79.24,0,0,0,31.38-6.42c5-2.16,11.48-5.64,23.57-15.06a74.82,74.82,0,0,0,16.44,12.79,73.1,73.1,0,0,0,11.32,5.3,70.23,70.23,0,0,0-4.42,24.52,64.43,64.43,0,0,0,6.14,27.43c11.84,25.7,35.12,40.44,63.91,40.44a89.7,89.7,0,0,0,23.29-3.15c25.34-6.62,54.44-26.52,91.53-62.57l.08-.08a341.1,341.1,0,0,0,25.85-28.58,150.28,150.28,0,0,0,26.91-15.48l.22-.16c20.58-14.88,35.94-28.6,46.73-41.77,5,14.56,14.74,30.22,32.94,44.23,21.74,16.73,47.64,25.22,77,25.22a127.57,127.57,0,0,0,65-17.59,146.87,146.87,0,0,0,21.65-15.47l.28.39c12.79,18.14,32,28.13,54.19,28.13,16.13,0,32.35-5.12,49.23-15.58,11.61,9.23,25.86,14.07,41.58,14.07a83.13,83.13,0,0,0,35.94-8.33,63.51,63.51,0,0,0,33.09,9.23c14,0,27.78-4.15,41-12.33l.56-.35c8.93,8.19,21.06,13,35,13s28.1-5.08,42.24-15.09q2.17-1.54,4.26-3.16c10.64,10.45,25.85,16.43,43.71,16.43a76.73,76.73,0,0,0,46.27-15,64.9,64.9,0,0,0,44.85,18.06c13,0,25.07-4,35.85-9.92a59.17,59.17,0,0,0,29.53,8.11c19.35,0,38-5.9,55.75-17.59,11.78,9.68,29.68,17.29,56.86,17.29a89,89,0,0,0,44.83-12.31,94.54,94.54,0,0,0,35-35.27,78.56,78.56,0,0,0,25.76-20.14c7-8.19,15-19.55,15-35C2367.68,1003,2361.62,990.52,2351.74,982.19Z"/><path class="cls-4" d="M750.9,964.26a100.55,100.55,0,0,0-16.35,1.51q3-16.65,7.87-26.94a97.27,97.27,0,0,1,6.36-10.29q2.72-3,5.6-6.51t2.88-6.21q0-6.05-7-6.05-3.34,0-17.86,5.75-16,6.36-42.38,63H681q-7.88-5.75-10.6-9.69,6.05-6.66,10.6-18.77a22.07,22.07,0,0,0,1.21-7q0-12.72-10.9-16a10.12,10.12,0,0,0-2.42-.3q-12.11,0-17.26,13.32a62.45,62.45,0,0,0-3.94,23,25.62,25.62,0,0,1-13.24,3.63q-11.08,0-17.86-8.17-5.24-6.36-5.23-21.8,0-21.8,19.85-38.6t47.14-16.8q20.61,0,55.32,13.93t55,13.93q18.79,0,31.67-14.91t14.71-36.61Q836,846.2,829,846.2a8.57,8.57,0,0,0-7.57,4.16q-8.17,11.89-25.43,11.89-20.59,0-63.57-12.48Q720,846.2,702.16,846.2q-44.5,0-76,26.19T594.69,935.5q0,19.07,11.2,32.85t26.94,13.77a58.92,58.92,0,0,0,20.59-3.94q13,18.77,28.46,18.77-3.34,7.57-8.17,20-15.14,37.85-38.14,56.31-16.35,13-29.67,13-11.51,0-13.93-13.93-1.21-7,10.6-19.68,8.78-9.38,8.78-18.77,0-19.67-27.55-19.68a20.68,20.68,0,0,0-12.41,3.94q-20.89,15.14-20.89,40.26,0,23,20.43,39.35t49.19,16.35q26.64,0,50.56-15.29t40-42.53q15.44-26.34,20.89-67.51a57.45,57.45,0,0,0,5.75-.3c2-.2,3.13-.3,3.33-.3q2.42,0,5,3a10.47,10.47,0,0,1,2.57,7,10.09,10.09,0,0,1-.3,2.42q0,2.72,3.63,2.72,4.24,0,8.17-3.78t8.17-7.42q4.54-5.75,4.54-14.53Q772.39,964.27,750.9,964.26Z"/><path class="cls-5" d="M803,986.92s-31.76,37.11-27.19,68.16c1.06,7.19,2.42,13.22,7.27,17.86s11,7,18.47,7a45,45,0,0,0,22.4-6.36q11.2-6.36,28.15-20.58a37.44,37.44,0,0,0-1.51,10q0,9.08,6.21,13.47a23.29,23.29,0,0,0,13.77,4.39q9.68,0,20-6.36,5.75-3.63,22.25-17.71t22.86-21q4.24-4.54,8.17-8.63a14.85,14.85,0,0,0,3.71-5.45q10.37-10.44,28.07-31.33-21.19,42.08-26.64,53.28-.31.91-7.87,13.32-4.85,7.88-4.84,13,0,11.2,10.9,11.2,8.17,0,19.07-7.72a75.12,75.12,0,0,0,18.16-18q7.27-10.29,26.34-32.39,16.64-19.37,22.55-25.28t11-5.9c1.41,0,2.12.51,2.12,1.51a7.68,7.68,0,0,1-1.21,3.63q-29.67,55.4-27.55,68.72,2.11,13.62,19.68,13.62a39.17,39.17,0,0,0,15.59-3.18q7.41-3.18,28-20.74,18.16-15.44,25.58-23.61c.53-.59,1-1.16,1.5-1.72q2.79-.79,6.9-4.66a20.06,20.06,0,0,0-3.41,5.78,63.26,63.26,0,0,0-2.12,10q-1.21,7,3.63,17,5.75,12.11,15.74,17.86a35.08,35.08,0,0,0,17.86,4.54q32.69,0,71.14-36.33,18.78-17.71,20.9-24.71,12.46-14,15.42-14a2.89,2.89,0,0,1,2.42,1.21,18.43,18.43,0,0,1,3.94,11.48,81.94,81.94,0,0,1-1.82,14.5q-5.75,30.52-10,45.93-31.18,7.55-53.28,18.13-39.65,19-39.66,43.81a24.57,24.57,0,0,0,2.42,10.58q7.88,17.22,27.55,17.22a49.52,49.52,0,0,0,13-1.81q26.95-7,73.87-52.57a321.63,321.63,0,0,0,29.36-33.54q13.32-3.93,28.15-14.5,29.67-21.45,42.08-38.37,3.93-5.14,3.94-8.77,0-4.23-5.15-4.23a11.23,11.23,0,0,0-9.38,4.84q-16.65,23-44.2,40A432.48,432.48,0,0,0,1352.24,997q10.59-22.7,10.6-41.78,0-11.2-4.54-17.56-6.36-9.38-15.14-9.38-9.08,0-13.93,8.17a47.22,47.22,0,0,0-6.36,23,98.09,98.09,0,0,0,1.82,10.6,86.77,86.77,0,0,1,1.82,17q0,16-6.66,34.51-10.29,28.76-22.7,46.62a70.55,70.55,0,0,1-9.08,2.12,470.38,470.38,0,0,0,14.23-65.69q3-21.19,3-34.21,0-26-13.93-26-7.88,0-16.35,10-10.29,13.62-20.89,27.25-19.07,23.92-27.25,32.09a19.78,19.78,0,0,0-2.57,3.12q-4.55,3.84-13.47,13.22a94.82,94.82,0,0,1-20.28,16.35q-13,7.57-21.49,7.27-12.11-.3-12.11-14.53,0-13.32,12.11-36.93,19.07-36.93,33.3-36.93a11.24,11.24,0,0,1,7.27,2.72q-7.57,1.21-10.9,7.27a17.44,17.44,0,0,0-2.42,8.78q0,13.62,14.53,13.62,10,0,18.47-10.9,7-9.08,7-19.07a27.35,27.35,0,0,0-7-18.16q-2.12-2.72-8.78-5.45a50.88,50.88,0,0,0-19.07-3.63q-21.8,0-41.78,17.26a319.93,319.93,0,0,0-33.91,34.21q-16.35,19.07-20.59,22.4c-3,2.36-4.79,4.47-5.45,6.33-2.27,2.69-3.48,4.12-3.62,4.26q-16.35,14.23-24.22,14.23c-1.62,0-2.42-1-2.42-3q0-6.66,20-44.8,14.23-27.25,14.23-34.51a8,8,0,0,0-1.21-4.54q-7.57-10.29-15.74-10.29-5.15,0-12.11,4.24T1061,954.58q-10.3,6.06-31.79,25.73-9.08,8.17-19.68,18.47,9.69-14.23,11.2-19.68,2.72-9.38,0-21.19-1.21-5.45-6.81-11.2t-11-7q-7.88-1.82-30.27,32.69Q955,995.5,941.76,1012.19a2.47,2.47,0,0,0-.62-.09q-.91,0-4.54,4.24a132.9,132.9,0,0,1-16,15.14q-11.2,9.08-13.32,7.87t-2.12-6.36q0-7.87,6.05-19.07,16-30.27,23.92-45.71,7-13.32,7-19.07,0-8.17-8.1-17-10.2-10.9-15-9.69-6.9,1.82-11.4,12.11,0,.31-6.07,12.41-10-5.75-26.7-5.75a58.78,58.78,0,0,0-17.3,2.42,78.1,78.1,0,0,0-30.94,17.26S811.05,977.12,803,986.92Zm67.56,22.15a155.93,155.93,0,0,1-15.44,19.07q-12.11,12.42-18.47,12.41-5.45,0-5.45-6.66,0-10,17.26-34.21,22.4-31.18,30.58-31.18,6.05,0,6.05,7.27Q885.13,987,870.6,1009.07ZM1242,1101.4q-18.16,48.74-48.44,52.67-16,0-16-12.71a29.17,29.17,0,0,1,3-11.81q11.2-23.61,64.18-36.93A83.26,83.26,0,0,1,1242,1101.4Z"/><path class="cls-6" d="M2321.25,1011.49a10.9,10.9,0,0,0-8.48,4.24,35,35,0,0,1-11.5,8.78,45.86,45.86,0,0,0-3.63-17q-6.06-15.13-6.66-16.65-3.63-12.41-3.63-16.65a10.43,10.43,0,0,1,3.33-7.57q3.33-3.33,12.41-.91a15.3,15.3,0,0,0,3,.3q5.75,0,10.9-4.84a15,15,0,0,0,5.15-11.2q0-17.26-20.28-17.26-11.51,0-27.55,9.08a125.13,125.13,0,0,0-29.67,23.61q-33.3,37.54-47.53,54.19a11.53,11.53,0,0,0-2.13,3.21,135,135,0,0,0-10.28,10.11,8.21,8.21,0,0,1-6.06,2.42q-6.36,0-6.36-5.45a13.06,13.06,0,0,1,2.73-7.27q18.16-35.72,30.88-63.27,29.36-60.24,29.36-67.81,0-6.66-7-17.26-6.06-9.38-14.53-10.6-4.85-.91-7,1.82-2.43,3.94-4.54,7.57-23.31,41.17-42.38,76.29a35,35,0,0,0-22.1-7.57q-19.68,0-42.08,19.07-15.44,13-33,35.42-7.61,9.74-12.92,15.5c-1.73.28-3.88,2-6.45,5.09l-2.29,2.73q-4.65,2.92-5.42,6-15.55,13.32-23.17,13.33c-1.62,0-2.42-1-2.42-3q0-6.66,20-44.8,14.23-27.25,14.23-34.51a8,8,0,0,0-1.21-4.54q-7.57-10.29-15.74-10.29-5.15,0-12.11,4.24t-13.62,8.48q-10.29,6.06-31.79,25.73-9.08,8.17-19.68,18.47,9.69-14.23,11.2-19.68,2.72-9.38,0-21.19-1.21-5.45-6.81-11.2t-11-7q-7.87-1.82-30.27,32.69-17.59,23.07-30.86,39.75a2.47,2.47,0,0,0-.62-.09q-.91,0-4.54,4.24a132.94,132.94,0,0,1-16,15.14q-11.2,9.08-13.32,7.87t-2.12-6.36q0-7.87,6.05-19.07,16-30.27,23.92-45.71,7-13.32,7-19.07,0-8.17-8.1-17-10.2-10.9-15-9.69-6.9,1.82-11.4,12.11,0,.31-6.07,12.41-10-5.75-26.7-5.75a58.78,58.78,0,0,0-17.3,2.42,78.09,78.09,0,0,0-30.94,17.26q-7.28,7-16.69,20.28-15.48,18.16-23.06,24.52-4.85,4.54-10.16,9.38a28.07,28.07,0,0,0-4.72,5.13q-4.2,3.71-7.39,7-5.9,6.06-11.35,11.81-9.08,7.27-15.74,6.36-3-.6-3-5.45,0-12.1,17.25-47.23,12.71-26.64,26.34-49.34,40.56-15.13,65.69-44.8,17.25-20.28,17.25-33.91,0-15.44-19.07-15.44-29.06,0-65.39,33.6a328.08,328.08,0,0,0-48.74,57.82,102.44,102.44,0,0,1-17.26,1.82q-3,0-8.48.3t-7.87.3q17.86-49.18,26-60.95,12.71-13.88,19.68-19.61a7.12,7.12,0,0,0,2.12-4.53q0-5.12-9.38-5.13-11.2,0-32.69,19.37-32.7,29.37-54.79,29.36a17.36,17.36,0,0,1-12.11-4.69,14.79,14.79,0,0,1-5.15-11.35q0-9.69,6.05-16l9.69-8.48q2.42-2.72,2.42-4.84,0-4.84-8.17-4.84-23,0-39.35,17t-16.35,40.87q0,11.81,9.38,20.28a32.66,32.66,0,0,0,22.71,8.48q17.86,0,46.32-15.74l-19.68,32.39a12.52,12.52,0,0,0-4.54,1.36,12.72,12.72,0,0,1-4.24,1.36q-12.71,4.24-31.48,17.26-15.44,11.2-17.86,14.83a5.94,5.94,0,0,1-.76,2.12,5.85,5.85,0,0,0-.76,2.42q0,7,6.66,7,3.63,0,5.15-2.12a224.45,224.45,0,0,1,20.28-16.35,52.84,52.84,0,0,1,15.74-8.17q-16.65,27.76-22.4,37.71-15.44,26.85-33.3,39.21-11.81,8.15-20.59,8.15a22.13,22.13,0,0,1-14.53-5,15.23,15.23,0,0,1-6.05-12.21q0-10.86,11.2-15.38,12.41-4.82,12.41-20.2a21.55,21.55,0,0,0-7.11-16.13,23.91,23.91,0,0,0-17.1-6.79,25.82,25.82,0,0,0-18.47,7.54q-17.87,17.21-17.86,37.13,0,23.85,21.95,40.75t52.52,16.9q47.83,0,83.55-48.63a203,203,0,0,0,31.79-66.14q2.42-9.05,3.94-13.29a91.53,91.53,0,0,1,15.14-.61l13,.3a360.18,360.18,0,0,0-19.37,38.54q-5.45,13.35-10.9,26.4a61.74,61.74,0,0,0-4.54,23.37q0,14.57,7,24.27,7.87,11.23,21.49,11.23,17,0,39.05-17.26a178.25,178.25,0,0,0,31.08-31.73l.7-.05q-5.75,11.81-5.75,22.7t7.26,17.86q7.27,7,18.47,7a45,45,0,0,0,22.4-6.36q11.2-6.36,28.15-20.58a37.42,37.42,0,0,0-1.51,10q0,9.08,6.21,13.47a23.29,23.29,0,0,0,13.77,4.39q9.69,0,20-6.36,5.75-3.63,22.25-17.71t22.86-21q4.24-4.54,8.17-8.63a14.86,14.86,0,0,0,3.71-5.45q10.37-10.44,28.07-31.33-21.19,42.08-26.64,53.28-.31.91-7.87,13.32-4.85,7.88-4.84,13,0,11.2,10.9,11.2,8.17,0,19.07-7.72a75.13,75.13,0,0,0,18.16-18q7.27-10.29,26.34-32.39,16.65-19.37,22.55-25.28t11-5.9c1.41,0,2.12.51,2.12,1.51a7.67,7.67,0,0,1-1.21,3.63q-29.67,55.4-27.55,68.72,2.11,13.62,19.68,13.62a39.17,39.17,0,0,0,15.59-3.18q7.41-3.18,28-20.74,14.92-12.68,22.58-20.46,2.79-.8,7.7-5.36a20.52,20.52,0,0,0-4.25,6.74q-.91,2.12-2.12,10a44.81,44.81,0,0,0-.91,8.78q0,17.26,12.71,24.22a24,24,0,0,0,11.81,3q17.55,0,43.9-27.55,5.14,25.73,21.49,25.73,28.15,0,55.7-30.27,17.22-18.74,20-25.39,5.38-6.05,23.58-27,18.77-21.49,27.55-26.64-2.72,9.08-2.42,26,.6,19.07-.91,26.64-15.74-2.11-21.49-2.12a45.93,45.93,0,0,0-19.68,4.54q-11.81,5.75-11.81,20.89a36.53,36.53,0,0,0,5.15,18.16q8.17,14.84,36.93,14.83a49.2,49.2,0,0,0,24.82-7q17.86-10.29,26-33a38.68,38.68,0,0,0,24.22-13.62q5.45-6.36,5.45-9.08Q2327.61,1011.49,2321.25,1011.49ZM1757.89,885.55q11.81-15.44,18.17-15.44,5.14,0,5.15,3.63,0,3.94-8.78,15.74-6.36,7.57-10.29,12.11-9.39,10.9-30.27,20.28Q1743,904.63,1757.89,885.55Zm53.27,123.51a155.94,155.94,0,0,1-15.44,19.07q-12.11,12.42-18.47,12.41-5.45,0-5.45-6.66,0-10,17.26-34.21,22.4-31.18,30.57-31.18,6.05,0,6.06,7.27Q1825.69,987,1811.16,1009.07Zm322.4.91q-19.07,28.76-28.76,28.76-6.36,0-6.36-8.17,0-11.2,13.32-30,22.09-31.18,30.58-31.18,6.05,0,6.05,7Q2148.39,987.58,2133.56,1010Zm102,44.5a10.67,10.67,0,0,1-4.24-.91q-5.75-3-5.75-8.48,0-4.24,4.84-7.27,2.72-1.82,23,.61Q2245.56,1054.48,2235.58,1054.48Z"/><path class="cls-7" d="M750.9,973.26a100.55,100.55,0,0,0-16.35,1.51q3-16.65,7.87-26.94a97.27,97.27,0,0,1,6.36-10.29q2.72-3,5.6-6.51t2.88-6.21q0-6.05-7-6.05-3.34,0-17.86,5.75-16,6.36-42.38,63H681q-7.88-5.75-10.6-9.69,6.05-6.66,10.6-18.77a22.07,22.07,0,0,0,1.21-7q0-12.72-10.9-16a10.12,10.12,0,0,0-2.42-.3q-12.11,0-17.26,13.32a62.45,62.45,0,0,0-3.94,23,25.62,25.62,0,0,1-13.24,3.63q-11.08,0-17.86-8.17-5.24-6.36-5.23-21.8,0-21.8,19.85-38.6t47.14-16.8q20.61,0,55.32,13.93t55,13.93q18.79,0,31.67-14.91t14.71-36.61Q836,855.2,829,855.2a8.57,8.57,0,0,0-7.57,4.16q-8.17,11.89-25.43,11.89-20.59,0-63.57-12.48Q720,855.2,702.16,855.2q-44.5,0-76,26.19T594.69,944.5q0,19.07,11.2,32.85t26.94,13.77a58.92,58.92,0,0,0,20.59-3.94q13,18.77,28.46,18.77-3.34,7.57-8.17,20-15.14,37.85-38.14,56.31-16.35,13-29.67,13-11.51,0-13.93-13.93-1.21-7,10.6-19.68,8.78-9.38,8.78-18.77,0-19.67-27.55-19.68a20.68,20.68,0,0,0-12.41,3.94q-20.89,15.14-20.89,40.26,0,23,20.43,39.35t49.19,16.35q26.64,0,50.56-15.29t40-42.53q15.44-26.34,20.89-67.51a57.45,57.45,0,0,0,5.75-.3c2-.2,3.13-.3,3.33-.3q2.42,0,5,3a10.47,10.47,0,0,1,2.57,7,10.09,10.09,0,0,1-.3,2.42q0,2.72,3.63,2.72,4.24,0,8.17-3.78t8.17-7.42q4.54-5.75,4.54-14.53Q772.39,973.27,750.9,973.26Z"/><path class="cls-7" d="M803,995.92s-31.76,37.11-27.19,68.16c1.06,7.19,2.42,13.22,7.27,17.86s11,7,18.47,7a45,45,0,0,0,22.4-6.36q11.2-6.36,28.15-20.58a37.44,37.44,0,0,0-1.51,10q0,9.08,6.21,13.47a23.29,23.29,0,0,0,13.77,4.39q9.68,0,20-6.36,5.75-3.63,22.25-17.71t22.86-21q4.24-4.54,8.17-8.63a14.85,14.85,0,0,0,3.71-5.45q10.37-10.44,28.07-31.33-21.19,42.08-26.64,53.28-.31.91-7.87,13.32-4.85,7.88-4.84,13,0,11.2,10.9,11.2,8.17,0,19.07-7.72a75.12,75.12,0,0,0,18.16-18q7.27-10.29,26.34-32.39,16.64-19.37,22.55-25.28t11-5.9c1.41,0,2.12.51,2.12,1.51a7.68,7.68,0,0,1-1.21,3.63q-29.67,55.4-27.55,68.72,2.11,13.62,19.68,13.62a39.17,39.17,0,0,0,15.59-3.18q7.41-3.18,28-20.74,18.16-15.44,25.58-23.61c.53-.59,1-1.16,1.5-1.72q2.79-.79,6.9-4.66a20.06,20.06,0,0,0-3.41,5.78,63.26,63.26,0,0,0-2.12,10q-1.21,7,3.63,17,5.75,12.11,15.74,17.86a35.08,35.08,0,0,0,17.86,4.54q32.69,0,71.14-36.33,18.78-17.71,20.9-24.71,12.46-14,15.42-14a2.89,2.89,0,0,1,2.42,1.21,18.43,18.43,0,0,1,3.94,11.48,81.94,81.94,0,0,1-1.82,14.5q-5.75,30.52-10,45.93-31.18,7.55-53.28,18.13-39.65,19-39.66,43.81a24.57,24.57,0,0,0,2.42,10.58q7.88,17.22,27.55,17.22a49.52,49.52,0,0,0,13-1.81q26.95-7,73.87-52.57a321.63,321.63,0,0,0,29.36-33.54q13.32-3.93,28.15-14.5,29.67-21.45,42.08-38.37,3.93-5.14,3.94-8.77,0-4.23-5.15-4.23a11.23,11.23,0,0,0-9.38,4.84q-16.65,23-44.2,40a432.48,432.48,0,0,0,34.81-62.36q10.59-22.7,10.6-41.78,0-11.2-4.54-17.56-6.36-9.38-15.14-9.38-9.08,0-13.93,8.17a47.22,47.22,0,0,0-6.36,23,98.09,98.09,0,0,0,1.82,10.6,86.77,86.77,0,0,1,1.82,17q0,16-6.66,34.51-10.29,28.76-22.7,46.62a70.55,70.55,0,0,1-9.08,2.12,470.38,470.38,0,0,0,14.23-65.69q3-21.19,3-34.21,0-26-13.93-26-7.88,0-16.35,10-10.29,13.62-20.89,27.25-19.07,23.92-27.25,32.09a19.78,19.78,0,0,0-2.57,3.12q-4.55,3.84-13.47,13.22a94.82,94.82,0,0,1-20.28,16.35q-13,7.57-21.49,7.27-12.11-.3-12.11-14.53,0-13.32,12.11-36.93,19.07-36.93,33.3-36.93a11.24,11.24,0,0,1,7.27,2.72q-7.57,1.21-10.9,7.27a17.44,17.44,0,0,0-2.42,8.78q0,13.62,14.53,13.62,10,0,18.47-10.9,7-9.08,7-19.07a27.35,27.35,0,0,0-7-18.16q-2.12-2.72-8.78-5.45a50.88,50.88,0,0,0-19.07-3.63q-21.8,0-41.78,17.26a319.93,319.93,0,0,0-33.91,34.21q-16.35,19.07-20.59,22.4c-3,2.36-4.79,4.47-5.45,6.33-2.27,2.69-3.48,4.12-3.62,4.26q-16.35,14.23-24.22,14.23c-1.62,0-2.42-1-2.42-3q0-6.66,20-44.8,14.23-27.25,14.23-34.51a8,8,0,0,0-1.21-4.54q-7.57-10.29-15.74-10.29-5.15,0-12.11,4.24T1061,963.58q-10.3,6.06-31.79,25.73-9.08,8.17-19.68,18.47,9.69-14.23,11.2-19.68,2.72-9.38,0-21.19-1.21-5.45-6.81-11.2t-11-7q-7.88-1.82-30.27,32.69-17.59,23.07-30.86,39.75a2.47,2.47,0,0,0-.62-.09q-.91,0-4.54,4.24a132.9,132.9,0,0,1-16,15.14q-11.2,9.08-13.32,7.87t-2.12-6.36q0-7.87,6.05-19.07,16-30.27,23.92-45.71,7-13.32,7-19.07,0-8.17-8.1-17-10.2-10.9-15-9.69-6.9,1.82-11.4,12.11,0,.31-6.07,12.41-10-5.75-26.7-5.75a58.78,58.78,0,0,0-17.3,2.42,78.1,78.1,0,0,0-30.94,17.26S811.05,986.12,803,995.92Zm67.56,22.15a155.93,155.93,0,0,1-15.44,19.07q-12.11,12.42-18.47,12.41-5.45,0-5.45-6.66,0-10,17.26-34.21,22.4-31.18,30.58-31.18,6.05,0,6.05,7.27Q885.13,996,870.6,1018.07ZM1242,1110.4q-18.16,48.74-48.44,52.67-16,0-16-12.71a29.17,29.17,0,0,1,3-11.81q11.2-23.61,64.18-36.93A83.26,83.26,0,0,1,1242,1110.4Z"/><path class="cls-7" d="M2321.25,1020.49a10.9,10.9,0,0,0-8.48,4.24,35,35,0,0,1-11.5,8.78,45.86,45.86,0,0,0-3.63-17q-6.06-15.13-6.66-16.65-3.63-12.41-3.63-16.65a10.43,10.43,0,0,1,3.33-7.57q3.33-3.33,12.41-.91a15.3,15.3,0,0,0,3,.3q5.75,0,10.9-4.84a15,15,0,0,0,5.15-11.2q0-17.26-20.28-17.26-11.51,0-27.55,9.08a125.13,125.13,0,0,0-29.67,23.61q-33.3,37.54-47.53,54.19a11.53,11.53,0,0,0-2.13,3.21,135,135,0,0,0-10.28,10.11,8.21,8.21,0,0,1-6.06,2.42q-6.36,0-6.36-5.45a13.06,13.06,0,0,1,2.73-7.27q18.16-35.72,30.88-63.27,29.36-60.24,29.36-67.81,0-6.66-7-17.26-6.06-9.38-14.53-10.6-4.85-.91-7,1.82-2.43,3.94-4.54,7.57-23.31,41.17-42.38,76.29a35,35,0,0,0-22.1-7.57q-19.68,0-42.08,19.07-15.44,13-33,35.42-7.61,9.74-12.92,15.5c-1.73.28-3.88,2-6.45,5.09l-2.29,2.73q-4.65,2.92-5.42,6-15.55,13.32-23.17,13.33c-1.62,0-2.42-1-2.42-3q0-6.66,20-44.8,14.23-27.25,14.23-34.51a8,8,0,0,0-1.21-4.54q-7.57-10.29-15.74-10.29-5.15,0-12.11,4.24t-13.62,8.48q-10.29,6.06-31.79,25.73-9.08,8.17-19.68,18.47,9.69-14.23,11.2-19.68,2.72-9.38,0-21.19-1.21-5.45-6.81-11.2t-11-7q-7.87-1.82-30.27,32.69-17.59,23.07-30.86,39.75a2.47,2.47,0,0,0-.62-.09q-.91,0-4.54,4.24a132.94,132.94,0,0,1-16,15.14q-11.2,9.08-13.32,7.87t-2.12-6.36q0-7.87,6.05-19.07,16-30.27,23.92-45.71,7-13.32,7-19.07,0-8.17-8.1-17-10.2-10.9-15-9.69-6.9,1.82-11.4,12.11,0,.31-6.07,12.41-10-5.75-26.7-5.75a58.78,58.78,0,0,0-17.3,2.42,78.09,78.09,0,0,0-30.94,17.26q-7.28,7-16.69,20.28-15.48,18.16-23.06,24.52-4.85,4.54-10.16,9.38a28.07,28.07,0,0,0-4.72,5.13q-4.2,3.71-7.39,7-5.9,6.06-11.35,11.81-9.08,7.27-15.74,6.36-3-.6-3-5.45,0-12.1,17.25-47.23,12.71-26.64,26.34-49.34,40.56-15.13,65.69-44.8,17.25-20.28,17.25-33.91,0-15.44-19.07-15.44-29.06,0-65.39,33.6a328.08,328.08,0,0,0-48.74,57.82,102.44,102.44,0,0,1-17.26,1.82q-3,0-8.48.3t-7.87.3q17.86-49.18,26-60.95,12.71-13.88,19.68-19.61a7.12,7.12,0,0,0,2.12-4.53q0-5.12-9.38-5.13-11.2,0-32.69,19.37-32.7,29.37-54.79,29.36a17.36,17.36,0,0,1-12.11-4.69,14.79,14.79,0,0,1-5.15-11.35q0-9.69,6.05-16l9.69-8.48q2.42-2.72,2.42-4.84,0-4.84-8.17-4.84-23,0-39.35,17t-16.35,40.87q0,11.81,9.38,20.28a32.66,32.66,0,0,0,22.71,8.48q17.86,0,46.32-15.74l-19.68,32.39a12.52,12.52,0,0,0-4.54,1.36,12.72,12.72,0,0,1-4.24,1.36q-12.71,4.24-31.48,17.26-15.44,11.2-17.86,14.83a5.94,5.94,0,0,1-.76,2.12,5.85,5.85,0,0,0-.76,2.42q0,7,6.66,7,3.63,0,5.15-2.12a224.45,224.45,0,0,1,20.28-16.35,52.84,52.84,0,0,1,15.74-8.17q-16.65,27.76-22.4,37.71-15.44,26.85-33.3,39.21-11.81,8.15-20.59,8.15a22.13,22.13,0,0,1-14.53-5,15.23,15.23,0,0,1-6.05-12.21q0-10.86,11.2-15.38,12.41-4.82,12.41-20.2a21.55,21.55,0,0,0-7.11-16.13,23.91,23.91,0,0,0-17.1-6.79,25.82,25.82,0,0,0-18.47,7.54q-17.87,17.21-17.86,37.13,0,23.85,21.95,40.75t52.52,16.9q47.83,0,83.55-48.63a203,203,0,0,0,31.79-66.14q2.42-9.05,3.94-13.29a91.53,91.53,0,0,1,15.14-.61l13,.3a360.18,360.18,0,0,0-19.37,38.54q-5.45,13.35-10.9,26.4a61.74,61.74,0,0,0-4.54,23.37q0,14.57,7,24.27,7.87,11.23,21.49,11.23,17,0,39.05-17.26a178.25,178.25,0,0,0,31.08-31.73l.7-.05q-5.75,11.81-5.75,22.7t7.26,17.86q7.27,7,18.47,7a45,45,0,0,0,22.4-6.36q11.2-6.36,28.15-20.58a37.42,37.42,0,0,0-1.51,10q0,9.08,6.21,13.47a23.29,23.29,0,0,0,13.77,4.39q9.69,0,20-6.36,5.75-3.63,22.25-17.71t22.86-21q4.24-4.54,8.17-8.63a14.86,14.86,0,0,0,3.71-5.45q10.37-10.44,28.07-31.33-21.19,42.08-26.64,53.28-.31.91-7.87,13.32-4.85,7.88-4.84,13,0,11.2,10.9,11.2,8.17,0,19.07-7.72a75.13,75.13,0,0,0,18.16-18q7.27-10.29,26.34-32.39,16.65-19.37,22.55-25.28t11-5.9c1.41,0,2.12.51,2.12,1.51a7.67,7.67,0,0,1-1.21,3.63q-29.67,55.4-27.55,68.72,2.11,13.62,19.68,13.62a39.17,39.17,0,0,0,15.59-3.18q7.41-3.18,28-20.74,14.92-12.68,22.58-20.46,2.79-.8,7.7-5.36a20.52,20.52,0,0,0-4.25,6.74q-.91,2.12-2.12,10a44.81,44.81,0,0,0-.91,8.78q0,17.26,12.71,24.22a24,24,0,0,0,11.81,3q17.55,0,43.9-27.55,5.14,25.73,21.49,25.73,28.15,0,55.7-30.27,17.22-18.74,20-25.39,5.38-6.05,23.58-27,18.77-21.49,27.55-26.64-2.72,9.08-2.42,26,.6,19.07-.91,26.64-15.74-2.11-21.49-2.12a45.93,45.93,0,0,0-19.68,4.54q-11.81,5.75-11.81,20.89a36.53,36.53,0,0,0,5.15,18.16q8.17,14.84,36.93,14.83a49.2,49.2,0,0,0,24.82-7q17.86-10.29,26-33a38.68,38.68,0,0,0,24.22-13.62q5.45-6.36,5.45-9.08Q2327.61,1020.49,2321.25,1020.49ZM1757.89,894.55q11.81-15.44,18.17-15.44,5.14,0,5.15,3.63,0,3.94-8.78,15.74-6.36,7.57-10.29,12.11-9.39,10.9-30.27,20.28Q1743,913.63,1757.89,894.55Zm53.27,123.51a155.94,155.94,0,0,1-15.44,19.07q-12.11,12.42-18.47,12.41-5.45,0-5.45-6.66,0-10,17.26-34.21,22.4-31.18,30.57-31.18,6.05,0,6.06,7.27Q1825.69,996,1811.16,1018.07Zm322.4.91q-19.07,28.76-28.76,28.76-6.36,0-6.36-8.17,0-11.2,13.32-30,22.09-31.18,30.58-31.18,6.05,0,6.05,7Q2148.39,996.58,2133.56,1019Zm102,44.5a10.67,10.67,0,0,1-4.24-.91q-5.75-3-5.75-8.48,0-4.24,4.84-7.27,2.72-1.82,23,.61Q2245.56,1063.48,2235.58,1063.48Z"/><path class="cls-1" d="M750.9,964.26a100.55,100.55,0,0,0-16.35,1.51q3-16.65,7.87-26.94a97.27,97.27,0,0,1,6.36-10.29q2.72-3,5.6-6.51t2.88-6.21q0-6.05-7-6.05-3.34,0-17.86,5.75-16,6.36-42.38,63H681q-7.88-5.75-10.6-9.69,6.05-6.66,10.6-18.77a22.07,22.07,0,0,0,1.21-7q0-12.72-10.9-16a10.12,10.12,0,0,0-2.42-.3q-12.11,0-17.26,13.32a62.45,62.45,0,0,0-3.94,23,25.62,25.62,0,0,1-13.24,3.63q-11.08,0-17.86-8.17-5.24-6.36-5.23-21.8,0-21.8,19.85-38.6t47.14-16.8q20.61,0,55.32,13.93t55,13.93q18.79,0,31.67-14.91t14.71-36.61Q836,846.2,829,846.2a8.57,8.57,0,0,0-7.57,4.16q-8.17,11.89-25.43,11.89-20.59,0-63.57-12.48Q720,846.2,702.16,846.2q-44.5,0-76,26.19T594.69,935.5q0,19.07,11.2,32.85t26.94,13.77a58.92,58.92,0,0,0,20.59-3.94q13,18.77,28.46,18.77-3.34,7.57-8.17,20-15.14,37.85-38.14,56.31-16.35,13-29.67,13-11.51,0-13.93-13.93-1.21-7,10.6-19.68,8.78-9.38,8.78-18.77,0-19.67-27.55-19.68a20.68,20.68,0,0,0-12.41,3.94q-20.89,15.14-20.89,40.26,0,23,20.43,39.35t49.19,16.35q26.64,0,50.56-15.29t40-42.53q15.44-26.34,20.89-67.51a57.45,57.45,0,0,0,5.75-.3c2-.2,3.13-.3,3.33-.3q2.42,0,5,3a10.47,10.47,0,0,1,2.57,7,10.09,10.09,0,0,1-.3,2.42q0,2.72,3.63,2.72,4.24,0,8.17-3.78t8.17-7.42q4.54-5.75,4.54-14.53Q772.39,964.27,750.9,964.26Z"/><path class="cls-1" d="M803,986.92s-31.76,37.11-27.19,68.16c1.06,7.19,2.42,13.22,7.27,17.86s11,7,18.47,7a45,45,0,0,0,22.4-6.36q11.2-6.36,28.15-20.58a37.44,37.44,0,0,0-1.51,10q0,9.08,6.21,13.47a23.29,23.29,0,0,0,13.77,4.39q9.68,0,20-6.36,5.75-3.63,22.25-17.71t22.86-21q4.24-4.54,8.17-8.63a14.85,14.85,0,0,0,3.71-5.45q10.37-10.44,28.07-31.33-21.19,42.08-26.64,53.28-.31.91-7.87,13.32-4.85,7.88-4.84,13,0,11.2,10.9,11.2,8.17,0,19.07-7.72a75.12,75.12,0,0,0,18.16-18q7.27-10.29,26.34-32.39,16.64-19.37,22.55-25.28t11-5.9c1.41,0,2.12.51,2.12,1.51a7.68,7.68,0,0,1-1.21,3.63q-29.67,55.4-27.55,68.72,2.11,13.62,19.68,13.62a39.17,39.17,0,0,0,15.59-3.18q7.41-3.18,28-20.74,18.16-15.44,25.58-23.61c.53-.59,1-1.16,1.5-1.72q2.79-.79,6.9-4.66a20.06,20.06,0,0,0-3.41,5.78,63.26,63.26,0,0,0-2.12,10q-1.21,7,3.63,17,5.75,12.11,15.74,17.86a35.08,35.08,0,0,0,17.86,4.54q32.69,0,71.14-36.33,18.78-17.71,20.9-24.71,12.46-14,15.42-14a2.89,2.89,0,0,1,2.42,1.21,18.43,18.43,0,0,1,3.94,11.48,81.94,81.94,0,0,1-1.82,14.5q-5.75,30.52-10,45.93-31.18,7.55-53.28,18.13-39.65,19-39.66,43.81a24.57,24.57,0,0,0,2.42,10.58q7.88,17.22,27.55,17.22a49.52,49.52,0,0,0,13-1.81q26.95-7,73.87-52.57a321.63,321.63,0,0,0,29.36-33.54q13.32-3.93,28.15-14.5,29.67-21.45,42.08-38.37,3.93-5.14,3.94-8.77,0-4.23-5.15-4.23a11.23,11.23,0,0,0-9.38,4.84q-16.65,23-44.2,40A432.48,432.48,0,0,0,1352.24,997q10.59-22.7,10.6-41.78,0-11.2-4.54-17.56-6.36-9.38-15.14-9.38-9.08,0-13.93,8.17a47.22,47.22,0,0,0-6.36,23,98.09,98.09,0,0,0,1.82,10.6,86.77,86.77,0,0,1,1.82,17q0,16-6.66,34.51-10.29,28.76-22.7,46.62a70.55,70.55,0,0,1-9.08,2.12,470.38,470.38,0,0,0,14.23-65.69q3-21.19,3-34.21,0-26-13.93-26-7.88,0-16.35,10-10.29,13.62-20.89,27.25-19.07,23.92-27.25,32.09a19.78,19.78,0,0,0-2.57,3.12q-4.55,3.84-13.47,13.22a94.82,94.82,0,0,1-20.28,16.35q-13,7.57-21.49,7.27-12.11-.3-12.11-14.53,0-13.32,12.11-36.93,19.07-36.93,33.3-36.93a11.24,11.24,0,0,1,7.27,2.72q-7.57,1.21-10.9,7.27a17.44,17.44,0,0,0-2.42,8.78q0,13.62,14.53,13.62,10,0,18.47-10.9,7-9.08,7-19.07a27.35,27.35,0,0,0-7-18.16q-2.12-2.72-8.78-5.45a50.88,50.88,0,0,0-19.07-3.63q-21.8,0-41.78,17.26a319.93,319.93,0,0,0-33.91,34.21q-16.35,19.07-20.59,22.4c-3,2.36-4.79,4.47-5.45,6.33-2.27,2.69-3.48,4.12-3.62,4.26q-16.35,14.23-24.22,14.23c-1.62,0-2.42-1-2.42-3q0-6.66,20-44.8,14.23-27.25,14.23-34.51a8,8,0,0,0-1.21-4.54q-7.57-10.29-15.74-10.29-5.15,0-12.11,4.24T1061,954.58q-10.3,6.06-31.79,25.73-9.08,8.17-19.68,18.47,9.69-14.23,11.2-19.68,2.72-9.38,0-21.19-1.21-5.45-6.81-11.2t-11-7q-7.88-1.82-30.27,32.69Q955,995.5,941.76,1012.19a2.47,2.47,0,0,0-.62-.09q-.91,0-4.54,4.24a132.9,132.9,0,0,1-16,15.14q-11.2,9.08-13.32,7.87t-2.12-6.36q0-7.87,6.05-19.07,16-30.27,23.92-45.71,7-13.32,7-19.07,0-8.17-8.1-17-10.2-10.9-15-9.69-6.9,1.82-11.4,12.11,0,.31-6.07,12.41-10-5.75-26.7-5.75a58.78,58.78,0,0,0-17.3,2.42,78.1,78.1,0,0,0-30.94,17.26S811.05,977.12,803,986.92Zm67.56,22.15a155.93,155.93,0,0,1-15.44,19.07q-12.11,12.42-18.47,12.41-5.45,0-5.45-6.66,0-10,17.26-34.21,22.4-31.18,30.58-31.18,6.05,0,6.05,7.27Q885.13,987,870.6,1009.07ZM1242,1101.4q-18.16,48.74-48.44,52.67-16,0-16-12.71a29.17,29.17,0,0,1,3-11.81q11.2-23.61,64.18-36.93A83.26,83.26,0,0,1,1242,1101.4Z"/><path class="cls-1" d="M2321.25,1011.49a10.9,10.9,0,0,0-8.48,4.24,35,35,0,0,1-11.5,8.78,45.86,45.86,0,0,0-3.63-17q-6.06-15.13-6.66-16.65-3.63-12.41-3.63-16.65a10.43,10.43,0,0,1,3.33-7.57q3.33-3.33,12.41-.91a15.3,15.3,0,0,0,3,.3q5.75,0,10.9-4.84a15,15,0,0,0,5.15-11.2q0-17.26-20.28-17.26-11.51,0-27.55,9.08a125.13,125.13,0,0,0-29.67,23.61q-33.3,37.54-47.53,54.19a11.53,11.53,0,0,0-2.13,3.21,135,135,0,0,0-10.28,10.11,8.21,8.21,0,0,1-6.06,2.42q-6.36,0-6.36-5.45a13.06,13.06,0,0,1,2.73-7.27q18.16-35.72,30.88-63.27,29.36-60.24,29.36-67.81,0-6.66-7-17.26-6.06-9.38-14.53-10.6-4.85-.91-7,1.82-2.43,3.94-4.54,7.57-23.31,41.17-42.38,76.29a35,35,0,0,0-22.1-7.57q-19.68,0-42.08,19.07-15.44,13-33,35.42-7.61,9.74-12.92,15.5c-1.73.28-3.88,2-6.45,5.09l-2.29,2.73q-4.65,2.92-5.42,6-15.55,13.32-23.17,13.33c-1.62,0-2.42-1-2.42-3q0-6.66,20-44.8,14.23-27.25,14.23-34.51a8,8,0,0,0-1.21-4.54q-7.57-10.29-15.74-10.29-5.15,0-12.11,4.24t-13.62,8.48q-10.29,6.06-31.79,25.73-9.08,8.17-19.68,18.47,9.69-14.23,11.2-19.68,2.72-9.38,0-21.19-1.21-5.45-6.81-11.2t-11-7q-7.87-1.82-30.27,32.69-17.59,23.07-30.86,39.75a2.47,2.47,0,0,0-.62-.09q-.91,0-4.54,4.24a132.94,132.94,0,0,1-16,15.14q-11.2,9.08-13.32,7.87t-2.12-6.36q0-7.87,6.05-19.07,16-30.27,23.92-45.71,7-13.32,7-19.07,0-8.17-8.1-17-10.2-10.9-15-9.69-6.9,1.82-11.4,12.11,0,.31-6.07,12.41-10-5.75-26.7-5.75a58.78,58.78,0,0,0-17.3,2.42,78.09,78.09,0,0,0-30.94,17.26q-7.28,7-16.69,20.28-15.48,18.16-23.06,24.52-4.85,4.54-10.16,9.38a28.07,28.07,0,0,0-4.72,5.13q-4.2,3.71-7.39,7-5.9,6.06-11.35,11.81-9.08,7.27-15.74,6.36-3-.6-3-5.45,0-12.1,17.25-47.23,12.71-26.64,26.34-49.34,40.56-15.13,65.69-44.8,17.25-20.28,17.25-33.91,0-15.44-19.07-15.44-29.06,0-65.39,33.6a328.08,328.08,0,0,0-48.74,57.82,102.44,102.44,0,0,1-17.26,1.82q-3,0-8.48.3t-7.87.3q17.86-49.18,26-60.95,12.71-13.88,19.68-19.61a7.12,7.12,0,0,0,2.12-4.53q0-5.12-9.38-5.13-11.2,0-32.69,19.37-32.7,29.37-54.79,29.36a17.36,17.36,0,0,1-12.11-4.69,14.79,14.79,0,0,1-5.15-11.35q0-9.69,6.05-16l9.69-8.48q2.42-2.72,2.42-4.84,0-4.84-8.17-4.84-23,0-39.35,17t-16.35,40.87q0,11.81,9.38,20.28a32.66,32.66,0,0,0,22.71,8.48q17.86,0,46.32-15.74l-19.68,32.39a12.52,12.52,0,0,0-4.54,1.36,12.72,12.72,0,0,1-4.24,1.36q-12.71,4.24-31.48,17.26-15.44,11.2-17.86,14.83a5.94,5.94,0,0,1-.76,2.12,5.85,5.85,0,0,0-.76,2.42q0,7,6.66,7,3.63,0,5.15-2.12a224.45,224.45,0,0,1,20.28-16.35,52.84,52.84,0,0,1,15.74-8.17q-16.65,27.76-22.4,37.71-15.44,26.85-33.3,39.21-11.81,8.15-20.59,8.15a22.13,22.13,0,0,1-14.53-5,15.23,15.23,0,0,1-6.05-12.21q0-10.86,11.2-15.38,12.41-4.82,12.41-20.2a21.55,21.55,0,0,0-7.11-16.13,23.91,23.91,0,0,0-17.1-6.79,25.82,25.82,0,0,0-18.47,7.54q-17.87,17.21-17.86,37.13,0,23.85,21.95,40.75t52.52,16.9q47.83,0,83.55-48.63a203,203,0,0,0,31.79-66.14q2.42-9.05,3.94-13.29a91.53,91.53,0,0,1,15.14-.61l13,.3a360.18,360.18,0,0,0-19.37,38.54q-5.45,13.35-10.9,26.4a61.74,61.74,0,0,0-4.54,23.37q0,14.57,7,24.27,7.87,11.23,21.49,11.23,17,0,39.05-17.26a178.25,178.25,0,0,0,31.08-31.73l.7-.05q-5.75,11.81-5.75,22.7t7.26,17.86q7.27,7,18.47,7a45,45,0,0,0,22.4-6.36q11.2-6.36,28.15-20.58a37.42,37.42,0,0,0-1.51,10q0,9.08,6.21,13.47a23.29,23.29,0,0,0,13.77,4.39q9.69,0,20-6.36,5.75-3.63,22.25-17.71t22.86-21q4.24-4.54,8.17-8.63a14.86,14.86,0,0,0,3.71-5.45q10.37-10.44,28.07-31.33-21.19,42.08-26.64,53.28-.31.91-7.87,13.32-4.85,7.88-4.84,13,0,11.2,10.9,11.2,8.17,0,19.07-7.72a75.13,75.13,0,0,0,18.16-18q7.27-10.29,26.34-32.39,16.65-19.37,22.55-25.28t11-5.9c1.41,0,2.12.51,2.12,1.51a7.67,7.67,0,0,1-1.21,3.63q-29.67,55.4-27.55,68.72,2.11,13.62,19.68,13.62a39.17,39.17,0,0,0,15.59-3.18q7.41-3.18,28-20.74,14.92-12.68,22.58-20.46,2.79-.8,7.7-5.36a20.52,20.52,0,0,0-4.25,6.74q-.91,2.12-2.12,10a44.81,44.81,0,0,0-.91,8.78q0,17.26,12.71,24.22a24,24,0,0,0,11.81,3q17.55,0,43.9-27.55,5.14,25.73,21.49,25.73,28.15,0,55.7-30.27,17.22-18.74,20-25.39,5.38-6.05,23.58-27,18.77-21.49,27.55-26.64-2.72,9.08-2.42,26,.6,19.07-.91,26.64-15.74-2.11-21.49-2.12a45.93,45.93,0,0,0-19.68,4.54q-11.81,5.75-11.81,20.89a36.53,36.53,0,0,0,5.15,18.16q8.17,14.84,36.93,14.83a49.2,49.2,0,0,0,24.82-7q17.86-10.29,26-33a38.68,38.68,0,0,0,24.22-13.62q5.45-6.36,5.45-9.08Q2327.61,1011.49,2321.25,1011.49ZM1757.89,885.55q11.81-15.44,18.17-15.44,5.14,0,5.15,3.63,0,3.94-8.78,15.74-6.36,7.57-10.29,12.11-9.39,10.9-30.27,20.28Q1743,904.63,1757.89,885.55Zm53.27,123.51a155.94,155.94,0,0,1-15.44,19.07q-12.11,12.42-18.47,12.41-5.45,0-5.45-6.66,0-10,17.26-34.21,22.4-31.18,30.57-31.18,6.05,0,6.06,7.27Q1825.69,987,1811.16,1009.07Zm322.4.91q-19.07,28.76-28.76,28.76-6.36,0-6.36-8.17,0-11.2,13.32-30,22.09-31.18,30.58-31.18,6.05,0,6.05,7Q2148.39,987.58,2133.56,1010Zm102,44.5a10.67,10.67,0,0,1-4.24-.91q-5.75-3-5.75-8.48,0-4.24,4.84-7.27,2.72-1.82,23,.61Q2245.56,1054.48,2235.58,1054.48Z"/></g></g></svg>