<svg xmlns="http://www.w3.org/2000/svg" viewBox="0 0 2872 1968"><defs><style>.cls-1{fill:#fff;}</style></defs><title>Asset 4</title><g id="Layer_2" data-name="Layer 2"><g id="Layer_1-2" data-name="Layer 1"><rect class="cls-1" width="2872" height="1968"/><path d="M799.42,874.87H820v166.82H799.42v28.41h83.91v-28.41H862.75V874.87h20.57V846.46H799.42ZM1443,846.46h-49.25l-80.31,193.6H1296v30h80v-28.4H1353L1371.17,993h82.14l16.35,48.64h-19.57v28.4h85.86v-28.4h-17.51Zm-60.28,116.23,18.85-51a231.92,231.92,0,0,0,10-32.95l.42-1.93h4.77l.29,2.12a163.21,163.21,0,0,0,8.38,32.83l17.44,50.91ZM656,874.87l2,34h36l-1.81-62.36h-162v28.41H554.6v166.82H534v28.4h81v-28.4H597.36V973.46h66.26V943.1H597.36V874.87Zm472.52,79-1.21-1.56,65-77.48h15.35V846.46h-74.1v28.41h21.55v4.62l-1.35.67a27.65,27.65,0,0,0-9.71,7.92l-35.27,40.09-29.23-37.94c-3.11-4.06-7.19-8.07-11.23-10.07l-1.35-.67v-4.62h21.87V846.46H997.09v28.41h17.69l65.61,85.79-70.27,81H992.51v28.41h80v-28.41h-20.24v-4.56l1.29-.7c3.73-2,8.23-6.39,11.7-10.52l34.29-40.53,30.55,40.27c3.59,4.58,6.29,7.85,10.86,10.91l1.09.72v4.41H1123.1v28.41h91.74v-28.41h-18.34Zm1278.58,87.79a17.41,17.41,0,0,1-10.46-3.21c-3.45-2.43-6.73-6.32-10.25-12.34l-20.56-34.28c-5.64-9.37-10.25-14.66-14.11-18.16-2.6-2.35-7.9-7.12-13.38-7.6l.12-.29c24.08-.86,51.6-26.61,51.52-59.11,0-22.51-9.73-42.35-29.34-52-12.83-6.36-20.12-8.18-46.9-8.23H2215.3v28.4h22.52v166.83h-20.57v28.41h83.91v-28.41H2280.6v-65h13.54c9.29-.08,16.27,4.6,21.05,12.65l27.74,47.66c8.75,14.92,15.2,23.29,20.63,27.75s9.68,5.27,15.46,5.32h43.89v-28.41Zm-99.57-95.33H2280.6v-71.5h24c14.81,0,25.47,2.8,32.58,8.93s10.05,15.37,10,26.83-3.09,20.65-9.87,26.78S2320.58,946.36,2307.53,946.36Zm-232.85,93.06-.16,2.28H2013v-71.5h57.46V939.83H2013v-65h60.59l2,34h34.34L2108,846.46H1945.72v28.41h24.49v166.82h-20.57v28.41h159.41l2.43-66.93h-34.34Zm-255.84-165.8c-20.46-17.86-50.44-27.15-88.25-27.15H1626.28v28.4h24.49v166.83h-24.49v28.41H1733.2c36.7,0,65.93-11.88,86.08-32.29s31.28-49.52,31.29-84.43C1850.54,918,1839.28,891.47,1818.84,873.61Zm-40.16,148.67c-15.18,13.81-35.23,19.41-54.94,19.41h-30.2V874.86h29.55c21.57,0,41.76,4.8,56.67,17.35s24.16,32.78,24.14,62.48C1803.9,986.52,1793.86,1008.46,1778.67,1022.28Z"/><path d="M814.39,956.56l-59.82,43.75v5.81l59.82-43.75Zm0,14.56-59.82,43.75v5.81l59.82-43.75Zm-20.58,73.25L734.15,1088v5.8l59.66-43.63Zm20.58-58.7-59.82,43.75v5.81l59.82-43.76Zm-80.24,122.7,59.66-43.63v-5.82l-59.66,43.63Zm80.24-108.14L754.57,1044v5.8L814.39,1006Zm0-58.21-59.82,43.76v5.81l59.82-43.75ZM524.29,854.31l-61,44.63v5.81l61-44.64Zm221.06,71.25,62.4-45.64h-7.94l-62.4,45.64Zm-221.06-56.7-61,44.64v5.81l61-44.63Zm290.09,15-59.82,43.75v5.79l59.82-43.75Zm0,29.09-59.82,43.75v5.81l59.82-43.75Zm0,14.56-59.82,43.75V977l59.82-43.75Zm0-29.1-59.82,43.75v5.81l59.82-43.75ZM1006.7,998.76l61.56-45L1065.4,950l-61.57,45ZM978,961.55l61.71-45.13-2.85-3.73-61.72,45.14Zm-7.17-9.3,61.75-45.16-2.85-3.73L968,948.53Zm14.34,18.6,61.67-45.1L1044,922l-61.68,45.11Zm64.77,18.68-32,24.42,3.8,4.34Zm-57.6-9.38L1054,935.08l-2.85-3.73-61.65,45.09ZM537,879.92h-7.93l-62.41,45.64h7.93Zm426.66,63,61.78-45.19-2.85-3.73-61.8,45.2Zm35.86,46.52,61.6-45-2.85-3.73-61.61,45.07ZM793.81,855.2l-61,44.63v5.83l61-44.63Zm20.58,159.56-59.82,43.76v5.79l59.82-43.76ZM987,1051,926.7,1095.1v5.81L987,1056.79ZM949.21,924.4,1010,879.92h-7.94L941.27,924.4Zm-138,150.9-61.44,44.92h7.93l61.44-44.92ZM991.62,873,930.17,918v5.81l61.44-44.94ZM814.39,1035.11v-5.8l-10.62,7.76h7.94ZM628.55,879.92,601.4,899.77v5.8l35.08-25.65Zm-19.9,0-7.25,5.3V891l15.19-11.11Zm41.9,0h-2.12l-47,34.4v5.81L650.78,884ZM601.4,1016.16V1021l57.31-42.41h-5.95Zm-63.1,104.35h8l61.81-45.21h-8Zm94.59-141.92-31.49,23v5.8l39.42-28.83ZM548.8,1011l-59.94,43.84v5.81l59.94-43.84Zm241.75,64.31-56.4,41.8v3.13h3.65l61.44-44.92Zm3.26-205.54-61,44.63v5.8l61-44.63ZM651.27,892.39,601.4,928.87v5.81L651.59,898ZM580.2,1075.3l-61.81,45.21h7.95l61.81-45.21ZM648,938.4H656l33.5-24.5h-7.94Zm-31.85,0,36.2-26.48-.32-5.58L608.25,938.4Zm19.89,0,33.5-24.5h-7.93l-33.5,24.5ZM613,978.59l-11.58,8.47v5.82l19.54-14.29ZM548.8,952.78l-59.94,43.84v5.82L548.8,958.6Zm0-14.54-59.94,43.84v5.8L548.8,944Zm0,29.09-59.94,43.84V1017l59.94-43.84Zm0,29.1-59.94,43.84v5.8l59.94-43.84Zm0,34.91v-5.82L533,1037.08h8Zm0-107.66-59.94,43.84v5.81l59.94-43.84Zm11.52,151.61-61.81,45.21h7.94l61.81-45.21ZM548.8,981.88l-59.94,43.84v5.81l59.94-43.84Zm-20.58,93.42v-5.62l-59.5,43.52V1119l59.76-43.7Zm12.22,0-61.81,45.21h7.92l61.81-45.21Zm8.36-166.16L488.86,953v5.8l59.94-43.84Zm-80.08,195.31,59.5-43.51v-5.81l-59.5,43.52ZM548.8,894.58l-59.94,43.84v5.82L548.8,900.4ZM528.22,1046.4v-5.82L468.33,1084l.38,6ZM548.8,880l-59.94,43.89v5.74l59.94-43.84Zm407.68,53.59,61.82-45.22-2.84-3.72-61.83,45.23Zm928.16,173,60.24-44v-5.81l-60.24,44.06Zm80.83-108.57-60.68,44.38v5.82l60.68-44.39ZM1941,856l-61.22,44.79v5.8L1941,861.78Zm24.5,156.67L1904.79,1057v5.81l60.68-44.38Zm-319.68-2.85-61.42,44.92v5.81l61.42-44.92Zm319.68,23.2v-5.81l-13.51,9.89h7.94Zm-20.58,9.25L1884.64,1087v5.16l60.24-44.06Zm20.58-58.71-60.68,44.38v5.82l60.68-44.39Zm0-101.85-60.68,44.39v5.8l60.68-44.38Zm0,14.56-60.68,44.39v5.8l60.68-44.37Zm0,58.19-60.68,44.38v5.81l60.68-44.38Zm-72.29-28.61L1956,879.92h-8l-62.78,45.91Zm72.29,14.07-60.68,44.39v5.79l60.68-44.38Zm0-14.57-60.68,44.38v5.83l60.68-44.38Zm0-14.54-60.68,44.39V961l60.68-44.38Zm0,58.2-60.68,44.39v5.8l60.68-44.39Zm247.22,75.52-59.86,43.78v5.81l59.86-43.78Zm-59.86,64.13,59.86-43.78v-5.81l-59.86,43.78Zm80.45-108.29-60.85,44.5v5.81l60.85-44.5Zm-69.57-74.26,63.15-46.18h-7.94l-63.15,46.18Zm69.57,109.17v-5.81l-10.41,7.61h7.94ZM2210.73,856.8l-61.17,44.74v5.81l61.17-44.74Zm22.54,158.11-60.85,44.49v5.81l60.85-44.5Zm0-29.1-60.85,44.5v5.8l60.85-44.5Zm0-87.3L2172.42,943v5.8l60.85-44.49Zm0,72.74-60.85,44.5v5.81l60.85-44.5Zm0-87.29-60.85,44.5v5.8l60.85-44.49Zm0,29.1-60.85,44.49v5.81l60.85-44.5Zm0,43.65-60.85,44.5V1007l60.85-44.49Zm0-29.09-60.85,44.49v5.81l60.85-44.5Zm0,14.54-60.85,44.49v5.81L2233.27,948Zm-587.48,53.09-61.42,44.92V1046l61.42-44.92ZM1341.9,960.56l-57.19,41.83-3.34,8.26,57.12-41.77Zm-8.57,20.82-57,41.68-3.34,8.26,56.92-41.63Zm-18.55,42.08L1298,1035.39l10.86-.54Zm10-21.28-56.8,41.54-3.34,8.26,56.72-41.49Zm25.67-62.41-57.39,42-3.33,8.24L1347,948.05Zm17.12-41.63-57.79,42.27-3.34,8.25,57.71-42.21Zm-8.55,20.8-57.59,42.12-3.34,8.26,57.51-42.06Zm286.76,111.22v-5.8l-17.39,12.72h7.93Zm-550.07-128,33.41-24.44.43-6.55-36.7,27.28Zm280.43-24.86-58,42.41-3.34,8.25,57.91-42.35Zm-85.41,165.19-59.67,43.65v5.8l59.67-43.64Zm-299.12-184-61.44,44.94v5.81l61.44-44.94Zm299.12,198.57-59.67,43.64v5.82l59.67-43.64ZM1107.75,916l2.73,3.36,5.68-4.85,6.22-9.17Zm31.2-36.63L1100,907.77l2.87,3.72,32.38-23.68Zm-11-15.29v-5.8l-42.24,30.89,2.86,3.71ZM1645.78,980.7l-61.42,44.92v5.8l61.42-44.92Zm0-14.54-61.42,44.91v5.81L1645.78,972Zm0-14.55-61.42,44.91v5.81l61.42-44.92ZM1384.7,856.51l-58.18,42.56-3.34,8.25,58.1-42.5Zm236.58,185.76-51.2,37.45-9.4,7.29v5.38l60.6-44.32ZM1645.78,937,1584.36,982v5.81l61.42-44.92Zm-631.92,71,50.93-37.25,8.78-10.12-1-1.34-61.54,45Zm546.81,98.89,60.6-44.32v-5.81l-60.6,44.32Zm10.23-182.08,61.47-45h-7.94l-61.47,45Zm50.38-71.75L1559.86,898v5.82l61.42-44.93Zm-36.91,71.75v4.71l61.42-44.92v-4.75h-1.45l-61.47,45Zm61.42-31.47-61.42,44.91v5.82l61.42-44.92Zm0,29.11-61.42,44.91v5.81l61.42-44.92Zm0-14.56-61.42,44.91v5.82l61.42-44.92Zm424.45-9.77-.32-5.57-51.84,37.91v4.61h1.63Zm-33.8,222.61h7.94l62.18-45.48h-7.93Zm42.3-45.48-62.19,45.48h7.93l62.19-45.48Zm-59.69,0-62.18,45.48h7.94L2027,1075.3Zm53.16-68-40.68,29.74h7.94l32.32-23.64Zm-13.37,68-62.18,45.48h7.94l62.18-45.48Zm-19.89,0-62.18,45.48h7.95l62.18-45.48Zm17.33-100-38.21,27.94v5.81l46.15-33.75ZM2071.12,935l7.7.18L2108,913.9h-7.48Zm-23.64-55.09-29.41,21.51v5.8l37.34-27.31Zm-19.91,0-9.5,6.94v5.83l17.47-12.77Zm8.81,95.41-18.31,13.38v5.81l26.25-19.2Zm34.37,53.43.41-6.11-19.74,14.43h7.94Zm-71.59,46.55L1937,1120.78h7.93l62.19-45.48Zm70-195.39h-1.82l-49.29,36v5.81l51.35-37.56Zm-51.11,95.41V980l6.37-4.66Zm-283.27,47.92L1797,977.78c.41-2.14.78-4.32,1.07-6.6l-62.44,45.67C1735.37,1019.18,1735.1,1021.31,1734.8,1023.25Zm-26.54-82.44,64.82-47.4q-2-1.46-4.19-2.75l-64.51,47.18C1705.56,938.69,1706.87,939.67,1708.26,940.81Zm27.2,52.86,63.32-46.31c-.11-1.87-.26-3.69-.45-5.47l-63.55,46.48C1735,990.17,1735.27,991.93,1735.46,993.67ZM1716.94,949,1782,901.4q-1.59-1.77-3.31-3.39l-65.07,47.6C1714.74,946.68,1715.84,947.8,1716.94,949Zm15.69,28.55c.26,1,.5,2.08.72,3.1L1797.18,934q-.49-2.58-1.09-5l-64,46.79C1732.3,976.35,1732.47,976.95,1732.62,977.56Zm-.59,58c2.4-.48,5.2-1.07,8.21-1.79l51-37.32a80.13,80.13,0,0,0,3-8l-61.64,45.09C1732.28,1034.89,1732,1035.61,1732,1035.61Zm43.36-16.69a63.14,63.14,0,0,0,6.28-6.67l-20.46,15C1766.79,1024.9,1771.85,1022.15,1775.4,1018.92Zm184,56.38-62.18,45.48h7.94l62.19-45.48ZM1729.7,968.78l64.25-47q-.83-2.32-1.78-4.49l-64.47,47.15Q1728.76,966.54,1729.7,968.78ZM1941,870.52l-61.22,44.78v5.81L1941,876.33Zm38.3,204.78-62.18,45.48H1925l62.19-45.48Zm-34.38-4-60.24,44.06v5.38h.6l59.65-43.85ZM1724.14,958.3l64.79-47.39c-.8-1.37-1.63-2.7-2.52-4l-65,47.51Q1722.83,956.29,1724.14,958.3Zm11.95,49.46,62.74-45.89c.1-1.94.15-3.91.17-5.93L1736,1002C1736.09,1004,1736.12,1005.9,1736.09,1007.76Zm653.32,67.54-61.81,45.21h7.95l61.81-45.21Zm19.89,0-61.81,45.21h8.72l59.89-45.21Zm-38.35-1-62.13,45.44a21.64,21.64,0,0,0,3.7.82h3.13l61.88-45.25A29.23,29.23,0,0,1,2370.95,1074.26Zm-31.82-34.48-.18-.31-32.49,23.77V1069l34.91-25.53C2340.63,1042.31,2339.89,1041.08,2339.13,1039.78Zm-32.68,14.7,28.92-21.15-2.37-4.06-26.55,19.41Zm-20.59-174.56v.48l.65-.48Zm66,179.22L2290,1104.36c.93,1.26,1.87,2.51,2.85,3.72l61.94-45.3C2353.83,1061.67,2352.84,1060.45,2351.83,1059.14Zm9.06,9.72c-.37-.31-.75-.63-1.12-1l-62.15,45.45a29,29,0,0,0,3.87,3l62.13-45.44A32,32,0,0,1,2360.88,1068.86ZM831.08,1075.3l-61.44,44.92h7.93L839,1075.3ZM2305,879.92h-6.5l-12.61,9.22v5.8l20.5-15C2305.89,879.94,2305.46,879.92,2305,879.92ZM2039.6,935.13l31.43-23-.32-5.57-39.07,28.57Zm262,6.53,41.14-30.09c0-.27,0-.51,0-.78,0-1.72-.1-3.32-.24-4.87l-48.86,35.74Zm15.63-60.89-31.33,22.91v5.81l37.5-27.43A50.14,50.14,0,0,0,2317.19,880.78Zm17.18,6.88a23.24,23.24,0,0,0-3.41-2.4l-45.1,33v5.81l49-35.87C2334.73,888,2334.57,887.81,2334.37,887.65Zm4.83,6.12-53.34,39v5.81L2341,898.25A26,26,0,0,0,2339.2,893.77Zm-36.77,143.3h4v2.86l23-16.8-2.37-4.08Zm-72.15,38.23-62.37,45.61h7.94l62.37-45.61Zm39.78,0-62.37,45.61h7.94L2278,1075.3Zm-19.89,0-62.37,45.61h7.93l62.37-45.61ZM2058.52,935.5l30-21.6h-8l-30.34,21.65Zm154.16,139.8v-1.69l-59.86,43.78v3.52h3.12l62.37-45.61Zm-2-204-61.17,44.74v5.81l61.17-44.74Zm79.22,204-62.37,45.61h7.95l62.37-45.61Zm25.24-76.66-29.32,21.45v5.8l31.69-23.18Zm8.32,14.28-2.38-4.07-35.26,25.79v2.43h4.62Zm-12.12-20.81a32.57,32.57,0,0,0-2.47-3.44l-23,16.85v5.81l25.75-18.83Zm33.72,57.4-61.67,45.1c.73,1.15,1.58,2.49,2.54,3.94l61.73-45.14Q2346.43,1051.57,2345.1,1049.52Zm-59.23-67.66v.38l.53-.38Zm12.08.3L2285.86,991v5.8L2303.4,984A16.94,16.94,0,0,0,2297.95,982.16Zm15.92-40.74a48.34,48.34,0,0,0,10.62-2l13.81-10.1a27,27,0,0,0,3.33-8.24Zm-1181.69,178h7.94l60.32-44.12h-7.94Zm.74-82.35c-1.1-1-2.12-2.11-3.1-3.22l-4.41,3.22Zm19.8,38.23-60.32,44.12h7.92l60.32-44.12Zm-19.9,0-60.32,44.12h8l60.32-44.12Zm154.67,0-56.42,39.94v2h5.22l58.55-41.94Zm-114.89,0-60.32,44.12h8l60.32-44.12Zm201.18-75.72-3,8,12.83-9.39h-8Zm-256,75.72v-3.51l-60.13,44v3.65h2.94l60.32-44.12Zm252.51-38.23,53.16-38.88h-7.95l-53.15,38.88Zm-6.93-9.48,40.2-29.4h-7.95l-29.27,21.4Zm-16.76,47.71L1288,1117.25h7.94l58.55-41.94Zm-19.89,0-58.55,41.94h7.94l58.55-41.94Zm-18.77,41.94h7.95l15.41-11.26,41.41-30.68h-6.22Zm-1.12-41.94-58.55,41.94h7.94l58.55-41.94ZM1057.6,1107l60.13-44v-5.81l-60.13,44Zm-64-31.71-60.32,44.12h7.93l60.32-44.12Zm39.78,0L973,1119.42h8l60.32-44.12Zm-19.89,0-60.32,44.12h7.95l60.32-44.12ZM987,1065.53l-60.33,44.12v5.81L987,1071.34ZM851,1075.3l-61.44,44.92h8l61.44-44.92Zm592.32-77.11h-7.94l-53.15,38.88h7.93Zm-633.86,122h7.95l61.44-44.92h-8Zm313.07-95.58L1076.89,1058v5.81l48.44-35.43Zm-4.77,18-40.84,29.87-3.76,2.75-15.53,11.36v5.8l60.13-44Zm-40.84.76v5.82l41.35-30.24-2.84-3.74Zm-3.22-6.37,37.47-27.41-2.84-3.74-42.59,31.15Zm27.54-40.5-13.13,9.6-12.88,15.22,28.84-21.09Zm-48,78.73-60.32,44.12h7.95l60.32-44.12Zm375.16-139-1.59-4.64-36,26.31h7.95Zm207.41,139-61.25,44.79h7.94l61.25-44.79Zm-14.52,0v-3.92l-60.6,44.32v4.4h1.92l61.25-44.79Zm34.42,0-61.25,44.79h7.94l61.25-44.79Zm-193.25-38.72-.68.5h.85ZM1756.69,885l-58.31,42.64v5.81l63.48-46.43C1760.19,886.32,1758.46,885.64,1756.69,885Zm-135.42-17.35-61.42,44.92v5.81l61.42-44.92Zm54.31,207.62-61.26,44.79h7.95l61.25-44.79Zm-276.48-1.14,45.85-33.54v-3.55h4.86l10.28-7.52-1.56-4.67-61,44.62Zm324.78-194.24-25.5,18.65v5.81l33.08-24.19C1729,880,1726.45,879.94,1723.89,879.92Zm18,1.41-43.47,31.8v5.81l49.73-36.37C1746.07,882.09,1744,881.67,1741.86,881.33Zm-46.37,194-61.26,44.79h7.94l61.25-44.79Zm2.62,41.73c3.75-.7,7.62-1.56,11.52-2.62l59-43.15q-5.31,1.28-10.87,2.15Zm17.27-41.73-61.25,44.79h7.93l61.25-44.79Zm19.95-.05-61,44.63c2.61-.15,5.61-.37,8.92-.7l60.48-44.24Q1739.58,1075.2,1735.32,1075.25ZM1704,879.91l-5.63,4.12v5.8l13.56-9.92Zm-259.06,184-59.51,43.52v5.81l59.51-43.52Zm4.33,11.39-61.81,45.21h7.95l61.8-45.21Zm19.89,0-61.81,45.21h7.95l61.81-45.21ZM1418.67,958l13.7-10-1.59-4.65L1410.72,958Zm-27.52,92.87,61.1-44.68-1.57-4.66-61.12,44.7Zm-5.71,47.82,59.51-43.52v-5.8l-59.51,43.52Zm9.69-36.17,61-44.65-1.57-4.67-61.06,44.66Zm93.93,12.78-61.81,45.21h7.93L1497,1075.3Zm-66.25-155.24-26.43,19.33-3,8,31-22.64Zm13,37.94-1-3-4.15,3Zm-17-49.59-15.07,11-3,8,19.61-14.35Q1419.62,910.78,1418.83,908.42ZM1509,1075.3l-61.81,45.21h7.94l61.81-45.21ZM1415.3,896.47l-4.56,3.33q-1.26,3.91-2.59,7.7l8.48-6.2C1416.16,899.7,1415.72,898.1,1415.3,896.47Zm51.74,224H1475l30-22,30.6-23.24h-6.76Z"/></g></g></svg>