<svg xmlns="http://www.w3.org/2000/svg" viewBox="0 0 2869.1 1971.44"><defs><style>.cls-1{fill:#fff;}.cls-2{fill:#f47a25;}.cls-3{fill:#f9a254;}</style></defs><title>Asset 2</title><g id="Layer_2" data-name="Layer 2"><g id="Layer_1-2" data-name="Layer 1"><rect class="cls-1" width="2869.1" height="1971.44"/><path class="cls-2" d="M989.33,995.74"/><path class="cls-2" d="M1150.13,861.87a71.1,71.1,0,0,1,18.8,2.21l8.85-44.6c-6.27-1.84-17-3.32-29.12-3.32-37.6,0-67.45,17-75.19,53.08l-5.16,23.22h-30.59l-10.32,50.13H1058l-24,117.84-2.18,8.76c-4.39,16.2-11.06,21-26.91,21-2.52,0-5-.13-7.33-.32l-9,45.14a137,137,0,0,0,20,1.41c37.6,0,67.45-17,75.19-53.08l1.14-5.12h.3l3.27-16.05.46-2.05h0l24-117.54h35.39l10.32-50.13h-37.23l1.84-9.58C1126.54,867,1134.28,861.87,1150.13,861.87Z"/><path class="cls-2" d="M1356.95,892.46h-55.29L1281,994.2c-5.9,28-21.75,39.81-41.65,39.81-18.8,0-28-11.06-28-25.07a61.82,61.82,0,0,1,1.11-10.69l21.75-105.79h-55.29l-22.85,108a117.58,117.58,0,0,0-2.21,19.91c0,36.86,27.28,62.29,73.35,62.29,27.64,0,43.86-6.63,56.76-24l.37.74a32.12,32.12,0,0,0,11.42,13.64c6.64,4.42,14.75,6.63,23.59,6.63,10,0,16.59-1.11,21.75-2.58l9.21-45.71a55.55,55.55,0,0,1-8.11.74c-6.63,0-10.69-4.79-10.69-12.53a35.21,35.21,0,0,1,1.11-8.11Z"/><path class="cls-2" d="M1551.38,1021.1a35.82,35.82,0,0,1,1.11-8.48l8.85-42.76a104.92,104.92,0,0,0,1.84-18.8c0-40.18-25.8-62.66-62.29-62.66-21.38,0-39.07,8.48-52.71,28.75l5.16-24.7H1398l-37.59,185.77h54.92L1436,975c4.42-22.48,19.91-38,40.55-38,18.8,0,29.12,10,29.12,27.28a36.53,36.53,0,0,1-1.11,10.32l-8.11,41.28c-1.84,9.21-3.32,16.59-3.32,22.85,0,24.33,16.22,40.92,41.28,40.92,17,0,21.75-2.21,22.49-2.58l9.21-44.6a48.65,48.65,0,0,1-6.26.37C1554.33,1032.9,1551.38,1028.48,1551.38,1021.1Z"/><path class="cls-2" d="M1777.42,1021.84a38.19,38.19,0,0,1,1.11-8.11l39.07-192.41h-54.18l-19.17,93.26c-5.16-12.9-27.64-25.43-60.45-25.43-55.66,0-106.53,48.66-106.53,107.26,0,51.61,38.34,84.78,87.36,84.78,30.22,0,49-6.63,63.77-23.22l.37,1.11a31.71,31.71,0,0,0,12.53,15.11c7,4.42,15.85,6.63,25.06,6.63,10,0,16.59-1.11,21.75-2.58l9.21-45.71a54.84,54.84,0,0,1-8.11.74C1781.84,1033.27,1777.42,1028.85,1777.42,1021.84Zm-99.15,9.95c-27.64,0-45.71-17-45.71-40.91,0-26.91,24-52.34,54.92-52.34,27.28,0,45.71,16.59,45.71,39.81C1733.19,1008.94,1708.49,1031.79,1678.27,1031.79Z"/><path class="cls-2" d="M1914.72,888c-63.4,0-108.74,52-108.74,108.74,0,51.61,36.86,86.62,92.89,86.62,28.75,0,58.61-8.84,83.3-33.17l-28.38-32.44C1940.52,1030,1925,1037,1907.71,1037c-29.49,0-47.55-13.64-47.55-33.91,0-.74,0-2.58.37-2.95h138.59a101.16,101.16,0,0,0,4.42-28C2003.55,923.79,1968.53,888,1914.72,888Zm36.12,76.3h-87c7-17.32,25.8-31,49.76-31,22.12,0,37.23,12.9,37.23,29.86Z"/><path class="cls-2" d="M2164.62,890.25a109.9,109.9,0,0,0-19.54-1.84c-22.12,0-40.18,8.48-54.18,28.75l5.53-24.7h-55.29l-38,185.77h55.29l17-83.3c7-33.91,27.28-55.66,57.5-55.66,0,0,13.47-27.08,42.64-46.34Z"/><path class="cls-2" d="M2338.58,1021.84a38.19,38.19,0,0,1,1.11-8.11l24.7-121.27H2310.2l-4.79,22.12c-5.16-12.9-27.64-25.43-60.45-25.43-55.66,0-106.53,48.66-106.53,107.26,0,51.61,38.34,84.78,87.36,84.78,30.22,0,49-6.63,63.77-22.85l.37.74c2.58,7,7.37,11.79,13.27,15.48a48.76,48.76,0,0,0,24.33,6.26c10,0,16.59-1.11,21.75-2.58l9.21-45.71a54.84,54.84,0,0,1-8.11.74C2343,1033.27,2338.58,1028.85,2338.58,1021.84Zm-99.15,9.95c-27.64,0-45.71-17-45.71-40.91,0-26.91,24-52.34,54.92-52.34,27.28,0,45.71,16.59,45.71,39.81C2294.35,1008.94,2269.66,1031.79,2239.43,1031.79Z"/><path class="cls-3" d="M744.1,958.36a22.38,22.38,0,0,0-31.65-.12L549.87,1119.62a220.25,220.25,0,0,1-45.16-134.72c.46-122.2,99.89-220.9,222.09-220.45,89.8.33,166.85,54.15,201.24,131.13L808.85,1013.89h0s-2.26,2.23-4.86,2.22a5.89,5.89,0,0,1-4.56-2Z"/><path class="cls-2" d="M803.8,1072.73a22.38,22.38,0,0,1-15.8-6.61l-55-55.44h0a6.65,6.65,0,0,0-4.89-2.32,7.23,7.23,0,0,0-4.92,2.31h0L580.45,1152.32A220.34,220.34,0,0,0,725.15,1207c122.2.46,221.64-98.24,222.09-220.45a222.25,222.25,0,0,0-4-43L819.65,1066.24A22.38,22.38,0,0,1,803.8,1072.73Z"/></g></g></svg>