<svg xmlns="http://www.w3.org/2000/svg" viewBox="0 0 2869.1 1971.44"><defs><style>.cls-1{fill:#fff;}.cls-2{fill:#808285;}.cls-3{fill:#00aeef;}.cls-4{fill:#6c757c;}</style></defs><title>Asset 1</title><g id="Layer_2" data-name="Layer 2"><g id="Layer_1-2" data-name="Layer 1"><rect class="cls-1" width="2869.1" height="1971.44"/><path class="cls-2" d="M804.71,1459.14c-32.84,0-53.73-7.68-76.34-28.57l27.73-27.72C769.75,1415.64,781.68,1422,803,1422c36.68,0,50.76-26,50.76-55v-27.73C838,1358.06,820.08,1364,797.89,1364c-21.75,0-39.67-7.25-51.61-19.2-20.9-20.9-24.32-51.19-24.32-87.87s3.41-67,24.32-87.87c11.94-11.95,30.29-18.77,52-18.77,23,0,40.52,6,56.73,25.59v-23h42.23v215C897.28,1420.76,862.31,1459.14,804.71,1459.14Zm5.13-270c-39.24,0-44.36,33.7-44.36,67.83s5.12,67.82,44.36,67.82,43.94-33.7,43.94-67.82S849.08,1189.13,809.84,1189.13Z"/><path class="cls-2" d="M1054.28,1181.82a97.85,97.85,0,0,0-10,20.8c-9.81-9.81-20.52-13.48-35.45-13.48-23.47,0-43.08,18.77-43.08,48.63v131.38H922.23V1152.87H964.9v23.47c11.09-15.36,33.27-26,57.58-26,18.19,0,32.5,4.2,45.75,15.12A106.67,106.67,0,0,0,1054.28,1181.82Z"/><path class="cls-2" d="M1209.56,1346.11c-14.08,14.5-35.4,25.6-64.84,25.6s-50.33-11.1-64.41-25.6c-20.47-21.33-25.6-48.63-25.6-85.31,0-36.26,5.12-63.56,25.6-84.89,14.08-14.49,35-25.59,64.41-25.59s50.76,11.09,64.84,25.59c20.48,21.33,25.6,48.63,25.6,84.89C1235.15,1297.48,1230,1324.78,1209.56,1346.11Zm-32.85-144.61c-8.1-8.1-19.19-12.37-32-12.37s-23.46,4.27-31.57,12.37c-13.22,13.22-14.92,35.84-14.92,59.3s1.7,46.07,14.92,59.29a43.42,43.42,0,0,0,31.57,12.8c12.81,0,23.89-4.69,32-12.8,13.23-13.22,14.93-35.83,14.93-59.29S1189.94,1214.72,1176.71,1201.5Z"/><path class="cls-2" d="M1384.22,1369.14v-21.76c-14.93,16.21-35.83,24.33-57.58,24.33-22.19,0-40.52-7.27-53.32-19.63-16.64-16.21-21.76-36.69-21.76-61V1152.87h43.51v131.81c0,33.71,19.2,48.21,43.51,48.21s44.79-14.94,44.79-48.21V1152.87h43.51v216.27Z"/><path class="cls-2" d="M1599.76,1352.5c-11.95,11.94-30.71,19.21-52.47,19.21-23,0-40.93-6-56.73-24.74v109.62h-43.5V1152.87h42.65v23c16.21-19.61,33.7-25.59,57.16-25.59,21.75,0,40.95,7.25,52.89,19.19,21.76,21.76,24.31,58.44,24.31,91.29S1621.52,1330.75,1599.76,1352.5Zm-64-163.37c-39.25,0-45.22,33.28-45.22,71.67s6,72.09,45.22,72.09,44.79-33.7,44.79-72.09S1575,1189.13,1535.78,1189.13Z"/><path class="cls-3" d="M1648.08,1254.35c0-81.85-31.13-101.48-31.13-101.48h66.71v21.76c14.51-15.78,35.82-24.31,57.59-24.31,26.88,0,47.77,10.67,61.43,31.57,17.49-21.32,39.23-31.57,67.81-31.57,22.19,0,41.81,7.25,54.61,19.62,16.64,16.2,23,36.68,23,61v138.2h-43.51V1237.34c0-33.71-19.19-48.21-43.52-48.21-23.45,0-44.78,14.93-44.78,46.07v133.94h-43.5V1237.34c0-33.71-19.2-48.21-43.52-48.21s-44.79,14.93-44.79,48.21v131.81h-63.75S1648.08,1355.81,1648.08,1254.35Z"/><path class="cls-3" d="M2006.79,1273.59c0,37.11,19.63,60.58,55,60.58,24.31,0,37.11-6.83,52.47-22.19l27.73,26c-22.18,22.18-43.08,33.71-81,33.71-54.18,0-97.26-28.58-97.26-110.91,0-70,36.26-110.48,91.72-110.48,58,0,91.71,42.65,91.71,104.08v19.19Zm91.28-59.71c-6.82-16.22-22.18-27.3-42.65-27.3s-36.25,11.08-43.09,27.3c-4.27,9.81-5.12,16.22-5.54,29.43H2104C2103.62,1230.09,2102.34,1223.68,2098.07,1213.88Z"/><path class="cls-4" d="M1121.68,1131.81"/><rect class="cls-3" x="1416.92" y="657.62" width="35.25" height="35.25"/><path class="cls-3" d="M1564.62,512.29H1304.47A100.71,100.71,0,0,0,1203.77,613V873.15a100.71,100.71,0,0,0,100.71,100.7h86.59l43,69,43-69h87.47a100.71,100.71,0,0,0,100.71-100.7V613A100.71,100.71,0,0,0,1564.62,512.29Zm-223,180.58h37.33V657.62h-37.33v-38h37.33V582.28h38V619.6h35.25V582.28h38V619.6h37.32v38h-37.32v35.25h37.32v38h-37.32v37.33h-38V730.88h-35.25v37.33h-38V730.88h-37.33Zm267.37,116.34s-50.18,94.52-169.34,94.52c-1.65,0-3.28,0-4.9,0s-3.25,0-4.9,0c-119.16,0-169.34-94.52-169.34-94.52a31.19,31.19,0,0,1-3.25-12.79,18.57,18.57,0,0,1,8.28-15.69,22.11,22.11,0,0,1,9.64-3.71c14.35-1.52,22.67,7.82,29.5,18.49,7.55,11.77,51.12,63.35,130.06,65.33,78.94-2,122.51-53.55,130.06-65.33,6.84-10.67,15.45-20,29.5-18.49a22.11,22.11,0,0,1,9.65,3.71c6.15,4,8.54,9.74,8.32,15.69C1611.75,805.18,1608.94,809.21,1608.94,809.21Z"/></g></g></svg>