<svg xmlns="http://www.w3.org/2000/svg" viewBox="0 0 2872 1968"><defs><style>.cls-1{fill:#fff;}.cls-2{fill:#231f20;}.cls-3{fill:gray;}</style></defs><title>Asset 6</title><g id="Layer_2" data-name="Layer 2"><g id="Layer_1-2" data-name="Layer 1"><rect class="cls-1" width="2872" height="1968"/><path class="cls-2" d="M508.7,1254.26v75.25H490.91v-75.25h-23.8V1238.4h65.4v15.87Z"/><path class="cls-2" d="M594.37,1329.52v-38.14H563.53v38.14H545.74V1238.4h17.79v37.24h30.84V1238.4h17.79v91.12Z"/><path class="cls-2" d="M631.37,1329.52V1238.4h60v15.87H649.15v21.37h36v15.87h-36v22.14h42.24v15.87Z"/><path class="cls-2" d="M792.36,1329.52l-36.09-55.92v55.92H738.48V1238.4h15.87l36.09,55.8v-55.8h17.79v91.12Z"/><path class="cls-2" d="M883,1320.3c-6.4,6.4-14.21,10-24.57,10s-18.3-3.59-24.7-10c-9.21-9.21-9-20.6-9-36.35s-.25-27.13,9-36.34c6.4-6.4,14.34-10,24.7-10s18.17,3.59,24.57,10c9.21,9.21,9.09,20.6,9.09,36.34S892.24,1311.09,883,1320.3Zm-13.18-61.94a14.81,14.81,0,0,0-11.39-4.87,15.07,15.07,0,0,0-11.52,4.87c-3.46,3.84-4.35,8.06-4.35,25.59s.89,21.76,4.35,25.6a15,15,0,0,0,11.52,4.86,14.79,14.79,0,0,0,11.39-4.86c3.45-3.84,4.48-8.06,4.48-25.6S873.3,1262.2,869.85,1258.36Z"/><path class="cls-2" d="M957,1329.52l-17.79-36.35H926.4v36.35H908.61V1238.4h35.71c18.55,0,29.57,12.67,29.57,27.89,0,12.8-7.81,20.74-16.64,23.94l20.35,39.29Zm-13.81-75.25H926.4v24.06h16.77c7.8,0,12.92-5,12.92-12S951,1254.26,943.17,1254.26Z"/><path class="cls-2" d="M1055.76,1329.52v-53.11l-17.4,34.56h-12l-17.53-34.56v53.11H991V1238.4h17.53l23.81,49.27L1056,1238.4h17.53v91.12Z"/><path class="cls-2" d="M1147.2,1329.52l-5.38-16.12h-32.38l-5.5,16.12h-18.56l33.15-91.12h13.95l33.28,91.12ZM1126,1265.27l-11.52,33.15h22.65Z"/><path class="cls-2" d="M1203.37,1254.26v75.25h-17.79v-75.25h-23.81V1238.4h65.4v15.87Z"/><path class="cls-2" d="M1240.39,1329.52V1238.4h17.79v91.12Z"/><path class="cls-2" d="M1313,1329.52h-13.31l-30.08-91.12H1288l18.3,59.38,18.3-59.38h18.56Z"/><path class="cls-2" d="M1354.84,1329.52V1238.4h60v15.87h-42.24v21.37h36v15.87h-36v22.14h42.24v15.87Z"/><path class="cls-3" d="M1541.1,1328.69v-52.15l-17.1,33.93h-11.81L1495,1276.54v52.15h-17.47v-89.47h17.21l23.37,48.39,23.25-48.39h17.21v89.47Z"/><path class="cls-3" d="M1609.54,1329.45c-18.34,0-32.92-12.44-32.92-31.41v-58.82h17.47v58.18c0,10.31,6,16.47,15.46,16.47s15.59-6.16,15.59-16.47v-58.18h17.33V1298C1642.47,1317,1627.89,1329.45,1609.54,1329.45Z"/><path class="cls-3" d="M1685.07,1329.45c-13.57,0-23.88-2.89-32.68-11.81l11.31-11.3c5.65,5.66,13.31,7.54,21.62,7.54,10.3,0,15.83-3.9,15.83-11.06,0-3.14-.89-5.78-2.77-7.54s-3.77-2.51-7.92-3.14l-10.8-1.51c-7.66-1.13-13.32-3.52-17.34-7.41-4.27-4.27-6.41-10.06-6.41-17.6,0-16,11.81-27.14,31.17-27.14,12.31,0,21.24,3,28.9,10.43l-11.06,10.93c-5.66-5.4-12.44-6.16-18.34-6.16-9.3,0-13.82,5.15-13.82,11.31a8.68,8.68,0,0,0,2.63,6.42,15.48,15.48,0,0,0,8.29,3.51l10.56,1.51c8.17,1.13,13.32,3.4,17.09,6.92,4.77,4.52,6.92,11.06,6.92,19C1718.25,1319.65,1703.79,1329.45,1685.07,1329.45Z"/><path class="cls-3" d="M1732.35,1328.69v-89.47h17.47v89.47Z"/><path class="cls-3" d="M1798.77,1329.45a33,33,0,0,1-24.13-9.8c-9-9-8.79-20.23-8.79-35.69s-.25-26.64,8.79-35.69a33,33,0,0,1,24.13-9.8c11.44,0,18.47,4,24.88,10.3l-11.56,11.56c-3.9-3.89-7-6.28-13.32-6.28a14.16,14.16,0,0,0-11.06,4.65c-3.39,3.77-4.4,8-4.4,25.26s1,21.49,4.4,25.26a14.16,14.16,0,0,0,11.06,4.65c6.28,0,9.43-2.39,13.32-6.28l11.56,11.56C1817.23,1325.43,1810.2,1329.45,1798.77,1329.45Z"/><path class="cls-3" d="M1898.54,1329.45a33,33,0,0,1-24.13-9.8c-9-9-8.79-20.23-8.79-35.69s-.25-26.64,8.79-35.69a33,33,0,0,1,24.13-9.8c11.44,0,18.47,4,24.87,10.3l-11.55,11.56c-3.91-3.89-7-6.28-13.32-6.28a14.16,14.16,0,0,0-11.06,4.65c-3.4,3.77-4.41,8-4.41,25.26s1,21.49,4.41,25.26a14.16,14.16,0,0,0,11.06,4.65c6.28,0,9.42-2.39,13.32-6.28l11.55,11.56C1917,1325.43,1910,1329.45,1898.54,1329.45Z"/><path class="cls-3" d="M1989.75,1319.65c-6.28,6.28-14,9.8-24.13,9.8s-18-3.51-24.25-9.8c-9-9-8.8-20.23-8.8-35.69s-.25-26.64,8.8-35.69c6.28-6.28,14.07-9.8,24.25-9.8s17.84,3.52,24.13,9.8c9,9,8.92,20.23,8.92,35.69S1998.79,1310.6,1989.75,1319.65Zm-12.95-60.82a14.52,14.52,0,0,0-11.18-4.77,14.78,14.78,0,0,0-11.31,4.77c-3.4,3.77-4.27,7.92-4.27,25.13s.88,21.36,4.27,25.14a14.78,14.78,0,0,0,11.31,4.77,14.52,14.52,0,0,0,11.18-4.77c3.4-3.77,4.4-7.92,4.4-25.14S1980.2,1262.59,1976.81,1258.82Z"/><path class="cls-3" d="M2078.5,1328.69v-52.15l-17.1,33.93h-11.81l-17.21-33.93v52.15h-17.47v-89.47h17.21l23.37,48.39,23.25-48.39H2096v89.47Z"/><path class="cls-3" d="M2149.6,1295h-17.21v33.68h-17.47v-89.47h34.68c18.48,0,29.53,12.69,29.53,27.9S2168.08,1295,2149.6,1295Zm-.88-40.21h-16.33v24.51h16.33c7.92,0,12.94-4.91,12.94-12.19S2156.64,1254.8,2148.72,1254.8Z"/><path class="cls-3" d="M2238.23,1328.69l-5.27-15.83h-31.79l-5.42,15.83h-18.21l32.55-89.47h13.7l32.67,89.47Zm-20.85-63.08-11.31,32.55h22.24Z"/><path class="cls-3" d="M2320.94,1328.69l-35.43-54.91v54.91H2268v-89.47h15.59l35.44,54.8v-54.8h17.47v89.47Z"/><polyline class="cls-3" points="2419.12 1239.22 2392.23 1292 2392.23 1328.69 2374.89 1328.69 2374.89 1292 2347.99 1239.22 2366.97 1239.22 2383.69 1275.29 2400.14 1239.22 2419.12 1239.22"/><path class="cls-2" d="M1443.12,588c-147.64,0-267.75,120.11-267.75,267.74s120.11,267.75,267.75,267.75,267.74-120.11,267.74-267.75S1590.75,588,1443.12,588Zm0,122a145.66,145.66,0,0,1,120.12,63.35c-15.93,35.51-36.39,84.54-51.09,106.89-6.21,9.46-17.12,25.13-32.72,19-9.23-3.65-15.58-17.49-19.59-28.58-4.51-12.37-7.12-24.27-11-35.83-8-23.89-12.21-45.93-23.95-64-6-9.27-16.45-20.9-32.67-16.52a35,35,0,0,0-12.79,6.81c-16.16,12.92-27.08,36.76-35.9,56.92-7.95,18.1-25.67,61.68-37.46,87.26a145,145,0,0,1-8.68-49.55C1297.38,775.39,1362.76,710,1443.12,710Zm0,291.46A145.74,145.74,0,0,1,1319.65,933c5.66-12.12,11.68-24.79,12.61-26.85,12-26.72,20-46.54,34.42-70.5,6.53-10.83,18.2-30.49,35.57-24.07,11.67,4.33,17.73,21,21.91,34,9.49,29.38,13.89,49.65,25.33,77.43,6.48,15.72,16.92,39.6,40.84,33.58,4.41-1.11,8.81-4,12.36-6.84,15.92-12.74,26.59-36.26,35.9-56.91,7.79-17.28,26.92-64.1,39.38-92.25a144.91,144.91,0,0,1,10.88,55.18C1588.85,936.1,1523.48,1001.48,1443.12,1001.48Z"/></g></g></svg>