<svg xmlns="http://www.w3.org/2000/svg" viewBox="0 0 2872 1968"><defs><style>.cls-1{fill:#fff;}.cls-2{fill:#231f20;fill-rule:evenodd;}</style></defs><title>Asset 16</title><g id="Layer_2" data-name="Layer 2"><g id="Layer_1-2" data-name="Layer 1"><rect class="cls-1" width="2872" height="1968"/><path class="cls-2" d="M1931.37,929.07c-16.45,2.7-38.63,3.09-56.59,1.39-3.54-25.2-12.43-45.08-33.39-52.87a44.15,44.15,0,0,0-23.65,4.64c-27,30-40.81,174.62,26,171.14,19.91-6.67,28.41-24.77,32.46-47.31,20-.37,41.63-1.65,61.69-.46.75,30.53,1.59,70.22-15.31,88.12-35.84,25.94-146.24,34.75-165.57,6.73-50.61-97.46-46.38-368.14,161.4-271.56,23,10.72,18.92,70.51,13,100.18"/><path class="cls-2" d="M1159.54,897.07c0-24.87-.29-53.39,6-80.24,44.88-.85,99.25-10,138.21,1.39,61.93,19.6,54.06,150.83,49.79,203.21-8.91,109.37-89.22,92.72-187.54,91.77-4.36-71.89,3.85-151-6.49-216.13m72.81-32.47c-3.07,0-5.45.74-7,2.32-4.69,58.37-3.87,128.57.46,186.92,10.76,12.37,35.74,4.35,45.45-3.25,22-37.49,20.79-133.38,1.39-172.08q-19-14.06-40.35-13.91"/><path class="cls-2" d="M1648.74,815.43c-19.7,99.72-38.87,196.85-58.91,294.52-17,3.55-40.29,1.47-56.59-1.39-20.6-35.12-15.45-99.42-38-134-15.82,39.84-12.34,99-28.29,138.67-17.22,1.8-38,1.05-56.12.47-26.09-95.12-46.21-198.68-68.18-296.37,16.26-1.83,37.7-.94,54.73-.46,24.74,31.07,15.24,96.38,39.42,128,19.82-33.46,37.66-128.47,37.66-128.47l43-.56,35.71,134.13c19-36.94,21-90.93,34.32-133.58,17.62-8.14,41-1.42,61.23-.93"/><path class="cls-2" d="M1719.27,815.84c.93,98.36,1.58,194.27.93,295.91-19.07,2.27-46.57-.83-66.11-1.15-6-93.63-.89-199,1.65-296.62,17.87-3.56,48.56-6.33,63.54,1.86"/><path class="cls-2" d="M2160.38,815.9c-31.39,71.4-76.52,142.51-76.52,142.51s44.09,73.42,78.36,154.78c-16.84.2-58.6,4-74.26.93-24.82-37.48-40.16-84.44-68.18-118.74-11.94,29.84.66,80.63-4.65,114.56-15,2.36-49.08,3.17-64.81.93-1.54-101.95-5.35-194.4.93-291.26,13.22,3.9,50.8-2.67,65.26.93,3.87,36.19-4,74.35,0,109,1.84.79,3.21,2.05,6,1.86,26.86-35.12,43-81,67.71-118.27,16.55-2.23,47,1,62.5,2.79"/><path class="cls-2" d="M1114.46,1074.55c7.87-19.82,13.24-43.66,17.34-66.8,1.93-11.11,4.84-26.37,4.84-37.45,0-14.09-2.82-26-2.82-39.57,0-24.28-3-56.62-10.88-76.17-8.58-21.61-12.39-42.75-22.57-61.27s-22.13-32.73-35.86-47.23c-9.16-9.67-35.71-31.06-51.18-31.06-19,0-46.21-19.8-65.69-16.17h-.4c-19,0-49.73,10.75-65.29,17.87-18.06,7.75-37.67,18.15-50.38,31.91-13.87,14.65-27,27-38.28,44.67-10.54,17.12-19.92,35-29.82,53.61-9.58,18.7-16.18,39.54-21.76,62.12-6,25.23-10.68,59.87-6.45,91.49,3.53,26.07,7.38,48.89,16.12,69.36,7.06,16.4,27,38.91,23,61.28-4.48,23.35-31.8,23.36-44.33,38.3-18.54,22.22,2.48,42.17,29.42,31.92,19.47-6.86,35.13-21,58-23.83,13.53-2.23,29.89,3.44,21,17.45-5.12,8.28-16.12,12-20.55,20.84-13.85,27,6,39.9,25,48.94,20,9,40.32-24.61,45.94-35.74,10.78-20.48,13.93-38.54,42.32-40.42,35.27-2.76,36.8,15.8,52.79,33.18,13.52,14.27,29.69,25.53,55.62,25.53,36.06,0,20.38-30.35,7.65-43.4-22.32-23.58,11.19-42.22,26.6-21.7,6.21,8.19,19.13,7.22,27.81,13.2,9,6.3,46.14-13.2,21-29.16-7.84-5-52.92-19.82-37.07-37.23C1097.45,1116.35,1107.59,1091.6,1114.46,1074.55Zm-92-203.51c-.82,12.37-2.07,27-2.88,39.29-.93,13.93-8.45,47.72-16.07,54.14C993,973.89,990.07,997.6,980,1008c-10.52,11.41-19.6,22.77-32.53,31A103.08,103.08,0,0,1,904,1055.37c-6.77.93-42.54,13.73-46.55,8.2-1.75-2.42-16.73-12.64-18.6-12.76-8.57-.56-23.83-28.08-26.91-36.37-5.42-14-14.23-30.53-12.87-51.16.74-11.18-1.06-23.4-.23-36,.64-9.62.08-35.8,5-41.24,3.69-3.75,5.55-22.56,7.62-27.45,3.68-8.24,7.23-15.68,10.55-23.41,6.07-14.32,18-27.76,27.47-38,10.36-10.92,21.56-21,34.66-28.1,12.46-7,28.3-14.55,45.88-13.39,13.29.88,40.43-7.83,49-1.41,8.06,6.26,27.17,23,26.91,36.38-.45,15.08,15.33,31.4,14.12,49.85C1019.47,849.77,1023.11,860.53,1022.42,871Z"/><path class="cls-2" d="M1003.2,846.11c1-15.21-12-28.67-11.64-41.11.22-11-15.55-24.83-22.19-30-7.07-5.29-33.66,4.86-44.62,4.13-14.5-1-27.56,5.29-37.83,11-10.81,5.86-20,14.16-28.59,23.17-7.84,8.46-17.65,19.54-22.66,31.35-2.74,6.37-5.66,12.51-8.7,19.3-1.71,4-3.24,19.54-6.28,22.64-4.1,4.48-3.64,26.07-4.16,34-.69,10.39.8,20.47.19,29.69-1.13,17,6.14,30.64,10.61,42.18,2.54,6.84,15.13,29.53,22.19,30,1.54.1,13.9,8.53,15.34,10.53,3.31,4.55,37-9,42.6-9.73a85,85,0,0,0,35.84-13.48c10.67-6.82,18.15-16.18,26.83-25.6,8.32-8.56,10.72-28.11,19.37-35.89,6.28-5.3,12.49-33.16,13.25-44.65.67-10.17,1.7-22.2,2.38-32.4C1005.7,862.64,1002.69,853.77,1003.2,846.11ZM980.93,897.8c-.58,8.71-5.29,29.84-10.05,33.86-6.56,5.89-8.38,20.73-14.69,27.22-6.58,7.13-12.26,14.24-20.35,19.41a64.5,64.5,0,0,1-27.17,10.22c-4.24.59-35.2,14.64-37.7,11.18-1.1-1.51-10.47-7.91-11.63-8-5.36-.35-14.9-17.56-16.83-22.74-3.39-8.76-8.9-19.09-8-32,.46-7-.66-14.64-.15-22.51.41-6,.05-22.39,3.16-25.79,2.31-2.35,3.47-14.11,4.76-17.17,2.3-5.15,4.52-9.81,6.6-14.64,3.8-9,11.24-17.36,17.18-23.78,6.48-6.83,13.48-13.12,21.68-17.57,7.79-4.36,17.7-9.1,28.69-8.37,8.31.55,33.87-10.95,39.24-6.94,5,3.91,17,14.41,16.83,22.75-.28,9.44,9.59,19.64,8.83,31.18-.39,5.81,1.89,12.53,1.46,19.11C982.21,881,981.43,890.09,980.93,897.8Z"/><path class="cls-2" d="M965.65,863.18c.58-8.82-7-16.62-6.75-23.84.12-6.38-9-14.4-12.87-17.39-4.1-3.07-25.9,7.31-32.25,6.89-8.41-.56-16,3.07-21.94,6.4-6.27,3.4-11.62,8.21-16.57,13.44-4.55,4.9-10.23,11.33-13.14,18.18-1.59,3.69-3.29,7.25-5,11.19-1,2.34-1.88,11.33-3.64,13.13-2.38,2.6-2.11,15.11-2.42,19.72-.4,6,.47,11.87.11,17.22-.65,9.86,3.56,17.77,6.16,24.46,1.47,4,8.77,17.12,12.87,17.39.89.06,8.06,5,8.89,6.1,1.92,2.64,27.84-9.69,31.08-10.13a49.4,49.4,0,0,0,20.78-7.82c6.18-4,10.52-9.38,15.55-14.84,4.83-5,6.21-16.3,11.23-20.81,3.64-3.07,7.24-19.23,7.68-25.89.39-5.9,1-12.87,1.38-18.79C967.1,872.76,965.35,867.62,965.65,863.18Zm-15.93,30.76c-.29,4.4-2.67,15.06-5.07,17.09-3.31,3-4.23,10.45-7.41,13.73-3.33,3.61-6.19,7.19-10.27,9.79a32.51,32.51,0,0,1-13.71,5.16c-2.14.29-25,12.49-26.26,10.74a27.3,27.3,0,0,0-5.87-4c-2.7-.18-7.52-8.86-8.49-11.47-1.71-4.42-4.5-9.63-4.06-16.14.24-3.53-.33-7.39-.07-11.36.2-3,0-11.29,1.59-13,1.17-1.19,1.75-7.12,2.41-8.66,1.16-2.6,2.28-5,3.32-7.39,1.92-4.52,5.67-8.76,8.67-12a45.07,45.07,0,0,1,10.93-8.86c3.93-2.2,8.93-4.59,14.47-4.23,4.19.28,24.33-10.62,27-8.6,2.54,2,8.57,7.27,8.49,11.48-.14,4.76,4.84,9.91,4.46,15.73-.2,2.93,1,6.32.73,9.64C950.36,885.44,950,890,949.72,893.93Z"/><path class="cls-2" d="M934.71,880.8c.27-4-3.19-7.62-3.1-10.93.06-2.92-4.14-6.6-5.9-8s-11.88,3.35-14.79,3.16c-3.86-.25-7.32,1.4-10.06,2.93a31.23,31.23,0,0,0-7.6,6.16c-2.08,2.25-4.69,5.2-6,8.34-.73,1.69-1.51,3.32-2.31,5.13-.45,1.07-.86,5.2-1.67,6-1.09,1.19-1,6.93-1.11,9-.18,2.76.21,5.44,0,7.9-.3,4.52,1.63,8.15,2.83,11.22.68,1.82,4,7.85,5.9,8a18.67,18.67,0,0,1,4.08,2.8c.88,1.21,12.77-4.44,14.25-4.65a22.63,22.63,0,0,0,9.53-3.59c2.84-1.81,4.83-4.3,7.14-6.81,2.21-2.27,2.85-7.47,5.15-9.54,1.67-1.41,3.32-8.82,3.53-11.88.17-2.7.45-5.9.63-8.61C935.37,885.19,934.57,882.83,934.71,880.8Zm-11.56,13.65c-.1,1.48-.9,5.06-1.7,5.74-1.11,1-1.42,3.52-2.49,4.62a18.41,18.41,0,0,1-3.45,3.29,11,11,0,0,1-4.62,1.74c-.72.1-8.4,4.2-8.83,3.61a9.17,9.17,0,0,0-2-1.36c-.91-.06-2.53-3-2.85-3.86-.57-1.49-1.51-3.24-1.37-5.43.08-1.18-.11-2.48,0-3.82.07-1,0-3.8.53-4.38.39-.4.59-2.4.81-2.91.39-.87.77-1.67,1.12-2.48a18.44,18.44,0,0,1,6.59-7,8.86,8.86,0,0,1,4.87-1.42c1.41.09,8.18-3.57,9.09-2.89s2.88,2.44,2.85,3.86c0,1.6,1.63,3.33,1.5,5.28-.07,1,.32,2.13.24,3.25C923.37,891.59,923.23,893.14,923.15,894.44Z"/></g></g></svg>