<svg xmlns="http://www.w3.org/2000/svg" viewBox="0 0 2872 1968"><defs><style>.cls-1{fill:#fff;}.cls-2{fill:#6d6e71;}.cls-3{fill:#00a0bf;}.cls-4{fill:#00b6d2;}</style></defs><title>Asset 9</title><g id="Layer_2" data-name="Layer 2"><g id="Layer_1-2" data-name="Layer 1"><rect class="cls-1" width="2872" height="1968"/><path class="cls-2" d="M1052.33,963q0-36.07-13.33-55.72t-38.44-19.66q-22,0-48.66,22c-12.95,10.64-48.87,55-66,72.23-6.47,6.51-9.34,2.46-8.25-1.82,5.34-21.15,17.5-70.27,17.5-70.27q0-15.73-12.57-15.71l-7.85,1.56L805.2,907c-17.78,3.14-28.19,13.59-31.4,31.37l-65.88,278.9a30,30,0,0,0-1.56,9.44c-1,2.09-1.57,5.27-1.57,9.44q0,14.09,20.42,14.09h7.85l45.11-.38c11.5,0,19.37-1.81,23.55-5.5s8.35-12.81,12.54-27.46c13.59-52.32,33.82-137,54.71-169.8,17-26.61,36.26-36.33,49.75-40.27,15.65-4.56,25.33.14,26.18,10.24a26.55,26.55,0,0,1-1.8,10.81L940,1038c-1.07,4.2-2.52,10.1-2.52,14.28,0,7.35,5.62,10.86,15,10.36a114.6,114.6,0,0,0,19.07-2.63s39.6-6.92,49.47-10c18.17-5.65,25.07-38.23,25.07-38.23C1052.24,994.75,1052.33,980.83,1052.33,963Z"/><path class="cls-2" d="M1187.67,1109.49a34.05,34.05,0,0,1,6.69.73l11.12,2.23q13.31,5.9,32.61,5.93a129.37,129.37,0,0,0,51.08-10.39,148.6,148.6,0,0,0,43-27.41,134.13,134.13,0,0,0,29.59-39.25,104.14,104.14,0,0,0,11.15-47.4q0-42.94-33.34-72.59t-80.75-29.63a192.11,192.11,0,0,0-81.48,17.77,212.45,212.45,0,0,0-67.37,48.89,256.69,256.69,0,0,0-46.7,71.13,205.38,205.38,0,0,0-17.76,84.42q0,63.71,38.51,100.74t102.21,37a205,205,0,0,0,161.5-80c13.82-18.74,19.66-30.69,17-41.5-3.34-13.47-20.11-6.36-28.84,6s-16.29,22.15-19.23,25.11q-16.33,20.73-43.71,34.08t-48.14,13.33q-23.69,0-38.54-20.77t-14.82-51.84Q1171.38,1109.51,1187.67,1109.49ZM1204,992.43q11.84-26.68,23.71-40,17.76-22.23,38.51-22.22t20.73,34.05q0,23.74-17,52.62t-39.29,43.71c-3.94,2-8.13,3.94-12.59,5.9a34.22,34.22,0,0,1-14.06,3q-17.79,0-17.79-19.25Q1186.2,1032.44,1204,992.43Z"/><path class="cls-2" d="M1615.44,1034.19c-4.34,8.21-6.38,12.29-6.47,14.89-.24,8,5.9,12.12,13.95,12.12l22-2.87s10.27-1.38,30.62-4.6c20.82-3.32,31-21.06,31-49.09a106.34,106.34,0,0,0-8.51-43.27,113.3,113.3,0,0,0-24.78-37.56A116,116,0,0,0,1636.43,899a113.54,113.54,0,0,0-45-9q-39.06,0-76.6,19.55a227.27,227.27,0,0,0-66.07,51.8,264.31,264.31,0,0,0-45.81,73.55,221.93,221.93,0,0,0-17.24,86.37q0,57.09,36,93.08t96.09,36c44,0,87.74-16.79,130.64-51.06a189.38,189.38,0,0,0,37.52-40.22s14.09-20.32,10.36-33.53c-1.38-4.79-3.84-7.33-8.87-7.33q-6,0-15,10.5c-23.05,31.07-47.43,54.24-64,63.37-17.65,9.75-37.71,14.61-54.67,13.21-37.92-3.1-57.08-22.53-57.08-67.56,0-6,1-14,3-24s4.53-20.49,7.52-31.54,6.26-22,9.77-33a296.43,296.43,0,0,1,11.24-30q19.53-40.55,39-63.83t37.56-23.26q12,0,20.25,11.24c5.52,7.53,8.3,16.76,8.3,27.77,0,8.06-1.3,17.29-3.77,27.8S1622.39,1021.2,1615.44,1034.19Z"/><path class="cls-3" d="M2055.65,798.74c-5.45,0-8.18,4.35-8.18,13q0,6.85,4.79,21.87c2.7,8.21,5.91,12.33,9.56,12.33,4.58,0,6.83-3.88,6.83-11.62,0-10.93-1.16-19.6-3.41-26S2059.76,798.74,2055.65,798.74Z"/><path class="cls-3" d="M2050.89,862.33a73,73,0,0,0-4.1-6.18c-1.35-1.8-2.73-3.88-4.12-6.13a142.17,142.17,0,0,1-8.89-15.72c-1.35-5-2.52-8.23-3.39-9.57a4.62,4.62,0,0,0-4.13-2.08q-4.09,0-10.22,9.58a124,124,0,0,0-12.3,52.66q0,15.71,5.45,24.24c3.65,5.7,8.7,8.56,15,8.56h1.37c7.28-.46,14.11-4.54,20.54-12.3a65.32,65.32,0,0,0,8.85-14.72,35.32,35.32,0,0,0,3.41-14,16.3,16.3,0,0,0-1-6.5C2056.69,868.58,2054.49,866,2050.89,862.33Z"/><path class="cls-4" d="M2176.69,834.05c-5.86-119.93-115-212-243.71-205.75s-228.4,108.61-222.54,228.55c2.28,46.61,20.23,89,48.83,123,0,0-17.15,46.54-28.55,82.66-7.94,25.23,16.13,13.61,16.13,13.61,15.25-4.84,89.24-37,89.24-37a245.4,245.4,0,0,0,118.12,23.48C2082.92,1056.34,2182.55,954,2176.69,834.05Zm-245.75-136a31.43,31.43,0,1,1-31.45,31.42A31.44,31.44,0,0,1,1930.94,698.1ZM1818.6,942a27.94,27.94,0,1,1,28-27.94A27.91,27.91,0,0,1,1818.6,942Zm266.46-54.36q-4.8,1.35-6.19,2.38c-.88.68-2.44,2.63-4.74,5.81q-13.7,21.2-31.47,33.82c-11.83,8.47-23.67,12.66-35.53,12.66q-25.26,0-41.71-18.46a63.1,63.1,0,0,1-12.81-22.73c-.31.5-.67,1.09-1,1.55a125.6,125.6,0,0,1-32.49,29.73c-12.52,8-23.79,10.17-33.32,10.17-16,0-23.76-6.41-23.76-22.83v-6.14a35.28,35.28,0,0,1,.71-6.85,95.7,95.7,0,0,1,2-15.71l1.38-6.86,18.47-80c2.25-8.64,6.12-13.45,11.59-14.35l36.26-5.47h2q8.89,0,8.89,7.52a9.53,9.53,0,0,1-.67,4.09l-20.51,83.39-1.36,4.78-1.37,7.54v2.05c0,7.74,2.73,11.63,8.21,11.63,5,0,9.65-2.52,14-7.53a53.42,53.42,0,0,0,7.9-13c-.21-2.48-.57-4.86-.57-7.46a79.41,79.41,0,0,1,19.52-53Q1988,801.47,2020.82,794c5.9-1.38,10-3.63,12.3-6.82l4.08-5.47c.45-.47,2.49-2.29,6.17-5.48,5-3.64,9.8-5.48,14.35-5.48q14.34,0,24.62,19.15c6.81,12.79,10.27,28,10.27,45.78a55,55,0,0,1-2.78,17.8c-.42,2.28-.76,4.21-1,5.8a30.81,30.81,0,0,0-.33,3.77,4.63,4.63,0,0,0,1.35,3.4l3.41,4.11,2.78,4.09a7.54,7.54,0,0,1,1.38,4.1C2097.39,881.92,2093.24,884.9,2085.06,887.62Z"/></g></g></svg>