<?xml version="1.0" encoding="utf-8"?>
<!-- Generator: Adobe Illustrator 21.0.2, SVG Export Plug-In . SVG Version: 6.00 Build 0)  -->
<svg version="1.1" id="Layer_1" xmlns="http://www.w3.org/2000/svg" xmlns:xlink="http://www.w3.org/1999/xlink" x="0px" y="0px"
	 viewBox="0 0 2872 1968" style="enable-background:new 0 0 2872 1968;" xml:space="preserve">
<style type="text/css">
	.st0{fill:#FFFFFF;}
	.st1{fill:#6D6E71;}
	.st2{fill:#00B6D2;}
</style>
<title>Asset 9</title>
<rect class="st0" width="2872" height="1968"/>
<path class="st1" d="M1052.3,963c0-24-4.4-42.6-13.3-55.7s-21.7-19.7-38.4-19.7c-14.7,0-30.9,7.3-48.7,22c-13,10.6-48.9,55-66,72.2
	c-6.5,6.5-9.3,2.5-8.2-1.8c5.3-21.2,17.5-70.3,17.5-70.3c0-10.5-4.2-15.7-12.6-15.7l-7.8,1.6L805.2,907
	c-17.8,3.1-28.2,13.6-31.4,31.4l-65.9,278.9c-1,3-1.5,6.2-1.6,9.4c-1,2.1-1.6,5.3-1.6,9.4c0,9.4,6.8,14.1,20.4,14.1h7.8l45.1-0.4
	c11.5,0,19.4-1.8,23.5-5.5s8.3-12.8,12.5-27.5c13.6-52.3,33.8-137,54.7-169.8c17-26.6,36.3-36.3,49.8-40.3
	c15.7-4.6,25.3,0.1,26.2,10.2c0.2,3.7-0.5,7.4-1.8,10.8L940,1038c-1.1,4.2-2.5,10.1-2.5,14.3c0,7.3,5.6,10.9,15,10.4
	c6.4-0.3,12.8-1.2,19.1-2.6c0,0,39.6-6.9,49.5-10c18.2-5.7,25.1-38.2,25.1-38.2C1052.2,994.8,1052.3,980.8,1052.3,963z"/>
<path class="st1" d="M1187.7,1109.5c2.2,0,4.5,0.3,6.7,0.7l11.1,2.2c8.9,3.9,19.7,5.9,32.6,5.9c17.6,0,34.9-3.5,51.1-10.4
	c15.8-6.6,30.4-15.9,43-27.4c12.2-11.1,22.2-24.5,29.6-39.2c7.4-14.7,11.2-30.9,11.2-47.4c0-28.6-11.1-52.8-33.3-72.6
	c-22.2-19.8-49.1-29.6-80.8-29.6c-28.1-0.1-55.9,6-81.5,17.8c-25.5,11.7-48.4,28.3-67.4,48.9c-19.4,20.9-35.2,45-46.7,71.1
	c-11.8,26.6-17.9,55.3-17.8,84.4c0,42.5,12.8,76.1,38.5,100.7c25.7,24.7,59.7,37,102.2,37c63.3-0.3,122.9-29.8,161.5-80
	c13.8-18.7,19.7-30.7,17-41.5c-3.3-13.5-20.1-6.4-28.8,6s-16.3,22.2-19.2,25.1c-10.9,13.8-25.5,25.2-43.7,34.1
	c-18.3,8.9-34.3,13.3-48.1,13.3c-15.8,0-28.6-6.9-38.5-20.8s-14.8-31.1-14.8-51.8C1171.4,1118.4,1176.8,1109.5,1187.7,1109.5z
	 M1204,992.4c7.9-17.8,15.8-31.1,23.7-40c11.8-14.8,24.7-22.2,38.5-22.2c13.8,0,20.7,11.4,20.7,34c0,15.8-5.7,33.4-17,52.6
	c-11.3,19.3-24.4,33.8-39.3,43.7c-3.9,2-8.1,3.9-12.6,5.9c-4.4,2-9.2,3-14.1,3c-11.9,0-17.8-6.4-17.8-19.2
	C1186.2,1038.4,1192.1,1019.1,1204,992.4z"/>
<path class="st1" d="M1615.4,1034.2c-4.3,8.2-6.4,12.3-6.5,14.9c-0.2,8,5.9,12.1,13.9,12.1l22-2.9c0,0,10.3-1.4,30.6-4.6
	c20.8-3.3,31-21.1,31-49.1c0.2-14.9-2.7-29.6-8.5-43.3c-5.7-14.1-14.1-26.8-24.8-37.6c-10.6-10.6-23.1-19-36.8-24.8
	c-14.2-6-29.5-9.1-45-9c-26,0-51.6,6.5-76.6,19.5c-25,13-47.5,30.6-66.1,51.8c-19.2,21.8-34.7,46.7-45.8,73.6
	c-11.5,27.3-17.3,56.7-17.2,86.4c0,38.1,12,69.1,36,93.1c24,24,56,36,96.1,36c44,0,87.7-16.8,130.6-51.1
	c14.4-11.5,27-25.1,37.5-40.2c0,0,14.1-20.3,10.4-33.5c-1.4-4.8-3.8-7.3-8.9-7.3c-4,0-9,3.5-15,10.5c-23.1,31.1-47.4,54.2-64,63.4
	c-17.7,9.8-37.7,14.6-54.7,13.2c-37.9-3.1-57.1-22.5-57.1-67.6c0-6,1-14,3-24s4.5-20.5,7.5-31.5s6.3-22,9.8-33
	c3.2-10.2,7-20.2,11.2-30c13-27,26-48.3,39-63.8s25.5-23.3,37.6-23.3c8,0,14.8,3.7,20.2,11.2c5.5,7.5,8.3,16.8,8.3,27.8
	c0,8.1-1.3,17.3-3.8,27.8S1622.4,1021.2,1615.4,1034.2z"/>
<path class="st2" d="M2055.6,798.7c-5.4,0-8.2,4.3-8.2,13c0,4.6,1.6,11.9,4.8,21.9c2.7,8.2,5.9,12.3,9.6,12.3
	c4.6,0,6.8-3.9,6.8-11.6c0-10.9-1.2-19.6-3.4-26S2059.8,798.7,2055.6,798.7z"/>
<path class="st2" d="M2050.9,862.3c-1.3-2.1-2.6-4.2-4.1-6.2c-1.3-1.8-2.7-3.9-4.1-6.1c-3.3-5-6.3-10.3-8.9-15.7
	c-1.3-5-2.5-8.2-3.4-9.6c-0.9-1.4-2.5-2.2-4.1-2.1c-2.7,0-6.1,3.2-10.2,9.6c-7.9,16.4-12.1,34.4-12.3,52.7c0,10.5,1.8,18.6,5.4,24.2
	c3.7,5.7,8.7,8.6,15,8.6h1.4c7.3-0.5,14.1-4.5,20.5-12.3c3.6-4.5,6.6-9.4,8.9-14.7c2.1-4.4,3.2-9.1,3.4-14c0.1-2.2-0.2-4.4-1-6.5
	C2056.7,868.6,2054.5,866,2050.9,862.3z"/>
<path class="st2" d="M2176.7,834c-5.9-119.9-115-212-243.7-205.8s-228.4,108.6-222.5,228.5c2.3,46.6,20.2,89,48.8,123
	c0,0-17.2,46.5-28.6,82.7c-7.9,25.2,16.1,13.6,16.1,13.6c15.2-4.8,89.2-37,89.2-37c36.8,17.5,77.4,25.6,118.1,23.5
	C2082.9,1056.3,2182.6,954,2176.7,834z M1930.9,698c17.4,0,31.4,14.1,31.4,31.4c0,17.4-14.1,31.4-31.4,31.4
	c-17.4,0-31.4-14.1-31.4-31.4C1899.5,712.1,1913.6,698.1,1930.9,698L1930.9,698z M1818.6,942c-15.4,0-27.9-12.6-27.9-28
	c0-15.4,12.6-27.9,28-27.9c15.4,0,27.9,12.5,27.9,27.9c0,15.4-12.5,27.9-27.9,27.9C1818.7,942,1818.6,942,1818.6,942z M2085.1,887.6
	c-3.2,0.9-5.3,1.7-6.2,2.4c-0.9,0.7-2.4,2.6-4.7,5.8c-9.1,14.1-19.6,25.4-31.5,33.8c-11.8,8.5-23.7,12.7-35.5,12.7
	c-16.8,0-30.7-6.2-41.7-18.5c-5.8-6.6-10.2-14.3-12.8-22.7c-0.3,0.5-0.7,1.1-1,1.5c-9,11.7-20,21.8-32.5,29.7
	c-12.5,8-23.8,10.2-33.3,10.2c-16,0-23.8-6.4-23.8-22.8v-6.1c0-2.3,0.3-4.6,0.7-6.8c0.2-5.3,0.9-10.5,2-15.7l1.4-6.9l18.5-80
	c2.2-8.6,6.1-13.5,11.6-14.3l36.3-5.5h2c5.9,0,8.9,2.5,8.9,7.5c0.1,1.4-0.1,2.8-0.7,4.1l-20.5,83.4l-1.4,4.8l-1.4,7.5v2
	c0,7.7,2.7,11.6,8.2,11.6c5,0,9.7-2.5,14-7.5c3.2-3.9,5.9-8.3,7.9-13c-0.2-2.5-0.6-4.9-0.6-7.5c-0.2-19.5,6.7-38.3,19.5-53
	c13-15.3,30.4-25.4,52.3-30.4c5.9-1.4,10-3.6,12.3-6.8l4.1-5.5c0.4-0.5,2.5-2.3,6.2-5.5c5-3.6,9.8-5.5,14.3-5.5
	c9.6,0,17.8,6.4,24.6,19.2c6.8,12.8,10.3,28,10.3,45.8c0.1,6-0.9,12.1-2.8,17.8c-0.4,2.3-0.8,4.2-1,5.8c-0.2,1.2-0.3,2.5-0.3,3.8
	c0,1.3,0.5,2.5,1.4,3.4l3.4,4.1l2.8,4.1c0.9,1.2,1.3,2.6,1.4,4.1C2097.4,881.9,2093.2,884.9,2085.1,887.6L2085.1,887.6z"/>
</svg>
