<svg xmlns="http://www.w3.org/2000/svg" viewBox="0 0 2872 1968"><defs><style>.cls-1{fill:#fff;}.cls-2{fill:#df5ba1;fill-rule:evenodd;}</style></defs><title>Asset 10</title><g id="Layer_2" data-name="Layer 2"><g id="Layer_1-2" data-name="Layer 1"><rect class="cls-1" width="2872" height="1968"/><path class="cls-2" d="M1621.12,988.73c12.45-2.11,27.24-.72,40,0,.77,2.87-2.09,2.12-2.1,4.21,4.59.74,5.93-1.79,10.52-1.05-11.07-20.22-19.28-38.24-31.57-55.79C1631.19,952.49,1626.62,971.07,1621.12,988.73Z"/><path class="cls-2" d="M2370.56,889.79c-8.37-21.09,13.27-24.5,18.94-38.95s-2.2-39.05-14.73-41c-15.6-2.48-24.17,13.81-36.84,13.68-5.4-11.94-15.08-21.08-32.63-17.89-9.41-13.74,2.52-21.22,2.11-33.68-.61-18.57-30.65-37.88-48.42-33.68a13.71,13.71,0,0,0-6.32,23.16c-9.34,1.11-7.48,11.73-12.63,17.89-3.07,3.67-9.53,4.52-12.63,8.42-5.74,7.23-6,18.82-14.73,24.21-12.92-5.95-23.3,12.89-33.68,12.63-8.8-.22-19.39-16.77-29.47-21.05-6.5-2.76-17.87-2-27.37-5.26-6.39-2.19-11.11-7-16.84-8.42-8.57-2.08-18.17.41-25.26-2.11-11.07-3.92-11.85-15.72-23.16-16.84-14.32-1.42-29,10.47-42.1,17.89-9.6,5.42-31.41,21.49-40,21.05-14.23-.73-29.28-26.42-38.94-30.52-16.79-7.13-31.56-1.06-41.05,7.37-7.62,6.76-10,17.63-17.89,17.89-4.33.15-8.61-5.17-12.63-7.37-17.47-9.53-28.58.4-32.63,17.89-32.53,8.72-56-19.64-86.31-27.37-7.25-1.85-14.77-.49-22.11-2.1-8.48-1.87-14.48-9.86-25.26-7.37-13,3-11.1,19.42-12.63,35.79-7.66,5.42-17.94,2.14-28.42,3.16s-18.81,5.45-27.37,2.11c-15-5.88-11.33-30.84-28.42-34.74-30.38-6.93-40.52,31.25-46.31,51.58-3.89,13.62-5.49,29-13.68,37.89-1.09-7.15,7.3-17.87,5.26-26.31-5-20.76-41-13.56-71.58-15.79-9.65-.7-19.08-4.52-26.32-5.26-30-3.07-50.19,5.64-80,7.37-41.48,2.41-83,6.95-123.15,7.37-23,.24-45.59,6.69-61.05,4.21-3.87-.62-7.62-4-12.63-5.26-5.7-1.45-11.88-.91-14.74-2.1-16.6-6.93-13.29-24.26-32.63-26.32-26.08-2.77-22.47,23.28-26.32,42.1-26.22-.67-53.1-4.18-80-2.11-11.61.89-22.79,4.74-33.68,3.16-6.19-.9-23.69-5.54-29.47-8.42-10.61-5.29-15.55-19.67-25.26-22.1-6.68-1.67-14.59.34-18.94-1.05-13.9-4.44-21.44-31.73-42.1-17.89-18.17,12.16-5.4,46.22-5.26,75.78-7.3,6.9-12.57,15.6-23.16,14.74-8.71-.71-12.47-9.92-21.05-17.89-7.69-7.13-16.79-12.11-20-18.94-3.67-7.81-2.14-21.13-8.42-26.32-10-8.23-35.49-.35-44.21,9.47-3.83,4.32-3.65,12-8.42,13.68-3.89,1.37-12.64-2.95-17.89-2.1-9.43,1.51-11.11,9.4-18.95,11.58-14.45,4-30.73-1.17-43.15-1-35.11.34-73.19,17.08-93.68,41-6.89,8.06-11,27.13-20,29.47-7.51,1.94-14.93-1.89-20,0-18.81,7-5.16,38.72,1.05,52.63,5,11.15,16.32,25.75,15.79,34.74-.37,6.23-6.81,8.6-8.42,15.79-1.39,6.2,2.38,10.09-1.05,16.84-15,3.62-36.23,1-42.1,13.68-.48,16,7.7,25.51,18.94,31.58,8.41,4.54,22,4.59,24.21,13.68,1.63,6.8-3.8,12.51-3.16,20,.58,6.72,8.22,14.46,10.53,24.2,2.59,10.94-1.34,26.79,3.16,33.69,11.95,18.32,32.78-6.09,42.1-6.32,10.15-.24,23.73,11.19,34.74,14.74,37.35,12,92.78,9.32,125.26-8.42,8.3-4.54,17.71-15.2,26.32-14.74,7,.37,15.51,9.32,22.1,14.74,8.09,6.64,15.87,12.85,21.05,16.84,15.91,12.25,27.18,24.43,51.58,16.84,4.64-5.19,0-19.62,3.16-26.31,15.18-5.09,30.59-5.66,44.21-11.58,6.76-2.94,12.91-9.72,18.95-9.47s14.09,9.15,17.89,10.52c12.43,4.46,40.07,5.38,56.84,1.05,5.31-1.37,11.22-5.81,15.79-7.37,12.57-4.28,26.34-3.36,30.52-13.68,7-17.29-9.36-27.66-7.37-42.11,18.05,6.48,21.4,29.37,40,44.21,22.67,18.09,77.35,12,107.36,9.47,49-4.08,51.87-43.42,50.52-95.79,4.6-3.11,12-3.48,20-3.16-23.88,18.28-1.54,36.41,11.58,48.42,9.42,8.62,16.35,15,25.26,23.16,10.91,10,35.16,43.18,57.89,40,16.72-2.33,10.09-27.56,21.05-30.52,8.46-2.29,18.9,8.86,26.31,9.48,23.22,1.95,51.1-21.83,73.68-18.94,19.24,2.45,16.28,36.21,34.74,38.94,20.7,3.06,44-22.46,60-34.73,8.54-6.57,17.85-12.53,27.37-20,7.91-6.21,19.36-18.88,28.42-18.94,7.61-.06,19.64,10.3,28.42,15.79,20.4,12.75,38.05,22.66,55.79,33.68,11.21,7,48.91,33.52,56.84,6.32,2.58-8.87-3.46-16.26-2.1-27.37,10.22,5.57,9,15.69,18.94,17.9,31.09,6.89,40.82-44.74,62.11-46.31,13.72-1,26.37,12.76,40,16.84,6.38,1.91,11.41,1.31,18.94,4.21,7.63,52.11,53.31,5.41,69.47-9.47,22.69,15,70.79,8.45,105.26,8.42,6.63,4.94,5.4,13.18,11.58,16.84,28.51,16.87,51.83-40,66.31-43.16,6,7,13,14,24.21,11.58,21.92-4.74,18.07-52.66,34.74-63.15,9.85,2.78,12.51,12.76,21.05,16.84,16.71,7.15,26.6-11.43,37.89-13.68,8.94-1.78,13.09,2.53,18.94-2.11,5-4,3-10.33,6.32-18.94,2.41-6.35,6.82-10.23,8.42-14.74,5.22-14.77,7-31,22.11-35.79,9.92-3.12,17.7.46,23.16-1.05,14.3-4,13.81-19.1,10.53-34.74,7-7.77,24-10.67,28.42-22.1C2409.06,905.25,2375.41,902,2370.56,889.79ZM766.43,1092.94c-1.43,13.5-8.81,26.48-16.84,34.73-36.45,37.49-116.86,26.27-152.62-5.26,3-1.86,8.92,2.27,11.58,4.21,1.22-.17,1.87.24,2.11,1.05-1.29-4-11.46-8.18-15.79-12.63,4.79-9.12,9.54-12.18,13.68-21.05,7.91,4.72,15.48,9.78,23.16,14.74,4.37.15.21.69,0,2.1,24.12,10.9,76.82,17.35,94.73-6.31,6.08-8,8.92-24.65,2.11-36.84-3.41-6.1-14.28-11.84-18.95-13.68-26.57-10.51-55.33-7-78.94-17.9-20.82-9.56-46.53-33.05-37.89-71.57,8.29-37,56.1-63,110.52-50.53,11.23,2.58,43.79,14.49,46.31,26.32,1.75,8.22-9.63,16.92-14.74,24.21-17.64-3.36-23.39-16.8-44.21-20-30.8-4.74-74.86,9.44-60,44.21,11.57,27.06,72.56,21.28,101,36.84C753.62,1037.55,769.72,1061.79,766.43,1092.94Zm173.68,12.63c-4.07,5.07-8,11.55-11.58,14.74-38.26,34.34-113.6,24.7-142.1-10.53-30.84-38.12-21.79-131.29-26.32-195.78,5.6-5.11,24.79-6,32.63-2.11,7.73,47,1.64,91.1,6.32,134.73,3.75,35,26.76,64.6,69.47,60,24.89-2.68,53-26,40-62.1-11.48-32-63-37.13-84.21-13.68-9.13-51.88,73.53-67.73,98.94-30.52a870,870,0,0,0-3.16-87.36c3.75,2.91,3.8,9.54,4.21,15.79,3.1-5.94-1.47-13.25,0-21.05,10.24.15,18.06-4.06,26.32,0,1.83,9.62,1.95,25.31,2.11,29.47a5,5,0,0,1-1.05-3.16C953.82,990.31,971.11,1066.93,940.1,1105.57Zm220,16.85c-7,5.29-22.21,2.35-33.68,3.15-24.72-25.8-43.6-57.44-69.47-82.1-18.34.6-35.39,2.51-53.68,3.15-.1,28.17,3,53.13,3.16,81-2.41,1.44-3.38,4.33-5.26,6.32H974.84a14.83,14.83,0,0,0-5.26-5.27c-6.18-68.49-6.05-144.19-9.47-215.78,2.55,1,2.79,4.23,3.16,7.37,2.42-2.84.37-10.15,1-14.74,17.84-.86,25.76-2.55,44.21-4.21,4.37.15.21.69,0,2.1,49.08-9.85,107-7.26,129.47,27.37,12.23,18.89,14,58.64-4.21,80-11.76,8.23-19.9,20.1-37.89,22.1,13.08,21.14,35.5,44.59,53.68,66.31C1154.68,1105.36,1165.27,1113.94,1160.09,1122.41ZM1325.35,914c-42.61,5.39-87.41,5.64-130.52,8.42-.7,20,3,44.67,2.11,68.42,30.77.32,66.12-.71,97.89-2.11,7.54-.33,17.16-3.29,23.16,2.11-.3,8.85,3.53,20.74-1.05,27.37-27.53,1.38-75.77,6.86-115.78,8.42.74,30.83,2.57,60.58,4.21,90.52-1.85,2.71-4.57,4.55-6.31,7.37-10.36,0-16.66-1.46-26.31,0a9.5,9.5,0,0,0-4.21-4.21c-6.66-66.51-7.12-143.13-9.47-216.83,2.31,2.26,3.32,5.8,3.16,10.53,2.69-4.48.32-12.92,0-17.9,14.64-1.38,28.67-2.38,46.32-4.21,4.37.15.21.69,0,2.11,35.07-6.32,82.5-5.42,114.73-8.42C1328.91,891.62,1325.67,907,1325.35,914Zm900,34.74a176.27,176.27,0,0,1-23.16,9.47c-1,13.72-1.49,22.15-5.26,33.68-8.36,17.4-15.45,35.56-28.42,49.47-3.94,4.22-13.36,12.78-18.95,15.79-1.87,1-4.59,0-6.32,1.05-2.74,1.75-4.63,5.59-7.36,7.37-13.48,8.78-36.27,14.27-56.84,12.63-1.62.55-.07,1.1,1.05,1-53.61,1-89.23-25.15-111.57-58.94-.5,19.47,1.46,34.53,1.05,51.57-9.84,7.7-31.43,3.66-46.31,6.32-33.92-41.51-70.52-80.35-105.26-121,3.33,38.76,2.21,82,6.31,120-1.46,3.11-4.86,4.26-6.31,7.37-16.16.87-34.92.48-46.31,3.15-5.11-5.48-10.18-1.6-22.11-1-13.41.62-25.06-.89-35.79,2.1-13.85-11.41-17.81-32.71-26.31-49.47-34.66,2.8-57.66.52-85.26,4.21-7.85,14.61-11.36,33.55-17.89,49.47-13.78,6.22-36.68,3.33-54.74,5.26-2.28-2.64-3.32-6.5-6.31-8.42,2.78-4.58,3.53-11.2,6.31-15.79-34.34,33.95-110.08,26.68-174.73,32.63-1.44-2.41-4.34-3.38-6.32-5.26-3.13-68.7-7.35-141-8.42-214.72,2.45,1.06,3.39,3.62,3.16,7.37,2.43-2.84.37-10.16,1.05-14.74,15.8-.59,23.56-3,38.95-4.21-.26,1.14-2.09.71-2.11,2.11,33.46-2.59,79.65-12.29,111.58,1.05,34.35,14.36,47,70.78,13.68,97.89,21.8,10.13,38.24,25.62,37.89,57.89,19.71-56.78,42.51-110.46,63.16-166.31,2.37.78.41,5.9,1,8.42,3-2.64,2.77-8.46,5.27-11.58,20.39-.24,28.75-4.59,46.31-3.16,32.89,69.52,68.62,135,101,204.2-.62-63.59-4.1-133.44-6.31-198.94,2.31,2.26,3.32,5.79,3.15,10.52,2.44-3.88.37-12.26,1.05-17.89,16.93,4.54,31.4-7.32,44.21-3.16,2,.64,10.07,8,10.53,9.47s-2.83.42-3.15,0c3.59,4.68,9.21,8.55,13.68,13.68,26.79,30.8,57.5,69.1,85.26,98.94-1.7-43.8-7.82-90.61-5.26-128.42,14.74-2.69,44.76-7,55.79,0,1,14.18.11,36.37,4.21,46.31,3.16-5.14,8.33-21.18,16.84-27.36.18,2.63-1.62,3.29-3.16,4.21,3.82-.48,10.61-9.93,7.37-11.58a18.74,18.74,0,0,0,8.42-8.42c3.13-1.82,5.34.34,7.37-1.05,5.84-4.34,9.73-10.62,17.9-12.63,5-1.23-7.9,3-8.42,6.31,4.21-1.42,11.53-5.28,11.58-7.37,22.94-9.7,67.82-14.81,95.78-3.16,2.67,1.11,4.54,4.12,7.37,5.26,28.78,11.63,55.78,38.57,61.06,69.47-12.42,6.87-29.75,8.84-47.37,10.53-8.32-19.1-22.24-42.9-49.47-44.21-52.32-2.52-76.93,35.58-81,80-2.28,24.64,12.54,37.1,21.05,55.79,5.11.3,6.32,1.41,8.42,6.31,46.57,23.56,111.43,2.59,113.68-46.31-16.13,2.38-49.21,3.81-40-24.21,21-6.6,56.07-5.25,75.79-10.53,19.55-5.23,37-14.1,55.79-25.26,6,3.09,9.62,8.62,15.79,11.58-.11,8.3-8.51,8.33-11.58,13.68C2245.39,933.68,2235.63,943.7,2225.31,948.73Zm65.26-31.58c8.74,9.85,22.43,14.75,29.47,26.31-2.71,2.56-6.32,4.21-11.58,4.21-.58-2.33,2-1.5,2.11-3.16-13.25,7-34,2.84-47.37,6.32.09,2.72,4.5,1.11,3.16,5.26-2.33.58-1.5-2-3.16-2.11,4.2,6.43,5.6,10.46,0,16.84,1.79,1,2.71,2.91,2.11,6.31.63.06,1-.8,1.2-1.89a11.37,11.37,0,0,0-1.2-4.42c1.09-.11,1.49,2.52,1.2,4.42.73,6,0,15.85-2.25,20.84-10.5-12.09-13.6-27.7-21.05-44.21,9.3-13.55,40.93-16.64,29.47-41.05h-8.42c-6.83-9.77-23.69-14.43-32.63-3.16-8.61-8.93-15.76-19.32-22.1-30.52,10,2,21.27,11.66,32.63,15.79,6.54-9.92,4.41-21.65,8.42-30.53,7.15,2.58,2.42,14.53,8.42,20,11.9-14.62,14.62-31.94,29.47-43.15-.65,20.95-7.66,41-11.58,60,16.14-9.24,33.14-21.39,53.68-28.42C2320.44,889.49,2302.88,900.7,2290.57,917.16Z"/><path class="cls-2" d="M1440.08,961.36c-.94.31-4.61,2.85-2.11,3.16,13.85-5.18,30.83-4.73,32.63-20,4.09-34.75-54.75-17.89-70.52-21.05-.28,11.77,2.9,24.82,0,35.79C1413.91,959.47,1429.05,958.36,1440.08,961.36Z"/><path class="cls-2" d="M1108.51,992.94c8.32-12.45,9.11-35-1.05-48.42-19.75-26.09-77.88-10.09-110.52-12.63,1.65,26.6,3.21,53.38,3.15,78.94,23.37,0,40.71-.19,63.16,0-.25,2.9-3.91,2.4-5.26,4.21,9.86.91,16.37-6.06,21.05-2.1C1087.92,1005,1101.12,1004,1108.51,992.94Z"/><path class="cls-2" d="M1476.92,1010.84c-14.87-7.42-49.64,3.29-73.68-1.06,2.1,11.94,1.7,26.37,3.16,38.95,15.11-2.28,38.5-.63,50.52,0-.25,1.5-1.73,1.78-2.11,3.16,5.46-.63,14.36-1.25,12.63-3.16C1491.55,1047.24,1492.78,1018.75,1476.92,1010.84Z"/></g></g></svg>