<svg xmlns="http://www.w3.org/2000/svg" viewBox="0 0 2872 1968"><defs><style>.cls-1{fill:#fff;}.cls-2{fill:#52479d;}</style></defs><title>Asset 12</title><g id="Layer_2" data-name="Layer 2"><g id="Layer_1-2" data-name="Layer 1"><rect class="cls-1" width="2872" height="1968"/><path class="cls-2" d="M1555.28,877.9H1427.64c-47.55,0-85.09,37.54-85.09,84.46v113.87h0v29.66c0,46.93,37.54,84.46,85.09,84.46h127.64v-43.79H1427.64a35,35,0,0,1-35-35V986.4h0V956.74a35,35,0,0,1,35-35h72c10.55,1.29,21.32,3.8,28.27,6.9,21.43,9.57,27.66,24.48,27.66,24.48V877.9l-.26.16Zm432,145.78-79.52-21.9c-16.27-4.38-28.78-19.4-28.78-39.42,0-21.9,17.52-40.67,37.54-40.67h63.09c35.89,5.17,57.72,31.38,57.72,31.38V877.9H1916.49c-48.8,0-87.6,37.54-87.6,84.46,0,41.92,30,72.58,68.82,82.59l77,20.65c18.77,5,31.28,18.77,31.28,40.67s-17.52,40.66-37.54,40.66H1899c-41.91-.82-59.65-32.26-59.65-32.26v74.06c-18.07-10.67-27-25.71-31.27-43.27-2.55-10.55-3.38-22.54-3.65-29.85V961.74c0-46.92-37.54-83.84-84.46-83.84H1576.37v43.8h.15v31.38s6.23-14.91,27.67-24.48c6.94-3.1,17.72-5.61,28.26-6.9H1720a34.31,34.31,0,0,1,34.4,34.41v40l-112.62,26.91c-17.2,4.23-39.17,11.74-51.21,24.33-14.66,15.34-17.61,37.3-17.61,58.25,0,21.16,1.41,52.41,13.84,67.31,15.15,18.15,43.82,17.78,70.62,17.78h147v-.18h35v.18h129c48.8,0,87.59-37.55,87.59-84.46C2056.07,1065.6,2026,1033.69,1987.25,1023.68Zm-232.9,123.25h-97c-8.55,0-21.7,1.05-27.51-4.7-7.81-7.73-6.9-24-6.9-36.59,0-10-.5-20.58,4.75-27.53s16.22-10.31,24.66-12.51l102-25ZM2205,921.7V877.9h-75.08V752.77l-50,51.94v73.62h-25.76v43.8h25.76V1106.9c0,46.93,38.17,83.84,87.59,83.84H2205v-43.8h-37.54c-20.65,0-37.54-18.14-37.54-40V921.7ZM748.89,752.77l-50,51.94v73.62H673.08v43.8h25.76V1106.9c0,46.93,38.16,83.84,87.59,83.84H824v-43.8H786.43c-20.65,0-37.54-18.14-37.54-40V921.7H824V877.9H748.89Zm575.61,392.7a146.36,146.36,0,0,1-3.34-23.89V752.77h-32.65l.07-.34h-55.14c20.25,10.74,30,26.5,34.49,45.09a141.46,141.46,0,0,1,3.18,21.69v58.7h-96.35c-47.55,0-85.09,37.54-85.09,84.46v143.11c0,46.93,37.54,84.46,85.09,84.46h96.35l32.75.52,0,.09h5.93l11.39.18v-.18h41.43C1342.34,1179.82,1329,1164.05,1324.5,1145.47Zm-53.39.68h-96.35a35,35,0,0,1-35-35V956.74a35,35,0,0,1,35-35h96.35v224.44Zm-198.09-.68c-2.56-10.61-3.39-22.67-3.65-30V961.74c0-46.92-37.54-83.84-84.46-83.84H841.32v43.8h.14v31.38s6.23-14.91,27.66-24.48c6.94-3.1,17.72-5.61,28.26-6.9H984.9a34.31,34.31,0,0,1,34.41,34.41v40l-112.62,26.91c-17.2,4.23-39.17,11.74-51.21,24.33-14.66,15.34-17.61,37.3-17.61,58.25,0,21.16,1.41,52.41,13.84,67.31,15.14,18.15,43.82,17.78,70.62,17.78h147v-.18h39.94C1089.06,1179.82,1077.5,1164.05,1073,1145.47Zm-53.7,1.46h-97c-8.55,0-21.7,1.05-27.51-4.7-7.81-7.73-6.9-24-6.9-36.59,0-10-.5-20.58,4.75-27.53s16.22-10.31,24.66-12.51l102-25Z"/></g></g></svg>