<svg xmlns="http://www.w3.org/2000/svg" xmlns:xlink="http://www.w3.org/1999/xlink" viewBox="0 0 2872 1968"><defs><style>.cls-1{fill:#fff;}.cls-2{fill:url(#linear-gradient);}.cls-3{fill:url(#linear-gradient-2);}.cls-4{fill:url(#linear-gradient-3);}.cls-5{fill:url(#linear-gradient-4);}.cls-6{fill:url(#linear-gradient-5);}.cls-7{fill:url(#linear-gradient-6);}.cls-8{fill:url(#linear-gradient-7);}.cls-9{fill:url(#linear-gradient-8);}</style><linearGradient id="linear-gradient" x1="1302.44" y1="967.15" x2="1874.99" y2="967.15" gradientTransform="translate(456.08 -415.57) rotate(20.39)" gradientUnits="userSpaceOnUse"><stop offset="0" stop-color="#aee0ea"/><stop offset="1" stop-color="#61cbe6"/></linearGradient><linearGradient id="linear-gradient-2" x1="958.22" y1="966.18" x2="1513.65" y2="966.18" xlink:href="#linear-gradient"/><linearGradient id="linear-gradient-3" x1="1460.3" y1="969.92" x2="1870.97" y2="969.92" gradientTransform="matrix(0.82, 0.58, -0.58, 0.82, 882.27, -613.22)" gradientUnits="userSpaceOnUse"><stop offset="0" stop-color="#51a9c1"/><stop offset="1" stop-color="#61cbe6"/></linearGradient><linearGradient id="linear-gradient-4" x1="1359.41" y1="1081.64" x2="993.66" y2="774.01" xlink:href="#linear-gradient-3"/><linearGradient id="linear-gradient-5" x1="1203.88" y1="912.47" x2="1289.11" y2="1025.85" gradientTransform="matrix(0.82, 0.58, -0.58, 0.82, 882.27, -613.22)" gradientUnits="userSpaceOnUse"><stop offset="0" stop-color="#51a9c1"/><stop offset="1" stop-color="#35798b"/></linearGradient><linearGradient id="linear-gradient-6" x1="1529.6" y1="1018.8" x2="1520.47" y2="914.49" xlink:href="#linear-gradient-5"/><linearGradient id="linear-gradient-7" x1="887.19" y1="999.66" x2="1360.11" y2="999.66" gradientTransform="matrix(0.8, 0.59, -0.59, 0.8, 938.31, -629.91)" xlink:href="#linear-gradient"/><linearGradient id="linear-gradient-8" x1="1358.28" y1="1000.07" x2="1842.89" y2="1000.07" gradientTransform="matrix(0.8, 0.59, -0.59, 0.8, 938.31, -629.91)" xlink:href="#linear-gradient"/></defs><title>Asset 13</title><g id="Layer_2" data-name="Layer 2"><g id="Layer_1-2" data-name="Layer 1"><rect class="cls-1" width="2872" height="1968"/><polyline class="cls-2" points="1626.09 880.77 1346.95 1250.57 1274.16 1269.66 1212.94 1286.29 1664.32 676.92 1810.84 1205.59 1832.7 1262.37 1804.15 1321.37"/><polygon class="cls-3" points="1523.15 710.31 1598.44 691.74 1665.12 676.18 1213.74 1285.55 1091.9 776.68 1067.45 689.83 1093.57 632.46 1249.31 1085.79 1523.15 710.31"/><polyline class="cls-4" points="1625.79 879.78 1407.04 1171.4 1804.54 1320.85"/><polygon class="cls-5" points="1093.57 632.46 1460.98 800.74 1249.31 1085.79 1093.57 632.46"/><polygon class="cls-1" points="1397.57 884.89 1284.52 846.68 1334.88 969.52 1397.57 884.89"/><polygon class="cls-6" points="1397.57 884.89 1277.06 829.23 1334.88 969.52 1397.57 884.89"/><polygon class="cls-7" points="1485.17 1070.24 1603.7 1122.45 1547.86 985.61 1485.17 1070.24"/><polygon class="cls-8" points="1598.44 691.74 1664.34 677.24 1213.74 1285.55 1033.37 765.76 1067.45 689.83 1229.65 1179.81 1598.44 691.74"/><polygon class="cls-9" points="1832.7 1262.37 1863.03 1200.56 1664.32 676.92 1212.94 1286.29 1274.16 1269.66 1645.71 779.86 1832.7 1262.37"/></g></g></svg>