<svg xmlns="http://www.w3.org/2000/svg" viewBox="0 0 2872 1968"><defs><style>.cls-1{fill:#fff;}.cls-2{fill:#e61e25;}</style></defs><title>Asset 14</title><g id="Layer_2" data-name="Layer 2"><g id="Layer_1-2" data-name="Layer 1"><rect class="cls-1" width="2872" height="1968"/><path class="cls-2" d="M1701.4,979.25a136.43,136.43,0,0,0-18.29-24,215.12,215.12,0,0,0-21.38-20c-8.55-6.9-17.22-13.64-25.85-20.44-8.39-6.6-16.86-13.11-25.2-19.79a172.51,172.51,0,0,1-18.73-17.47,87.24,87.24,0,0,1-14.34-20c-8.5-17-8.59-34-.42-51.11a60.63,60.63,0,0,1,26.1-27.39c18.17-10,37.49-12.22,57.61-7.57a47.62,47.62,0,0,1,16.63,7.41,35.94,35.94,0,0,1,10.08,10.48c6.67,10.69,6.2,25.57-5.5,35.58a31.91,31.91,0,0,1-11.06,6.31c-14.61,4.64-28.81,4.63-42.13-4.15a2.54,2.54,0,0,0-3.91.77c-1.06,1.83-2.38,3.65-2.87,5.66-2.61,10.52-.59,20,7.15,27.87a35.52,35.52,0,0,0,9.67,6.82,49.37,49.37,0,0,0,15.67,4.85c12.5,1.65,25,1.44,37.25-1.87,12-3.24,22.85-8.65,31.78-17.38,15.8-15.44,21.75-34.16,17.85-55.91-2.59-14.45-10.1-26-21.32-35.26a82.18,82.18,0,0,0-24.68-13.72,129.59,129.59,0,0,0-37.58-7.33c-5.48-.28-11-.22-16.48-.18a154.54,154.54,0,0,0-46.76,7.77c-15.83,5.16-30.31,12.88-42.77,24.06-21.43,19.24-32.19,43.31-31.91,72.13a91.25,91.25,0,0,0,12.66,45.33,129.16,129.16,0,0,0,20.61,26.77q9.38,9.38,19.34,18.17c7.09,6.26,14.48,12.18,21.77,18.21,9.17,7.59,18.34,15.18,26.88,23.49a140.2,140.2,0,0,1,20.58,24.46c9.81,15.24,13.76,31.82,11.24,49.78-2.76,19.59-11.61,35.84-27.51,47.9-9.92,7.52-21.28,11.77-33.5,13.85a110,110,0,0,1-35.53.24,89.63,89.63,0,0,1-27-8.24c-27.25-13.77-41.24-36.21-42.66-66.53a61.28,61.28,0,0,1,3.2-21.64,43.55,43.55,0,0,1,6.11-12.24,33.14,33.14,0,0,1,12.27-10.73c7.29-3.58,17.3-3.42,24.21,4.47a34.68,34.68,0,0,1,4.65,6.75,37.52,37.52,0,0,1,4.1,14.89,55.14,55.14,0,0,1-2.6,20.76,33.8,33.8,0,0,0-1.25,4.38,5,5,0,0,0,1.28,4.23,9.69,9.69,0,0,0,4.49,3,29.86,29.86,0,0,0,9,1.55,59.73,59.73,0,0,0,22.33-4.27,33.53,33.53,0,0,0,8.69-5c6-4.89,9.33-11.14,9.37-19a39.45,39.45,0,0,0-1.33-10.86,58.07,58.07,0,0,0-7.54-16.59,67.75,67.75,0,0,0-37.29-28,82.76,82.76,0,0,0-41.61-2.11c-28.22,5.62-48.83,21.21-61.51,47.09a72,72,0,0,0-6.63,21.8,12.13,12.13,0,0,1-3.06,6.5,124.62,124.62,0,0,1-20.72,19.3,72.85,72.85,0,0,1-16,8.87,47.77,47.77,0,0,1-22.44,3.13,26.22,26.22,0,0,1-19.35-10.84c-4.85-6.54-7.12-14.09-8-22.1a2.78,2.78,0,0,1,2-2.73c1.15-.39,2.32-.74,3.48-1.1,4.07-1.27,8.21-2.37,12.21-3.82,17.11-6.23,32.59-15.21,45.87-27.77,9.2-8.7,16.61-18.68,21.12-30.63a62,62,0,0,0,3.34-33.28c-2.87-16.16-14.48-26.55-30.73-27.59a61.08,61.08,0,0,0-27.73,4.61,94.67,94.67,0,0,0-28.27,18.33c-25,23.31-39.74,52.12-45.41,85.72-1.89,11.21-2,22.47-1.32,33.77.31,5.31-.14,6.09-5.18,8.29a66.7,66.7,0,0,1-6.9,2.38c-6.52,2-16.28-.38-21.5-8.5a37.64,37.64,0,0,1-5.15-12.64,79.77,79.77,0,0,1-1.75-19.1,240.81,240.81,0,0,1,2.41-25.51c2.73-20,6.68-39.7,10.44-59.48a12.6,12.6,0,0,1,1.07-3.47,3.92,3.92,0,0,1,1.95-1.73,18.27,18.27,0,0,1,3.58-.61,187,187,0,0,0,26-5.33,85.37,85.37,0,0,0,17.72-7.3,41.21,41.21,0,0,0,9.39-7.24A21.43,21.43,0,0,0,1340,899a23.32,23.32,0,0,0-2.53-7.79,40,40,0,0,0-12.45-14.4,2.38,2.38,0,0,0-3.24.48q-.56.73-1.07,1.48c-8.44,12.39-20.42,19.84-34.34,24.57a12.94,12.94,0,0,1-2.56.35c-1.32-1.79-.82-3.64-.55-5.42.85-5.73,2-11.43,2.66-17.18.75-6.66,1.23-13.36,1.53-20.06a40.1,40.1,0,0,0-.72-9.1,20.45,20.45,0,0,0-9.48-14,33.26,33.26,0,0,0-10.09-4.23,79.69,79.69,0,0,0-23.58-2.43c-.3,0-.6.1-.9.14a2.36,2.36,0,0,0-1.45,2c.53,3.92,1.13,7.83,1.62,11.76,1.94,15.54,1.19,31.08-.36,46.59-.48,4.85-1.3,9.68-2.13,14.48-.37,2.14-1.65,3.26-3.89,3-5.76-.59-11.56-.85-17.19-2.39-2.62-.72-5.29-1.28-8-1.92a13.07,13.07,0,0,0-1.82,2.15,57,57,0,0,0-4.61,13.85,21.93,21.93,0,0,0-.37,4.55,10.22,10.22,0,0,0,5.73,9.69,27.24,27.24,0,0,0,6,2.23,65.22,65.22,0,0,0,13.58,1.83c3.54.16,4.07,1,3.29,4.77-.12.6-.31,1.18-.45,1.78q-4.46,19.16-8.91,38.32c-3.9,16.64-7.68,33.32-9.34,50.35a28.53,28.53,0,0,1-5.13,14.38c-2.67,3.72-5.15,7.58-8,11.12a108.57,108.57,0,0,1-8.78,9.31,27,27,0,0,1-10.86,6.62c-7.83,2.35-13.24.67-17.18-6.27a44.31,44.31,0,0,1-3.71-9.31c-1.47-5-2-10.16-2.63-15.31a201.55,201.55,0,0,1-1-33.82c.31-7,1.58-13.94,2.44-20.9a56.67,56.67,0,0,1,4.76-16.61c2.39-5.26,4.19-10.8,6.09-16.26a94.32,94.32,0,0,0,4.06-18.75,38,38,0,0,0-1.14-16.32,21.07,21.07,0,0,0-6.85-10.59c-5.78-4.67-15.52-5.13-21.57-1.38a31.47,31.47,0,0,0-7.58,6.55,61.06,61.06,0,0,0-7.86,12.32,120,120,0,0,0-7.42,19.66c-5.24,18-7.77,36.38-8.94,55-.57,9.13-.57,18.3-.7,27.45a12.17,12.17,0,0,1-2.65,7.57,109.73,109.73,0,0,1-12.88,14.24,46.92,46.92,0,0,1-10.42,7.39,28.27,28.27,0,0,1-8.63,2.88,9,9,0,0,1-10.36-6.89,23.75,23.75,0,0,1-.78-4.5,60.48,60.48,0,0,1-.16-8.23c.37-4.86.82-9.74,1.61-14.55,1.72-10.53,3.81-21,5.51-31.55a162.55,162.55,0,0,0,2.38-31,103.47,103.47,0,0,0-3.29-23.51,46.71,46.71,0,0,0-6.26-14.17,29.2,29.2,0,0,0-17.44-12.49,38.47,38.47,0,0,0-17.23-.28c-8.56,1.67-16.09,5.59-23,10.77A108.3,108.3,0,0,0,990.31,945c-1.75,2.11-3.52,4.2-5.36,6.23-.27.3-1,.23-1.52.2-.12,0-.33-.56-.29-.82.7-3.9,1.38-7.8,2.19-11.68,6.48-31.08,12.2-62.28,14.87-94,1.1-13.07,1.47-26.2,2.09-39.3.5-10.48-4.26-18.15-13-23.58-1-.64-2.08-1.29-3.16-1.84-11.33-5.75-23.47-8.44-36.05-9.36-.78-.06-1.62.59-2.35.88a12.68,12.68,0,0,0-.07,2c.28,2.12.61,4.23,1,6.34s.78,4.2,1.08,6.31c2.68,18.52,2.62,37.12,1.42,55.73-1,15.84-3,31.59-5.48,47.27-3.81,24.11-8.58,48-13.13,72-2.79,14.68-5.57,29.37-8.07,44.1q-4.36,25.72-6.7,51.72c-1,11-1.11,21.94-1,32.93a23.22,23.22,0,0,0,1.8,8.91,12.87,12.87,0,0,0,13,8.31,28.24,28.24,0,0,0,5.4-.86c11.83-2.86,21.8-9.27,31.32-16.51a3.38,3.38,0,0,0,1.29-3.24c-.39-3-1-6-1.19-9.07a266.8,266.8,0,0,1,1.19-53,40.13,40.13,0,0,1,2.52-9.7,171.44,171.44,0,0,1,22-40c3.1-4.15,6.58-8,10-11.87a37.2,37.2,0,0,1,9.2-7.48,22.63,22.63,0,0,1,5-2.09,6.5,6.5,0,0,1,7.78,3.28,35.62,35.62,0,0,1,2.55,6.81,63,63,0,0,1,1.58,16.36,158.34,158.34,0,0,1-2.67,26.38c-1.72,9.61-3.64,19.18-5.5,28.76a227.36,227.36,0,0,0-3.66,30,69.14,69.14,0,0,0,1.2,16.4,38.68,38.68,0,0,0,5.65,14.39,30,30,0,0,0,22.51,14c9.11,1.12,17.58-.83,25.65-4.94a94.9,94.9,0,0,0,16.73-11.14,172.48,172.48,0,0,0,18.41-17.8c1.43-1.56,3-3,4.5-4.48a.93.93,0,0,1,1.55.24,20.06,20.06,0,0,1,1.43,3.3c1.47,5,2.63,10,4.33,14.92a57.23,57.23,0,0,0,9.78,17.49c10.55,12.93,27.67,16.37,42.33,11.7,7.41-2.36,13.68-6.66,19.57-11.57,7.31-6.1,13.42-13.31,19.16-20.86,1.66-2.19,3.2-4.47,4.93-6.6.47-.58,1.42-.76,2.41-1.25,1,2.12,1.94,4,2.92,5.93a53.77,53.77,0,0,0,7,10.68c11.51,13.17,25.85,18.84,43.31,16.37a58.43,58.43,0,0,0,20.54-7.36,92.39,92.39,0,0,0,14.9-10.59c1.14-1,2.21-2.12,4.25-2.09,1.53,2,3.14,4.17,4.84,6.29,7.36,9.17,16.88,14.69,28.39,17.1,11,2.31,21.84,1.47,32.62-1.26,12-3,22.8-8.57,32.92-15.54a165.86,165.86,0,0,0,23-19.53c1.29-1.29,2.66-2.48,4-3.71.58-.53,1.86-.07,2.25.8.5,1.11,1,2.22,1.43,3.35,5.92,14.84,15.52,26.85,28.07,36.61a116.6,116.6,0,0,0,22.67,13.7c18.78,8.7,38.64,13.21,59.19,14.56,9.42.62,18.91.49,28.37.29a179.43,179.43,0,0,0,53-9.46c17.84-5.94,34.28-14.51,48.39-27.08,23.13-20.59,35.28-46.15,35.09-77.44A100,100,0,0,0,1701.4,979.25Zm-355.47,34.5c0-.61,0-1.22,0-1.88,1.09-10.25,2.71-20.44,6.44-30.2a74.11,74.11,0,0,1,7.84-15.42,44,44,0,0,1,8.58-9.42,24.79,24.79,0,0,1,11.41-5.41,14.24,14.24,0,0,1,16.4,9.86c1.93,6.08,1.22,12-1,17.87a39.71,39.71,0,0,1-6.52,10.93,62,62,0,0,1-11.24,10.65,108.56,108.56,0,0,1-28.89,15.35A2.27,2.27,0,0,1,1345.93,1013.75Z"/><path class="cls-2" d="M833.88,752.35c.68-.74,1-1.39,1.49-1.58a76,76,0,0,1,26.71-5.58c15.91-.2,28.26,6.38,37.08,19.61A75.75,75.75,0,0,1,907.71,783a132.13,132.13,0,0,1,5.21,23.18c.83,5.73,1.46,11.52,1.72,17.3a378.13,378.13,0,0,1-.68,46.64c-1.09,13.69-2.44,27.35-4.44,40.93-6.72,45.71-17.25,90.45-34.55,133.42a289.53,289.53,0,0,1-18.32,37.86,167,167,0,0,1-20.81,28.92,90,90,0,0,1-18.78,15.95c-9.27,5.77-19.27,9-30.31,8.79a49.07,49.07,0,0,1-25.19-7.21,65.67,65.67,0,0,1-14.67-12.31,109.26,109.26,0,0,1-15-21.82,195.71,195.71,0,0,1-14.6-36.46c-.88-2.92-1.61-5.88-2.47-8.81-.5-1.71-1.14-3.37-1.81-5.33-1.06.67-2,1-2.46,1.63-1.46,2.32-2.72,4.76-4,7.17a360.14,360.14,0,0,1-29.15,45.39,194.84,194.84,0,0,1-20.65,23.24A111.67,111.67,0,0,1,637.94,1136a65.38,65.38,0,0,1-23.75,9.14c-15.28,2.43-28.37-1.69-39.1-12.92a66.09,66.09,0,0,1-11.26-16.61,130,130,0,0,1-9.37-26.71,213.44,213.44,0,0,1-5.09-29.74c-1-10.32-1.82-20.68-2.17-31A576.82,576.82,0,0,1,549,960.46c2.78-32.89,7.58-65.44,16.39-97.31a272.82,272.82,0,0,1,16.19-44.67,141.15,141.15,0,0,1,17.08-28.09c10.58-13.18,23.7-22.72,40-27.69a71.73,71.73,0,0,1,29-2.56,2.38,2.38,0,0,1,1.73,3.46q-.36.84-.76,1.66c-.27.55-.56,1.09-.83,1.63a555.81,555.81,0,0,0-48.82,144.28,440.39,440.39,0,0,0-8.34,85.49c0,13.11.2,26.24,2.3,39.25a106.2,106.2,0,0,0,3.79,16.94,92.08,92.08,0,0,0,4.61,10.93,26.22,26.22,0,0,0,3.66,5.23c5.75,6.83,13.6,7.63,20.73,4.8a34.47,34.47,0,0,0,10.62-7,85.26,85.26,0,0,0,11.82-13.93,177.09,177.09,0,0,0,11.75-19.61,434.45,434.45,0,0,0,21.54-49.46,19,19,0,0,0,1.21-8c-.55-8.52-1.2-17-1.48-25.58a501.15,501.15,0,0,1,1.8-64c1.9-20.06,4.89-40,10.61-59.36a152,152,0,0,1,9-23.93,88.37,88.37,0,0,1,9-14.84,54.78,54.78,0,0,1,9.51-9.85,34.14,34.14,0,0,1,25.65-7.49,18.31,18.31,0,0,1,14.74,9.54A29.49,29.49,0,0,1,785,790.53,76.8,76.8,0,0,1,786,807a260.32,260.32,0,0,1-3.77,30.87c-5.62,30.66-14,60.6-23.64,90.2-1.7,5.22-3.3,10.48-5.27,15.6A21.89,21.89,0,0,0,752,955.27c1.3,8.13,2.39,16.3,3.92,24.39a299.44,299.44,0,0,0,12.53,46.79,158.31,158.31,0,0,0,11.3,25,71.56,71.56,0,0,0,9,12.65,32.87,32.87,0,0,0,8.46,6.92,15.87,15.87,0,0,0,16.55-.21,31.72,31.72,0,0,0,8.25-7.17,78.39,78.39,0,0,0,9.86-15.37,175.85,175.85,0,0,0,11.49-29.85,381.38,381.38,0,0,0,11.45-55.5,472.56,472.56,0,0,0,4.19-63c.13-38-3.7-75.53-13.58-112.32a267.45,267.45,0,0,0-10-30.4C834.81,755.54,834.35,753.79,833.88,752.35Z"/><path class="cls-2" d="M2192.5,1071.44c-1.08.38-2.11.44-2.67,1-2,1.92-3.75,4-5.63,6a161.44,161.44,0,0,1-28.37,24.45c-10.5,7-21.73,12.44-34.15,15-10.87,2.21-21.81,2.4-32.65-.48-12.69-3.37-22.41-10.77-29.46-21.76-1.64-2.56-3.09-5.23-4.68-8a8.35,8.35,0,0,0-2.68.75c-2.44,1.82-4.72,3.86-7.15,5.71a74,74,0,0,1-18.1,10.6,39,39,0,0,1-14.24,2.95,30.87,30.87,0,0,1-23.61-10.23c-1.65-1.79-3.08-3.78-4.62-5.67-1.13-1.38-2.4-1.29-3.76.29-1.59,1.85-3.11,3.76-4.74,5.58a65.52,65.52,0,0,1-18.55,14.7,55.79,55.79,0,0,1-31,6.25,39.28,39.28,0,0,1-22.37-9.54,50.58,50.58,0,0,1-11.56-14.07,66.64,66.64,0,0,1-8.61-31.47c-.73-37.11,10.57-70.24,33.53-99.38a109.73,109.73,0,0,1,22.41-21.46,85.4,85.4,0,0,1,16.72-9.38c10.79-4.52,21.9-5.14,33.22-2.86a32.9,32.9,0,0,1,11.79,4.82c1.52,1,3,2.13,4.48,3.17a2.2,2.2,0,0,0,3.22-.32c1.09-1.46,2.1-3,3.23-4.43a50.77,50.77,0,0,1,4.69-5.61,34.86,34.86,0,0,1,6.46-5,12.65,12.65,0,0,1,15.95,2.19,26.32,26.32,0,0,1,7.18,15.46c1.41,13,.09,25.53-6,37.37-6.29,12.2-11.74,24.8-17.09,37.44-5.72,13.52-5.95,27.27-1.9,41.2a30.41,30.41,0,0,0,3,6.62,7.28,7.28,0,0,0,7.83,3.48c5.92-1.14,9.18-2.83,15.35-8,.65-3.46.29-7.13.25-10.76-.25-19.52,3.82-38.18,11.18-56.16a149.44,149.44,0,0,1,30.74-47.3,119.18,119.18,0,0,1,26.48-20.95,85,85,0,0,1,21-8.78,55.89,55.89,0,0,1,24.49-1.12c9.7,1.79,17.68,6.52,23.2,14.9a31.77,31.77,0,0,1,5.27,20c-1,14-6.52,25.94-17.28,35.16a39.3,39.3,0,0,1-18.65,9.23c-1.07.2-2.71-.76-2.79-1.75-.26-3-.51-6.07-.71-9.11a61.43,61.43,0,0,0-3.75-17.85,42.63,42.63,0,0,0-4.07-8.15,22.53,22.53,0,0,0-5-5.32c-4-3.11-8.36-3.36-12.88-1.1a28.79,28.79,0,0,0-9.05,7.59,67.88,67.88,0,0,0-9.2,14.71,119.66,119.66,0,0,0-9.09,27.76,143.3,143.3,0,0,0-2.14,41.9,61,61,0,0,0,3.56,16,54.74,54.74,0,0,0,3.84,8.28c7.33,12.54,20.26,15.25,29.68,13.46a55.43,55.43,0,0,0,17.11-6.21,95.65,95.65,0,0,0,18.26-13.69,200.06,200.06,0,0,0,17.85-19.62,20.44,20.44,0,0,0,4.64-11.65,138.14,138.14,0,0,1,9.7-38.94,148.21,148.21,0,0,1,34.54-52.31,105.57,105.57,0,0,1,25-18.29,71.61,71.61,0,0,1,24.27-7.77,53.9,53.9,0,0,1,14.57.27c12.28,1.81,24.6,10,27.81,27.69,2.67,14.66,0,28.53-6.67,41.71a85.76,85.76,0,0,1-15,20.67c-12.48,13-27.37,22.32-43.81,29.34a116.09,116.09,0,0,1-17.27,6c-1.77.45-3.51,1-5.26,1.57a2.76,2.76,0,0,0-2,2.69c.83,8.67,3.36,16.73,8.75,23.69a26.56,26.56,0,0,0,18.74,10.25,48.93,48.93,0,0,0,26.71-4.57,85.57,85.57,0,0,0,19.8-13.07,154.47,154.47,0,0,0,21.22-22.7c3.16-4.11,6.21-8.31,9.43-12.38a58.69,58.69,0,0,1,5-5.33c2.28-2.24,5.23-3.06,8.3-3.47a7,7,0,0,1,7.56,5.24,13,13,0,0,1,0,7.22,41.59,41.59,0,0,1-4,9.2c-11.42,18.91-24.77,36.27-41.11,51.23a141.07,141.07,0,0,1-25.74,19,91.68,91.68,0,0,1-28.07,10.75c-10.9,2.06-21.8,2.33-32.65-.53a47.82,47.82,0,0,1-27.76-19.67,63.36,63.36,0,0,1-8-16.37C2194.22,1076.8,2193.4,1074.21,2192.5,1071.44Zm-264.7-41.56c0,3-.19,6.11,0,9.14a52,52,0,0,0,5,19.37,26.36,26.36,0,0,0,5.25,7.43,14,14,0,0,0,10.77,4.15,27,27,0,0,0,9.75-2.2,44.83,44.83,0,0,0,18-15.06,10.59,10.59,0,0,0,1.93-5.07c.44-3.63.87-7.26,1.4-10.88a379.58,379.58,0,0,1,8-41.27,15.63,15.63,0,0,0-1.17-11.53,66.15,66.15,0,0,0-4-7.17,23.25,23.25,0,0,0-10.39-8.66c-6.58-2.71-13-2.71-19.3,1a37.72,37.72,0,0,0-11.24,10.59,65,65,0,0,0-8.79,17A92.32,92.32,0,0,0,1927.8,1029.88Zm307.74-20.35c0,1,0,1.6,0,2.21,0,.3,0,.61,0,.91a2.24,2.24,0,0,0,2.66,1.69,8.87,8.87,0,0,0,.9-.15c11.72-4.5,22.74-10.27,32.4-18.39A58.31,58.31,0,0,0,2282,984.4,36.17,36.17,0,0,0,2287.7,972c1.28-5.46,1.28-10.89-1.2-16.07a13.57,13.57,0,0,0-12.23-8.19,19.38,19.38,0,0,0-9.72,2,35.46,35.46,0,0,0-11.84,9.85,67.59,67.59,0,0,0-10.2,18.26C2238.49,988.21,2236.59,999,2235.54,1009.53Z"/><path class="cls-2" d="M1881.83,983.15a74,74,0,0,0-6-26.63,51.15,51.15,0,0,0-6.92-11.8q-13.86-17.59-36.15-15.28a49.46,49.46,0,0,0-20.62,7,67.3,67.3,0,0,0-16.67,14.15c-1.78,2.09-3.47,4.25-5.28,6.31a1.88,1.88,0,0,1-1.54.54,1.82,1.82,0,0,1-1.17-1.17c-1.35-10.44-7.92-16.79-16.67-21.46q-.81-.43-1.63-.83c-.82-.4-1.64-.82-2.48-1.17a90.2,90.2,0,0,0-23.82-6.17c-4.72-.57-6.15-.44-6.19,5,0,3-.15,6.1-.33,9.14-.64,11-1,21.93-2.26,32.85-1.5,12.72-2.61,25.48-4.13,38.19-2,17-4.2,33.88-6.43,50.81-2,15.41-4.23,30.81-6.37,46.21q-3.27,23.55-6.56,47.1c-1.54,11.17-3.09,22.35-4.52,33.54-1.54,12.1-3.05,24.2-4.38,36.32-.79,7.27-1.25,14.58-1.76,21.88a37.51,37.51,0,0,0,.16,5.48,17.36,17.36,0,0,0,6,12,44,44,0,0,0,5.92,4.25,39.12,39.12,0,0,0,11,4.44,126.66,126.66,0,0,0,30.78,3.82c.6,0,1.21-.13,1.82-.19a3.09,3.09,0,0,0,2.23-2.56c-.21-2.43-.34-4.87-.7-7.28-2.1-14.24-2-28.57-2-42.9,0-14.64.52-29.27,1.93-43.85,1.52-15.78,3-31.57,4.49-47.35.47-4.85,1.1-9.69,1.78-14.52.29-2.06.26-4.31,2.3-6.11,1.53.63,3.18,1.35,4.84,2a55.51,55.51,0,0,0,18.7,3.85c10.69.32,20.49-2.62,29.73-7.68a93.64,93.64,0,0,0,22.28-17.38,131.69,131.69,0,0,0,20.55-27.91A157.2,157.2,0,0,0,1881.83,983.15Zm-38.7,27.1a109.67,109.67,0,0,1-11.94,47.47,82.76,82.76,0,0,1-11.17,16.67,43.92,43.92,0,0,1-11.12,9.41c-8.91,5.12-17.24,3.31-23.2-5a39.92,39.92,0,0,1-6.18-15.13,84.45,84.45,0,0,1-1.9-20c-.7-6.55.93-13.61,3.32-20.62,3.44-10.14,7.5-20,13.14-29.09a65.63,65.63,0,0,1,10.81-13.54,35.11,35.11,0,0,1,9.8-6.62,19.93,19.93,0,0,1,8-1.69,15.87,15.87,0,0,1,14,7.28,32,32,0,0,1,4.93,12.69A85.31,85.31,0,0,1,1843.13,1010.25Z"/><path class="cls-2" d="M1144.08,840.75a41.05,41.05,0,0,1,6.93-24.17c8.46-12.75,20.55-17.43,35.47-15.36a27.93,27.93,0,0,1,9.55,2.92c7.57,4.08,11.72,10.38,12.27,19a38.31,38.31,0,0,1-3.35,18.67,53.08,53.08,0,0,1-25.47,26.36,30.28,30.28,0,0,1-13.14,3.38c-7.73.1-13.42-3.33-17.41-9.76a35.17,35.17,0,0,1-4.83-15.55C1143.94,844.41,1144.08,842.57,1144.08,840.75Z"/></g></g></svg>