<svg xmlns="http://www.w3.org/2000/svg" viewBox="0 0 740.37 67.02"><defs><style>.cls-1{fill:#231f20;}</style></defs><title>Asset 1</title><g id="Layer_2" data-name="Layer 2"><g id="Layer_1-2" data-name="Layer 1"><rect class="cls-1" y="17.22" width="4.15" height="44.49"/><path class="cls-1" d="M56.66,43.78s-1.75-3.63-3.16-6.19L41.73,17.22H37.48V61.71h3.91v-29c0-3.41-.1-6.87-.3-10.14h0l3.51,6.67L56.32,49.65h4.25V0H56.66Z"/><path class="cls-1" d="M102.05,17.22l-.53,0H75v3.27h19V49.65h8.31c9.79,0,15.13-6,15.13-16.37S112,17.22,102.05,17.22Zm-.3,29.07H98.1V20.58h3.66c7.61,0,11.37,4.55,11.37,12.71S109.37,46.29,101.76,46.29Z"/><polygon class="cls-1" points="147.21 49.65 166.39 49.65 166.39 46.14 151.36 46.14 151.36 34.38 163.62 34.38 163.62 30.86 151.36 30.86 151.36 20.68 183.11 20.68 183.11 17.22 147.21 17.22 147.21 49.65"/><polygon class="cls-1" points="203.61 17.22 199.46 17.22 199.46 49.65 234.97 49.65 234.97 46.14 203.61 46.14 203.61 17.22"/><path class="cls-1" d="M308.09,40.16c0-4.45-2.77-7-7.51-7.76v-.2a7,7,0,0,0,5.69-7.07c0-5.69-4.6-7.91-11.17-7.91h-9.64V30.79h-17v3h17V49.65h10.38C303,49.65,308.09,46.54,308.09,40.16ZM289.59,20.48h5c5,0,7.61,1.48,7.61,5,0,2.85-1.48,4.67-4.8,5.31h-7.81Zm5.64,25.91h-5.64V34.13h5.64c5.69,0,8.8,1.83,8.8,5.83C304,44.36,300.77,46.39,295.23,46.39Z"/><polygon class="cls-1" points="343.14 0 338.99 0 338.99 49.65 365.89 49.65 365.89 46.14 343.14 46.14 343.14 0"/><polygon class="cls-1" points="391.65 46.14 391.65 34.38 403.91 34.38 403.91 30.86 391.65 30.86 391.65 20.68 406.18 20.68 406.18 17.22 387.49 17.22 387.49 49.65 422.18 49.65 422.18 46.14 391.65 46.14"/><rect class="cls-1" x="247.96" y="8" width="4.15" height="46.65"/><path class="cls-1" d="M480.36,17.37h-8.11V46.71h-10v3l14.83.17L477,49.8h3.58c9.79,0,15.13-6,15.13-16.37S490.35,17.37,480.36,17.37Zm-.3,29.07h-3.66V20.73h3.66c7.61,0,11.37,4.55,11.37,12.71S487.68,46.44,480.07,46.44Z"/><path class="cls-1" d="M533.42,17.37,515.55,67h4.2l10-27.11h11.82l3.11,9.89H549l-11-32.43Zm7.12,19.23H530.8l1.58-4.94c1.14-3.61,2.18-7.17,3.21-10.93h.2c1,3.76,2.08,7.32,3.21,10.93Z"/><path class="cls-1" d="M597.25,34.13c0,3.41.15,7.07.35,10.33h0l-3.51-6.72L582.32,17.37h-4.25V67H582V32.85c0-3.41-.1-6.87-.3-10.14h0l3.51,6.67L596.9,49.8h4.25V.15h-3.91Z"/><path class="cls-1" d="M647,46.79c-6.18,0-10.09-5.14-10.09-13.3s4.1-13.1,10.28-13.1a8.66,8.66,0,0,1,6.48,3L656,20.78a12,12,0,0,0-8.85-4c-8.31,0-14.49,6.38-14.49,16.81s6.08,16.81,14.24,16.81a12.42,12.42,0,0,0,9.84-4.7l-2.32-2.52A9.46,9.46,0,0,1,647,46.79Z"/><polygon class="cls-1" points="687.24 49.8 706.42 49.8 706.42 46.29 691.39 46.29 691.39 34.53 703.65 34.53 703.65 31.02 691.39 31.02 691.39 20.83 740.37 20.83 740.37 17.37 687.24 17.37 687.24 49.8"/></g></g></svg>