<svg xmlns="http://www.w3.org/2000/svg" viewBox="0 0 58.49 24.78"><defs><style>.cls-1{fill:#96c5d8;}.cls-2{fill:#23a2c1;}</style></defs><title>Asset 1</title><g id="Layer_2" data-name="Layer 2"><g id="Layer_1-2" data-name="Layer 1"><path class="cls-1" d="M13.81,13.31a3.92,3.92,0,0,0-.53-2.21,1.74,1.74,0,0,0-1.53-.78,3.17,3.17,0,0,0-1.93.87c-.51.42-1.94,2.18-2.62,2.87-.26.26-.37.1-.33-.07.21-.84.7-2.79.7-2.79,0-.42-.17-.62-.5-.62l-.31.06L4,11.09a1.42,1.42,0,0,0-1.25,1.25L.12,23.41a1.2,1.2,0,0,0-.06.37.88.88,0,0,0-.06.37q0,.56.81.56h2.1a1.46,1.46,0,0,0,.94-.22,2.53,2.53,0,0,0,.5-1.09c.54-2.08,1.34-5.44,2.17-6.75a3.49,3.49,0,0,1,2-1.6c.62-.18,1,0,1,.41a1,1,0,0,1-.07.43l-.12.4a2.71,2.71,0,0,0-.1.57c0,.29.22.43.59.41a4.61,4.61,0,0,0,.76-.1s1.57-.28,2-.4c.72-.22,1-1.52,1-1.52A5.15,5.15,0,0,0,13.81,13.31Z"/><path class="cls-1" d="M19.19,19.13l.27,0,.44.09a3.18,3.18,0,0,0,1.29.24,5.15,5.15,0,0,0,2-.41A5.89,5.89,0,0,0,24.93,18a5.32,5.32,0,0,0,1.18-1.56,4.14,4.14,0,0,0,.44-1.89,3.72,3.72,0,0,0-1.32-2.88A4.66,4.66,0,0,0,22,10.48a7.63,7.63,0,0,0-3.24.71,8.45,8.45,0,0,0-2.68,1.94A10.22,10.22,0,0,0,14.24,16a8.16,8.16,0,0,0-.71,3.35,5.28,5.28,0,0,0,1.53,4,5.61,5.61,0,0,0,4.06,1.47,8.15,8.15,0,0,0,6.42-3.18c.55-.74.78-1.22.67-1.65s-.8-.25-1.14.24a10.7,10.7,0,0,1-.77,1,4.85,4.85,0,0,1-1.74,1.35,4.49,4.49,0,0,1-1.91.53,1.8,1.8,0,0,1-1.53-.83,3.45,3.45,0,0,1-.59-2.06Q18.54,19.13,19.19,19.13Zm.65-4.65a6.21,6.21,0,0,1,.94-1.59A2,2,0,0,1,22.31,12q.82,0,.82,1.35a4.21,4.21,0,0,1-.68,2.09,5.25,5.25,0,0,1-1.56,1.74l-.5.24a1.35,1.35,0,0,1-.56.12c-.47,0-.71-.25-.71-.76A6.67,6.67,0,0,1,19.83,14.48Z"/><path class="cls-1" d="M36.18,16.14a1.88,1.88,0,0,0-.26.59c0,.32.24.48.55.48l.87-.11,1.22-.18c.83-.13,1.23-.84,1.23-2a4.21,4.21,0,0,0-.34-1.72,4.54,4.54,0,0,0-1-1.49,4.62,4.62,0,0,0-1.46-1,4.5,4.5,0,0,0-1.79-.36,6.52,6.52,0,0,0-3,.78,9.07,9.07,0,0,0-2.62,2.06,10.47,10.47,0,0,0-1.82,2.92,8.79,8.79,0,0,0-.69,3.43,5,5,0,0,0,1.43,3.7,5.16,5.16,0,0,0,3.82,1.43,8.28,8.28,0,0,0,5.19-2A7.51,7.51,0,0,0,39,21.1s.56-.81.41-1.33a.34.34,0,0,0-.35-.29c-.16,0-.36.14-.59.42a9.56,9.56,0,0,1-2.54,2.52,4,4,0,0,1-2.17.53c-1.51-.12-2.27-.9-2.27-2.68a5.11,5.11,0,0,1,.12-1c.08-.4.18-.81.3-1.25s.25-.87.39-1.31a11.55,11.55,0,0,1,.45-1.19A12.25,12.25,0,0,1,34.27,13a2.1,2.1,0,0,1,1.49-.92,1,1,0,0,1,.81.45,1.82,1.82,0,0,1,.33,1.1,4.94,4.94,0,0,1-.15,1.1A6.06,6.06,0,0,1,36.18,16.14Z"/><path class="cls-2" d="M53.67,6.78c-.22,0-.33.17-.33.52a3.24,3.24,0,0,0,.19.87c.11.33.23.49.38.49s.27-.15.27-.46a3.18,3.18,0,0,0-.14-1C54,6.91,53.84,6.78,53.67,6.78Z"/><path class="cls-2" d="M53.48,9.31a2.68,2.68,0,0,0-.16-.25l-.16-.24a5.76,5.76,0,0,1-.35-.62,1.57,1.57,0,0,0-.14-.38.18.18,0,0,0-.16-.08c-.11,0-.25.13-.41.38a5,5,0,0,0-.49,2.09,1.78,1.78,0,0,0,.22,1,.67.67,0,0,0,.6.34h.05a1.18,1.18,0,0,0,.82-.49,2.61,2.61,0,0,0,.35-.58,1.41,1.41,0,0,0,.13-.56.65.65,0,0,0,0-.26A1.25,1.25,0,0,0,53.48,9.31Z"/><path class="cls-2" d="M58.48,8.19C58.25,3.42,53.91-.24,48.8,0S39.72,4.33,40,9.09A8.2,8.2,0,0,0,41.9,14s-.68,1.85-1.13,3.28c-.32,1,.64.54.64.54.61-.19,3.55-1.47,3.55-1.47a9.75,9.75,0,0,0,4.69.93C54.76,17,58.71,13,58.48,8.19Zm-9.76-5.4A1.25,1.25,0,1,1,47.47,4,1.25,1.25,0,0,1,48.72,2.78Zm-4.46,9.69a1.11,1.11,0,1,1,1.11-1.11A1.11,1.11,0,0,1,44.25,12.47Zm10.59-2.16a.93.93,0,0,0-.25.1,1.35,1.35,0,0,0-.19.23A4.84,4.84,0,0,1,53.16,12a2.41,2.41,0,0,1-1.41.5,2.12,2.12,0,0,1-1.66-.73,2.48,2.48,0,0,1-.51-.9l0,.06a5,5,0,0,1-1.29,1.18,2.39,2.39,0,0,1-1.32.4c-.63,0-.94-.25-.94-.91v-.24a1.35,1.35,0,0,1,0-.27,3.72,3.72,0,0,1,.08-.62l.05-.27L46.88,7c.09-.34.25-.54.46-.57l1.44-.22h.08c.24,0,.35.1.35.3a.41.41,0,0,1,0,.16L48.37,10l-.05.19-.05.3v.08q0,.46.33.46a.74.74,0,0,0,.56-.3,2.19,2.19,0,0,0,.31-.52c0-.1,0-.19,0-.3a3.16,3.16,0,0,1,.77-2.1,3.73,3.73,0,0,1,2.08-1.21.8.8,0,0,0,.49-.27l.16-.22.25-.22a1,1,0,0,1,.57-.22q.57,0,1,.76a3.81,3.81,0,0,1,.41,1.82A2.25,2.25,0,0,1,55,9c0,.09,0,.17,0,.23a1.17,1.17,0,0,0,0,.15.18.18,0,0,0,.06.14l.13.16.11.16a.3.3,0,0,1,.05.16Q55.33,10.15,54.84,10.31Z"/></g></g></svg>