<svg xmlns="http://www.w3.org/2000/svg" viewBox="0 0 661.97 183.21"><defs><style>.cls-1{fill:#231f20;}</style></defs><title>Asset 1</title><g id="Layer_2" data-name="Layer 2"><g id="Layer_2-2" data-name="Layer 2"><polygon class="cls-1" points="580.3 30.74 568.97 19.2 568.97 90.11 26.43 90.11 43.3 101.44 580.3 101.44 580.3 30.74"/><polygon class="cls-1" points="593.64 44.31 584.3 34.81 584.3 105.44 49.25 105.44 63.14 114.77 593.64 114.77 593.64 44.31"/><polygon class="cls-1" points="607.47 58.4 599.64 50.42 599.64 120.77 72.06 120.77 83.72 128.61 607.47 128.61 607.47 58.4"/><polygon class="cls-1" points="566.97 17.16 551.3 1.21 551.3 72.55 0.3 72.55 23.46 88.11 566.97 88.11 566.97 17.16"/><polygon class="cls-1" points="659.97 111.84 659.97 181.1 161.83 181.1 164.97 183.21 661.97 183.21 661.97 113.88 659.97 111.84"/><polygon class="cls-1" points="620.8 71.97 614.47 65.52 614.47 135.61 94.13 135.61 103.56 141.94 620.8 141.94 620.8 71.97"/><polygon class="cls-1" points="634.14 85.54 629.8 81.13 629.8 150.94 116.95 150.94 123.4 155.27 634.14 155.27 634.14 85.54"/><polygon class="cls-1" points="647.97 99.63 645.14 96.74 645.14 166.27 139.76 166.27 143.98 169.1 647.97 169.1 647.97 99.63"/><path class="cls-1" d="M461.33,16c-10.81,0-18.51,8.65-18.51,19.39v.13c0,10.74,7.83,19.52,18.64,19.52S480,46.37,480,35.63V35.5C480,24.76,472.14,16,461.33,16Z"/><path class="cls-1" d="M550,0H0V71H550ZM48.61,27c0,10.2-8.51,15.47-18.58,15.47H18.55V59.14H13.21V11.86h17.7c10.67,0,17.7,5.67,17.7,15ZM97,38.94c0,13.78-7.9,20.94-19.72,20.94S57.59,52.72,57.59,39.35V11.86h5.34V39c0,10.2,5.4,15.94,14.46,15.94,8.71,0,14.25-5.27,14.25-15.6V11.86H97Zm57.89,20.2h-5.34V20.84L132.3,46.17H132L114.81,20.91V59.14h-5.2V11.86H115l17.22,25.8,17.22-25.8h5.4Zm58.63,0h-5.34V20.84L190.94,46.17h-.27L173.44,20.91V59.14h-5.2V11.86h5.4l17.22,25.8,17.22-25.8h5.4Zm47.89,0H226.87V11.86h34.18v4.86H232.21V32.87H258v4.86h-25.8V54.28h29.18Zm42.69,0H272.13V11.86h5.34V54.21h26.61Zm23.1.34h-4.73L302.12,11.86h5.94l16.82,40.73,16.89-40.73h5.74Zm35.46-.34h-5.34V11.86h5.34Zm46.2-12.7c0,8.11-6.76,13.37-16.14,13.37a27.67,27.67,0,0,1-19.32-7.56l3.31-3.92c4.93,4.46,9.66,6.69,16.21,6.69,6.35,0,10.54-3.38,10.54-8v-.14c0-4.39-2.36-6.89-12.29-9C380.28,35.5,375.28,32,375.28,24.22v-.13c0-7.43,6.55-12.9,15.54-12.9A24.67,24.67,0,0,1,407.43,17l-3.11,4.12A20.77,20.77,0,0,0,390.68,16c-6.15,0-10.06,3.38-10.06,7.63v.13c0,4.46,2.43,7,12.83,9.19s15.4,6.15,15.4,13.37Zm16.69,12.7H420.2V11.86h5.34Zm60-23.64c0,13-9.79,24.45-24.18,24.45s-24-11.28-24-24.32V35.5c0-13,9.79-24.45,24.18-24.45s24,11.28,24,24.32C485.58,35.43,485.58,35.43,485.52,35.5Zm51.27,23.64h-4.26L502,20.37V59.14h-5.2V11.86h5l29.79,37.89V11.86h5.2Z"/><path class="cls-1" d="M30.51,16.79h-12v20.8H30.24c7.84,0,13-4.19,13-10.4v-.14C43.2,20.3,38.14,16.79,30.51,16.79Z"/></g></g></svg>